<svg xmlns="http://www.w3.org/2000/svg" xmlns:xlink="http://www.w3.org/1999/xlink" contentStyleType="text/css" data-diagram-type="SEQUENCE" height="804px" preserveAspectRatio="none" style="width:1223px;height:804px;background:#FCFCFF;" version="1.1" viewBox="0 0 1223 804" width="1223px" zoomAndPan="magnify"><?plantuml $version$?><defs/><g><rect fill="#FCFCFF" height="804" style="stroke:none;stroke-width:1;" width="1223" x="0" y="0"/><g class="participant-lifeline" data-entity-uid="part1" data-qualified-name="Validator" data-source-line="11" id="part1-lifeline"><g><title>Validator</title><rect fill="#000000" fill-opacity="0.00000" height="635.4143" width="8" x="33.6239" y="84.0679"/><line style="stroke:#475569;stroke-width:0.5;stroke-dasharray:5,5;" x1="37" x2="37" y1="84.0679" y2="719.4822"/></g></g><g class="participant-lifeline" data-entity-uid="part2" data-qualified-name="Admission" data-source-line="12" id="part2-lifeline"><g><title>Block admission</title><rect fill="#000000" fill-opacity="0.00000" height="635.4143" width="8" x="222.165" y="84.0679"/><line style="stroke:#475569;stroke-width:0.5;stroke-dasharray:5,5;" x1="226.0002" x2="226.0002" y1="84.0679" y2="719.4822"/></g></g><g class="participant-lifeline" data-entity-uid="part3" data-qualified-name="Metadata" data-source-line="13" id="part3-lifeline"><g><title>Metadata</title><rect fill="#000000" fill-opacity="0.00000" height="635.4143" width="8" x="470.1652" y="84.0679"/><line style="stroke:#475569;stroke-width:0.5;stroke-dasharray:5,5;" x1="473.7283" x2="473.7283" y1="84.0679" y2="719.4822"/></g></g><g class="participant-lifeline" data-entity-uid="part4" data-qualified-name="Occurrence" data-source-line="14" id="part4-lifeline"><g><title>Tagged occurrence store</title><rect fill="#000000" fill-opacity="0.00000" height="635.4143" width="8" x="659.5124" y="84.0679"/><line style="stroke:#475569;stroke-width:0.5;stroke-dasharray:5,5;" x1="662.5917" x2="662.5917" y1="84.0679" y2="719.4822"/></g></g><g class="participant-lifeline" data-entity-uid="part5" data-qualified-name="Lifecycle" data-source-line="15" id="part5-lifeline"><g><title>Lifecycle store</title><rect fill="#000000" fill-opacity="0.00000" height="635.4143" width="8" x="856.2955" y="84.0679"/><line style="stroke:#475569;stroke-width:0.5;stroke-dasharray:5,5;" x1="859.6477" x2="859.6477" y1="84.0679" y2="719.4822"/></g></g><g class="participant-lifeline" data-entity-uid="part6" data-qualified-name="Finalizer" data-source-line="16" id="part6-lifeline"><g><title>Finalizer</title><rect fill="#000000" fill-opacity="0.00000" height="635.4143" width="8" x="1096.9146" y="84.0679"/><line style="stroke:#475569;stroke-width:0.5;stroke-dasharray:5,5;" x1="1100.4818" x2="1100.4818" y1="84.0679" y2="719.4822"/></g></g><g class="participant-lifeline" data-entity-uid="part7" data-qualified-name="Client" data-source-line="17" id="part7-lifeline"><g><title>API client</title><rect fill="#000000" fill-opacity="0.00000" height="635.4143" width="8" x="1175.0214" y="84.0679"/><line style="stroke:#475569;stroke-width:0.5;stroke-dasharray:5,5;" x1="1178.3475" x2="1178.3475" y1="84.0679" y2="719.4822"/></g></g><g class="participant participant-head" data-entity-uid="part1" data-qualified-name="Validator" data-source-line="11" id="part1-head"><text fill="#000000" font-family="sans-serif" font-size="14" lengthAdjust="spacing" textLength="59.2478" x="5" y="79.9659">Validator</text><ellipse cx="37.6239" cy="13.5" fill="#DBEAFE" rx="8" ry="8" style="stroke:#181818;stroke-width:0.5;"/><path d="M37.6239,21.5 L37.6239,48.5 M24.6239,29.5 L50.6239,29.5 M37.6239,48.5 L24.6239,63.5 M37.6239,48.5 L50.6239,63.5" fill="none" style="stroke:#181818;stroke-width:0.5;"/></g><g class="participant participant-tail" data-entity-uid="part1" data-qualified-name="Validator" data-source-line="11" id="part1-tail"><text fill="#000000" font-family="sans-serif" font-size="14" lengthAdjust="spacing" textLength="59.2478" x="5" y="733.4482">Validator</text><ellipse cx="37.6239" cy="746.0501" fill="#DBEAFE" rx="8" ry="8" style="stroke:#181818;stroke-width:0.5;"/><path d="M37.6239,754.0501 L37.6239,781.0501 M24.6239,762.0501 L50.6239,762.0501 M37.6239,781.0501 L24.6239,796.0501 M37.6239,781.0501 L50.6239,796.0501" fill="none" style="stroke:#181818;stroke-width:0.5;"/></g><g class="participant participant-head" data-entity-uid="part2" data-qualified-name="Admission" data-source-line="12" id="part2-head"><rect fill="#BFDBFE" height="33.0679" rx="2.5" ry="2.5" style="stroke:#334155;stroke-width:0.5;" width="120.3296" x="166.0002" y="50"/><text fill="#0F172A" font-family="sans-serif" font-size="14" lengthAdjust="spacing" textLength="106.3296" x="173.0002" y="71.9659">Block admission</text></g><g class="participant participant-tail" data-entity-uid="part2" data-qualified-name="Admission" data-source-line="12" id="part2-tail"><rect fill="#BFDBFE" height="33.0679" rx="2.5" ry="2.5" style="stroke:#334155;stroke-width:0.5;" width="120.3296" x="166.0002" y="718.4822"/><text fill="#0F172A" font-family="sans-serif" font-size="14" lengthAdjust="spacing" textLength="106.3296" x="173.0002" y="740.4482">Block admission</text></g><g class="participant participant-head" data-entity-uid="part3" data-qualified-name="Metadata" data-source-line="13" id="part3-head"><text fill="#000000" font-family="sans-serif" font-size="14" lengthAdjust="spacing" textLength="62.8738" x="439.7283" y="79.9659">Metadata</text><path d="M456.1652,29 C456.1652,19 474.1652,19 474.1652,19 C474.1652,19 492.1652,19 492.1652,29 L492.1652,55 C492.1652,65 474.1652,65 474.1652,65 C474.1652,65 456.1652,65 456.1652,55 L456.1652,29" fill="#E0E7FF" style="stroke:#181818;stroke-width:0.5;"/><path d="M456.1652,29 C456.1652,39 474.1652,39 474.1652,39 C474.1652,39 492.1652,39 492.1652,29" fill="none" style="stroke:#181818;stroke-width:0.5;"/></g><g class="participant participant-tail" data-entity-uid="part3" data-qualified-name="Metadata" data-source-line="13" id="part3-tail"><text fill="#000000" font-family="sans-serif" font-size="14" lengthAdjust="spacing" textLength="62.8738" x="439.7283" y="733.4482">Metadata</text><path d="M456.1652,747.5501 C456.1652,737.5501 474.1652,737.5501 474.1652,737.5501 C474.1652,737.5501 492.1652,737.5501 492.1652,747.5501 L492.1652,773.5501 C492.1652,783.5501 474.1652,783.5501 474.1652,783.5501 C474.1652,783.5501 456.1652,783.5501 456.1652,773.5501 L456.1652,747.5501" fill="#E0E7FF" style="stroke:#181818;stroke-width:0.5;"/><path d="M456.1652,747.5501 C456.1652,757.5501 474.1652,757.5501 474.1652,757.5501 C474.1652,757.5501 492.1652,757.5501 492.1652,747.5501" fill="none" style="stroke:#181818;stroke-width:0.5;"/></g><g class="participant participant-head" data-entity-uid="part4" data-qualified-name="Occurrence" data-source-line="14" id="part4-head"><text fill="#000000" font-family="sans-serif" font-size="14" lengthAdjust="spacing" textLength="163.8414" x="578.5917" y="79.9659">Tagged occurrence store</text><path d="M645.5124,29 C645.5124,19 663.5124,19 663.5124,19 C663.5124,19 681.5124,19 681.5124,29 L681.5124,55 C681.5124,65 663.5124,65 663.5124,65 C663.5124,65 645.5124,65 645.5124,55 L645.5124,29" fill="#DCFCE7" style="stroke:#181818;stroke-width:0.5;"/><path d="M645.5124,29 C645.5124,39 663.5124,39 663.5124,39 C663.5124,39 681.5124,39 681.5124,29" fill="none" style="stroke:#181818;stroke-width:0.5;"/></g><g class="participant participant-tail" data-entity-uid="part4" data-qualified-name="Occurrence" data-source-line="14" id="part4-tail"><text fill="#000000" font-family="sans-serif" font-size="14" lengthAdjust="spacing" textLength="163.8414" x="578.5917" y="733.4482">Tagged occurrence store</text><path d="M645.5124,747.5501 C645.5124,737.5501 663.5124,737.5501 663.5124,737.5501 C663.5124,737.5501 681.5124,737.5501 681.5124,747.5501 L681.5124,773.5501 C681.5124,783.5501 663.5124,783.5501 663.5124,783.5501 C663.5124,783.5501 645.5124,783.5501 645.5124,773.5501 L645.5124,747.5501" fill="#DCFCE7" style="stroke:#181818;stroke-width:0.5;"/><path d="M645.5124,747.5501 C645.5124,757.5501 663.5124,757.5501 663.5124,757.5501 C663.5124,757.5501 681.5124,757.5501 681.5124,747.5501" fill="none" style="stroke:#181818;stroke-width:0.5;"/></g><g class="participant participant-head" data-entity-uid="part5" data-qualified-name="Lifecycle" data-source-line="15" id="part5-head"><text fill="#000000" font-family="sans-serif" font-size="14" lengthAdjust="spacing" textLength="93.2956" x="810.6477" y="79.9659">Lifecycle store</text><path d="M842.2955,29 C842.2955,19 860.2955,19 860.2955,19 C860.2955,19 878.2955,19 878.2955,29 L878.2955,55 C878.2955,65 860.2955,65 860.2955,65 C860.2955,65 842.2955,65 842.2955,55 L842.2955,29" fill="#FEF3C7" style="stroke:#181818;stroke-width:0.5;"/><path d="M842.2955,29 C842.2955,39 860.2955,39 860.2955,39 C860.2955,39 878.2955,39 878.2955,29" fill="none" style="stroke:#181818;stroke-width:0.5;"/></g><g class="participant participant-tail" data-entity-uid="part5" data-qualified-name="Lifecycle" data-source-line="15" id="part5-tail"><text fill="#000000" font-family="sans-serif" font-size="14" lengthAdjust="spacing" textLength="93.2956" x="810.6477" y="733.4482">Lifecycle store</text><path d="M842.2955,747.5501 C842.2955,737.5501 860.2955,737.5501 860.2955,737.5501 C860.2955,737.5501 878.2955,737.5501 878.2955,747.5501 L878.2955,773.5501 C878.2955,783.5501 860.2955,783.5501 860.2955,783.5501 C860.2955,783.5501 842.2955,783.5501 842.2955,773.5501 L842.2955,747.5501" fill="#FEF3C7" style="stroke:#181818;stroke-width:0.5;"/><path d="M842.2955,747.5501 C842.2955,757.5501 860.2955,757.5501 860.2955,757.5501 C860.2955,757.5501 878.2955,757.5501 878.2955,747.5501" fill="none" style="stroke:#181818;stroke-width:0.5;"/></g><g class="participant participant-head" data-entity-uid="part6" data-qualified-name="Finalizer" data-source-line="16" id="part6-head"><rect fill="#FED7AA" height="33.0679" rx="2.5" ry="2.5" style="stroke:#334155;stroke-width:0.5;" width="68.8658" x="1066.4818" y="50"/><text fill="#0F172A" font-family="sans-serif" font-size="14" lengthAdjust="spacing" textLength="54.8658" x="1073.4818" y="71.9659">Finalizer</text></g><g class="participant participant-tail" data-entity-uid="part6" data-qualified-name="Finalizer" data-source-line="16" id="part6-tail"><rect fill="#FED7AA" height="33.0679" rx="2.5" ry="2.5" style="stroke:#334155;stroke-width:0.5;" width="68.8658" x="1066.4818" y="718.4822"/><text fill="#0F172A" font-family="sans-serif" font-size="14" lengthAdjust="spacing" textLength="54.8658" x="1073.4818" y="740.4482">Finalizer</text></g><g class="participant participant-head" data-entity-uid="part7" data-qualified-name="Client" data-source-line="17" id="part7-head"><text fill="#000000" font-family="sans-serif" font-size="14" lengthAdjust="spacing" textLength="61.3478" x="1145.3475" y="79.9659">API client</text><ellipse cx="1179.0214" cy="13.5" fill="#EDE9FE" rx="8" ry="8" style="stroke:#181818;stroke-width:0.5;"/><path d="M1179.0214,21.5 L1179.0214,48.5 M1166.0214,29.5 L1192.0214,29.5 M1179.0214,48.5 L1166.0214,63.5 M1179.0214,48.5 L1192.0214,63.5" fill="none" style="stroke:#181818;stroke-width:0.5;"/></g><g class="participant participant-tail" data-entity-uid="part7" data-qualified-name="Client" data-source-line="17" id="part7-tail"><text fill="#000000" font-family="sans-serif" font-size="14" lengthAdjust="spacing" textLength="61.3478" x="1145.3475" y="733.4482">API client</text><ellipse cx="1179.0214" cy="746.0501" fill="#EDE9FE" rx="8" ry="8" style="stroke:#181818;stroke-width:0.5;"/><path d="M1179.0214,754.0501 L1179.0214,781.0501 M1166.0214,762.0501 L1192.0214,762.0501 M1179.0214,781.0501 L1166.0214,796.0501 M1179.0214,781.0501 L1192.0214,796.0501" fill="none" style="stroke:#181818;stroke-width:0.5;"/></g><g class="message" data-entity-1="part1" data-entity-2="part2" data-source-line="19" id="msg1"><polygon fill="#334155" points="214.165,113.7739,224.165,117.7739,214.165,121.7739,218.165,117.7739" style="stroke:#334155;stroke-width:1;stroke-linejoin:miter;stroke-miterlimit:10;"/><line style="stroke:#334155;stroke-width:1;" x1="37.6239" x2="220.165" y1="117.7739" y2="117.7739"/><text fill="#000000" font-family="sans-serif" font-size="13" lengthAdjust="spacing" textLength="164.5411" x="44.6239" y="111.9649">validated protocol-v6 block</text></g><g class="message" data-entity-1="part2" data-entity-2="part2" data-source-line="20" id="msg2"><line style="stroke:#334155;stroke-width:1;" x1="226.165" x2="268.165" y1="149.4799" y2="149.4799"/><line style="stroke:#334155;stroke-width:1;" x1="268.165" x2="268.165" y1="149.4799" y2="162.4799"/><line style="stroke:#334155;stroke-width:1;" x1="227.165" x2="268.165" y1="162.4799" y2="162.4799"/><polygon fill="#334155" points="237.165,158.4799,227.165,162.4799,237.165,166.4799,233.165,162.4799" style="stroke:#334155;stroke-width:1;stroke-linejoin:miter;stroke-miterlimit:10;"/><text fill="#000000" font-family="sans-serif" font-size="13" lengthAdjust="spacing" textLength="234.0002" x="233.165" y="143.6709">derive typed DeployIdV6 and evidence</text></g><g class="message" data-entity-1="part2" data-entity-2="part3" data-source-line="21" id="msg3"><polygon fill="#334155" points="462.1652,190.186,472.1652,194.186,462.1652,198.186,466.1652,194.186" style="stroke:#334155;stroke-width:1;stroke-linejoin:miter;stroke-miterlimit:10;"/><line style="stroke:#334155;stroke-width:1;" x1="226.165" x2="468.1652" y1="194.186" y2="194.186"/><text fill="#000000" font-family="sans-serif" font-size="13" lengthAdjust="spacing" textLength="180.5571" x="233.165" y="188.377">prepare immutable metadata</text></g><g class="message" data-entity-1="part2" data-entity-2="part4" data-source-line="22" id="msg4"><polygon fill="#334155" points="651.5124,221.892,661.5124,225.892,651.5124,229.892,655.5124,225.892" style="stroke:#334155;stroke-width:1;stroke-linejoin:miter;stroke-miterlimit:10;"/><line style="stroke:#334155;stroke-width:1;" x1="226.165" x2="657.5124" y1="225.892" y2="225.892"/><text fill="#000000" font-family="sans-serif" font-size="13" lengthAdjust="spacing" textLength="245.3232" x="233.165" y="220.083">prepare archive and canonical summary</text></g><g class="message" data-entity-1="part2" data-entity-2="part5" data-source-line="23" id="msg5"><polygon fill="#334155" points="848.2955,253.598,858.2955,257.598,848.2955,261.598,852.2955,257.598" style="stroke:#334155;stroke-width:1;stroke-linejoin:miter;stroke-miterlimit:10;"/><line style="stroke:#334155;stroke-width:1;" x1="226.165" x2="854.2955" y1="257.598" y2="257.598"/><text fill="#000000" font-family="sans-serif" font-size="13" lengthAdjust="spacing" textLength="150.1631" x="233.165" y="251.789">prepare inclusion events</text></g><g class="message" data-entity-1="part2" data-entity-2="part3" data-source-line="24" id="msg6"><polygon fill="#334155" points="462.1652,285.304,472.1652,289.304,462.1652,293.304,466.1652,289.304" style="stroke:#334155;stroke-width:1;stroke-linejoin:miter;stroke-miterlimit:10;"/><line style="stroke:#334155;stroke-width:1;" x1="226.165" x2="468.1652" y1="289.304" y2="289.304"/><text fill="#000000" font-family="sans-serif" font-size="13" lengthAdjust="spacing" textLength="179.5042" x="233.165" y="283.495">commit one strict transaction</text></g><g class="message" data-entity-1="part3" data-entity-2="part4" data-source-line="25" id="msg7"><polygon fill="#334155" points="651.5124,317.01,661.5124,321.01,651.5124,325.01,655.5124,321.01" style="stroke:#334155;stroke-width:1;stroke-linejoin:miter;stroke-miterlimit:10;"/><line style="stroke:#334155;stroke-width:1;" x1="474.1652" x2="657.5124" y1="321.01" y2="321.01"/><text fill="#000000" font-family="sans-serif" font-size="13" lengthAdjust="spacing" textLength="165.3471" x="481.1652" y="315.201">same storage environment</text></g><g class="message" data-entity-1="part4" data-entity-2="part5" data-source-line="26" id="msg8"><polygon fill="#334155" points="848.2955,348.716,858.2955,352.716,848.2955,356.716,852.2955,352.716" style="stroke:#334155;stroke-width:1;stroke-linejoin:miter;stroke-miterlimit:10;"/><line style="stroke:#334155;stroke-width:1;" x1="663.5124" x2="854.2955" y1="352.716" y2="352.716"/><text fill="#000000" font-family="sans-serif" font-size="13" lengthAdjust="spacing" textLength="165.3471" x="670.5124" y="346.907">same storage environment</text></g><g class="message" data-entity-1="part5" data-entity-2="part2" data-source-line="27" id="msg9"><polygon fill="#334155" points="237.165,380.4221,227.165,384.4221,237.165,388.4221,233.165,384.4221" style="stroke:#334155;stroke-width:1;stroke-linejoin:miter;stroke-miterlimit:10;"/><line style="stroke:#334155;stroke-width:1;stroke-dasharray:2,2;" x1="231.165" x2="859.2955" y1="384.4221" y2="384.4221"/><text fill="#000000" font-family="sans-serif" font-size="13" lengthAdjust="spacing" textLength="159.9131" x="243.165" y="378.6131">atomic success or rollback</text></g><g class="message" data-entity-1="part2" data-entity-2="part1" data-source-line="28" id="msg10"><polygon fill="#334155" points="48.6239,412.1281,38.6239,416.1281,48.6239,420.1281,44.6239,416.1281" style="stroke:#334155;stroke-width:1;stroke-linejoin:miter;stroke-miterlimit:10;"/><line style="stroke:#334155;stroke-width:1;stroke-dasharray:2,2;" x1="42.6239" x2="225.165" y1="416.1281" y2="416.1281"/><text fill="#000000" font-family="sans-serif" font-size="13" lengthAdjust="spacing" textLength="152.7371" x="54.6239" y="410.3191">admitted or typed failure</text></g><g class="message" data-entity-1="part6" data-entity-2="part5" data-source-line="30" id="msg11"><polygon fill="#334155" points="871.2955,443.8341,861.2955,447.8341,871.2955,451.8341,867.2955,447.8341" style="stroke:#334155;stroke-width:1;stroke-linejoin:miter;stroke-miterlimit:10;"/><line style="stroke:#334155;stroke-width:1;" x1="865.2955" x2="1099.9146" y1="447.8341" y2="447.8341"/><text fill="#000000" font-family="sans-serif" font-size="13" lengthAdjust="spacing" textLength="216.6192" x="877.2955" y="442.0251">prepare write-once terminal verdict</text></g><g class="message" data-entity-1="part6" data-entity-2="part4" data-source-line="31" id="msg12"><polygon fill="#334155" points="674.5124,475.5401,664.5124,479.5401,674.5124,483.5401,670.5124,479.5401" style="stroke:#334155;stroke-width:1;stroke-linejoin:miter;stroke-miterlimit:10;"/><line style="stroke:#334155;stroke-width:1;" x1="668.5124" x2="1099.9146" y1="479.5401" y2="479.5401"/><text fill="#000000" font-family="sans-serif" font-size="13" lengthAdjust="spacing" textLength="303.3292" x="680.5124" y="473.7311">prepare terminal summary and hot-state deletion</text></g><g class="message" data-entity-1="part6" data-entity-2="part5" data-source-line="32" id="msg13"><polygon fill="#334155" points="871.2955,507.2461,861.2955,511.2461,871.2955,515.2461,867.2955,511.2461" style="stroke:#334155;stroke-width:1;stroke-linejoin:miter;stroke-miterlimit:10;"/><line style="stroke:#334155;stroke-width:1;" x1="865.2955" x2="1099.9146" y1="511.2461" y2="511.2461"/><text fill="#000000" font-family="sans-serif" font-size="13" lengthAdjust="spacing" textLength="179.5042" x="877.2955" y="505.4371">commit one strict transaction</text></g><g class="message" data-entity-1="part5" data-entity-2="part4" data-source-line="33" id="msg14"><polygon fill="#334155" points="674.5124,538.9521,664.5124,542.9521,674.5124,546.9521,670.5124,542.9521" style="stroke:#334155;stroke-width:1;stroke-linejoin:miter;stroke-miterlimit:10;"/><line style="stroke:#334155;stroke-width:1;" x1="668.5124" x2="859.2955" y1="542.9521" y2="542.9521"/><text fill="#000000" font-family="sans-serif" font-size="13" lengthAdjust="spacing" textLength="172.7831" x="680.5124" y="537.1431">preserve permanent archive</text></g><g class="message" data-entity-1="part4" data-entity-2="part6" data-source-line="34" id="msg15"><polygon fill="#334155" points="1088.9146,570.6582,1098.9146,574.6582,1088.9146,578.6582,1092.9146,574.6582" style="stroke:#334155;stroke-width:1;stroke-linejoin:miter;stroke-miterlimit:10;"/><line style="stroke:#334155;stroke-width:1;stroke-dasharray:2,2;" x1="663.5124" x2="1094.9146" y1="574.6582" y2="574.6582"/><text fill="#000000" font-family="sans-serif" font-size="13" lengthAdjust="spacing" textLength="104.3901" x="670.5124" y="568.8492">terminal survivor</text></g><g class="message" data-entity-1="part7" data-entity-2="part4" data-source-line="36" id="msg16"><polygon fill="#334155" points="674.5124,602.3642,664.5124,606.3642,674.5124,610.3642,670.5124,606.3642" style="stroke:#334155;stroke-width:1;stroke-linejoin:miter;stroke-miterlimit:10;"/><line style="stroke:#334155;stroke-width:1;" x1="668.5124" x2="1178.0214" y1="606.3642" y2="606.3642"/><text fill="#000000" font-family="sans-serif" font-size="13" lengthAdjust="spacing" textLength="103.1421" x="680.5124" y="600.5552">canonical lookup</text></g><g class="message" data-entity-1="part4" data-entity-2="part7" data-source-line="37" id="msg17"><polygon fill="#334155" points="1167.0214,634.0702,1177.0214,638.0702,1167.0214,642.0702,1171.0214,638.0702" style="stroke:#334155;stroke-width:1;stroke-linejoin:miter;stroke-miterlimit:10;"/><line style="stroke:#334155;stroke-width:1;stroke-dasharray:2,2;" x1="663.5124" x2="1173.0214" y1="638.0702" y2="638.0702"/><text fill="#000000" font-family="sans-serif" font-size="13" lengthAdjust="spacing" textLength="195.1432" x="670.5124" y="632.2612">open or terminal representative</text></g><g class="message" data-entity-1="part7" data-entity-2="part4" data-source-line="38" id="msg18"><polygon fill="#334155" points="674.5124,665.7762,664.5124,669.7762,674.5124,673.7762,670.5124,669.7762" style="stroke:#334155;stroke-width:1;stroke-linejoin:miter;stroke-miterlimit:10;"/><line style="stroke:#334155;stroke-width:1;" x1="668.5124" x2="1178.0214" y1="669.7762" y2="669.7762"/><text fill="#000000" font-family="sans-serif" font-size="13" lengthAdjust="spacing" textLength="122.3171" x="680.5124" y="663.9672">exact source lookup</text></g><g class="message" data-entity-1="part4" data-entity-2="part7" data-source-line="39" id="msg19"><polygon fill="#334155" points="1167.0214,697.4822,1177.0214,701.4822,1167.0214,705.4822,1171.0214,701.4822" style="stroke:#334155;stroke-width:1;stroke-linejoin:miter;stroke-miterlimit:10;"/><line style="stroke:#334155;stroke-width:1;stroke-dasharray:2,2;" x1="663.5124" x2="1173.0214" y1="701.4822" y2="701.4822"/><text fill="#000000" font-family="sans-serif" font-size="13" lengthAdjust="spacing" textLength="148.9021" x="670.5124" y="695.6732">permanent archive rows</text></g><?plantuml-src VLDDRzim3BthLn39EK2xDCsQmm0diO427TR3qBigCwaGMVGasLasxB-FSXn_z0k-M28VoVSUvG_QbjB90fwbEkmTLJRVa247qsp3NoPyb-5VP4v7RVUmayRZC8A_AhGAuQy0I9oZOrjZFh-vNYpuya7ly45RN9FBqRNHc-LYSNitZBwPuMkMP1lEU9GkQALBQSEeHDTWa92H3MtuAhjUVad4Fo6a2dmnUP96vv9_9o0zT2UORjTfagMYxCl0P6r87K3cXVPUasqWoUK4qtMsNJE42yXdwH4ctp78U6eIBmUOfbVfaeNiytxA_Hvp8AKgvnhTFC-03Un7VpdTiWFfSW2CEgcJCaD0VpVDqco-MOuvPDeooJzu9joTOl9scIGNNPB7Ur16emrDtgRvvT6twHrJ5BrGis-z12kep_TCfdGKI96PrRVm77KJlL9Z39kdQuHmAXcsnTBGwJv_kWLfSy1Qvv7x67oHSiLTaDaXwAAeM1GcNRInCQ9NiST8frvYuzX7IKjMAsd0LqKXtMaCxpGTTBJAL4qSQvR6VpIXegBG0SX6ZvnM0OAJrhFCd2gwfNWrevV5sLEvHq1RQqUsu3PYi0xZkJv4zFim6-lEzXLQCM6bq7jWBnqP4v_za0jZEhDNpUw7Q2zddmtRIMqgXqBqg_I-O4Ud0yueJXxG5J4RQdGvIpB6lkTLXsZjQKnxeJ3pWRUDLyXWe-T7Gtpkma2YD-qzEjwHaljB6vz0kpKZ8nZLDLuDPtMrhia9qJwVLzNxfJD4XwfyNVECMW6LQ1l1BuLPb3YOPUvnbFUhuszc1vugn-K-R_267M_2qVy7?></g></svg>