<?plantuml 1.2026.2?><svg xmlns="http://www.w3.org/2000/svg" xmlns:xlink="http://www.w3.org/1999/xlink" contentStyleType="text/css" data-diagram-type="DESCRIPTION" height="1530px" preserveAspectRatio="none" style="width:1452px;height:1530px;background:#FFFFFF;" version="1.1" viewBox="0 0 1452 1530" width="1452px" zoomAndPan="magnify"><title>Methodology layer stack &#8212; nine techniques across four families</title><defs/><g><g class="title" data-source-line="35"><text fill="#000000" font-family="'sans-serif'" font-size="22" font-weight="bold" lengthAdjust="spacing" textLength="701.2303" x="371.384" y="38.5181">Methodology layer stack &#8212; nine techniques across four families</text></g><!--cluster Adversarial input layer--><g class="cluster" data-qualified-name="Adversarial input layer" data-source-line="51" id="ent0002"><path d="M46.5,61.9641 L172.6791,61.9641 A3.75,3.75 0 0 1 175.1791,64.4641 L182.1791,82.946 L664.5,82.946 A2.5,2.5 0 0 1 667,85.446 L667,205.4341 A2.5,2.5 0 0 1 664.5,207.9341 L46.5,207.9341 A2.5,2.5 0 0 1 44,205.4341 L44,64.4641 A2.5,2.5 0 0 1 46.5,61.9641" fill="#FFEBEE" style="stroke:#444444;stroke-width:1;"/><line style="stroke:#444444;stroke-width:1;" x1="44" x2="182.1791" y1="82.946" y2="82.946"/><text fill="#000000" font-family="'sans-serif'" font-size="11" font-weight="bold" lengthAdjust="spacing" textLength="125.1791" x="48" y="75.723">Adversarial input layer</text><text fill="#000000" font-family="'sans-serif'" font-size="11" font-style="italic" lengthAdjust="spacing" textLength="65.3505" x="326.8247" y="96.7049">&#171;Adversarial&#187;</text></g><!--cluster Formal-methods layer (mechanized)--><g class="cluster" data-qualified-name="Formal-methods layer .mechanized." data-source-line="59" id="ent0007"><path d="M13.5,394.9341 L211.9045,394.9341 A3.75,3.75 0 0 1 214.4045,397.4341 L221.4045,415.916 L486.5,415.916 A2.5,2.5 0 0 1 489,418.416 L489,1299.1941 A2.5,2.5 0 0 1 486.5,1301.6941 L13.5,1301.6941 A2.5,2.5 0 0 1 11,1299.1941 L11,397.4341 A2.5,2.5 0 0 1 13.5,394.9341" fill="#EEF2FF" style="stroke:#444444;stroke-width:1;"/><line style="stroke:#444444;stroke-width:1;" x1="11" x2="221.4045" y1="415.916" y2="415.916"/><text fill="#000000" font-family="'sans-serif'" font-size="11" font-weight="bold" lengthAdjust="spacing" textLength="197.4045" x="15" y="408.693">Formal-methods layer (mechanized)</text><text fill="#000000" font-family="'sans-serif'" font-size="11" font-style="italic" lengthAdjust="spacing" textLength="45.0227" x="231.4887" y="429.6749">&#171;Formal&#187;</text></g><!--cluster Randomized-search layer--><g class="cluster" data-qualified-name="Randomized-search layer" data-source-line="68" id="ent0013"><path d="M636.5,394.9341 L775.67,394.9341 A3.75,3.75 0 0 1 778.17,397.4341 L785.17,415.916 L1306.5,415.916 A2.5,2.5 0 0 1 1309,418.416 L1309,538.3941 A2.5,2.5 0 0 1 1306.5,540.8941 L636.5,540.8941 A2.5,2.5 0 0 1 634,538.3941 L634,397.4341 A2.5,2.5 0 0 1 636.5,394.9341" fill="#FFF7EE" style="stroke:#444444;stroke-width:1;"/><line style="stroke:#444444;stroke-width:1;" x1="634" x2="785.17" y1="415.916" y2="415.916"/><text fill="#000000" font-family="'sans-serif'" font-size="11" font-weight="bold" lengthAdjust="spacing" textLength="138.17" x="638" y="408.693">Randomized-search layer</text><text fill="#000000" font-family="'sans-serif'" font-size="11" font-style="italic" lengthAdjust="spacing" textLength="71.1915" x="939.9043" y="429.6749">&#171;Randomized&#187;</text></g><!--cluster Differential & metamorphic layer--><g class="cluster" data-qualified-name="Differential . metamorphic layer" data-source-line="76" id="ent0018"><path d="M693.5,61.9641 L876.1857,61.9641 A3.75,3.75 0 0 1 878.6857,64.4641 L885.6857,82.946 L1304.5,82.946 A2.5,2.5 0 0 1 1307,85.446 L1307,205.4341 A2.5,2.5 0 0 1 1304.5,207.9341 L693.5,207.9341 A2.5,2.5 0 0 1 691,205.4341 L691,64.4641 A2.5,2.5 0 0 1 693.5,61.9641" fill="#F3E5F5" style="stroke:#444444;stroke-width:1;"/><line style="stroke:#444444;stroke-width:1;" x1="691" x2="885.6857" y1="82.946" y2="82.946"/><text fill="#000000" font-family="'sans-serif'" font-size="11" font-weight="bold" lengthAdjust="spacing" textLength="181.6857" x="695" y="75.723">Differential &amp; metamorphic layer</text><text fill="#000000" font-family="'sans-serif'" font-size="11" font-style="italic" lengthAdjust="spacing" textLength="64.9655" x="970.5172" y="96.7049">&#171;Differential&#187;</text></g><!--cluster Promotion pipeline--><g class="cluster" data-qualified-name="Promotion pipeline" data-source-line="83" id="ent0022"><path d="M639.5,742.8941 L745.7142,742.8941 A3.75,3.75 0 0 1 748.2142,745.3941 L755.2142,763.876 L856.5,763.876 A2.5,2.5 0 0 1 859,766.376 L859,1284.2141 A2.5,2.5 0 0 1 856.5,1286.7141 L639.5,1286.7141 A2.5,2.5 0 0 1 637,1284.2141 L637,745.3941 A2.5,2.5 0 0 1 639.5,742.8941" fill="#EEFAF1" style="stroke:#444444;stroke-width:1;"/><line style="stroke:#444444;stroke-width:1;" x1="637" x2="755.2142" y1="763.876" y2="763.876"/><text fill="#000000" font-family="'sans-serif'" font-size="11" font-weight="bold" lengthAdjust="spacing" textLength="105.2142" x="641" y="756.653">Promotion pipeline</text><text fill="#000000" font-family="'sans-serif'" font-size="11" font-style="italic" lengthAdjust="spacing" textLength="48.9606" x="727.5197" y="777.6349">&#171;Pipeline&#187;</text></g><!--entity STRIDE--><g class="entity" data-qualified-name="Adversarial input layer.STRIDE" data-source-line="52" id="ent0003"><rect fill="#FFFFFF" height="49.9638" rx="2.5" ry="2.5" style="stroke:#333333;stroke-width:1;" width="117.8993" x="213.05" y="141.9641"/><text fill="#000000" font-family="'sans-serif'" font-size="11" lengthAdjust="spacing" textLength="63.2056" x="223.05" y="163.723">STRIDE pass</text><text fill="#000000" font-family="'sans-serif'" font-size="11" lengthAdjust="spacing" textLength="97.8993" x="223.05" y="178.7049">(threat model &#167;2.1)</text></g><!--entity Trees--><g class="entity" data-qualified-name="Adversarial input layer.Trees" data-source-line="53" id="ent0004"><rect fill="#FFFFFF" height="49.9638" rx="2.5" ry="2.5" style="stroke:#333333;stroke-width:1;" width="117.8993" x="60.05" y="141.9641"/><text fill="#000000" font-family="'sans-serif'" font-size="11" lengthAdjust="spacing" textLength="61.3466" x="70.05" y="163.723">Attack trees</text><text fill="#000000" font-family="'sans-serif'" font-size="11" lengthAdjust="spacing" textLength="97.8993" x="70.05" y="178.7049">(threat model &#167;2.2)</text></g><!--entity Damage--><g class="entity" data-qualified-name="Adversarial input layer.Damage" data-source-line="54" id="ent0005"><rect fill="#FFFFFF" height="49.9638" rx="2.5" ry="2.5" style="stroke:#333333;stroke-width:1;" width="115.7543" x="366.12" y="141.9641"/><text fill="#000000" font-family="'sans-serif'" font-size="11" lengthAdjust="spacing" textLength="95.7543" x="376.12" y="163.723">Damage optimizer</text><text fill="#000000" font-family="'sans-serif'" font-size="11" lengthAdjust="spacing" textLength="31.7788" x="376.12" y="178.7049">(Sage)</text></g><!--entity DeepThreat--><g class="entity" data-qualified-name="Adversarial input layer.DeepThreat" data-source-line="55" id="ent0006"><rect fill="#FFFFFF" height="49.9638" rx="2.5" ry="2.5" style="stroke:#333333;stroke-width:1;" width="133.9812" x="517.01" y="141.9641"/><text fill="#000000" font-family="'sans-serif'" font-size="11" lengthAdjust="spacing" textLength="98.0093" x="527.01" y="163.723">Deep-threat model</text><text fill="#000000" font-family="'sans-serif'" font-size="11" lengthAdjust="spacing" textLength="113.9812" x="527.01" y="178.7049">(Sage; Pareto frontier)</text></g><!--entity Rocq--><g class="entity" data-qualified-name="Formal-methods layer .mechanized..Rocq" data-source-line="60" id="ent0008"><rect fill="#FFFFFF" height="49.9638" rx="2.5" ry="2.5" style="stroke:#333333;stroke-width:1;" width="142.6821" x="26.66" y="474.9341"/><text fill="#000000" font-family="'sans-serif'" font-size="11" lengthAdjust="spacing" textLength="25.5418" x="36.66" y="496.693">Rocq</text><text fill="#000000" font-family="'sans-serif'" font-size="11" lengthAdjust="spacing" textLength="122.6821" x="36.66" y="511.6749">(theorems; unbounded)</text></g><!--entity TLC--><g class="entity" data-qualified-name="Formal-methods layer .mechanized..TLC" data-source-line="61" id="ent0009"><rect fill="#FFFFFF" height="49.9638" rx="2.5" ry="2.5" style="stroke:#333333;stroke-width:1;" width="131.8692" x="41.07" y="822.8941"/><text fill="#000000" font-family="'sans-serif'" font-size="11" lengthAdjust="spacing" textLength="53.4706" x="51.07" y="844.653">TLA&#8314; + TLC</text><text fill="#000000" font-family="'sans-serif'" font-size="11" lengthAdjust="spacing" textLength="111.8692" x="51.07" y="859.6349">(exhaustive bounded)</text></g><!--entity Apalache--><g class="entity" data-qualified-name="Formal-methods layer .mechanized..Apalache" data-source-line="62" id="ent0010"><rect fill="#FFFFFF" height="79.9276" rx="2.5" ry="2.5" style="stroke:#333333;stroke-width:1;" width="107.8344" x="91.08" y="1205.7641"/><text fill="#000000" font-family="'sans-serif'" font-size="11" lengthAdjust="spacing" textLength="81.8944" x="101.08" y="1227.523">TLA&#8314; + Apalache</text><text fill="#000000" font-family="'sans-serif'" font-size="11" lengthAdjust="spacing" textLength="77.8134" x="101.08" y="1242.5049">(SMT-symbolic)</text><text fill="#000000" font-family="'sans-serif'" font-size="11" lengthAdjust="spacing" textLength="87.8344" x="101.08" y="1257.4868">[planned; not yet</text><text fill="#000000" font-family="'sans-serif'" font-size="11" lengthAdjust="spacing" textLength="52.7446" x="103.94" y="1272.4687">exercised]</text></g><!--entity Kani--><g class="entity" data-qualified-name="Formal-methods layer .mechanized..Kani" data-source-line="63" id="ent0011"><rect fill="#FFFFFF" height="49.9638" rx="2.5" ry="2.5" style="stroke:#333333;stroke-width:1;" width="97.8795" x="375.06" y="474.9341"/><text fill="#000000" font-family="'sans-serif'" font-size="11" lengthAdjust="spacing" textLength="22.6158" x="385.06" y="496.693">Kani</text><text fill="#000000" font-family="'sans-serif'" font-size="11" lengthAdjust="spacing" textLength="77.8795" x="385.06" y="511.6749">(symbolic Rust)</text></g><!--entity Sage--><g class="entity" data-qualified-name="Formal-methods layer .mechanized..Sage" data-source-line="64" id="ent0012"><rect fill="#FFFFFF" height="49.9638" rx="2.5" ry="2.5" style="stroke:#333333;stroke-width:1;" width="135.3452" x="204.33" y="474.9341"/><text fill="#000000" font-family="'sans-serif'" font-size="11" lengthAdjust="spacing" textLength="25.1788" x="214.33" y="496.693">Sage</text><text fill="#000000" font-family="'sans-serif'" font-size="11" lengthAdjust="spacing" textLength="115.3452" x="214.33" y="511.6749">(exact finite modeling)</text></g><!--entity PropTest--><g class="entity" data-qualified-name="Randomized-search layer.PropTest" data-source-line="69" id="ent0014"><rect fill="#FFFFFF" height="49.9638" rx="2.5" ry="2.5" style="stroke:#333333;stroke-width:1;" width="127.8102" x="805.09" y="474.9341"/><text fill="#000000" font-family="'sans-serif'" font-size="11" lengthAdjust="spacing" textLength="44.1427" x="815.09" y="496.693">proptest</text><text fill="#000000" font-family="'sans-serif'" font-size="11" lengthAdjust="spacing" textLength="107.8102" x="815.09" y="511.6749">(in-Rust, sub-second)</text></g><!--entity Hypothesis--><g class="entity" data-qualified-name="Randomized-search layer.Hypothesis" data-source-line="70" id="ent0015"><rect fill="#FFFFFF" height="49.9638" rx="2.5" ry="2.5" style="stroke:#333333;stroke-width:1;" width="119.9343" x="650.03" y="474.9341"/><text fill="#000000" font-family="'sans-serif'" font-size="11" lengthAdjust="spacing" textLength="57.5296" x="660.03" y="496.693">Hypothesis</text><text fill="#000000" font-family="'sans-serif'" font-size="11" lengthAdjust="spacing" textLength="99.9343" x="660.03" y="511.6749">(stateful, shrinking)</text></g><!--entity LibFuzzer--><g class="entity" data-qualified-name="Randomized-search layer.LibFuzzer" data-source-line="71" id="ent0016"><rect fill="#FFFFFF" height="49.9638" rx="2.5" ry="2.5" style="stroke:#333333;stroke-width:1;" width="129.7242" x="968.14" y="474.9341"/><text fill="#000000" font-family="'sans-serif'" font-size="11" lengthAdjust="spacing" textLength="109.7242" x="978.14" y="496.693">libFuzzer / cargo-fuzz</text><text fill="#000000" font-family="'sans-serif'" font-size="11" lengthAdjust="spacing" textLength="93.6863" x="978.14" y="511.6749">(coverage-guided)</text></g><!--entity Loom--><g class="entity" data-qualified-name="Randomized-search layer.Loom" data-source-line="72" id="ent0017"><rect fill="#FFFFFF" height="49.9638" rx="2.5" ry="2.5" style="stroke:#333333;stroke-width:1;" width="160.073" x="1132.96" y="474.9341"/><text fill="#000000" font-family="'sans-serif'" font-size="11" lengthAdjust="spacing" textLength="29.3588" x="1142.96" y="496.693">Loom</text><text fill="#000000" font-family="'sans-serif'" font-size="11" lengthAdjust="spacing" textLength="140.073" x="1142.96" y="511.6749">(concurrency interleavings)</text></g><!--entity Triple--><g class="entity" data-qualified-name="Differential . metamorphic layer.Triple" data-source-line="77" id="ent0019"><rect fill="#FFFFFF" height="49.9638" rx="2.5" ry="2.5" style="stroke:#333333;stroke-width:1;" width="186.2836" x="1104.86" y="141.9641"/><text fill="#000000" font-family="'sans-serif'" font-size="11" lengthAdjust="spacing" textLength="94.1813" x="1114.86" y="163.723">Triple-bisim driver</text><text fill="#000000" font-family="'sans-serif'" font-size="11" lengthAdjust="spacing" textLength="166.2836" x="1114.86" y="178.7049">(harness &#8596; oracle &#8596; production)</text></g><!--entity Diff--><g class="entity" data-qualified-name="Differential . metamorphic layer.Diff" data-source-line="78" id="ent0020"><rect fill="#FFFFFF" height="49.9638" rx="2.5" ry="2.5" style="stroke:#333333;stroke-width:1;" width="148.1821" x="706.91" y="141.9641"/><text fill="#000000" font-family="'sans-serif'" font-size="11" lengthAdjust="spacing" textLength="128.1821" x="716.91" y="163.723">Differential Rust-vs-Scala</text><text fill="#000000" font-family="'sans-serif'" font-size="11" lengthAdjust="spacing" textLength="96.6233" x="716.91" y="178.7049">(corpus generator)</text></g><!--entity Meta--><g class="entity" data-qualified-name="Differential . metamorphic layer.Meta" data-source-line="79" id="ent0021"><rect fill="#FFFFFF" height="49.9638" rx="2.5" ry="2.5" style="stroke:#333333;stroke-width:1;" width="179.8839" x="890.06" y="141.9641"/><text fill="#000000" font-family="'sans-serif'" font-size="11" lengthAdjust="spacing" textLength="117.6332" x="900.06" y="163.723">Metamorphic relations</text><text fill="#000000" font-family="'sans-serif'" font-size="11" lengthAdjust="spacing" textLength="159.8839" x="900.06" y="178.7049">(permutation, idempotence, &#8230;)</text></g><!--entity Ledger--><g class="entity" data-qualified-name="Promotion pipeline.Ledger" data-source-line="84" id="ent0023"><rect fill="#FFFFFF" height="49.9638" rx="2.5" ry="2.5" style="stroke:#333333;stroke-width:1;" width="115.5233" x="653.24" y="1079.8041"/><text fill="#000000" font-family="'sans-serif'" font-size="11" lengthAdjust="spacing" textLength="95.5233" x="663.24" y="1101.563">Traceability ledger</text><text fill="#000000" font-family="'sans-serif'" font-size="11" lengthAdjust="spacing" textLength="58.6736" x="663.24" y="1116.5449">(8 statuses)</text></g><!--entity Classifier--><g class="entity" data-qualified-name="Promotion pipeline.Classifier" data-source-line="85" id="ent0024"><rect fill="#FFFFFF" height="49.9638" rx="2.5" ry="2.5" style="stroke:#333333;stroke-width:1;" width="137.9852" x="704.01" y="951.3441"/><text fill="#000000" font-family="'sans-serif'" font-size="11" lengthAdjust="spacing" textLength="117.9852" x="714.01" y="973.103">Threat-model classifier</text><text fill="#000000" font-family="'sans-serif'" font-size="11" lengthAdjust="spacing" textLength="52.0516" x="714.01" y="988.0849">(6 classes)</text></g><!--entity WitnessGate--><g class="entity" data-qualified-name="Promotion pipeline.WitnessGate" data-source-line="86" id="ent0025"><rect fill="#FFFFFF" height="49.9638" rx="2.5" ry="2.5" style="stroke:#333333;stroke-width:1;" width="109.7924" x="733.1" y="822.8941"/><text fill="#000000" font-family="'sans-serif'" font-size="11" lengthAdjust="spacing" textLength="89.7924" x="743.1" y="844.653">Witness rule gate</text><text fill="#000000" font-family="'sans-serif'" font-size="11" lengthAdjust="spacing" textLength="85.0623" x="743.1" y="859.6349">(see pipeline/01)</text></g><!--entity Corpus--><g class="entity" data-qualified-name="Promotion pipeline.Corpus" data-source-line="87" id="ent0026"><rect fill="#FFFFFF" height="49.9638" rx="2.5" ry="2.5" style="stroke:#333333;stroke-width:1;" width="190.9828" x="652.51" y="1220.7441"/><text fill="#000000" font-family="'sans-serif'" font-size="11" lengthAdjust="spacing" textLength="95.1933" x="662.51" y="1242.503">Persistent corpora</text><text fill="#000000" font-family="'sans-serif'" font-size="11" lengthAdjust="spacing" textLength="170.9828" x="662.51" y="1257.4849">(corpus_generator + fuzz/corpus)</text></g><g class="entity" data-qualified-name="GMN51" data-source-line="131" id="ent0052"><path d="M876.61,948.8541 L876.61,1003.7998 A0,0 0 0 0 876.61,1003.7998 L1205.3988,1003.7998 A0,0 0 0 0 1205.3988,1003.7998 L1205.3988,958.8541 L1195.3988,948.8541 L991.11,948.8541 L836.78,873.2541 L983.11,948.8541 L876.61,948.8541 A0,0 0 0 0 876.61,948.8541" fill="#FFE0B2" style="stroke:#E65100;stroke-width:1;"/><path d="M1195.3988,948.8541 L1195.3988,958.8541 L1205.3988,958.8541 L1195.3988,948.8541" fill="#FFE0B2" style="stroke:#E65100;stroke-width:1;"/><text fill="#000000" font-family="'sans-serif'" font-size="11" lengthAdjust="spacing" textLength="307.7888" x="882.61" y="965.613">Witness rule (philosophy &#167;4): a generated witness is *not* a</text><text fill="#000000" font-family="'sans-serif'" font-size="11" lengthAdjust="spacing" textLength="293.2029" x="882.61" y="980.5949">Rust vulnerability unless it reproduces on the production</text><text fill="#000000" font-family="'sans-serif'" font-size="11" lengthAdjust="spacing" textLength="271.6321" x="882.61" y="995.5768">Rust path or contradicts a production-path invariant.</text></g><!--link STRIDE to Sage--><g class="link" data-entity-1="ent0003" data-entity-2="ent0012" data-link-type="dependency" data-source-line="93" id="lnk27"><path d="M272,192.2841 C272,253.4941 272,407.2941 272,468.5441" fill="none" id="STRIDE-to-Sage" style="stroke:#1565C0;stroke-width:1;"/><polygon fill="#1565C0" points="272,474.5441,276,465.5441,272,469.5441,268,465.5441,272,474.5441" style="stroke:#1565C0;stroke-width:1;"/><text fill="#000000" font-family="'sans-serif'" font-size="11" lengthAdjust="spacing" textLength="64.2285" x="273" y="298.693">threat seeds</text></g><!--link Trees to Sage--><g class="link" data-entity-1="ent0004" data-entity-2="ent0012" data-link-type="dependency" data-source-line="94" id="lnk28"><path d="M130.25,192.2841 C158.54,253.4941 229.9027,407.8477 258.2127,469.0977" fill="none" id="Trees-to-Sage" style="stroke:#1565C0;stroke-width:1;"/><polygon fill="#1565C0" points="260.73,474.5441,260.5849,464.6963,258.6322,470.0055,253.3231,468.0528,260.73,474.5441" style="stroke:#1565C0;stroke-width:1;"/><text fill="#000000" font-family="'sans-serif'" font-size="11" lengthAdjust="spacing" textLength="69.2665" x="181.58" y="298.693">leaf coverage</text></g><!--link Damage to Sage--><g class="link" data-entity-1="ent0005" data-entity-2="ent0012" data-link-type="dependency" data-source-line="95" id="lnk29"><path d="M412.82,192.2841 C384.71,253.4941 313.8241,407.8416 285.6941,469.0916" fill="none" id="Damage-to-Sage" style="stroke:#1565C0;stroke-width:1;"/><polygon fill="#1565C0" points="283.19,474.5441,290.5812,468.0348,285.2768,470.0004,283.3112,464.696,283.19,474.5441" style="stroke:#1565C0;stroke-width:1;"/><text fill="#000000" font-family="'sans-serif'" font-size="11" lengthAdjust="spacing" textLength="82.4224" x="370.65" y="298.693">objective scores</text></g><!--link DeepThreat to Hypothesis--><g class="link" data-entity-1="ent0006" data-entity-2="ent0015" data-link-type="dependency" data-source-line="96" id="lnk30"><path d="M593.27,192.2841 C616.57,253.4941 675.2759,407.6865 698.5859,468.9365" fill="none" id="DeepThreat-to-Hypothesis" style="stroke:#1565C0;stroke-width:1;"/><polygon fill="#1565C0" points="700.72,474.5441,701.2573,464.7099,698.9416,469.8711,693.7804,467.5554,700.72,474.5441" style="stroke:#1565C0;stroke-width:1;"/><text fill="#000000" font-family="'sans-serif'" font-size="11" lengthAdjust="spacing" textLength="86.7784" x="635.71" y="298.693">multi-step traces</text></g><!--link Sage to WitnessGate--><g class="link" data-entity-1="ent0012" data-entity-2="ent0025" data-link-type="dependency" data-source-line="99" id="lnk31"><path d="M314.95,525.3541 C331.39,534.9441 350.21,546.1841 367,556.8941 C514.21,650.8041 678.9529,768.1354 749.5729,819.0454" fill="none" id="Sage-to-WitnessGate" style="stroke:#C62828;stroke-width:1;"/><polygon fill="#C62828" points="754.44,822.5541,749.4785,814.0463,750.3841,819.6302,744.8002,820.5358,754.44,822.5541" style="stroke:#C62828;stroke-width:1;"/><text fill="#000000" font-family="'sans-serif'" font-size="11" lengthAdjust="spacing" textLength="38.9947" x="507.87" y="646.653">witness</text></g><!--link Sage to TLC--><g class="link" data-entity-1="ent0012" data-entity-2="ent0009" data-link-type="dependency" data-source-line="100" id="lnk32"><path d="M257.33,524.9741 C241.56,551.2741 216.17,594.8741 197,633.8941 C164.16,700.7241 133.8174,776.9354 118.4074,816.9254" fill="none" id="Sage-to-TLC" style="stroke:#1565C0;stroke-width:1;"/><polygon fill="#1565C0" points="116.25,822.5241,123.2186,815.5643,118.0479,817.8585,115.7537,812.6878,116.25,822.5241" style="stroke:#1565C0;stroke-width:1;"/><text fill="#000000" font-family="'sans-serif'" font-size="11" lengthAdjust="spacing" textLength="79.7605" x="198" y="646.653">finite test cases</text></g><!--link Sage to Apalache--><g class="link" data-entity-1="ent0012" data-entity-2="ent0010" data-link-type="dependency" data-source-line="101" id="lnk33"><path d="M276.53,525.2541 C281.36,554.8241 287.61,606.1841 282,649.8941 C264.52,786.0941 234.77,815.0341 204,948.8541 C182.99,1040.2341 163.6015,1142.5724 153.1815,1199.4324" fill="none" id="Sage-to-Apalache" style="stroke:#1565C0;stroke-width:1;"/><polygon fill="#1565C0" points="152.1,1205.3341,157.6568,1197.2025,153.0013,1200.416,149.7878,1195.7605,152.1,1205.3341" style="stroke:#1565C0;stroke-width:1;"/><text fill="#000000" font-family="'sans-serif'" font-size="11" lengthAdjust="spacing" textLength="87.4494" x="267.63" y="852.633">symbolic bounds</text></g><!--link Sage to Hypothesis--><g class="link" data-entity-1="ent0012" data-entity-2="ent0015" data-link-type="dependency" data-source-line="102" id="lnk34"><path d="M284.33,474.4841 C298.25,449.0441 323.53,411.4041 358,395.0941 C410.63,370.1941 432.2,382.3041 489,395.0941 C556.53,410.2941 622.525,445.5305 665.295,471.3805" fill="none" id="Sage-to-Hypothesis" style="stroke:#1565C0;stroke-width:1;"/><polygon fill="#1565C0" points="670.43,474.4841,664.7966,466.4055,666.1509,471.8978,660.6585,473.2521,670.43,474.4841" style="stroke:#1565C0;stroke-width:1;"/><text fill="#000000" font-family="'sans-serif'" font-size="11" lengthAdjust="spacing" textLength="76.3285" x="457" y="375.693">seed scenarios</text></g><!--link PropTest to WitnessGate--><g class="link" data-entity-1="ent0014" data-entity-2="ent0025" data-link-type="dependency" data-source-line="105" id="lnk35"><path d="M863.3,525.2341 C848.43,588.7641 809.9174,753.242 795.0574,816.732" fill="none" id="PropTest-to-WitnessGate" style="stroke:#C62828;stroke-width:1;"/><polygon fill="#C62828" points="793.69,822.5741,799.6358,814.7225,794.8295,817.7057,791.8463,812.8994,793.69,822.5741" style="stroke:#C62828;stroke-width:1;"/><text fill="#000000" font-family="'sans-serif'" font-size="11" lengthAdjust="spacing" textLength="38.9947" x="838.77" y="646.653">witness</text></g><!--link Hypothesis to WitnessGate--><g class="link" data-entity-1="ent0015" data-entity-2="ent0025" data-link-type="dependency" data-source-line="106" id="lnk36"><path d="M721.04,525.2041 C728.47,542.3941 737.98,566.1741 744,587.8941 C767.46,672.4941 779.8718,770.3392 784.9018,816.6292" fill="none" id="Hypothesis-to-WitnessGate" style="stroke:#C62828;stroke-width:1;"/><polygon fill="#C62828" points="785.55,822.5941,788.5543,813.2147,785.0099,817.6234,780.6012,814.0789,785.55,822.5941" style="stroke:#C62828;stroke-width:1;"/><text fill="#000000" font-family="'sans-serif'" font-size="11" lengthAdjust="spacing" textLength="38.9947" x="759.86" y="646.653">witness</text></g><!--link LibFuzzer to WitnessGate--><g class="link" data-entity-1="ent0016" data-entity-2="ent0025" data-link-type="dependency" data-source-line="107" id="lnk37"><path d="M1015.77,525.2341 C970.79,588.7641 853.6375,754.1875 808.6775,817.6775" fill="none" id="LibFuzzer-to-WitnessGate" style="stroke:#C62828;stroke-width:1;"/><polygon fill="#C62828" points="805.21,822.5741,813.6756,817.5409,808.0996,818.4936,807.1468,812.9176,805.21,822.5741" style="stroke:#C62828;stroke-width:1;"/><text fill="#000000" font-family="'sans-serif'" font-size="11" lengthAdjust="spacing" textLength="122.4071" x="939.55" y="646.653">crash / counterexample</text></g><!--link Loom to WitnessGate--><g class="link" data-entity-1="ent0017" data-entity-2="ent0025" data-link-type="dependency" data-source-line="108" id="lnk38"><path d="M1192.47,525.3141 C1166,556.0741 1117.79,609.7741 1071,649.8941 C990.1,719.2441 889.9897,784.223 833.3797,819.313" fill="none" id="Loom-to-WitnessGate" style="stroke:#C62828;stroke-width:1;"/><polygon fill="#C62828" points="828.28,822.4741,838.037,821.1323,832.5298,819.8398,833.8222,814.3326,828.28,822.4741" style="stroke:#C62828;stroke-width:1;"/><text fill="#000000" font-family="'sans-serif'" font-size="11" lengthAdjust="spacing" textLength="88.0104" x="1089.65" y="646.653">schedule witness</text></g><!--link Kani to WitnessGate--><g class="link" data-entity-1="ent0011" data-entity-2="ent0025" data-link-type="dependency" data-source-line="109" id="lnk39"><path d="M465.09,525.3541 C479.47,534.5841 495.41,545.5941 509,556.8941 C615.37,645.3241 720.2406,765.84 764.0506,817.99" fill="none" id="Kani-to-WitnessGate" style="stroke:#C62828;stroke-width:1;"/><polygon fill="#C62828" points="767.91,822.5841,765.1837,813.1201,764.6939,818.7557,759.0583,818.2659,767.91,822.5841" style="stroke:#C62828;stroke-width:1;"/><text fill="#000000" font-family="'sans-serif'" font-size="11" lengthAdjust="spacing" textLength="61.4676" x="610.11" y="646.653">symbolic CE</text></g><!--link Triple to Ledger--><g class="link" data-entity-1="ent0019" data-entity-2="ent0023" data-link-type="dependency" data-source-line="112" id="lnk40"><path d="M1291.31,190.1841 C1320.86,203.1841 1346,223.4841 1346,254.9341 C1346,254.9341 1346,254.9341 1346,977.3341 C1346,1094.3741 931.79,1104.6829 775.04,1104.4529" fill="none" id="Triple-to-Ledger" style="stroke:#1565C0;stroke-width:1;"/><polygon fill="#1565C0" points="769.04,1104.4441,778.0341,1108.4573,774.04,1104.4514,778.0459,1100.4573,769.04,1104.4441" style="stroke:#1565C0;stroke-width:1;"/><text fill="#000000" font-family="'sans-serif'" font-size="11" lengthAdjust="spacing" textLength="97.9983" x="1347" y="600.653">divergence reports</text></g><!--link Diff to Ledger--><g class="link" data-entity-1="ent0020" data-entity-2="ent0023" data-link-type="dependency" data-source-line="113" id="lnk41"><path d="M767.48,192.1941 C752.02,219.4441 725.55,264.7441 700,301.9341 C672.91,341.3541 649.5,341.6841 634,386.9341 C594.58,501.9841 654.52,820.9541 687,1003.8041 C691.62,1029.8141 697.3823,1053.3645 702.7223,1073.5045" fill="none" id="Diff-to-Ledger" style="stroke:#1565C0;stroke-width:1;"/><polygon fill="#1565C0" points="704.26,1079.3041,705.8198,1069.5795,702.9786,1074.4711,698.087,1071.6299,704.26,1079.3041" style="stroke:#1565C0;stroke-width:1;"/><text fill="#000000" font-family="'sans-serif'" font-size="11" lengthAdjust="spacing" textLength="92.6194" x="627.45" y="600.653">Rust-vs-Scala diffs</text></g><!--link Meta to PropTest--><g class="link" data-entity-1="ent0021" data-entity-2="ent0014" data-link-type="dependency" data-source-line="114" id="lnk42"><path d="M971.84,192.2841 C951.31,253.4941 899.6177,407.6054 879.0777,468.8554" fill="none" id="Meta-to-PropTest" style="stroke:#1565C0;stroke-width:1;"/><polygon fill="#1565C0" points="877.17,474.5441,883.8239,467.2829,878.7597,469.8036,876.2391,464.7393,877.17,474.5441" style="stroke:#1565C0;stroke-width:1;"/><text fill="#000000" font-family="'sans-serif'" font-size="11" lengthAdjust="spacing" textLength="135.0681" x="941.31" y="298.693">transformation properties</text></g><!--link WitnessGate to Classifier--><g class="link" data-entity-1="ent0025" data-entity-2="ent0024" data-link-type="dependency" data-source-line="117" id="lnk43"><path d="M785.11,873.2541 C782.45,895.6541 779.2485,922.6961 776.5885,945.0661" fill="none" id="WitnessGate-to-Classifier" style="stroke:#000000;stroke-width:1;"/><polygon fill="#000000" points="775.88,951.0241,780.9147,942.5594,776.4704,946.0591,772.9707,941.6148,775.88,951.0241" style="stroke:#000000;stroke-width:1;"/><text fill="#000000" font-family="'sans-serif'" font-size="11" lengthAdjust="spacing" textLength="52.8106" x="782.4" y="915.613">classify (6)</text></g><!--link Classifier to Ledger--><g class="link" data-entity-1="ent0024" data-entity-2="ent0023" data-link-type="dependency" data-source-line="118" id="lnk44"><path d="M761.05,1001.7141 C750.07,1024.1041 736.5208,1051.7265 725.5608,1074.0865" fill="none" id="Classifier-to-Ledger" style="stroke:#000000;stroke-width:1;"/><polygon fill="#000000" points="722.92,1079.4741,730.4729,1073.1532,725.1207,1074.9844,723.2895,1069.6322,722.92,1079.4741" style="stroke:#000000;stroke-width:1;"/><text fill="#000000" font-family="'sans-serif'" font-size="11" lengthAdjust="spacing" textLength="47.2007" x="744.86" y="1046.563">status (8)</text></g><!--link Ledger to Corpus--><g class="link" data-entity-1="ent0023" data-entity-2="ent0026" data-link-type="dependency" data-source-line="119" id="lnk45"><path d="M717.44,1129.9841 C724.19,1155.3341 733.1974,1189.1258 739.9574,1214.5358" fill="none" id="Ledger-to-Corpus" style="stroke:#000000;stroke-width:1;"/><polygon fill="#000000" points="741.5,1220.3341,743.0517,1210.6082,740.2145,1215.5022,735.3206,1212.665,741.5,1220.3341" style="stroke:#000000;stroke-width:1;"/><text fill="#000000" font-family="'sans-serif'" font-size="11" lengthAdjust="spacing" textLength="34.8588" x="730.5" y="1172.523">persist</text></g><!--link Ledger to Rocq--><g class="link" data-entity-1="ent0023" data-entity-2="ent0008" data-link-type="dependency" data-source-line="122" id="lnk46"><path d="M654.2,1079.3341 C638.66,1071.1941 622.41,1061.2441 609,1049.8041 C432.99,899.6741 463.92,793.0241 296,633.8941 C248.96,589.3141 190.6484,552.5228 148.3684,528.3428" fill="none" id="Ledger-to-Rocq" style="stroke:#2E7D32;stroke-width:1;"/><polygon fill="#2E7D32" points="143.16,525.3641,148.9868,533.3044,147.5003,527.8463,152.9584,526.3599,143.16,525.3641" style="stroke:#2E7D32;stroke-width:1;"/><text fill="#000000" font-family="'sans-serif'" font-size="11" lengthAdjust="spacing" textLength="92.5973" x="378.62" y="723.653">promote theorem</text></g><!--link Ledger to TLC--><g class="link" data-entity-1="ent0023" data-entity-2="ent0009" data-link-type="dependency" data-source-line="123" id="lnk47"><path d="M652.97,1099.5041 C585.58,1093.3741 471.69,1079.3841 378,1049.8041 C333.27,1035.6741 322.08,1029.7641 283,1003.8041 C223.32,964.1541 166.7244,910.0648 134.5544,877.4648" fill="none" id="Ledger-to-TLC" style="stroke:#2E7D32;stroke-width:1;"/><polygon fill="#2E7D32" points="130.34,873.1941,133.8144,882.4098,133.852,876.753,139.5087,876.7906,130.34,873.1941" style="stroke:#2E7D32;stroke-width:1;"/><text fill="#000000" font-family="'sans-serif'" font-size="11" lengthAdjust="spacing" textLength="93.6533" x="284" y="981.093">promote invariant</text></g><!--link Ledger to Kani--><g class="link" data-entity-1="ent0023" data-entity-2="ent0011" data-link-type="dependency" data-source-line="124" id="lnk48"><path d="M660.22,1079.5741 C647.38,1071.5441 634.54,1061.5841 625,1049.8041 C607.22,1027.8441 470.1642,634.2035 434.3542,530.8435" fill="none" id="Ledger-to-Kani" style="stroke:#2E7D32;stroke-width:1;"/><polygon fill="#2E7D32" points="432.39,525.1741,431.5567,534.9876,434.0268,529.8986,439.1159,532.3687,432.39,525.1741" style="stroke:#2E7D32;stroke-width:1;"/><text fill="#000000" font-family="'sans-serif'" font-size="11" lengthAdjust="spacing" textLength="110.8352" x="503.98" y="723.653">promote per-fn proof</text></g><!--link Rocq to TLC--><g class="link" data-entity-1="ent0008" data-entity-2="ent0009" data-link-type="dependency" data-source-line="127" id="lnk49"><path d="M88.68,524.9541 C79.04,551.2441 64.61,594.8341 59,633.8941 C49.06,703.1141 75.9818,777.6842 93.1318,817.0142" fill="none" id="Rocq-to-TLC" style="stroke:#1565C0;stroke-width:1;"/><polygon fill="#1565C0" points="95.53,822.5141,95.5992,812.6655,93.5315,817.9309,88.2661,815.8631,95.53,822.5141" style="stroke:#1565C0;stroke-width:1;"/><text fill="#000000" font-family="'sans-serif'" font-size="11" lengthAdjust="spacing" textLength="96.0513" x="60" y="646.653">finite-bound check</text></g><!--link TLC to Apalache--><g class="link" data-entity-1="ent0009" data-entity-2="ent0010" data-link-type="dependency" data-source-line="128" id="lnk50"><path d="M104.09,873.0841 C100.03,910.9341 93.93,986.3341 101,1049.8041 C107.11,1104.6241 120.991,1160.7639 131.861,1199.8139" fill="none" id="TLC-to-Apalache" style="stroke:#1565C0;stroke-width:1;"/><polygon fill="#1565C0" points="133.47,1205.5941,134.91,1195.8511,132.1292,1200.7772,127.203,1197.9964,133.47,1205.5941" style="stroke:#1565C0;stroke-width:1;"/><text fill="#000000" font-family="'sans-serif'" font-size="11" lengthAdjust="spacing" textLength="73.6225" x="102" y="1046.563">widen domain</text></g><g class="legend" data-source-line="37"><rect fill="none" height="204.6792" rx="7.5" ry="7.5" style="stroke:#000000;stroke-width:1;" width="401.3965" x="1032.6018" y="1312.6941"/><text fill="#000000" font-family="'sans-serif'" font-size="14" lengthAdjust="spacing" textLength="35.1819" x="1041.2418" y="1334.66">Color</text><text fill="#000000" font-family="'sans-serif'" font-size="14" lengthAdjust="spacing" textLength="42.5738" x="1083.7036" y="1334.66">Family</text><rect fill="#EEF2FF" height="19.0679" style="stroke:none;stroke-width:1;" width="42.4618" x="1037.6018" y="1338.762"/><text fill="#000000" font-family="'sans-serif'" font-size="14" lengthAdjust="spacing" textLength="3.64" x="1037.6018" y="1353.728">&#160;</text><text fill="#000000" font-family="'sans-serif'" font-size="14" lengthAdjust="spacing" textLength="225.1051" x="1083.7036" y="1353.728">Formal methods (Rocq, TLA&#8314;, Kani)</text><rect fill="#FFF7EE" height="19.0679" style="stroke:none;stroke-width:1;" width="42.4618" x="1037.6018" y="1357.8299"/><text fill="#000000" font-family="'sans-serif'" font-size="14" lengthAdjust="spacing" textLength="3.64" x="1037.6018" y="1372.7959">&#160;</text><text fill="#000000" font-family="'sans-serif'" font-size="14" lengthAdjust="spacing" textLength="341.6547" x="1083.7036" y="1372.7959">Randomized (proptest, Hypothesis, libFuzzer, Loom)</text><rect fill="#F3E5F5" height="19.0679" style="stroke:none;stroke-width:1;" width="42.4618" x="1037.6018" y="1376.8979"/><text fill="#000000" font-family="'sans-serif'" font-size="14" lengthAdjust="spacing" textLength="3.64" x="1037.6018" y="1391.8638">&#160;</text><text fill="#000000" font-family="'sans-serif'" font-size="14" lengthAdjust="spacing" textLength="180.1793" x="1083.7036" y="1391.8638">Differential &amp; metamorphic</text><rect fill="#FFEBEE" height="19.0679" style="stroke:none;stroke-width:1;" width="42.4618" x="1037.6018" y="1395.9658"/><text fill="#000000" font-family="'sans-serif'" font-size="14" lengthAdjust="spacing" textLength="3.64" x="1037.6018" y="1410.9317">&#160;</text><text fill="#000000" font-family="'sans-serif'" font-size="14" lengthAdjust="spacing" textLength="192.4573" x="1083.7036" y="1410.9317">Adversarial / attack modeling</text><rect fill="#EEFAF1" height="19.0679" style="stroke:none;stroke-width:1;" width="42.4618" x="1037.6018" y="1415.0337"/><text fill="#000000" font-family="'sans-serif'" font-size="14" lengthAdjust="spacing" textLength="3.64" x="1037.6018" y="1429.9996">&#160;</text><text fill="#000000" font-family="'sans-serif'" font-size="14" lengthAdjust="spacing" textLength="148.8474" x="1083.7036" y="1429.9996">Pipeline / classification</text><text fill="#000000" font-family="'sans-serif'" font-size="14" lengthAdjust="spacing" textLength="32.8999" x="1041.2418" y="1449.0675">Edge</text><text fill="#000000" font-family="'sans-serif'" font-size="14" lengthAdjust="spacing" textLength="67.2697" x="1083.7036" y="1449.0675">Semantics</text><text fill="#2E7D32" font-family="'sans-serif'" font-size="14" lengthAdjust="spacing" textLength="38.8358" x="1037.6018" y="1468.1355">green</text><text fill="#000000" font-family="'sans-serif'" font-size="14" lengthAdjust="spacing" textLength="230.9151" x="1083.7036" y="1468.1355">Promotion to mechanized theorem</text><text fill="#1565C0" font-family="'sans-serif'" font-size="14" lengthAdjust="spacing" textLength="28.7699" x="1037.6018" y="1487.2034">blue</text><text fill="#000000" font-family="'sans-serif'" font-size="14" lengthAdjust="spacing" textLength="182.6993" x="1087.3436" y="1487.2034">Corroboration / cross-check</text><text fill="#C62828" font-family="'sans-serif'" font-size="14" lengthAdjust="spacing" textLength="22.2879" x="1037.6018" y="1506.2713">red</text><text fill="#000000" font-family="'sans-serif'" font-size="14" lengthAdjust="spacing" textLength="188.8453" x="1090.9836" y="1506.2713">Refutation / counterexample</text><line style="stroke:#000000;stroke-width:1;" x1="1037.6018" x2="1428.9983" y1="1319.6941" y2="1319.6941"/><line style="stroke:#000000;stroke-width:1;" x1="1037.6018" x2="1428.9983" y1="1338.762" y2="1338.762"/><line style="stroke:#000000;stroke-width:1;" x1="1037.6018" x2="1428.9983" y1="1357.8299" y2="1357.8299"/><line style="stroke:#000000;stroke-width:1;" x1="1037.6018" x2="1428.9983" y1="1376.8979" y2="1376.8979"/><line style="stroke:#000000;stroke-width:1;" x1="1037.6018" x2="1428.9983" y1="1395.9658" y2="1395.9658"/><line style="stroke:#000000;stroke-width:1;" x1="1037.6018" x2="1428.9983" y1="1415.0337" y2="1415.0337"/><line style="stroke:#000000;stroke-width:1;" x1="1037.6018" x2="1428.9983" y1="1434.1016" y2="1434.1016"/><line style="stroke:#000000;stroke-width:1;" x1="1037.6018" x2="1428.9983" y1="1453.1695" y2="1453.1695"/><line style="stroke:#000000;stroke-width:1;" x1="1037.6018" x2="1428.9983" y1="1472.2374" y2="1472.2374"/><line style="stroke:#000000;stroke-width:1;" x1="1037.6018" x2="1428.9983" y1="1491.3054" y2="1491.3054"/><line style="stroke:#000000;stroke-width:1;" x1="1037.6018" x2="1428.9983" y1="1510.3733" y2="1510.3733"/><line style="stroke:#000000;stroke-width:1;" x1="1037.6018" x2="1037.6018" y1="1319.6941" y2="1510.3733"/><line style="stroke:#000000;stroke-width:1;" x1="1080.0637" x2="1080.0637" y1="1319.6941" y2="1510.3733"/><line style="stroke:#000000;stroke-width:1;" x1="1428.9983" x2="1428.9983" y1="1319.6941" y2="1510.3733"/></g><?plantuml-src bLXHSjp64Vt7AIPaLKBQX4MkH5grabX5KRjEAfHBHRBA7v8hDGiCTYS2Pk2P0QLLw2hd9oVm6Pmxv3D7qKdoUWR0Oi2bpE1hTz7Tq_sw-tNF_i6jH2LONNAfaiI-bwhcXbSiqrMjbL3kogrBmOp875VBKWn4Qfwzvql1_f4mzXAVbqOtAZ_NfJRFdy-rgNXvUih2ipkRpIVp-JR9IwvoNSbF8lVIk_Fv_DlPR9laAraKmi0dwItlpX_FZkV7soJFyXjXB3T1a6pENcwt-KRMefHAj9wIdsVp8vBK9XV6Ix7T9_v9Vju6qBRuVHJp4E_0ZZ_XiNyYMqexSP-PsU7BoJOpivFZeyF3o4mk2jwKRgwL-vuZgJkMAvjQOMInirti2h2pewCaST8Xow-5M-aSPopNhEHhOPXry8Xz_kLNfW0ISo9RAVbJ8opZcT7Mia8tXXMyagKKDabAiHGgPqOkLmvUtxBWyIsRayYQtTAFpzjgECNFlanOvG-sREzIPpyTiEkBiy___Cy1-ojNSh_J2NK1dKt1iBtQwDe9wmxOdzUrHYrRQGzOAHVpvjCdOGxOXTRLneGl69WOLXBx8ntFAstgbSmsfr75G7HGIkmHuyu3KkcSgcOvY0TL0-ckd22QbTnQMSYCEwbLa6Ip70rpowv4nN5uPbi36Q4qtPtCldtrU7AwD48es3AwqbxNQRYOhO061OqejH5Lh7fqV79yVdYwA1jnou2wCNgXJJWQlb2kqcmbu7kaTduoUJfvUcf43YrsAOh6zJeeGmUGFlAgHctS9aXiI6-I_8czUF62NVWIEPf66A7A6aUlauuVTkw-ziMrmyQDIYsmwQkTg-lBlxoQWMUiVQVstCe8xWBqxB__ddnpjB_3-eTR5iHZ4sSXNmw8RhKn6Tcu9i7On2jUKHIeCqb5Ps3c2ZyC5OSMWlZ8X11rEZoxjV6ClU568Bk5GJDAOM2KJ43ysakZlIEi9zCx7RCfZFqOzI2OTeAXduVYX7zFqoFegGyzNhxKx3FMg0NHabVhGYMXM2qqBliQ7NmETV5nnHlhv8rW6sr2-UBy7hspcfSSTKe0lRvExRfQw59c--_KMumefKJ-ZDYIhOLxfvZuA4mchSX_tF4ETTgnSM8HsEjiiKku56SFgYGqgZwWw6FWcME5L18StVLzKAUQeroFalHuEgGeAxZ9Ld5gDg_JzdNV4D4q72Mb8pju9LLAOHmmsonW8zCg7uG4nq0UzJLaOmiRaYH0qEfe-196LaQgztrShOcDS6oaPrSY2MwMEYtm5GOpZMP6WEcoaNskBphfs0ZnibTHMMF0nDaQr02wAGM_WICsyeI4noW_cSOi_YXYyGZkBx1zZ_jejnWXVsqaE31TI2inFmqAccXWnOqIc86V__Kh0zTcO4dwY3JbJKOisbQxLnunmj0bocHwOzEh3ENhGJ5rOnce5d0wRNeiY1kW69jwFGZ7YDBJDwMt5gPgsVo08HzGSC1P762S_nOy8zKnhiVJmU2fkt4MuNdtFI4usAJkeCSpmHTO4Hps2e4HIEWzfUN2DLROg1aftLvaPCFpOHgOknkjtiv9-2hYaZdlHM8xFqZdSsOQP6k91g164AAFvD7XKTn8hS9t48qjlS7WajRHPqeO2g1FtT_wr87Ig3aUXTy3wkV-ymPtsWdib7reFIjA_S7ZZTV3oHa8l10Y3xJ3m1I37YNz5VfHvJA7hm0N3eWbRMNj76sVD7tRRWi_fkbfCDKzKzPEAKl797uQieSfed4BrZ50qWxD1sdgnTznkw0XOG4J_DtClotAWuX9kS8cArEaeSQGHvbPWiqV490o6oOE019gxRZnYBMm4qn3j_onOJlonmxAW8vjjRRe35p5c6E3EDiPGWoEF6q_SQ3T3RDMknzVVfB-Zku89Cecm1KAbQGzGeC15N3gOQ1b4wg-Dv9kYlm_a4HdFr2d7n8FE2SptAxkxAS9pOY7Piy2rfm8e3kVfl-3bRj4dCy8oOZ9sn8p2-cx3xUaIkEM8Cd32ZA1d9Cm4Ux9NM2_lcfo6ZPB8cwmErZ6eJzmvBsf7wb7imN6Yi8cHFltwaSfdr9JALlGbXW87s-5SJBqMKUcL2iCrrQA60IYc-LgmD6-vJ3STSlzIGGeeqCtR1tlqzFEp9hjdUmdiTYTQ2F5C5pOtjFz91RovuK9kqMj3gnEqRLgjPzseJ6AQFc-O_XjUuFpGD9sF3GSp7Itjo_hZfYZqvNgXcQ1Sb_MZgfveutGqiAdK1SKt-WcaVLtHi44Y8TH5via2kD139TwXcB-jfb44hz3SH-mfIW6NlB_HVa_HHRQEVIrBaPpE1hZUzXzIcrrlLhZKlTaVyfujpo1txgv2Zxw2ZQ_OXpwr1RifYb9g5rC6bLwCKTzvbSuv9mkt_1liz9rkZN7xC1ynmAB5ibbvj3i0xdK2_G9-uPkp_v_dkH_?></g></svg>