<?plantuml 1.2026.2?><svg xmlns="http://www.w3.org/2000/svg" xmlns:xlink="http://www.w3.org/1999/xlink" contentStyleType="text/css" data-diagram-type="ACTIVITY" height="1443px" preserveAspectRatio="none" style="width:2096px;height:1443px;background:#FFFFFF;" version="1.1" viewBox="0 0 2096 1443" width="2096px" zoomAndPan="magnify"><title>Scientific-method loop &#8212; hypothesize &#8594; search &#8594; falsify &#8594; record</title><defs/><g><rect fill="#FFFFCC" height="75.86" rx="2.5" ry="2.5" style="stroke:#FFDD88;stroke-width:3;" width="2085.8453" x="5" y="5"/><text fill="#000000" font-family="monospace" font-size="10" lengthAdjust="spacing" textLength="534" x="10" y="20">This&#160;syntax&#160;is&#160;deprecated,&#160;you&#160;must&#160;add&#160;&lt;&lt;#FFEBEE&gt;&gt;&#160;at&#160;the&#160;end&#160;of&#160;the&#160;line,&#160;after&#160;the&#160;';'</text><text fill="#000000" font-family="monospace" font-size="10" lengthAdjust="spacing" textLength="534" x="10" y="43.62">This&#160;syntax&#160;is&#160;deprecated,&#160;you&#160;must&#160;add&#160;&lt;&lt;#EEF2FF&gt;&gt;&#160;at&#160;the&#160;end&#160;of&#160;the&#160;line,&#160;after&#160;the&#160;';'</text><text fill="#000000" font-family="monospace" font-size="10" lengthAdjust="spacing" textLength="534" x="10" y="67.24">This&#160;syntax&#160;is&#160;deprecated,&#160;you&#160;must&#160;add&#160;&lt;&lt;#FFE0B2&gt;&gt;&#160;at&#160;the&#160;end&#160;of&#160;the&#160;line,&#160;after&#160;the&#160;';'</text><g class="title" data-source-line="22"><text fill="#000000" font-family="'sans-serif'" font-size="22" font-weight="bold" lengthAdjust="spacing" textLength="714.6212" x="682.1121" y="124.378">Scientific-method loop &#8212; hypothesize &#8594; search &#8594; falsify &#8594; record</text></g><ellipse cx="1355.8154" cy="151.8241" fill="#FFFFFF" rx="10" ry="10" style="stroke:#000000;stroke-width:1;"/><path d="M1472.8688,171.8241 L1472.8688,217.7697 L1452.8688,221.7697 L1472.8688,225.7697 L1472.8688,271.7154 A0,0 0 0 0 1472.8688,271.7154 L1673.9155,271.7154 A0,0 0 0 0 1673.9155,271.7154 L1673.9155,181.8241 L1663.9155,171.8241 L1472.8688,171.8241 A0,0 0 0 0 1472.8688,171.8241" fill="#FFE0B2" style="stroke:#E65100;stroke-width:1;"/><path d="M1663.9155,171.8241 L1663.9155,181.8241 L1673.9155,181.8241 L1663.9155,171.8241" fill="#FFE0B2" style="stroke:#E65100;stroke-width:1;"/><text fill="#000000" font-family="'sans-serif'" font-size="11" lengthAdjust="spacing" textLength="98.4603" x="1478.8688" y="188.583">Candidate sources:</text><text fill="#000000" font-family="'sans-serif'" font-size="11" lengthAdjust="spacing" textLength="180.0467" x="1478.8688" y="203.5649">&#8226; Rocq module under development</text><text fill="#000000" font-family="'sans-serif'" font-size="11" lengthAdjust="spacing" textLength="104.5763" x="1478.8688" y="218.5468">&#8226; TLA&#8314; spec invariant</text><text fill="#000000" font-family="'sans-serif'" font-size="11" lengthAdjust="spacing" textLength="121.8571" x="1478.8688" y="233.5286">&#8226; Bug-fix manifest entry</text><text fill="#000000" font-family="'sans-serif'" font-size="11" lengthAdjust="spacing" textLength="131.4381" x="1478.8688" y="248.5105">&#8226; STRIDE / attack-tree leaf</text><text fill="#000000" font-family="'sans-serif'" font-size="11" lengthAdjust="spacing" textLength="102.8383" x="1478.8688" y="263.4924">&#8226; Open Sage finding</text><rect fill="#FFFFFF" height="49.9638" rx="12.5" ry="12.5" style="stroke:#333333;stroke-width:1;" width="194.1068" x="1258.762" y="196.7878"/><text fill="#000000" font-family="'sans-serif'" font-size="11" lengthAdjust="spacing" textLength="174.1068" x="1268.762" y="218.5468">Derive candidate property &#966; from</text><text fill="#000000" font-family="'sans-serif'" font-size="11" lengthAdjust="spacing" textLength="148.422" x="1268.762" y="233.5286">models / spec / threat model</text><path d="M1491.6236,281.7154 L1491.6236,350.1339 L1471.6236,354.1339 L1491.6236,358.1339 L1491.6236,426.5524 A0,0 0 0 0 1491.6236,426.5524 L1692.1192,426.5524 A0,0 0 0 0 1692.1192,426.5524 L1692.1192,291.7154 L1682.1192,281.7154 L1491.6236,281.7154 A0,0 0 0 0 1491.6236,281.7154" fill="#FFE0B2" style="stroke:#E65100;stroke-width:1;"/><path d="M1682.1192,281.7154 L1682.1192,291.7154 L1692.1192,291.7154 L1682.1192,281.7154" fill="#FFE0B2" style="stroke:#E65100;stroke-width:1;"/><text fill="#000000" font-family="'sans-serif'" font-size="11" lengthAdjust="spacing" textLength="70.6415" x="1497.6236" y="298.4743">Decision tree:</text><text fill="#000000" font-family="'sans-serif'" font-size="11" lengthAdjust="spacing" textLength="157.4957" x="1497.6236" y="313.4562">&#8226; unbounded semantic &#8594; Rocq</text><text fill="#000000" font-family="'sans-serif'" font-size="11" lengthAdjust="spacing" textLength="151.4458" x="1497.6236" y="328.4381">&#8226; finite bounded &#8594; TLA&#8314; + TLC</text><text fill="#000000" font-family="'sans-serif'" font-size="11" lengthAdjust="spacing" textLength="134.2639" x="1497.6236" y="343.42">&#8226; per-function Rust &#8594; Kani</text><text fill="#000000" font-family="'sans-serif'" font-size="11" lengthAdjust="spacing" textLength="174.9196" x="1497.6236" y="358.4019">&#8226; byte-level / structure &#8594; libFuzzer</text><text fill="#000000" font-family="'sans-serif'" font-size="11" lengthAdjust="spacing" textLength="175.6786" x="1497.6236" y="373.3837">&#8226; multi-step lifecycle &#8594; Hypothesis</text><text fill="#000000" font-family="'sans-serif'" font-size="11" lengthAdjust="spacing" textLength="170.4537" x="1497.6236" y="388.3656">&#8226; single-step property &#8594; proptest</text><text fill="#000000" font-family="'sans-serif'" font-size="11" lengthAdjust="spacing" textLength="179.4956" x="1497.6236" y="403.3475">&#8226; concurrency interleaving &#8594; Loom</text><text fill="#000000" font-family="'sans-serif'" font-size="11" lengthAdjust="spacing" textLength="160.7738" x="1497.6236" y="418.3294">&#8226; combinatorial witness &#8594; Sage</text><rect fill="#FFFFFF" height="34.9819" rx="12.5" ry="12.5" style="stroke:#333333;stroke-width:1;" width="231.6165" x="1240.0071" y="336.6429"/><text fill="#000000" font-family="'sans-serif'" font-size="11" lengthAdjust="spacing" textLength="211.6165" x="1250.0071" y="358.4019">Choose tool by shape &#215; domain &#215; budget</text><rect fill="#FFFFFF" height="34.9819" rx="12.5" ry="12.5" style="stroke:#333333;stroke-width:1;" width="94.0515" x="1308.7897" y="446.5524"/><text fill="#000000" font-family="'sans-serif'" font-size="11" lengthAdjust="spacing" textLength="74.0515" x="1318.7897" y="468.3113">Tool.search(&#966;)</text><polygon fill="#FFF7EE" points="1305.5513,501.5343,1406.0795,501.5343,1418.0795,513.5343,1406.0795,525.5343,1305.5513,525.5343,1293.5513,513.5343,1305.5513,501.5343" style="stroke:#E65100;stroke-width:1;"/><text fill="#000000" font-family="'sans-serif'" font-size="11" lengthAdjust="spacing" textLength="100.5283" x="1305.5513" y="517.8022">Refuted (witness w)</text><text fill="#000000" font-family="'sans-serif'" font-size="11" lengthAdjust="spacing" textLength="17.0829" x="1276.4684" y="510.3113">yes</text><text fill="#000000" font-family="'sans-serif'" font-size="11" lengthAdjust="spacing" textLength="170.9058" x="1418.0795" y="510.3113">no &#8212; bounded search exhausted</text><rect fill="#FFFFFF" height="34.9819" rx="12.5" ry="12.5" style="stroke:#333333;stroke-width:1;" width="234.2895" x="697.7512" y="535.5343"/><text fill="#000000" font-family="'sans-serif'" font-size="11" lengthAdjust="spacing" textLength="214.2895" x="707.7512" y="557.2932">Classify w under threat-model vocabulary</text><rect fill="#FFFFFF" height="34.9819" rx="12.5" ry="12.5" style="stroke:#333333;stroke-width:1;" width="129.3613" x="750.2153" y="655.0071"/><text fill="#000000" font-family="'sans-serif'" font-size="11" lengthAdjust="spacing" textLength="109.3613" x="760.2153" y="676.766">Halt &#8212; escalate audit</text><ellipse cx="814.8959" cy="735.989" fill="none" rx="11" ry="11" style="stroke:#000000;stroke-width:1;"/><ellipse cx="814.8959" cy="735.989" fill="#FFFFFF" rx="6" ry="6" style="stroke:#000000;stroke-width:1;"/><polygon fill="#FFF7EE" points="762.8498,605.5162,866.942,605.5162,878.942,617.5162,866.942,629.5162,762.8498,629.5162,750.8498,617.5162,762.8498,605.5162" style="stroke:#E65100;stroke-width:1;"/><text fill="#000000" font-family="'sans-serif'" font-size="11" lengthAdjust="spacing" textLength="17.0829" x="818.8959" y="641.2751">yes</text><text fill="#000000" font-family="'sans-serif'" font-size="11" lengthAdjust="spacing" textLength="104.0923" x="762.8498" y="621.7841">Class = unexpected?</text><text fill="#000000" font-family="'sans-serif'" font-size="11" lengthAdjust="spacing" textLength="13.4529" x="878.942" y="614.2932">no</text><rect fill="#FFFFFF" height="49.9638" rx="12.5" ry="12.5" style="stroke:#333333;stroke-width:1;" width="174.9229" x="727.4345" y="788.989"/><text fill="#000000" font-family="'sans-serif'" font-size="11" lengthAdjust="spacing" textLength="154.9229" x="737.4345" y="810.7479">Attempt reproduction on Rust</text><text fill="#000000" font-family="'sans-serif'" font-size="11" lengthAdjust="spacing" textLength="83.6324" x="737.4345" y="825.7298">production path</text><polygon fill="#FFF7EE" points="750.7279,858.9528,879.064,858.9528,891.064,870.9528,879.064,882.9528,750.7279,882.9528,738.7279,870.9528,750.7279,858.9528" style="stroke:#E65100;stroke-width:1;"/><text fill="#000000" font-family="'sans-serif'" font-size="11" lengthAdjust="spacing" textLength="128.3361" x="750.7279" y="875.2207">Assign traceability status</text><rect fill="#FFFFFF" height="64.9457" rx="12.5" ry="12.5" style="stroke:#333333;stroke-width:1;" width="174.3729" x="6" y="922.7026"/><text fill="#000000" font-family="'sans-serif'" font-size="11" lengthAdjust="spacing" textLength="86.8664" x="16" y="944.4615">Fix Rust source +</text><text fill="#000000" font-family="'sans-serif'" font-size="11" lengthAdjust="spacing" textLength="117.7651" x="16" y="959.4434">add pre_fix_bug_N.rs +</text><text fill="#000000" font-family="'sans-serif'" font-size="11" lengthAdjust="spacing" textLength="154.3729" x="16" y="974.4253">update Rocq/TLA&#8314;/threat docs</text><rect fill="#FFFFFF" height="34.9819" rx="12.5" ry="12.5" style="stroke:#333333;stroke-width:1;" width="134.8941" x="224.5705" y="922.7026"/><text fill="#000000" font-family="'sans-serif'" font-size="11" lengthAdjust="spacing" textLength="114.8941" x="234.5705" y="944.4615">Keep pre_fix_bug_N.rs</text><rect fill="#FFFFFF" height="34.9819" rx="12.5" ry="12.5" style="stroke:#333333;stroke-width:1;" width="160.513" x="410.6748" y="922.7026"/><text fill="#000000" font-family="'sans-serif'" font-size="11" lengthAdjust="spacing" textLength="140.513" x="420.6748" y="944.4615">Keep guard test + spec text</text><rect fill="#FFFFFF" height="34.9819" rx="12.5" ry="12.5" style="stroke:#333333;stroke-width:1;" width="194.5797" x="625.7804" y="922.7026"/><text fill="#000000" font-family="'sans-serif'" font-size="11" lengthAdjust="spacing" textLength="174.5797" x="635.7804" y="944.4615">Strengthen theorem precondition</text><rect fill="#FFFFFF" height="49.9638" rx="12.5" ry="12.5" style="stroke:#333333;stroke-width:1;" width="154.3751" x="893.3072" y="922.7026"/><text fill="#000000" font-family="'sans-serif'" font-size="11" lengthAdjust="spacing" textLength="134.3751" x="903.3072" y="944.4615">Promote to Rocq theorem</text><text fill="#000000" font-family="'sans-serif'" font-size="11" lengthAdjust="spacing" textLength="109.0862" x="903.3072" y="959.4434">and/or TLA&#8314; invariant</text><rect fill="#FFFFFF" height="34.9819" rx="12.5" ry="12.5" style="stroke:#333333;stroke-width:1;" width="81.0496" x="1141.2145" y="922.7026"/><text fill="#000000" font-family="'sans-serif'" font-size="11" lengthAdjust="spacing" textLength="61.0496" x="1151.2145" y="944.4615">Record only</text><rect fill="#FFFFFF" height="34.9819" rx="12.5" ry="12.5" style="stroke:#333333;stroke-width:1;" width="126.9852" x="1324.5534" y="922.7026"/><text fill="#000000" font-family="'sans-serif'" font-size="11" lengthAdjust="spacing" textLength="106.9852" x="1334.5534" y="944.4615">Document boundary</text><rect fill="#FFFFFF" height="34.9819" rx="12.5" ry="12.5" style="stroke:#333333;stroke-width:1;" width="91.4225" x="1495.7813" y="922.7026"/><text fill="#000000" font-family="'sans-serif'" font-size="11" lengthAdjust="spacing" textLength="71.4225" x="1505.7813" y="944.4615">Escalate audit</text><polygon fill="#FFF7EE" points="814.8959,997.6483,814.8959,997.6483,826.8959,1009.6483,814.8959,1021.6483,814.8959,1021.6483,802.8959,1009.6483,814.8959,997.6483" style="stroke:#E65100;stroke-width:1;"/><rect fill="#FFFFFF" height="49.9638" rx="12.5" ry="12.5" style="stroke:#333333;stroke-width:1;" width="143.3311" x="743.2303" y="1041.6483"/><text fill="#000000" font-family="'sans-serif'" font-size="11" lengthAdjust="spacing" textLength="115.6422" x="753.2303" y="1063.4072">Append ledger entry +</text><text fill="#000000" font-family="'sans-serif'" font-size="11" lengthAdjust="spacing" textLength="123.3311" x="753.2303" y="1078.3891">persist fixture to corpus</text><rect fill="#FFFFFF" height="79.9276" rx="12.5" ry="12.5" style="stroke:#333333;stroke-width:1;" width="159.226" x="735.2829" y="1111.6121"/><text fill="#000000" font-family="'sans-serif'" font-size="11" lengthAdjust="spacing" textLength="60.6536" x="745.2829" y="1133.371">Re-run tool;</text><text fill="#000000" font-family="'sans-serif'" font-size="11" lengthAdjust="spacing" textLength="139.226" x="745.2829" y="1148.3529">verify w no longer surfaces</text><text fill="#000000" font-family="'sans-serif'" font-size="11" lengthAdjust="spacing" textLength="135.86" x="745.2829" y="1163.3347">(or surfaces with expected</text><text fill="#000000" font-family="'sans-serif'" font-size="11" lengthAdjust="spacing" textLength="76.2515" x="745.2829" y="1178.3166">post-fix status)</text><polygon fill="#FFF7EE" points="1844.4313,535.5343,1969.0384,535.5343,1981.0384,547.5343,1969.0384,559.5343,1844.4313,559.5343,1832.4313,547.5343,1844.4313,535.5343" style="stroke:#E65100;stroke-width:1;"/><text fill="#000000" font-family="'sans-serif'" font-size="11" lengthAdjust="spacing" textLength="124.6071" x="1844.4313" y="551.8022">Cost budget exhausted?</text><text fill="#000000" font-family="'sans-serif'" font-size="11" lengthAdjust="spacing" textLength="17.0829" x="1815.3484" y="544.3113">yes</text><text fill="#000000" font-family="'sans-serif'" font-size="11" lengthAdjust="spacing" textLength="13.4529" x="1981.0384" y="544.3113">no</text><rect fill="#FFFFFF" height="34.9819" rx="12.5" ry="12.5" style="stroke:#333333;stroke-width:1;" width="254.8593" x="1673.7918" y="569.5343"/><text fill="#000000" font-family="'sans-serif'" font-size="11" lengthAdjust="spacing" textLength="234.8593" x="1683.7918" y="591.2932">Record "no counterexample under bounds B"</text><rect fill="#FFFFFF" height="64.9457" rx="12.5" ry="12.5" style="stroke:#333333;stroke-width:1;" width="155.42" x="1723.5115" y="639.5162"/><text fill="#000000" font-family="'sans-serif'" font-size="11" lengthAdjust="spacing" textLength="135.42" x="1733.5115" y="661.2751">Strengthen hypothesis OR</text><text fill="#000000" font-family="'sans-serif'" font-size="11" lengthAdjust="spacing" textLength="101.7273" x="1733.5115" y="676.257">increase budget OR</text><text fill="#000000" font-family="'sans-serif'" font-size="11" lengthAdjust="spacing" textLength="65.4275" x="1733.5115" y="691.2388">retire search</text><rect fill="#FFFFFF" height="34.9819" rx="12.5" ry="12.5" style="stroke:#333333;stroke-width:1;" width="127.1942" x="1948.6511" y="569.5343"/><text fill="#000000" font-family="'sans-serif'" font-size="11" lengthAdjust="spacing" textLength="107.1942" x="1958.6511" y="591.2932">Continue exhaustion</text><polygon fill="#FFF7EE" points="1906.7349,710.4618,1918.7349,722.4618,1906.7349,734.4618,1894.7349,722.4618,1906.7349,710.4618" style="stroke:#E65100;stroke-width:1;"/><polygon fill="#FFF7EE" points="1355.8154,1197.5396,1367.8154,1209.5396,1355.8154,1221.5396,1343.8154,1209.5396,1355.8154,1197.5396" style="stroke:#E65100;stroke-width:1;"/><rect fill="#FFFFFF" height="49.9638" rx="12.5" ry="12.5" style="stroke:#333333;stroke-width:1;" width="173.1739" x="1269.2284" y="1241.5396"/><text fill="#000000" font-family="'sans-serif'" font-size="11" lengthAdjust="spacing" textLength="153.1739" x="1279.2284" y="1263.2985">Update spec / verification doc</text><text fill="#000000" font-family="'sans-serif'" font-size="11" lengthAdjust="spacing" textLength="99.4063" x="1279.2284" y="1278.2804">if &#966; changed status</text><rect fill="#FFFFFF" height="34.9819" rx="12.5" ry="12.5" style="stroke:#333333;stroke-width:1;" width="158.7751" x="1276.4279" y="1360.9943"/><text fill="#000000" font-family="'sans-serif'" font-size="11" lengthAdjust="spacing" textLength="138.7751" x="1286.4279" y="1382.7532">Loop back to next iteration</text><ellipse cx="1355.8154" cy="1426.9762" fill="none" rx="11" ry="11" style="stroke:#000000;stroke-width:1;"/><ellipse cx="1355.8154" cy="1426.9762" fill="#FFFFFF" rx="6" ry="6" style="stroke:#000000;stroke-width:1;"/><polygon fill="#FFF7EE" points="1284.5194,1311.5034,1427.1114,1311.5034,1439.1114,1323.5034,1427.1114,1335.5034,1284.5194,1335.5034,1272.5194,1323.5034,1284.5194,1311.5034" style="stroke:#E65100;stroke-width:1;"/><text fill="#000000" font-family="'sans-serif'" font-size="11" lengthAdjust="spacing" textLength="17.0829" x="1359.8154" y="1347.2623">yes</text><text fill="#000000" font-family="'sans-serif'" font-size="11" lengthAdjust="spacing" textLength="142.592" x="1284.5194" y="1327.7714">More candidate properties?</text><text fill="#000000" font-family="'sans-serif'" font-size="11" lengthAdjust="spacing" textLength="13.4529" x="1439.1114" y="1320.2804">no</text><ellipse cx="1474.5643" cy="1323.5034" fill="none" rx="11" ry="11" style="stroke:#000000;stroke-width:1;"/><ellipse cx="1474.5643" cy="1323.5034" fill="#FFFFFF" rx="6" ry="6" style="stroke:#000000;stroke-width:1;"/><line style="stroke:#000000;stroke-width:1;" x1="1355.8154" x2="1355.8154" y1="161.8241" y2="196.7878"/><polygon fill="#000000" points="1351.8154,186.7878,1355.8154,196.7878,1359.8154,186.7878,1355.8154,190.7878" style="stroke:#000000;stroke-width:1;"/><line style="stroke:#000000;stroke-width:1;" x1="1355.8154" x2="1355.8154" y1="246.7516" y2="336.6429"/><polygon fill="#000000" points="1351.8154,326.6429,1355.8154,336.6429,1359.8154,326.6429,1355.8154,330.6429" style="stroke:#000000;stroke-width:1;"/><line style="stroke:#000000;stroke-width:1;" x1="1355.8154" x2="1355.8154" y1="371.6248" y2="446.5524"/><polygon fill="#000000" points="1351.8154,436.5524,1355.8154,446.5524,1359.8154,436.5524,1355.8154,440.5524" style="stroke:#000000;stroke-width:1;"/><line style="stroke:#000000;stroke-width:1;" x1="814.8959" x2="814.8959" y1="689.989" y2="724.989"/><polygon fill="#000000" points="810.8959,714.989,814.8959,724.989,818.8959,714.989,814.8959,718.989" style="stroke:#000000;stroke-width:1;"/><line style="stroke:#000000;stroke-width:1;" x1="814.8959" x2="814.8959" y1="629.5162" y2="655.0071"/><polygon fill="#000000" points="810.8959,645.0071,814.8959,655.0071,818.8959,645.0071,814.8959,649.0071" style="stroke:#000000;stroke-width:1;"/><line style="stroke:#000000;stroke-width:1;" x1="878.942" x2="890.942" y1="617.5162" y2="617.5162"/><polygon fill="#000000" points="886.942,687.998,890.942,697.998,894.942,687.998,890.942,691.998" style="stroke:#000000;stroke-width:1;"/><line style="stroke:#000000;stroke-width:1;" x1="890.942" x2="890.942" y1="617.5162" y2="768.989"/><line style="stroke:#000000;stroke-width:1;" x1="890.942" x2="814.8959" y1="768.989" y2="768.989"/><line style="stroke:#000000;stroke-width:1;" x1="814.8959" x2="814.8959" y1="768.989" y2="788.989"/><polygon fill="#000000" points="810.8959,778.989,814.8959,788.989,818.8959,778.989,814.8959,782.989" style="stroke:#000000;stroke-width:1;"/><line style="stroke:#000000;stroke-width:1;" x1="814.8959" x2="814.8959" y1="570.5162" y2="605.5162"/><polygon fill="#000000" points="810.8959,595.5162,814.8959,605.5162,818.8959,595.5162,814.8959,599.5162" style="stroke:#000000;stroke-width:1;"/><line style="stroke:#000000;stroke-width:1;" x1="738.7279" x2="93.1865" y1="870.9528" y2="870.9528"/><line style="stroke:#000000;stroke-width:1;" x1="93.1865" x2="93.1865" y1="870.9528" y2="922.7026"/><polygon fill="#000000" points="89.1865,912.7026,93.1865,922.7026,97.1865,912.7026,93.1865,916.7026" style="stroke:#000000;stroke-width:1;"/><text fill="#000000" font-family="'sans-serif'" font-size="11" lengthAdjust="spacing" textLength="121.3841" x="93.1865" y="901.2026">confirmed_current_bug</text><line style="stroke:#000000;stroke-width:1;" x1="891.064" x2="1541.4926" y1="870.9528" y2="870.9528"/><line style="stroke:#000000;stroke-width:1;" x1="1541.4926" x2="1541.4926" y1="870.9528" y2="922.7026"/><polygon fill="#000000" points="1537.4926,912.7026,1541.4926,922.7026,1545.4926,912.7026,1541.4926,916.7026" style="stroke:#000000;stroke-width:1;"/><text fill="#000000" font-family="'sans-serif'" font-size="11" lengthAdjust="spacing" textLength="102.2992" x="1541.4926" y="901.2026">needs_source_audit</text><line style="stroke:#000000;stroke-width:1;" x1="292.0176" x2="292.0176" y1="870.9528" y2="922.7026"/><polygon fill="#000000" points="288.0176,912.7026,292.0176,922.7026,296.0176,912.7026,292.0176,916.7026" style="stroke:#000000;stroke-width:1;"/><text fill="#000000" font-family="'sans-serif'" font-size="11" lengthAdjust="spacing" textLength="108.6572" x="292.0176" y="896.2026">confirmed_fixed_bug</text><line style="stroke:#000000;stroke-width:1;" x1="490.9313" x2="490.9313" y1="870.9528" y2="922.7026"/><polygon fill="#000000" points="486.9313,912.7026,490.9313,922.7026,494.9313,912.7026,490.9313,916.7026" style="stroke:#000000;stroke-width:1;"/><text fill="#000000" font-family="'sans-serif'" font-size="11" lengthAdjust="spacing" textLength="124.8491" x="490.9313" y="896.2026">projection_risk_guarded</text><line style="stroke:#000000;stroke-width:1;" x1="723.0703" x2="723.0703" y1="870.9528" y2="922.7026"/><polygon fill="#000000" points="719.0703,912.7026,723.0703,922.7026,727.0703,912.7026,723.0703,916.7026" style="stroke:#000000;stroke-width:1;"/><text fill="#000000" font-family="'sans-serif'" font-size="11" lengthAdjust="spacing" textLength="150.2369" x="723.0703" y="896.2026">assumption_counterexample</text><line style="stroke:#000000;stroke-width:1;" x1="970.4947" x2="970.4947" y1="870.9528" y2="922.7026"/><polygon fill="#000000" points="966.4947,912.7026,970.4947,922.7026,974.4947,912.7026,970.4947,916.7026" style="stroke:#000000;stroke-width:1;"/><text fill="#000000" font-family="'sans-serif'" font-size="11" lengthAdjust="spacing" textLength="160.7198" x="970.4947" y="896.2026">proof_or_model_strengthening</text><line style="stroke:#000000;stroke-width:1;" x1="1181.7393" x2="1181.7393" y1="870.9528" y2="922.7026"/><polygon fill="#000000" points="1177.7393,912.7026,1181.7393,922.7026,1185.7393,912.7026,1181.7393,916.7026" style="stroke:#000000;stroke-width:1;"/><text fill="#000000" font-family="'sans-serif'" font-size="11" lengthAdjust="spacing" textLength="122.8141" x="1181.7393" y="896.2026">not_reproduced_in_rust</text><line style="stroke:#000000;stroke-width:1;" x1="1388.046" x2="1388.046" y1="870.9528" y2="922.7026"/><polygon fill="#000000" points="1384.046,912.7026,1388.046,922.7026,1392.046,912.7026,1388.046,916.7026" style="stroke:#000000;stroke-width:1;"/><text fill="#000000" font-family="'sans-serif'" font-size="11" lengthAdjust="spacing" textLength="87.7354" x="1388.046" y="896.2026">model_boundary</text><line style="stroke:#000000;stroke-width:1;" x1="93.1865" x2="93.1865" y1="987.6483" y2="1009.6483"/><line style="stroke:#000000;stroke-width:1;" x1="93.1865" x2="802.8959" y1="1009.6483" y2="1009.6483"/><polygon fill="#000000" points="792.8959,1005.6483,802.8959,1009.6483,792.8959,1013.6483,796.8959,1009.6483" style="stroke:#000000;stroke-width:1;"/><line style="stroke:#000000;stroke-width:1;" x1="1541.4926" x2="1541.4926" y1="957.6845" y2="1009.6483"/><line style="stroke:#000000;stroke-width:1;" x1="1541.4926" x2="826.8959" y1="1009.6483" y2="1009.6483"/><polygon fill="#000000" points="836.8959,1005.6483,826.8959,1009.6483,836.8959,1013.6483,832.8959,1009.6483" style="stroke:#000000;stroke-width:1;"/><line style="stroke:#000000;stroke-width:1;" x1="292.0176" x2="292.0176" y1="957.6845" y2="1009.6483"/><polygon fill="#000000" points="288.0176,999.6483,292.0176,1009.6483,296.0176,999.6483,292.0176,1003.6483" style="stroke:#000000;stroke-width:1;"/><line style="stroke:#000000;stroke-width:1;" x1="490.9313" x2="490.9313" y1="957.6845" y2="1009.6483"/><polygon fill="#000000" points="486.9313,999.6483,490.9313,1009.6483,494.9313,999.6483,490.9313,1003.6483" style="stroke:#000000;stroke-width:1;"/><line style="stroke:#000000;stroke-width:1;" x1="723.0703" x2="723.0703" y1="957.6845" y2="1009.6483"/><polygon fill="#000000" points="719.0703,999.6483,723.0703,1009.6483,727.0703,999.6483,723.0703,1003.6483" style="stroke:#000000;stroke-width:1;"/><line style="stroke:#000000;stroke-width:1;" x1="970.4947" x2="970.4947" y1="972.6664" y2="1009.6483"/><polygon fill="#000000" points="966.4947,999.6483,970.4947,1009.6483,974.4947,999.6483,970.4947,1003.6483" style="stroke:#000000;stroke-width:1;"/><line style="stroke:#000000;stroke-width:1;" x1="1181.7393" x2="1181.7393" y1="957.6845" y2="1009.6483"/><polygon fill="#000000" points="1177.7393,999.6483,1181.7393,1009.6483,1185.7393,999.6483,1181.7393,1003.6483" style="stroke:#000000;stroke-width:1;"/><line style="stroke:#000000;stroke-width:1;" x1="1388.046" x2="1388.046" y1="957.6845" y2="1009.6483"/><polygon fill="#000000" points="1384.046,999.6483,1388.046,1009.6483,1392.046,999.6483,1388.046,1003.6483" style="stroke:#000000;stroke-width:1;"/><line style="stroke:#000000;stroke-width:1;" x1="814.8959" x2="814.8959" y1="838.9528" y2="858.9528"/><polygon fill="#000000" points="810.8959,848.9528,814.8959,858.9528,818.8959,848.9528,814.8959,852.9528" style="stroke:#000000;stroke-width:1;"/><line style="stroke:#000000;stroke-width:1;" x1="814.8959" x2="814.8959" y1="1021.6483" y2="1041.6483"/><polygon fill="#000000" points="810.8959,1031.6483,814.8959,1041.6483,818.8959,1031.6483,814.8959,1035.6483" style="stroke:#000000;stroke-width:1;"/><line style="stroke:#000000;stroke-width:1;" x1="814.8959" x2="814.8959" y1="1091.6121" y2="1111.6121"/><polygon fill="#000000" points="810.8959,1101.6121,814.8959,1111.6121,818.8959,1101.6121,814.8959,1105.6121" style="stroke:#000000;stroke-width:1;"/><line style="stroke:#000000;stroke-width:1;" x1="1801.2215" x2="1801.2215" y1="604.5162" y2="639.5162"/><polygon fill="#000000" points="1797.2215,629.5162,1801.2215,639.5162,1805.2215,629.5162,1801.2215,633.5162" style="stroke:#000000;stroke-width:1;"/><line style="stroke:#000000;stroke-width:1;" x1="1832.4313" x2="1801.2215" y1="547.5343" y2="547.5343"/><line style="stroke:#000000;stroke-width:1;" x1="1801.2215" x2="1801.2215" y1="547.5343" y2="569.5343"/><polygon fill="#000000" points="1797.2215,559.5343,1801.2215,569.5343,1805.2215,559.5343,1801.2215,563.5343" style="stroke:#000000;stroke-width:1;"/><line style="stroke:#000000;stroke-width:1;" x1="1981.0384" x2="2012.2482" y1="547.5343" y2="547.5343"/><line style="stroke:#000000;stroke-width:1;" x1="2012.2482" x2="2012.2482" y1="547.5343" y2="569.5343"/><polygon fill="#000000" points="2008.2482,559.5343,2012.2482,569.5343,2016.2482,559.5343,2012.2482,563.5343" style="stroke:#000000;stroke-width:1;"/><line style="stroke:#000000;stroke-width:1;" x1="1801.2215" x2="1801.2215" y1="704.4618" y2="722.4618"/><line style="stroke:#000000;stroke-width:1;" x1="1801.2215" x2="1894.7349" y1="722.4618" y2="722.4618"/><polygon fill="#000000" points="1884.7349,718.4618,1894.7349,722.4618,1884.7349,726.4618,1888.7349,722.4618" style="stroke:#000000;stroke-width:1;"/><line style="stroke:#000000;stroke-width:1;" x1="2012.2482" x2="2012.2482" y1="604.5162" y2="722.4618"/><line style="stroke:#000000;stroke-width:1;" x1="2012.2482" x2="1918.7349" y1="722.4618" y2="722.4618"/><polygon fill="#000000" points="1928.7349,718.4618,1918.7349,722.4618,1928.7349,726.4618,1924.7349,722.4618" style="stroke:#000000;stroke-width:1;"/><line style="stroke:#000000;stroke-width:1;" x1="1293.5513" x2="814.8959" y1="513.5343" y2="513.5343"/><line style="stroke:#000000;stroke-width:1;" x1="814.8959" x2="814.8959" y1="513.5343" y2="535.5343"/><polygon fill="#000000" points="810.8959,525.5343,814.8959,535.5343,818.8959,525.5343,814.8959,529.5343" style="stroke:#000000;stroke-width:1;"/><line style="stroke:#000000;stroke-width:1;" x1="1418.0795" x2="1906.7349" y1="513.5343" y2="513.5343"/><line style="stroke:#000000;stroke-width:1;" x1="1906.7349" x2="1906.7349" y1="513.5343" y2="535.5343"/><polygon fill="#000000" points="1902.7349,525.5343,1906.7349,535.5343,1910.7349,525.5343,1906.7349,529.5343" style="stroke:#000000;stroke-width:1;"/><line style="stroke:#000000;stroke-width:1;" x1="814.8959" x2="814.8959" y1="1191.5396" y2="1209.5396"/><line style="stroke:#000000;stroke-width:1;" x1="814.8959" x2="1343.8154" y1="1209.5396" y2="1209.5396"/><polygon fill="#000000" points="1333.8154,1205.5396,1343.8154,1209.5396,1333.8154,1213.5396,1337.8154,1209.5396" style="stroke:#000000;stroke-width:1;"/><line style="stroke:#000000;stroke-width:1;" x1="1906.7349" x2="1906.7349" y1="734.4618" y2="1209.5396"/><line style="stroke:#000000;stroke-width:1;" x1="1906.7349" x2="1367.8154" y1="1209.5396" y2="1209.5396"/><polygon fill="#000000" points="1377.8154,1205.5396,1367.8154,1209.5396,1377.8154,1213.5396,1373.8154,1209.5396" style="stroke:#000000;stroke-width:1;"/><line style="stroke:#000000;stroke-width:1;" x1="1355.8154" x2="1355.8154" y1="481.5343" y2="501.5343"/><polygon fill="#000000" points="1351.8154,491.5343,1355.8154,501.5343,1359.8154,491.5343,1355.8154,495.5343" style="stroke:#000000;stroke-width:1;"/><line style="stroke:#000000;stroke-width:1;" x1="1355.8154" x2="1355.8154" y1="1221.5396" y2="1241.5396"/><polygon fill="#000000" points="1351.8154,1231.5396,1355.8154,1241.5396,1359.8154,1231.5396,1355.8154,1235.5396" style="stroke:#000000;stroke-width:1;"/><line style="stroke:#000000;stroke-width:1;" x1="1355.8154" x2="1355.8154" y1="1395.9762" y2="1415.9762"/><polygon fill="#000000" points="1351.8154,1405.9762,1355.8154,1415.9762,1359.8154,1405.9762,1355.8154,1409.9762" style="stroke:#000000;stroke-width:1;"/><line style="stroke:#000000;stroke-width:1;" x1="1355.8154" x2="1355.8154" y1="1335.5034" y2="1360.9943"/><polygon fill="#000000" points="1351.8154,1350.9943,1355.8154,1360.9943,1359.8154,1350.9943,1355.8154,1354.9943" style="stroke:#000000;stroke-width:1;"/><line style="stroke:#000000;stroke-width:1;" x1="1439.1114" x2="1463.5643" y1="1323.5034" y2="1323.5034"/><polygon fill="#000000" points="1453.5643,1319.5034,1463.5643,1323.5034,1453.5643,1327.5034,1457.5643,1323.5034" style="stroke:#000000;stroke-width:1;"/><line style="stroke:#000000;stroke-width:1;" x1="1355.8154" x2="1355.8154" y1="1291.5034" y2="1311.5034"/><polygon fill="#000000" points="1351.8154,1301.5034,1355.8154,1311.5034,1359.8154,1301.5034,1355.8154,1305.5034" style="stroke:#000000;stroke-width:1;"/><?plantuml-src VLRBRXit5DthArXd8oDGdAHe2qWe2Zyaf4YQ5BQxCo1Gd3iIcnboIbugLbRfnXzG5EY-dz5jFo3_u2_fuKFoM16gXJpYdFi-zz1VyOfQ4bqZjHaC_7jjEkbaAquLwxNcpPbKxvVE1bETsyOwaJzFPkbp26zTHQwFJVYlq-S0_aBBrffgFqmCyDrq-Zy6Z-CycNxxpOldptlujvRfSFAbWEdpivVx-8F97_PVKIr3mpDh-Ar41u-yD7xaoUdww33iIdyayUB5OC2Q6n9NIfDXNMirQebNjXADjPsu__IdM6qwYxduQ71_zuVm99rQfSTQDbxNc_JiI25XJ8sbuy5WV87WQn9AcafNaZ5LPpjol16VxqJjR7jZMbjHuyM9y1qf_E6L8yaY7Ky61ZqGJYzNF13YVEV6s-0K-J4Exp_zBIwj-YrQ11I1rf93aMjgRDUYdeAvVdDw__i_EOesQ-cqtBqx2yjHhMz5AuskoRE0cTkKbrVNbpzUJ96PPCRqHko8H4EoBk_VTMJ4bLoIg3NoCyi1cKh4nD60yvMrdWHRsuZ5HlYLx4Zy-vUeR0jwnwT5g9R4UvLUaD9UMoDYi6sLmImYSQX2zv4fQvLw7eil22IWuMKBYszBsK_nS5vG6C2e3WRiHO3BW78Zy3LgBu35XcdKn0x6iR0BYeFBSs_qOXO-VYHNe2sOf4UUgSEhcjH6DHduQaiONv0UdMaeGtSiYCZuWz7qWbFMgE0S6RN1d9WSMhs6RSA-iRRTuTg5Df8j1jc83veDUPz0SHRz6LoZ-SyoOOUVxuudWu6knV2Iwi1eqd1h-k7u6EJ3B8SRyiU8CZvlf4_K_b1ObRavIjmKQwla8ZJIRIO0HvS9Bxu7c6v1CtZ_OSzbNlEpwNJyIZQSDekyaataj0oLvaa2UROT7h0N98R6HalKe-j1pEgKcTgEiMleN1No6CiaRqplh9EycaGJZnAnhCDJLBECd9AAv48tq2w4aXnARah6U1X0hLrBrJpFWUUBiCo0X_Hds9P4dRo9ukcDaLM5MT8SYnGjvc-VEH_FGvTMDjBq9BFnfEnuPPMV78mC7_ZknHs_fiIRn-xxnYZyLqg5pvtsx-VB826TrMC7wL14jc4ZaXGmtNBV3IOOqDteHc6Dm3-wbMtNqCxH5NRIBDDOyMKTjJ4lv8xnmMml9rlFhPidnipzpX9ytdLqEfszdCt6FqCDemImpN9MVAElfZg1-fT5tabNFmw8Fj_I0NtJQ05ciyluCgaoED9i-bOvgIGM8F4EVM5LYBefjcyUHIAg_3mFVPuOssS6xg_nz0i-WxgPWPc-NHTtio78dij26ra2FO1MC2JiDeaDse2akv1cZ0f6BfWaevCRiuvNMjnAOt53cUZ71rU3rVx63Et3hoWBAx5THWIndfFG5zPZExOxbdRnGL_JxKQtAua-PXAb1OTz4Uo7br_k-BRXHoOMqITHqP4KnukpezpQFgLs5wqNxovlG1I5LK6A9MeySyGQ7Sf9JlPq8ieMRdPj0crJBAJC2b9qPFnBtifowQQEQYMJRc0j4RYELxHQIRItAlqgolaJUFdbbQx9xtTY_2R--x30fHd72L5aWUl9oMr6IURwoUU3bE5_?></g></svg>