<?plantuml 1.2026.2?><svg xmlns="http://www.w3.org/2000/svg" xmlns:xlink="http://www.w3.org/1999/xlink" contentStyleType="text/css" data-diagram-type="ACTIVITY" height="622px" preserveAspectRatio="none" style="width:1596px;height:622px;background:#FFFFFF;" version="1.1" viewBox="0 0 1596 622" width="1596px" zoomAndPan="magnify"><title>Classification decision tree &#8212; witness w &#8594; (status, class)</title><defs/><g><g class="title" data-source-line="39"><text fill="#000000" font-family="'sans-serif'" font-size="22" font-weight="bold" lengthAdjust="spacing" textLength="615.1416" x="489.0412" y="38.5181">Classification decision tree &#8212; witness w &#8594; (status, class)</text></g><ellipse cx="617.8267" cy="65.9641" fill="#2E7D32" rx="10" ry="10" style="stroke:#000000;stroke-width:1;"/><path d="M695.0273,93.4732 L695.0273,116.946 L675.0273,120.946 L695.0273,124.946 L695.0273,148.4188 A0,0 0 0 0 695.0273,148.4188 L857.4424,148.4188 A0,0 0 0 0 857.4424,148.4188 L857.4424,103.4732 L847.4424,93.4732 L695.0273,93.4732 A0,0 0 0 0 695.0273,93.4732" fill="#FFE0B2" style="stroke:#E65100;stroke-width:1;"/><path d="M847.4424,93.4732 L847.4424,103.4732 L857.4424,103.4732 L847.4424,93.4732" fill="#FFE0B2" style="stroke:#E65100;stroke-width:1;"/><text fill="#000000" font-family="'sans-serif'" font-size="11" lengthAdjust="spacing" textLength="84.1164" x="701.0273" y="110.2321">Sources include:</text><text fill="#000000" font-family="'sans-serif'" font-size="11" lengthAdjust="spacing" textLength="141.415" x="701.0273" y="125.214">Sage, Hypothesis, proptest,</text><text fill="#000000" font-family="'sans-serif'" font-size="11" lengthAdjust="spacing" textLength="137.213" x="701.0273" y="140.1958">libFuzzer, Kani, Loom, TLC.</text><rect fill="#FFFFFF" height="49.9638" rx="12.5" ry="12.5" style="stroke:#333333;stroke-width:1;" width="114.4014" x="560.626" y="95.9641"/><text fill="#1A1A1A" font-family="'sans-serif'" font-size="11" lengthAdjust="spacing" textLength="90.1004" x="570.626" y="117.723">Witness w arrives</text><text fill="#1A1A1A" font-family="'sans-serif'" font-size="11" lengthAdjust="spacing" textLength="94.4014" x="570.626" y="132.7049">from a search tool</text><polygon fill="#FFF7EE" points="519.8339,168.4188,715.8195,168.4188,727.8195,180.4188,715.8195,192.4188,519.8339,192.4188,507.8339,180.4188,519.8339,168.4188" style="stroke:#E65100;stroke-width:1;"/><text fill="#1A1A1A" font-family="'sans-serif'" font-size="11" lengthAdjust="spacing" textLength="195.9856" x="519.8339" y="184.6868">Q1: Does w reproduce on production?</text><text fill="#1565C0" font-family="'sans-serif'" font-size="11" lengthAdjust="spacing" textLength="18.3809" x="489.453" y="177.1958">YES</text><text fill="#1565C0" font-family="'sans-serif'" font-size="11" lengthAdjust="spacing" textLength="16.9509" x="727.8195" y="177.1958">NO</text><polygon fill="#FFF7EE" points="148.659,202.4188,361.6395,202.4188,373.6395,214.4188,361.6395,226.4188,148.659,226.4188,136.659,214.4188,148.659,202.4188" style="stroke:#E65100;stroke-width:1;"/><text fill="#1A1A1A" font-family="'sans-serif'" font-size="11" lengthAdjust="spacing" textLength="212.9805" x="148.659" y="218.6868">Q2a: Is w already in the bug-fix manifest?</text><text fill="#1565C0" font-family="'sans-serif'" font-size="11" lengthAdjust="spacing" textLength="18.3809" x="118.2782" y="211.1958">YES</text><text fill="#1565C0" font-family="'sans-serif'" font-size="11" lengthAdjust="spacing" textLength="16.9509" x="373.6395" y="211.1958">NO</text><rect fill="#E8F5E9" height="49.9638" rx="12.5" ry="12.5" style="stroke:#333333;stroke-width:1;" width="172.1179" x="6" y="236.4188"/><text fill="#1A1A1A" font-family="'sans-serif'" font-size="11" lengthAdjust="spacing" textLength="152.1179" x="16" y="258.1777">status = confirmed_fixed_bug</text><text fill="#1A1A1A" font-family="'sans-serif'" font-size="11" lengthAdjust="spacing" textLength="133.7811" x="16" y="273.1596">class  = permitted_bug_fix</text><ellipse cx="92.0589" cy="332.3826" fill="none" rx="11" ry="11" style="stroke:#000000;stroke-width:1;"/><ellipse cx="92.0589" cy="332.3826" fill="#FFFFFF" rx="6" ry="6" style="stroke:#000000;stroke-width:1;"/><polygon fill="#FFF7EE" points="322.5403,236.4188,513.9389,236.4188,525.9389,248.4188,513.9389,260.4188,322.5403,260.4188,310.5403,248.4188,322.5403,236.4188" style="stroke:#E65100;stroke-width:1;"/><text fill="#1A1A1A" font-family="'sans-serif'" font-size="11" lengthAdjust="spacing" textLength="191.3987" x="322.5403" y="252.6868">Q3a: Is the bug fixed in the same PR?</text><text fill="#1565C0" font-family="'sans-serif'" font-size="11" lengthAdjust="spacing" textLength="18.3809" x="292.1594" y="245.1958">YES</text><text fill="#1565C0" font-family="'sans-serif'" font-size="11" lengthAdjust="spacing" textLength="16.9509" x="525.9389" y="245.1958">NO</text><rect fill="#C8E6C9" height="79.9276" rx="12.5" ry="12.5" style="stroke:#333333;stroke-width:1;" width="184.8448" x="208.1179" y="270.4188"/><text fill="#1A1A1A" font-family="'sans-serif'" font-size="11" lengthAdjust="spacing" textLength="164.8448" x="218.1179" y="292.1777">status = confirmed_current_bug</text><text fill="#1A1A1A" font-family="'sans-serif'" font-size="11" lengthAdjust="spacing" textLength="81.2344" x="218.1179" y="307.1596">+ fix in same PR</text><text fill="#1A1A1A" font-family="'sans-serif'" font-size="11" lengthAdjust="spacing" textLength="115.6532" x="218.1179" y="322.1415">class  = projection_risk</text><text fill="#1A1A1A" font-family="'sans-serif'" font-size="11" lengthAdjust="spacing" textLength="132.131" x="218.1179" y="337.1234">or unexpected (reclassify)</text><ellipse cx="300.5403" cy="396.3464" fill="none" rx="11" ry="11" style="stroke:#000000;stroke-width:1;"/><ellipse cx="300.5403" cy="396.3464" fill="#FFFFFF" rx="6" ry="6" style="stroke:#000000;stroke-width:1;"/><rect fill="#FFF9C4" height="79.9276" rx="12.5" ry="12.5" style="stroke:#333333;stroke-width:1;" width="184.8448" x="443.5165" y="270.4188"/><text fill="#1A1A1A" font-family="'sans-serif'" font-size="11" lengthAdjust="spacing" textLength="164.8448" x="453.5165" y="292.1777">status = confirmed_current_bug</text><text fill="#1A1A1A" font-family="'sans-serif'" font-size="11" lengthAdjust="spacing" textLength="122.8801" x="453.5165" y="307.1596">+ tracking issue opened</text><text fill="#1A1A1A" font-family="'sans-serif'" font-size="11" lengthAdjust="spacing" textLength="115.6532" x="453.5165" y="322.1415">class  = projection_risk</text><text fill="#1A1A1A" font-family="'sans-serif'" font-size="11" lengthAdjust="spacing" textLength="132.131" x="453.5165" y="337.1234">or unexpected (reclassify)</text><ellipse cx="535.9389" cy="396.3464" fill="none" rx="11" ry="11" style="stroke:#000000;stroke-width:1;"/><ellipse cx="535.9389" cy="396.3464" fill="#FFFFFF" rx="6" ry="6" style="stroke:#000000;stroke-width:1;"/><polygon fill="#FFF7EE" points="811.4847,202.4188,1149.5234,202.4188,1161.5234,214.4188,1149.5234,226.4188,811.4847,226.4188,799.4847,214.4188,811.4847,202.4188" style="stroke:#E65100;stroke-width:1;"/><text fill="#1A1A1A" font-family="'sans-serif'" font-size="11" lengthAdjust="spacing" textLength="338.0387" x="811.4847" y="218.6868">Q2b: Does w describe a behaviour the Rust path explicitly rejects?</text><text fill="#1565C0" font-family="'sans-serif'" font-size="11" lengthAdjust="spacing" textLength="18.3809" x="781.1039" y="211.1958">YES</text><text fill="#1565C0" font-family="'sans-serif'" font-size="11" lengthAdjust="spacing" textLength="16.9509" x="1161.5234" y="211.1958">NO</text><rect fill="#E3F2FD" height="49.9638" rx="12.5" ry="12.5" style="stroke:#333333;stroke-width:1;" width="186.2748" x="678.3613" y="236.4188"/><text fill="#1A1A1A" font-family="'sans-serif'" font-size="11" lengthAdjust="spacing" textLength="84.0835" x="688.3613" y="258.1777">class  = bisimilar</text><text fill="#1A1A1A" font-family="'sans-serif'" font-size="11" lengthAdjust="spacing" textLength="166.2748" x="688.3613" y="273.1596">status = not_reproduced_in_rust</text><ellipse cx="771.4987" cy="332.3826" fill="none" rx="11" ry="11" style="stroke:#000000;stroke-width:1;"/><ellipse cx="771.4987" cy="332.3826" fill="#FFFFFF" rx="6" ry="6" style="stroke:#000000;stroke-width:1;"/><polygon fill="#FFF7EE" points="1042.3084,236.4188,1336.7103,236.4188,1348.7103,248.4188,1336.7103,260.4188,1042.3084,260.4188,1030.3084,248.4188,1042.3084,236.4188" style="stroke:#E65100;stroke-width:1;"/><text fill="#1A1A1A" font-family="'sans-serif'" font-size="11" lengthAdjust="spacing" textLength="294.4019" x="1042.3084" y="252.6868">Q3b: Is the witness at a theorem precondition boundary?</text><text fill="#1565C0" font-family="'sans-serif'" font-size="11" lengthAdjust="spacing" textLength="18.3809" x="1011.9276" y="245.1958">YES</text><text fill="#1565C0" font-family="'sans-serif'" font-size="11" lengthAdjust="spacing" textLength="16.9509" x="1348.7103" y="245.1958">NO</text><rect fill="#F3E5F5" height="49.9638" rx="12.5" ry="12.5" style="stroke:#333333;stroke-width:1;" width="213.6976" x="894.6361" y="270.4188"/><text fill="#1A1A1A" font-family="'sans-serif'" font-size="11" lengthAdjust="spacing" textLength="193.6976" x="904.6361" y="292.1777">status = assumption_counterexample</text><text fill="#1A1A1A" font-family="'sans-serif'" font-size="11" lengthAdjust="spacing" textLength="189.9357" x="904.6361" y="307.1596">class  = assumption_counterexample</text><ellipse cx="1001.4849" cy="366.3826" fill="none" rx="11" ry="11" style="stroke:#000000;stroke-width:1;"/><ellipse cx="1001.4849" cy="366.3826" fill="#FFFFFF" rx="6" ry="6" style="stroke:#000000;stroke-width:1;"/><polygon fill="#FFF7EE" points="1254.4887,270.4188,1500.579,270.4188,1512.579,282.4188,1500.579,294.4188,1254.4887,294.4188,1242.4887,282.4188,1254.4887,270.4188" style="stroke:#E65100;stroke-width:1;"/><text fill="#1A1A1A" font-family="'sans-serif'" font-size="11" lengthAdjust="spacing" textLength="246.0903" x="1254.4887" y="286.6868">Q4: Is w a model-only projection of a Rust path?</text><text fill="#1565C0" font-family="'sans-serif'" font-size="11" lengthAdjust="spacing" textLength="18.3809" x="1224.1078" y="279.1958">YES</text><text fill="#1565C0" font-family="'sans-serif'" font-size="11" lengthAdjust="spacing" textLength="16.9509" x="1512.579" y="279.1958">NO</text><rect fill="#FFECB3" height="49.9638" rx="12.5" ry="12.5" style="stroke:#333333;stroke-width:1;" width="188.3098" x="1138.3338" y="304.4188"/><text fill="#1A1A1A" font-family="'sans-serif'" font-size="11" lengthAdjust="spacing" textLength="168.3098" x="1148.3338" y="326.1777">status = projection_risk_guarded</text><text fill="#1A1A1A" font-family="'sans-serif'" font-size="11" lengthAdjust="spacing" textLength="115.6532" x="1148.3338" y="341.1596">class  = projection_risk</text><ellipse cx="1232.4887" cy="400.3826" fill="none" rx="11" ry="11" style="stroke:#000000;stroke-width:1;"/><ellipse cx="1232.4887" cy="400.3826" fill="#FFFFFF" rx="6" ry="6" style="stroke:#000000;stroke-width:1;"/><rect fill="#FFCDD2" height="79.9276" rx="12.5" ry="12.5" style="stroke:#333333;stroke-width:1;" width="135.2902" x="1454.9339" y="304.4188"/><text fill="#1A1A1A" font-family="'sans-serif'" font-size="11" lengthAdjust="spacing" textLength="115.2902" x="1464.9339" y="326.1777">HALT &#8212; escalate audit</text><text fill="#1A1A1A" font-family="'sans-serif'" font-size="11" lengthAdjust="spacing" textLength="97.6463" x="1464.9339" y="341.1596">class = unexpected</text><text fill="#1A1A1A" font-family="'sans-serif'" font-size="11" lengthAdjust="spacing" textLength="103.0143" x="1464.9339" y="356.1415">must be reclassified</text><text fill="#1A1A1A" font-family="'sans-serif'" font-size="11" lengthAdjust="spacing" textLength="76.3285" x="1464.9339" y="371.1234">before commit</text><ellipse cx="1522.579" cy="429.3464" fill="none" rx="10" ry="10" style="stroke:#C62828;stroke-width:1;"/><line style="stroke:#C62828;stroke-width:2.5;" x1="1516.3918" x2="1528.7661" y1="423.1592" y2="435.5336"/><line style="stroke:#C62828;stroke-width:2.5;" x1="1528.7661" x2="1516.3918" y1="423.1592" y2="435.5336"/><line style="stroke:#333333;stroke-width:1;" x1="617.8267" x2="617.8267" y1="75.9641" y2="95.9641"/><polygon fill="#333333" points="613.8267,85.9641,617.8267,95.9641,621.8267,85.9641,617.8267,89.9641" style="stroke:#333333;stroke-width:1;"/><line style="stroke:#333333;stroke-width:1;" x1="92.0589" x2="92.0589" y1="286.3826" y2="321.3826"/><polygon fill="#333333" points="88.0589,311.3826,92.0589,321.3826,96.0589,311.3826,92.0589,315.3826" style="stroke:#333333;stroke-width:1;"/><line style="stroke:#333333;stroke-width:1;" x1="300.5403" x2="300.5403" y1="350.3464" y2="385.3464"/><polygon fill="#333333" points="296.5403,375.3464,300.5403,385.3464,304.5403,375.3464,300.5403,379.3464" style="stroke:#333333;stroke-width:1;"/><line style="stroke:#333333;stroke-width:1;" x1="535.9389" x2="535.9389" y1="350.3464" y2="385.3464"/><polygon fill="#333333" points="531.9389,375.3464,535.9389,385.3464,539.9389,375.3464,535.9389,379.3464" style="stroke:#333333;stroke-width:1;"/><line style="stroke:#333333;stroke-width:1;" x1="310.5403" x2="300.5403" y1="248.4188" y2="248.4188"/><line style="stroke:#333333;stroke-width:1;" x1="300.5403" x2="300.5403" y1="248.4188" y2="270.4188"/><polygon fill="#333333" points="296.5403,260.4188,300.5403,270.4188,304.5403,260.4188,300.5403,264.4188" style="stroke:#333333;stroke-width:1;"/><line style="stroke:#333333;stroke-width:1;" x1="525.9389" x2="535.9389" y1="248.4188" y2="248.4188"/><line style="stroke:#333333;stroke-width:1;" x1="535.9389" x2="535.9389" y1="248.4188" y2="270.4188"/><polygon fill="#333333" points="531.9389,260.4188,535.9389,270.4188,539.9389,260.4188,535.9389,264.4188" style="stroke:#333333;stroke-width:1;"/><line style="stroke:#333333;stroke-width:1;" x1="136.659" x2="92.0589" y1="214.4188" y2="214.4188"/><line style="stroke:#333333;stroke-width:1;" x1="92.0589" x2="92.0589" y1="214.4188" y2="236.4188"/><polygon fill="#333333" points="88.0589,226.4188,92.0589,236.4188,96.0589,226.4188,92.0589,230.4188" style="stroke:#333333;stroke-width:1;"/><line style="stroke:#333333;stroke-width:1;" x1="373.6395" x2="418.2396" y1="214.4188" y2="214.4188"/><line style="stroke:#333333;stroke-width:1;" x1="418.2396" x2="418.2396" y1="214.4188" y2="236.4188"/><polygon fill="#333333" points="414.2396,226.4188,418.2396,236.4188,422.2396,226.4188,418.2396,230.4188" style="stroke:#333333;stroke-width:1;"/><line style="stroke:#333333;stroke-width:1;" x1="771.4987" x2="771.4987" y1="286.3826" y2="321.3826"/><polygon fill="#333333" points="767.4987,311.3826,771.4987,321.3826,775.4987,311.3826,771.4987,315.3826" style="stroke:#333333;stroke-width:1;"/><line style="stroke:#333333;stroke-width:1;" x1="1001.4849" x2="1001.4849" y1="320.3826" y2="355.3826"/><polygon fill="#333333" points="997.4849,345.3826,1001.4849,355.3826,1005.4849,345.3826,1001.4849,349.3826" style="stroke:#333333;stroke-width:1;"/><line style="stroke:#333333;stroke-width:1;" x1="1232.4887" x2="1232.4887" y1="354.3826" y2="389.3826"/><polygon fill="#333333" points="1228.4887,379.3826,1232.4887,389.3826,1236.4887,379.3826,1232.4887,383.3826" style="stroke:#333333;stroke-width:1;"/><line style="stroke:#333333;stroke-width:1;" x1="1522.579" x2="1522.579" y1="384.3464" y2="419.3464"/><polygon fill="#333333" points="1518.579,409.3464,1522.579,419.3464,1526.579,409.3464,1522.579,413.3464" style="stroke:#333333;stroke-width:1;"/><line style="stroke:#333333;stroke-width:1;" x1="1242.4887" x2="1232.4887" y1="282.4188" y2="282.4188"/><line style="stroke:#333333;stroke-width:1;" x1="1232.4887" x2="1232.4887" y1="282.4188" y2="304.4188"/><polygon fill="#333333" points="1228.4887,294.4188,1232.4887,304.4188,1236.4887,294.4188,1232.4887,298.4188" style="stroke:#333333;stroke-width:1;"/><line style="stroke:#333333;stroke-width:1;" x1="1512.579" x2="1522.579" y1="282.4188" y2="282.4188"/><line style="stroke:#333333;stroke-width:1;" x1="1522.579" x2="1522.579" y1="282.4188" y2="304.4188"/><polygon fill="#333333" points="1518.579,294.4188,1522.579,304.4188,1526.579,294.4188,1522.579,298.4188" style="stroke:#333333;stroke-width:1;"/><line style="stroke:#333333;stroke-width:1;" x1="1030.3084" x2="1001.4849" y1="248.4188" y2="248.4188"/><line style="stroke:#333333;stroke-width:1;" x1="1001.4849" x2="1001.4849" y1="248.4188" y2="270.4188"/><polygon fill="#333333" points="997.4849,260.4188,1001.4849,270.4188,1005.4849,260.4188,1001.4849,264.4188" style="stroke:#333333;stroke-width:1;"/><line style="stroke:#333333;stroke-width:1;" x1="1348.7103" x2="1377.5338" y1="248.4188" y2="248.4188"/><line style="stroke:#333333;stroke-width:1;" x1="1377.5338" x2="1377.5338" y1="248.4188" y2="270.4188"/><polygon fill="#333333" points="1373.5338,260.4188,1377.5338,270.4188,1381.5338,260.4188,1377.5338,264.4188" style="stroke:#333333;stroke-width:1;"/><line style="stroke:#333333;stroke-width:1;" x1="799.4847" x2="771.4987" y1="214.4188" y2="214.4188"/><line style="stroke:#333333;stroke-width:1;" x1="771.4987" x2="771.4987" y1="214.4188" y2="236.4188"/><polygon fill="#333333" points="767.4987,226.4188,771.4987,236.4188,775.4987,226.4188,771.4987,230.4188" style="stroke:#333333;stroke-width:1;"/><line style="stroke:#333333;stroke-width:1;" x1="1161.5234" x2="1189.5094" y1="214.4188" y2="214.4188"/><line style="stroke:#333333;stroke-width:1;" x1="1189.5094" x2="1189.5094" y1="214.4188" y2="236.4188"/><polygon fill="#333333" points="1185.5094,226.4188,1189.5094,236.4188,1193.5094,226.4188,1189.5094,230.4188" style="stroke:#333333;stroke-width:1;"/><line style="stroke:#333333;stroke-width:1;" x1="507.8339" x2="255.1493" y1="180.4188" y2="180.4188"/><line style="stroke:#333333;stroke-width:1;" x1="255.1493" x2="255.1493" y1="180.4188" y2="202.4188"/><polygon fill="#333333" points="251.1493,192.4188,255.1493,202.4188,259.1493,192.4188,255.1493,196.4188" style="stroke:#333333;stroke-width:1;"/><line style="stroke:#333333;stroke-width:1;" x1="727.8195" x2="980.5041" y1="180.4188" y2="180.4188"/><line style="stroke:#333333;stroke-width:1;" x1="980.5041" x2="980.5041" y1="180.4188" y2="202.4188"/><polygon fill="#333333" points="976.5041,192.4188,980.5041,202.4188,984.5041,192.4188,980.5041,196.4188" style="stroke:#333333;stroke-width:1;"/><line style="stroke:#333333;stroke-width:1;" x1="617.8267" x2="617.8267" y1="145.9279" y2="168.4188"/><polygon fill="#333333" points="613.8267,158.4188,617.8267,168.4188,621.8267,158.4188,617.8267,162.4188" style="stroke:#333333;stroke-width:1;"/><g class="legend" data-source-line="41"><rect fill="none" height="166.5433" rx="7.5" ry="7.5" style="stroke:#000000;stroke-width:1;" width="327.8408" x="1255.3833" y="443.3464"/><text fill="#000000" font-family="'sans-serif'" font-size="14" lengthAdjust="spacing" textLength="43.8338" x="1264.0233" y="465.3123">Colour</text><text fill="#000000" font-family="'sans-serif'" font-size="14" lengthAdjust="spacing" textLength="124.0395" x="1315.1371" y="465.3123">Outcome semantic</text><rect fill="#E8F5E9" height="19.0679" style="stroke:none;stroke-width:1;" width="51.1138" x="1260.3833" y="469.4143"/><text fill="#000000" font-family="'sans-serif'" font-size="14" lengthAdjust="spacing" textLength="3.64" x="1260.3833" y="484.3802">&#160;</text><text fill="#000000" font-family="'sans-serif'" font-size="14" lengthAdjust="spacing" textLength="167.9854" x="1315.1371" y="484.3802">Already fixed; record only</text><rect fill="#C8E6C9" height="19.0679" style="stroke:none;stroke-width:1;" width="51.1138" x="1260.3833" y="488.4822"/><text fill="#000000" font-family="'sans-serif'" font-size="14" lengthAdjust="spacing" textLength="3.64" x="1260.3833" y="503.4481">&#160;</text><text fill="#000000" font-family="'sans-serif'" font-size="14" lengthAdjust="spacing" textLength="163.4913" x="1315.1371" y="503.4481">Bug fixed in the same PR</text><rect fill="#FFF9C4" height="19.0679" style="stroke:none;stroke-width:1;" width="51.1138" x="1260.3833" y="507.5501"/><text fill="#000000" font-family="'sans-serif'" font-size="14" lengthAdjust="spacing" textLength="3.64" x="1260.3833" y="522.5161">&#160;</text><text fill="#000000" font-family="'sans-serif'" font-size="14" lengthAdjust="spacing" textLength="202.7472" x="1315.1371" y="522.5161">Action pending (tracking issue)</text><rect fill="#FFECB3" height="19.0679" style="stroke:none;stroke-width:1;" width="51.1138" x="1260.3833" y="526.618"/><text fill="#000000" font-family="'sans-serif'" font-size="14" lengthAdjust="spacing" textLength="3.64" x="1260.3833" y="541.584">&#160;</text><text fill="#000000" font-family="'sans-serif'" font-size="14" lengthAdjust="spacing" textLength="192.2053" x="1315.1371" y="541.584">Projection-risk guard in place</text><rect fill="#E3F2FD" height="19.0679" style="stroke:none;stroke-width:1;" width="51.1138" x="1260.3833" y="545.686"/><text fill="#000000" font-family="'sans-serif'" font-size="14" lengthAdjust="spacing" textLength="3.64" x="1260.3833" y="560.6519">&#160;</text><text fill="#000000" font-family="'sans-serif'" font-size="14" lengthAdjust="spacing" textLength="215.8792" x="1315.1371" y="560.6519">Bisimilar; not reproduced in Rust</text><rect fill="#F3E5F5" height="19.0679" style="stroke:none;stroke-width:1;" width="51.1138" x="1260.3833" y="564.7539"/><text fill="#000000" font-family="'sans-serif'" font-size="14" lengthAdjust="spacing" textLength="3.64" x="1260.3833" y="579.7198">&#160;</text><text fill="#000000" font-family="'sans-serif'" font-size="14" lengthAdjust="spacing" textLength="259.447" x="1315.1371" y="579.7198">Theorem-precondition counterexample</text><rect fill="#FFCDD2" height="19.0679" style="stroke:none;stroke-width:1;" width="51.1138" x="1260.3833" y="583.8218"/><text fill="#000000" font-family="'sans-serif'" font-size="14" lengthAdjust="spacing" textLength="3.64" x="1260.3833" y="598.7877">&#160;</text><text fill="#000000" font-family="'sans-serif'" font-size="14" lengthAdjust="spacing" textLength="182.6293" x="1315.1371" y="598.7877">HALT &#8212; escalation required</text><line style="stroke:#000000;stroke-width:1;" x1="1260.3833" x2="1578.2241" y1="450.3464" y2="450.3464"/><line style="stroke:#000000;stroke-width:1;" x1="1260.3833" x2="1578.2241" y1="469.4143" y2="469.4143"/><line style="stroke:#000000;stroke-width:1;" x1="1260.3833" x2="1578.2241" y1="488.4822" y2="488.4822"/><line style="stroke:#000000;stroke-width:1;" x1="1260.3833" x2="1578.2241" y1="507.5501" y2="507.5501"/><line style="stroke:#000000;stroke-width:1;" x1="1260.3833" x2="1578.2241" y1="526.618" y2="526.618"/><line style="stroke:#000000;stroke-width:1;" x1="1260.3833" x2="1578.2241" y1="545.686" y2="545.686"/><line style="stroke:#000000;stroke-width:1;" x1="1260.3833" x2="1578.2241" y1="564.7539" y2="564.7539"/><line style="stroke:#000000;stroke-width:1;" x1="1260.3833" x2="1578.2241" y1="583.8218" y2="583.8218"/><line style="stroke:#000000;stroke-width:1;" x1="1260.3833" x2="1578.2241" y1="602.8897" y2="602.8897"/><line style="stroke:#000000;stroke-width:1;" x1="1260.3833" x2="1260.3833" y1="450.3464" y2="602.8897"/><line style="stroke:#000000;stroke-width:1;" x1="1311.4971" x2="1311.4971" y1="450.3464" y2="602.8897"/><line style="stroke:#000000;stroke-width:1;" x1="1578.2241" x2="1578.2241" y1="450.3464" y2="602.8897"/></g><?plantuml-src dLN1Rjj64BtlLqoZYuHAXIL5ZYCdBcoAGeeQJXeRA7eIbkHGsfhaihjBsp9ywAaVKFGByoMTNLAKJ55sKHgm5-IydJTlteo_CojC4VA4YumnVIkod2kUmdben9qmwmiUtYwLBBB8aubKK3sTkNlQ0595g9u5Ey3OFIs0cU2fpA9c8flXdU-_06WawlZ7a-7HqM70N6PcbrTdU6v_MW3Do5S1ruQh5aHdvB-RZKSj0B-XvmRW7OzEHYSxW2jfy40FgZxuHnUZ9g2z1mTKKahUjyOUQfm57938gJGvddX7RO1hyOZx6OQxiH76l4YCZRxYwLxq6yqpFT2eHFoc7TMMOpXap0YJ87W9rrh48kH6o8nmeT3sO1GYVFlp7xWN9aEjuHw-_VKtTBNXfj1z22sknrY2IymYK6AvCWpW2Qm6XQB3vyA4aWXhJ7bcH0XFzlk7Zdyod_ZlpvxWF578epN4uW6ZKr0OKfT0Pibw4-gT-CUU3RqebcKO2AAseakj55--RW9fDDvxR-sTeIiZ9quYMqBNABAAFGcj2-njuttlOapnNvJy7Hrce8I-XMN1bKj2ynzYJNay7yrdbWU9aug4grF8f27AkP9H4PQylXRQr0d6_cG-8SJD2gN2T93RyeYKenUITGqgVE1fdk2Mb3URZGZpwVponccFEkH9sHY5VnH2KQ8dHhMLgjDwicF6sFJNkabSAN67ciLAfi19VAx25HWfarD6bB7kr3LrAKHDnCEaY71gN_4bzk7JEfSaiHRKPIelDwXDdxuc8fWNZu-e-l0ppqGVBgLC-t1pwVrWALb1a34HG_UNuHHc4YsTMY6mNN57MywFFTl53Bg_-TSzkjkXHdmAFxaQAcDKlGwAvO2Q3sGZ4HEP9XXWMheIFfAoMInKYj72sML1MEQi2lGnHvKAOyhNDk0KFjH-F7CtQIDpEc2Y4RfNdylh7RjnoQuYrEh6VMBjrC92ASoC8_UzlSdUKzsnmxQsvi9Qaz5cAJ9yoEaTPUwIdyhHNVTS6TMid5LvgqAQfVmNGizd1YGD4qR_crSrclkyQ1XYjlcxox8qGr1xAA8nK290idE0Atudx7wnihk1oxbP0QLFH4WBRKsEi-nqYqdg2eBD5BDQ2pBlOZlD2q6rqUMbFyhXVzKVGUsFpShaXYYRSW70imKGsFzTNArVTWpHBTBSAVryOsoRSJ2arBxSGgzwmXNmTZDzaCe8au5RnDjcWupfKorv6_DTxWsNBDnYVS56bLVSMZwhxwiPxtEcPCqzIGufIE0gnySTMxBKyYOBrUuKz3B0c5f3Sv3IMgW8k1My9M2tR7roVjrphllzBm00?></g></svg>