<?plantuml 1.2026.2?><svg xmlns="http://www.w3.org/2000/svg" xmlns:xlink="http://www.w3.org/1999/xlink" contentStyleType="text/css" data-diagram-type="ACTIVITY" height="803px" preserveAspectRatio="none" style="width:1611px;height:803px;background:#FFFFFF;" version="1.1" viewBox="0 0 1611 803" width="1611px" zoomAndPan="magnify"><title>Classification decision tree &#8212; witness w &#8594; (status, class)</title><defs/><g><rect fill="#FFFFCC" height="170.3399" rx="2.5" ry="2.5" style="stroke:#FFDD88;stroke-width:3;" width="1600.2241" x="5" y="5"/><text fill="#000000" font-family="monospace" font-size="10" lengthAdjust="spacing" textLength="534" x="10" y="20">This&#160;syntax&#160;is&#160;deprecated,&#160;you&#160;must&#160;add&#160;&lt;&lt;#E8F5E9&gt;&gt;&#160;at&#160;the&#160;end&#160;of&#160;the&#160;line,&#160;after&#160;the&#160;';'</text><text fill="#000000" font-family="monospace" font-size="10" lengthAdjust="spacing" textLength="534" x="10" y="43.62">This&#160;syntax&#160;is&#160;deprecated,&#160;you&#160;must&#160;add&#160;&lt;&lt;#C8E6C9&gt;&gt;&#160;at&#160;the&#160;end&#160;of&#160;the&#160;line,&#160;after&#160;the&#160;';'</text><text fill="#000000" font-family="monospace" font-size="10" lengthAdjust="spacing" textLength="534" x="10" y="67.24">This&#160;syntax&#160;is&#160;deprecated,&#160;you&#160;must&#160;add&#160;&lt;&lt;#FFF9C4&gt;&gt;&#160;at&#160;the&#160;end&#160;of&#160;the&#160;line,&#160;after&#160;the&#160;';'</text><text fill="#000000" font-family="monospace" font-size="10" lengthAdjust="spacing" textLength="534" x="10" y="90.86">This&#160;syntax&#160;is&#160;deprecated,&#160;you&#160;must&#160;add&#160;&lt;&lt;#E3F2FD&gt;&gt;&#160;at&#160;the&#160;end&#160;of&#160;the&#160;line,&#160;after&#160;the&#160;';'</text><text fill="#000000" font-family="monospace" font-size="10" lengthAdjust="spacing" textLength="534" x="10" y="114.4799">This&#160;syntax&#160;is&#160;deprecated,&#160;you&#160;must&#160;add&#160;&lt;&lt;#F3E5F5&gt;&gt;&#160;at&#160;the&#160;end&#160;of&#160;the&#160;line,&#160;after&#160;the&#160;';'</text><text fill="#000000" font-family="monospace" font-size="10" lengthAdjust="spacing" textLength="534" x="10" y="138.0999">This&#160;syntax&#160;is&#160;deprecated,&#160;you&#160;must&#160;add&#160;&lt;&lt;#FFECB3&gt;&gt;&#160;at&#160;the&#160;end&#160;of&#160;the&#160;line,&#160;after&#160;the&#160;';'</text><text fill="#000000" font-family="monospace" font-size="10" lengthAdjust="spacing" textLength="534" x="10" y="161.7199">This&#160;syntax&#160;is&#160;deprecated,&#160;you&#160;must&#160;add&#160;&lt;&lt;#FFCDD2&gt;&gt;&#160;at&#160;the&#160;end&#160;of&#160;the&#160;line,&#160;after&#160;the&#160;';'</text><g class="title" data-source-line="39"><text fill="#000000" font-family="'sans-serif'" font-size="22" font-weight="bold" lengthAdjust="spacing" textLength="615.1416" x="489.0412" y="218.858">Classification decision tree &#8212; witness w &#8594; (status, class)</text></g><ellipse cx="617.8267" cy="246.304" fill="#2E7D32" rx="10" ry="10" style="stroke:#000000;stroke-width:1;"/><path d="M695.0273,273.8131 L695.0273,297.2859 L675.0273,301.2859 L695.0273,305.2859 L695.0273,328.7587 A0,0 0 0 0 695.0273,328.7587 L857.4424,328.7587 A0,0 0 0 0 857.4424,328.7587 L857.4424,283.8131 L847.4424,273.8131 L695.0273,273.8131 A0,0 0 0 0 695.0273,273.8131" fill="#FFE0B2" style="stroke:#E65100;stroke-width:1;"/><path d="M847.4424,273.8131 L847.4424,283.8131 L857.4424,283.8131 L847.4424,273.8131" fill="#FFE0B2" style="stroke:#E65100;stroke-width:1;"/><text fill="#000000" font-family="'sans-serif'" font-size="11" lengthAdjust="spacing" textLength="84.1164" x="701.0273" y="290.572">Sources include:</text><text fill="#000000" font-family="'sans-serif'" font-size="11" lengthAdjust="spacing" textLength="141.415" x="701.0273" y="305.5539">Sage, Hypothesis, proptest,</text><text fill="#000000" font-family="'sans-serif'" font-size="11" lengthAdjust="spacing" textLength="137.213" x="701.0273" y="320.5358">libFuzzer, Kani, Loom, TLC.</text><rect fill="#FFFFFF" height="49.9638" rx="12.5" ry="12.5" style="stroke:#333333;stroke-width:1;" width="114.4014" x="560.626" y="276.304"/><text fill="#1A1A1A" font-family="'sans-serif'" font-size="11" lengthAdjust="spacing" textLength="90.1004" x="570.626" y="298.0629">Witness w arrives</text><text fill="#1A1A1A" font-family="'sans-serif'" font-size="11" lengthAdjust="spacing" textLength="94.4014" x="570.626" y="313.0448">from a search tool</text><polygon fill="#FFF7EE" points="519.8339,348.7587,715.8195,348.7587,727.8195,360.7587,715.8195,372.7587,519.8339,372.7587,507.8339,360.7587,519.8339,348.7587" style="stroke:#E65100;stroke-width:1;"/><text fill="#1A1A1A" font-family="'sans-serif'" font-size="11" lengthAdjust="spacing" textLength="195.9856" x="519.8339" y="365.0267">Q1: Does w reproduce on production?</text><text fill="#1565C0" font-family="'sans-serif'" font-size="11" lengthAdjust="spacing" textLength="18.3809" x="489.453" y="357.5358">YES</text><text fill="#1565C0" font-family="'sans-serif'" font-size="11" lengthAdjust="spacing" textLength="16.9509" x="727.8195" y="357.5358">NO</text><polygon fill="#FFF7EE" points="148.659,382.7587,361.6395,382.7587,373.6395,394.7587,361.6395,406.7587,148.659,406.7587,136.659,394.7587,148.659,382.7587" style="stroke:#E65100;stroke-width:1;"/><text fill="#1A1A1A" font-family="'sans-serif'" font-size="11" lengthAdjust="spacing" textLength="212.9805" x="148.659" y="399.0267">Q2a: Is w already in the bug-fix manifest?</text><text fill="#1565C0" font-family="'sans-serif'" font-size="11" lengthAdjust="spacing" textLength="18.3809" x="118.2782" y="391.5358">YES</text><text fill="#1565C0" font-family="'sans-serif'" font-size="11" lengthAdjust="spacing" textLength="16.9509" x="373.6395" y="391.5358">NO</text><rect fill="#FFFFFF" height="49.9638" rx="12.5" ry="12.5" style="stroke:#333333;stroke-width:1;" width="172.1179" x="6" y="416.7587"/><text fill="#1A1A1A" font-family="'sans-serif'" font-size="11" lengthAdjust="spacing" textLength="152.1179" x="16" y="438.5176">status = confirmed_fixed_bug</text><text fill="#1A1A1A" font-family="'sans-serif'" font-size="11" lengthAdjust="spacing" textLength="133.7811" x="16" y="453.4995">class  = permitted_bug_fix</text><ellipse cx="92.0589" cy="512.7225" fill="none" rx="11" ry="11" style="stroke:#000000;stroke-width:1;"/><ellipse cx="92.0589" cy="512.7225" fill="#FFFFFF" rx="6" ry="6" style="stroke:#000000;stroke-width:1;"/><polygon fill="#FFF7EE" points="322.5403,416.7587,513.9389,416.7587,525.9389,428.7587,513.9389,440.7587,322.5403,440.7587,310.5403,428.7587,322.5403,416.7587" style="stroke:#E65100;stroke-width:1;"/><text fill="#1A1A1A" font-family="'sans-serif'" font-size="11" lengthAdjust="spacing" textLength="191.3987" x="322.5403" y="433.0267">Q3a: Is the bug fixed in the same PR?</text><text fill="#1565C0" font-family="'sans-serif'" font-size="11" lengthAdjust="spacing" textLength="18.3809" x="292.1594" y="425.5358">YES</text><text fill="#1565C0" font-family="'sans-serif'" font-size="11" lengthAdjust="spacing" textLength="16.9509" x="525.9389" y="425.5358">NO</text><rect fill="#FFFFFF" height="79.9276" rx="12.5" ry="12.5" style="stroke:#333333;stroke-width:1;" width="184.8448" x="208.1179" y="450.7587"/><text fill="#1A1A1A" font-family="'sans-serif'" font-size="11" lengthAdjust="spacing" textLength="164.8448" x="218.1179" y="472.5176">status = confirmed_current_bug</text><text fill="#1A1A1A" font-family="'sans-serif'" font-size="11" lengthAdjust="spacing" textLength="81.2344" x="218.1179" y="487.4995">+ fix in same PR</text><text fill="#1A1A1A" font-family="'sans-serif'" font-size="11" lengthAdjust="spacing" textLength="115.6532" x="218.1179" y="502.4814">class  = projection_risk</text><text fill="#1A1A1A" font-family="'sans-serif'" font-size="11" lengthAdjust="spacing" textLength="132.131" x="218.1179" y="517.4633">or unexpected (reclassify)</text><ellipse cx="300.5403" cy="576.6863" fill="none" rx="11" ry="11" style="stroke:#000000;stroke-width:1;"/><ellipse cx="300.5403" cy="576.6863" fill="#FFFFFF" rx="6" ry="6" style="stroke:#000000;stroke-width:1;"/><rect fill="#FFFFFF" height="79.9276" rx="12.5" ry="12.5" style="stroke:#333333;stroke-width:1;" width="184.8448" x="443.5165" y="450.7587"/><text fill="#1A1A1A" font-family="'sans-serif'" font-size="11" lengthAdjust="spacing" textLength="164.8448" x="453.5165" y="472.5176">status = confirmed_current_bug</text><text fill="#1A1A1A" font-family="'sans-serif'" font-size="11" lengthAdjust="spacing" textLength="122.8801" x="453.5165" y="487.4995">+ tracking issue opened</text><text fill="#1A1A1A" font-family="'sans-serif'" font-size="11" lengthAdjust="spacing" textLength="115.6532" x="453.5165" y="502.4814">class  = projection_risk</text><text fill="#1A1A1A" font-family="'sans-serif'" font-size="11" lengthAdjust="spacing" textLength="132.131" x="453.5165" y="517.4633">or unexpected (reclassify)</text><ellipse cx="535.9389" cy="576.6863" fill="none" rx="11" ry="11" style="stroke:#000000;stroke-width:1;"/><ellipse cx="535.9389" cy="576.6863" fill="#FFFFFF" rx="6" ry="6" style="stroke:#000000;stroke-width:1;"/><polygon fill="#FFF7EE" points="811.4847,382.7587,1149.5234,382.7587,1161.5234,394.7587,1149.5234,406.7587,811.4847,406.7587,799.4847,394.7587,811.4847,382.7587" style="stroke:#E65100;stroke-width:1;"/><text fill="#1A1A1A" font-family="'sans-serif'" font-size="11" lengthAdjust="spacing" textLength="338.0387" x="811.4847" y="399.0267">Q2b: Does w describe a behaviour the Rust path explicitly rejects?</text><text fill="#1565C0" font-family="'sans-serif'" font-size="11" lengthAdjust="spacing" textLength="18.3809" x="781.1039" y="391.5358">YES</text><text fill="#1565C0" font-family="'sans-serif'" font-size="11" lengthAdjust="spacing" textLength="16.9509" x="1161.5234" y="391.5358">NO</text><rect fill="#FFFFFF" height="49.9638" rx="12.5" ry="12.5" style="stroke:#333333;stroke-width:1;" width="186.2748" x="678.3613" y="416.7587"/><text fill="#1A1A1A" font-family="'sans-serif'" font-size="11" lengthAdjust="spacing" textLength="84.0835" x="688.3613" y="438.5176">class  = bisimilar</text><text fill="#1A1A1A" font-family="'sans-serif'" font-size="11" lengthAdjust="spacing" textLength="166.2748" x="688.3613" y="453.4995">status = not_reproduced_in_rust</text><ellipse cx="771.4987" cy="512.7225" fill="none" rx="11" ry="11" style="stroke:#000000;stroke-width:1;"/><ellipse cx="771.4987" cy="512.7225" fill="#FFFFFF" rx="6" ry="6" style="stroke:#000000;stroke-width:1;"/><polygon fill="#FFF7EE" points="1042.3084,416.7587,1336.7103,416.7587,1348.7103,428.7587,1336.7103,440.7587,1042.3084,440.7587,1030.3084,428.7587,1042.3084,416.7587" style="stroke:#E65100;stroke-width:1;"/><text fill="#1A1A1A" font-family="'sans-serif'" font-size="11" lengthAdjust="spacing" textLength="294.4019" x="1042.3084" y="433.0267">Q3b: Is the witness at a theorem precondition boundary?</text><text fill="#1565C0" font-family="'sans-serif'" font-size="11" lengthAdjust="spacing" textLength="18.3809" x="1011.9276" y="425.5358">YES</text><text fill="#1565C0" font-family="'sans-serif'" font-size="11" lengthAdjust="spacing" textLength="16.9509" x="1348.7103" y="425.5358">NO</text><rect fill="#FFFFFF" height="49.9638" rx="12.5" ry="12.5" style="stroke:#333333;stroke-width:1;" width="213.6976" x="894.6361" y="450.7587"/><text fill="#1A1A1A" font-family="'sans-serif'" font-size="11" lengthAdjust="spacing" textLength="193.6976" x="904.6361" y="472.5176">status = assumption_counterexample</text><text fill="#1A1A1A" font-family="'sans-serif'" font-size="11" lengthAdjust="spacing" textLength="189.9357" x="904.6361" y="487.4995">class  = assumption_counterexample</text><ellipse cx="1001.4849" cy="546.7225" fill="none" rx="11" ry="11" style="stroke:#000000;stroke-width:1;"/><ellipse cx="1001.4849" cy="546.7225" fill="#FFFFFF" rx="6" ry="6" style="stroke:#000000;stroke-width:1;"/><polygon fill="#FFF7EE" points="1254.4887,450.7587,1500.579,450.7587,1512.579,462.7587,1500.579,474.7587,1254.4887,474.7587,1242.4887,462.7587,1254.4887,450.7587" style="stroke:#E65100;stroke-width:1;"/><text fill="#1A1A1A" font-family="'sans-serif'" font-size="11" lengthAdjust="spacing" textLength="246.0903" x="1254.4887" y="467.0267">Q4: Is w a model-only projection of a Rust path?</text><text fill="#1565C0" font-family="'sans-serif'" font-size="11" lengthAdjust="spacing" textLength="18.3809" x="1224.1078" y="459.5358">YES</text><text fill="#1565C0" font-family="'sans-serif'" font-size="11" lengthAdjust="spacing" textLength="16.9509" x="1512.579" y="459.5358">NO</text><rect fill="#FFFFFF" height="49.9638" rx="12.5" ry="12.5" style="stroke:#333333;stroke-width:1;" width="188.3098" x="1138.3338" y="484.7587"/><text fill="#1A1A1A" font-family="'sans-serif'" font-size="11" lengthAdjust="spacing" textLength="168.3098" x="1148.3338" y="506.5176">status = projection_risk_guarded</text><text fill="#1A1A1A" font-family="'sans-serif'" font-size="11" lengthAdjust="spacing" textLength="115.6532" x="1148.3338" y="521.4995">class  = projection_risk</text><ellipse cx="1232.4887" cy="580.7225" fill="none" rx="11" ry="11" style="stroke:#000000;stroke-width:1;"/><ellipse cx="1232.4887" cy="580.7225" fill="#FFFFFF" rx="6" ry="6" style="stroke:#000000;stroke-width:1;"/><rect fill="#FFFFFF" height="79.9276" rx="12.5" ry="12.5" style="stroke:#333333;stroke-width:1;" width="135.2902" x="1454.9339" y="484.7587"/><text fill="#1A1A1A" font-family="'sans-serif'" font-size="11" lengthAdjust="spacing" textLength="115.2902" x="1464.9339" y="506.5176">HALT &#8212; escalate audit</text><text fill="#1A1A1A" font-family="'sans-serif'" font-size="11" lengthAdjust="spacing" textLength="97.6463" x="1464.9339" y="521.4995">class = unexpected</text><text fill="#1A1A1A" font-family="'sans-serif'" font-size="11" lengthAdjust="spacing" textLength="103.0143" x="1464.9339" y="536.4814">must be reclassified</text><text fill="#1A1A1A" font-family="'sans-serif'" font-size="11" lengthAdjust="spacing" textLength="76.3285" x="1464.9339" y="551.4633">before commit</text><ellipse cx="1522.579" cy="609.6863" fill="none" rx="10" ry="10" style="stroke:#C62828;stroke-width:1;"/><line style="stroke:#C62828;stroke-width:2.5;" x1="1516.3918" x2="1528.7661" y1="603.4991" y2="615.8735"/><line style="stroke:#C62828;stroke-width:2.5;" x1="1528.7661" x2="1516.3918" y1="603.4991" y2="615.8735"/><line style="stroke:#333333;stroke-width:1;" x1="617.8267" x2="617.8267" y1="256.304" y2="276.304"/><polygon fill="#333333" points="613.8267,266.304,617.8267,276.304,621.8267,266.304,617.8267,270.304" style="stroke:#333333;stroke-width:1;"/><line style="stroke:#333333;stroke-width:1;" x1="92.0589" x2="92.0589" y1="466.7225" y2="501.7225"/><polygon fill="#333333" points="88.0589,491.7225,92.0589,501.7225,96.0589,491.7225,92.0589,495.7225" style="stroke:#333333;stroke-width:1;"/><line style="stroke:#333333;stroke-width:1;" x1="300.5403" x2="300.5403" y1="530.6863" y2="565.6863"/><polygon fill="#333333" points="296.5403,555.6863,300.5403,565.6863,304.5403,555.6863,300.5403,559.6863" style="stroke:#333333;stroke-width:1;"/><line style="stroke:#333333;stroke-width:1;" x1="535.9389" x2="535.9389" y1="530.6863" y2="565.6863"/><polygon fill="#333333" points="531.9389,555.6863,535.9389,565.6863,539.9389,555.6863,535.9389,559.6863" style="stroke:#333333;stroke-width:1;"/><line style="stroke:#333333;stroke-width:1;" x1="310.5403" x2="300.5403" y1="428.7587" y2="428.7587"/><line style="stroke:#333333;stroke-width:1;" x1="300.5403" x2="300.5403" y1="428.7587" y2="450.7587"/><polygon fill="#333333" points="296.5403,440.7587,300.5403,450.7587,304.5403,440.7587,300.5403,444.7587" style="stroke:#333333;stroke-width:1;"/><line style="stroke:#333333;stroke-width:1;" x1="525.9389" x2="535.9389" y1="428.7587" y2="428.7587"/><line style="stroke:#333333;stroke-width:1;" x1="535.9389" x2="535.9389" y1="428.7587" y2="450.7587"/><polygon fill="#333333" points="531.9389,440.7587,535.9389,450.7587,539.9389,440.7587,535.9389,444.7587" style="stroke:#333333;stroke-width:1;"/><line style="stroke:#333333;stroke-width:1;" x1="136.659" x2="92.0589" y1="394.7587" y2="394.7587"/><line style="stroke:#333333;stroke-width:1;" x1="92.0589" x2="92.0589" y1="394.7587" y2="416.7587"/><polygon fill="#333333" points="88.0589,406.7587,92.0589,416.7587,96.0589,406.7587,92.0589,410.7587" style="stroke:#333333;stroke-width:1;"/><line style="stroke:#333333;stroke-width:1;" x1="373.6395" x2="418.2396" y1="394.7587" y2="394.7587"/><line style="stroke:#333333;stroke-width:1;" x1="418.2396" x2="418.2396" y1="394.7587" y2="416.7587"/><polygon fill="#333333" points="414.2396,406.7587,418.2396,416.7587,422.2396,406.7587,418.2396,410.7587" style="stroke:#333333;stroke-width:1;"/><line style="stroke:#333333;stroke-width:1;" x1="771.4987" x2="771.4987" y1="466.7225" y2="501.7225"/><polygon fill="#333333" points="767.4987,491.7225,771.4987,501.7225,775.4987,491.7225,771.4987,495.7225" style="stroke:#333333;stroke-width:1;"/><line style="stroke:#333333;stroke-width:1;" x1="1001.4849" x2="1001.4849" y1="500.7225" y2="535.7225"/><polygon fill="#333333" points="997.4849,525.7225,1001.4849,535.7225,1005.4849,525.7225,1001.4849,529.7225" style="stroke:#333333;stroke-width:1;"/><line style="stroke:#333333;stroke-width:1;" x1="1232.4887" x2="1232.4887" y1="534.7225" y2="569.7225"/><polygon fill="#333333" points="1228.4887,559.7225,1232.4887,569.7225,1236.4887,559.7225,1232.4887,563.7225" style="stroke:#333333;stroke-width:1;"/><line style="stroke:#333333;stroke-width:1;" x1="1522.579" x2="1522.579" y1="564.6863" y2="599.6863"/><polygon fill="#333333" points="1518.579,589.6863,1522.579,599.6863,1526.579,589.6863,1522.579,593.6863" style="stroke:#333333;stroke-width:1;"/><line style="stroke:#333333;stroke-width:1;" x1="1242.4887" x2="1232.4887" y1="462.7587" y2="462.7587"/><line style="stroke:#333333;stroke-width:1;" x1="1232.4887" x2="1232.4887" y1="462.7587" y2="484.7587"/><polygon fill="#333333" points="1228.4887,474.7587,1232.4887,484.7587,1236.4887,474.7587,1232.4887,478.7587" style="stroke:#333333;stroke-width:1;"/><line style="stroke:#333333;stroke-width:1;" x1="1512.579" x2="1522.579" y1="462.7587" y2="462.7587"/><line style="stroke:#333333;stroke-width:1;" x1="1522.579" x2="1522.579" y1="462.7587" y2="484.7587"/><polygon fill="#333333" points="1518.579,474.7587,1522.579,484.7587,1526.579,474.7587,1522.579,478.7587" style="stroke:#333333;stroke-width:1;"/><line style="stroke:#333333;stroke-width:1;" x1="1030.3084" x2="1001.4849" y1="428.7587" y2="428.7587"/><line style="stroke:#333333;stroke-width:1;" x1="1001.4849" x2="1001.4849" y1="428.7587" y2="450.7587"/><polygon fill="#333333" points="997.4849,440.7587,1001.4849,450.7587,1005.4849,440.7587,1001.4849,444.7587" style="stroke:#333333;stroke-width:1;"/><line style="stroke:#333333;stroke-width:1;" x1="1348.7103" x2="1377.5338" y1="428.7587" y2="428.7587"/><line style="stroke:#333333;stroke-width:1;" x1="1377.5338" x2="1377.5338" y1="428.7587" y2="450.7587"/><polygon fill="#333333" points="1373.5338,440.7587,1377.5338,450.7587,1381.5338,440.7587,1377.5338,444.7587" style="stroke:#333333;stroke-width:1;"/><line style="stroke:#333333;stroke-width:1;" x1="799.4847" x2="771.4987" y1="394.7587" y2="394.7587"/><line style="stroke:#333333;stroke-width:1;" x1="771.4987" x2="771.4987" y1="394.7587" y2="416.7587"/><polygon fill="#333333" points="767.4987,406.7587,771.4987,416.7587,775.4987,406.7587,771.4987,410.7587" style="stroke:#333333;stroke-width:1;"/><line style="stroke:#333333;stroke-width:1;" x1="1161.5234" x2="1189.5094" y1="394.7587" y2="394.7587"/><line style="stroke:#333333;stroke-width:1;" x1="1189.5094" x2="1189.5094" y1="394.7587" y2="416.7587"/><polygon fill="#333333" points="1185.5094,406.7587,1189.5094,416.7587,1193.5094,406.7587,1189.5094,410.7587" style="stroke:#333333;stroke-width:1;"/><line style="stroke:#333333;stroke-width:1;" x1="507.8339" x2="255.1493" y1="360.7587" y2="360.7587"/><line style="stroke:#333333;stroke-width:1;" x1="255.1493" x2="255.1493" y1="360.7587" y2="382.7587"/><polygon fill="#333333" points="251.1493,372.7587,255.1493,382.7587,259.1493,372.7587,255.1493,376.7587" style="stroke:#333333;stroke-width:1;"/><line style="stroke:#333333;stroke-width:1;" x1="727.8195" x2="980.5041" y1="360.7587" y2="360.7587"/><line style="stroke:#333333;stroke-width:1;" x1="980.5041" x2="980.5041" y1="360.7587" y2="382.7587"/><polygon fill="#333333" points="976.5041,372.7587,980.5041,382.7587,984.5041,372.7587,980.5041,376.7587" style="stroke:#333333;stroke-width:1;"/><line style="stroke:#333333;stroke-width:1;" x1="617.8267" x2="617.8267" y1="326.2678" y2="348.7587"/><polygon fill="#333333" points="613.8267,338.7587,617.8267,348.7587,621.8267,338.7587,617.8267,342.7587" style="stroke:#333333;stroke-width:1;"/><g class="legend" data-source-line="41"><rect fill="none" height="166.5433" rx="7.5" ry="7.5" style="stroke:#000000;stroke-width:1;" width="327.8408" x="1255.3833" y="623.6863"/><text fill="#000000" font-family="'sans-serif'" font-size="14" lengthAdjust="spacing" textLength="43.8338" x="1264.0233" y="645.6522">Colour</text><text fill="#000000" font-family="'sans-serif'" font-size="14" lengthAdjust="spacing" textLength="124.0395" x="1315.1371" y="645.6522">Outcome semantic</text><rect fill="#E8F5E9" height="19.0679" style="stroke:none;stroke-width:1;" width="51.1138" x="1260.3833" y="649.7542"/><text fill="#000000" font-family="'sans-serif'" font-size="14" lengthAdjust="spacing" textLength="3.64" x="1260.3833" y="664.7201">&#160;</text><text fill="#000000" font-family="'sans-serif'" font-size="14" lengthAdjust="spacing" textLength="167.9854" x="1315.1371" y="664.7201">Already fixed; record only</text><rect fill="#C8E6C9" height="19.0679" style="stroke:none;stroke-width:1;" width="51.1138" x="1260.3833" y="668.8221"/><text fill="#000000" font-family="'sans-serif'" font-size="14" lengthAdjust="spacing" textLength="3.64" x="1260.3833" y="683.7881">&#160;</text><text fill="#000000" font-family="'sans-serif'" font-size="14" lengthAdjust="spacing" textLength="163.4913" x="1315.1371" y="683.7881">Bug fixed in the same PR</text><rect fill="#FFF9C4" height="19.0679" style="stroke:none;stroke-width:1;" width="51.1138" x="1260.3833" y="687.89"/><text fill="#000000" font-family="'sans-serif'" font-size="14" lengthAdjust="spacing" textLength="3.64" x="1260.3833" y="702.856">&#160;</text><text fill="#000000" font-family="'sans-serif'" font-size="14" lengthAdjust="spacing" textLength="202.7472" x="1315.1371" y="702.856">Action pending (tracking issue)</text><rect fill="#FFECB3" height="19.0679" style="stroke:none;stroke-width:1;" width="51.1138" x="1260.3833" y="706.958"/><text fill="#000000" font-family="'sans-serif'" font-size="14" lengthAdjust="spacing" textLength="3.64" x="1260.3833" y="721.9239">&#160;</text><text fill="#000000" font-family="'sans-serif'" font-size="14" lengthAdjust="spacing" textLength="192.2053" x="1315.1371" y="721.9239">Projection-risk guard in place</text><rect fill="#E3F2FD" height="19.0679" style="stroke:none;stroke-width:1;" width="51.1138" x="1260.3833" y="726.0259"/><text fill="#000000" font-family="'sans-serif'" font-size="14" lengthAdjust="spacing" textLength="3.64" x="1260.3833" y="740.9918">&#160;</text><text fill="#000000" font-family="'sans-serif'" font-size="14" lengthAdjust="spacing" textLength="215.8792" x="1315.1371" y="740.9918">Bisimilar; not reproduced in Rust</text><rect fill="#F3E5F5" height="19.0679" style="stroke:none;stroke-width:1;" width="51.1138" x="1260.3833" y="745.0938"/><text fill="#000000" font-family="'sans-serif'" font-size="14" lengthAdjust="spacing" textLength="3.64" x="1260.3833" y="760.0597">&#160;</text><text fill="#000000" font-family="'sans-serif'" font-size="14" lengthAdjust="spacing" textLength="259.447" x="1315.1371" y="760.0597">Theorem-precondition counterexample</text><rect fill="#FFCDD2" height="19.0679" style="stroke:none;stroke-width:1;" width="51.1138" x="1260.3833" y="764.1617"/><text fill="#000000" font-family="'sans-serif'" font-size="14" lengthAdjust="spacing" textLength="3.64" x="1260.3833" y="779.1276">&#160;</text><text fill="#000000" font-family="'sans-serif'" font-size="14" lengthAdjust="spacing" textLength="182.6293" x="1315.1371" y="779.1276">HALT &#8212; escalation required</text><line style="stroke:#000000;stroke-width:1;" x1="1260.3833" x2="1578.2241" y1="630.6863" y2="630.6863"/><line style="stroke:#000000;stroke-width:1;" x1="1260.3833" x2="1578.2241" y1="649.7542" y2="649.7542"/><line style="stroke:#000000;stroke-width:1;" x1="1260.3833" x2="1578.2241" y1="668.8221" y2="668.8221"/><line style="stroke:#000000;stroke-width:1;" x1="1260.3833" x2="1578.2241" y1="687.89" y2="687.89"/><line style="stroke:#000000;stroke-width:1;" x1="1260.3833" x2="1578.2241" y1="706.958" y2="706.958"/><line style="stroke:#000000;stroke-width:1;" x1="1260.3833" x2="1578.2241" y1="726.0259" y2="726.0259"/><line style="stroke:#000000;stroke-width:1;" x1="1260.3833" x2="1578.2241" y1="745.0938" y2="745.0938"/><line style="stroke:#000000;stroke-width:1;" x1="1260.3833" x2="1578.2241" y1="764.1617" y2="764.1617"/><line style="stroke:#000000;stroke-width:1;" x1="1260.3833" x2="1578.2241" y1="783.2296" y2="783.2296"/><line style="stroke:#000000;stroke-width:1;" x1="1260.3833" x2="1260.3833" y1="630.6863" y2="783.2296"/><line style="stroke:#000000;stroke-width:1;" x1="1311.4971" x2="1311.4971" y1="630.6863" y2="783.2296"/><line style="stroke:#000000;stroke-width:1;" x1="1578.2241" x2="1578.2241" y1="630.6863" y2="783.2296"/></g><?plantuml-src hLN1Rjj64BtlLqoZYuHAXIL5ZYCrBMoAGeeQJXeRA7eIbkHGsfhaChjBsp9yw2aV4FGByoMTNLAKJ57nfJHWBPRpPjxCl1d-ODQO8kG95nbZ-bPaELSyXVFGY3jXDXSyl5qfMMIH9nEfe7ew2_Uq0QIAK3qpTe2nUre0Sy5JcKNDG3R26z__3g0HgEEVJeOd9yS12vcPVLwTuRdzQm4qBLy4N1kkMX2TaVzcFXwr0Fn6FRS0xtHqDZhR0rn9WqTwKFN1FxaODG7jFJXI9QNaVQljiSPPm94IkIfDJYVUIHlWMZpYOOJXlcs4CIyIOwslU7fW_KhpJ0yqAX6_QaUrnHWE6JF290XUmhKMiGYv4J8ZN2YqFHY52D_--HVkXSbGQxY7Rr--GbSRRWhTXz3YUembkC8i0YLMQyC0di3Me51q-52OK19XZIdFZ0ZXoRx_kUEVBIR-sr-Uu3nHoACDnE81enae3AbB8BDaipNrplnJpvfU5AlI30HHMvDJMugFdxQ6D1fllTVMP-ZIo8cJo5RGDOgaOaz2wm9xEtlVknYJ_KSb_qQ76IYXRs5LSEM2qFo7M5CUBqQBkUL1nKb5mjKCCcc8SgvaL8Gbhq-5DdM0iJzPJ0XniqQfC1taDZqYvUY595s32XzucYUu8-NDvoF2l3-_l76rHntof6oCmi-5K1JeYL5kPTLfFTanOspwPzqahfIuGyrY9LFWL7okmZKOAPCP8yfOT-gQkXIY9k9XKaGujLTyXNrulyabbLWBwZAbbnlKfazl4n4iYiT7L7tudMUY3vTIfdsukVH-ifHiGP0n4KFtZ-4KvX8jdRf2OBlYZZQTNtksYnbq__AlU-JReKPy2h-v72fXLBqEYjM0cWya8n4JcIROph3JrBGK9xoZ0cUnK2b6IwUQ9RbWJh50BtDKgJ2clBO6C-T46vdJ0HEDqBtwK7fsnCObiOfBgn0FETdTvUJRnYeibCBCE5u_MeVMNULgZsWjpgKL9wFTKcJuaDCT4UYIeihXtVHcLSWgXsOMvUU99kHbBiy71YHD4aR_3oLIVyosl_i4o-u7jMWYqhqI0P9-0rppEs4NYYsscx2ScpLGo4I4jC4s937BIBUfmetjj2OVRAUNrMKWqIvtKxmKb1R5U54GGIs8xNhaXjYQSjZXsR07zZl5rQPL8kMUsBM5c1PfxkhxV4diMd3Kv4KHEEwljqC6gOmm6RXzksiho9XUrOLk8rr-P6b_xcWtPB5qQ_GxkfdLhcgoXtHT7BiIfys5ICeegBgL-tTx4cIfPKxIgPKew3B0cFf2cazfy7UnxGgjJqwR1ofr__y3?></g></svg>