<?plantuml 1.2026.2?><svg xmlns="http://www.w3.org/2000/svg" xmlns:xlink="http://www.w3.org/1999/xlink" contentStyleType="text/css" data-diagram-type="ACTIVITY" height="564px" preserveAspectRatio="none" style="width:776px;height:564px;background:#FFFFFF;" version="1.1" viewBox="0 0 776 564" width="776px" zoomAndPan="magnify"><title>Divergence classification &#8212; &#948; &#8594; threat-model class</title><defs/><g><g class="title" data-source-line="38"><text fill="#000000" font-family="'sans-serif'" font-size="22" font-weight="bold" lengthAdjust="spacing" textLength="554.2894" x="109.5046" y="38.5181">Divergence classification &#8212; &#948; &#8594; threat-model class</text></g><ellipse cx="257.5802" cy="65.9641" fill="#2E7D32" rx="10" ry="10" style="stroke:#000000;stroke-width:1;"/><path d="M348.8223,93.4732 L348.8223,124.4369 L328.8223,128.4369 L348.8223,132.4369 L348.8223,163.4007 A0,0 0 0 0 348.8223,163.4007 L556.8649,163.4007 A0,0 0 0 0 556.8649,163.4007 L556.8649,103.4732 L546.8649,93.4732 L348.8223,93.4732 A0,0 0 0 0 348.8223,93.4732" fill="#FFE0B2" style="stroke:#E65100;stroke-width:1;"/><path d="M546.8649,93.4732 L546.8649,103.4732 L556.8649,103.4732 L546.8649,93.4732" fill="#FFE0B2" style="stroke:#E65100;stroke-width:1;"/><text fill="#000000" font-family="'sans-serif'" font-size="11" lengthAdjust="spacing" textLength="84.1164" x="354.8223" y="110.2321">Sources include:</text><text fill="#000000" font-family="'sans-serif'" font-size="11" lengthAdjust="spacing" textLength="187.0427" x="354.8223" y="125.214">Sage differential_bisimilarity_model,</text><text fill="#000000" font-family="'sans-serif'" font-size="11" lengthAdjust="spacing" textLength="185.7337" x="354.8223" y="140.1958">Hypothesis rust_differential_corpus,</text><text fill="#000000" font-family="'sans-serif'" font-size="11" lengthAdjust="spacing" textLength="141.987" x="354.8223" y="155.1777">proptest triple-bisim driver.</text><rect fill="#FFFFFF" height="64.9457" rx="12.5" ry="12.5" style="stroke:#333333;stroke-width:1;" width="142.4841" x="186.3381" y="95.9641"/><text fill="#1A1A1A" font-family="'sans-serif'" font-size="11" lengthAdjust="spacing" textLength="119.3051" x="196.3381" y="117.723">Observed divergence &#948;</text><text fill="#1A1A1A" font-family="'sans-serif'" font-size="11" lengthAdjust="spacing" textLength="122.4841" x="196.3381" y="132.7049">between Rust and Scala</text><text fill="#1A1A1A" font-family="'sans-serif'" font-size="11" lengthAdjust="spacing" textLength="94.1043" x="196.3381" y="147.6868">on the same input</text><polygon fill="#FFF7EE" points="178.2323,183.4007,336.9281,183.4007,348.9281,198.3826,336.9281,213.3645,178.2323,213.3645,166.2323,198.3826,178.2323,183.4007" style="stroke:#E65100;stroke-width:1;"/><text fill="#1A1A1A" font-family="'sans-serif'" font-size="11" lengthAdjust="spacing" textLength="158.6959" x="178.2323" y="195.1596">Q1: Is &#948; in the bug-fix manifest</text><text fill="#1A1A1A" font-family="'sans-serif'" font-size="11" lengthAdjust="spacing" textLength="84.9194" x="178.2323" y="210.1415">(../design/09-&#8230;)?</text><text fill="#1565C0" font-family="'sans-serif'" font-size="11" lengthAdjust="spacing" textLength="18.3809" x="147.8514" y="195.1596">YES</text><text fill="#1565C0" font-family="'sans-serif'" font-size="11" lengthAdjust="spacing" textLength="16.9509" x="348.9281" y="195.1596">NO</text><rect fill="#E8F5E9" height="49.9638" rx="12.5" ry="12.5" style="stroke:#333333;stroke-width:1;" width="155.629" x="6" y="223.3645"/><text fill="#1A1A1A" font-family="'sans-serif'" font-size="11" lengthAdjust="spacing" textLength="130.9211" x="16" y="245.1234">class = permitted_bug_fix</text><text fill="#1A1A1A" font-family="'sans-serif'" font-size="11" lengthAdjust="spacing" textLength="135.629" x="16" y="260.1053">cite bug-fix manifest entry</text><ellipse cx="83.8145" cy="319.3283" fill="none" rx="11" ry="11" style="stroke:#000000;stroke-width:1;"/><ellipse cx="83.8145" cy="319.3283" fill="#FFFFFF" rx="6" ry="6" style="stroke:#000000;stroke-width:1;"/><polygon fill="#FFF7EE" points="345.662,223.3645,517.0298,223.3645,529.0298,238.3464,517.0298,253.3283,345.662,253.3283,333.662,238.3464,345.662,223.3645" style="stroke:#E65100;stroke-width:1;"/><text fill="#1A1A1A" font-family="'sans-serif'" font-size="11" lengthAdjust="spacing" textLength="107.2603" x="345.662" y="235.1234">Q2: Is &#948; at an explicit</text><text fill="#1A1A1A" font-family="'sans-serif'" font-size="11" lengthAdjust="spacing" textLength="171.3678" x="345.662" y="250.1053">theorem precondition boundary?</text><text fill="#1565C0" font-family="'sans-serif'" font-size="11" lengthAdjust="spacing" textLength="18.3809" x="315.2812" y="235.1234">YES</text><text fill="#1565C0" font-family="'sans-serif'" font-size="11" lengthAdjust="spacing" textLength="16.9509" x="529.0298" y="235.1234">NO</text><rect fill="#F3E5F5" height="64.9457" rx="12.5" ry="12.5" style="stroke:#333333;stroke-width:1;" width="162.79" x="191.629" y="263.3283"/><text fill="#1A1A1A" font-family="'sans-serif'" font-size="11" lengthAdjust="spacing" textLength="142.79" x="201.629" y="285.0872">class = candidate_boundary</text><text fill="#1A1A1A" font-family="'sans-serif'" font-size="11" lengthAdjust="spacing" textLength="134.221" x="201.629" y="300.0691">document precondition in</text><text fill="#1A1A1A" font-family="'sans-serif'" font-size="11" lengthAdjust="spacing" textLength="130.9761" x="201.629" y="315.0509">slashing-specification.md</text><ellipse cx="273.024" cy="374.2739" fill="none" rx="11" ry="11" style="stroke:#000000;stroke-width:1;"/><ellipse cx="273.024" cy="374.2739" fill="#FFFFFF" rx="6" ry="6" style="stroke:#000000;stroke-width:1;"/><polygon fill="#FFF7EE" points="495.602,263.3283,683.7336,263.3283,695.7336,278.3101,683.7336,293.292,495.602,293.292,483.602,278.3101,495.602,263.3283" style="stroke:#E65100;stroke-width:1;"/><text fill="#1A1A1A" font-family="'sans-serif'" font-size="11" lengthAdjust="spacing" textLength="188.1317" x="495.602" y="275.0872">Q3: Is &#948; an internal-only divergence?</text><text fill="#1A1A1A" font-family="'sans-serif'" font-size="11" lengthAdjust="spacing" textLength="170.5758" x="495.602" y="290.0691">(state, logs, hash ordering, ids &#8230;)</text><text fill="#1565C0" font-family="'sans-serif'" font-size="11" lengthAdjust="spacing" textLength="18.3809" x="465.2211" y="275.0872">YES</text><text fill="#1565C0" font-family="'sans-serif'" font-size="11" lengthAdjust="spacing" textLength="16.9509" x="695.7336" y="275.0872">NO</text><rect fill="#E3F2FD" height="64.9457" rx="12.5" ry="12.5" style="stroke:#333333;stroke-width:1;" width="178.3659" x="384.419" y="303.292"/><text fill="#1A1A1A" font-family="'sans-serif'" font-size="11" lengthAdjust="spacing" textLength="81.2235" x="394.419" y="325.0509">class = bisimilar</text><text fill="#1A1A1A" font-family="'sans-serif'" font-size="11" lengthAdjust="spacing" textLength="158.3659" x="394.419" y="340.0328">record as expected agreement</text><text fill="#1A1A1A" font-family="'sans-serif'" font-size="11" lengthAdjust="spacing" textLength="98.5373" x="394.419" y="355.0147">(no source change)</text><ellipse cx="473.602" cy="414.2377" fill="none" rx="11" ry="11" style="stroke:#000000;stroke-width:1;"/><ellipse cx="473.602" cy="414.2377" fill="#FFFFFF" rx="6" ry="6" style="stroke:#000000;stroke-width:1;"/><rect fill="#FFCDD2" height="79.9276" rx="12.5" ry="12.5" style="stroke:#333333;stroke-width:1;" width="129.1302" x="641.1685" y="303.292"/><text fill="#1A1A1A" font-family="'sans-serif'" font-size="11" lengthAdjust="spacing" textLength="97.6463" x="651.1685" y="325.0509">class = unexpected</text><text fill="#1A1A1A" font-family="'sans-serif'" font-size="11" lengthAdjust="spacing" textLength="109.1302" x="651.1685" y="340.0328">HALT and investigate</text><text fill="#1A1A1A" font-family="'sans-serif'" font-size="11" lengthAdjust="spacing" textLength="106.3143" x="651.1685" y="355.0147">(must be reclassified</text><text fill="#1A1A1A" font-family="'sans-serif'" font-size="11" lengthAdjust="spacing" textLength="79.6284" x="651.1685" y="369.9966">before commit)</text><ellipse cx="705.7336" cy="428.2196" fill="none" rx="10" ry="10" style="stroke:#C62828;stroke-width:1;"/><line style="stroke:#C62828;stroke-width:2.5;" x1="699.5464" x2="711.9208" y1="422.0324" y2="434.4068"/><line style="stroke:#C62828;stroke-width:2.5;" x1="711.9208" x2="699.5464" y1="422.0324" y2="434.4068"/><line style="stroke:#333333;stroke-width:1;" x1="257.5802" x2="257.5802" y1="75.9641" y2="95.9641"/><polygon fill="#333333" points="253.5802,85.9641,257.5802,95.9641,261.5802,85.9641,257.5802,89.9641" style="stroke:#333333;stroke-width:1;"/><line style="stroke:#333333;stroke-width:1;" x1="83.8145" x2="83.8145" y1="273.3283" y2="308.3283"/><polygon fill="#333333" points="79.8145,298.3283,83.8145,308.3283,87.8145,298.3283,83.8145,302.3283" style="stroke:#333333;stroke-width:1;"/><line style="stroke:#333333;stroke-width:1;" x1="273.024" x2="273.024" y1="328.2739" y2="363.2739"/><polygon fill="#333333" points="269.024,353.2739,273.024,363.2739,277.024,353.2739,273.024,357.2739" style="stroke:#333333;stroke-width:1;"/><line style="stroke:#333333;stroke-width:1;" x1="473.602" x2="473.602" y1="368.2377" y2="403.2377"/><polygon fill="#333333" points="469.602,393.2377,473.602,403.2377,477.602,393.2377,473.602,397.2377" style="stroke:#333333;stroke-width:1;"/><line style="stroke:#333333;stroke-width:1;" x1="705.7336" x2="705.7336" y1="383.2196" y2="418.2196"/><polygon fill="#333333" points="701.7336,408.2196,705.7336,418.2196,709.7336,408.2196,705.7336,412.2196" style="stroke:#333333;stroke-width:1;"/><line style="stroke:#333333;stroke-width:1;" x1="483.602" x2="473.602" y1="278.3101" y2="278.3101"/><line style="stroke:#333333;stroke-width:1;" x1="473.602" x2="473.602" y1="278.3101" y2="303.292"/><polygon fill="#333333" points="469.602,293.292,473.602,303.292,477.602,293.292,473.602,297.292" style="stroke:#333333;stroke-width:1;"/><line style="stroke:#333333;stroke-width:1;" x1="695.7336" x2="705.7336" y1="278.3101" y2="278.3101"/><line style="stroke:#333333;stroke-width:1;" x1="705.7336" x2="705.7336" y1="278.3101" y2="303.292"/><polygon fill="#333333" points="701.7336,293.292,705.7336,303.292,709.7336,293.292,705.7336,297.292" style="stroke:#333333;stroke-width:1;"/><line style="stroke:#333333;stroke-width:1;" x1="333.662" x2="273.024" y1="238.3464" y2="238.3464"/><line style="stroke:#333333;stroke-width:1;" x1="273.024" x2="273.024" y1="238.3464" y2="263.3283"/><polygon fill="#333333" points="269.024,253.3283,273.024,263.3283,277.024,253.3283,273.024,257.3283" style="stroke:#333333;stroke-width:1;"/><line style="stroke:#333333;stroke-width:1;" x1="529.0298" x2="589.6678" y1="238.3464" y2="238.3464"/><line style="stroke:#333333;stroke-width:1;" x1="589.6678" x2="589.6678" y1="238.3464" y2="263.3283"/><polygon fill="#333333" points="585.6678,253.3283,589.6678,263.3283,593.6678,253.3283,589.6678,257.3283" style="stroke:#333333;stroke-width:1;"/><line style="stroke:#333333;stroke-width:1;" x1="166.2323" x2="83.8145" y1="198.3826" y2="198.3826"/><line style="stroke:#333333;stroke-width:1;" x1="83.8145" x2="83.8145" y1="198.3826" y2="223.3645"/><polygon fill="#333333" points="79.8145,213.3645,83.8145,223.3645,87.8145,213.3645,83.8145,217.3645" style="stroke:#333333;stroke-width:1;"/><line style="stroke:#333333;stroke-width:1;" x1="348.9281" x2="431.3459" y1="198.3826" y2="198.3826"/><line style="stroke:#333333;stroke-width:1;" x1="431.3459" x2="431.3459" y1="198.3826" y2="223.3645"/><polygon fill="#333333" points="427.3459,213.3645,431.3459,223.3645,435.3459,213.3645,431.3459,217.3645" style="stroke:#333333;stroke-width:1;"/><line style="stroke:#333333;stroke-width:1;" x1="257.5802" x2="257.5802" y1="160.9098" y2="183.4007"/><polygon fill="#333333" points="253.5802,173.4007,257.5802,183.4007,261.5802,173.4007,257.5802,177.4007" style="stroke:#333333;stroke-width:1;"/><g class="legend" data-source-line="40"><rect fill="none" height="109.3396" rx="7.5" ry="7.5" style="stroke:#000000;stroke-width:1;" width="281.8229" x="481.4758" y="442.2196"/><text fill="#000000" font-family="'sans-serif'" font-size="14" lengthAdjust="spacing" textLength="43.8338" x="490.1158" y="464.1855">Colour</text><text fill="#000000" font-family="'sans-serif'" font-size="14" lengthAdjust="spacing" textLength="96.0536" x="541.2296" y="464.1855">Outcome class</text><rect fill="#E8F5E9" height="19.0679" style="stroke:none;stroke-width:1;" width="51.1138" x="486.4758" y="468.2875"/><text fill="#000000" font-family="'sans-serif'" font-size="14" lengthAdjust="spacing" textLength="3.64" x="486.4758" y="483.2534">&#160;</text><text fill="#000000" font-family="'sans-serif'" font-size="14" lengthAdjust="spacing" textLength="119.7415" x="541.2296" y="483.2534">permitted_bug_fix</text><rect fill="#F3E5F5" height="19.0679" style="stroke:none;stroke-width:1;" width="51.1138" x="486.4758" y="487.3554"/><text fill="#000000" font-family="'sans-serif'" font-size="14" lengthAdjust="spacing" textLength="3.64" x="486.4758" y="502.3214">&#160;</text><text fill="#000000" font-family="'sans-serif'" font-size="14" lengthAdjust="spacing" textLength="134.8475" x="541.2296" y="502.3214">candidate_boundary</text><rect fill="#E3F2FD" height="19.0679" style="stroke:none;stroke-width:1;" width="51.1138" x="486.4758" y="506.4233"/><text fill="#000000" font-family="'sans-serif'" font-size="14" lengthAdjust="spacing" textLength="3.64" x="486.4758" y="521.3893">&#160;</text><text fill="#000000" font-family="'sans-serif'" font-size="14" lengthAdjust="spacing" textLength="56.4898" x="541.2296" y="521.3893">bisimilar</text><rect fill="#FFCDD2" height="19.0679" style="stroke:none;stroke-width:1;" width="51.1138" x="486.4758" y="525.4913"/><text fill="#000000" font-family="'sans-serif'" font-size="14" lengthAdjust="spacing" textLength="3.64" x="486.4758" y="540.4572">&#160;</text><text fill="#000000" font-family="'sans-serif'" font-size="14" lengthAdjust="spacing" textLength="213.4292" x="541.2296" y="540.4572">unexpected &#8212; halt &amp; investigate</text><line style="stroke:#000000;stroke-width:1;" x1="486.4758" x2="758.2987" y1="449.2196" y2="449.2196"/><line style="stroke:#000000;stroke-width:1;" x1="486.4758" x2="758.2987" y1="468.2875" y2="468.2875"/><line style="stroke:#000000;stroke-width:1;" x1="486.4758" x2="758.2987" y1="487.3554" y2="487.3554"/><line style="stroke:#000000;stroke-width:1;" x1="486.4758" x2="758.2987" y1="506.4233" y2="506.4233"/><line style="stroke:#000000;stroke-width:1;" x1="486.4758" x2="758.2987" y1="525.4913" y2="525.4913"/><line style="stroke:#000000;stroke-width:1;" x1="486.4758" x2="758.2987" y1="544.5592" y2="544.5592"/><line style="stroke:#000000;stroke-width:1;" x1="486.4758" x2="486.4758" y1="449.2196" y2="544.5592"/><line style="stroke:#000000;stroke-width:1;" x1="537.5896" x2="537.5896" y1="449.2196" y2="544.5592"/><line style="stroke:#000000;stroke-width:1;" x1="758.2987" x2="758.2987" y1="449.2196" y2="544.5592"/></g><?plantuml-src XLHjRjD04Fs_fnY8X5AfAVbGIYbGL1f78A5M4FuW8KKRxzXPiTwrTjU5eFxW5mT0d84JS0uEqPCmwpZ6JHnmfQIAvxrvy-RjtlDBp11onQLcp7sKEkUMPt0UUtaj_Ue5Zp-crXHQN1XbB5HFPre-RG1Z1TexnILWL3ujW8dacT5Ykr7ey2YA_W7OQjI9ZiU3Vdy_O6gqR-hg3Cx3NmjWk_A_W9ddjWNH6KQF9gDX2o3QydC3k3WUdWnF6e1But7F3gezHFqNmsr0-mxsk6Ij-THQkszn0R37ejAbyV7uejy6cCalkDjXqAmLcF12-L1zoRETwlkEQzTpQ6LolntLrcCmOCnBhn0cyXfjYZf6Y1LtJYOovbuQ3RTVVy3lNt3xxJlufKNkUvaHgDPbZ2aab00hqwLd03SGXYyi_NDL-DXa5H_SX9TFEz79T1mzFhk176qclKSnNnJfF96VDnNJKJIUZgaYvbf8mJtE5s75tAvgaj5qE9rGoK8wcKd5RGsUNamcGtfJQFoSOqpyvG1BhZmy0AclqNcP4YaXIFTQFPtla5F6JgyMPE4rWSHVFtx_OWlqdn0rl2sS1v85ivWhpiWTkYN0XNsGuuL_mZIbh3PZHaR4wEXTh0g1f-4ddYAH9mbQr5voDQzdeFJFIsiFgUxbAZV4xQG3IqtdTo2niNdXGbbkJUvf9F1MvWfx9Ha86zGVXG4X269C9j1zCpY5LoxiKgvra_6zO7p6jKo8v8Fk7Xqz5DGqrG_xZtktNtyUF3y8fHgwxwFP0JKyNM_psUx-M2pzBYUGPBjw0a_hrPyHY_CcPwWSGlVoAj2M-eORVJoO3BH09OdqWoO5nc96qs9CzvKiSxa9nRR2XiRT135XuY8ZJNUvw8ftX5bAdVOSnQPE_r4cIkrLACzA_b8zG5D_DS6edY1mUhIQgvxHQjN8qtEocUBcyH2KITqXPTCjeRoOgFqXIE4WEBypLcEmEZCiJ645S0Trtdbg4SEChAiDk3A342-vJl5WlOZryJchMAjnjWTgjFjxcDZByzVloXFGE4gicuLpiQ3Wu-RoeD859hGre3k0WhBkN1tFJUTmzAflcR3Dz_hp3m00?></g></svg>