<?plantuml 1.2026.2?><svg xmlns="http://www.w3.org/2000/svg" xmlns:xlink="http://www.w3.org/1999/xlink" contentStyleType="text/css" data-diagram-type="DESCRIPTION" height="1014px" preserveAspectRatio="none" style="width:1746px;height:1014px;background:#FFFFFF;" version="1.1" viewBox="0 0 1746 1014" width="1746px" zoomAndPan="magnify"><title>Slashing subsystem &#8212; component topology</title><defs/><g><g class="title" data-source-line="35"><text fill="#000000" font-family="'sans-serif'" font-size="22" font-weight="bold" lengthAdjust="spacing" textLength="478.1057" x="629.4772" y="38.5181">Slashing subsystem &#8212; component topology</text></g><!--cluster Detection layer--><g class="cluster" data-qualified-name="Detection layer" data-source-line="44" id="ent0002"><path d="M252.56,61.9641 L337.7754,61.9641 A3.75,3.75 0 0 1 340.2754,64.4641 L347.2754,82.946 L631.56,82.946 A2.5,2.5 0 0 1 634.06,85.446 L634.06,403.2941 A2.5,2.5 0 0 1 631.56,405.7941 L252.56,405.7941 A2.5,2.5 0 0 1 250.06,403.2941 L250.06,64.4641 A2.5,2.5 0 0 1 252.56,61.9641" fill="#FFF7EE" style="stroke:#444444;stroke-width:1;"/><line style="stroke:#444444;stroke-width:1;" x1="250.06" x2="347.2754" y1="82.946" y2="82.946"/><text fill="#000000" font-family="'sans-serif'" font-size="11" font-weight="bold" lengthAdjust="spacing" textLength="84.2154" x="254.06" y="75.723">Detection layer</text><text fill="#000000" font-family="'sans-serif'" font-size="11" font-style="italic" lengthAdjust="spacing" textLength="56.4956" x="417.8122" y="96.7049">&#171;Detection&#187;</text></g><!--cluster Storage layer--><g class="cluster" data-qualified-name="Storage layer" data-source-line="50" id="ent0006"><path d="M247.56,498.7941 L321.7865,498.7941 A3.75,3.75 0 0 1 324.2865,501.2941 L331.2865,519.776 L687.56,519.776 A2.5,2.5 0 0 1 690.06,522.276 L690.06,822.6741 A2.5,2.5 0 0 1 687.56,825.1741 L247.56,825.1741 A2.5,2.5 0 0 1 245.06,822.6741 L245.06,501.2941 A2.5,2.5 0 0 1 247.56,498.7941" fill="#EEFAF1" style="stroke:#444444;stroke-width:1;"/><line style="stroke:#444444;stroke-width:1;" x1="245.06" x2="331.2865" y1="519.776" y2="519.776"/><text fill="#000000" font-family="'sans-serif'" font-size="11" font-weight="bold" lengthAdjust="spacing" textLength="73.2265" x="249.06" y="512.553">Storage layer</text><text fill="#000000" font-family="'sans-serif'" font-size="11" font-style="italic" lengthAdjust="spacing" textLength="48.3776" x="447.3712" y="533.5349">&#171;Storage&#187;</text></g><!--cluster Proposing layer--><g class="cluster" data-qualified-name="Proposing layer" data-source-line="56" id="ent0010"><path d="M897.56,276.8541 L984.4144,276.8541 A3.75,3.75 0 0 1 986.9144,279.3541 L993.9144,297.836 L1108.56,297.836 A2.5,2.5 0 0 1 1111.06,300.336 L1111.06,815.1841 A2.5,2.5 0 0 1 1108.56,817.6841 L897.56,817.6841 A2.5,2.5 0 0 1 895.06,815.1841 L895.06,279.3541 A2.5,2.5 0 0 1 897.56,276.8541" fill="#EEF2FF" style="stroke:#444444;stroke-width:1;"/><line style="stroke:#444444;stroke-width:1;" x1="895.06" x2="993.9144" y1="297.836" y2="297.836"/><text fill="#000000" font-family="'sans-serif'" font-size="11" font-weight="bold" lengthAdjust="spacing" textLength="85.8544" x="899.06" y="290.613">Proposing layer</text><text fill="#000000" font-family="'sans-serif'" font-size="11" font-style="italic" lengthAdjust="spacing" textLength="60.1916" x="976.9642" y="311.5949">&#171;Proposing&#187;</text></g><!--cluster Effect layer--><g class="cluster" data-qualified-name="Effect layer" data-source-line="62" id="ent0014"><path d="M1137.56,688.7441 L1200.7426,688.7441 A3.75,3.75 0 0 1 1203.2426,691.2441 L1210.2426,709.726 L1520.56,709.726 A2.5,2.5 0 0 1 1523.06,712.226 L1523.06,1004.6241 A2.5,2.5 0 0 1 1520.56,1007.1241 L1137.56,1007.1241 A2.5,2.5 0 0 1 1135.06,1004.6241 L1135.06,691.2441 A2.5,2.5 0 0 1 1137.56,688.7441" fill="#F3E5F5" style="stroke:#444444;stroke-width:1;"/><line style="stroke:#444444;stroke-width:1;" x1="1135.06" x2="1210.2426" y1="709.726" y2="709.726"/><text fill="#000000" font-family="'sans-serif'" font-size="11" font-weight="bold" lengthAdjust="spacing" textLength="62.1826" x="1139.06" y="702.503">Effect layer</text><text fill="#000000" font-family="'sans-serif'" font-size="11" font-style="italic" lengthAdjust="spacing" textLength="37.2677" x="1314.4261" y="723.4849">&#171;Effect&#187;</text></g><!--cluster Fork-choice layer--><g class="cluster" data-qualified-name="Fork-choice layer" data-source-line="68" id="ent0018"><path d="M1549.56,688.7441 L1644.4553,688.7441 A3.75,3.75 0 0 1 1646.9553,691.2441 L1653.9553,709.726 L1736.56,709.726 A2.5,2.5 0 0 1 1739.06,712.226 L1739.06,815.1841 A2.5,2.5 0 0 1 1736.56,817.6841 L1549.56,817.6841 A2.5,2.5 0 0 1 1547.06,815.1841 L1547.06,691.2441 A2.5,2.5 0 0 1 1549.56,688.7441" fill="#E3F2FD" style="stroke:#444444;stroke-width:1;"/><line style="stroke:#444444;stroke-width:1;" x1="1547.06" x2="1653.9553" y1="709.726" y2="709.726"/><text fill="#000000" font-family="'sans-serif'" font-size="11" font-weight="bold" lengthAdjust="spacing" textLength="93.8953" x="1551.06" y="702.503">Fork-choice layer</text><text fill="#000000" font-family="'sans-serif'" font-size="11" font-style="italic" lengthAdjust="spacing" textLength="64.0855" x="1615.0172" y="723.4849">&#171;ForkChoice&#187;</text></g><!--entity Validate--><g class="entity" data-qualified-name="Detection layer.Validate" data-source-line="45" id="ent0003"><rect fill="#FFFFFF" height="64.9457" rx="2.5" ry="2.5" style="stroke:#333333;stroke-width:1;" width="160.5009" x="267.81" y="117.4541"/><text fill="#000000" font-family="'sans-serif'" font-size="11" font-style="italic" lengthAdjust="spacing" textLength="65.7355" x="315.1927" y="139.213">&#171;component&#187;</text><text fill="#000000" font-family="'sans-serif'" font-size="11" lengthAdjust="spacing" textLength="41.5577" x="277.81" y="154.1949">Validate</text><text fill="#000000" font-family="'sans-serif'" font-size="11" lengthAdjust="spacing" textLength="140.5009" x="277.81" y="169.1768">(17+ checks &#8594; InvalidBlock)</text></g><!--entity Detector--><g class="entity" data-qualified-name="Detection layer.Detector" data-source-line="46" id="ent0004"><rect fill="#FFFFFF" height="79.9276" rx="2.5" ry="2.5" style="stroke:#333333;stroke-width:1;" width="144.8821" x="463.61" y="109.9641"/><text fill="#000000" font-family="'sans-serif'" font-size="11" font-style="italic" lengthAdjust="spacing" textLength="65.7355" x="503.1833" y="131.723">&#171;component&#187;</text><text fill="#000000" font-family="'sans-serif'" font-size="11" lengthAdjust="spacing" textLength="111.3302" x="473.61" y="146.7049">EquivocationDetector</text><text fill="#000000" font-family="'sans-serif'" font-size="11" lengthAdjust="spacing" textLength="124.8821" x="473.61" y="161.6868">(admissible / ignorable /</text><text fill="#000000" font-family="'sans-serif'" font-size="11" lengthAdjust="spacing" textLength="54.3286" x="476.47" y="176.6687">neglected)</text></g><!--entity Casper--><g class="entity" data-qualified-name="Detection layer.Casper" data-source-line="47" id="ent0005"><rect fill="#FFFFFF" height="64.9457" rx="2.5" ry="2.5" style="stroke:#333333;stroke-width:1;" width="140.2841" x="265.91" y="324.8541"/><text fill="#000000" font-family="'sans-serif'" font-size="11" font-style="italic" lengthAdjust="spacing" textLength="65.7355" x="303.1843" y="346.613">&#171;component&#187;</text><text fill="#000000" font-family="'sans-serif'" font-size="11" lengthAdjust="spacing" textLength="120.2841" x="275.91" y="361.5949">MultiParentCasperImpl</text><text fill="#000000" font-family="'sans-serif'" font-size="11" lengthAdjust="spacing" textLength="71.2025" x="275.91" y="376.5768">(orchestrator)</text></g><!--entity DagStore--><g class="entity" data-qualified-name="Storage layer.DagStore" data-source-line="51" id="ent0007"><rect fill="#FFFFFF" height="64.9457" rx="2.5" ry="2.5" style="stroke:#333333;stroke-width:1;" width="122.6733" x="447.72" y="546.7941"/><text fill="#000000" font-family="'sans-serif'" font-size="11" font-style="italic" lengthAdjust="spacing" textLength="65.7355" x="476.1889" y="568.553">&#171;component&#187;</text><text fill="#000000" font-family="'sans-serif'" font-size="11" lengthAdjust="spacing" textLength="89.1104" x="457.72" y="583.5349">BlockDagStorage</text><text fill="#000000" font-family="'sans-serif'" font-size="11" lengthAdjust="spacing" textLength="102.6733" x="457.72" y="598.5168">(invalid-block index)</text></g><!--entity Tracker--><g class="entity" data-qualified-name="Storage layer.Tracker" data-source-line="52" id="ent0008"><rect fill="#FFFFFF" height="64.9457" rx="2.5" ry="2.5" style="stroke:#333333;stroke-width:1;" width="240.0193" x="261.05" y="736.7441"/><text fill="#000000" font-family="'sans-serif'" font-size="11" font-style="italic" lengthAdjust="spacing" textLength="65.7355" x="348.1919" y="758.503">&#171;component&#187;</text><text fill="#000000" font-family="'sans-serif'" font-size="11" lengthAdjust="spacing" textLength="132.6151" x="271.05" y="773.4849">EquivocationTrackerStore</text><text fill="#000000" font-family="'sans-serif'" font-size="11" lengthAdjust="spacing" textLength="220.0193" x="271.05" y="788.4668">(KV: (validator, seqNum) &#8594; Set[BlockHash])</text></g><!--entity DeployStore--><g class="entity" data-qualified-name="Storage layer.DeployStore" data-source-line="53" id="ent0009"><rect fill="#FFFFFF" height="79.9276" rx="2.5" ry="2.5" style="stroke:#333333;stroke-width:1;" width="138.0292" x="536.04" y="729.2541"/><text fill="#000000" font-family="'sans-serif'" font-size="11" font-style="italic" lengthAdjust="spacing" textLength="65.7355" x="572.1868" y="751.013">&#171;component&#187;</text><text fill="#000000" font-family="'sans-serif'" font-size="11" lengthAdjust="spacing" textLength="76.4494" x="546.04" y="765.9949">DeployStorage</text><text fill="#000000" font-family="'sans-serif'" font-size="11" lengthAdjust="spacing" textLength="116.7972" x="546.04" y="780.9768">(currently bypassed by</text><text fill="#000000" font-family="'sans-serif'" font-size="11" lengthAdjust="spacing" textLength="118.0292" x="546.04" y="795.9587">slash deploys &#8212; fix #8)</text></g><!--entity Creator--><g class="entity" data-qualified-name="Proposing layer.Creator" data-source-line="57" id="ent0011"><rect fill="#FFFFFF" height="64.9457" rx="2.5" ry="2.5" style="stroke:#333333;stroke-width:1;" width="160.414" x="910.85" y="324.8541"/><text fill="#000000" font-family="'sans-serif'" font-size="11" font-style="italic" lengthAdjust="spacing" textLength="65.7355" x="958.1892" y="346.613">&#171;component&#187;</text><text fill="#000000" font-family="'sans-serif'" font-size="11" lengthAdjust="spacing" textLength="66.8355" x="920.85" y="361.5949">BlockCreator</text><text fill="#000000" font-family="'sans-serif'" font-size="11" lengthAdjust="spacing" textLength="140.414" x="920.85" y="376.5768">(prepare_slashing_deploys)</text></g><!--entity SlashDep--><g class="entity" data-qualified-name="Proposing layer.SlashDep" data-source-line="58" id="ent0012"><rect fill="#FFFFFF" height="64.9457" rx="2.5" ry="2.5" style="stroke:#333333;stroke-width:1;" width="163.0869" x="931.51" y="546.7941"/><text fill="#000000" font-family="'sans-serif'" font-size="11" font-style="italic" lengthAdjust="spacing" textLength="65.7355" x="980.1857" y="568.553">&#171;component&#187;</text><text fill="#000000" font-family="'sans-serif'" font-size="11" lengthAdjust="spacing" textLength="63.2165" x="941.51" y="583.5349">SlashDeploy</text><text fill="#000000" font-family="'sans-serif'" font-size="11" lengthAdjust="spacing" textLength="143.0869" x="941.51" y="598.5168">(SystemDeployEnum::Slash)</text></g><!--entity SysDepUtil--><g class="entity" data-qualified-name="Proposing layer.SysDepUtil" data-source-line="59" id="ent0013"><rect fill="#FFFFFF" height="64.9457" rx="2.5" ry="2.5" style="stroke:#333333;stroke-width:1;" width="111.4093" x="911.35" y="736.7441"/><text fill="#000000" font-family="'sans-serif'" font-size="11" font-style="italic" lengthAdjust="spacing" textLength="65.7355" x="934.1869" y="758.503">&#171;component&#187;</text><text fill="#000000" font-family="'sans-serif'" font-size="11" lengthAdjust="spacing" textLength="91.1673" x="921.35" y="773.4849">SystemDeployUtil</text><text fill="#000000" font-family="'sans-serif'" font-size="11" lengthAdjust="spacing" textLength="91.4093" x="921.35" y="788.4668">(splitByte(1) seed)</text></g><!--entity PoS--><g class="entity" data-qualified-name="Effect layer.PoS" data-source-line="63" id="ent0015"><rect fill="#FFFFFF" height="64.9457" rx="2.5" ry="2.5" style="stroke:#333333;stroke-width:1;" width="130.6042" x="1150.75" y="736.7441"/><text fill="#000000" font-family="'sans-serif'" font-size="11" font-style="italic" lengthAdjust="spacing" textLength="45.9907" x="1193.0568" y="758.503">&#171;artifact&#187;</text><text fill="#000000" font-family="'sans-serif'" font-size="11" lengthAdjust="spacing" textLength="110.6042" x="1160.75" y="773.4849">PoS Rholang contract</text><text fill="#000000" font-family="'sans-serif'" font-size="11" lengthAdjust="spacing" textLength="103.4102" x="1160.75" y="788.4668">(@PoS!(\"slash\", &#8230;))</text></g><!--entity Bonds--><g class="entity" data-qualified-name="Effect layer.Bonds" data-source-line="64" id="ent0016"><path d="M1310.85,934.6741 C1310.85,924.6741 1397.0575,924.6741 1397.0575,924.6741 C1397.0575,924.6741 1483.2649,924.6741 1483.2649,934.6741 L1483.2649,973.6379 C1483.2649,983.6379 1397.0575,983.6379 1397.0575,983.6379 C1397.0575,983.6379 1310.85,983.6379 1310.85,973.6379 L1310.85,934.6741" fill="#FFFFFF" style="stroke:#000000;stroke-width:1;"/><path d="M1310.85,934.6741 C1310.85,944.6741 1397.0575,944.6741 1397.0575,944.6741 C1397.0575,944.6741 1483.2649,944.6741 1483.2649,934.6741" fill="none" style="stroke:#000000;stroke-width:1;"/><text fill="#000000" font-family="'sans-serif'" font-size="11" font-style="italic" lengthAdjust="spacing" textLength="45.9907" x="1374.0621" y="960.433">&#171;artifact&#187;</text><text fill="#000000" font-family="'sans-serif'" font-size="11" lengthAdjust="spacing" textLength="152.4149" x="1320.85" y="975.4149">Bond map / Validator registry</text></g><!--entity Vault--><g class="entity" data-qualified-name="Effect layer.Vault" data-source-line="65" id="ent0017"><path d="M1151.21,927.1741 C1151.21,917.1741 1202.0582,917.1741 1202.0582,917.1741 C1202.0582,917.1741 1252.9064,917.1741 1252.9064,927.1741 L1252.9064,981.1198 C1252.9064,991.1198 1202.0582,991.1198 1202.0582,991.1198 C1202.0582,991.1198 1151.21,991.1198 1151.21,981.1198 L1151.21,927.1741" fill="#FFFFFF" style="stroke:#000000;stroke-width:1;"/><path d="M1151.21,927.1741 C1151.21,937.1741 1202.0582,937.1741 1202.0582,937.1741 C1202.0582,937.1741 1252.9064,937.1741 1252.9064,927.1741" fill="none" style="stroke:#000000;stroke-width:1;"/><text fill="#000000" font-family="'sans-serif'" font-size="11" font-style="italic" lengthAdjust="spacing" textLength="45.9907" x="1179.0629" y="952.933">&#171;artifact&#187;</text><text fill="#000000" font-family="'sans-serif'" font-size="11" lengthAdjust="spacing" textLength="55.2526" x="1161.21" y="967.9149">Coop vault</text><text fill="#000000" font-family="'sans-serif'" font-size="11" lengthAdjust="spacing" textLength="81.6964" x="1161.21" y="982.8968">(forfeited stake)</text></g><!--entity FC--><g class="entity" data-qualified-name="Fork-choice layer.FC" data-source-line="69" id="ent0019"><rect fill="#FFFFFF" height="64.9457" rx="2.5" ry="2.5" style="stroke:#333333;stroke-width:1;" width="160.634" x="1562.74" y="736.7441"/><text fill="#000000" font-family="'sans-serif'" font-size="11" font-style="italic" lengthAdjust="spacing" textLength="65.7355" x="1610.1893" y="758.503">&#171;component&#187;</text><text fill="#000000" font-family="'sans-serif'" font-size="11" lengthAdjust="spacing" textLength="110.2742" x="1572.74" y="773.4849">ForkChoice estimator</text><text fill="#000000" font-family="'sans-serif'" font-size="11" lengthAdjust="spacing" textLength="140.634" x="1572.74" y="788.4668">(filters slashed latest-msgs)</text></g><g class="entity" data-qualified-name="RaceWindow" data-source-line="79" id="ent0024"><path d="M11,84.9941 L11,214.8492 L233.1116,214.8492 L233.1116,94.9941 L223.1116,84.9941 L11,84.9941" fill="#FFE0B2" style="stroke:#E65100;stroke-width:1;"/><path d="M223.1116,84.9941 L223.1116,94.9941 L233.1116,94.9941 L223.1116,84.9941" fill="#FFE0B2" style="stroke:#E65100;stroke-width:1;"/><text fill="#000000" font-family="'sans-serif'" font-size="11" lengthAdjust="spacing" textLength="173.6612" x="17" y="101.753">&#9888; Race window (Rust regression):</text><text fill="#000000" font-family="'sans-serif'" font-size="11" lengthAdjust="spacing" textLength="177.2527" x="17" y="116.7349">Casper.handle_invalid_block reads</text><text fill="#000000" font-family="'sans-serif'" font-size="11" lengthAdjust="spacing" textLength="188.0327" x="17" y="131.7168">Tracker, then writes without locking.</text><text fill="#000000" font-family="'sans-serif'" font-size="11" lengthAdjust="spacing" textLength="184.8097" x="17" y="146.6987">Two threads can race and overwrite</text><text fill="#000000" font-family="'sans-serif'" font-size="11" lengthAdjust="spacing" textLength="191.7946" x="17" y="161.6806">accumulated hashes with Set::empty.</text><text fill="#000000" font-family="'sans-serif'" font-size="11" lengthAdjust="spacing" textLength="149.8189" x="17" y="176.6625">Bug fix #2 (T-9.2) re-locks the</text><text fill="#000000" font-family="'sans-serif'" font-size="11" lengthAdjust="spacing" textLength="181.3007" x="17" y="191.6443">read-modify-write window through</text><text fill="#000000" font-family="'sans-serif'" font-size="11" lengthAdjust="spacing" textLength="201.1116" x="17" y="206.6262">Casper's access_equivocations_tracker.</text></g><!--link Validate to Casper--><g class="link" data-entity-1="ent0003" data-entity-2="ent0005" data-link-type="dependency" data-source-line="73" id="lnk20"><path d="M326.05,182.7841 C315.32,200.2641 303.56,222.8041 298.06,244.8541 C291.22,272.2241 299.9119,297.2249 312.0319,319.2949" fill="none" id="Validate-to-Casper" style="stroke:#E65100;stroke-width:1;"/><polygon fill="#E65100" points="314.92,324.5541,314.0939,314.7399,312.5132,320.1715,307.0817,318.5908,314.92,324.5541" style="stroke:#E65100;stroke-width:1;"/><text fill="#000000" font-family="'sans-serif'" font-size="11" lengthAdjust="spacing" textLength="106.7323" x="299.06" y="257.613">InvalidBlock variants</text></g><!--link Detector to Casper--><g class="link" data-entity-1="ent0004" data-entity-2="ent0005" data-link-type="dependency" data-source-line="74" id="lnk21"><path d="M497.97,190.0441 C460,229.0341 406.5859,283.8855 371.2959,320.1255" fill="none" id="Detector-to-Casper" style="stroke:#E65100;stroke-width:1;"/><polygon fill="#E65100" points="367.11,324.4241,376.2546,320.7668,370.5983,320.8419,370.5231,315.1856,367.11,324.4241" style="stroke:#E65100;stroke-width:1;"/><text fill="#000000" font-family="'sans-serif'" font-size="11" lengthAdjust="spacing" textLength="167.3418" x="443.05" y="257.613">Admissible/Ignorable/Neglected</text></g><!--link Casper to DagStore--><g class="link" data-entity-1="ent0005" data-entity-2="ent0007" data-link-type="dependency" data-source-line="75" id="lnk22"><path d="M324.32,390.1541 C316.25,418.1641 310.61,458.2141 333.06,482.7941 C346.3,497.2941 403.26,482.4941 421.06,490.7941 C447.41,503.0941 466.6641,522.0812 482.5441,541.6912" fill="none" id="Casper-to-DagStore" style="stroke:#E65100;stroke-width:1;"/><polygon fill="#E65100" points="486.32,546.3541,483.7647,536.8425,483.1734,542.4684,477.5475,541.8771,486.32,546.3541" style="stroke:#E65100;stroke-width:1;"/><text fill="#000000" font-family="'sans-serif'" font-size="11" lengthAdjust="spacing" textLength="131.0861" x="334.06" y="457.053">insert(block, invalid=true)</text></g><!--link Casper to Tracker--><g class="link" data-entity-1="ent0005" data-entity-2="ent0008" data-link-type="dependency" data-source-line="76" id="lnk23"><path d="M316,390.0541 C300.85,416.0141 281.3,454.2741 273.06,490.7941 C261.22,543.2341 257.06,560.4241 273.06,611.7441 C288.13,660.1141 319.9758,702.2479 346.2458,731.8279" fill="none" id="Casper-to-Tracker" style="stroke:#E65100;stroke-width:1;"/><polygon fill="#E65100" points="350.23,736.3141,347.2445,726.9286,346.9098,732.5756,341.2629,732.2409,350.23,736.3141" style="stroke:#E65100;stroke-width:1;"/><text fill="#000000" font-family="'sans-serif'" font-size="11" lengthAdjust="spacing" textLength="117.3031" x="293.3594" y="576.523">equivocation_records()</text><text fill="#000000" font-family="'sans-serif'" font-size="11" lengthAdjust="spacing" textLength="115.8622" x="314.0998" y="591.5049">insert/update_record()</text></g><!--link RaceWindow to Casper--><g class="link" data-entity-1="ent0024" data-entity-2="ent0005" data-link-type="association" data-source-line="88" id="lnk25"><path d="M189.18,215.3541 C227.06,251.7041 272.71,295.5241 302.96,324.5541" fill="none" id="RaceWindow-Casper" style="stroke:#000000;stroke-width:1;stroke-dasharray:7,7;"/></g><!--link RaceWindow to Tracker--><g class="link" data-entity-1="ent0024" data-entity-2="ent0008" data-link-type="association" data-source-line="89" id="lnk26"><path d="M128.82,215.1541 C142.35,319.1441 180.32,527.3841 278.06,672.7441 C294.31,696.9241 317.84,719.3341 338.3,736.3541" fill="none" id="RaceWindow-Tracker" style="stroke:#000000;stroke-width:1;stroke-dasharray:7,7;"/></g><!--link DagStore to Tracker--><g class="link" data-entity-1="ent0007" data-entity-2="ent0008" data-link-type="dependency" data-source-line="92" id="lnk27"><path d="M447.36,600.3041 C427.57,609.7741 407.56,623.1941 395.06,641.7441 C376.28,669.5841 374.4439,702.9692 376.3939,730.3592" fill="none" id="DagStore-to-Tracker" style="stroke:#546E7A;stroke-width:1;"/><polygon fill="#546E7A" points="376.82,736.3441,380.1708,727.0828,376.4649,731.3567,372.191,727.6509,376.82,736.3441" style="stroke:#546E7A;stroke-width:1;"/><text fill="#000000" font-family="'sans-serif'" font-size="11" lengthAdjust="spacing" textLength="119.8111" x="402.8415" y="654.503">delegates equivocation</text><text fill="#000000" font-family="'sans-serif'" font-size="11" lengthAdjust="spacing" textLength="96.1943" x="433.2398" y="669.4849">record persistence</text></g><!--link DagStore to DeployStore--><g class="link" data-entity-1="ent0007" data-entity-2="ent0009" data-link-type="dependency" data-source-line="93" id="lnk28"><path d="M523.7,612.1441 C532.06,630.0741 542.88,652.7841 553.06,672.7441 C562.57,691.4041 570.7144,706.5791 580.1644,723.7291" fill="none" id="DagStore-to-DeployStore" style="stroke:#546E7A;stroke-width:1;"/><polygon fill="#546E7A" points="583.06,728.9841,582.2199,719.1711,580.647,724.6049,575.2132,723.032,583.06,728.9841" style="stroke:#546E7A;stroke-width:1;"/><text fill="#000000" font-family="'sans-serif'" font-size="11" lengthAdjust="spacing" textLength="163.0849" x="554.06" y="654.503">(slash deploys NOT persisted &#8212;</text><text fill="#000000" font-family="'sans-serif'" font-size="11" lengthAdjust="spacing" textLength="65.8565" x="622.6941" y="669.4849">fix #8 ; T-9.8)</text></g><!--link Creator to DagStore--><g class="link" data-entity-1="ent0011" data-entity-2="ent0007" data-link-type="dependency" data-source-line="96" id="lnk29"><path d="M910.52,373.0041 C838.34,385.6341 729.46,403.4241 634.06,413.7941 C619.89,415.3341 515.81,411.4141 506.06,421.7941 C475.08,454.7641 483.8589,505.324 495.0389,540.634" fill="none" id="Creator-to-DagStore" style="stroke:#1565C0;stroke-width:1;"/><polygon fill="#1565C0" points="496.85,546.3541,497.9467,536.5665,495.3407,541.5873,490.3199,538.9813,496.85,546.3541" style="stroke:#1565C0;stroke-width:1;"/><text fill="#000000" font-family="'sans-serif'" font-size="11" lengthAdjust="spacing" textLength="123.5621" x="550.3172" y="434.553">authorized invalid-block</text><text fill="#000000" font-family="'sans-serif'" font-size="11" lengthAdjust="spacing" textLength="77.1644" x="592.106" y="449.5349">evidence index</text><text fill="#000000" font-family="'sans-serif'" font-size="11" lengthAdjust="spacing" textLength="167.1328" x="547.1218" y="464.5168">(&#167;15.3; Bug #14 / T-LivenessGap;</text><text fill="#000000" font-family="'sans-serif'" font-size="11" lengthAdjust="spacing" textLength="172.8968" x="544.2398" y="479.4987">replaces invalid_latest_messages)</text></g><!--link Creator to SlashDep--><g class="link" data-entity-1="ent0011" data-entity-2="ent0012" data-link-type="dependency" data-source-line="97" id="lnk30"><path d="M994.21,389.8341 C998.38,431.5241 1005.0935,498.6438 1009.2735,540.4838" fill="none" id="Creator-to-SlashDep" style="stroke:#00838F;stroke-width:1;"/><polygon fill="#00838F" points="1009.87,546.4541,1012.9555,537.101,1009.373,541.4789,1004.9951,537.8963,1009.87,546.4541" style="stroke:#00838F;stroke-width:1;"/><text fill="#000000" font-family="'sans-serif'" font-size="11" lengthAdjust="spacing" textLength="140.337" x="1004.37" y="457.053">1 SlashDeploy per offender</text></g><!--link SlashDep to SysDepUtil--><g class="link" data-entity-1="ent0012" data-entity-2="ent0013" data-link-type="dependency" data-source-line="98" id="lnk31"><path d="M995.11,612.0041 C990.52,621.3341 986.04,631.7241 983.06,641.7441 C973.69,673.1341 970.1817,704.5056 968.5717,730.4456" fill="none" id="SlashDep-to-SysDepUtil" style="stroke:#546E7A;stroke-width:1;"/><polygon fill="#546E7A" points="968.2,736.4341,972.7498,727.6992,968.5097,731.4437,964.7652,727.2036,968.2,736.4341" style="stroke:#546E7A;stroke-width:1;"/><text fill="#000000" font-family="'sans-serif'" font-size="11" lengthAdjust="spacing" textLength="147.4429" x="984.06" y="662.003">generate slash random seed</text></g><!--link Creator to DeployStore--><g class="link" data-entity-1="ent0011" data-entity-2="ent0009" data-link-type="dependency" data-source-line="99" id="lnk32"><path d="M910.47,385.5841 C860.34,406.6441 798.65,440.7441 762.06,490.7941 C713.19,557.6341 765.43,602.2141 722.06,672.7441 C708.66,694.5141 693.2597,709.9009 673.4297,725.1209" fill="none" id="Creator-to-DeployStore" style="stroke:#546E7A;stroke-width:1;stroke-dasharray:7,7;"/><polygon fill="#546E7A" points="668.67,728.7741,678.2449,726.4675,672.6364,725.7298,673.3741,720.1213,668.67,728.7741" style="stroke:#546E7A;stroke-width:1;"/><text fill="#000000" font-family="'sans-serif'" font-size="11" lengthAdjust="spacing" textLength="150.765" x="763.06" y="584.023">(TODO: persist slash deploys)</text></g><!--link SlashDep to PoS--><g class="link" data-entity-1="ent0012" data-entity-2="ent0015" data-link-type="dependency" data-source-line="102" id="lnk33"><path d="M1092.9,612.1941 C1108.21,620.4441 1123.4,630.2941 1136.06,641.7441 C1165.64,668.4941 1185.8819,703.2403 1199.4519,731.0903" fill="none" id="SlashDep-to-PoS" style="stroke:#6A1B9A;stroke-width:1;"/><polygon fill="#6A1B9A" points="1202.08,736.4841,1201.7336,726.6413,1199.8899,731.9893,1194.5419,730.1455,1202.08,736.4841" style="stroke:#6A1B9A;stroke-width:1;"/><text fill="#000000" font-family="'sans-serif'" font-size="11" lengthAdjust="spacing" textLength="139.171" x="1164.32" y="662.003">@PoS!("slash", offender, &#8230;)</text></g><!--link PoS to Bonds--><g class="link" data-entity-1="ent0015" data-entity-2="ent0016" data-link-type="dependency" data-source-line="103" id="lnk34"><path d="M1261.84,802.0841 C1277.19,813.6541 1293.98,827.3041 1308.06,841.1741 C1334.41,867.1541 1356.7254,895.954 1373.7154,919.564" fill="none" id="PoS-to-Bonds" style="stroke:#E65100;stroke-width:1;"/><polygon fill="#E65100" points="1377.22,924.4341,1375.2099,914.7926,1374.2995,920.3757,1368.7164,919.4653,1377.22,924.4341" style="stroke:#E65100;stroke-width:1;"/><text fill="#000000" font-family="'sans-serif'" font-size="11" lengthAdjust="spacing" textLength="158.7399" x="1348.25" y="868.933">zero bond, remove from active</text></g><!--link PoS to Vault--><g class="link" data-entity-1="ent0015" data-entity-2="ent0017" data-link-type="dependency" data-source-line="104" id="lnk35"><path d="M1197.67,802.0241 C1191.78,813.9041 1186.02,827.7841 1183.06,841.1741 C1177.5,866.3041 1180.9038,889.1444 1187.1838,911.1544" fill="none" id="PoS-to-Vault" style="stroke:#E65100;stroke-width:1;"/><polygon fill="#E65100" points="1188.83,916.9241,1190.2071,907.172,1187.4581,912.116,1182.5141,909.367,1188.83,916.9241" style="stroke:#E65100;stroke-width:1;"/><text fill="#000000" font-family="'sans-serif'" font-size="11" lengthAdjust="spacing" textLength="119.2392" x="1184.06" y="868.933">transfer forfeited stake</text></g><!--link FC to Bonds--><g class="link" data-entity-1="ent0019" data-entity-2="ent0016" data-link-type="dependency" data-source-line="110" id="lnk36"><path d="M1612.46,801.9441 C1587.57,826.7941 1550.82,861.3741 1515.06,887.1741 C1496.31,900.7041 1479.7903,910.7264 1460.0703,921.4564" fill="none" id="FC-to-Bonds" style="stroke:#1565C0;stroke-width:1;"/><polygon fill="#1565C0" points="1454.8,924.3241,1464.6173,923.5361,1459.1919,921.9344,1460.7937,916.509,1454.8,924.3241" style="stroke:#1565C0;stroke-width:1;"/><text fill="#000000" font-family="'sans-serif'" font-size="11" lengthAdjust="spacing" textLength="139.49" x="1571.26" y="853.933">reads bonds_map on every</text><text fill="#000000" font-family="'sans-serif'" font-size="11" lengthAdjust="spacing" textLength="127.1261" x="1577.4419" y="868.9149">fork-choice round; filters</text><text fill="#000000" font-family="'sans-serif'" font-size="11" lengthAdjust="spacing" textLength="134.21" x="1573.9" y="883.8968">validators where bond = 0</text></g><?plantuml-src ZLVBSjis5DtpAsxbHQJMaYKxpaEnC_L3QZDjaqpifeiweu59ICAO15W0TAfsEjDLFw3JLLTTjV_HJycNz00WHL9Mad968ucyEBWld7FvYLtoZ5EUCY6ZoDm8cJFDCefLbYl9fRsmgvIJvh5bSf7oXadEuXksuFHpH7IAtmkj2fcSgLJfewDpRh54AFdqARbhPpgTFfnCjfbUMAM1Knh2T3APdan7sqnVQfKh8-IYGeNf_dIwpNGodyE1DIWSE9WSJW-tcKwLlZbRAX6NFknC3e1wxaoLJhZsPhHptr_HBzkoj2q9FkPfyAw1utSuy5SBIohBtmSp6PxkRuEPF3WS3OSjc8JFMP7QgPBsEKDbEuP9qpTSYtbdkzc5-8dJQ1H5LbYK-Y9bPeaKaockpSfOdj6xN_zeX6fHWrGjLb5qZoO96Y3s3gLymML2tLX98x0CbYpMoXXA15jWJqF3_LqQ7k1p7vz3V1wJuJyKNCPyRTGR0vReEYqulhexeyC7XsV37XsZ1rb2iDOhwgPAtHIvsIKZMMwMofgUNuPEal2eMsR6BKkgJgHRhXCHMzfpxOnKKWn8_sIFZ8kQk6yQZvGNEayTqeEJqUdZ4uVqQgbIm3jhdvT-mlDKhKZ8MnLx8B_ISfPwruV3HmUFfcwba9RhVft2Z1k3blVcY7hbpG_lFvWyF5cRIw0a75aDo55rt3hheqKfMt7TeVPfSorKxzHvpLAHCCklP7Vqy3EAbpo-CVJkjz_fcRnrpqvJ5T_qEjIyZexM241aXYgKDlRaXq9KeGSNbCO-BCc4CU8QwTiZiP0eYlzz9KboS4XiUTBhtDsaWcXlyWtQLBna6d_EcCcvVfRbANPH6h4OgnbMVCpzi13dfCvYoJfr3ciQsiYWJz0vMvG6s5g4pFMltHDKA-4_jZsu6rfO_e7yNMfunhMtmXPVlHvJzpPaNUbTTqwU5rdF5-w2s--zKr-YPzziosG9rjxjt7Th7KLSQ9VKT4NNgvmPmnFyk9BX98JMDlxepyMFjFDeUyKgIDvAxfgdw_GsgNjRWi_SMVJjasiEZk8pKnBHhFIbcUAx5GxBsy2UoeAFmBtmXpRydSWY6u_zyuzKhiBOG6vWVMk5wqUJfyAUhYplZdeebs_n3oEl303SwbRkWd3LYLiBsKRMNggBDIE1St4GOWitFiVzJxfN7P-zgyukAlXtR-tAqH7JLinPK4Ou0Ml0eidODJDWtCwf0ebdBCVHVLsr7_Xo0KhNgtP4z3vGXs7Qi6TAvNJh90S-pfMUSm4M86FP3U_zJzZNRdahLqwv-x6NxZfXBJdVI5hzZC0T8YjRRYvICAu9AW2tKb2TiVtCBCosjf-UEI_kqV7nCTLipA65njsBAhPqKVI_BxNeJVzfoKDbVECM0oCvMZ1fJLJHuCTMdwnfTkzPHR9xpok2ZPhMBPYAYqeO8J4SsAxdibqggUtOweBttezH4apb2cyGsIo8g-dsmFUjA-oqL-GkDwLPjnT5Vl91Mb-nc7y7DbLlKRHtV_xbRz1RVuUwhmfZNIDgQ2UsmPn0PKO6IoQJbCzAtsU1bjsuu9gmT7MNCEbAUglHTmQWTgaAd39OWc86pkwjWebVHJ6JfDtc02Q5kS4lWn6Buo8hN7iaj7Iz4g0S9O_7FCljoa6T5ej0cllKlUm_7kptu4tVxMMS5x1ms_GpbOZvgk-ngp3XWIeMotLizupR4o7FcZasCnkY6aHkvd89ZEhiqM1GALxxPYKBPUjM4bWtRjqQg7QOHzvWhMnNV5pD9LZLz6gZtkMG1JV2F1Zp3-4tf0GRTDigzFp5vHedSPgqsLf1ekW9kNG_wbKHrZfKnrWgHTNJORxSSYvOWHRHc8qJQkdznjRyLYH-WFLZmCR3xh__Z0u71qzyH-oCxeDKB_jVYrikKT4lMFxaJihm8ePgLplE0X7DodaHG-w6zs74TDvNEbLwFwA6-BdSaOAEm4KTDIthCZY8jI1v28ppN3iM2xN0P9sep2lRfXS1OZVnvFbcevYkcfSlpb-CgmfIgxRhMfMwLnTgmyymXpjqftphQqn1yOBWGU-gE8FoHKtZ5eLvaQfHVk9QqJNkxQ8A6SuypJN2XVgWNEz7yPfKe-1OIZD7jZSahWgoALWkKX_eFJeNkXGHuTJ5Jtd1lowZJ_CYJJ_jZHrrrAeL-CrxR6PEh_tR1xzrhqVpnYx-HTBpM2Lowwcov2u7WPUEuS0dDb7S00YKWbSWb8bLeeXtIEjkYxa8ntqGmTDcLkgZj97Rkwu6Hw_a7K-VL6vUoQQVIuvEgXoD_WC0?></g></svg>