<?plantuml 1.2026.2?><svg xmlns="http://www.w3.org/2000/svg" xmlns:xlink="http://www.w3.org/1999/xlink" contentStyleType="text/css" data-diagram-type="DESCRIPTION" height="969px" preserveAspectRatio="none" style="width:1841px;height:969px;background:#FFFFFF;" version="1.1" viewBox="0 0 1841 969" width="1841px" zoomAndPan="magnify"><title>Slashing subsystem &#8212; component topology</title><defs/><g><g class="title" data-source-line="35"><text fill="#000000" font-family="'sans-serif'" font-size="22" font-weight="bold" lengthAdjust="spacing" textLength="478.1057" x="676.9772" y="38.5181">Slashing subsystem &#8212; component topology</text></g><!--cluster Detection layer--><g class="cluster" data-qualified-name="Detection layer" data-source-line="44" id="ent0002"><path d="M252.56,61.9641 L337.7754,61.9641 A3.75,3.75 0 0 1 340.2754,64.4641 L347.2754,82.946 L631.56,82.946 A2.5,2.5 0 0 1 634.06,85.446 L634.06,403.2941 A2.5,2.5 0 0 1 631.56,405.7941 L252.56,405.7941 A2.5,2.5 0 0 1 250.06,403.2941 L250.06,64.4641 A2.5,2.5 0 0 1 252.56,61.9641" fill="#FFF7EE" style="stroke:#444444;stroke-width:1;"/><line style="stroke:#444444;stroke-width:1;" x1="250.06" x2="347.2754" y1="82.946" y2="82.946"/><text fill="#000000" font-family="'sans-serif'" font-size="11" font-weight="bold" lengthAdjust="spacing" textLength="84.2154" x="254.06" y="75.723">Detection layer</text><text fill="#000000" font-family="'sans-serif'" font-size="11" font-style="italic" lengthAdjust="spacing" textLength="56.4956" x="417.8122" y="96.7049">&#171;Detection&#187;</text></g><!--cluster Storage layer--><g class="cluster" data-qualified-name="Storage layer" data-source-line="50" id="ent0006"><path d="M207.56,453.7941 L281.7865,453.7941 A3.75,3.75 0 0 1 284.2865,456.2941 L291.2865,474.776 L647.56,474.776 A2.5,2.5 0 0 1 650.06,477.276 L650.06,777.6741 A2.5,2.5 0 0 1 647.56,780.1741 L207.56,780.1741 A2.5,2.5 0 0 1 205.06,777.6741 L205.06,456.2941 A2.5,2.5 0 0 1 207.56,453.7941" fill="#EEFAF1" style="stroke:#444444;stroke-width:1;"/><line style="stroke:#444444;stroke-width:1;" x1="205.06" x2="291.2865" y1="474.776" y2="474.776"/><text fill="#000000" font-family="'sans-serif'" font-size="11" font-weight="bold" lengthAdjust="spacing" textLength="73.2265" x="209.06" y="467.553">Storage layer</text><text fill="#000000" font-family="'sans-serif'" font-size="11" font-style="italic" lengthAdjust="spacing" textLength="48.3776" x="407.3712" y="488.5349">&#171;Storage&#187;</text></g><!--cluster Proposing layer--><g class="cluster" data-qualified-name="Proposing layer" data-source-line="56" id="ent0010"><path d="M992.56,276.8541 L1079.4144,276.8541 A3.75,3.75 0 0 1 1081.9144,279.3541 L1088.9144,297.836 L1203.56,297.836 A2.5,2.5 0 0 1 1206.06,300.336 L1206.06,770.1841 A2.5,2.5 0 0 1 1203.56,772.6841 L992.56,772.6841 A2.5,2.5 0 0 1 990.06,770.1841 L990.06,279.3541 A2.5,2.5 0 0 1 992.56,276.8541" fill="#EEF2FF" style="stroke:#444444;stroke-width:1;"/><line style="stroke:#444444;stroke-width:1;" x1="990.06" x2="1088.9144" y1="297.836" y2="297.836"/><text fill="#000000" font-family="'sans-serif'" font-size="11" font-weight="bold" lengthAdjust="spacing" textLength="85.8544" x="994.06" y="290.613">Proposing layer</text><text fill="#000000" font-family="'sans-serif'" font-size="11" font-style="italic" lengthAdjust="spacing" textLength="60.1916" x="1071.9642" y="311.5949">&#171;Proposing&#187;</text></g><!--cluster Effect layer--><g class="cluster" data-qualified-name="Effect layer" data-source-line="62" id="ent0014"><path d="M1232.56,643.7441 L1295.7426,643.7441 A3.75,3.75 0 0 1 1298.2426,646.2441 L1305.2426,664.726 L1615.56,664.726 A2.5,2.5 0 0 1 1618.06,667.226 L1618.06,959.6241 A2.5,2.5 0 0 1 1615.56,962.1241 L1232.56,962.1241 A2.5,2.5 0 0 1 1230.06,959.6241 L1230.06,646.2441 A2.5,2.5 0 0 1 1232.56,643.7441" fill="#F3E5F5" style="stroke:#444444;stroke-width:1;"/><line style="stroke:#444444;stroke-width:1;" x1="1230.06" x2="1305.2426" y1="664.726" y2="664.726"/><text fill="#000000" font-family="'sans-serif'" font-size="11" font-weight="bold" lengthAdjust="spacing" textLength="62.1826" x="1234.06" y="657.503">Effect layer</text><text fill="#000000" font-family="'sans-serif'" font-size="11" font-style="italic" lengthAdjust="spacing" textLength="37.2677" x="1409.4261" y="678.4849">&#171;Effect&#187;</text></g><!--cluster Fork-choice layer--><g class="cluster" data-qualified-name="Fork-choice layer" data-source-line="68" id="ent0018"><path d="M1644.56,643.7441 L1739.4553,643.7441 A3.75,3.75 0 0 1 1741.9553,646.2441 L1748.9553,664.726 L1831.56,664.726 A2.5,2.5 0 0 1 1834.06,667.226 L1834.06,770.1841 A2.5,2.5 0 0 1 1831.56,772.6841 L1644.56,772.6841 A2.5,2.5 0 0 1 1642.06,770.1841 L1642.06,646.2441 A2.5,2.5 0 0 1 1644.56,643.7441" fill="#E3F2FD" style="stroke:#444444;stroke-width:1;"/><line style="stroke:#444444;stroke-width:1;" x1="1642.06" x2="1748.9553" y1="664.726" y2="664.726"/><text fill="#000000" font-family="'sans-serif'" font-size="11" font-weight="bold" lengthAdjust="spacing" textLength="93.8953" x="1646.06" y="657.503">Fork-choice layer</text><text fill="#000000" font-family="'sans-serif'" font-size="11" font-style="italic" lengthAdjust="spacing" textLength="64.0855" x="1710.0172" y="678.4849">&#171;ForkChoice&#187;</text></g><!--entity Validate--><g class="entity" data-qualified-name="Detection layer.Validate" data-source-line="45" id="ent0003"><rect fill="#FFFFFF" height="64.9457" rx="2.5" ry="2.5" style="stroke:#333333;stroke-width:1;" width="160.5009" x="267.81" y="117.4541"/><text fill="#000000" font-family="'sans-serif'" font-size="11" font-style="italic" lengthAdjust="spacing" textLength="65.7355" x="315.1927" y="139.213">&#171;component&#187;</text><text fill="#000000" font-family="'sans-serif'" font-size="11" lengthAdjust="spacing" textLength="41.5577" x="277.81" y="154.1949">Validate</text><text fill="#000000" font-family="'sans-serif'" font-size="11" lengthAdjust="spacing" textLength="140.5009" x="277.81" y="169.1768">(17+ checks &#8594; InvalidBlock)</text></g><!--entity Detector--><g class="entity" data-qualified-name="Detection layer.Detector" data-source-line="46" id="ent0004"><rect fill="#FFFFFF" height="79.9276" rx="2.5" ry="2.5" style="stroke:#333333;stroke-width:1;" width="144.8821" x="463.61" y="109.9641"/><text fill="#000000" font-family="'sans-serif'" font-size="11" font-style="italic" lengthAdjust="spacing" textLength="65.7355" x="503.1833" y="131.723">&#171;component&#187;</text><text fill="#000000" font-family="'sans-serif'" font-size="11" lengthAdjust="spacing" textLength="111.3302" x="473.61" y="146.7049">EquivocationDetector</text><text fill="#000000" font-family="'sans-serif'" font-size="11" lengthAdjust="spacing" textLength="124.8821" x="473.61" y="161.6868">(admissible / ignorable /</text><text fill="#000000" font-family="'sans-serif'" font-size="11" lengthAdjust="spacing" textLength="54.3286" x="476.47" y="176.6687">neglected)</text></g><!--entity Casper--><g class="entity" data-qualified-name="Detection layer.Casper" data-source-line="47" id="ent0005"><rect fill="#FFFFFF" height="64.9457" rx="2.5" ry="2.5" style="stroke:#333333;stroke-width:1;" width="140.2841" x="265.91" y="324.8541"/><text fill="#000000" font-family="'sans-serif'" font-size="11" font-style="italic" lengthAdjust="spacing" textLength="65.7355" x="303.1843" y="346.613">&#171;component&#187;</text><text fill="#000000" font-family="'sans-serif'" font-size="11" lengthAdjust="spacing" textLength="120.2841" x="275.91" y="361.5949">MultiParentCasperImpl</text><text fill="#000000" font-family="'sans-serif'" font-size="11" lengthAdjust="spacing" textLength="71.2025" x="275.91" y="376.5768">(orchestrator)</text></g><!--entity DagStore--><g class="entity" data-qualified-name="Storage layer.DagStore" data-source-line="51" id="ent0007"><rect fill="#FFFFFF" height="64.9457" rx="2.5" ry="2.5" style="stroke:#333333;stroke-width:1;" width="122.6733" x="417.72" y="501.7941"/><text fill="#000000" font-family="'sans-serif'" font-size="11" font-style="italic" lengthAdjust="spacing" textLength="65.7355" x="446.1889" y="523.553">&#171;component&#187;</text><text fill="#000000" font-family="'sans-serif'" font-size="11" lengthAdjust="spacing" textLength="89.1104" x="427.72" y="538.5349">BlockDagStorage</text><text fill="#000000" font-family="'sans-serif'" font-size="11" lengthAdjust="spacing" textLength="102.6733" x="427.72" y="553.5168">(invalid-block index)</text></g><!--entity Tracker--><g class="entity" data-qualified-name="Storage layer.Tracker" data-source-line="52" id="ent0008"><rect fill="#FFFFFF" height="64.9457" rx="2.5" ry="2.5" style="stroke:#333333;stroke-width:1;" width="240.0193" x="221.05" y="691.7441"/><text fill="#000000" font-family="'sans-serif'" font-size="11" font-style="italic" lengthAdjust="spacing" textLength="65.7355" x="308.1919" y="713.503">&#171;component&#187;</text><text fill="#000000" font-family="'sans-serif'" font-size="11" lengthAdjust="spacing" textLength="132.6151" x="231.05" y="728.4849">EquivocationTrackerStore</text><text fill="#000000" font-family="'sans-serif'" font-size="11" lengthAdjust="spacing" textLength="220.0193" x="231.05" y="743.4668">(KV: (validator, seqNum) &#8594; Set[BlockHash])</text></g><!--entity DeployStore--><g class="entity" data-qualified-name="Storage layer.DeployStore" data-source-line="53" id="ent0009"><rect fill="#FFFFFF" height="79.9276" rx="2.5" ry="2.5" style="stroke:#333333;stroke-width:1;" width="138.0292" x="496.04" y="684.2541"/><text fill="#000000" font-family="'sans-serif'" font-size="11" font-style="italic" lengthAdjust="spacing" textLength="65.7355" x="532.1868" y="706.013">&#171;component&#187;</text><text fill="#000000" font-family="'sans-serif'" font-size="11" lengthAdjust="spacing" textLength="76.4494" x="506.04" y="720.9949">DeployStorage</text><text fill="#000000" font-family="'sans-serif'" font-size="11" lengthAdjust="spacing" textLength="116.7972" x="506.04" y="735.9768">(currently bypassed by</text><text fill="#000000" font-family="'sans-serif'" font-size="11" lengthAdjust="spacing" textLength="118.0292" x="506.04" y="750.9587">slash deploys &#8212; fix #8)</text></g><!--entity Creator--><g class="entity" data-qualified-name="Proposing layer.Creator" data-source-line="57" id="ent0011"><rect fill="#FFFFFF" height="64.9457" rx="2.5" ry="2.5" style="stroke:#333333;stroke-width:1;" width="160.414" x="1005.85" y="324.8541"/><text fill="#000000" font-family="'sans-serif'" font-size="11" font-style="italic" lengthAdjust="spacing" textLength="65.7355" x="1053.1892" y="346.613">&#171;component&#187;</text><text fill="#000000" font-family="'sans-serif'" font-size="11" lengthAdjust="spacing" textLength="66.8355" x="1015.85" y="361.5949">BlockCreator</text><text fill="#000000" font-family="'sans-serif'" font-size="11" lengthAdjust="spacing" textLength="140.414" x="1015.85" y="376.5768">(prepare_slashing_deploys)</text></g><!--entity SlashDep--><g class="entity" data-qualified-name="Proposing layer.SlashDep" data-source-line="58" id="ent0012"><rect fill="#FFFFFF" height="64.9457" rx="2.5" ry="2.5" style="stroke:#333333;stroke-width:1;" width="163.0869" x="1026.51" y="501.7941"/><text fill="#000000" font-family="'sans-serif'" font-size="11" font-style="italic" lengthAdjust="spacing" textLength="65.7355" x="1075.1857" y="523.553">&#171;component&#187;</text><text fill="#000000" font-family="'sans-serif'" font-size="11" lengthAdjust="spacing" textLength="63.2165" x="1036.51" y="538.5349">SlashDeploy</text><text fill="#000000" font-family="'sans-serif'" font-size="11" lengthAdjust="spacing" textLength="143.0869" x="1036.51" y="553.5168">(SystemDeployEnum::Slash)</text></g><!--entity SysDepUtil--><g class="entity" data-qualified-name="Proposing layer.SysDepUtil" data-source-line="59" id="ent0013"><rect fill="#FFFFFF" height="64.9457" rx="2.5" ry="2.5" style="stroke:#333333;stroke-width:1;" width="111.4093" x="1006.35" y="691.7441"/><text fill="#000000" font-family="'sans-serif'" font-size="11" font-style="italic" lengthAdjust="spacing" textLength="65.7355" x="1029.1869" y="713.503">&#171;component&#187;</text><text fill="#000000" font-family="'sans-serif'" font-size="11" lengthAdjust="spacing" textLength="91.1673" x="1016.35" y="728.4849">SystemDeployUtil</text><text fill="#000000" font-family="'sans-serif'" font-size="11" lengthAdjust="spacing" textLength="91.4093" x="1016.35" y="743.4668">(splitByte(1) seed)</text></g><!--entity PoS--><g class="entity" data-qualified-name="Effect layer.PoS" data-source-line="63" id="ent0015"><rect fill="#FFFFFF" height="64.9457" rx="2.5" ry="2.5" style="stroke:#333333;stroke-width:1;" width="130.6042" x="1245.75" y="691.7441"/><text fill="#000000" font-family="'sans-serif'" font-size="11" font-style="italic" lengthAdjust="spacing" textLength="45.9907" x="1288.0568" y="713.503">&#171;artifact&#187;</text><text fill="#000000" font-family="'sans-serif'" font-size="11" lengthAdjust="spacing" textLength="110.6042" x="1255.75" y="728.4849">PoS Rholang contract</text><text fill="#000000" font-family="'sans-serif'" font-size="11" lengthAdjust="spacing" textLength="103.4102" x="1255.75" y="743.4668">(@PoS!(\"slash\", &#8230;))</text></g><!--entity Bonds--><g class="entity" data-qualified-name="Effect layer.Bonds" data-source-line="64" id="ent0016"><path d="M1405.85,889.6741 C1405.85,879.6741 1492.0575,879.6741 1492.0575,879.6741 C1492.0575,879.6741 1578.2649,879.6741 1578.2649,889.6741 L1578.2649,928.6379 C1578.2649,938.6379 1492.0575,938.6379 1492.0575,938.6379 C1492.0575,938.6379 1405.85,938.6379 1405.85,928.6379 L1405.85,889.6741" fill="#FFFFFF" style="stroke:#000000;stroke-width:1;"/><path d="M1405.85,889.6741 C1405.85,899.6741 1492.0575,899.6741 1492.0575,899.6741 C1492.0575,899.6741 1578.2649,899.6741 1578.2649,889.6741" fill="none" style="stroke:#000000;stroke-width:1;"/><text fill="#000000" font-family="'sans-serif'" font-size="11" font-style="italic" lengthAdjust="spacing" textLength="45.9907" x="1469.0621" y="915.433">&#171;artifact&#187;</text><text fill="#000000" font-family="'sans-serif'" font-size="11" lengthAdjust="spacing" textLength="152.4149" x="1415.85" y="930.4149">Bond map / Validator registry</text></g><!--entity Vault--><g class="entity" data-qualified-name="Effect layer.Vault" data-source-line="65" id="ent0017"><path d="M1246.21,882.1741 C1246.21,872.1741 1297.0582,872.1741 1297.0582,872.1741 C1297.0582,872.1741 1347.9064,872.1741 1347.9064,882.1741 L1347.9064,936.1198 C1347.9064,946.1198 1297.0582,946.1198 1297.0582,946.1198 C1297.0582,946.1198 1246.21,946.1198 1246.21,936.1198 L1246.21,882.1741" fill="#FFFFFF" style="stroke:#000000;stroke-width:1;"/><path d="M1246.21,882.1741 C1246.21,892.1741 1297.0582,892.1741 1297.0582,892.1741 C1297.0582,892.1741 1347.9064,892.1741 1347.9064,882.1741" fill="none" style="stroke:#000000;stroke-width:1;"/><text fill="#000000" font-family="'sans-serif'" font-size="11" font-style="italic" lengthAdjust="spacing" textLength="45.9907" x="1274.0629" y="907.933">&#171;artifact&#187;</text><text fill="#000000" font-family="'sans-serif'" font-size="11" lengthAdjust="spacing" textLength="55.2526" x="1256.21" y="922.9149">Coop vault</text><text fill="#000000" font-family="'sans-serif'" font-size="11" lengthAdjust="spacing" textLength="81.6964" x="1256.21" y="937.8968">(forfeited stake)</text></g><!--entity FC--><g class="entity" data-qualified-name="Fork-choice layer.FC" data-source-line="69" id="ent0019"><rect fill="#FFFFFF" height="64.9457" rx="2.5" ry="2.5" style="stroke:#333333;stroke-width:1;" width="160.634" x="1657.74" y="691.7441"/><text fill="#000000" font-family="'sans-serif'" font-size="11" font-style="italic" lengthAdjust="spacing" textLength="65.7355" x="1705.1893" y="713.503">&#171;component&#187;</text><text fill="#000000" font-family="'sans-serif'" font-size="11" lengthAdjust="spacing" textLength="110.2742" x="1667.74" y="728.4849">ForkChoice estimator</text><text fill="#000000" font-family="'sans-serif'" font-size="11" lengthAdjust="spacing" textLength="140.634" x="1667.74" y="743.4668">(filters slashed latest-msgs)</text></g><g class="entity" data-qualified-name="RaceWindow" data-source-line="79" id="ent0024"><path d="M11,84.9941 L11,214.8492 L233.1116,214.8492 L233.1116,94.9941 L223.1116,84.9941 L11,84.9941" fill="#FFE0B2" style="stroke:#E65100;stroke-width:1;"/><path d="M223.1116,84.9941 L223.1116,94.9941 L233.1116,94.9941 L223.1116,84.9941" fill="#FFE0B2" style="stroke:#E65100;stroke-width:1;"/><text fill="#000000" font-family="'sans-serif'" font-size="11" lengthAdjust="spacing" textLength="173.6612" x="17" y="101.753">&#9888; Race window (Rust regression):</text><text fill="#000000" font-family="'sans-serif'" font-size="11" lengthAdjust="spacing" textLength="177.2527" x="17" y="116.7349">Casper.handle_invalid_block reads</text><text fill="#000000" font-family="'sans-serif'" font-size="11" lengthAdjust="spacing" textLength="188.0327" x="17" y="131.7168">Tracker, then writes without locking.</text><text fill="#000000" font-family="'sans-serif'" font-size="11" lengthAdjust="spacing" textLength="184.8097" x="17" y="146.6987">Two threads can race and overwrite</text><text fill="#000000" font-family="'sans-serif'" font-size="11" lengthAdjust="spacing" textLength="191.7946" x="17" y="161.6806">accumulated hashes with Set::empty.</text><text fill="#000000" font-family="'sans-serif'" font-size="11" lengthAdjust="spacing" textLength="149.8189" x="17" y="176.6625">Bug fix #2 (T-9.2) re-locks the</text><text fill="#000000" font-family="'sans-serif'" font-size="11" lengthAdjust="spacing" textLength="181.3007" x="17" y="191.6443">read-modify-write window through</text><text fill="#000000" font-family="'sans-serif'" font-size="11" lengthAdjust="spacing" textLength="201.1116" x="17" y="206.6262">Casper's access_equivocations_tracker.</text></g><!--link Validate to Casper--><g class="link" data-entity-1="ent0003" data-entity-2="ent0005" data-link-type="dependency" data-source-line="73" id="lnk20"><path d="M326.05,182.7841 C315.32,200.2641 303.56,222.8041 298.06,244.8541 C291.22,272.2241 299.9119,297.2249 312.0319,319.2949" fill="none" id="Validate-to-Casper" style="stroke:#E65100;stroke-width:1;"/><polygon fill="#E65100" points="314.92,324.5541,314.0939,314.7399,312.5132,320.1715,307.0817,318.5908,314.92,324.5541" style="stroke:#E65100;stroke-width:1;"/><text fill="#000000" font-family="'sans-serif'" font-size="11" lengthAdjust="spacing" textLength="106.7323" x="299.06" y="257.613">InvalidBlock variants</text></g><!--link Detector to Casper--><g class="link" data-entity-1="ent0004" data-entity-2="ent0005" data-link-type="dependency" data-source-line="74" id="lnk21"><path d="M497.97,190.0441 C460,229.0341 406.5859,283.8855 371.2959,320.1255" fill="none" id="Detector-to-Casper" style="stroke:#E65100;stroke-width:1;"/><polygon fill="#E65100" points="367.11,324.4241,376.2546,320.7668,370.5983,320.8419,370.5231,315.1856,367.11,324.4241" style="stroke:#E65100;stroke-width:1;"/><text fill="#000000" font-family="'sans-serif'" font-size="11" lengthAdjust="spacing" textLength="167.3418" x="443.05" y="257.613">Admissible/Ignorable/Neglected</text></g><!--link Casper to DagStore--><g class="link" data-entity-1="ent0005" data-entity-2="ent0007" data-link-type="dependency" data-source-line="75" id="lnk22"><path d="M325.43,390.0241 C322.15,406.1441 321.9,424.9941 333.06,437.7941 C341.6,447.6041 379.4,440.0241 391.06,445.7941 C416.92,458.6041 436.0048,477.3433 451.9548,496.7033" fill="none" id="Casper-to-DagStore" style="stroke:#E65100;stroke-width:1;"/><polygon fill="#E65100" points="455.77,501.3341,453.1345,491.8444,452.5907,497.4751,446.96,496.9313,455.77,501.3341" style="stroke:#E65100;stroke-width:1;"/><text fill="#000000" font-family="'sans-serif'" font-size="11" lengthAdjust="spacing" textLength="131.0861" x="334.06" y="434.553">insert(block, invalid=true)</text></g><!--link Casper to Tracker--><g class="link" data-entity-1="ent0005" data-entity-2="ent0008" data-link-type="dependency" data-source-line="76" id="lnk23"><path d="M288.27,390.1941 C270.59,404.8241 252.55,423.8241 243.06,445.7941 C221.73,495.1341 228.21,515.0741 243.06,566.7441 C256.73,614.3441 285.8428,656.7881 309.7528,686.6881" fill="none" id="Casper-to-Tracker" style="stroke:#E65100;stroke-width:1;"/><polygon fill="#E65100" points="313.5,691.3741,311.0032,681.847,310.3773,687.4691,304.7552,686.8433,313.5,691.3741" style="stroke:#E65100;stroke-width:1;"/><text fill="#000000" font-family="'sans-serif'" font-size="11" lengthAdjust="spacing" textLength="117.3031" x="263.3594" y="531.523">equivocation_records()</text><text fill="#000000" font-family="'sans-serif'" font-size="11" lengthAdjust="spacing" textLength="115.8622" x="284.0998" y="546.5049">insert/update_record()</text></g><!--link RaceWindow to Casper--><g class="link" data-entity-1="ent0024" data-entity-2="ent0005" data-link-type="association" data-source-line="88" id="lnk25"><path d="M189.18,215.3541 C227.06,251.7041 272.71,295.5241 302.96,324.5541" fill="none" id="RaceWindow-Casper" style="stroke:#000000;stroke-width:1;stroke-dasharray:7,7;"/></g><!--link RaceWindow to Tracker--><g class="link" data-entity-1="ent0024" data-entity-2="ent0008" data-link-type="association" data-source-line="89" id="lnk26"><path d="M125.62,214.9741 C133.76,311.9341 160.37,498.3441 247.06,627.7441 C262.85,651.3141 284.94,674.1041 303.74,691.5041" fill="none" id="RaceWindow-Tracker" style="stroke:#000000;stroke-width:1;stroke-dasharray:7,7;"/></g><!--link DagStore to Tracker--><g class="link" data-entity-1="ent0007" data-entity-2="ent0008" data-link-type="dependency" data-source-line="92" id="lnk27"><path d="M417.28,556.7541 C398.22,566.2341 378.89,579.2841 366.06,596.7441 C345.84,624.2441 341.0012,657.8663 340.2612,685.3963" fill="none" id="DagStore-to-Tracker" style="stroke:#546E7A;stroke-width:1;"/><polygon fill="#546E7A" points="340.1,691.3941,344.3404,682.5048,340.2344,686.3959,336.3433,682.2899,340.1,691.3941" style="stroke:#546E7A;stroke-width:1;"/><text fill="#000000" font-family="'sans-serif'" font-size="11" lengthAdjust="spacing" textLength="119.8111" x="373.8415" y="609.503">delegates equivocation</text><text fill="#000000" font-family="'sans-serif'" font-size="11" lengthAdjust="spacing" textLength="96.1943" x="404.2398" y="624.4849">record persistence</text></g><!--link DagStore to DeployStore--><g class="link" data-entity-1="ent0007" data-entity-2="ent0009" data-link-type="dependency" data-source-line="93" id="lnk28"><path d="M493.64,567.1541 C508.4,599.4041 528.7534,643.8782 544.6134,678.5382" fill="none" id="DagStore-to-DeployStore" style="stroke:#546E7A;stroke-width:1;"/><polygon fill="#546E7A" points="547.11,683.9941,547.0024,674.1458,545.0295,679.4475,539.7279,677.4746,547.11,683.9941" style="stroke:#546E7A;stroke-width:1;"/><text fill="#000000" font-family="'sans-serif'" font-size="11" lengthAdjust="spacing" textLength="163.0849" x="520.48" y="609.503">(slash deploys NOT persisted &#8212;</text><text fill="#000000" font-family="'sans-serif'" font-size="11" lengthAdjust="spacing" textLength="65.8565" x="589.1141" y="624.4849">fix #8 ; T-9.8)</text></g><!--link Creator to DagStore--><g class="link" data-entity-1="ent0011" data-entity-2="ent0007" data-link-type="dependency" data-source-line="96" id="lnk29"><path d="M1005.38,369.7041 C915.08,382.0841 764.35,401.7441 634.06,413.7941 C619.87,415.1141 516.98,412.6441 506.06,421.7941 C483.24,440.9241 477.994,469.7254 477.464,495.3754" fill="none" id="Creator-to-DagStore" style="stroke:#1565C0;stroke-width:1;"/><polygon fill="#1565C0" points="477.34,501.3741,481.5251,492.4587,477.4433,496.3752,473.5268,492.2934,477.34,501.3741" style="stroke:#1565C0;stroke-width:1;"/><text fill="#000000" font-family="'sans-serif'" font-size="11" lengthAdjust="spacing" textLength="123.4631" x="507.06" y="434.553">invalid_latest_messages</text></g><!--link Creator to Tracker--><g class="link" data-entity-1="ent0011" data-entity-2="ent0008" data-link-type="dependency" data-source-line="97" id="lnk30"><path d="M1005.49,363.7341 C894.54,372.9441 703.18,395.7841 657.06,445.7941 C601.83,505.6741 694.62,572.1741 635.06,627.7441 C622.28,639.6541 494.69,630.4241 478.06,635.7441 C441.5,647.4341 409.8902,667.7547 383.8202,687.6447" fill="none" id="Creator-to-Tracker" style="stroke:#1565C0;stroke-width:1;"/><polygon fill="#1565C0" points="379.05,691.2841,388.6316,689.0051,383.0252,688.2513,383.779,682.6449,379.05,691.2841" style="stroke:#1565C0;stroke-width:1;"/><text fill="#000000" font-family="'sans-serif'" font-size="11" lengthAdjust="spacing" textLength="110.7032" x="658.06" y="539.023">equivocation_records</text></g><!--link Creator to SlashDep--><g class="link" data-entity-1="ent0011" data-entity-2="ent0012" data-link-type="dependency" data-source-line="98" id="lnk31"><path d="M1090.04,390.0041 C1094.01,421.6141 1099.3425,463.9508 1103.3125,495.5708" fill="none" id="Creator-to-SlashDep" style="stroke:#00838F;stroke-width:1;"/><polygon fill="#00838F" points="1104.06,501.5241,1106.9077,492.0959,1103.4371,496.5631,1098.97,493.0925,1104.06,501.5241" style="stroke:#00838F;stroke-width:1;"/><text fill="#000000" font-family="'sans-serif'" font-size="11" lengthAdjust="spacing" textLength="140.337" x="1096.74" y="434.553">1 SlashDeploy per offender</text></g><!--link SlashDep to SysDepUtil--><g class="link" data-entity-1="ent0012" data-entity-2="ent0013" data-link-type="dependency" data-source-line="99" id="lnk32"><path d="M1090.11,567.0041 C1085.52,576.3341 1081.04,586.7241 1078.06,596.7441 C1068.69,628.1341 1065.1817,659.5056 1063.5717,685.4456" fill="none" id="SlashDep-to-SysDepUtil" style="stroke:#546E7A;stroke-width:1;"/><polygon fill="#546E7A" points="1063.2,691.4341,1067.7498,682.6992,1063.5097,686.4437,1059.7652,682.2036,1063.2,691.4341" style="stroke:#546E7A;stroke-width:1;"/><text fill="#000000" font-family="'sans-serif'" font-size="11" lengthAdjust="spacing" textLength="147.4429" x="1079.06" y="617.003">generate slash random seed</text></g><!--link Creator to DeployStore--><g class="link" data-entity-1="ent0011" data-entity-2="ent0009" data-link-type="dependency" data-source-line="100" id="lnk33"><path d="M1005.61,375.8841 C958.61,389.1741 900.23,411.1941 857.06,445.7941 C806.77,486.1041 821.44,520.0141 777.06,566.7441 C733.27,612.8441 679.5631,651.7479 635.0131,680.6579" fill="none" id="Creator-to-DeployStore" style="stroke:#546E7A;stroke-width:1;stroke-dasharray:7,7;"/><polygon fill="#546E7A" points="629.98,683.9241,639.7071,682.3803,634.1743,681.2023,635.3522,675.6695,629.98,683.9241" style="stroke:#546E7A;stroke-width:1;"/><text fill="#000000" font-family="'sans-serif'" font-size="11" lengthAdjust="spacing" textLength="150.765" x="858.06" y="539.023">(TODO: persist slash deploys)</text></g><!--link SlashDep to PoS--><g class="link" data-entity-1="ent0012" data-entity-2="ent0015" data-link-type="dependency" data-source-line="103" id="lnk34"><path d="M1187.9,567.1941 C1203.21,575.4441 1218.4,585.2941 1231.06,596.7441 C1260.64,623.4941 1280.8819,658.2403 1294.4519,686.0903" fill="none" id="SlashDep-to-PoS" style="stroke:#6A1B9A;stroke-width:1;"/><polygon fill="#6A1B9A" points="1297.08,691.4841,1296.7336,681.6413,1294.8899,686.9893,1289.5419,685.1455,1297.08,691.4841" style="stroke:#6A1B9A;stroke-width:1;"/><text fill="#000000" font-family="'sans-serif'" font-size="11" lengthAdjust="spacing" textLength="139.171" x="1259.32" y="617.003">@PoS!("slash", offender, &#8230;)</text></g><!--link PoS to Bonds--><g class="link" data-entity-1="ent0015" data-entity-2="ent0016" data-link-type="dependency" data-source-line="104" id="lnk35"><path d="M1356.84,757.0841 C1372.19,768.6541 1388.98,782.3041 1403.06,796.1741 C1429.41,822.1541 1451.7254,850.954 1468.7154,874.564" fill="none" id="PoS-to-Bonds" style="stroke:#E65100;stroke-width:1;"/><polygon fill="#E65100" points="1472.22,879.4341,1470.2099,869.7926,1469.2995,875.3757,1463.7164,874.4653,1472.22,879.4341" style="stroke:#E65100;stroke-width:1;"/><text fill="#000000" font-family="'sans-serif'" font-size="11" lengthAdjust="spacing" textLength="158.7399" x="1443.25" y="823.933">zero bond, remove from active</text></g><!--link PoS to Vault--><g class="link" data-entity-1="ent0015" data-entity-2="ent0017" data-link-type="dependency" data-source-line="105" id="lnk36"><path d="M1292.67,757.0241 C1286.78,768.9041 1281.02,782.7841 1278.06,796.1741 C1272.5,821.3041 1275.9038,844.1444 1282.1838,866.1544" fill="none" id="PoS-to-Vault" style="stroke:#E65100;stroke-width:1;"/><polygon fill="#E65100" points="1283.83,871.9241,1285.2071,862.172,1282.4581,867.116,1277.5141,864.367,1283.83,871.9241" style="stroke:#E65100;stroke-width:1;"/><text fill="#000000" font-family="'sans-serif'" font-size="11" lengthAdjust="spacing" textLength="119.2392" x="1279.06" y="823.933">transfer forfeited stake</text></g><!--link FC to Bonds--><g class="link" data-entity-1="ent0019" data-entity-2="ent0016" data-link-type="dependency" data-source-line="111" id="lnk37"><path d="M1707.46,756.9441 C1682.57,781.7941 1645.82,816.3741 1610.06,842.1741 C1591.31,855.7041 1574.7903,865.7264 1555.0703,876.4564" fill="none" id="FC-to-Bonds" style="stroke:#1565C0;stroke-width:1;"/><polygon fill="#1565C0" points="1549.8,879.3241,1559.6173,878.5361,1554.1919,876.9344,1555.7937,871.509,1549.8,879.3241" style="stroke:#1565C0;stroke-width:1;"/><text fill="#000000" font-family="'sans-serif'" font-size="11" lengthAdjust="spacing" textLength="139.49" x="1666.26" y="808.933">reads bonds_map on every</text><text fill="#000000" font-family="'sans-serif'" font-size="11" lengthAdjust="spacing" textLength="127.1261" x="1672.4419" y="823.9149">fork-choice round; filters</text><text fill="#000000" font-family="'sans-serif'" font-size="11" lengthAdjust="spacing" textLength="134.21" x="1668.9" y="838.8968">validators where bond = 0</text></g><?plantuml-src ZLTDRnit4BtlhvZ81--caYpPiUCeTb1_I4XGr0bYrpt4Xa3lKXBXNN93SkqeHO6U-WEAddhggJyilwH3ShaVifn4W61vDVCuypXyZtgY5pIZaAU4yI1GjupdH98COf7bWbEkp_KofI1fh0cVfxGHafFubimf_1O07EFdkHG5Jqv4AkJ1mIdLcC84V_KAp6jZCfay7u_NXPvh8H6d3CJGyNXoD1ck2tqdHIuKutEFYg7RaycwqF5iXWLKe5Z0pdXtihikT2BaxSb2iBYiOMEyWwYd9bJ8X4eR1XlFx2luVHrBwqYmFKzSTGqSkyAEVRMmkD3qCPZnu7Xx7SnuRtSu6BHW4ZeZHQedWkipWZlRKOIhdgAIpJhhmyxPPmh3OH1efd6hprEY5aWngE96BPMc6Npvu-z6gnht81NpPH1imZZ10OXjGIcTKvv060kk6APX98cbK0eIHkQufeB1TXS6E_X-XkzTVBy0HJyMbCUq2ef620jmanOK_uGRmzsztPD118SuWoG1Z9PB25CXRejSTK5nagk5q2goQJX972iAIsPCMk8d4UweJ5YiOSkCCr89CKBQRxP0cQw1sg6nI7aXyzGWxHqDZryS6QJt2v4Yl8cslFGIcgTY2OpVYTW2sKnDIMfB7mpsT_Od9fDnJMMlfZ2ZIk78st3iUcd3Tv_jZPyVLU4SKHAAh3ham1-tJdMq82LBAZlGFcrcXEgLEfSaPGdHz8g7m-S_GBoWyQs2Bt_-1M_udVdkE1NnRTI1vklWe490HAB0exInnnyBvbjt9GY9wv0aOqgn6wHl2zYSuwROprSSE4KDYJLDeix3HJn4Uv6VSKpPEoBndnEYSYhVP7cAgmY9lIWj2MPygtoNYEUaPh5KdPh3MePM6BG4dP9v6O1BCyTSxyPyWxkLq4_j2XwsvjA_mj-5nCgej56un4-N8mZl7Ej2TiqvEIkoo6xSETKVR56lSMQlrp5PWhLNExNJMdSH5zAGcYxXPfaJfMY27wwuEmbkj9Kz-ZFs2JRsr--OXwGjSYkThkbjIlSwWa_CMRJZaqkA6aMdgXIYQLbBa-A7E-pIsy1MoboDY7jk3wtxTyoBR3IottzZvpp62d83wnVDp3ogF6NwUAbfE8nmk-o8VnrvgH30PBUuSyPL4rSPsGfhxyHvfKYekNWGOerb_8ZFduHN7SlULQUBE_XVL9LoS42aPZFYd16Bm6Y4nI4ZDqIXudQE1OfuHd8ykfT-_50lvoZfSjdk21u3DHYg3NiYH0vtndAmnfcGCyfG1K1fSakZxuIzDEajhenpzs9htJLXBJjV8Qt-3b0xM5QEt8obgBZAkG2MbQBKATtBr5oj6_l9YQbY4muF3w5MOufUgCopmAkbwQBteVIYwzwhKeVA_aOj1KPo92DSgy3BuBUoZogPtNhZHNRhp0jiq8nkmNWjAc4Onyk13gsMTQ6KjaCj2nezZb4AZ2-5DeHiwinLXH7gVUlbLjegSiDD6HP6GM1lFaZhUnBJNr5DnJrksfT__hKFuDu-WV1zeRGPH8dUYSlWFG5AHleBmfEKJilQfqwMpNN1365PQXVmfilXNkBSAGJL2r7WASD8b9Y-YRiN66Ap82OSf5aSWK7WlS6cOH29uo8hp7Wai32pug2C98z6DClrqa0T5tCdcjiGNlHUzBSZhAPdrbAc2emmo_GoaR3PicUnVPjOWIZcYwgtJMNMn9QdJOxLLBkk-e6vSna2WvezwFUzuxKVUbieHzTRO3suzMZWRhlxo3NcylQEZ_oz1BEQLQtiTtd9mZBSVJ2cNyDlM0ak4BPTwEpjHOMJ64zQ7IrdKV0I3DtxaU-mzg6wnz8f_4ox--NQS-6coMd1jBoogSVpl-DCh2Qx6w99zZPJ9W-XuLscTH1e0tZHa44picRHG5H-OY7mDawb4I579LwC4v5POrgjma5q4wjzrojxOJRZuktfsv7V06XjJKLrQLirpojrkckqGJV6LRr6u0pB-HNQbU_J6LVG36ufaFMO6kKpbG9ky5aNvox38mipYUsYUR0x-ZYAjPGQ1KyLLpDaUyMXV9DDlp6TsaOtuPJ9qWEOCGTxINFrXGIUvaMQFer6vkJNfkFaoLQifiPkxOy7UcT-tSmQgzZVWLQ6l4TLby9IUWm4_cOOz2snYS0HtJIAWBzWS9k8zpJy2QZDOpPZRYRx0LRQPAMUv1Lk7vRg2htY3ofzwSkyuiqw5nGdoHSQ_0y0?></g></svg>