<?plantuml 1.2026.2?><svg xmlns="http://www.w3.org/2000/svg" xmlns:xlink="http://www.w3.org/1999/xlink" contentStyleType="text/css" data-diagram-type="ACTIVITY" height="1230px" preserveAspectRatio="none" style="width:1399px;height:1230px;background:#FFFFFF;" version="1.1" viewBox="0 0 1399 1230" width="1399px" zoomAndPan="magnify"><title>PoS.slash() &#8212; activity flow</title><defs/><g><g class="title" data-source-line="34"><text fill="#000000" font-family="'sans-serif'" font-size="22" font-weight="bold" lengthAdjust="spacing" textLength="285.4729" x="555.3509" y="38.5181">PoS.slash() &#8212; activity flow</text></g><ellipse cx="869.297" cy="65.9641" fill="#FFFFFF" rx="10" ry="10" style="stroke:#000000;stroke-width:1;"/><rect fill="#BBDEFB" height="34.9819" rx="12.5" ry="12.5" style="stroke:#333333;stroke-width:1;" width="312.6199" x="712.9871" y="95.9641"/><text fill="#000000" font-family="'sans-serif'" font-size="11" lengthAdjust="spacing" textLength="292.6199" x="722.9871" y="117.723">receive (deployerId, blockHash, sysAuthToken, returnCh)</text><path d="M983.4918,140.946 L983.4918,225.8554 L1319.9805,225.8554 L1319.9805,150.946 L1309.9805,140.946 L983.4918,140.946" fill="#FFFFFF" style="stroke:#000000;stroke-width:1;"/><path d="M1309.9805,140.946 L1309.9805,150.946 L1319.9805,150.946 L1309.9805,140.946" fill="#FFFFFF" style="stroke:#000000;stroke-width:1;"/><text fill="#000000" font-family="'sans-serif'" font-size="11" lengthAdjust="spacing" textLength="199.0985" x="989.4918" y="157.7049">Auth-token check at PoS.rhox:437-439:</text><text fill="#000000" font-family="'sans-serif'" font-size="11" lengthAdjust="spacing" textLength="309.7687" x="995.2118" y="172.6868">sysAuthTokenOps!("check", sysAuthToken, *isValidTokenCh)</text><text fill="#000000" font-family="'sans-serif'" font-size="11" lengthAdjust="spacing" textLength="239.9633" x="995.2118" y="187.6687">for (@isValid &lt;- isValidTokenCh) { if (isValid) ... }</text><text fill="#000000" font-family="'sans-serif'" font-size="11" lengthAdjust="spacing" textLength="265.5711" x="989.4918" y="202.6506">The auth token is unforgeable; only system deploys</text><text fill="#000000" font-family="'sans-serif'" font-size="11" lengthAdjust="spacing" textLength="87.7024" x="989.4918" y="217.6325">carry a valid one.</text><polygon fill="#FFF8E1" points="767.1023,225.8554,971.4918,225.8554,983.4918,237.8554,971.4918,249.8554,767.1023,249.8554,755.1023,237.8554,767.1023,225.8554" style="stroke:#E65100;stroke-width:1;"/><text fill="#000000" font-family="'sans-serif'" font-size="11" lengthAdjust="spacing" textLength="204.3895" x="767.1023" y="242.1234">sysAuthTokenOps.check(sysAuthToken)</text><text fill="#000000" font-family="'sans-serif'" font-size="11" lengthAdjust="spacing" textLength="24.1998" x="730.9025" y="234.6325">valid</text><text fill="#000000" font-family="'sans-serif'" font-size="11" lengthAdjust="spacing" textLength="33.8358" x="983.4918" y="234.6325">invalid</text><path d="M701.1662,268.3826 L701.1662,338.3101 L883.975,338.3101 L883.975,278.3826 L873.975,268.3826 L701.1662,268.3826" fill="#FFFFFF" style="stroke:#000000;stroke-width:1;"/><path d="M873.975,268.3826 L873.975,278.3826 L883.975,278.3826 L873.975,268.3826" fill="#FFFFFF" style="stroke:#000000;stroke-width:1;"/><text fill="#000000" font-family="'sans-serif'" font-size="11" lengthAdjust="spacing" textLength="161.8088" x="707.1662" y="285.1415">The two reads are independent</text><text fill="#000000" font-family="'sans-serif'" font-size="11" lengthAdjust="spacing" textLength="123.6391" x="707.1662" y="300.1234">(parallel composition `|`</text><text fill="#000000" font-family="'sans-serif'" font-size="11" lengthAdjust="spacing" textLength="134.54" x="707.1662" y="315.1053">in PoS.rhox:443-445); they</text><text fill="#000000" font-family="'sans-serif'" font-size="11" lengthAdjust="spacing" textLength="107.3812" x="707.1662" y="330.0872">join before runMVar.</text><rect fill="#000000" height="6" rx="2.5" ry="2.5" style="stroke:#000000;stroke-width:1;" width="416.5245" x="264.6417" y="259.8554"/><rect fill="#BBDEFB" height="34.9819" rx="12.5" ry="12.5" style="stroke:#333333;stroke-width:1;" width="186.5707" x="278.6417" y="285.8554"/><text fill="#000000" font-family="'sans-serif'" font-size="11" lengthAdjust="spacing" textLength="166.5707" x="288.6417" y="307.6143">getInvalidBlocks &#8594; invalidBlocks</text><rect fill="#BBDEFB" height="34.9819" rx="12.5" ry="12.5" style="stroke:#333333;stroke-width:1;" width="173.9538" x="493.2124" y="285.8554"/><text fill="#000000" font-family="'sans-serif'" font-size="11" lengthAdjust="spacing" textLength="153.9538" x="503.2124" y="307.6143">getUser(deployerId) &#8594; userPk</text><rect fill="#000000" height="6" rx="2.5" ry="2.5" style="stroke:#000000;stroke-width:1;" width="416.5245" x="264.6417" y="340.8373"/><rect fill="#ECEFF1" height="34.9819" rx="12.5" ry="12.5" style="stroke:#333333;stroke-width:1;" width="248.7984" x="348.5048" y="366.8373"/><text fill="#000000" font-family="'sans-serif'" font-size="11" lengthAdjust="spacing" textLength="228.7984" x="358.5048" y="388.5962">runMVar(stateCh, stateProcessCh, returnCh)</text><polygon fill="#FFF8E1" points="404.9019,421.8192,540.906,421.8192,552.906,433.8192,540.906,445.8192,404.9019,445.8192,392.9019,433.8192,404.9019,421.8192" style="stroke:#E65100;stroke-width:1;"/><text fill="#000000" font-family="'sans-serif'" font-size="11" lengthAdjust="spacing" textLength="136.0042" x="404.9019" y="438.0872">blockHash &#8712; invalidBlocks</text><text fill="#000000" font-family="'sans-serif'" font-size="11" lengthAdjust="spacing" textLength="17.0829" x="375.819" y="430.5962">yes</text><text fill="#000000" font-family="'sans-serif'" font-size="11" lengthAdjust="spacing" textLength="13.4529" x="552.906" y="430.5962">no</text><rect fill="#BBDEFB" height="34.9819" rx="12.5" ry="12.5" style="stroke:#333333;stroke-width:1;" width="208.4166" x="248.1924" y="455.8192"/><text fill="#000000" font-family="'sans-serif'" font-size="11" lengthAdjust="spacing" textLength="188.4166" x="258.1924" y="477.5781">validator &#8592; invalidBlocks[blockHash]</text><rect fill="#FFCDD2" height="34.9819" rx="12.5" ry="12.5" style="stroke:#333333;stroke-width:1;" width="233.5964" x="476.609" y="455.8192"/><text fill="#000000" font-family="'sans-serif'" font-size="11" lengthAdjust="spacing" textLength="213.5964" x="486.609" y="477.5781">returnCh!((false, "invalid slash evidence"))</text><ellipse cx="593.4072" cy="521.8011" fill="none" rx="11" ry="11" style="stroke:#000000;stroke-width:1;"/><ellipse cx="593.4072" cy="521.8011" fill="#FFFFFF" rx="6" ry="6" style="stroke:#000000;stroke-width:1;"/><rect fill="#BBDEFB" height="34.9819" rx="12.5" ry="12.5" style="stroke:#333333;stroke-width:1;" width="202.6966" x="371.5557" y="552.8011"/><text fill="#000000" font-family="'sans-serif'" font-size="11" lengthAdjust="spacing" textLength="182.6966" x="381.5557" y="574.56">valBond &#8592; state.allBonds[validator]</text><rect fill="#C8E6C9" height="34.9819" rx="12.5" ry="12.5" style="stroke:#333333;stroke-width:1;" width="186.1648" x="379.8215" y="657.2739"/><text fill="#000000" font-family="'sans-serif'" font-size="11" lengthAdjust="spacing" textLength="166.1648" x="389.8215" y="679.0328">stateUpdateCh!(state, (true, Nil))</text><rect fill="#C8E6C9" height="34.9819" rx="12.5" ry="12.5" style="stroke:#333333;stroke-width:1;" width="124.1252" x="410.8413" y="712.2558"/><text fill="#000000" font-family="'sans-serif'" font-size="11" lengthAdjust="spacing" textLength="104.1252" x="420.8413" y="734.0147">returnCh!((true, Nil))</text><ellipse cx="472.904" cy="778.2377" fill="none" rx="11" ry="11" style="stroke:#000000;stroke-width:1;"/><ellipse cx="472.904" cy="778.2377" fill="#FFFFFF" rx="6" ry="6" style="stroke:#000000;stroke-width:1;"/><polygon fill="#FFF8E1" points="439.6237,607.783,506.1842,607.783,518.1842,619.783,506.1842,631.783,439.6237,631.783,427.6237,619.783,439.6237,607.783" style="stroke:#E65100;stroke-width:1;"/><text fill="#000000" font-family="'sans-serif'" font-size="11" lengthAdjust="spacing" textLength="17.0829" x="476.904" y="643.5419">yes</text><text fill="#000000" font-family="'sans-serif'" font-size="11" lengthAdjust="spacing" textLength="66.5605" x="439.6237" y="624.0509">valBond &lt;= 0</text><text fill="#000000" font-family="'sans-serif'" font-size="11" lengthAdjust="spacing" textLength="13.4529" x="518.1842" y="616.56">no</text><rect fill="#FFFFFF" height="330.8189" style="stroke:#000000;stroke-width:1;" width="1112.2055" x="6" y="821.2377"/><path d="M131.0262,821.2377 L131.0262,829.2196 L121.0262,839.2196 L6,839.2196" fill="none" style="stroke:#000000;stroke-width:1;"/><text fill="#000000" font-family="'sans-serif'" font-size="11" lengthAdjust="spacing" textLength="115.0262" x="9" y="833.9966">Transfer to Coop vault</text><rect fill="#D1C4E9" height="64.9457" rx="12.5" ry="12.5" style="stroke:#333333;stroke-width:1;" width="179.6969" x="383.0555" y="856.2196"/><text fill="#000000" font-family="'sans-serif'" font-size="11" lengthAdjust="spacing" textLength="114.4212" x="393.0555" y="877.9785">@posVault!("transfer",</text><text fill="#000000" font-family="'sans-serif'" font-size="11" lengthAdjust="spacing" textLength="153.9769" x="398.7755" y="892.9604">coopMultiVaultAddr, valBond,</text><text fill="#000000" font-family="'sans-serif'" font-size="11" lengthAdjust="spacing" textLength="153.7348" x="398.7755" y="907.9423">posAuthKey, transferDoneCh)</text><polygon fill="#FFF8E1" points="398.968,941.1653,546.8399,941.1653,558.8399,953.1653,546.8399,965.1653,398.968,965.1653,386.968,953.1653,398.968,941.1653" style="stroke:#E65100;stroke-width:1;"/><text fill="#000000" font-family="'sans-serif'" font-size="11" lengthAdjust="spacing" textLength="147.8719" x="398.968" y="957.4332">transferDoneCh receives ok?</text><text fill="#000000" font-family="'sans-serif'" font-size="11" lengthAdjust="spacing" textLength="17.0829" x="369.8851" y="949.9423">yes</text><text fill="#000000" font-family="'sans-serif'" font-size="11" lengthAdjust="spacing" textLength="13.4529" x="558.8399" y="949.9423">no</text><path d="M406.1806,980.1653 L406.1806,1018.62 L386.1806,1022.62 L406.1806,1026.62 L406.1806,1065.0747 A0,0 0 0 0 406.1806,1065.0747 L578.2096,1065.0747 A0,0 0 0 0 578.2096,1065.0747 L578.2096,990.1653 L568.2096,980.1653 L406.1806,980.1653 A0,0 0 0 0 406.1806,980.1653" fill="#FFFFFF" style="stroke:#000000;stroke-width:1;"/><path d="M568.2096,980.1653 L568.2096,990.1653 L578.2096,990.1653 L568.2096,980.1653" fill="#FFFFFF" style="stroke:#000000;stroke-width:1;"/><text fill="#000000" font-family="'sans-serif'" font-size="11" lengthAdjust="spacing" textLength="151.0289" x="412.1806" y="996.9242">Single map-construction step</text><text fill="#000000" font-family="'sans-serif'" font-size="11" lengthAdjust="spacing" textLength="136.542" x="412.1806" y="1011.9061">in PoS.rhox:473-482 &#8212; the</text><text fill="#000000" font-family="'sans-serif'" font-size="11" lengthAdjust="spacing" textLength="140.106" x="412.1806" y="1026.8879">three field updates are one</text><text fill="#000000" font-family="'sans-serif'" font-size="11" lengthAdjust="spacing" textLength="147.322" x="412.1806" y="1041.8698">atomic stateUpdateCh write,</text><text fill="#000000" font-family="'sans-serif'" font-size="11" lengthAdjust="spacing" textLength="141.998" x="412.1806" y="1056.8517">not three sequential writes.</text><rect fill="#FFE0B2" height="94.9094" rx="12.5" ry="12.5" style="stroke:#333333;stroke-width:1;" width="368.1806" x="18" y="975.1653"/><text fill="#000000" font-family="'sans-serif'" font-size="11" lengthAdjust="spacing" textLength="225.2454" x="28" y="996.9242">atomic stateUpdate(state', (true, Nil)) where</text><text fill="#000000" font-family="'sans-serif'" font-size="11" lengthAdjust="spacing" textLength="263.2392" x="33.72" y="1011.9061">state'.allBonds          := state.allBonds[validator := 0]</text><text fill="#000000" font-family="'sans-serif'" font-size="11" lengthAdjust="spacing" textLength="304.8189" x="33.72" y="1026.8879">state'.activeValidators  := state.activeValidators \ {validator}</text><text fill="#000000" font-family="'sans-serif'" font-size="11" lengthAdjust="spacing" textLength="342.4607" x="33.72" y="1041.8698">state'.committedRewards  := state.committedRewards \ {validator}</text><text fill="#000000" font-family="'sans-serif'" font-size="11" lengthAdjust="spacing" textLength="2.86" x="28" y="1056.8517">&#160;</text><rect fill="#C8E6C9" height="34.9819" rx="12.5" ry="12.5" style="stroke:#333333;stroke-width:1;" width="124.1252" x="140.0277" y="1105.0747"/><text fill="#000000" font-family="'sans-serif'" font-size="11" lengthAdjust="spacing" textLength="104.1252" x="150.0277" y="1126.8336">returnCh!((true, Nil))</text><path d="M909.2256,975.1653 L909.2256,998.6381 L889.2256,1002.6381 L909.2256,1006.6381 L909.2256,1030.1109 A0,0 0 0 0 909.2256,1030.1109 L1098.2055,1030.1109 A0,0 0 0 0 1098.2055,1030.1109 L1098.2055,985.1653 L1088.2055,975.1653 L909.2256,975.1653 A0,0 0 0 0 909.2256,975.1653" fill="#FFFFFF" style="stroke:#000000;stroke-width:1;"/><path d="M1088.2055,975.1653 L1088.2055,985.1653 L1098.2055,985.1653 L1088.2055,975.1653" fill="#FFFFFF" style="stroke:#000000;stroke-width:1;"/><text fill="#000000" font-family="'sans-serif'" font-size="11" lengthAdjust="spacing" textLength="90.2213" x="915.2256" y="991.9242">Bug fix #4 / T-9.4:</text><text fill="#000000" font-family="'sans-serif'" font-size="11" lengthAdjust="spacing" textLength="167.9798" x="915.2256" y="1006.9061">transfer failure is a deterministic</text><text fill="#000000" font-family="'sans-serif'" font-size="11" lengthAdjust="spacing" textLength="164.0419" x="915.2256" y="1021.8879">failed result, not a stuck deploy.</text><rect fill="#FFCDD2" height="34.9819" rx="12.5" ry="12.5" style="stroke:#333333;stroke-width:1;" width="291.0161" x="598.2096" y="985.1471"/><text fill="#000000" font-family="'sans-serif'" font-size="11" lengthAdjust="spacing" textLength="271.0161" x="608.2096" y="1006.9061">returnCh!((false, "transfer failed: " ++ errorMessage))</text><ellipse cx="743.7176" cy="1076.1109" fill="none" rx="11" ry="11" style="stroke:#000000;stroke-width:1;"/><ellipse cx="743.7176" cy="1076.1109" fill="#FFFFFF" rx="6" ry="6" style="stroke:#000000;stroke-width:1;"/><rect fill="#FFCDD2" height="34.9819" rx="12.5" ry="12.5" style="stroke:#333333;stroke-width:1;" width="254.9693" x="1138.2055" y="259.8554"/><text fill="#000000" font-family="'sans-serif'" font-size="11" lengthAdjust="spacing" textLength="234.9693" x="1148.2055" y="281.6143">returnCh!((false, "Invalid system auth token"))</text><polygon fill="#FFF8E1" points="869.297,1158.0566,881.297,1170.0566,869.297,1182.0566,857.297,1170.0566,869.297,1158.0566" style="stroke:#E65100;stroke-width:1;"/><ellipse cx="869.297" cy="1213.0566" fill="none" rx="11" ry="11" style="stroke:#000000;stroke-width:1;"/><ellipse cx="869.297" cy="1213.0566" fill="#FFFFFF" rx="6" ry="6" style="stroke:#000000;stroke-width:1;"/><line style="stroke:#444444;stroke-width:1;" x1="869.297" x2="869.297" y1="75.9641" y2="95.9641"/><polygon fill="#444444" points="865.297,85.9641,869.297,95.9641,873.297,85.9641,869.297,89.9641" style="stroke:#444444;stroke-width:1;"/><line style="stroke:#444444;stroke-width:1;" x1="371.9271" x2="371.9271" y1="265.8554" y2="285.8554"/><polygon fill="#444444" points="367.9271,275.8554,371.9271,285.8554,375.9271,275.8554,371.9271,279.8554" style="stroke:#444444;stroke-width:1;"/><line style="stroke:#444444;stroke-width:1;" x1="580.1893" x2="580.1893" y1="265.8554" y2="285.8554"/><polygon fill="#444444" points="576.1893,275.8554,580.1893,285.8554,584.1893,275.8554,580.1893,279.8554" style="stroke:#444444;stroke-width:1;"/><line style="stroke:#444444;stroke-width:1;" x1="371.9271" x2="371.9271" y1="320.8373" y2="340.8373"/><polygon fill="#444444" points="367.9271,330.8373,371.9271,340.8373,375.9271,330.8373,371.9271,334.8373" style="stroke:#444444;stroke-width:1;"/><line style="stroke:#444444;stroke-width:1;" x1="580.1893" x2="580.1893" y1="320.8373" y2="340.8373"/><polygon fill="#444444" points="576.1893,330.8373,580.1893,340.8373,584.1893,330.8373,580.1893,334.8373" style="stroke:#444444;stroke-width:1;"/><line style="stroke:#444444;stroke-width:1;" x1="472.904" x2="472.904" y1="346.8373" y2="366.8373"/><polygon fill="#444444" points="468.904,356.8373,472.904,366.8373,476.904,356.8373,472.904,360.8373" style="stroke:#444444;stroke-width:1;"/><line style="stroke:#444444;stroke-width:1;" x1="593.4072" x2="593.4072" y1="490.8011" y2="510.8011"/><polygon fill="#444444" points="589.4072,500.8011,593.4072,510.8011,597.4072,500.8011,593.4072,504.8011" style="stroke:#444444;stroke-width:1;"/><line style="stroke:#444444;stroke-width:1;" x1="392.9019" x2="352.4007" y1="433.8192" y2="433.8192"/><line style="stroke:#444444;stroke-width:1;" x1="352.4007" x2="352.4007" y1="433.8192" y2="455.8192"/><polygon fill="#444444" points="348.4007,445.8192,352.4007,455.8192,356.4007,445.8192,352.4007,449.8192" style="stroke:#444444;stroke-width:1;"/><line style="stroke:#444444;stroke-width:1;" x1="552.906" x2="593.4072" y1="433.8192" y2="433.8192"/><line style="stroke:#444444;stroke-width:1;" x1="593.4072" x2="593.4072" y1="433.8192" y2="455.8192"/><polygon fill="#444444" points="589.4072,445.8192,593.4072,455.8192,597.4072,445.8192,593.4072,449.8192" style="stroke:#444444;stroke-width:1;"/><line style="stroke:#444444;stroke-width:1;" x1="352.4007" x2="352.4007" y1="490.8011" y2="537.8011"/><line style="stroke:#444444;stroke-width:1;" x1="352.4007" x2="472.904" y1="537.8011" y2="537.8011"/><line style="stroke:#444444;stroke-width:1;" x1="472.904" x2="472.904" y1="537.8011" y2="552.8011"/><polygon fill="#444444" points="468.904,542.8011,472.904,552.8011,476.904,542.8011,472.904,546.8011" style="stroke:#444444;stroke-width:1;"/><line style="stroke:#444444;stroke-width:1;" x1="472.904" x2="472.904" y1="401.8192" y2="421.8192"/><polygon fill="#444444" points="468.904,411.8192,472.904,421.8192,476.904,411.8192,472.904,415.8192" style="stroke:#444444;stroke-width:1;"/><line style="stroke:#444444;stroke-width:1;" x1="472.904" x2="472.904" y1="692.2558" y2="712.2558"/><polygon fill="#444444" points="468.904,702.2558,472.904,712.2558,476.904,702.2558,472.904,706.2558" style="stroke:#444444;stroke-width:1;"/><line style="stroke:#444444;stroke-width:1;" x1="472.904" x2="472.904" y1="747.2377" y2="767.2377"/><polygon fill="#444444" points="468.904,757.2377,472.904,767.2377,476.904,757.2377,472.904,761.2377" style="stroke:#444444;stroke-width:1;"/><line style="stroke:#444444;stroke-width:1;" x1="472.904" x2="472.904" y1="631.783" y2="657.2739"/><polygon fill="#444444" points="468.904,647.2739,472.904,657.2739,476.904,647.2739,472.904,651.2739" style="stroke:#444444;stroke-width:1;"/><line style="stroke:#444444;stroke-width:1;" x1="518.1842" x2="575.9864" y1="619.783" y2="619.783"/><polygon fill="#444444" points="571.9864,710.2558,575.9864,720.2558,579.9864,710.2558,575.9864,714.2558" style="stroke:#444444;stroke-width:1;"/><line style="stroke:#444444;stroke-width:1;" x1="575.9864" x2="575.9864" y1="619.783" y2="811.2377"/><line style="stroke:#444444;stroke-width:1;" x1="575.9864" x2="472.904" y1="811.2377" y2="811.2377"/><line style="stroke:#444444;stroke-width:1;" x1="472.904" x2="472.904" y1="811.2377" y2="856.2196"/><polygon fill="#444444" points="468.904,846.2196,472.904,856.2196,476.904,846.2196,472.904,850.2196" style="stroke:#444444;stroke-width:1;"/><line style="stroke:#444444;stroke-width:1;" x1="472.904" x2="472.904" y1="587.783" y2="607.783"/><polygon fill="#444444" points="468.904,597.783,472.904,607.783,476.904,597.783,472.904,601.783" style="stroke:#444444;stroke-width:1;"/><line style="stroke:#444444;stroke-width:1;" x1="202.0903" x2="202.0903" y1="1070.0747" y2="1105.0747"/><polygon fill="#444444" points="198.0903,1095.0747,202.0903,1105.0747,206.0903,1095.0747,202.0903,1099.0747" style="stroke:#444444;stroke-width:1;"/><line style="stroke:#444444;stroke-width:1;" x1="743.7176" x2="743.7176" y1="1020.129" y2="1065.1109"/><polygon fill="#444444" points="739.7176,1055.1109,743.7176,1065.1109,747.7176,1055.1109,743.7176,1059.1109" style="stroke:#444444;stroke-width:1;"/><line style="stroke:#444444;stroke-width:1;" x1="386.968" x2="202.0903" y1="953.1653" y2="953.1653"/><line style="stroke:#444444;stroke-width:1;" x1="202.0903" x2="202.0903" y1="953.1653" y2="975.1653"/><polygon fill="#444444" points="198.0903,965.1653,202.0903,975.1653,206.0903,965.1653,202.0903,969.1653" style="stroke:#444444;stroke-width:1;"/><line style="stroke:#444444;stroke-width:1;" x1="558.8399" x2="743.7176" y1="953.1653" y2="953.1653"/><line style="stroke:#444444;stroke-width:1;" x1="743.7176" x2="743.7176" y1="953.1653" y2="985.1471"/><polygon fill="#444444" points="739.7176,975.1471,743.7176,985.1471,747.7176,975.1471,743.7176,979.1471" style="stroke:#444444;stroke-width:1;"/><line style="stroke:#444444;stroke-width:1;" x1="202.0903" x2="202.0903" y1="1140.0566" y2="1170.0566"/><line style="stroke:#444444;stroke-width:1;" x1="202.0903" x2="857.297" y1="1170.0566" y2="1170.0566"/><polygon fill="#444444" points="847.297,1166.0566,857.297,1170.0566,847.297,1174.0566,851.297,1170.0566" style="stroke:#444444;stroke-width:1;"/><line style="stroke:#444444;stroke-width:1;" x1="472.904" x2="472.904" y1="921.1653" y2="941.1653"/><polygon fill="#444444" points="468.904,931.1653,472.904,941.1653,476.904,931.1653,472.904,935.1653" style="stroke:#444444;stroke-width:1;"/><line style="stroke:#444444;stroke-width:1;" x1="755.1023" x2="472.904" y1="237.8554" y2="237.8554"/><line style="stroke:#444444;stroke-width:1;" x1="472.904" x2="472.904" y1="237.8554" y2="259.8554"/><polygon fill="#444444" points="468.904,249.8554,472.904,259.8554,476.904,249.8554,472.904,253.8554" style="stroke:#444444;stroke-width:1;"/><line style="stroke:#444444;stroke-width:1;" x1="983.4918" x2="1265.6901" y1="237.8554" y2="237.8554"/><line style="stroke:#444444;stroke-width:1;" x1="1265.6901" x2="1265.6901" y1="237.8554" y2="259.8554"/><polygon fill="#444444" points="1261.6901,249.8554,1265.6901,259.8554,1269.6901,249.8554,1265.6901,253.8554" style="stroke:#444444;stroke-width:1;"/><line style="stroke:#444444;stroke-width:1;" x1="1265.6901" x2="1265.6901" y1="294.8373" y2="1170.0566"/><line style="stroke:#444444;stroke-width:1;" x1="1265.6901" x2="881.297" y1="1170.0566" y2="1170.0566"/><polygon fill="#444444" points="891.297,1166.0566,881.297,1170.0566,891.297,1174.0566,887.297,1170.0566" style="stroke:#444444;stroke-width:1;"/><line style="stroke:#444444;stroke-width:1;" x1="869.297" x2="869.297" y1="130.946" y2="225.8554"/><polygon fill="#444444" points="865.297,215.8554,869.297,225.8554,873.297,215.8554,869.297,219.8554" style="stroke:#444444;stroke-width:1;"/><line style="stroke:#444444;stroke-width:1;" x1="869.297" x2="869.297" y1="1182.0566" y2="1202.0566"/><polygon fill="#444444" points="865.297,1192.0566,869.297,1202.0566,873.297,1192.0566,869.297,1196.0566" style="stroke:#444444;stroke-width:1;"/><?plantuml-src bLPDRnit4BtlhnZBXwmIIPLY9R4L9utrXHg5KwDsV4a3XDuTIQnMv8RaMb4T0pq5EHP5Vw5_IOTSxdhraGBbHHBdpN3cpUDGUsQ62uGqOLm4WPvpaJB55i0Yms-uMS5j0D1dqNogP2RYWKoaWlsnMzOYLOmgtxLh_y0jifme9PSF1jZlkaMM8MSBAU9TGGz7dGfWC_Re-RDEkntSLTACSSAon8obC6yPrL7JJEYcHiKdjTsm2_u7GgSJ18QR1E5SNhHqmlGihCFzd_yyr3r9v988CKoPeASmGdw34CQO9dA5wZHkm7KYe_bFvDe0lT8dcPbToZcA1YWqcHA3MVqb71_lz_l3qRZ_-dKGy0c4LUGlgMv5CupcQxlrEb1F18GtBE5ndVWGqY0eFfsPmF9WaKrZeU2yWHbNXfh9pxtkmOjcz-2e5-IiRnot5zQSIsqpvSTSNzdZt4_AtBjFYFhmZRV1SHCsO70BjYY_MuTMgmLtplToXi0eFkI9SWsPe6XJPDS9lWGfafLDmQ1jZkLKExU8ARK21gvsGc6Bjb74ZeF09JHtmDuKpQbmiBxjWuRxhty3h-wiiv_x0fjQeHSHtf5IAZsjko0PRPxFDxrj4lxqZNxOKirIKjjPh84ff3Ge9ZcWo16XLM6IO0AHNAHISyEbW8zVFZeh5vNsTG-QtUupKWvfOENClqi2N2ETJOTcukoAgGrIUdux9BKQ75WzsY_dIaQejVszhiZHO3GUTwmYmRMl53BSV_kspc6XnHNgN1CzPsI6X77_zQzryFioq8SjzX9DjqT87wJ8PoyC9unC3QZvIE0k8-0D9_OYhDNpbCVZmN3ur8KYKHkPvWpmYQt1vjIdWU4oSgMtY6sxez-NwMwav4ilF8zVGNkxLXVhNHexLlToUXiG6fNHnrkU-EG6XwFdWoEVNBMs_mGMLLIOAIiYlPXS9BLBHHDjWeek4WoaJEbgq2IhkRbCfxqXELtP7RhQnaDh3Nzz8yAVaOqxn4aSgmRuYWi8kTiny3Ek6b3u3-dU5LePTWRTKP6oPMmT17uoQf3p7xS8fFo8-WMFeC9aJkEZTHvXEKE5tWbo-AEoYr2ktgllDjZQsX-sGjXvZbS5I5T3R9f-Wziosjrc8Bgv2suCnh_Yagcu6cZBj2kGb_6etIzal3L8xBhWOahFqeAbpKWAJHH5JWSqATCIj3OnNj34E7pg7Y-YlyIOcKA42SSaXimHdyycQbk9sMuETNIfEAcyn52EFfR6JnbDDCwI7ADR7bGPHV_h1gmFXTrZeP0RJ1XFCEv13Puy0QG_5-gCXXkRugu9iPFQVZObFZxJFn7u0IwRHwrkxu6jwZ6P7U745hrC1jM22wuDZqfidWafNzEbQZY2676OqKkSFoNVuSLV-EAQ0xsKGKw1dttrO3S7fyLepD_BXsTrQphw0U9E-XS0?></g></svg>