<?plantuml 1.2026.2?><svg xmlns="http://www.w3.org/2000/svg" xmlns:xlink="http://www.w3.org/1999/xlink" contentStyleType="text/css" data-diagram-type="DESCRIPTION" height="1579px" preserveAspectRatio="none" style="width:907px;height:1579px;background:#FFFFFF;" version="1.1" viewBox="0 0 907 1579" width="907px" zoomAndPan="magnify"><title>Data-flow: justifications &#8594; neglected-invalid-block detection</title><defs/><g><g class="title" data-source-line="27"><text fill="#000000" font-family="'sans-serif'" font-size="22" font-weight="bold" lengthAdjust="spacing" textLength="658.2178" x="120.1721" y="38.5181">Data-flow: justifications &#8594; neglected-invalid-block detection</text></g><!--entity B--><g class="entity" data-qualified-name="B" data-source-line="35" id="ent0002"><rect fill="#FFE0B2" height="52.9638" rx="2.5" ry="2.5" style="stroke:#000000;stroke-width:1;" width="121.2003" x="371.36" y="62.9641"/><polygon fill="#FFE0B2" points="475.5603,67.9641,475.5603,81.9641,487.5603,81.9641,487.5603,73.9641,481.5603,67.9641,475.5603,67.9641" style="stroke:#000000;stroke-width:1;"/><line style="stroke:#000000;stroke-width:1;" x1="481.5603" x2="481.5603" y1="67.9641" y2="73.9641"/><line style="stroke:#000000;stroke-width:1;" x1="487.5603" x2="481.5603" y1="73.9641" y2="73.9641"/><text fill="#000000" font-family="'sans-serif'" font-size="11" lengthAdjust="spacing" textLength="37.0368" x="381.36" y="87.723">block b</text><text fill="#000000" font-family="'sans-serif'" font-size="11" lengthAdjust="spacing" textLength="91.2003" x="381.36" y="102.7049">(under validation)</text></g><!--entity VG--><g class="entity" data-qualified-name="VG" data-source-line="36" id="ent0003"><rect fill="#FFECB3" height="79.9276" rx="2.5" ry="2.5" style="stroke:#333333;stroke-width:1;" width="199.7277" x="622.1" y="191.9241"/><text fill="#000000" font-family="'sans-serif'" font-size="11" lengthAdjust="spacing" textLength="118.8102" x="632.1" y="213.683">VG: validation guard &#8212;</text><text fill="#000000" font-family="'sans-serif'" font-size="11" lengthAdjust="spacing" textLength="128.6111" x="632.1" y="228.6649">reject duplicate-validator</text><text fill="#000000" font-family="'sans-serif'" font-size="11" lengthAdjust="spacing" textLength="158.9818" x="632.1" y="243.6468">justifications (Bug #16 / T-9.15;</text><text fill="#000000" font-family="'sans-serif'" font-size="11" lengthAdjust="spacing" textLength="179.7277" x="632.1" y="258.6287">Inv_AcceptedProjectionCardinality)</text></g><!--entity J--><g class="entity" data-qualified-name="J" data-source-line="37" id="ent0004"><rect fill="#FFF8E1" height="97.9094" rx="2.5" ry="2.5" style="stroke:#000000;stroke-width:1;" width="215.3927" x="660.27" y="362.8541"/><polygon fill="#FFF8E1" points="858.6627,367.8541,858.6627,381.8541,870.6627,381.8541,870.6627,373.8541,864.6627,367.8541,858.6627,367.8541" style="stroke:#000000;stroke-width:1;"/><line style="stroke:#000000;stroke-width:1;" x1="864.6627" x2="864.6627" y1="367.8541" y2="373.8541"/><line style="stroke:#000000;stroke-width:1;" x1="870.6627" x2="864.6627" y1="373.8541" y2="373.8541"/><text fill="#000000" font-family="'sans-serif'" font-size="11" lengthAdjust="spacing" textLength="75.0305" x="670.27" y="387.613">b.justifications</text><text fill="#000000" font-family="'sans-serif'" font-size="11" lengthAdjust="spacing" textLength="81.6304" x="670.27" y="402.5949">(input field of b;</text><text fill="#000000" font-family="'sans-serif'" font-size="11" lengthAdjust="spacing" textLength="87.0644" x="670.27" y="417.5768">seq of {validator,</text><text fill="#000000" font-family="'sans-serif'" font-size="11" lengthAdjust="spacing" textLength="90.0894" x="673.13" y="432.5587">latestBlockHash})</text><text fill="#000000" font-family="'sans-serif'" font-size="11" lengthAdjust="spacing" textLength="185.3927" x="670.27" y="447.5406">&#8212; validated; one entry per validator</text></g><!--entity S--><g class="entity" data-qualified-name="S" data-source-line="38" id="ent0005"><path d="M410.06,204.9141 C410.06,194.9141 475.9671,194.9141 475.9671,194.9141 C475.9671,194.9141 541.8742,194.9141 541.8742,204.9141 L541.8742,258.8598 C541.8742,268.8598 475.9671,268.8598 475.9671,268.8598 C475.9671,268.8598 410.06,268.8598 410.06,258.8598 L410.06,204.9141" fill="#BBDEFB" style="stroke:#1565C0;stroke-width:1;"/><path d="M410.06,204.9141 C410.06,214.9141 475.9671,214.9141 475.9671,214.9141 C475.9671,214.9141 541.8742,214.9141 541.8742,204.9141" fill="none" style="stroke:#1565C0;stroke-width:1;"/><text fill="#000000" font-family="'sans-serif'" font-size="11" lengthAdjust="spacing" textLength="107.0182" x="420.06" y="230.673">CasperSnapshot.dag</text><text fill="#000000" font-family="'sans-serif'" font-size="11" lengthAdjust="spacing" textLength="111.8142" x="420.06" y="245.6549">(pre-loaded DAG view</text><text fill="#000000" font-family="'sans-serif'" font-size="11" lengthAdjust="spacing" textLength="102.5303" x="420.06" y="260.6368">passed alongside b)</text></g><!--entity F1--><g class="entity" data-qualified-name="F1" data-source-line="40" id="ent0006"><rect fill="#FFECB3" height="64.9457" rx="2.5" ry="2.5" style="stroke:#333333;stroke-width:1;" width="150.5801" x="332.68" y="573.7241"/><text fill="#000000" font-family="'sans-serif'" font-size="11" lengthAdjust="spacing" textLength="27.1258" x="342.68" y="595.483">filter:</text><text fill="#000000" font-family="'sans-serif'" font-size="11" lengthAdjust="spacing" textLength="130.5801" x="342.68" y="610.4649">lookup(j.latestBlockHash)</text><text fill="#000000" font-family="'sans-serif'" font-size="11" lengthAdjust="spacing" textLength="107.3366" x="342.68" y="625.4468">exists &#8743; block.invalid</text></g><!--entity AIE--><g class="entity" data-qualified-name="AIE" data-source-line="41" id="ent0007"><rect fill="#FFECB3" height="79.9276" rx="2.5" ry="2.5" style="stroke:#333333;stroke-width:1;" width="195.3607" x="430.28" y="371.8441"/><text fill="#000000" font-family="'sans-serif'" font-size="11" lengthAdjust="spacing" textLength="78.5944" x="440.28" y="393.603">AIE: authorized</text><text fill="#000000" font-family="'sans-serif'" font-size="11" lengthAdjust="spacing" textLength="144.8139" x="440.28" y="408.5849">invalid-block evidence index</text><text fill="#000000" font-family="'sans-serif'" font-size="11" lengthAdjust="spacing" textLength="175.3607" x="440.28" y="423.5668">(post-fix Bug #14 / T-LivenessGap;</text><text fill="#000000" font-family="'sans-serif'" font-size="11" lengthAdjust="spacing" textLength="160.0928" x="440.28" y="438.5487">deploy_epoch_matches_target)</text></g><!--entity F2--><g class="entity" data-qualified-name="F2" data-source-line="42" id="ent0008"><rect fill="#FFECB3" height="64.9457" rx="2.5" ry="2.5" style="stroke:#333333;stroke-width:1;" width="145.4211" x="240.25" y="798.6541"/><text fill="#000000" font-family="'sans-serif'" font-size="11" lengthAdjust="spacing" textLength="32.3178" x="250.25" y="820.413">exists:</text><text fill="#000000" font-family="'sans-serif'" font-size="11" lengthAdjust="spacing" textLength="125.4211" x="250.25" y="835.3949">bonds(b).find(_.validator</text><text fill="#000000" font-family="'sans-serif'" font-size="11" lengthAdjust="spacing" textLength="118.8102" x="255.97" y="850.3768">== j.validator).stake &gt; 0</text></g><!--entity F3--><g class="entity" data-qualified-name="F3" data-source-line="43" id="ent0009"><rect fill="#FFECB3" height="64.9457" rx="2.5" ry="2.5" style="stroke:#333333;stroke-width:1;" width="168.6749" x="154.63" y="199.4141"/><text fill="#000000" font-family="'sans-serif'" font-size="11" lengthAdjust="spacing" textLength="146.431" x="164.63" y="221.173">scan b.body.system_deploys</text><text fill="#000000" font-family="'sans-serif'" font-size="11" lengthAdjust="spacing" textLength="148.6749" x="164.63" y="236.1549">for SystemDeployData::Slash</text><text fill="#000000" font-family="'sans-serif'" font-size="11" lengthAdjust="spacing" textLength="70.0035" x="164.63" y="251.1368">(post-fix only)</text></g><!--entity DET--><g class="entity" data-qualified-name="DET" data-source-line="45" id="ent0010"><rect fill="#FFECB3" height="124.8732" rx="2.5" ry="2.5" style="stroke:#333333;stroke-width:1;" width="208.3828" x="189.77" y="939.5941"/><text fill="#000000" font-family="'sans-serif'" font-size="11" lengthAdjust="spacing" textLength="140.557" x="199.77" y="961.353">detector (Bug #11 / T-9.11):</text><text fill="#000000" font-family="'sans-serif'" font-size="11" lengthAdjust="spacing" textLength="96.3252" x="199.77" y="976.3349">detectable(view) &#8796;</text><text fill="#000000" font-family="'sans-serif'" font-size="11" lengthAdjust="spacing" textLength="134.518" x="205.49" y="991.3168">detected_hash_seen(view)</text><text fill="#000000" font-family="'sans-serif'" font-size="11" lengthAdjust="spacing" textLength="182.6629" x="205.49" y="1006.2987">&#8744; |distinct_child_hashes(view)| &#8805; 2</text><text fill="#000000" font-family="'sans-serif'" font-size="11" lengthAdjust="spacing" textLength="161.337" x="199.77" y="1021.2806">(missing pointers contribute &#8709;;</text><text fill="#000000" font-family="'sans-serif'" font-size="11" lengthAdjust="spacing" textLength="187.7247" x="199.77" y="1036.2625">duplicate paths to one child collapse</text><text fill="#000000" font-family="'sans-serif'" font-size="11" lengthAdjust="spacing" textLength="150.3689" x="199.77" y="1051.2443">before cardinality is checked)</text></g><!--entity IJ--><g class="entity" data-qualified-name="IJ" data-source-line="47" id="ent0011"><rect fill="#FFF8E1" height="37.9819" rx="2.5" ry="2.5" style="stroke:#000000;stroke-width:1;" width="129.3183" x="311.31" y="699.6741"/><polygon fill="#FFF8E1" points="423.6283,704.6741,423.6283,718.6741,435.6283,718.6741,435.6283,710.6741,429.6283,704.6741,423.6283,704.6741" style="stroke:#000000;stroke-width:1;"/><line style="stroke:#000000;stroke-width:1;" x1="429.6283" x2="429.6283" y1="704.6741" y2="710.6741"/><line style="stroke:#000000;stroke-width:1;" x1="435.6283" x2="429.6283" y1="710.6741" y2="710.6741"/><text fill="#000000" font-family="'sans-serif'" font-size="11" lengthAdjust="spacing" textLength="99.3183" x="321.31" y="724.433">invalidJustifications</text></g><!--entity N--><g class="entity" data-qualified-name="N" data-source-line="48" id="ent0012"><rect fill="#FFE0B2" height="52.9638" rx="2.5" ry="2.5" style="stroke:#000000;stroke-width:1;" width="175.9689" x="193.98" y="1125.4741"/><polygon fill="#FFE0B2" points="352.9489,1130.4741,352.9489,1144.4741,364.9489,1144.4741,364.9489,1136.4741,358.9489,1130.4741,352.9489,1130.4741" style="stroke:#000000;stroke-width:1;"/><line style="stroke:#000000;stroke-width:1;" x1="358.9489" x2="358.9489" y1="1130.4741" y2="1136.4741"/><line style="stroke:#000000;stroke-width:1;" x1="364.9489" x2="358.9489" y1="1136.4741" y2="1136.4741"/><text fill="#000000" font-family="'sans-serif'" font-size="11" lengthAdjust="spacing" textLength="145.9689" x="203.98" y="1150.233">neglectedInvalidJustification</text><text fill="#000000" font-family="'sans-serif'" font-size="11" lengthAdjust="spacing" textLength="29.1058" x="203.98" y="1165.2149">: Bool</text></g><!--entity HS--><g class="entity" data-qualified-name="HS" data-source-line="49" id="ent0013"><rect fill="#FFE0B2" height="52.9638" rx="2.5" ry="2.5" style="stroke:#000000;stroke-width:1;" width="165.948" x="42.99" y="490.7641"/><polygon fill="#FFE0B2" points="191.938,495.7641,191.938,509.7641,203.938,509.7641,203.938,501.7641,197.938,495.7641,191.938,495.7641" style="stroke:#000000;stroke-width:1;"/><line style="stroke:#000000;stroke-width:1;" x1="197.938" x2="197.938" y1="495.7641" y2="501.7641"/><line style="stroke:#000000;stroke-width:1;" x1="203.938" x2="197.938" y1="501.7641" y2="501.7641"/><text fill="#000000" font-family="'sans-serif'" font-size="11" lengthAdjust="spacing" textLength="135.948" x="52.99" y="515.523">has_slash_system_deploys</text><text fill="#000000" font-family="'sans-serif'" font-size="11" lengthAdjust="spacing" textLength="77.2085" x="52.99" y="530.5049">: Bool (post-fix)</text></g><!--entity DEC--><g class="entity" data-qualified-name="DEC" data-source-line="51" id="ent0014"><rect fill="#D1C4E9" height="79.9276" rx="2.5" ry="2.5" style="stroke:#333333;stroke-width:1;" width="145.9264" x="104" y="1301.8541"/><text fill="#000000" font-family="'sans-serif'" font-size="11" lengthAdjust="spacing" textLength="45.5947" x="114" y="1323.613">decision:</text><text fill="#000000" font-family="'sans-serif'" font-size="11" lengthAdjust="spacing" textLength="125.9264" x="114" y="1338.5949">if neglected &#8743; &#172;hasSlash</text><text fill="#000000" font-family="'sans-serif'" font-size="11" lengthAdjust="spacing" textLength="57.9696" x="114" y="1353.5768">then Reject</text><text fill="#000000" font-family="'sans-serif'" font-size="11" lengthAdjust="spacing" textLength="57.9036" x="114" y="1368.5587">else Accept</text></g><!--entity OK--><g class="entity" data-qualified-name="OK" data-source-line="53" id="ent0015"><rect fill="#C8E6C9" height="37.9819" rx="2.5" ry="2.5" style="stroke:#000000;stroke-width:1;" width="147.9302" x="12" y="1527.6941"/><polygon fill="#C8E6C9" points="142.9302,1532.6941,142.9302,1546.6941,154.9302,1546.6941,154.9302,1538.6941,148.9302,1532.6941,142.9302,1532.6941" style="stroke:#000000;stroke-width:1;"/><line style="stroke:#000000;stroke-width:1;" x1="148.9302" x2="148.9302" y1="1532.6941" y2="1538.6941"/><line style="stroke:#000000;stroke-width:1;" x1="154.9302" x2="148.9302" y1="1538.6941" y2="1538.6941"/><text fill="#000000" font-family="'sans-serif'" font-size="11" lengthAdjust="spacing" textLength="117.9302" x="22" y="1552.453">Right(ValidBlock::Valid)</text></g><!--entity REJ--><g class="entity" data-qualified-name="REJ" data-source-line="54" id="ent0016"><rect fill="#FFCDD2" height="52.9638" rx="2.5" ry="2.5" style="stroke:#000000;stroke-width:1;" width="148.4142" x="194.76" y="1520.2041"/><polygon fill="#FFCDD2" points="326.1742,1525.2041,326.1742,1539.2041,338.1742,1539.2041,338.1742,1531.2041,332.1742,1525.2041,326.1742,1525.2041" style="stroke:#000000;stroke-width:1;"/><line style="stroke:#000000;stroke-width:1;" x1="332.1742" x2="332.1742" y1="1525.2041" y2="1531.2041"/><line style="stroke:#000000;stroke-width:1;" x1="338.1742" x2="332.1742" y1="1531.2041" y2="1531.2041"/><text fill="#000000" font-family="'sans-serif'" font-size="11" lengthAdjust="spacing" textLength="91.4424" x="204.76" y="1544.963">Left(InvalidBlock::</text><text fill="#000000" font-family="'sans-serif'" font-size="11" lengthAdjust="spacing" textLength="118.4142" x="204.76" y="1559.9449">NeglectedInvalidBlock)</text></g><g class="entity" data-qualified-name="GMN33" data-source-line="74" id="ent0034"><path d="M285.09,1239.4341 L285.09,1337.8141 L250.35,1341.8141 L285.09,1345.8141 L285.09,1444.1986 A0,0 0 0 0 285.09,1444.1986 L518.8498,1444.1986 A0,0 0 0 0 518.8498,1444.1986 L518.8498,1249.4341 L508.8498,1239.4341 L285.09,1239.4341 A0,0 0 0 0 285.09,1239.4341" fill="#FFFFFF" style="stroke:#000000;stroke-width:1;"/><path d="M508.8498,1239.4341 L508.8498,1249.4341 L518.8498,1249.4341 L508.8498,1239.4341" fill="#FFFFFF" style="stroke:#000000;stroke-width:1;"/><text fill="#000000" font-family="'sans-serif'" font-size="11" lengthAdjust="spacing" textLength="139.38" x="291.09" y="1256.193">Pre-fix Scala: rejection fires</text><text fill="#000000" font-family="'sans-serif'" font-size="11" lengthAdjust="spacing" textLength="146.9479" x="291.09" y="1271.1749">whenever neglected = TRUE,</text><text fill="#000000" font-family="'sans-serif'" font-size="11" lengthAdjust="spacing" textLength="156.7159" x="291.09" y="1286.1568">even if b carries a SlashDeploy</text><text fill="#000000" font-family="'sans-serif'" font-size="11" lengthAdjust="spacing" textLength="85.3594" x="291.09" y="1301.1387">for the offender.</text><text fill="#000000" font-family="'sans-serif'" font-size="11" lengthAdjust="spacing" textLength="2.86" x="291.09" y="1316.1206">&#160;</text><text fill="#000000" font-family="'sans-serif'" font-size="11" lengthAdjust="spacing" textLength="165.7688" x="291.09" y="1331.1025">Post-fix Rust + bug fix #9 (T-9.9):</text><text fill="#000000" font-family="'sans-serif'" font-size="11" lengthAdjust="spacing" textLength="91.3543" x="291.09" y="1346.0843">rejection requires</text><text fill="#000000" font-family="'sans-serif'" font-size="11" lengthAdjust="spacing" textLength="207.0398" x="296.81" y="1361.0662">neglected &#8743; &#172;has_slash_system_deploys</text><text fill="#000000" font-family="'sans-serif'" font-size="11" lengthAdjust="spacing" textLength="157.1339" x="291.09" y="1376.0481">i.e. self-correcting blocks pass.</text><text fill="#000000" font-family="'sans-serif'" font-size="11" lengthAdjust="spacing" textLength="2.86" x="291.09" y="1391.03">&#160;</text><text fill="#000000" font-family="'sans-serif'" font-size="11" lengthAdjust="spacing" textLength="151.4579" x="291.09" y="1406.0119">Source: validate.rs:1025-1027</text><text fill="#000000" font-family="'sans-serif'" font-size="11" lengthAdjust="spacing" textLength="190.9146" x="291.09" y="1420.9938">("if neglected_invalid_justification &amp;&amp;</text><text fill="#000000" font-family="'sans-serif'" font-size="11" lengthAdjust="spacing" textLength="149.6429" x="296.81" y="1435.9757">!has_slash_system_deploys").</text></g><!--link B to VG--><g class="link" data-entity-1="ent0002" data-entity-2="ent0003" data-link-type="dependency" data-source-line="56" id="lnk17"><path d="M485.49,116.3641 C528.95,137.4141 585.5199,164.809 635.1199,188.829" fill="none" id="B-to-VG" style="stroke:#1565C0;stroke-width:1;"/><polygon fill="#1565C0" points="640.52,191.4441,634.1633,183.9213,636.0199,189.2648,630.6764,191.1215,640.52,191.4441" style="stroke:#1565C0;stroke-width:1;"/><text fill="#000000" font-family="'sans-serif'" font-size="11" lengthAdjust="spacing" textLength="88.7914" x="577.97" y="158.683">input field access</text></g><!--link VG to J--><g class="link" data-entity-1="ent0003" data-entity-2="ent0004" data-link-type="dependency" data-source-line="57" id="lnk18"><path d="M732.06,271.9341 C738.96,298.6341 746.6578,328.3852 754.0178,356.8452" fill="none" id="VG-to-J" style="stroke:#546E7A;stroke-width:1;"/><polygon fill="#546E7A" points="755.52,362.6541,757.1393,352.9393,754.2681,357.8134,749.3941,354.9422,755.52,362.6541" style="stroke:#546E7A;stroke-width:1;"/><text fill="#000000" font-family="'sans-serif'" font-size="11" lengthAdjust="spacing" textLength="127.4891" x="760.3964" y="314.613">projection cardinality OK</text><text fill="#000000" font-family="'sans-serif'" font-size="11" lengthAdjust="spacing" textLength="150.8419" x="748.72" y="329.5949">(one cited hash per validator)</text></g><!--link J to F1--><g class="link" data-entity-1="ent0004" data-entity-2="ent0006" data-link-type="dependency" data-source-line="58" id="lnk19"><path d="M720.84,461.1741 C691.69,488.7141 652.25,521.9541 611.97,543.7241 C571.94,565.3541 529.1062,578.9606 489.3562,588.7406" fill="none" id="J-to-F1" style="stroke:#1565C0;stroke-width:1;"/><polygon fill="#1565C0" points="483.53,590.1741,493.225,591.9081,488.3852,588.9795,491.3137,584.1397,483.53,590.1741" style="stroke:#1565C0;stroke-width:1;"/></g><!--link S to AIE--><g class="link" data-entity-1="ent0005" data-entity-2="ent0007" data-link-type="dependency" data-source-line="59" id="lnk20"><path d="M486.61,269.3241 C495.32,299.1141 505.9158,335.3853 514.8358,365.8853" fill="none" id="S-to-AIE" style="stroke:#1565C0;stroke-width:1;"/><polygon fill="#1565C0" points="516.52,371.6441,517.8329,361.8831,515.1165,366.8451,510.1545,364.1287,516.52,371.6441" style="stroke:#1565C0;stroke-width:1;"/><text fill="#000000" font-family="'sans-serif'" font-size="11" lengthAdjust="spacing" textLength="56.0116" x="526.1109" y="314.613">authorised</text><text fill="#000000" font-family="'sans-serif'" font-size="11" lengthAdjust="spacing" textLength="96.0733" x="506.08" y="329.5949">invalid-block index</text></g><!--link AIE to F1--><g class="link" data-entity-1="ent0007" data-entity-2="ent0006" data-link-type="dependency" data-source-line="60" id="lnk21"><path d="M503.39,452.2041 C481.04,488.0441 451.6342,535.1725 430.9242,568.3925" fill="none" id="AIE-to-F1" style="stroke:#546E7A;stroke-width:1;"/><polygon fill="#546E7A" points="427.75,573.4841,435.9057,567.9628,430.3952,569.2411,429.1169,563.7306,427.75,573.4841" style="stroke:#546E7A;stroke-width:1;"/><text fill="#000000" font-family="'sans-serif'" font-size="11" lengthAdjust="spacing" textLength="123.8811" x="479.71" y="522.003">invalid-block candidates</text></g><!--link S to F1--><g class="link" data-entity-1="ent0005" data-entity-2="ent0006" data-link-type="dependency" data-source-line="61" id="lnk22"><path d="M409.56,250.9641 C355.95,269.4541 284.02,303.9841 249.97,362.8541 C228.18,400.5141 232.42,420.9441 249.97,460.7641 C271.17,508.8841 312.2608,544.5422 349.1908,569.8522" fill="none" id="S-to-F1" style="stroke:#1565C0;stroke-width:1;"/><polygon fill="#1565C0" points="354.14,573.2441,348.9775,564.8567,350.0157,570.4175,344.4549,571.4557,354.14,573.2441" style="stroke:#1565C0;stroke-width:1;"/><text fill="#000000" font-family="'sans-serif'" font-size="11" lengthAdjust="spacing" textLength="161.4459" x="250.97" y="416.563">s.dag.lookup(j.latestBlockHash)</text></g><!--link F1 to IJ--><g class="link" data-entity-1="ent0006" data-entity-2="ent0011" data-link-type="dependency" data-source-line="62" id="lnk23"><path d="M398.71,639.1541 C393.06,658.6441 387.7107,677.1214 382.9707,693.4714" fill="none" id="F1-to-IJ" style="stroke:#546E7A;stroke-width:1;"/><polygon fill="#546E7A" points="381.3,699.2341,387.6478,691.7038,382.6922,694.4318,379.9642,689.4763,381.3,699.2341" style="stroke:#546E7A;stroke-width:1;"/></g><!--link IJ to F2--><g class="link" data-entity-1="ent0011" data-entity-2="ent0008" data-link-type="dependency" data-source-line="63" id="lnk24"><path d="M365.56,737.9041 C356.2,754.3241 345.1925,773.6122 334.0025,793.2322" fill="none" id="IJ-to-F2" style="stroke:#546E7A;stroke-width:1;"/><polygon fill="#546E7A" points="331.03,798.4441,338.9634,792.6079,333.5071,794.1008,332.0142,788.6445,331.03,798.4441" style="stroke:#546E7A;stroke-width:1;"/></g><!--link F2 to DET--><g class="link" data-entity-1="ent0008" data-entity-2="ent0010" data-link-type="dependency" data-source-line="64" id="lnk25"><path d="M309.39,863.8941 C307,885.1141 304.461,907.7517 301.581,933.3417" fill="none" id="F2-to-DET" style="stroke:#546E7A;stroke-width:1;"/><polygon fill="#546E7A" points="300.91,939.3041,305.8914,930.8079,301.4692,934.3355,297.9416,929.9132,300.91,939.3041" style="stroke:#546E7A;stroke-width:1;"/><text fill="#000000" font-family="'sans-serif'" font-size="11" lengthAdjust="spacing" textLength="138.269" x="306.73" y="906.353">projected justification view</text></g><!--link DET to N--><g class="link" data-entity-1="ent0010" data-entity-2="ent0012" data-link-type="dependency" data-source-line="65" id="lnk26"><path d="M288.95,1064.9041 C287.24,1085.9641 285.9046,1102.3937 284.5546,1119.0537" fill="none" id="DET-to-N" style="stroke:#546E7A;stroke-width:1;"/><polygon fill="#546E7A" points="284.07,1125.0341,288.7838,1116.3866,284.4738,1120.0504,280.81,1115.7404,284.07,1125.0341" style="stroke:#546E7A;stroke-width:1;"/></g><!--link B to F3--><g class="link" data-entity-1="ent0002" data-entity-2="ent0009" data-link-type="dependency" data-source-line="66" id="lnk27"><path d="M396.57,116.2041 C364.46,139.5641 321.8811,170.5432 287.4511,195.6032" fill="none" id="B-to-F3" style="stroke:#1565C0;stroke-width:1;"/><polygon fill="#1565C0" points="282.6,199.1341,292.2305,197.0718,286.6426,196.1917,287.5227,190.6037,282.6,199.1341" style="stroke:#1565C0;stroke-width:1;"/></g><!--link F3 to HS--><g class="link" data-entity-1="ent0009" data-entity-2="ent0013" data-link-type="dependency" data-source-line="67" id="lnk28"><path d="M223.09,264.5541 C217.45,276.1741 211.21,289.5141 205.97,301.8541 C177.46,368.9441 150.679,444.3429 136.679,484.8729" fill="none" id="F3-to-HS" style="stroke:#546E7A;stroke-width:1;"/><polygon fill="#546E7A" points="134.72,490.5441,141.4392,483.3433,136.3525,485.8181,133.8776,480.7313,134.72,490.5441" style="stroke:#546E7A;stroke-width:1;"/></g><!--link N to DEC--><g class="link" data-entity-1="ent0012" data-entity-2="ent0014" data-link-type="dependency" data-source-line="68" id="lnk29"><path d="M267.59,1178.6841 C249.84,1210.4341 222.4077,1259.5169 201.7577,1296.4569" fill="none" id="N-to-DEC" style="stroke:#546E7A;stroke-width:1;"/><polygon fill="#546E7A" points="198.83,1301.6941,206.713,1295.79,201.2697,1297.3297,199.73,1291.8865,198.83,1301.6941" style="stroke:#546E7A;stroke-width:1;"/></g><!--link HS to DEC--><g class="link" data-entity-1="ent0013" data-entity-2="ent0014" data-link-type="dependency" data-source-line="69" id="lnk30"><path d="M126.79,544.0641 C127.68,574.0241 128.97,624.9141 128.97,668.6741 C128.97,668.6741 128.97,668.6741 128.97,1152.9541 C128.97,1205.6341 144.8081,1258.4906 158.7581,1295.9906" fill="none" id="HS-to-DEC" style="stroke:#546E7A;stroke-width:1;"/><polygon fill="#546E7A" points="160.85,1301.6141,161.4611,1291.7842,159.1067,1296.9279,153.9631,1294.5735,160.85,1301.6141" style="stroke:#546E7A;stroke-width:1;"/></g><!--link DEC to OK--><g class="link" data-entity-1="ent0014" data-entity-2="ent0015" data-link-type="dependency" data-source-line="70" id="lnk31"><path d="M159.42,1381.9341 C139.79,1425.6841 111.2964,1489.22 96.6364,1521.89" fill="none" id="DEC-to-OK" style="stroke:#2E7D32;stroke-width:1;"/><polygon fill="#2E7D32" points="94.18,1527.3641,101.514,1520.7905,96.227,1522.8023,94.2152,1517.5153,94.18,1527.3641" style="stroke:#2E7D32;stroke-width:1;"/><text fill="#000000" font-family="'sans-serif'" font-size="11" lengthAdjust="spacing" textLength="34.5288" x="119" y="1486.963">Accept</text></g><!--link DEC to REJ--><g class="link" data-entity-1="ent0014" data-entity-2="ent0016" data-link-type="dependency" data-source-line="71" id="lnk32"><path d="M194.7,1381.9341 C213.14,1422.5741 238.9718,1479.5498 254.7818,1514.4098" fill="none" id="DEC-to-REJ" style="stroke:#C62828;stroke-width:1;"/><polygon fill="#C62828" points="257.26,1519.8741,257.1855,1510.0255,255.1948,1515.3205,249.8998,1513.3298,257.26,1519.8741" style="stroke:#C62828;stroke-width:1;"/><text fill="#000000" font-family="'sans-serif'" font-size="11" lengthAdjust="spacing" textLength="31.3388" x="242.78" y="1486.963">Reject</text></g><?plantuml-src TLPDRzj64BtlhvWeG2gX4Ml9iMCpS03hox4JE86Lvb8Lmf8SIcjJkmntwTXD0lJI8hqMFVPQj8V-YluK_vBEBYc9b1KTR6btEFlcpPktV63ck4184ouaO_fAo9HdV06XMgHAeZHZSviWP1WQBcS9RWk1ZmoWnyEhMQPo6VLLeZ9uE78VkwEo2BDYrNuUxheF-rp95N730wvnUwfURp0SzRQbwkpjx_LtwgamvdbYHagQSqwbDJINkgqn4t5ZUzXO_8JGwJ1cXA5Q1uIb7IVgWm-NkJOY5Y4tGaaDTx_-3XA9XT1Wr1RocYSYQWU92gyedw5b2cFi6nX6CoH-BCm4PoWZdnO1WYH7-jSiORVWY8Zb4Nm7U6Co7Xg8CxK0WfWRxPwOPVpMFR7tP7_uzDW-aMOOMKJe6f0RXwqCHfGsk3jyEjZjsc0UXfWQQ1OOURGGXg2tN3Zb0PUxlzyzw1uKQ2wfY6LuyOkYk8Qos1PZF2DABDP64HLCP9DQXHcu20UdrO3gXvxlkNQDHiETNfUjbTDuT-9NdeDPphC8xdx-Oo9BB56U9gxSTXcciedSw4kpbyz82_j4vDlseTVPUpQHf_9wUkogn-XDfYwBvlGflP2KoDnQZ0JitKa9hD_RhTRcrS-W8brR81QOHA1Y2EWGZU_jruyhQ8yd4X82gqtFalE2w_ddraHIGSigCNe6L3jGzTajf6lQLDQmUCvAeaO7mmvRZKMZppN5ZYLFzLmPB-8pGaHIQ2UAHzIYmV49N0lyC25vQsrxbYWvqo9225ekyTWbBaUfse9O90OpVo8JfQxoj7dfRLH01U2Dq8O6uClVuBhkbNeeE1nrAXnMCX-V3dtWkPchZ4OiciZwoE0rmPCXahWYlB7rA6tQiRY1efzFN3zVYMkKgFK9Judn2DD4tKunLU5ykk0cdAEU6fxDq9GDfKEtWYbAe3839IFT35fUJESsfrv5Lm17Ht2vNcbvsl0hXEUmupWSTRTbrY6N47Y1YcuzVQiDBgO5J59DJ1OmTci3jsJDnVV72T5QBLZ9P2d8qMw5pEenXSDGlbBkdQNSEotV4cDtUP1Wq-gW1NU__MaBAjOncixfoAacXoZsxTxTbt_WKqIq21cQQJWNIH66keZvH4d-WYu1NGYjXPn1geGaiMZo7jAl27AoeRillzZ6BESKKcxc6enoCdT9hHKcf5mayf4OeUNr78AWR7CChyYN2WO6mxSL1jOpMQhdh3QOZOh9d9vLPcVztCgoJxSac4YVhXML54UVLsrgdO58cUh44RZHt-9XM7MoBE75k9AdtiHGQ3gMEYRYzMNY9kk_V-cSKXfqBKkuS1P8qvUG1HHcjcIeJ-a7dVwJuM6LeGincvlcErkacrxVTzytxBXcpAzVMgJzW-5-_x2IwHN6fbdoLQQQoFCD8jr6cPnINGpFND7zmO2A9iTl_r3UT3-sdrkZzQ7geVPkqfhHEiKLzvkDenm-NN9Bnwv9vVLBqgAJbR2aMQtMBRJ5pZQE7NNOU6F9EiJAb_HzNt9sn6nK3HYvd0_rI1hyo9cwldU8YzRMgBsl-YgZeDeHfsUCD5m_jSl8TMfBTZvM514DjPlAtGBCXjIUER_NZz4k8wkf1RqOitFOFAlFICptrgm2QR5uqx2BJaS4gv3fShzujR3xJXoqNsYQCQd8AZAhLtk3sfG0R-W-isuu3dd2_VBzmzOKYume1lX0Ku7NrF3ru1p1sullXuzfapOaq505LZAPG0qSt3GLpaiHrenfiEZ06EqRYyVieKiFlY0QuLi8o5pjpuU7qBJsUjZo6LImPFW-B-70jW7UQXGKB3pqG6CIjqELsVTfwwTEHXhidUt0Z5MUXRXw9K8lqtvdfxlNfZzFQR_PgBh6j5JZjAw0HuySjWTV0zDeUOpg1zi2zZy0?></g></svg>