<?plantuml 1.2026.2?><svg xmlns="http://www.w3.org/2000/svg" xmlns:xlink="http://www.w3.org/1999/xlink" contentStyleType="text/css" data-diagram-type="DESCRIPTION" height="1207px" preserveAspectRatio="none" style="width:697px;height:1207px;background:#FFFFFF;" version="1.1" viewBox="0 0 697 1207" width="697px" zoomAndPan="magnify"><title>Data-flow: justifications &#8594; neglected-invalid-block detection</title><defs/><g><g class="title" data-source-line="27"><text fill="#000000" font-family="'sans-serif'" font-size="22" font-weight="bold" lengthAdjust="spacing" textLength="658.2178" x="15.066" y="38.5181">Data-flow: justifications &#8594; neglected-invalid-block detection</text></g><!--entity B--><g class="entity" data-qualified-name="B" data-source-line="35" id="ent0002"><rect fill="#FFE0B2" height="52.9638" rx="2.5" ry="2.5" style="stroke:#000000;stroke-width:1;" width="121.2003" x="185.87" y="62.9641"/><polygon fill="#FFE0B2" points="290.0703,67.9641,290.0703,81.9641,302.0703,81.9641,302.0703,73.9641,296.0703,67.9641,290.0703,67.9641" style="stroke:#000000;stroke-width:1;"/><line style="stroke:#000000;stroke-width:1;" x1="296.0703" x2="296.0703" y1="67.9641" y2="73.9641"/><line style="stroke:#000000;stroke-width:1;" x1="302.0703" x2="296.0703" y1="73.9641" y2="73.9641"/><text fill="#000000" font-family="'sans-serif'" font-size="11" lengthAdjust="spacing" textLength="37.0368" x="195.87" y="87.723">block b</text><text fill="#000000" font-family="'sans-serif'" font-size="11" lengthAdjust="spacing" textLength="91.2003" x="195.87" y="102.7049">(under validation)</text></g><!--entity J--><g class="entity" data-qualified-name="J" data-source-line="36" id="ent0003"><rect fill="#FFF8E1" height="82.9276" rx="2.5" ry="2.5" style="stroke:#000000;stroke-width:1;" width="122.9494" x="12" y="191.9241"/><polygon fill="#FFF8E1" points="117.9494,196.9241,117.9494,210.9241,129.9494,210.9241,129.9494,202.9241,123.9494,196.9241,117.9494,196.9241" style="stroke:#000000;stroke-width:1;"/><line style="stroke:#000000;stroke-width:1;" x1="123.9494" x2="123.9494" y1="196.9241" y2="202.9241"/><line style="stroke:#000000;stroke-width:1;" x1="129.9494" x2="123.9494" y1="202.9241" y2="202.9241"/><text fill="#000000" font-family="'sans-serif'" font-size="11" lengthAdjust="spacing" textLength="75.0305" x="22" y="216.683">b.justifications</text><text fill="#000000" font-family="'sans-serif'" font-size="11" lengthAdjust="spacing" textLength="81.6304" x="22" y="231.6649">(input field of b;</text><text fill="#000000" font-family="'sans-serif'" font-size="11" lengthAdjust="spacing" textLength="87.0644" x="22" y="246.6468">seq of {validator,</text><text fill="#000000" font-family="'sans-serif'" font-size="11" lengthAdjust="spacing" textLength="90.0894" x="24.86" y="261.6287">latestBlockHash})</text></g><!--entity S--><g class="entity" data-qualified-name="S" data-source-line="37" id="ent0004"><path d="M169.57,206.4141 C169.57,196.4141 235.4771,196.4141 235.4771,196.4141 C235.4771,196.4141 301.3842,196.4141 301.3842,206.4141 L301.3842,260.3598 C301.3842,270.3598 235.4771,270.3598 235.4771,270.3598 C235.4771,270.3598 169.57,270.3598 169.57,260.3598 L169.57,206.4141" fill="#BBDEFB" style="stroke:#1565C0;stroke-width:1;"/><path d="M169.57,206.4141 C169.57,216.4141 235.4771,216.4141 235.4771,216.4141 C235.4771,216.4141 301.3842,216.4141 301.3842,206.4141" fill="none" style="stroke:#1565C0;stroke-width:1;"/><text fill="#000000" font-family="'sans-serif'" font-size="11" lengthAdjust="spacing" textLength="107.0182" x="179.57" y="232.173">CasperSnapshot.dag</text><text fill="#000000" font-family="'sans-serif'" font-size="11" lengthAdjust="spacing" textLength="111.8142" x="179.57" y="247.1549">(pre-loaded DAG view</text><text fill="#000000" font-family="'sans-serif'" font-size="11" lengthAdjust="spacing" textLength="102.5303" x="179.57" y="262.1368">passed alongside b)</text></g><!--entity F1--><g class="entity" data-qualified-name="F1" data-source-line="39" id="ent0005"><rect fill="#FFECB3" height="64.9457" rx="2.5" ry="2.5" style="stroke:#333333;stroke-width:1;" width="150.5801" x="159.18" y="350.8541"/><text fill="#000000" font-family="'sans-serif'" font-size="11" lengthAdjust="spacing" textLength="27.1258" x="169.18" y="372.613">filter:</text><text fill="#000000" font-family="'sans-serif'" font-size="11" lengthAdjust="spacing" textLength="130.5801" x="169.18" y="387.5949">lookup(j.latestBlockHash)</text><text fill="#000000" font-family="'sans-serif'" font-size="11" lengthAdjust="spacing" textLength="107.3366" x="169.18" y="402.5768">exists &#8743; block.invalid</text></g><!--entity F2--><g class="entity" data-qualified-name="F2" data-source-line="40" id="ent0006"><rect fill="#FFECB3" height="64.9457" rx="2.5" ry="2.5" style="stroke:#333333;stroke-width:1;" width="145.4211" x="203.76" y="627.7441"/><text fill="#000000" font-family="'sans-serif'" font-size="11" lengthAdjust="spacing" textLength="32.3178" x="213.76" y="649.503">exists:</text><text fill="#000000" font-family="'sans-serif'" font-size="11" lengthAdjust="spacing" textLength="125.4211" x="213.76" y="664.4849">bonds(b).find(_.validator</text><text fill="#000000" font-family="'sans-serif'" font-size="11" lengthAdjust="spacing" textLength="118.8102" x="219.48" y="679.4668">== j.validator).stake &gt; 0</text></g><!--entity F3--><g class="entity" data-qualified-name="F3" data-source-line="41" id="ent0007"><rect fill="#FFECB3" height="64.9457" rx="2.5" ry="2.5" style="stroke:#333333;stroke-width:1;" width="168.6749" x="336.14" y="200.9141"/><text fill="#000000" font-family="'sans-serif'" font-size="11" lengthAdjust="spacing" textLength="146.431" x="346.14" y="222.673">scan b.body.system_deploys</text><text fill="#000000" font-family="'sans-serif'" font-size="11" lengthAdjust="spacing" textLength="148.6749" x="346.14" y="237.6549">for SystemDeployData::Slash</text><text fill="#000000" font-family="'sans-serif'" font-size="11" lengthAdjust="spacing" textLength="70.0035" x="346.14" y="252.6368">(post-fix only)</text></g><!--entity IJ--><g class="entity" data-qualified-name="IJ" data-source-line="43" id="ent0008"><rect fill="#FFF8E1" height="37.9819" rx="2.5" ry="2.5" style="stroke:#000000;stroke-width:1;" width="129.3183" x="202.82" y="528.7641"/><polygon fill="#FFF8E1" points="315.1383,533.7641,315.1383,547.7641,327.1383,547.7641,327.1383,539.7641,321.1383,533.7641,315.1383,533.7641" style="stroke:#000000;stroke-width:1;"/><line style="stroke:#000000;stroke-width:1;" x1="321.1383" x2="321.1383" y1="533.7641" y2="539.7641"/><line style="stroke:#000000;stroke-width:1;" x1="327.1383" x2="321.1383" y1="539.7641" y2="539.7641"/><text fill="#000000" font-family="'sans-serif'" font-size="11" lengthAdjust="spacing" textLength="99.3183" x="212.82" y="553.523">invalidJustifications</text></g><!--entity N--><g class="entity" data-qualified-name="N" data-source-line="44" id="ent0009"><rect fill="#FFE0B2" height="52.9638" rx="2.5" ry="2.5" style="stroke:#000000;stroke-width:1;" width="175.9689" x="190.49" y="753.6941"/><polygon fill="#FFE0B2" points="349.4589,758.6941,349.4589,772.6941,361.4589,772.6941,361.4589,764.6941,355.4589,758.6941,349.4589,758.6941" style="stroke:#000000;stroke-width:1;"/><line style="stroke:#000000;stroke-width:1;" x1="355.4589" x2="355.4589" y1="758.6941" y2="764.6941"/><line style="stroke:#000000;stroke-width:1;" x1="361.4589" x2="355.4589" y1="764.6941" y2="764.6941"/><text fill="#000000" font-family="'sans-serif'" font-size="11" lengthAdjust="spacing" textLength="145.9689" x="200.49" y="778.453">neglectedInvalidJustification</text><text fill="#000000" font-family="'sans-serif'" font-size="11" lengthAdjust="spacing" textLength="29.1058" x="200.49" y="793.4349">: Bool</text></g><!--entity HS--><g class="entity" data-qualified-name="HS" data-source-line="45" id="ent0010"><rect fill="#FFE0B2" height="52.9638" rx="2.5" ry="2.5" style="stroke:#000000;stroke-width:1;" width="165.948" x="336.5" y="445.8041"/><polygon fill="#FFE0B2" points="485.448,450.8041,485.448,464.8041,497.448,464.8041,497.448,456.8041,491.448,450.8041,485.448,450.8041" style="stroke:#000000;stroke-width:1;"/><line style="stroke:#000000;stroke-width:1;" x1="491.448" x2="491.448" y1="450.8041" y2="456.8041"/><line style="stroke:#000000;stroke-width:1;" x1="497.448" x2="491.448" y1="456.8041" y2="456.8041"/><text fill="#000000" font-family="'sans-serif'" font-size="11" lengthAdjust="spacing" textLength="135.948" x="346.5" y="470.563">has_slash_system_deploys</text><text fill="#000000" font-family="'sans-serif'" font-size="11" lengthAdjust="spacing" textLength="77.2085" x="346.5" y="485.5449">: Bool (post-fix)</text></g><!--entity DEC--><g class="entity" data-qualified-name="DEC" data-source-line="47" id="ent0011"><rect fill="#D1C4E9" height="79.9276" rx="2.5" ry="2.5" style="stroke:#333333;stroke-width:1;" width="145.9264" x="275.51" y="930.0741"/><text fill="#000000" font-family="'sans-serif'" font-size="11" lengthAdjust="spacing" textLength="45.5947" x="285.51" y="951.833">decision:</text><text fill="#000000" font-family="'sans-serif'" font-size="11" lengthAdjust="spacing" textLength="125.9264" x="285.51" y="966.8149">if neglected &#8743; &#172;hasSlash</text><text fill="#000000" font-family="'sans-serif'" font-size="11" lengthAdjust="spacing" textLength="57.9696" x="285.51" y="981.7968">then Reject</text><text fill="#000000" font-family="'sans-serif'" font-size="11" lengthAdjust="spacing" textLength="57.9036" x="285.51" y="996.7787">else Accept</text></g><!--entity OK--><g class="entity" data-qualified-name="OK" data-source-line="49" id="ent0012"><rect fill="#C8E6C9" height="37.9819" rx="2.5" ry="2.5" style="stroke:#000000;stroke-width:1;" width="147.9302" x="183.51" y="1155.9141"/><polygon fill="#C8E6C9" points="314.4402,1160.9141,314.4402,1174.9141,326.4402,1174.9141,326.4402,1166.9141,320.4402,1160.9141,314.4402,1160.9141" style="stroke:#000000;stroke-width:1;"/><line style="stroke:#000000;stroke-width:1;" x1="320.4402" x2="320.4402" y1="1160.9141" y2="1166.9141"/><line style="stroke:#000000;stroke-width:1;" x1="326.4402" x2="320.4402" y1="1166.9141" y2="1166.9141"/><text fill="#000000" font-family="'sans-serif'" font-size="11" lengthAdjust="spacing" textLength="117.9302" x="193.51" y="1180.673">Right(ValidBlock::Valid)</text></g><!--entity REJ--><g class="entity" data-qualified-name="REJ" data-source-line="50" id="ent0013"><rect fill="#FFCDD2" height="52.9638" rx="2.5" ry="2.5" style="stroke:#000000;stroke-width:1;" width="148.4142" x="366.27" y="1148.4241"/><polygon fill="#FFCDD2" points="497.6842,1153.4241,497.6842,1167.4241,509.6842,1167.4241,509.6842,1159.4241,503.6842,1153.4241,497.6842,1153.4241" style="stroke:#000000;stroke-width:1;"/><line style="stroke:#000000;stroke-width:1;" x1="503.6842" x2="503.6842" y1="1153.4241" y2="1159.4241"/><line style="stroke:#000000;stroke-width:1;" x1="509.6842" x2="503.6842" y1="1159.4241" y2="1159.4241"/><text fill="#000000" font-family="'sans-serif'" font-size="11" lengthAdjust="spacing" textLength="91.4424" x="376.27" y="1173.183">Left(InvalidBlock::</text><text fill="#000000" font-family="'sans-serif'" font-size="11" lengthAdjust="spacing" textLength="118.4142" x="376.27" y="1188.1649">NeglectedInvalidBlock)</text></g><g class="entity" data-qualified-name="GMN26" data-source-line="66" id="ent0027"><path d="M456.59,867.6541 L456.59,966.0341 L421.86,970.0341 L456.59,974.0341 L456.59,1072.4186 A0,0 0 0 0 456.59,1072.4186 L690.3498,1072.4186 A0,0 0 0 0 690.3498,1072.4186 L690.3498,877.6541 L680.3498,867.6541 L456.59,867.6541 A0,0 0 0 0 456.59,867.6541" fill="#FFFFFF" style="stroke:#000000;stroke-width:1;"/><path d="M680.3498,867.6541 L680.3498,877.6541 L690.3498,877.6541 L680.3498,867.6541" fill="#FFFFFF" style="stroke:#000000;stroke-width:1;"/><text fill="#000000" font-family="'sans-serif'" font-size="11" lengthAdjust="spacing" textLength="139.38" x="462.59" y="884.413">Pre-fix Scala: rejection fires</text><text fill="#000000" font-family="'sans-serif'" font-size="11" lengthAdjust="spacing" textLength="146.9479" x="462.59" y="899.3949">whenever neglected = TRUE,</text><text fill="#000000" font-family="'sans-serif'" font-size="11" lengthAdjust="spacing" textLength="156.7159" x="462.59" y="914.3768">even if b carries a SlashDeploy</text><text fill="#000000" font-family="'sans-serif'" font-size="11" lengthAdjust="spacing" textLength="85.3594" x="462.59" y="929.3587">for the offender.</text><text fill="#000000" font-family="'sans-serif'" font-size="11" lengthAdjust="spacing" textLength="2.86" x="462.59" y="944.3406">&#160;</text><text fill="#000000" font-family="'sans-serif'" font-size="11" lengthAdjust="spacing" textLength="165.7688" x="462.59" y="959.3225">Post-fix Rust + bug fix #9 (T-9.9):</text><text fill="#000000" font-family="'sans-serif'" font-size="11" lengthAdjust="spacing" textLength="91.3543" x="462.59" y="974.3043">rejection requires</text><text fill="#000000" font-family="'sans-serif'" font-size="11" lengthAdjust="spacing" textLength="207.0398" x="468.31" y="989.2862">neglected &#8743; &#172;has_slash_system_deploys</text><text fill="#000000" font-family="'sans-serif'" font-size="11" lengthAdjust="spacing" textLength="157.1339" x="462.59" y="1004.2681">i.e. self-correcting blocks pass.</text><text fill="#000000" font-family="'sans-serif'" font-size="11" lengthAdjust="spacing" textLength="2.86" x="462.59" y="1019.25">&#160;</text><text fill="#000000" font-family="'sans-serif'" font-size="11" lengthAdjust="spacing" textLength="151.4579" x="462.59" y="1034.2319">Source: validate.rs:1025-1027</text><text fill="#000000" font-family="'sans-serif'" font-size="11" lengthAdjust="spacing" textLength="190.9146" x="462.59" y="1049.2138">("if neglected_invalid_justification &amp;&amp;</text><text fill="#000000" font-family="'sans-serif'" font-size="11" lengthAdjust="spacing" textLength="149.6429" x="468.31" y="1064.1957">!has_slash_system_deploys").</text></g><!--link B to J--><g class="link" data-entity-1="ent0002" data-entity-2="ent0003" data-link-type="dependency" data-source-line="52" id="lnk14"><path d="M215.15,116.1541 C189.54,137.1641 157.4979,163.4476 127.8779,187.7576" fill="none" id="B-to-J" style="stroke:#1565C0;stroke-width:1;"/><polygon fill="#1565C0" points="123.24,191.5641,132.7346,188.9463,127.105,188.392,127.6593,182.7624,123.24,191.5641" style="stroke:#1565C0;stroke-width:1;"/><text fill="#000000" font-family="'sans-serif'" font-size="11" lengthAdjust="spacing" textLength="88.7914" x="176.47" y="158.683">input field access</text></g><!--link J to F1--><g class="link" data-entity-1="ent0003" data-entity-2="ent0005" data-link-type="dependency" data-source-line="53" id="lnk15"><path d="M117.89,275.2041 C143.77,298.9841 171.5024,324.464 195.4724,346.494" fill="none" id="J-to-F1" style="stroke:#1565C0;stroke-width:1;"/><polygon fill="#1565C0" points="199.89,350.5541,195.9703,341.5189,196.2086,347.1707,190.5568,347.409,199.89,350.5541" style="stroke:#1565C0;stroke-width:1;"/></g><!--link S to F1--><g class="link" data-entity-1="ent0004" data-entity-2="ent0005" data-link-type="dependency" data-source-line="54" id="lnk16"><path d="M232.66,270.5541 C231.75,286.0441 231.07,304.3341 231.47,320.8541 C231.71,330.4641 231.8538,334.9314 232.3238,344.4414" fill="none" id="S-to-F1" style="stroke:#1565C0;stroke-width:1;"/><polygon fill="#1565C0" points="232.62,350.4341,236.1709,341.2476,232.3732,345.4402,228.1806,341.6425,232.62,350.4341" style="stroke:#1565C0;stroke-width:1;"/><text fill="#000000" font-family="'sans-serif'" font-size="11" lengthAdjust="spacing" textLength="161.4459" x="232.47" y="317.613">s.dag.lookup(j.latestBlockHash)</text></g><!--link F1 to IJ--><g class="link" data-entity-1="ent0005" data-entity-2="ent0008" data-link-type="dependency" data-source-line="55" id="lnk17"><path d="M240.92,416.0341 C247.71,449.4541 256.9751,495.0843 262.5251,522.3943" fill="none" id="F1-to-IJ" style="stroke:#546E7A;stroke-width:1;"/><polygon fill="#546E7A" points="263.72,528.2741,265.8475,518.6578,262.7242,523.3743,258.0078,520.251,263.72,528.2741" style="stroke:#546E7A;stroke-width:1;"/></g><!--link IJ to F2--><g class="link" data-entity-1="ent0008" data-entity-2="ent0006" data-link-type="dependency" data-source-line="56" id="lnk18"><path d="M268.96,566.9941 C270.3,583.4141 271.8023,601.934 273.4023,621.554" fill="none" id="IJ-to-F2" style="stroke:#546E7A;stroke-width:1;"/><polygon fill="#546E7A" points="273.89,627.5341,277.1452,618.2388,273.4836,622.5506,269.1717,618.889,273.89,627.5341" style="stroke:#546E7A;stroke-width:1;"/></g><!--link F2 to N--><g class="link" data-entity-1="ent0006" data-entity-2="ent0009" data-link-type="dependency" data-source-line="57" id="lnk19"><path d="M277.02,693.1441 C277.34,712.1041 277.6385,729.845 277.9385,747.575" fill="none" id="F2-to-N" style="stroke:#546E7A;stroke-width:1;"/><polygon fill="#546E7A" points="278.04,753.5741,281.8872,744.5077,277.9554,748.5748,273.8883,744.6431,278.04,753.5741" style="stroke:#546E7A;stroke-width:1;"/></g><!--link B to F3--><g class="link" data-entity-1="ent0002" data-entity-2="ent0007" data-link-type="dependency" data-source-line="58" id="lnk20"><path d="M277.98,116.1541 C307.07,139.8741 345.7103,171.402 376.9403,196.872" fill="none" id="B-to-F3" style="stroke:#1565C0;stroke-width:1;"/><polygon fill="#1565C0" points="381.59,200.6641,377.1435,191.8761,377.7152,197.504,372.0874,198.0757,381.59,200.6641" style="stroke:#1565C0;stroke-width:1;"/></g><!--link F3 to HS--><g class="link" data-entity-1="ent0007" data-entity-2="ent0010" data-link-type="dependency" data-source-line="59" id="lnk21"><path d="M420.34,266.3441 C420.14,313.8241 419.7962,396.0942 419.6062,439.6342" fill="none" id="F3-to-HS" style="stroke:#546E7A;stroke-width:1;"/><polygon fill="#546E7A" points="419.58,445.6341,423.6192,436.6516,419.6018,440.6341,415.6193,436.6167,419.58,445.6341" style="stroke:#546E7A;stroke-width:1;"/></g><!--link N to DEC--><g class="link" data-entity-1="ent0009" data-entity-2="ent0011" data-link-type="dependency" data-source-line="60" id="lnk22"><path d="M288.06,806.9041 C299.89,838.6541 318.0356,887.3515 331.7956,924.2915" fill="none" id="N-to-DEC" style="stroke:#546E7A;stroke-width:1;"/><polygon fill="#546E7A" points="333.89,929.9141,334.4968,920.084,332.1447,925.2286,327,922.8765,333.89,929.9141" style="stroke:#546E7A;stroke-width:1;"/></g><!--link HS to DEC--><g class="link" data-entity-1="ent0010" data-entity-2="ent0011" data-link-type="dependency" data-source-line="61" id="lnk23"><path d="M419.47,498.8241 C419.47,523.7841 419.47,562.8841 419.47,596.7441 C419.47,596.7441 419.47,596.7441 419.47,781.1741 C419.47,835.2141 396.3658,887.4402 375.8258,924.3802" fill="none" id="HS-to-DEC" style="stroke:#546E7A;stroke-width:1;"/><polygon fill="#546E7A" points="372.91,929.6241,380.7796,923.7022,375.3398,925.2542,373.7878,919.8144,372.91,929.6241" style="stroke:#546E7A;stroke-width:1;"/></g><!--link DEC to OK--><g class="link" data-entity-1="ent0011" data-entity-2="ent0012" data-link-type="dependency" data-source-line="62" id="lnk24"><path d="M330.93,1010.1541 C311.3,1053.9041 282.8064,1117.44 268.1464,1150.11" fill="none" id="DEC-to-OK" style="stroke:#2E7D32;stroke-width:1;"/><polygon fill="#2E7D32" points="265.69,1155.5841,273.024,1149.0105,267.737,1151.0223,265.7252,1145.7353,265.69,1155.5841" style="stroke:#2E7D32;stroke-width:1;"/><text fill="#000000" font-family="'sans-serif'" font-size="11" lengthAdjust="spacing" textLength="34.5288" x="290.51" y="1115.183">Accept</text></g><!--link DEC to REJ--><g class="link" data-entity-1="ent0011" data-entity-2="ent0013" data-link-type="dependency" data-source-line="63" id="lnk25"><path d="M366.21,1010.1541 C384.65,1050.7941 410.4818,1107.7698 426.2918,1142.6298" fill="none" id="DEC-to-REJ" style="stroke:#C62828;stroke-width:1;"/><polygon fill="#C62828" points="428.77,1148.0941,428.6955,1138.2455,426.7048,1143.5405,421.4098,1141.5498,428.77,1148.0941" style="stroke:#C62828;stroke-width:1;"/><text fill="#000000" font-family="'sans-serif'" font-size="11" lengthAdjust="spacing" textLength="31.3388" x="414.29" y="1115.183">Reject</text></g><?plantuml-src TLRRSjis47t7LspacLIQXgmbnpTsd1dhLblDk1qpxKlLqO3aKeOD0Ge0sLOpUUtakJ_Hbtv5FwLVqWL8svIjy46NnUx1sRCNwPMxmWN2KdAX6BCtGYsvuGl8zMAf5IgNkhL4C9WxhkOIjxd09mRGv_dDtEYLAWPQQWCxu_3u4sqAD9NLFpjxuM6V6rW5TppZ5hT3zVl3qRY_3QgxVx0_sDs4mfAlf1jhvIuufTQoNDd8eX5bQxjRAlv0w7OPSy9HhaFY4fLItoLmlR9Eb2BdJcXbuRy__mA5f4Bki8Y4kkLI554cTNv3U8xCvCRODp0gvaZwU9eIvwYAX8m0cLmXlRLhsXqu8M5v0Ty1tZl3SmUbqGiWYYjdGyJSy7M8s7zxC3eyzH5BWuLdXA40AnUurSw8oZltHeV3lPvtvdcEImVjYYCl5i8HzKvm9nm8s8E3tb7lg69pJKayk5VVo8jRg9FjCCODIUAvjYglRAhQL2eq43m2dKuBcW_5zqEvnkFHRh_NX8Wt9IQia3sK0cK1keJi-wco-D5__5HVeCsRgG994bZNznpEkBtwJ7VIFPFwdl7HgCiUkweru7Q99bLyQQ-qYmi-fvj8oKXgNb26mzCVu5RWtPIwmrgVijHgRaM1a5N0QG2kEv4zzNwh5DAXIQPAQdspMhQlusVCEbE5zy8wwfylVqCGBQxbR0LjnjrQcq5_hubSHH5ofbLXsradBeKgshFuKGUI0KvEuFh9qecjupS8xs0tq1xtjY7Rd2l8uamNwzYkhSF5hC2br6igG4bDcmRRC9ZyE2H9AYaJhvcsBYh5FMWbrvsQ_rw3VwEuTPAJZGgt6arnFcaKwodkSSJEjm1CLK9hGClgweljRNN5xSnwnhFdsLN1y9X7dS9Psi1fAbLWBYnTIrKGvTFmXrB--m_TKmj3QrJ1PHWOAhUadZiDerV13qS3WXzs1sz7nqs5BiNyohL_zKc6TacIyFdP-6mCqay_UgQ3ez71uBY1z1vBrwxrgg6cwkAPaE6W1YUeoz4a93qO3Ybfcj3ejtep_HwzyvEKG7CO_IwnbasU-OsxB7rXeb3hfop-wb0mSgAWQg_veFC9etxOC8rxZFftmtJnWkTuZr43RZYTfUm2DarK0KP5Vc7pbI5ZjJ6zCUXBzAloFPnNAzAV1z7elAerOqhJ9ZQ-Zdv5UKY0dscn-1b9SovvKkzHQY8Iqg0bXplg5hobbVdKK2VmuVANqHiwf0C5r6mPvDmOWHOuX2whvf4y_8XImz659VhD6pD_wSDaNjAumBUGhURWl-uSG_j3T1mVTn863Iu6FwvgEh2jiRSE43cB66EmACieryR_Bn1gNcqr2tvv1ZAfNfaSauUV18oDJRgxlVs8NWxflDrgJjEitXIpZHy3UFqwS7lrDJAjJimeV_0bOFy3?></g></svg>