<?plantuml 1.2026.2?><svg xmlns="http://www.w3.org/2000/svg" xmlns:xlink="http://www.w3.org/1999/xlink" contentStyleType="text/css" data-diagram-type="DESCRIPTION" height="1024px" preserveAspectRatio="none" style="width:1350px;height:1024px;background:#FFFFFF;" version="1.1" viewBox="0 0 1350 1024" width="1350px" zoomAndPan="magnify"><title>Specification &#8596; Rocq &#8596; TLA+ &#8596; Rust correspondence</title><defs/><g><g class="title" data-source-line="35"><text fill="#000000" font-family="'monospace'" font-size="22" font-weight="bold" lengthAdjust="spacing" textLength="568.5186" x="386.2407" y="38.5181">Specification &#8596; Rocq &#8596; TLA+ &#8596; Rust correspondence</text></g><!--cluster Detection layer--><g class="cluster" data-qualified-name="Detection layer" data-source-line="59" id="ent0002"><path d="M113.5,82.3941 L191.0599,82.3941 A3.75,3.75 0 0 1 193.5599,84.8941 L200.5599,102.0141 L631.5,102.0141 A2.5,2.5 0 0 1 634,104.5141 L634,451.7641 A2.5,2.5 0 0 1 631.5,454.2641 L113.5,454.2641 A2.5,2.5 0 0 1 111,451.7641 L111,84.8941 A2.5,2.5 0 0 1 113.5,82.3941" fill="#FFF7EE" style="stroke:#444444;stroke-width:1;"/><line style="stroke:#444444;stroke-width:1;" x1="111" x2="200.5599" y1="102.0141" y2="102.0141"/><text fill="#000000" font-family="'monospace'" font-size="10" font-weight="bold" lengthAdjust="spacing" textLength="76.5599" x="115" y="95.0841">Detection layer</text><text fill="#000000" font-family="'monospace'" font-size="10" font-style="italic" lengthAdjust="spacing" textLength="51.3599" x="350.82" y="114.7041">&#171;Detection&#187;</text></g><!--cluster Storage layer--><g class="cluster" data-qualified-name="Storage layer" data-source-line="65" id="ent0006"><path d="M13.5,478.2641 L81.0699,478.2641 A3.75,3.75 0 0 1 83.5699,480.7641 L90.5699,497.8841 L713.5,497.8841 A2.5,2.5 0 0 1 716,500.3841 L716,827.2041 A2.5,2.5 0 0 1 713.5,829.7041 L13.5,829.7041 A2.5,2.5 0 0 1 11,827.2041 L11,480.7641 A2.5,2.5 0 0 1 13.5,478.2641" fill="#EEFAF1" style="stroke:#444444;stroke-width:1;"/><line style="stroke:#444444;stroke-width:1;" x1="11" x2="90.5699" y1="497.8841" y2="497.8841"/><text fill="#000000" font-family="'monospace'" font-size="10" font-weight="bold" lengthAdjust="spacing" textLength="66.5699" x="15" y="490.9541">Storage layer</text><text fill="#000000" font-family="'monospace'" font-size="10" font-style="italic" lengthAdjust="spacing" textLength="43.9799" x="345.51" y="510.5741">&#171;Storage&#187;</text></g><!--cluster Proposing layer--><g class="cluster" data-qualified-name="Proposing layer" data-source-line="71" id="ent0010"><path d="M742.5,290.5441 L821.5499,290.5441 A3.75,3.75 0 0 1 824.0499,293.0441 L831.0499,310.1641 L1059.5,310.1641 A2.5,2.5 0 0 1 1062,312.6641 L1062,639.4841 A2.5,2.5 0 0 1 1059.5,641.9841 L742.5,641.9841 A2.5,2.5 0 0 1 740,639.4841 L740,293.0441 A2.5,2.5 0 0 1 742.5,290.5441" fill="#EEF2FF" style="stroke:#444444;stroke-width:1;"/><line style="stroke:#444444;stroke-width:1;" x1="740" x2="831.0499" y1="310.1641" y2="310.1641"/><text fill="#000000" font-family="'monospace'" font-size="10" font-weight="bold" lengthAdjust="spacing" textLength="78.0499" x="744" y="303.2341">Proposing layer</text><text fill="#000000" font-family="'monospace'" font-size="10" font-style="italic" lengthAdjust="spacing" textLength="54.7199" x="877.64" y="322.8541">&#171;Proposing&#187;</text></g><!--cluster Effect layer--><g class="cluster" data-qualified-name="Effect layer" data-source-line="76" id="ent0013"><path d="M758.5,665.9841 L816.0299,665.9841 A3.75,3.75 0 0 1 818.5299,668.4841 L825.5299,685.6041 L1043.5,685.6041 A2.5,2.5 0 0 1 1046,688.1041 L1046,827.2041 A2.5,2.5 0 0 1 1043.5,829.7041 L758.5,829.7041 A2.5,2.5 0 0 1 756,827.2041 L756,668.4841 A2.5,2.5 0 0 1 758.5,665.9841" fill="#F3E5F5" style="stroke:#444444;stroke-width:1;"/><line style="stroke:#444444;stroke-width:1;" x1="756" x2="825.5299" y1="685.6041" y2="685.6041"/><text fill="#000000" font-family="'monospace'" font-size="10" font-weight="bold" lengthAdjust="spacing" textLength="56.5299" x="760" y="678.6741">Effect layer</text><text fill="#000000" font-family="'monospace'" font-size="10" font-style="italic" lengthAdjust="spacing" textLength="33.8799" x="888.06" y="698.2941">&#171;Effect&#187;</text></g><!--cluster Fork-choice layer--><g class="cluster" data-qualified-name="Fork-choice layer" data-source-line="80" id="ent0015"><path d="M793.5,853.7041 L879.8599,853.7041 A3.75,3.75 0 0 1 882.3599,856.2041 L889.3599,873.3241 L1008.5,873.3241 A2.5,2.5 0 0 1 1011,875.8241 L1011,1014.9241 A2.5,2.5 0 0 1 1008.5,1017.4241 L793.5,1017.4241 A2.5,2.5 0 0 1 791,1014.9241 L791,856.2041 A2.5,2.5 0 0 1 793.5,853.7041" fill="#E3F2FD" style="stroke:#444444;stroke-width:1;"/><line style="stroke:#444444;stroke-width:1;" x1="791" x2="889.3599" y1="873.3241" y2="873.3241"/><text fill="#000000" font-family="'monospace'" font-size="10" font-weight="bold" lengthAdjust="spacing" textLength="85.3599" x="795" y="866.3941">Fork-choice layer</text><text fill="#000000" font-family="'monospace'" font-size="10" font-style="italic" lengthAdjust="spacing" textLength="58.2599" x="875.87" y="886.0141">&#171;ForkChoice&#187;</text></g><!--cluster Bug-fix proofs--><g class="cluster" data-qualified-name="Bug-fix proofs" data-source-line="84" id="ent0017"><path d="M1063.5,61.9641 L1134.5899,61.9641 A3.75,3.75 0 0 1 1137.0899,64.4641 L1144.0899,81.5841 L1340.5,81.5841 A2.5,2.5 0 0 1 1343,84.0841 L1343,264.0441 A2.5,2.5 0 0 1 1340.5,266.5441 L1063.5,266.5441 A2.5,2.5 0 0 1 1061,264.0441 L1061,64.4641 A2.5,2.5 0 0 1 1063.5,61.9641" fill="#FFEBEE" style="stroke:#444444;stroke-width:1;"/><line style="stroke:#444444;stroke-width:1;" x1="1061" x2="1144.0899" y1="81.5841" y2="81.5841"/><text fill="#000000" font-family="'monospace'" font-size="10" font-weight="bold" lengthAdjust="spacing" textLength="70.0899" x="1065" y="74.6541">Bug-fix proofs</text><text fill="#000000" font-family="'monospace'" font-size="10" font-style="italic" lengthAdjust="spacing" textLength="39.3" x="1186.35" y="94.2741">&#171;BugFix&#187;</text></g><!--cluster Top-level theorem--><g class="cluster" data-qualified-name="Top-level theorem" data-source-line="88" id="ent0019"><path d="M1088.5,297.3541 L1180.4999,297.3541 A3.75,3.75 0 0 1 1182.9999,299.8541 L1189.9999,316.9741 L1315.5,316.9741 A2.5,2.5 0 0 1 1318,319.4741 L1318,444.9541 A2.5,2.5 0 0 1 1315.5,447.4541 L1088.5,447.4541 A2.5,2.5 0 0 1 1086,444.9541 L1086,299.8541 A2.5,2.5 0 0 1 1088.5,297.3541" fill="#E8F5E9" style="stroke:#444444;stroke-width:1;"/><line style="stroke:#444444;stroke-width:1;" x1="1086" x2="1189.9999" y1="316.9741" y2="316.9741"/><text fill="#000000" font-family="'monospace'" font-size="10" font-weight="bold" lengthAdjust="spacing" textLength="90.9999" x="1090" y="310.0441">Top-level theorem</text><text fill="#000000" font-family="'monospace'" font-size="10" font-style="italic" lengthAdjust="spacing" textLength="48.6799" x="1181.66" y="329.6641">&#171;Theorem&#187;</text></g><!--entity D--><g class="entity" data-qualified-name="Detection layer.D" data-source-line="60" id="ent0003"><rect fill="#FFECB3" height="101.7199" rx="2.5" ry="2.5" style="stroke:#333333;stroke-width:1;" width="236.8898" x="126.56" y="128.3941"/><text fill="#000000" font-family="'monospace'" font-size="10" lengthAdjust="spacing" textLength="101.2099" x="136.56" y="149.0841">EquivocationDetector</text><text fill="#000000" font-family="'monospace'" font-size="10" lengthAdjust="spacing" textLength="168.5742" x="136.56" y="162.7041">&#9472;&#9472;&#9472;&#9472;&#9472;&#9472;&#9472;&#9472;&#9472;&#9472;&#9472;&#9472;&#9472;&#9472;&#9472;&#9472;&#9472;&#9472;&#9472;&#9472;&#9472;&#9472;&#9472;&#9472;&#9472;&#9472;&#9472;&#9472;</text><text fill="#000000" font-family="'monospace'" font-size="10" lengthAdjust="spacing" textLength="37.43" x="136.56" y="176.3241">spec  &#167;4</text><text fill="#000000" font-family="'monospace'" font-size="10" lengthAdjust="spacing" textLength="137.3899" x="136.56" y="189.9441">Rocq  EquivocationDetector.v</text><text fill="#000000" font-family="'monospace'" font-size="10" lengthAdjust="spacing" textLength="143.7999" x="136.56" y="203.564">TLA+  EquivocationDetector.tla</text><text fill="#000000" font-family="'monospace'" font-size="10" lengthAdjust="spacing" textLength="216.8898" x="136.56" y="217.184">Rust  casper/src/rust/equivocation_detector.rs</text></g><!--entity V--><g class="entity" data-qualified-name="Detection layer.V" data-source-line="61" id="ent0004"><rect fill="#FFECB3" height="101.7199" rx="2.5" ry="2.5" style="stroke:#333333;stroke-width:1;" width="219.6398" x="398.18" y="128.3941"/><text fill="#000000" font-family="'monospace'" font-size="10" lengthAdjust="spacing" textLength="71.3" x="408.18" y="149.0841">Validate (block)</text><text fill="#000000" font-family="'monospace'" font-size="10" lengthAdjust="spacing" textLength="168.5742" x="408.18" y="162.7041">&#9472;&#9472;&#9472;&#9472;&#9472;&#9472;&#9472;&#9472;&#9472;&#9472;&#9472;&#9472;&#9472;&#9472;&#9472;&#9472;&#9472;&#9472;&#9472;&#9472;&#9472;&#9472;&#9472;&#9472;&#9472;&#9472;&#9472;&#9472;</text><text fill="#000000" font-family="'monospace'" font-size="10" lengthAdjust="spacing" textLength="54.2299" x="408.18" y="176.3241">spec  &#167;3.1.1</text><text fill="#000000" font-family="'monospace'" font-size="10" lengthAdjust="spacing" textLength="93.0199" x="408.18" y="189.9441">Rocq  InvalidBlock.v</text><text fill="#000000" font-family="'monospace'" font-size="10" lengthAdjust="spacing" textLength="199.6398" x="408.18" y="203.564">TLA+  EquivocationDetector.tla (taxonomy)</text><text fill="#000000" font-family="'monospace'" font-size="10" lengthAdjust="spacing" textLength="149.1699" x="408.18" y="217.184">Rust  casper/src/rust/validate.rs</text></g><!--entity C--><g class="entity" data-qualified-name="Detection layer.C" data-source-line="62" id="ent0005"><rect fill="#FFECB3" height="101.7199" rx="2.5" ry="2.5" style="stroke:#333333;stroke-width:1;" width="253.0298" x="144.49" y="336.5441"/><text fill="#000000" font-family="'monospace'" font-size="10" lengthAdjust="spacing" textLength="109.3499" x="154.49" y="357.2341">MultiParentCasperImpl</text><text fill="#000000" font-family="'monospace'" font-size="10" lengthAdjust="spacing" textLength="168.5742" x="154.49" y="370.8541">&#9472;&#9472;&#9472;&#9472;&#9472;&#9472;&#9472;&#9472;&#9472;&#9472;&#9472;&#9472;&#9472;&#9472;&#9472;&#9472;&#9472;&#9472;&#9472;&#9472;&#9472;&#9472;&#9472;&#9472;&#9472;&#9472;&#9472;&#9472;</text><text fill="#000000" font-family="'monospace'" font-size="10" lengthAdjust="spacing" textLength="70.3599" x="154.49" y="384.4741">spec  &#167;3.1.3, &#167;7</text><text fill="#000000" font-family="'monospace'" font-size="10" lengthAdjust="spacing" textLength="200.9998" x="154.49" y="398.0941">Rocq  EquivocationDetector.v + DAGState.v</text><text fill="#000000" font-family="'monospace'" font-size="10" lengthAdjust="spacing" textLength="197.1098" x="154.49" y="411.714">TLA+  SlashFlow.tla, ConcurrentTracker.tla</text><text fill="#000000" font-family="'monospace'" font-size="10" lengthAdjust="spacing" textLength="233.0298" x="154.49" y="425.334">Rust  casper/src/rust/multi_parent_casper_impl.rs</text></g><!--entity DS--><g class="entity" data-qualified-name="Storage layer.DS" data-source-line="66" id="ent0007"><rect fill="#C8E6C9" height="101.7199" rx="2.5" ry="2.5" style="stroke:#333333;stroke-width:1;" width="324.6797" x="26.66" y="524.2641"/><text fill="#000000" font-family="'monospace'" font-size="10" lengthAdjust="spacing" textLength="81.0099" x="36.66" y="544.9541">BlockDagStorage</text><text fill="#000000" font-family="'monospace'" font-size="10" lengthAdjust="spacing" textLength="168.5742" x="36.66" y="558.5741">&#9472;&#9472;&#9472;&#9472;&#9472;&#9472;&#9472;&#9472;&#9472;&#9472;&#9472;&#9472;&#9472;&#9472;&#9472;&#9472;&#9472;&#9472;&#9472;&#9472;&#9472;&#9472;&#9472;&#9472;&#9472;&#9472;&#9472;&#9472;</text><text fill="#000000" font-family="'monospace'" font-size="10" lengthAdjust="spacing" textLength="54.2299" x="36.66" y="572.1941">spec  &#167;3.2.1</text><text fill="#000000" font-family="'monospace'" font-size="10" lengthAdjust="spacing" textLength="81.1099" x="36.66" y="585.8141">Rocq  DAGState.v</text><text fill="#000000" font-family="'monospace'" font-size="10" lengthAdjust="spacing" textLength="88.9199" x="36.66" y="599.434">TLA+  SlashFlow.tla</text><text fill="#000000" font-family="'monospace'" font-size="10" lengthAdjust="spacing" textLength="304.6797" x="36.66" y="613.054">Rust  block-storage/src/rust/dag/block_dag_key_value_storage.rs</text></g><!--entity Tk--><g class="entity" data-qualified-name="Storage layer.Tk" data-source-line="67" id="ent0008"><rect fill="#C8E6C9" height="101.7199" rx="2.5" ry="2.5" style="stroke:#333333;stroke-width:1;" width="313.8098" x="386.1" y="524.2641"/><text fill="#000000" font-family="'monospace'" font-size="10" lengthAdjust="spacing" textLength="120.5599" x="396.1" y="544.9541">EquivocationTrackerStore</text><text fill="#000000" font-family="'monospace'" font-size="10" lengthAdjust="spacing" textLength="168.5742" x="396.1" y="558.5741">&#9472;&#9472;&#9472;&#9472;&#9472;&#9472;&#9472;&#9472;&#9472;&#9472;&#9472;&#9472;&#9472;&#9472;&#9472;&#9472;&#9472;&#9472;&#9472;&#9472;&#9472;&#9472;&#9472;&#9472;&#9472;&#9472;&#9472;&#9472;</text><text fill="#000000" font-family="'monospace'" font-size="10" lengthAdjust="spacing" textLength="54.2299" x="396.1" y="572.1941">spec  &#167;3.2.2</text><text fill="#000000" font-family="'monospace'" font-size="10" lengthAdjust="spacing" textLength="129.5999" x="396.1" y="585.8141">Rocq  EquivocationRecord.v</text><text fill="#000000" font-family="'monospace'" font-size="10" lengthAdjust="spacing" textLength="131.0199" x="396.1" y="599.434">TLA+  ConcurrentTracker.tla</text><text fill="#000000" font-family="'monospace'" font-size="10" lengthAdjust="spacing" textLength="293.8098" x="396.1" y="613.054">Rust  block-storage/src/rust/dag/equivocation_tracker_store.rs</text></g><!--entity DepS--><g class="entity" data-qualified-name="Storage layer.DepS" data-source-line="68" id="ent0009"><rect fill="#C8E6C9" height="101.7199" rx="2.5" ry="2.5" style="stroke:#333333;stroke-width:1;" width="322.8397" x="27.58" y="711.9841"/><text fill="#000000" font-family="'monospace'" font-size="10" lengthAdjust="spacing" textLength="69.4999" x="37.58" y="732.6741">DeployStorage</text><text fill="#000000" font-family="'monospace'" font-size="10" lengthAdjust="spacing" textLength="168.5742" x="37.58" y="746.2941">&#9472;&#9472;&#9472;&#9472;&#9472;&#9472;&#9472;&#9472;&#9472;&#9472;&#9472;&#9472;&#9472;&#9472;&#9472;&#9472;&#9472;&#9472;&#9472;&#9472;&#9472;&#9472;&#9472;&#9472;&#9472;&#9472;&#9472;&#9472;</text><text fill="#000000" font-family="'monospace'" font-size="10" lengthAdjust="spacing" textLength="110.7699" x="37.58" y="759.9141">spec  &#167;3.2.3, &#167;10 (fix #8)</text><text fill="#000000" font-family="'monospace'" font-size="10" lengthAdjust="spacing" textLength="209.6498" x="37.58" y="773.5341">Rocq  BugFixUnbondedProposer.v (adjacent)</text><text fill="#000000" font-family="'monospace'" font-size="10" lengthAdjust="spacing" textLength="49.62" x="37.58" y="787.154">TLA+  (n/a)</text><text fill="#000000" font-family="'monospace'" font-size="10" lengthAdjust="spacing" textLength="302.8397" x="37.58" y="800.774">Rust  block-storage/src/rust/deploy/key_value_deploy_storage.rs</text></g><!--entity BC--><g class="entity" data-qualified-name="Proposing layer.BC" data-source-line="72" id="ent0011"><rect fill="#B2DFDB" height="101.7199" rx="2.5" ry="2.5" style="stroke:#333333;stroke-width:1;" width="275.8798" x="756.06" y="336.5441"/><text fill="#000000" font-family="'monospace'" font-size="10" lengthAdjust="spacing" textLength="60.7599" x="766.06" y="357.2341">BlockCreator</text><text fill="#000000" font-family="'monospace'" font-size="10" lengthAdjust="spacing" textLength="168.5742" x="766.06" y="370.8541">&#9472;&#9472;&#9472;&#9472;&#9472;&#9472;&#9472;&#9472;&#9472;&#9472;&#9472;&#9472;&#9472;&#9472;&#9472;&#9472;&#9472;&#9472;&#9472;&#9472;&#9472;&#9472;&#9472;&#9472;&#9472;&#9472;&#9472;&#9472;</text><text fill="#000000" font-family="'monospace'" font-size="10" lengthAdjust="spacing" textLength="54.2299" x="766.06" y="384.4741">spec  &#167;3.3.1</text><text fill="#000000" font-family="'monospace'" font-size="10" lengthAdjust="spacing" textLength="96.9399" x="766.06" y="398.0941">Rocq  BlockCreator.v</text><text fill="#000000" font-family="'monospace'" font-size="10" lengthAdjust="spacing" textLength="88.9199" x="766.06" y="411.714">TLA+  SlashFlow.tla</text><text fill="#000000" font-family="'monospace'" font-size="10" lengthAdjust="spacing" textLength="255.8798" x="766.06" y="425.334">Rust  casper/src/rust/blocks/proposer/block_creator.rs</text></g><!--entity SD--><g class="entity" data-qualified-name="Proposing layer.SD" data-source-line="73" id="ent0012"><rect fill="#B2DFDB" height="101.7199" rx="2.5" ry="2.5" style="stroke:#333333;stroke-width:1;" width="289.8198" x="756.09" y="524.2641"/><text fill="#000000" font-family="'monospace'" font-size="10" lengthAdjust="spacing" textLength="57.4699" x="766.09" y="544.9541">SlashDeploy</text><text fill="#000000" font-family="'monospace'" font-size="10" lengthAdjust="spacing" textLength="168.5742" x="766.09" y="558.5741">&#9472;&#9472;&#9472;&#9472;&#9472;&#9472;&#9472;&#9472;&#9472;&#9472;&#9472;&#9472;&#9472;&#9472;&#9472;&#9472;&#9472;&#9472;&#9472;&#9472;&#9472;&#9472;&#9472;&#9472;&#9472;&#9472;&#9472;&#9472;</text><text fill="#000000" font-family="'monospace'" font-size="10" lengthAdjust="spacing" textLength="54.2299" x="766.09" y="572.1941">spec  &#167;3.3.2</text><text fill="#000000" font-family="'monospace'" font-size="10" lengthAdjust="spacing" textLength="93.6499" x="766.09" y="585.8141">Rocq  SlashDeploy.v</text><text fill="#000000" font-family="'monospace'" font-size="10" lengthAdjust="spacing" textLength="88.9199" x="766.09" y="599.434">TLA+  SlashFlow.tla</text><text fill="#000000" font-family="'monospace'" font-size="10" lengthAdjust="spacing" textLength="269.8198" x="766.09" y="613.054">Rust  casper/src/rust/util/rholang/costacc/slash_deploy.rs</text></g><!--entity PoS--><g class="entity" data-qualified-name="Effect layer.PoS" data-source-line="77" id="ent0014"><rect fill="#D1C4E9" height="101.7199" rx="2.5" ry="2.5" style="stroke:#333333;stroke-width:1;" width="257.7298" x="772.14" y="711.9841"/><text fill="#000000" font-family="'monospace'" font-size="10" lengthAdjust="spacing" textLength="100.5499" x="782.14" y="732.6741">PoS Rholang contract</text><text fill="#000000" font-family="'monospace'" font-size="10" lengthAdjust="spacing" textLength="168.5742" x="782.14" y="746.2941">&#9472;&#9472;&#9472;&#9472;&#9472;&#9472;&#9472;&#9472;&#9472;&#9472;&#9472;&#9472;&#9472;&#9472;&#9472;&#9472;&#9472;&#9472;&#9472;&#9472;&#9472;&#9472;&#9472;&#9472;&#9472;&#9472;&#9472;&#9472;</text><text fill="#000000" font-family="'monospace'" font-size="10" lengthAdjust="spacing" textLength="70.3599" x="782.14" y="759.9141">spec  &#167;3.4.1, &#167;5</text><text fill="#000000" font-family="'monospace'" font-size="10" lengthAdjust="spacing" textLength="94.0799" x="782.14" y="773.5341">Rocq  PoSContract.v</text><text fill="#000000" font-family="'monospace'" font-size="10" lengthAdjust="spacing" textLength="88.9199" x="782.14" y="787.154">TLA+  SlashFlow.tla</text><text fill="#000000" font-family="'monospace'" font-size="10" lengthAdjust="spacing" textLength="237.7298" x="782.14" y="800.774">Rust  casper/src/main/resources/PoS.rhox:432-495</text></g><!--entity FC--><g class="entity" data-qualified-name="Fork-choice layer.FC" data-source-line="81" id="ent0016"><rect fill="#BBDEFB" height="101.7199" rx="2.5" ry="2.5" style="stroke:#333333;stroke-width:1;" width="188.5742" x="806.71" y="899.7041"/><text fill="#000000" font-family="'monospace'" font-size="10" lengthAdjust="spacing" textLength="100.2499" x="816.71" y="920.3941">ForkChoice estimator</text><text fill="#000000" font-family="'monospace'" font-size="10" lengthAdjust="spacing" textLength="168.5742" x="816.71" y="934.0141">&#9472;&#9472;&#9472;&#9472;&#9472;&#9472;&#9472;&#9472;&#9472;&#9472;&#9472;&#9472;&#9472;&#9472;&#9472;&#9472;&#9472;&#9472;&#9472;&#9472;&#9472;&#9472;&#9472;&#9472;&#9472;&#9472;&#9472;&#9472;</text><text fill="#000000" font-family="'monospace'" font-size="10" lengthAdjust="spacing" textLength="54.2299" x="816.71" y="947.6341">spec  &#167;3.5.1</text><text fill="#000000" font-family="'monospace'" font-size="10" lengthAdjust="spacing" textLength="88.4599" x="816.71" y="961.2541">Rocq  ForkChoice.v</text><text fill="#000000" font-family="'monospace'" font-size="10" lengthAdjust="spacing" textLength="88.9199" x="816.71" y="974.874">TLA+  SlashFlow.tla</text><text fill="#000000" font-family="'monospace'" font-size="10" lengthAdjust="spacing" textLength="157.6799" x="816.71" y="988.494">Rust  casper/src/rust/estimator.rs</text></g><!--entity BF--><g class="entity" data-qualified-name="Bug-fix proofs.BF" data-source-line="85" id="ent0018"><rect fill="#FFCDD2" height="142.5799" rx="2.5" ry="2.5" style="stroke:#333333;stroke-width:1;" width="250.4398" x="1076.78" y="107.9641"/><text fill="#000000" font-family="'monospace'" font-size="10" lengthAdjust="spacing" textLength="62.07" x="1086.78" y="128.6541">BugFix #1-#9</text><text fill="#000000" font-family="'monospace'" font-size="10" lengthAdjust="spacing" textLength="168.5742" x="1086.78" y="142.2741">&#9472;&#9472;&#9472;&#9472;&#9472;&#9472;&#9472;&#9472;&#9472;&#9472;&#9472;&#9472;&#9472;&#9472;&#9472;&#9472;&#9472;&#9472;&#9472;&#9472;&#9472;&#9472;&#9472;&#9472;&#9472;&#9472;&#9472;&#9472;</text><text fill="#000000" font-family="'monospace'" font-size="10" lengthAdjust="spacing" textLength="43.15" x="1086.78" y="155.8941">spec  &#167;10</text><text fill="#000000" font-family="'monospace'" font-size="10" lengthAdjust="spacing" textLength="230.4398" x="1086.78" y="169.5141">Rocq  BugFix*.v (8 modules covering 9 theorems;</text><text fill="#000000" font-family="'monospace'" font-size="10" lengthAdjust="spacing" textLength="167.8399" x="1102.3799" y="183.134">BugFixSelfRegression.v carries both</text><text fill="#000000" font-family="'monospace'" font-size="10" lengthAdjust="spacing" textLength="71.94" x="1102.3799" y="196.754">T-9.6 and T-9.9)</text><text fill="#000000" font-family="'monospace'" font-size="10" lengthAdjust="spacing" textLength="154.4799" x="1086.78" y="210.374">TLA+  ConcurrentTracker.tla (#2),</text><text fill="#000000" font-family="'monospace'" font-size="10" lengthAdjust="spacing" textLength="116.5099" x="1102.3799" y="223.994">SlashFlow.tla (#3, #4, #8)</text><text fill="#000000" font-family="'monospace'" font-size="10" lengthAdjust="spacing" textLength="167.9598" x="1086.78" y="237.614">Rust  to be patched per separate PR</text></g><!--entity BIS--><g class="entity" data-qualified-name="Top-level theorem.BIS" data-source-line="89" id="ent0020"><rect fill="#C8E6C9" height="88.0999" rx="2.5" ry="2.5" style="stroke:#333333;stroke-width:1;" width="199.4398" x="1102.28" y="343.3541"/><text fill="#000000" font-family="'monospace'" font-size="10" lengthAdjust="spacing" textLength="116.1199" x="1112.28" y="364.0441">Bisimilarity Rust ~~ Scala</text><text fill="#000000" font-family="'monospace'" font-size="10" lengthAdjust="spacing" textLength="168.5742" x="1112.28" y="377.6641">&#9472;&#9472;&#9472;&#9472;&#9472;&#9472;&#9472;&#9472;&#9472;&#9472;&#9472;&#9472;&#9472;&#9472;&#9472;&#9472;&#9472;&#9472;&#9472;&#9472;&#9472;&#9472;&#9472;&#9472;&#9472;&#9472;&#9472;&#9472;</text><text fill="#000000" font-family="'monospace'" font-size="10" lengthAdjust="spacing" textLength="37.43" x="1112.28" y="391.2841">spec  &#167;9</text><text fill="#000000" font-family="'monospace'" font-size="10" lengthAdjust="spacing" textLength="179.4398" x="1112.28" y="404.9041">Rocq  Bisimulation.v + MainTheorem.v</text><text fill="#000000" font-family="'monospace'" font-size="10" lengthAdjust="spacing" textLength="140.1599" x="1112.28" y="418.524">TLA+  (composition of all four)</text></g><!--link V to C--><g class="link" data-entity-1="ent0004" data-entity-2="ent0005" data-link-type="dependency" data-source-line="92" id="lnk21"><path d="M450.33,230.4241 C413.33,262.6041 370.0169,300.2762 333.0469,332.4362" fill="none" id="V-to-C" style="stroke:#E65100;stroke-width:1;"/><polygon fill="#E65100" points="328.52,336.3741,337.9356,333.4852,332.2924,333.0925,332.6851,327.4493,328.52,336.3741" style="stroke:#E65100;stroke-width:1;"/></g><!--link D to C--><g class="link" data-entity-1="ent0003" data-entity-2="ent0005" data-link-type="dependency" data-source-line="93" id="lnk22"><path d="M251.33,230.4241 C255.39,262.6041 259.8785,298.2614 263.9385,330.4214" fill="none" id="D-to-C" style="stroke:#E65100;stroke-width:1;"/><polygon fill="#E65100" points="264.69,336.3741,267.5313,326.944,264.0638,331.4135,259.5943,327.946,264.69,336.3741" style="stroke:#E65100;stroke-width:1;"/></g><!--link C to DS--><g class="link" data-entity-1="ent0005" data-entity-2="ent0007" data-link-type="dependency" data-source-line="94" id="lnk23"><path d="M248.81,438.6641 C237.14,465.0941 225.3035,491.9053 213.6335,518.3353" fill="none" id="C-to-DS" style="stroke:#E65100;stroke-width:1;"/><polygon fill="#E65100" points="211.21,523.8241,218.5045,517.2066,213.2296,519.2501,211.1861,513.9753,211.21,523.8241" style="stroke:#E65100;stroke-width:1;"/></g><!--link C to Tk--><g class="link" data-entity-1="ent0005" data-entity-2="ent0008" data-link-type="dependency" data-source-line="95" id="lnk24"><path d="M344.61,438.6641 C383.31,465.0941 425.6648,494.0109 464.3748,520.4409" fill="none" id="C-to-Tk" style="stroke:#E65100;stroke-width:1;"/><polygon fill="#E65100" points="469.33,523.8241,464.1527,515.4458,465.2007,521.0047,459.6418,522.0527,469.33,523.8241" style="stroke:#E65100;stroke-width:1;"/></g><!--link DS to DepS--><g class="link" data-entity-1="ent0007" data-entity-2="ent0009" data-link-type="dependency" data-source-line="96" id="lnk25"><path d="M189,626.3841 C189,652.8141 189,679.1141 189,705.5441" fill="none" id="DS-to-DepS" style="stroke:#546E7A;stroke-width:1;"/><polygon fill="#546E7A" points="189,711.5441,193,702.5441,189,706.5441,185,702.5441,189,711.5441" style="stroke:#546E7A;stroke-width:1;"/></g><!--link BC to DS--><g class="link" data-entity-1="ent0011" data-entity-2="ent0007" data-link-type="dependency" data-source-line="97" id="lnk26"><path d="M755.75,434.5041 C716.8,445.6141 674.11,456.0541 634,462.2641 C575.78,471.2741 425.67,454.1641 369,470.2641 C329.61,481.4541 294.8069,499.8893 262.6569,520.5593" fill="none" id="BC-to-DS" style="stroke:#1565C0;stroke-width:1;"/><polygon fill="#1565C0" points="257.61,523.8041,267.3436,522.3015,261.8158,521.1001,263.0172,515.5723,257.61,523.8041" style="stroke:#1565C0;stroke-width:1;"/></g><!--link BC to Tk--><g class="link" data-entity-1="ent0011" data-entity-2="ent0008" data-link-type="dependency" data-source-line="98" id="lnk27"><path d="M799.01,438.6641 C749.07,465.0941 693.3236,494.5884 643.3636,521.0184" fill="none" id="BC-to-Tk" style="stroke:#1565C0;stroke-width:1;"/><polygon fill="#1565C0" points="638.06,523.8241,647.8858,523.1512,642.4796,521.486,644.1449,516.0798,638.06,523.8241" style="stroke:#1565C0;stroke-width:1;"/></g><!--link BC to SD--><g class="link" data-entity-1="ent0011" data-entity-2="ent0012" data-link-type="dependency" data-source-line="99" id="lnk28"><path d="M895.89,438.6641 C896.89,465.0941 897.8854,491.3983 898.8754,517.8283" fill="none" id="BC-to-SD" style="stroke:#00838F;stroke-width:1;"/><polygon fill="#00838F" points="899.1,523.8241,902.7603,514.6807,898.9128,518.8276,894.7659,514.9801,899.1,523.8241" style="stroke:#00838F;stroke-width:1;"/></g><!--link SD to PoS--><g class="link" data-entity-1="ent0012" data-entity-2="ent0014" data-link-type="dependency" data-source-line="100" id="lnk29"><path d="M901,626.3841 C901,652.8141 901,679.1141 901,705.5441" fill="none" id="SD-to-PoS" style="stroke:#6A1B9A;stroke-width:1;"/><polygon fill="#6A1B9A" points="901,711.5441,905,702.5441,901,706.5441,897,702.5441,901,711.5441" style="stroke:#6A1B9A;stroke-width:1;"/></g><!--link PoS to FC--><g class="link" data-entity-1="ent0014" data-entity-2="ent0016" data-link-type="dependency" data-source-line="101" id="lnk30"><path d="M901,814.1041 C901,840.5341 901,866.8341 901,893.2641" fill="none" id="PoS-to-FC" style="stroke:#1565C0;stroke-width:1;"/><polygon fill="#1565C0" points="901,899.2641,905,890.2641,901,894.2641,897,890.2641,901,899.2641" style="stroke:#1565C0;stroke-width:1;"/></g><!--link BF to BIS--><?plantuml-src lLXTRXit47xVKx3MGwN6-hCinqhQ09PMMmH82iFhv2Kk16gNqhBQ9JSaLx5Q9CXJJv0xz1uzIaxI8Rc_gk8qGEs57uJXno7dutn3ZhzJ4Ka8IcDCcUF83MKf5ZX10KzIpWXJljh510aIACpMCJa4GNyu24rni5aBdh5mncCkKCipdnxX8YJ2MlNN6fdFUL_pbS9il2Q7FFtueqiKB4yvU_OC6R-Fv_D3E5zn0Kuq2d3pkNVX3G_XBWLFkQHiRVm1xiJkSnytNwrWNUiErXtDnzxu4CxZOZEBE0tqqgtv2FovXt3JREtHszAVDvyUZkCw8boGf8ZZt1lF9tiyjaxDr-0m92kSnShZJFs2uKoF4iwu16R9qM6KJtydQ3Xm74KLdB6Vae2kQ80rrUZpdv_G5G_UcX_NBouUMKic5Hoy44J2sOU41SHnlaT-m5E265Va2L8HbIYaUArNYwbK4am4hRX8SDnjpkqk2HPm4E2Yp2Q9Fd_y15Eu9EWTLH5A1UShYIYp-y4ix0C32Gz9RAnwSptm0BGXB8A8wcp91Ebo5k_0ekWA1-2sxU-a8ebBqfZlNYaQ7mEbB4G9Jb685GON1VWOpJXFqLOpPSRAaGxy0hb033hnONKtZtGmHCjCWG-UKAL8Y282m2K9S0Q100Cx5E6j9Wb9eez25Pn0w1bJH81HFGK71gjN8RT415I2Byf2gYK8yQW8KcKT8J_6ChAnQ4hG9VVHLSHZK2cG0MvUu1qHu5kdIqpM133j1AiW8hAswSuJW2B8YbnYA3RJq4_e7HQWIuA32CRRkUmw1Ysjq0giHYSKw2Y-TYu-YquBkLM-Os02Ca1KQ92WHHCZkiereBUKnqILlgqGBHeOt7G3epsKe-LcXvPnHWhVHeuMlSpMtHMzHKj-MwBvIa5r2mlVHfGMhI03b9LY0xqMX33hsqYpO-YUXq18dMrBB135O02mP-FXOD019nNNVLrNGTNTG12hkeH82SpQtTeWsgtX-6myCrC15gAt6H4xkqC2sQCHWy7vwDpJ2AepgLkLvhh3D1DfhFToTZ6SJYuqFCyOcBRbLlYEKzJY8xUP54UeMOfrhQuMEfg_pMZXnCAuk66VFttyt_zkc8HIXT3VVvtUC5CJqA75UziRPWhNuL4LOvYjwnaAC3WKVIc2lW13dzJmYx2O8EGHGXZ4OshtR3fgnlyQnpJKgculOnviElST-wWtx0sB-9-phLv-gbV-UjoehV0jN0x9hlCb2hPvD6NKhmz7_H8g9Bs4QiNKpBXudgJnGuG-EeOVZ-y-V_G8kHS_-qh7KP9Y2gSNytUQ2LteMP09lVzh0ObFxaoCH4UxI4su2pkue11moTAiPEbzJKX-lLvg6LKlbJqHcGDqyJe7t3-H9rKEVOMgWXEJtTty2gYe2V6wRuOMy6kn8Ri5f5165ZcmKe-FMhFp-TbiykNoaP-49k51A3Wvb4PNfZHNPDoPA7UGqYWcoaurh5ISN6yESsAlzmVC1IEguG2rzItPEkyKlDYNwoksrE-sqBwVYHPO6uU_mGEJgKv1KvlrSUThj9Yu-bMIMCE_SuMaLRRK1NNPV59eITKVzOT4DTDNxFtVIAFUg59KVU6lg6g_qXZcP3_DgSwb5UI-2eAcK6-c9wxdJfiHrnw73n5mgP_QkjyORmRlyRwmhv5-mAN2GT2NUcQU76NClbl6N4-9UUtTgFEXRDxsag7sJWOpqu9Kzy_HQM-efJKkY89TpFB5_pjH2VJeVUWyU2O28llWemUCtJuv7PrqJoTZIu-Eh-KEPwVpfcIysakv9AdHkUuHLOqX8XLD7aOzuqezrGQ-CPVAxPOvuscTJDsvryoPQTuFs0vJ4rAswFibnDXHQzXjJUwRXE6WMNP_q7NsN3UyMGozMy2tHFVCQ59q9_Bf3RCTYftWatXrHQ1DaHBk79WTO24eJ5ro5HNGw-waTsOwH_rhqhdpceEUuQHpN4nj708CmQtHEZtExmjp8ef3vujIqss6q4IAgkUzlCfBbwUVIZFNFMaSoJLFkp7PahW8JfzAzG-H_MEXaYOqneAgdVtVn8SFo0-mpetxFQH9UKPw2rbihdVpudm9AiqtNELjssnQKjDDyHN2SGozQoOwEHdF6_VSQzHzapUCltQVePdZxXjcJOFhxrkkDmwyjC0qFZsRFxum8BXDdQd1sOuodxblWgdMPBjARV9TnpTxi9sZDa6TSNIjQKprPeu31zjz4z4m94oR83Jd7m00?></g></svg>