<svg xmlns="http://www.w3.org/2000/svg" xmlns:xlink="http://www.w3.org/1999/xlink" contentStyleType="text/css" data-diagram-type="SEQUENCE" height="939px" preserveAspectRatio="none" style="width:667px;height:939px;background:#FFFFFF;" version="1.1" viewBox="0 0 667 939" width="667px" zoomAndPan="magnify"><?plantuml $version$?><defs/><g><g class="participant-lifeline" data-entity-uid="part1" data-qualified-name="CB" data-source-line="28" id="part1-lifeline"><g><title>CloseBlockDeploy</title><rect fill="#000000" fill-opacity="0.00000" height="631.9146" width="8" x="71.5023" y="83.6882"/><line style="stroke:#666666;stroke-width:1;stroke-dasharray:5,5;" x1="75" x2="75" y1="83.6882" y2="715.6029"/></g></g><g class="participant-lifeline" data-entity-uid="part2" data-qualified-name="V" data-source-line="29" id="part2-lifeline"><g><title>..v.</title><rect fill="#000000" fill-opacity="0.00000" height="631.9146" width="8" x="412.7285" y="83.6882"/><line style="stroke:#666666;stroke-width:1;stroke-dasharray:5,5;" x1="416.2302" x2="416.2302" y1="83.6882" y2="715.6029"/></g></g><g class="participant-lifeline" data-entity-uid="part3" data-qualified-name="C" data-source-line="30" id="part3-lifeline"><g><title>..Ground.pk..</title><rect fill="#000000" fill-opacity="0.00000" height="631.9146" width="8" x="512.6765" y="83.6882"/><line style="stroke:#666666;stroke-width:1;stroke-dasharray:5,5;" x1="516.2268" x2="516.2268" y1="83.6882" y2="715.6029"/></g></g><g class="participant-lifeline" data-entity-uid="part4" data-qualified-name="F" data-source-line="31" id="part4-lifeline"><g><title>F_v</title><rect fill="#000000" fill-opacity="0.00000" height="631.9146" width="8" x="596.6163" y="83.6882"/><line style="stroke:#666666;stroke-width:1;stroke-dasharray:5,5;" x1="600.1261" x2="600.1261" y1="83.6882" y2="715.6029"/></g></g><g class="participant participant-head" data-entity-uid="part1" data-qualified-name="CB" data-source-line="28" id="part1-head"><rect fill="#FFECB3" height="42.6882" rx="2.5" ry="2.5" style="stroke:#333333;stroke-width:1;" width="111.0047" x="20" y="35"/><text fill="#000000" font-family="'sans-serif'" font-size="12" lengthAdjust="spacing" textLength="100.1647" x="25.42" y="52.8281">CloseBlockDeploy</text><text fill="#000000" font-family="'sans-serif'" font-size="12" lengthAdjust="spacing" textLength="101.0047" x="25" y="69.1722">dual_write_supply</text></g><g class="participant participant-tail" data-entity-uid="part1" data-qualified-name="CB" data-source-line="28" id="part1-tail"><rect fill="#FFECB3" height="42.6882" rx="2.5" ry="2.5" style="stroke:#333333;stroke-width:1;" width="111.0047" x="20" y="719.6029"/><text fill="#000000" font-family="'sans-serif'" font-size="12" lengthAdjust="spacing" textLength="100.1647" x="25.42" y="737.4309">CloseBlockDeploy</text><text fill="#000000" font-family="'sans-serif'" font-size="12" lengthAdjust="spacing" textLength="101.0047" x="25" y="753.7751">dual_write_supply</text></g><g class="participant participant-head" data-entity-uid="part2" data-qualified-name="V" data-source-line="29" id="part2-head"><text fill="#000000" font-family="'sans-serif'" font-size="12" lengthAdjust="spacing" textLength="24.8429" x="401.3071" y="63.8281">&#931;&#10214;v&#10215;</text><text fill="#000000" font-family="'sans-serif'" font-size="12" lengthAdjust="spacing" textLength="84.9966" x="371.2302" y="80.1722">(validator pool)</text><path d="M398.7285,15 C398.7285,5 416.7285,5 416.7285,5 C416.7285,5 434.7285,5 434.7285,15 L434.7285,41 C434.7285,51 416.7285,51 416.7285,51 C416.7285,51 398.7285,51 398.7285,41 L398.7285,15" fill="#BBDEFB" style="stroke:#000000;stroke-width:1;"/><path d="M398.7285,15 C398.7285,25 416.7285,25 416.7285,25 C416.7285,25 434.7285,25 434.7285,15" fill="none" style="stroke:#000000;stroke-width:1;"/></g><g class="participant participant-tail" data-entity-uid="part2" data-qualified-name="V" data-source-line="29" id="part2-tail"><text fill="#000000" font-family="'sans-serif'" font-size="12" lengthAdjust="spacing" textLength="24.8429" x="401.3071" y="727.4309">&#931;&#10214;v&#10215;</text><text fill="#000000" font-family="'sans-serif'" font-size="12" lengthAdjust="spacing" textLength="84.9966" x="371.2302" y="743.7751">(validator pool)</text><path d="M398.7285,757.2911 C398.7285,747.2911 416.7285,747.2911 416.7285,747.2911 C416.7285,747.2911 434.7285,747.2911 434.7285,757.2911 L434.7285,783.2911 C434.7285,793.2911 416.7285,793.2911 416.7285,793.2911 C416.7285,793.2911 398.7285,793.2911 398.7285,783.2911 L398.7285,757.2911" fill="#BBDEFB" style="stroke:#000000;stroke-width:1;"/><path d="M398.7285,757.2911 C398.7285,767.2911 416.7285,767.2911 416.7285,767.2911 C416.7285,767.2911 434.7285,767.2911 434.7285,757.2911" fill="none" style="stroke:#000000;stroke-width:1;"/></g><g class="participant participant-head" data-entity-uid="part3" data-qualified-name="C" data-source-line="30" id="part3-head"><text fill="#000000" font-family="'sans-serif'" font-size="12" lengthAdjust="spacing" textLength="82.8993" x="472.2268" y="63.8281">&#931;&#10214;Ground(pk)&#10215;</text><text fill="#000000" font-family="'sans-serif'" font-size="12" lengthAdjust="spacing" textLength="74.2445" x="476.5542" y="80.1722">(client wallet)</text><path d="M498.6765,15 C498.6765,5 516.6765,5 516.6765,5 C516.6765,5 534.6765,5 534.6765,15 L534.6765,41 C534.6765,51 516.6765,51 516.6765,51 C516.6765,51 498.6765,51 498.6765,41 L498.6765,15" fill="#BBDEFB" style="stroke:#000000;stroke-width:1;"/><path d="M498.6765,15 C498.6765,25 516.6765,25 516.6765,25 C516.6765,25 534.6765,25 534.6765,15" fill="none" style="stroke:#000000;stroke-width:1;"/></g><g class="participant participant-tail" data-entity-uid="part3" data-qualified-name="C" data-source-line="30" id="part3-tail"><text fill="#000000" font-family="'sans-serif'" font-size="12" lengthAdjust="spacing" textLength="82.8993" x="472.2268" y="727.4309">&#931;&#10214;Ground(pk)&#10215;</text><text fill="#000000" font-family="'sans-serif'" font-size="12" lengthAdjust="spacing" textLength="74.2445" x="476.5542" y="743.7751">(client wallet)</text><path d="M498.6765,757.2911 C498.6765,747.2911 516.6765,747.2911 516.6765,747.2911 C516.6765,747.2911 534.6765,747.2911 534.6765,757.2911 L534.6765,783.2911 C534.6765,793.2911 516.6765,793.2911 516.6765,793.2911 C516.6765,793.2911 498.6765,793.2911 498.6765,783.2911 L498.6765,757.2911" fill="#BBDEFB" style="stroke:#000000;stroke-width:1;"/><path d="M498.6765,757.2911 C498.6765,767.2911 516.6765,767.2911 516.6765,767.2911 C516.6765,767.2911 534.6765,767.2911 534.6765,757.2911" fill="none" style="stroke:#000000;stroke-width:1;"/></g><g class="participant participant-head" data-entity-uid="part4" data-qualified-name="F" data-source-line="31" id="part4-head"><text fill="#000000" font-family="'sans-serif'" font-size="12" lengthAdjust="spacing" textLength="17.6521" x="588.7903" y="63.8281">F_v</text><text fill="#000000" font-family="'sans-serif'" font-size="12" lengthAdjust="spacing" textLength="52.9804" x="571.1261" y="80.1722">(fee pool)</text><path d="M582.6163,15 C582.6163,5 600.6163,5 600.6163,5 C600.6163,5 618.6163,5 618.6163,15 L618.6163,41 C618.6163,51 600.6163,51 600.6163,51 C600.6163,51 582.6163,51 582.6163,41 L582.6163,15" fill="#C8E6C9" style="stroke:#000000;stroke-width:1;"/><path d="M582.6163,15 C582.6163,25 600.6163,25 600.6163,25 C600.6163,25 618.6163,25 618.6163,15" fill="none" style="stroke:#000000;stroke-width:1;"/></g><g class="participant participant-tail" data-entity-uid="part4" data-qualified-name="F" data-source-line="31" id="part4-tail"><text fill="#000000" font-family="'sans-serif'" font-size="12" lengthAdjust="spacing" textLength="17.6521" x="588.7903" y="727.4309">F_v</text><text fill="#000000" font-family="'sans-serif'" font-size="12" lengthAdjust="spacing" textLength="52.9804" x="571.1261" y="743.7751">(fee pool)</text><path d="M582.6163,757.2911 C582.6163,747.2911 600.6163,747.2911 600.6163,747.2911 C600.6163,747.2911 618.6163,747.2911 618.6163,757.2911 L618.6163,783.2911 C618.6163,793.2911 600.6163,793.2911 600.6163,793.2911 C600.6163,793.2911 582.6163,793.2911 582.6163,783.2911 L582.6163,757.2911" fill="#C8E6C9" style="stroke:#000000;stroke-width:1;"/><path d="M582.6163,757.2911 C582.6163,767.2911 600.6163,767.2911 600.6163,767.2911 C600.6163,767.2911 618.6163,767.2911 618.6163,757.2911" fill="none" style="stroke:#000000;stroke-width:1;"/></g><rect fill="#ECEFF1" height="3" style="stroke:#ECEFF1;stroke-width:1;" width="656.9326" x="5" y="114.8603"/><line style="stroke:#000000;stroke-width:0.5;" x1="5" x2="661.9326" y1="114.8603" y2="114.8603"/><line style="stroke:#000000;stroke-width:0.5;" x1="5" x2="661.9326" y1="117.8603" y2="117.8603"/><rect fill="#ECEFF1" height="24.3441" style="stroke:#000000;stroke-width:1;" width="283.8939" x="191.5193" y="103.6882"/><text fill="#000000" font-family="'sans-serif'" font-size="12" font-weight="700" lengthAdjust="spacing" textLength="266.7739" x="197.5193" y="120.5163">Stage 1 &#8212; epoch mint (epoch boundary only)</text><g class="message" data-entity-1="part1" data-entity-2="part2" data-source-line="34" id="msg1"><polygon fill="#2E7D32" points="404.7285,172.7206,414.7285,176.7206,404.7285,180.7206,408.7285,176.7206" style="stroke:#2E7D32;stroke-width:1;stroke-linejoin:miter;stroke-miterlimit:10;"/><line style="stroke:#2E7D32;stroke-width:1;stroke-dasharray:2,2;" x1="75.5023" x2="410.7285" y1="176.7206" y2="176.7206"/><text fill="#000000" font-family="'sans-serif'" font-size="12" font-weight="700" lengthAdjust="spacing" textLength="6.864" x="82.5023" y="163.0325">1</text><text fill="#000000" font-family="'sans-serif'" font-size="12" lengthAdjust="spacing" textLength="139.6597" x="93.3664" y="154.8604">&#931;&#10214;v&#10215; += epochPhlogiston</text><text fill="#000000" font-family="'sans-serif'" font-size="12" lengthAdjust="spacing" textLength="279.9006" x="93.3664" y="171.2045">(mintedEpochs (pk,e) guard; random_state lo &#8805; 0)</text></g><rect fill="#ECEFF1" height="3" style="stroke:#ECEFF1;stroke-width:1;" width="656.9326" x="5" y="205.8926"/><line style="stroke:#000000;stroke-width:0.5;" x1="5" x2="661.9326" y1="205.8926" y2="205.8926"/><line style="stroke:#000000;stroke-width:0.5;" x1="5" x2="661.9326" y1="208.8926" y2="208.8926"/><rect fill="#ECEFF1" height="24.3441" style="stroke:#000000;stroke-width:1;" width="301.6781" x="182.6272" y="194.7206"/><text fill="#000000" font-family="'sans-serif'" font-size="12" font-weight="700" lengthAdjust="spacing" textLength="284.558" x="188.6272" y="211.5487">Stage 2 &#8212; cost settlement debit (WD-D2 / &#167;D2.9)</text><g class="message" data-entity-1="part1" data-entity-2="part3" data-source-line="37" id="msg2"><polygon fill="#C62828" points="504.6765,263.7529,514.6765,267.7529,504.6765,271.7529,508.6765,267.7529" style="stroke:#C62828;stroke-width:1;stroke-linejoin:miter;stroke-miterlimit:10;"/><line style="stroke:#C62828;stroke-width:1;stroke-dasharray:2,2;" x1="75.5023" x2="510.6765" y1="267.7529" y2="267.7529"/><text fill="#000000" font-family="'sans-serif'" font-size="12" font-weight="700" lengthAdjust="spacing" textLength="6.864" x="82.5023" y="254.0648">2</text><text fill="#000000" font-family="'sans-serif'" font-size="12" lengthAdjust="spacing" textLength="128.4756" x="93.3664" y="245.8928">&#931;&#10214;Ground(pk)&#10215; &#8722;= &#931;&#916;_s</text><text fill="#000000" font-family="'sans-serif'" font-size="12" lengthAdjust="spacing" textLength="367.3226" x="93.3664" y="262.2369">(the gate's admitted demand; checked_sub; random_state &#8722;0x2b)</text></g><path d="M375,280.7529 L375,339.7529 L656,339.7529 L656,290.7529 L646,280.7529 L375,280.7529" fill="#FFEBEE" style="stroke:#000000;stroke-width:1;"/><path d="M646,280.7529 L646,290.7529 L656,290.7529 L646,280.7529" fill="#FFEBEE" style="stroke:#000000;stroke-width:1;"/><text fill="#000000" font-family="'sans-serif'" font-size="12" lengthAdjust="spacing" textLength="219.3616" x="381" y="298.581">COST = BURN. Settled per signer wallet</text><text fill="#000000" font-family="'sans-serif'" font-size="12" lengthAdjust="spacing" textLength="237.9284" x="381" y="314.9251">&#931;&#10214;Ground(pk)&#10215; (&#167;D2.9). Multi-sig: balanced</text><text fill="#000000" font-family="'sans-serif'" font-size="12" lengthAdjust="spacing" textLength="260.9326" x="381" y="331.2692">equally across each cosigner's &#931;&#10214;Ground(pk&#7522;)&#10215;.</text><rect fill="#ECEFF1" height="3" style="stroke:#ECEFF1;stroke-width:1;" width="656.9326" x="5" y="365.9573"/><line style="stroke:#000000;stroke-width:0.5;" x1="5" x2="661.9326" y1="365.9573" y2="365.9573"/><line style="stroke:#000000;stroke-width:0.5;" x1="5" x2="661.9326" y1="368.9573" y2="368.9573"/><rect fill="#ECEFF1" height="24.3441" style="stroke:#000000;stroke-width:1;" width="259.9418" x="203.4954" y="354.7853"/><text fill="#000000" font-family="'sans-serif'" font-size="12" font-weight="700" lengthAdjust="spacing" textLength="242.8217" x="209.4954" y="371.6133">Stage 3 &#8212; fee carve (F-C/F-D, conserving)</text><g class="message" data-entity-1="part1" data-entity-2="part3" data-source-line="45" id="msg3"><polygon fill="#C62828" points="504.6765,423.8176,514.6765,427.8176,504.6765,431.8176,508.6765,427.8176" style="stroke:#C62828;stroke-width:1;stroke-linejoin:miter;stroke-miterlimit:10;"/><line style="stroke:#C62828;stroke-width:1;stroke-dasharray:2,2;" x1="75.5023" x2="510.6765" y1="427.8176" y2="427.8176"/><text fill="#000000" font-family="'sans-serif'" font-size="12" font-weight="700" lengthAdjust="spacing" textLength="6.864" x="82.5023" y="414.1295">3</text><text fill="#000000" font-family="'sans-serif'" font-size="12" lengthAdjust="spacing" textLength="120.5316" x="93.3664" y="405.9575">&#931;&#10214;Ground(pk)&#10215; &#8722;= fee</text><text fill="#000000" font-family="'sans-serif'" font-size="12" lengthAdjust="spacing" textLength="305.7022" x="93.3664" y="422.3016">(flat FeeExtract &#8212; one token / admitted deploy; &#8722;0x30)</text></g><g class="message" data-entity-1="part1" data-entity-2="part4" data-source-line="46" id="msg4"><polygon fill="#2E7D32" points="588.6163,470.5058,598.6163,474.5058,588.6163,478.5058,592.6163,474.5058" style="stroke:#2E7D32;stroke-width:1;stroke-linejoin:miter;stroke-miterlimit:10;"/><line style="stroke:#2E7D32;stroke-width:1;stroke-dasharray:2,2;" x1="75.5023" x2="594.6163" y1="474.5058" y2="474.5058"/><text fill="#000000" font-family="'sans-serif'" font-size="12" font-weight="700" lengthAdjust="spacing" textLength="6.864" x="82.5023" y="460.8177">4</text><text fill="#000000" font-family="'sans-serif'" font-size="12" lengthAdjust="spacing" textLength="65.2685" x="93.3664" y="452.6457">F_v += &#931; fee</text><text fill="#000000" font-family="'sans-serif'" font-size="12" lengthAdjust="spacing" textLength="307.2383" x="93.3664" y="468.9898">(CONSERVING transfer: clients debited == F_v credited)</text></g><rect fill="#ECEFF1" height="3" style="stroke:#ECEFF1;stroke-width:1;" width="656.9326" x="5" y="503.6779"/><line style="stroke:#000000;stroke-width:0.5;" x1="5" x2="661.9326" y1="503.6779" y2="503.6779"/><line style="stroke:#000000;stroke-width:0.5;" x1="5" x2="661.9326" y1="506.6779" y2="506.6779"/><rect fill="#ECEFF1" height="24.3441" style="stroke:#000000;stroke-width:1;" width="252.0457" x="207.4434" y="492.5058"/><text fill="#000000" font-family="'sans-serif'" font-size="12" font-weight="700" lengthAdjust="spacing" textLength="234.9257" x="213.4434" y="509.3339">Stage 3b &#8212; fee convert (epoch, backed)</text><g class="message" data-entity-1="part1" data-entity-2="part2" data-source-line="49" id="msg5"><polygon fill="#2E7D32" points="404.7285,561.5382,414.7285,565.5382,404.7285,569.5382,408.7285,565.5382" style="stroke:#2E7D32;stroke-width:1;stroke-linejoin:miter;stroke-miterlimit:10;"/><line style="stroke:#2E7D32;stroke-width:1;stroke-dasharray:2,2;" x1="75.5023" x2="410.7285" y1="565.5382" y2="565.5382"/><text fill="#000000" font-family="'sans-serif'" font-size="12" font-weight="700" lengthAdjust="spacing" textLength="6.864" x="82.5023" y="551.8501">5</text><text fill="#000000" font-family="'sans-serif'" font-size="12" lengthAdjust="spacing" textLength="48.9391" x="93.3664" y="543.678">&#931;&#10214;v&#10215; += f</text><text fill="#000000" font-family="'sans-serif'" font-size="12" lengthAdjust="spacing" textLength="306.3621" x="93.3664" y="560.0221">(f = F_v count; BACKED by the carve, not a mint; &#8722;0x2d)</text></g><g class="message" data-entity-1="part1" data-entity-2="part4" data-source-line="50" id="msg6"><polygon fill="#444444" points="588.6163,608.2264,598.6163,612.2264,588.6163,616.2264,592.6163,612.2264" style="stroke:#444444;stroke-width:1;stroke-linejoin:miter;stroke-miterlimit:10;"/><line style="stroke:#444444;stroke-width:1;" x1="75.5023" x2="594.6163" y1="612.2264" y2="612.2264"/><text fill="#000000" font-family="'sans-serif'" font-size="12" font-weight="700" lengthAdjust="spacing" textLength="6.864" x="82.5023" y="598.5383">6</text><text fill="#000000" font-family="'sans-serif'" font-size="12" lengthAdjust="spacing" textLength="40.8363" x="93.3664" y="590.3663">F_v := 0</text><text fill="#000000" font-family="'sans-serif'" font-size="12" lengthAdjust="spacing" textLength="167.5572" x="93.3664" y="606.7104">(convertedEpochs (v,e) guard)</text></g><path d="M13,625.2264 L13,700.2264 L478,700.2264 L478,635.2264 L468,625.2264 L13,625.2264" fill="#E8F5E9" style="stroke:#000000;stroke-width:1;"/><path d="M468,625.2264 L468,635.2264 L478,635.2264 L468,625.2264" fill="#E8F5E9" style="stroke:#000000;stroke-width:1;"/><text fill="#000000" font-family="'sans-serif'" font-size="12" lengthAdjust="spacing" textLength="320.6663" x="19" y="643.0545">FEE = TRANSFER (conserving), COST = BURN. The full flow</text><text fill="#000000" font-family="'sans-serif'" font-size="12" lengthAdjust="spacing" textLength="444.1018" x="19" y="659.3986">&#931;&#10214;c&#10215; &#8594; F_v &#8594; &#931;&#10214;v&#10215; conserves supply (Rocq fee_collect_then_convert_conserves).</text><text fill="#000000" font-family="'sans-serif'" font-size="12" lengthAdjust="spacing" textLength="394.1548" x="19" y="675.7427">Every write: read-modify-REPLACE of one datum, disjoint replay-stable</text><text fill="#000000" font-family="'sans-serif'" font-size="12" lengthAdjust="spacing" textLength="368.3652" x="19" y="692.0868">random_state, ReplaySupplyMismatch readback &#8658; play == replay.</text><g class="legend" data-source-line="59"><rect fill="none" height="128.4075" rx="7.5" ry="7.5" style="stroke:#000000;stroke-width:1;" width="294.1496" x="10" y="799.2911"/><text fill="#000000" font-family="'sans-serif'" font-size="14" lengthAdjust="spacing" textLength="35.1819" x="18.64" y="821.257">Color</text><text fill="#000000" font-family="'sans-serif'" font-size="14" lengthAdjust="spacing" textLength="57.9738" x="69.1518" y="821.257">Meaning</text><rect fill="#FFECB3" height="19.0679" style="stroke:none;stroke-width:1;" width="50.5118" x="15" y="825.359"/><text fill="#000000" font-family="'sans-serif'" font-size="14" lengthAdjust="spacing" textLength="43.2318" x="18.64" y="840.3249">amber</text><text fill="#000000" font-family="'sans-serif'" font-size="14" lengthAdjust="spacing" textLength="129.7095" x="69.1518" y="840.3249">CloseBlock (control)</text><rect fill="#BBDEFB" height="19.0679" style="stroke:none;stroke-width:1;" width="50.5118" x="15" y="844.4269"/><text fill="#000000" font-family="'sans-serif'" font-size="14" lengthAdjust="spacing" textLength="28.7699" x="18.64" y="859.3929">blue</text><text fill="#000000" font-family="'sans-serif'" font-size="14" lengthAdjust="spacing" textLength="226.3578" x="69.1518" y="859.3929">supply pool (&#931;&#10214;v&#10215; / &#931;&#10214;Ground(pk)&#10215;)</text><rect fill="#C8E6C9" height="19.0679" style="stroke:none;stroke-width:1;" width="50.5118" x="15" y="863.4948"/><text fill="#000000" font-family="'sans-serif'" font-size="14" lengthAdjust="spacing" textLength="30.4079" x="18.64" y="878.4608">mint</text><text fill="#000000" font-family="'sans-serif'" font-size="14" lengthAdjust="spacing" textLength="77.6437" x="69.1518" y="878.4608">fee pool F_v</text><rect fill="#C62828" height="19.0679" style="stroke:none;stroke-width:1;" width="50.5118" x="15" y="882.5628"/><text fill="#000000" font-family="'sans-serif'" font-size="14" lengthAdjust="spacing" textLength="22.2879" x="18.64" y="897.5287">red</text><text fill="#000000" font-family="'sans-serif'" font-size="14" lengthAdjust="spacing" textLength="77.9657" x="69.1518" y="897.5287">debit / burn</text><rect fill="#2E7D32" height="19.0679" style="stroke:none;stroke-width:1;" width="50.5118" x="15" y="901.6307"/><text fill="#000000" font-family="'sans-serif'" font-size="14" lengthAdjust="spacing" textLength="38.8358" x="18.64" y="916.5966">green</text><text fill="#000000" font-family="'sans-serif'" font-size="14" lengthAdjust="spacing" textLength="221.4511" x="69.1518" y="916.5966">mint / credit / conserving transfer</text><line style="stroke:#000000;stroke-width:1;" x1="15" x2="299.1496" y1="806.2911" y2="806.2911"/><line style="stroke:#000000;stroke-width:1;" x1="15" x2="299.1496" y1="825.359" y2="825.359"/><line style="stroke:#000000;stroke-width:1;" x1="15" x2="299.1496" y1="844.4269" y2="844.4269"/><line style="stroke:#000000;stroke-width:1;" x1="15" x2="299.1496" y1="863.4948" y2="863.4948"/><line style="stroke:#000000;stroke-width:1;" x1="15" x2="299.1496" y1="882.5628" y2="882.5628"/><line style="stroke:#000000;stroke-width:1;" x1="15" x2="299.1496" y1="901.6307" y2="901.6307"/><line style="stroke:#000000;stroke-width:1;" x1="15" x2="299.1496" y1="920.6986" y2="920.6986"/><line style="stroke:#000000;stroke-width:1;" x1="15" x2="15" y1="806.2911" y2="920.6986"/><line style="stroke:#000000;stroke-width:1;" x1="65.5118" x2="65.5118" y1="806.2911" y2="920.6986"/><line style="stroke:#000000;stroke-width:1;" x1="299.1496" x2="299.1496" y1="806.2911" y2="920.6986"/></g><?plantuml-src bLLBRXj74DtFAIha8YH2waCcYZuX0N4uOnYHQ85Kd4KS43qpHQh3PZVTtKEP2GDabSzMyDv0ZCGdo0Lo0DqXF4cgPqRys5ealPbVzUjNhrxLV6HlS8em4unBppCJBcTCioaOV9cYZ15-y03EjLQtlX9AmyugVvejYhZW8xpW4ZjA9wWteUMZR5745TEMntp6fDq9AZUpHH4zPJ_OlukHHR1uCjOgbSdMAM4O7WU75D7bSqu07mIL0py8mqFlnwqK4nonLDXGITjZf479C6dg1ZKVbHuF6_3l4GuRdiTIgsGwZL1xtcoJ69HyeGnsX8edNPm9jNWXavI9uQtc5eScdSt4eWJCWDznf0E_q_GIPbd43Bf4IlTlLs_-dA_Ul7iXAtCcE7qa-ZEbHBK4RkDpA7SwtI3iFBBlIPPnPJQfvW2nu4YaRfaGQAlvkOzl3uTpYXyXhezwMBGdXB9_71pv9vxNQi70iZ690AkVNWFEL7m3Kqw7LFBxo35WUW5AYaKLMYsFCgr_Ksu4dtURZM_hRKhW5DPPmYUj7EJgHgWnDwGgyN20c0JklG5AfuPL6ATC9sUWcKpKT6WiimX2mUgtF-2WkaMiaH6BbR5aOMi5cPlO9HXnulXrjzvjm3xy_QxRs3lPekSVDOuRnuwU_q1lHqnO_NhNelVthuU625BFm9WOV6o09LDkYIqTCILkPn3VO3p1X8eTlKUNC0vUDQAg9yd6eEQeNJd81PqWyFndWsjeGUUhVcyF1Xdp16OKOlXOqYKlelS8jKgHpHvSaarvdJQSGiG4e-vDF6fZsha05cjb322Z8f4w6IZHtyNxvw_V7UIUXp81nt9Bs6OchBD8pFGSeHBM_VsmtgqHdAIccNCv_j-A4fppdM0MGiJWbTKijjb1IY9ODK59vThIsFNKMQvaa-h-lhb2Eekyx6nr_xP0zv_r1a7_-TFU4o1uQKQeJo5l3PCRWv0fJRSlrfYuvsr7DQDDvafIrHxCNYELNQd_cyr7Bb4eZY4Xx1bqplqlWov42t26ocIjETc1PJrLvDb8yZmtsPssuC2rTyvcqodpTQCG_osJTMfkR0J7uMV1YHS60R6uxf_t1c7GXyfMzMgmuy9h8ZLAXO2HKBUvy-AiSZ_VPJJSTPDYWOC6yZ47bRwANphPXh4YxyPsI5dAOS5wk8wlxda1lLb0DYHFGIDBwbELyD6YtW-kBixz0DGeCmJDh7HQWuIRxvGREfhym1PrQgz8eBVTR3NePzy66PTBRgRCalCTjYiQh7wvS_-yXIjyZh9jUe5Zzo1mPBqbvB-G9LmYaoGJBEdT5yNqRWDpVm7wkfdycQPMqnmjGlE9suP8f4YHXJvkqa9b8-3-8rtoW93FttO-QfVmCAYpCXGHMR-rAPc40l9vjmzHgcKHa5kp3MEDr5JB76g_SBoxMVjWtIQqasJ8nV3-1G00?></g></svg>