<svg xmlns="http://www.w3.org/2000/svg" xmlns:xlink="http://www.w3.org/1999/xlink" contentStyleType="text/css" data-diagram-type="ACTIVITY" height="1205px" preserveAspectRatio="none" style="width:1141px;height:1205px;background:#FFFFFF;" version="1.1" viewBox="0 0 1141 1205" width="1141px" zoomAndPan="magnify"><?plantuml $version$?><defs/><g><g class="title" data-source-line="28"><text fill="#000000" font-family="'sans-serif'" font-size="22" font-weight="700" lengthAdjust="spacing" textLength="1109.5211" x="15" y="38.5181">Cross-group shared-component ledger (TM-CA-165) &#8212; two cosigner sets {A,s},{B,s} share &#931;&#10214;Ground(s)&#10215;</text></g><ellipse cx="455.6366" cy="70.9641" fill="#FFFFFF" rx="10" ry="10" style="stroke:#000000;stroke-width:1;"/><rect fill="#FFE0B2" height="69.0323" rx="12.5" ry="12.5" style="stroke:#333333;stroke-width:1;" width="247.2216" x="332.0258" y="100.9641"/><text fill="#000000" font-family="'sans-serif'" font-size="12" lengthAdjust="spacing" textLength="227.2216" x="342.0258" y="123.7922">two compound deploys share cosigner s</text><text fill="#000000" font-family="'sans-serif'" font-size="12" lengthAdjust="spacing" textLength="178.8493" x="342.0258" y="140.1363">G1 = And(Ground(A), Ground(s))</text><text fill="#000000" font-family="'sans-serif'" font-size="12" lengthAdjust="spacing" textLength="178.9812" x="342.0258" y="156.4804">G2 = And(Ground(B), Ground(s))</text><rect fill="#C8E6C9" height="69.0323" rx="12.5" ry="12.5" style="stroke:#333333;stroke-width:1;" width="377.2148" x="267.0292" y="189.9964"/><text fill="#000000" font-family="'sans-serif'" font-size="12" lengthAdjust="spacing" textLength="216.8775" x="277.0292" y="212.8245">seed the LIVE ledger  remaining := raw</text><text fill="#000000" font-family="'sans-serif'" font-size="12" lengthAdjust="spacing" textLength="357.2148" x="277.0292" y="229.1686">&#931;&#10214;Ground(s)&#10215; = 3 (shared) &#183;  &#931;&#10214;Ground(A)&#10215; = &#931;&#10214;Ground(B)&#10215; = 100</text><text fill="#000000" font-family="'sans-serif'" font-size="12" lengthAdjust="spacing" textLength="324.4357" x="277.0292" y="245.5128">(genesis seeds per-pubkey wallets; &#931;&#10214;And(&#8230;)&#10215; absent &#8658; 0)</text><rect fill="#B2DFDB" height="36.3441" rx="12.5" ry="12.5" style="stroke:#333333;stroke-width:1;" width="251.8417" x="329.7157" y="279.0288"/><text fill="#000000" font-family="'sans-serif'" font-size="12" lengthAdjust="spacing" textLength="231.8417" x="339.7157" y="301.8569">process groups in canonical SigKey order</text><rect fill="#FFFFFF" height="232.7885" style="stroke:#888888;stroke-width:1;" width="384.1265" x="263.5733" y="325.3729"/><path d="M413.0548,325.3729 L413.0548,337.4408 L403.0548,347.4408 L263.5733,347.4408" fill="none" style="stroke:#888888;stroke-width:1;"/><text fill="#000000" font-family="'sans-serif'" font-size="14" lengthAdjust="spacing" textLength="139.4815" x="266.5733" y="341.3388">Group 1 (SigKey-first)</text><rect fill="#B2DFDB" height="52.6882" rx="12.5" ry="12.5" style="stroke:#333333;stroke-width:1;" width="335.1582" x="288.0575" y="364.4408"/><text fill="#000000" font-family="'sans-serif'" font-size="12" lengthAdjust="spacing" textLength="315.1582" x="298.0575" y="387.2689">cap = remaining[And] + min(remaining[A], remaining[s])</text><text fill="#000000" font-family="'sans-serif'" font-size="12" lengthAdjust="spacing" textLength="112.6448" x="310.5376" y="403.613">= 0 + min(100, 3) = 3</text><rect fill="#C8E6C9" height="36.3441" rx="12.5" ry="12.5" style="stroke:#333333;stroke-width:1;" width="254.2509" x="328.5111" y="437.129"/><text fill="#000000" font-family="'sans-serif'" font-size="12" lengthAdjust="spacing" textLength="234.2509" x="338.5111" y="459.9571">folded demand cost+fee = 2 &#8804; 3 &#8658; ADMIT</text><rect fill="#BBDEFB" height="52.6882" rx="12.5" ry="12.5" style="stroke:#333333;stroke-width:1;" width="364.1265" x="273.5733" y="493.4732"/><text fill="#000000" font-family="'sans-serif'" font-size="12" lengthAdjust="spacing" textLength="344.1265" x="283.5733" y="516.3013">draw 2 DOWN the ledger (combined-first, then matched pair)</text><text fill="#000000" font-family="'sans-serif'" font-size="12" lengthAdjust="spacing" textLength="257.399" x="283.5733" y="532.6454">remaining[s] : 3 &#8594; 1    remaining[A] : 100 &#8594; 98</text><rect fill="#FFFFFF" height="240.4444" style="stroke:#888888;stroke-width:1;" width="451.2017" x="182.08" y="568.1614"/><path d="M311.4155,568.1614 L311.4155,580.2293 L301.4155,590.2293 L182.08,590.2293" fill="none" style="stroke:#888888;stroke-width:1;"/><text fill="#000000" font-family="'sans-serif'" font-size="14" lengthAdjust="spacing" textLength="119.3355" x="185.08" y="584.1273">Group 2 (shares s)</text><rect fill="#B2DFDB" height="52.6882" rx="12.5" ry="12.5" style="stroke:#333333;stroke-width:1;" width="335.2902" x="287.9915" y="607.2293"/><text fill="#000000" font-family="'sans-serif'" font-size="12" lengthAdjust="spacing" textLength="315.2902" x="297.9915" y="630.0574">cap = remaining[And] + min(remaining[B], remaining[s])</text><text fill="#000000" font-family="'sans-serif'" font-size="12" lengthAdjust="spacing" textLength="278.066" x="310.4716" y="646.4015">= 0 + min(100, 1) = 1     (s is DRAWN-DOWN by G1)</text><polygon fill="#FFE082" points="351.3909,679.9175,559.8823,679.9175,571.8823,691.9175,559.8823,703.9175,351.3909,703.9175,339.3909,691.9175,351.3909,679.9175" style="stroke:#333333;stroke-width:1;stroke-linejoin:miter;stroke-miterlimit:10;"/><text fill="#000000" font-family="'sans-serif'" font-size="11" lengthAdjust="spacing" textLength="208.4914" x="351.3909" y="696.1855">folded demand cost+fee = 2  &#8804;  cap = 1 ?</text><text fill="#000000" font-family="'sans-serif'" font-size="11" lengthAdjust="spacing" textLength="13.4529" x="325.938" y="688.6946">no</text><text fill="#000000" font-family="'sans-serif'" font-size="11" lengthAdjust="spacing" textLength="17.0829" x="571.8823" y="688.6946">yes</text><rect fill="#EF9A9A" height="52.6882" rx="12.5" ry="12.5" style="stroke:#333333;stroke-width:1;" width="270.6217" x="194.08" y="713.9175"/><text fill="#000000" font-family="'sans-serif'" font-size="12" lengthAdjust="spacing" textLength="250.6217" x="204.08" y="736.7456">REJECT-BOTH on the exhausted shared stack</text><text fill="#000000" font-family="'sans-serif'" font-size="12" lengthAdjust="spacing" textLength="194.4014" x="204.08" y="753.0897">(linear logic: a token is spent once)</text><rect fill="#C8E6C9" height="36.3441" rx="12.5" ry="12.5" style="stroke:#333333;stroke-width:1;" width="52.7602" x="555.5022" y="713.9175"/><text fill="#000000" font-family="'sans-serif'" font-size="12" lengthAdjust="spacing" textLength="32.7602" x="565.5022" y="736.7456">admit</text><polygon fill="#FFE082" points="455.6366,772.6058,467.6366,784.6058,455.6366,796.6058,443.6366,784.6058,455.6366,772.6058" style="stroke:#333333;stroke-width:1;stroke-linejoin:miter;stroke-miterlimit:10;"/><path d="M627.9943,818.6058 L627.9943,863.8708 L607.9943,867.8708 L627.9943,871.8708 L627.9943,917.1358 A0,0 0 0 0 627.9943,917.1358 L954.4411,917.1358 A0,0 0 0 0 954.4411,917.1358 L954.4411,828.6058 L944.4411,818.6058 L627.9943,818.6058 A0,0 0 0 0 627.9943,818.6058" fill="#FFF8E1" style="stroke:#666666;stroke-width:1;"/><path d="M944.4411,818.6058 L944.4411,828.6058 L954.4411,828.6058 L944.4411,818.6058" fill="#FFF8E1" style="stroke:#666666;stroke-width:1;"/><text fill="#000000" font-family="'sans-serif'" font-size="13" lengthAdjust="spacing" textLength="299.7413" x="633.9943" y="837.5028">PRE-FIX (static per-group effective): BOTH groups</text><text fill="#000000" font-family="'sans-serif'" font-size="13" lengthAdjust="spacing" textLength="301.2914" x="633.9943" y="855.2088">read &#931;&#10214;Ground(s)&#10215;'s FULL balance 3, BOTH admit,</text><text fill="#000000" font-family="'sans-serif'" font-size="13" lengthAdjust="spacing" textLength="305.4468" x="633.9943" y="872.9148">combined draw 4 &gt; 3 &#8658; 1 un-funded compute unit</text><text fill="#000000" font-family="'sans-serif'" font-size="13" lengthAdjust="spacing" textLength="272.6753" x="633.9943" y="890.6208">(the deploys run unmetered-for-liveness; the</text><text fill="#000000" font-family="'sans-serif'" font-size="13" lengthAdjust="spacing" textLength="238.7452" x="633.9943" y="908.3268">settlement silently caps the post-state).</text><rect fill="#C8E6C9" height="52.6882" rx="12.5" ry="12.5" style="stroke:#333333;stroke-width:1;" width="304.7154" x="303.2789" y="841.5267"/><text fill="#000000" font-family="'sans-serif'" font-size="12" lengthAdjust="spacing" textLength="185.2933" x="313.2789" y="864.3548">admitted = {G1} &#183;  rejected = {G2}</text><text fill="#000000" font-family="'sans-serif'" font-size="12" lengthAdjust="spacing" textLength="284.7154" x="313.2789" y="880.6989">summed draw on &#931;&#10214;Ground(s)&#10215; = 2 &#8804; 3  (bounded)</text><rect fill="#BBDEFB" height="52.6882" rx="12.5" ry="12.5" style="stroke:#333333;stroke-width:1;" width="387.2748" x="261.9992" y="937.1358"/><text fill="#000000" font-family="'sans-serif'" font-size="12" lengthAdjust="spacing" textLength="367.2748" x="271.9992" y="959.9639">REPLAY re-runs the IDENTICAL ledger (margin-free, SigKey order)</text><text fill="#000000" font-family="'sans-serif'" font-size="12" lengthAdjust="spacing" textLength="322.0689" x="271.9992" y="976.3081">&#8658; ReplayAdmissionMismatch on any over-admitted block</text><ellipse cx="455.6366" cy="1020.8241" fill="none" rx="11" ry="11" style="stroke:#000000;stroke-width:1;"/><ellipse cx="455.6366" cy="1020.8241" fill="#FFFFFF" rx="6" ry="6" style="stroke:#000000;stroke-width:1;"/><line style="stroke:#444444;stroke-width:1;" x1="455.6366" x2="455.6366" y1="80.9641" y2="100.9641"/><polygon fill="#444444" points="451.6366,90.9641,455.6366,100.9641,459.6366,90.9641,455.6366,94.9641" style="stroke:#444444;stroke-width:1;stroke-linejoin:miter;stroke-miterlimit:10;"/><line style="stroke:#444444;stroke-width:1;" x1="455.6366" x2="455.6366" y1="169.9964" y2="189.9964"/><polygon fill="#444444" points="451.6366,179.9964,455.6366,189.9964,459.6366,179.9964,455.6366,183.9964" style="stroke:#444444;stroke-width:1;stroke-linejoin:miter;stroke-miterlimit:10;"/><line style="stroke:#444444;stroke-width:1;" x1="455.6366" x2="455.6366" y1="259.0288" y2="279.0288"/><polygon fill="#444444" points="451.6366,269.0288,455.6366,279.0288,459.6366,269.0288,455.6366,273.0288" style="stroke:#444444;stroke-width:1;stroke-linejoin:miter;stroke-miterlimit:10;"/><line style="stroke:#444444;stroke-width:1;" x1="455.6366" x2="455.6366" y1="417.129" y2="437.129"/><polygon fill="#444444" points="451.6366,427.129,455.6366,437.129,459.6366,427.129,455.6366,431.129" style="stroke:#444444;stroke-width:1;stroke-linejoin:miter;stroke-miterlimit:10;"/><line style="stroke:#444444;stroke-width:1;" x1="455.6366" x2="455.6366" y1="473.4732" y2="493.4732"/><polygon fill="#444444" points="451.6366,483.4732,455.6366,493.4732,459.6366,483.4732,455.6366,487.4732" style="stroke:#444444;stroke-width:1;stroke-linejoin:miter;stroke-miterlimit:10;"/><line style="stroke:#444444;stroke-width:1;" x1="455.6366" x2="455.6366" y1="315.3729" y2="364.4408"/><polygon fill="#444444" points="451.6366,354.4408,455.6366,364.4408,459.6366,354.4408,455.6366,358.4408" style="stroke:#444444;stroke-width:1;stroke-linejoin:miter;stroke-miterlimit:10;"/><line style="stroke:#444444;stroke-width:1;" x1="339.3909" x2="329.3909" y1="691.9175" y2="691.9175"/><line style="stroke:#444444;stroke-width:1;" x1="329.3909" x2="329.3909" y1="691.9175" y2="713.9175"/><polygon fill="#444444" points="325.3909,703.9175,329.3909,713.9175,333.3909,703.9175,329.3909,707.9175" style="stroke:#444444;stroke-width:1;stroke-linejoin:miter;stroke-miterlimit:10;"/><line style="stroke:#444444;stroke-width:1;" x1="571.8823" x2="581.8823" y1="691.9175" y2="691.9175"/><line style="stroke:#444444;stroke-width:1;" x1="581.8823" x2="581.8823" y1="691.9175" y2="713.9175"/><polygon fill="#444444" points="577.8823,703.9175,581.8823,713.9175,585.8823,703.9175,581.8823,707.9175" style="stroke:#444444;stroke-width:1;stroke-linejoin:miter;stroke-miterlimit:10;"/><line style="stroke:#444444;stroke-width:1;" x1="329.3909" x2="329.3909" y1="766.6058" y2="784.6058"/><line style="stroke:#444444;stroke-width:1;" x1="329.3909" x2="443.6366" y1="784.6058" y2="784.6058"/><polygon fill="#444444" points="433.6366,780.6058,443.6366,784.6058,433.6366,788.6058,437.6366,784.6058" style="stroke:#444444;stroke-width:1;stroke-linejoin:miter;stroke-miterlimit:10;"/><line style="stroke:#444444;stroke-width:1;" x1="581.8823" x2="581.8823" y1="750.2617" y2="784.6058"/><line style="stroke:#444444;stroke-width:1;" x1="581.8823" x2="467.6366" y1="784.6058" y2="784.6058"/><polygon fill="#444444" points="477.6366,780.6058,467.6366,784.6058,477.6366,788.6058,473.6366,784.6058" style="stroke:#444444;stroke-width:1;stroke-linejoin:miter;stroke-miterlimit:10;"/><line style="stroke:#444444;stroke-width:1;" x1="455.6366" x2="455.6366" y1="659.9175" y2="679.9175"/><polygon fill="#444444" points="451.6366,669.9175,455.6366,679.9175,459.6366,669.9175,455.6366,673.9175" style="stroke:#444444;stroke-width:1;stroke-linejoin:miter;stroke-miterlimit:10;"/><line style="stroke:#444444;stroke-width:1;" x1="455.6366" x2="455.6366" y1="546.1614" y2="607.2293"/><polygon fill="#444444" points="451.6366,597.2293,455.6366,607.2293,459.6366,597.2293,455.6366,601.2293" style="stroke:#444444;stroke-width:1;stroke-linejoin:miter;stroke-miterlimit:10;"/><line style="stroke:#444444;stroke-width:1;" x1="455.6366" x2="455.6366" y1="796.6058" y2="841.5267"/><polygon fill="#444444" points="451.6366,831.5267,455.6366,841.5267,459.6366,831.5267,455.6366,835.5267" style="stroke:#444444;stroke-width:1;stroke-linejoin:miter;stroke-miterlimit:10;"/><line style="stroke:#444444;stroke-width:1;" x1="455.6366" x2="455.6366" y1="894.2149" y2="937.1358"/><polygon fill="#444444" points="451.6366,927.1358,455.6366,937.1358,459.6366,927.1358,455.6366,931.1358" style="stroke:#444444;stroke-width:1;stroke-linejoin:miter;stroke-miterlimit:10;"/><line style="stroke:#444444;stroke-width:1;" x1="455.6366" x2="455.6366" y1="989.8241" y2="1009.8241"/><polygon fill="#444444" points="451.6366,999.8241,455.6366,1009.8241,459.6366,999.8241,455.6366,1003.8241" style="stroke:#444444;stroke-width:1;stroke-linejoin:miter;stroke-miterlimit:10;"/><g class="legend" data-source-line="61"><rect fill="none" height="147.4754" rx="7.5" ry="7.5" style="stroke:#000000;stroke-width:1;" width="349.0367" x="181.08" y="1045.8241"/><text fill="#000000" font-family="'sans-serif'" font-size="14" lengthAdjust="spacing" textLength="35.1819" x="189.72" y="1067.79">Color</text><text fill="#000000" font-family="'sans-serif'" font-size="14" lengthAdjust="spacing" textLength="57.9738" x="244.2638" y="1067.79">Meaning</text><rect fill="#FFE0B2" height="19.0679" style="stroke:none;stroke-width:1;" width="54.5438" x="186.08" y="1071.892"/><text fill="#000000" font-family="'sans-serif'" font-size="14" lengthAdjust="spacing" textLength="47.2638" x="189.72" y="1086.8579">orange</text><text fill="#000000" font-family="'sans-serif'" font-size="14" lengthAdjust="spacing" textLength="261.169" x="244.2638" y="1086.8579">the two shared-cosigner deploys (input)</text><rect fill="#C8E6C9" height="19.0679" style="stroke:none;stroke-width:1;" width="54.5438" x="186.08" y="1090.9599"/><text fill="#000000" font-family="'sans-serif'" font-size="14" lengthAdjust="spacing" textLength="30.4079" x="189.72" y="1105.9258">mint</text><text fill="#000000" font-family="'sans-serif'" font-size="14" lengthAdjust="spacing" textLength="165.7594" x="244.2638" y="1105.9258">supply / admit / conserve</text><rect fill="#B2DFDB" height="19.0679" style="stroke:none;stroke-width:1;" width="54.5438" x="186.08" y="1110.0278"/><text fill="#000000" font-family="'sans-serif'" font-size="14" lengthAdjust="spacing" textLength="24.4159" x="189.72" y="1124.9938">teal</text><text fill="#000000" font-family="'sans-serif'" font-size="14" lengthAdjust="spacing" textLength="145.0394" x="244.2638" y="1124.9938">the effective&#931; cap fold</text><rect fill="#BBDEFB" height="19.0679" style="stroke:none;stroke-width:1;" width="54.5438" x="186.08" y="1129.0957"/><text fill="#000000" font-family="'sans-serif'" font-size="14" lengthAdjust="spacing" textLength="28.7699" x="189.72" y="1144.0617">blue</text><text fill="#000000" font-family="'sans-serif'" font-size="14" lengthAdjust="spacing" textLength="205.8272" x="244.2638" y="1144.0617">LIVE ledger draw-down / replay</text><rect fill="#FFE082" height="19.0679" style="stroke:none;stroke-width:1;" width="54.5438" x="186.08" y="1148.1637"/><text fill="#000000" font-family="'sans-serif'" font-size="14" lengthAdjust="spacing" textLength="43.2318" x="189.72" y="1163.1296">amber</text><text fill="#000000" font-family="'sans-serif'" font-size="14" lengthAdjust="spacing" textLength="179.2973" x="244.2638" y="1163.1296">the cross-group fit decision</text><rect fill="#EF9A9A" height="19.0679" style="stroke:none;stroke-width:1;" width="54.5438" x="186.08" y="1167.2316"/><text fill="#000000" font-family="'sans-serif'" font-size="14" lengthAdjust="spacing" textLength="22.2879" x="189.72" y="1182.1975">red</text><text fill="#000000" font-family="'sans-serif'" font-size="14" lengthAdjust="spacing" textLength="277.213" x="244.2638" y="1182.1975">reject-both on the exhausted shared stack</text><line style="stroke:#000000;stroke-width:1;" x1="186.08" x2="525.1167" y1="1052.8241" y2="1052.8241"/><line style="stroke:#000000;stroke-width:1;" x1="186.08" x2="525.1167" y1="1071.892" y2="1071.892"/><line style="stroke:#000000;stroke-width:1;" x1="186.08" x2="525.1167" y1="1090.9599" y2="1090.9599"/><line style="stroke:#000000;stroke-width:1;" x1="186.08" x2="525.1167" y1="1110.0278" y2="1110.0278"/><line style="stroke:#000000;stroke-width:1;" x1="186.08" x2="525.1167" y1="1129.0957" y2="1129.0957"/><line style="stroke:#000000;stroke-width:1;" x1="186.08" x2="525.1167" y1="1148.1637" y2="1148.1637"/><line style="stroke:#000000;stroke-width:1;" x1="186.08" x2="525.1167" y1="1167.2316" y2="1167.2316"/><line style="stroke:#000000;stroke-width:1;" x1="186.08" x2="525.1167" y1="1186.2995" y2="1186.2995"/><line style="stroke:#000000;stroke-width:1;" x1="186.08" x2="186.08" y1="1052.8241" y2="1186.2995"/><line style="stroke:#000000;stroke-width:1;" x1="240.6238" x2="240.6238" y1="1052.8241" y2="1186.2995"/><line style="stroke:#000000;stroke-width:1;" x1="525.1167" x2="525.1167" y1="1052.8241" y2="1186.2995"/></g><?plantuml-src bLRBSkD45DthAox90gd6WjWPKevd4af-XK2IION0G94isjALqrZgLdMt4bn9gcO5nNQA_Io66Zw1FHym7-4luNPBDdPYfa2BkAgxJzzppdrqFZ9Nc2CK6UF2qnCk2gPO3WcchCpCK0fpmcX_GpEXGusAfnjBnoAbv4rFPbB1kc_pgVkM0R7XrznCkr8bg1uXDxVTjmx0uibOoL8aAw3DeVlM0FgSvL8a3t4466orMny0F63scD8fKuORBiLw4Pjjzoq1JgJ1V-4_rz0UD1y2rZla03lkyuX5Xj1JKklGtbs0lc8Aap2MUI452WCP9cDKu9yVXxqeREvy5i3irMzWRYJ4KlEne4sDHiDjrD3tZTik_QrkWVTlPs_U7JZAlWvcR_xmF6r8kjUfq1I2jgXIYanETGtwvz8BST24FOW8NLyI1GrOt1VGVcjrlxko_moUFtV9whRszxsEHao0QXME3hyTp6M1mfpgbeinTFP0iPiByOWrnTW6lp8cWB_-X1LXKNraUQrRhpMtjYw4FqQ1cfC-8g2XG1KMvMY2KxXXMKREFQkmLiVirJi7PIDjlP_zyXgsAXszzc2djsjr54h6g3MuV6dW0c8cfE0no-1hFlwABdQ9Tx1kgp_iTmdc5VEQWuq3b-ac-DNnCELAcs03RZs0JimAOhwmvGUYTGbF8EV2NrgyR2mTqPUK2rjMUx1L7oNb3TWEh7MhF2X2AhC4RTfpHjcdV9idAI8TRS7irz_9QoixwXyVdgyg9sX26Q9Z_HSlJrmgvyL9jJJYWkhMIMdOFG4vC_4L1IeOLqHmcIzqR9YVNvC90CjYxGvnTtkxxOfwjpyOMkhtQqnirOL1sVrV1dR_au5DQw2ZI660IgX_5hqy2PtyqHGEci53StaA_WVyTGP3nR09dmULKRwGWMU3TCu6Nmvwvs7tnVaNG2AjnVZJ5IkreGkh3W1guNX2PPsHuKn19iSyxW038oTqbwtpmjQk535Mz0R3tMWtSlGmqmZ-57KTZoKvDm-pZ2BXgNMxshQXz-3se7dlUa_XZnZFrrht5qANUMxbsj8WpklQTrvOu8_iEhNnQan1qn8K7ryP2dzwDWY7Xz-HuuOP7hk6hMOZfYdQKOz11vn5LGjwbXHB7aV-MCFmcwCZ6B6CaHkmtQXWJbQ3OFEohSW_XVsw-9jGYZ1rJDsOB8bUARXbvzkSp2UcAWMjvsZGpknKgZ0ZTZHjQARGEJfEavacV6uJedb6FzdKfb-xr1PK6g5LYS4d7haErWUFYk3qAFgUD8LqVtNoi3yuEJ_iHKUBZikP6dCYgH0RAsE7AjbAE2EAR1gHKgsfNuwvTkreCyG47RqcLnVf7MKodgmscpQoyBmCnvPNXgdnxg1wokxW69cRs7UqjfZm59s9CTAs9MmVcCLJLZyeSzTyUYHB4zJmkWXiqna2wx8eoADFgoJHRom5_TDoZVNnkjV088tRAjQYBDw_TQrb-sz-kf930alBRFdbiIaF4taZA8PoPYtfQPCUbezGrI7YfHSw9Le9njpQMaFg3WFRddTrXuGZQQu-tCI49dShZ_y6?></g></svg>