<svg xmlns="http://www.w3.org/2000/svg" xmlns:xlink="http://www.w3.org/1999/xlink" contentStyleType="text/css" data-diagram-type="DESCRIPTION" height="795px" preserveAspectRatio="none" style="width:1065px;height:795px;background:#FFFFFF;" version="1.1" viewBox="0 0 1065 795" width="1065px" zoomAndPan="magnify"><?plantuml $version$?><defs/><g><g class="title" data-source-line="28"><text fill="#000000" font-family="'sans-serif'" font-size="22" font-weight="700" lengthAdjust="spacing" textLength="813.0786" x="125.3507" y="38.5181">&#167;D2.9 reconciles the implementation with its already-pubkey-keyed model</text></g><!--cluster Rocq model ? WalletNaming.v--><g class="cluster" data-qualified-name="Rocq model . WalletNaming.v" data-source-line="30" id="ent0001"><path d="M323.28,62.5661 L539.1652,62.5661 A3.75,3.75 0 0 1 541.6652,65.0661 L548.6652,87.634 L1048.28,87.634 A2.5,2.5 0 0 1 1050.78,90.134 L1050.78,396.7261 A2.5,2.5 0 0 1 1048.28,399.2261 L323.28,399.2261 A2.5,2.5 0 0 1 320.78,396.7261 L320.78,65.0661 A2.5,2.5 0 0 1 323.28,62.5661" fill="#FFFFFF" style="stroke:#444444;stroke-width:1;"/><line style="stroke:#444444;stroke-width:1;" x1="320.78" x2="548.6652" y1="87.634" y2="87.634"/><text fill="#000000" font-family="'sans-serif'" font-size="14" font-weight="700" lengthAdjust="spacing" textLength="214.8852" x="324.78" y="79.532">Rocq model &#8212; WalletNaming.v</text><text fill="#000000" font-family="'sans-serif'" font-size="14" font-style="italic" lengthAdjust="spacing" textLength="69.1738" x="655.1931" y="104.5999">&#171;#C8E6C9&#187;</text></g><!--cluster Rust impl (?D2.9)--><g class="cluster" data-qualified-name="Rust impl ..D2.9." data-source-line="39" id="ent0008"><path d="M34.28,283.3061 L151.2975,283.3061 A3.75,3.75 0 0 1 153.7975,285.8061 L160.7975,308.374 L275.28,308.374 A2.5,2.5 0 0 1 277.78,310.874 L277.78,565.1461 A2.5,2.5 0 0 1 275.28,567.6461 L34.28,567.6461 A2.5,2.5 0 0 1 31.78,565.1461 L31.78,285.8061 A2.5,2.5 0 0 1 34.28,283.3061" fill="#FFFFFF" style="stroke:#444444;stroke-width:1;"/><line style="stroke:#444444;stroke-width:1;" x1="31.78" x2="160.7975" y1="308.374" y2="308.374"/><text fill="#000000" font-family="'sans-serif'" font-size="14" font-weight="700" lengthAdjust="spacing" textLength="116.0175" x="35.78" y="300.272">Rust impl (&#167;D2.9)</text><text fill="#000000" font-family="'sans-serif'" font-size="14" font-style="italic" lengthAdjust="spacing" textLength="68.8378" x="124.3611" y="325.3399">&#171;#F8C3B8&#187;</text></g><!--entity WV--><g class="entity" data-qualified-name="Rocq model . WalletNaming.v.WV" data-source-line="31" id="ent0002"><rect fill="#FFFFFF" height="58.1358" rx="2.5" ry="2.5" style="stroke:#333333;stroke-width:1;" width="251.2511" x="337.15" y="129.0961"/><text fill="#000000" font-family="'sans-serif'" font-size="14" font-style="italic" lengthAdjust="spacing" textLength="69.1738" x="428.1887" y="154.062">&#171;#C8E6C9&#187;</text><text fill="#000000" font-family="'sans-serif'" font-size="14" lengthAdjust="spacing" textLength="231.2511" x="347.15" y="173.1299">@W_v := @(*walletTag, validatorPk)</text></g><!--entity SGROUND--><g class="entity" data-qualified-name="Rocq model . WalletNaming.v.SGROUND" data-source-line="32" id="ent0003"><rect fill="#FFFFFF" height="77.2038" rx="2.5" ry="2.5" style="stroke:#333333;stroke-width:1;" width="179.5714" x="622.99" y="119.5661"/><text fill="#000000" font-family="'sans-serif'" font-size="14" font-style="italic" lengthAdjust="spacing" textLength="69.1738" x="678.1888" y="144.532">&#171;#C8E6C9&#187;</text><text fill="#000000" font-family="'sans-serif'" font-size="14" lengthAdjust="spacing" textLength="158.7999" x="632.99" y="163.5999">SGround : list bool &#8594; sig</text><text fill="#000000" font-family="'sans-serif'" font-size="14" lengthAdjust="spacing" textLength="159.5714" x="632.99" y="182.6679">(the ground-axis carrier)</text></g><!--entity INJ--><g class="entity" data-qualified-name="Rocq model . WalletNaming.v.INJ" data-source-line="33" id="ent0004"><rect fill="#FFFFFF" height="77.2038" rx="2.5" ry="2.5" style="stroke:#333333;stroke-width:1;" width="197.3498" x="837.1" y="119.5661"/><text fill="#000000" font-family="'sans-serif'" font-size="14" font-style="italic" lengthAdjust="spacing" textLength="69.1738" x="901.188" y="144.532">&#171;#C8E6C9&#187;</text><text fill="#000000" font-family="'sans-serif'" font-size="14" lengthAdjust="spacing" textLength="143.1214" x="847.1" y="163.5999">wallet_name_injective</text><text fill="#000000" font-family="'sans-serif'" font-size="14" lengthAdjust="spacing" textLength="177.3498" x="847.1" y="182.6679">distinct pk &#8658; distinct @W_v</text></g><g class="entity" data-qualified-name="Rocq model . WalletNaming.v.GMN5" data-source-line="35" id="ent0006"><path d="M692.85,355.5161 L692.85,383.2221 A0,0 0 0 0 692.85,383.2221 L1034.7033,383.2221 A0,0 0 0 0 1034.7033,383.2221 L1034.7033,365.5161 L1024.7033,355.5161 L872.36,355.5161 L922.74,197.0561 L864.36,355.5161 L692.85,355.5161 A0,0 0 0 0 692.85,355.5161" fill="#E8F5E9" style="stroke:#666666;stroke-width:1;"/><path d="M1024.7033,355.5161 L1024.7033,365.5161 L1034.7033,365.5161 L1024.7033,355.5161" fill="#E8F5E9" style="stroke:#666666;stroke-width:1;"/><text fill="#000000" font-family="'sans-serif'" font-size="13" lengthAdjust="spacing" textLength="320.8533" x="698.85" y="374.4131">axiom-free &#8212; the model was ALWAYS pubkey-keyed.</text></g><!--entity FSIG--><g class="entity" data-qualified-name="Rust impl ..D2.9..FSIG" data-source-line="40" id="ent0009"><rect fill="#FFFFFF" height="58.1358" rx="2.5" ry="2.5" style="stroke:#333333;stroke-width:1;" width="214.2912" x="47.63" y="340.3061"/><text fill="#000000" font-family="'sans-serif'" font-size="14" font-style="italic" lengthAdjust="spacing" textLength="68.8378" x="120.3567" y="365.272">&#171;#F8C3B8&#187;</text><text fill="#000000" font-family="'sans-serif'" font-size="14" lengthAdjust="spacing" textLength="194.2912" x="57.63" y="384.3399">funding_sig = Sig::Ground(pk)</text></g><!--entity POOL--><g class="entity" data-qualified-name="Rust impl ..D2.9..POOL" data-source-line="41" id="ent0010"><rect fill="#FFFFFF" height="77.2038" rx="2.5" ry="2.5" style="stroke:#333333;stroke-width:1;" width="200.1266" x="54.71" y="474.4361"/><text fill="#000000" font-family="'sans-serif'" font-size="14" font-style="italic" lengthAdjust="spacing" textLength="68.8378" x="120.3544" y="499.402">&#171;#F8C3B8&#187;</text><text fill="#000000" font-family="'sans-serif'" font-size="14" lengthAdjust="spacing" textLength="180.1266" x="64.71" y="518.4699">&#931;&#10214;Ground(pk)&#10215;  supply pool</text><text fill="#000000" font-family="'sans-serif'" font-size="14" lengthAdjust="spacing" textLength="144.1294" x="64.71" y="537.5379">(the wallet, gate-read)</text></g><!--entity OUTLIER--><g class="entity" data-qualified-name="OUTLIER" data-source-line="49" id="ent0013"><rect fill="#FFFFFF" height="96.2717" rx="2.5" ry="2.5" style="stroke:#333333;stroke-width:1;" width="247.5551" x="12" y="110.0361"/><text fill="#000000" font-family="'sans-serif'" font-size="14" font-style="italic" lengthAdjust="spacing" textLength="65.7437" x="102.9057" y="135.002">&#171;#FFEBEE&#187;</text><text fill="#000000" font-family="'sans-serif'" font-size="14" lengthAdjust="spacing" textLength="185.0092" x="22" y="154.0699">pre-&#167;D2.9: funding keyed by</text><text fill="#000000" font-family="'sans-serif'" font-size="14" lengthAdjust="spacing" textLength="136.6395" x="22" y="173.1379">wire-sig Quote(hash)</text><text fill="#000000" font-family="'sans-serif'" font-size="14" lengthAdjust="spacing" textLength="227.5551" x="22" y="192.2058">&#8212; the OUTLIER the code corrected</text></g><g class="entity" data-qualified-name="CONCLUSION" data-source-line="53" id="ent0015"><path d="M17.05,614.6461 L17.05,660.0581 A0,0 0 0 0 17.05,660.0581 L292.4992,660.0581 A0,0 0 0 0 292.4992,660.0581 L292.4992,624.6461 L282.4992,614.6461 L158.78,614.6461 L154.78,552.0661 L150.78,614.6461 L17.05,614.6461 A0,0 0 0 0 17.05,614.6461" fill="#E8F5E9" style="stroke:#666666;stroke-width:1;"/><path d="M282.4992,614.6461 L282.4992,624.6461 L292.4992,624.6461 L282.4992,614.6461" fill="#E8F5E9" style="stroke:#666666;stroke-width:1;"/><text fill="#000000" font-family="'sans-serif'" font-size="13" lengthAdjust="spacing" textLength="218.1388" x="23.05" y="633.5431">&#8658; no formal-model change needed;</text><text fill="#000000" font-family="'sans-serif'" font-size="13" lengthAdjust="spacing" textLength="254.4492" x="23.05" y="651.2491">&#167;D2.9 reconciles code with its own model.</text></g><!--link FSIG to POOL--><g class="link" data-entity-1="ent0009" data-entity-2="ent0010" data-link-type="dependency" data-source-line="42" id="lnk11"><path d="M154.78,398.6961 C154.78,420.3461 154.78,445.3761 154.78,469.0961" fill="none" id="FSIG-to-POOL" style="stroke:#000000;stroke-width:1;"/><polygon fill="#000000" points="154.78,474.0961,158.78,465.0961,154.78,469.0961,150.78,465.0961,154.78,474.0961" style="stroke:#000000;stroke-width:1;stroke-linejoin:miter;stroke-miterlimit:10;"/><text fill="#000000" font-family="'sans-serif'" font-size="11" lengthAdjust="spacing" textLength="22.9568" x="155.78" y="441.195">keys</text></g><!--link WV to FSIG--><g class="link" data-entity-1="ent0002" data-entity-2="ent0009" data-link-type="dependency" data-source-line="46" id="lnk12"><path d="M428.23,187.6561 C400.4,210.1661 359.92,241.9161 322.78,267.3061 C284.42,293.5261 243.5434,318.0218 209.6834,337.5118" fill="none" id="WV-to-FSIG" style="stroke:#1565C0;stroke-width:1;"/><polygon fill="#1565C0" points="205.35,340.0061,215.1456,338.983,209.6834,337.5118,211.1547,332.0496,205.35,340.0061" style="stroke:#1565C0;stroke-width:1;stroke-linejoin:miter;stroke-miterlimit:10;"/><text fill="#000000" font-family="'sans-serif'" font-size="11" lengthAdjust="spacing" textLength="60.2686" x="428.5885" y="249.065">instantiates</text><text fill="#000000" font-family="'sans-serif'" font-size="11" lengthAdjust="spacing" textLength="190.9256" x="363.26" y="264.0469">(the abstract funding-key parameter)</text></g><!--link OUTLIER to FSIG--><g class="link" data-entity-1="ent0013" data-entity-2="ent0009" data-link-type="dependency" data-source-line="50" id="lnk14"><path d="M140.09,206.6361 C143.82,247.7461 148.6475,300.8566 151.7575,335.0766" fill="none" id="OUTLIER-to-FSIG" style="stroke:#C62828;stroke-width:1;stroke-dasharray:7,7;"/><polygon fill="#C62828" points="152.21,340.0561,155.379,330.731,151.7575,335.0766,147.4118,331.4551,152.21,340.0561" style="stroke:#C62828;stroke-width:1;stroke-linejoin:miter;stroke-miterlimit:10;"/><text fill="#000000" font-family="'sans-serif'" font-size="11" lengthAdjust="spacing" textLength="122.0551" x="168.8188" y="249.065">&#167;D2.9 re-points funding</text><text fill="#000000" font-family="'sans-serif'" font-size="11" lengthAdjust="spacing" textLength="167.1328" x="146.28" y="264.0469">from Quote(hash) to Ground(pk)</text></g><g class="legend" data-source-line="58"><rect fill="none" height="109.3396" rx="7.5" ry="7.5" style="stroke:#000000;stroke-width:1;" width="401.8865" x="330.9468" y="674.0581"/><text fill="#000000" font-family="'sans-serif'" font-size="14" font-weight="700" lengthAdjust="spacing" textLength="35.1539" x="339.5867" y="696.0241">color</text><text fill="#000000" font-family="'sans-serif'" font-size="14" font-weight="700" lengthAdjust="spacing" textLength="61.6278" x="382.0206" y="696.0241">meaning</text><rect fill="#C8E6C9" height="19.0679" style="stroke:none;stroke-width:1;" width="42.4338" x="335.9468" y="700.126"/><text fill="#000000" font-family="'sans-serif'" font-size="14" lengthAdjust="spacing" textLength="3.64" x="335.9468" y="715.092">&#160;</text><text fill="#000000" font-family="'sans-serif'" font-size="14" lengthAdjust="spacing" textLength="342.1726" x="382.0206" y="715.092">Rocq model WalletNaming.v (already pubkey-keyed)</text><rect fill="#F8C3B8" height="19.0679" style="stroke:none;stroke-width:1;" width="42.4338" x="335.9468" y="719.194"/><text fill="#000000" font-family="'sans-serif'" font-size="14" lengthAdjust="spacing" textLength="3.64" x="335.9468" y="734.1599">&#160;</text><text fill="#000000" font-family="'sans-serif'" font-size="14" lengthAdjust="spacing" textLength="187.1233" x="382.0206" y="734.1599">Rust implementation (&#167;D2.9)</text><rect fill="#1565C0" height="19.0679" style="stroke:none;stroke-width:1;" width="42.4338" x="335.9468" y="738.2619"/><text fill="#000000" font-family="'sans-serif'" font-size="14" lengthAdjust="spacing" textLength="3.64" x="335.9468" y="753.2278">&#160;</text><text fill="#000000" font-family="'sans-serif'" font-size="14" lengthAdjust="spacing" textLength="319.8427" x="382.0206" y="753.2278">instantiates &#8212; model parameter realized in code</text><rect fill="#C62828" height="19.0679" style="stroke:none;stroke-width:1;" width="42.4338" x="335.9468" y="757.3298"/><text fill="#000000" font-family="'sans-serif'" font-size="14" lengthAdjust="spacing" textLength="3.64" x="335.9468" y="772.2957">&#160;</text><text fill="#000000" font-family="'sans-serif'" font-size="14" lengthAdjust="spacing" textLength="288.0489" x="382.0206" y="772.2957">corrected pre-&#167;D2.9 outlier (wire-sig keying)</text><line style="stroke:#000000;stroke-width:1;" x1="335.9468" x2="727.8332" y1="681.0581" y2="681.0581"/><line style="stroke:#000000;stroke-width:1;" x1="335.9468" x2="727.8332" y1="700.126" y2="700.126"/><line style="stroke:#000000;stroke-width:1;" x1="335.9468" x2="727.8332" y1="719.194" y2="719.194"/><line style="stroke:#000000;stroke-width:1;" x1="335.9468" x2="727.8332" y1="738.2619" y2="738.2619"/><line style="stroke:#000000;stroke-width:1;" x1="335.9468" x2="727.8332" y1="757.3298" y2="757.3298"/><line style="stroke:#000000;stroke-width:1;" x1="335.9468" x2="727.8332" y1="776.3977" y2="776.3977"/><line style="stroke:#000000;stroke-width:1;" x1="335.9468" x2="335.9468" y1="681.0581" y2="776.3977"/><line style="stroke:#000000;stroke-width:1;" x1="378.3806" x2="378.3806" y1="681.0581" y2="776.3977"/><line style="stroke:#000000;stroke-width:1;" x1="727.8332" x2="727.8332" y1="681.0581" y2="776.3977"/></g><?plantuml-src VLJHRjD857ttLroI1z8LjcYXLPgb5Mr8gg8gOPkMQ4LGDRKdpf3nZ9cPD0IwqZxjlYFUUK22_-03-8X-2NSyjcEJrLgA57lkd7llEUVUUsP64mef9qnuUiv4IXH98A9Jik2cBuKP43nlQ2AqhwbYqqObB9H9AWKLPcHMd8AYeI4YvhGIecSaaaicOfWIhgidHqh9fSqmOkyfR6zNZb8IpabCuOC7S2nLH5LNSgcW-JXxlB_-guRDw4VPKuiUI4EF4JrMSY6YFAxVxxTxsxz6LP3iqzpB7iymWwr-__Pi9zYt7KiHCaur8970afGZdS8GmwI09JCpO4O3uOgIQEMdY-ivNVduen4aCgBSyufU6-SoVEi-mjtVds1CEAUMVUGkk6d0aoVDRhktrzq_FCmwNVVTU3g-ke7E0Jnj_RRCRbsG-07S4CuYOgHwCT-gNoSQnY_h4AEJZ13e06VQmBMKMCK_7q6pU29QjZV7c4_UCGqXKOfHjGaxEZaVNWwUrR5TJLS2ZNJ5n1iq2RkX4n5X8YP20-aSxlxz2EMxRMS3-NJm75452eF56ICJa5Fx4PgzTd-tj-zPZR0ucVXJHMb6eItR4Rf4XAEpyT6V8wXg4E0jYbrRMBH9HOi5ac3LX9PJshNQRtSV7RSt1PWYCoZJ5R851p1YSQVZ-6obyrzkOY7zqUb9_VwFBtUVlwvlt7t-1g0NQSfNaA8IkGAEnmSG4qDzQwXDw1V3uHb2smpW-uVPEsgApMhRttsuA2bXGkEm6ePW6b-CpEWAfR9JZFRCA0WnDF36By5_rTpUtTljFdoDg1byfuQGbqYkjL44DSmPiJH3DbFKe5-A2jPPKaNzV9Ramd0qLU1LY5aVTmf8SDDplPg89SDZo_aV2nImDIDwjZKHXVB3oukpqzvvtbPKoUfew_UEUpr7Mnxg5LU2Lytktavxf_qwABij9zvF9TAbYtecOghGZPKI0BbSY-bvcManItSuw9vTZaw7WuffhVE5XAbK2U6-aoQSuHQb82YDQFGx1crkcwoXSh_8fN2g1bvfvqpw8AXazJnEOtlk1WXnRmyGo2uu_9DG8Yozj_PxENktK5bBzPK4hNojrKPggm38RNaBvInLDcCnLKMmynO6rrnfbNIPImiX1xZMtgC1c70a5FLcUY72_taBMgLbi5ZimXQ0Z3XUl9y0?></g></svg>