<svg xmlns="http://www.w3.org/2000/svg" xmlns:xlink="http://www.w3.org/1999/xlink" contentStyleType="text/css" data-diagram-type="DESCRIPTION" height="700px" preserveAspectRatio="none" style="width:1065px;height:700px;background:#FFFFFF;" version="1.1" viewBox="0 0 1065 700" width="1065px" zoomAndPan="magnify"><?plantuml $version$?><defs/><g><g class="title" data-source-line="28"><text fill="#000000" font-family="'sans-serif'" font-size="22" font-weight="700" lengthAdjust="spacing" textLength="813.0786" x="125.3507" y="38.5181">&#167;D2.9 reconciles the implementation with its already-pubkey-keyed model</text></g><!--cluster Rocq model ? WalletNaming.v--><g class="cluster" data-qualified-name="Rocq model . WalletNaming.v" data-source-line="30" id="ent0001"><path d="M323.28,62.5661 L539.1652,62.5661 A3.75,3.75 0 0 1 541.6652,65.0661 L548.6652,87.634 L1048.28,87.634 A2.5,2.5 0 0 1 1050.78,90.134 L1050.78,330.1261 A2.5,2.5 0 0 1 1048.28,332.6261 L323.28,332.6261 A2.5,2.5 0 0 1 320.78,330.1261 L320.78,65.0661 A2.5,2.5 0 0 1 323.28,62.5661" fill="#E8F5E9" style="stroke:#444444;stroke-width:1;"/><line style="stroke:#444444;stroke-width:1;" x1="320.78" x2="548.6652" y1="87.634" y2="87.634"/><text fill="#000000" font-family="'sans-serif'" font-size="14" font-weight="700" lengthAdjust="spacing" textLength="214.8852" x="324.78" y="79.532">Rocq model &#8212; WalletNaming.v</text></g><!--cluster Rust impl (?D2.9)--><g class="cluster" data-qualified-name="Rust impl ..D2.9." data-source-line="39" id="ent0008"><path d="M34.28,245.2361 L151.2975,245.2361 A3.75,3.75 0 0 1 153.7975,247.7361 L160.7975,270.304 L275.28,270.304 A2.5,2.5 0 0 1 277.78,272.804 L277.78,469.9461 A2.5,2.5 0 0 1 275.28,472.4461 L34.28,472.4461 A2.5,2.5 0 0 1 31.78,469.9461 L31.78,247.7361 A2.5,2.5 0 0 1 34.28,245.2361" fill="#FCE4EC" style="stroke:#444444;stroke-width:1;"/><line style="stroke:#444444;stroke-width:1;" x1="31.78" x2="160.7975" y1="270.304" y2="270.304"/><text fill="#000000" font-family="'sans-serif'" font-size="14" font-weight="700" lengthAdjust="spacing" textLength="116.0175" x="35.78" y="262.202">Rust impl (&#167;D2.9)</text></g><!--entity WV--><g class="entity" data-qualified-name="Rocq model . WalletNaming.v.WV" data-source-line="31" id="ent0002"><rect fill="#C8E6C9" height="39.0679" rx="2.5" ry="2.5" style="stroke:#333333;stroke-width:1;" width="251.2511" x="337.15" y="110.1061"/><text fill="#000000" font-family="'sans-serif'" font-size="14" lengthAdjust="spacing" textLength="231.2511" x="347.15" y="135.072">@W_v := @(*walletTag, validatorPk)</text></g><!--entity SGROUND--><g class="entity" data-qualified-name="Rocq model . WalletNaming.v.SGROUND" data-source-line="32" id="ent0003"><rect fill="#C8E6C9" height="58.1358" rx="2.5" ry="2.5" style="stroke:#333333;stroke-width:1;" width="179.5714" x="622.99" y="100.5661"/><text fill="#000000" font-family="'sans-serif'" font-size="14" lengthAdjust="spacing" textLength="158.7999" x="632.99" y="125.532">SGround : list bool &#8594; sig</text><text fill="#000000" font-family="'sans-serif'" font-size="14" lengthAdjust="spacing" textLength="159.5714" x="632.99" y="144.5999">(the ground-axis carrier)</text></g><!--entity INJ--><g class="entity" data-qualified-name="Rocq model . WalletNaming.v.INJ" data-source-line="33" id="ent0004"><rect fill="#C8E6C9" height="58.1358" rx="2.5" ry="2.5" style="stroke:#333333;stroke-width:1;" width="197.3498" x="837.1" y="100.5661"/><text fill="#000000" font-family="'sans-serif'" font-size="14" lengthAdjust="spacing" textLength="143.1214" x="847.1" y="125.532">wallet_name_injective</text><text fill="#000000" font-family="'sans-serif'" font-size="14" lengthAdjust="spacing" textLength="177.3498" x="847.1" y="144.5999">distinct pk &#8658; distinct @W_v</text></g><g class="entity" data-qualified-name="Rocq model . WalletNaming.v.GMN5" data-source-line="35" id="ent0006"><path d="M692.85,288.9261 L692.85,316.6321 A0,0 0 0 0 692.85,316.6321 L1034.7033,316.6321 A0,0 0 0 0 1034.7033,316.6321 L1034.7033,298.9261 L1024.7033,288.9261 L873.38,288.9261 L923.89,158.8961 L865.38,288.9261 L692.85,288.9261 A0,0 0 0 0 692.85,288.9261" fill="#E8F5E9" style="stroke:#666666;stroke-width:1;"/><path d="M1024.7033,288.9261 L1024.7033,298.9261 L1034.7033,298.9261 L1024.7033,288.9261" fill="#E8F5E9" style="stroke:#666666;stroke-width:1;"/><text fill="#000000" font-family="'sans-serif'" font-size="13" lengthAdjust="spacing" textLength="320.8533" x="698.85" y="307.8231">axiom-free &#8212; the model was ALWAYS pubkey-keyed.</text></g><!--entity FSIG--><g class="entity" data-qualified-name="Rust impl ..D2.9..FSIG" data-source-line="40" id="ent0009"><rect fill="#F8C3B8" height="39.0679" rx="2.5" ry="2.5" style="stroke:#333333;stroke-width:1;" width="214.2912" x="47.63" y="283.2361"/><text fill="#000000" font-family="'sans-serif'" font-size="14" lengthAdjust="spacing" textLength="194.2912" x="57.63" y="308.202">funding_sig = Sig::Ground(pk)</text></g><!--entity POOL--><g class="entity" data-qualified-name="Rust impl ..D2.9..POOL" data-source-line="41" id="ent0010"><rect fill="#F8C3B8" height="58.1358" rx="2.5" ry="2.5" style="stroke:#333333;stroke-width:1;" width="200.1266" x="54.71" y="398.3061"/><text fill="#000000" font-family="'sans-serif'" font-size="14" lengthAdjust="spacing" textLength="180.1266" x="64.71" y="423.272">&#931;&#10214;Ground(pk)&#10215;  supply pool</text><text fill="#000000" font-family="'sans-serif'" font-size="14" lengthAdjust="spacing" textLength="144.1294" x="64.71" y="442.3399">(the wallet, gate-read)</text></g><!--entity OUTLIER--><g class="entity" data-qualified-name="OUTLIER" data-source-line="49" id="ent0013"><rect fill="#FFEBEE" height="77.2038" rx="2.5" ry="2.5" style="stroke:#333333;stroke-width:1;" width="247.5551" x="12" y="91.0361"/><text fill="#000000" font-family="'sans-serif'" font-size="14" lengthAdjust="spacing" textLength="185.0092" x="22" y="116.002">pre-&#167;D2.9: funding keyed by</text><text fill="#000000" font-family="'sans-serif'" font-size="14" lengthAdjust="spacing" textLength="136.6395" x="22" y="135.0699">wire-sig Quote(hash)</text><text fill="#000000" font-family="'sans-serif'" font-size="14" lengthAdjust="spacing" textLength="227.5551" x="22" y="154.1379">&#8212; the OUTLIER the code corrected</text></g><g class="entity" data-qualified-name="CONCLUSION" data-source-line="53" id="ent0015"><path d="M17.05,519.4461 L17.05,564.8581 A0,0 0 0 0 17.05,564.8581 L292.4992,564.8581 A0,0 0 0 0 292.4992,564.8581 L292.4992,529.4461 L282.4992,519.4461 L158.78,519.4461 L154.78,456.8361 L150.78,519.4461 L17.05,519.4461 A0,0 0 0 0 17.05,519.4461" fill="#E8F5E9" style="stroke:#666666;stroke-width:1;"/><path d="M282.4992,519.4461 L282.4992,529.4461 L292.4992,529.4461 L282.4992,519.4461" fill="#E8F5E9" style="stroke:#666666;stroke-width:1;"/><text fill="#000000" font-family="'sans-serif'" font-size="13" lengthAdjust="spacing" textLength="218.1388" x="23.05" y="538.3431">&#8658; no formal-model change needed;</text><text fill="#000000" font-family="'sans-serif'" font-size="13" lengthAdjust="spacing" textLength="254.4492" x="23.05" y="556.0491">&#167;D2.9 reconciles code with its own model.</text></g><!--link FSIG to POOL--><g class="link" data-entity-1="ent0009" data-entity-2="ent0010" data-link-type="dependency" data-source-line="42" id="lnk11"><path d="M154.78,322.6661 C154.78,342.8161 154.78,369.9561 154.78,393.1261" fill="none" id="FSIG-to-POOL" style="stroke:#000000;stroke-width:1;"/><polygon fill="#000000" points="154.78,398.1261,158.78,389.1261,154.78,393.1261,150.78,389.1261,154.78,398.1261" style="stroke:#000000;stroke-width:1;stroke-linejoin:miter;stroke-miterlimit:10;"/><text fill="#000000" font-family="'sans-serif'" font-size="11" lengthAdjust="spacing" textLength="22.9568" x="155.78" y="365.065">keys</text></g><!--link WV to FSIG--><g class="link" data-entity-1="ent0002" data-entity-2="ent0009" data-link-type="dependency" data-source-line="46" id="lnk12"><path d="M439.68,149.3361 C412.89,170.4761 366.87,205.0661 323.78,229.2361 C286.05,250.4061 245.5702,267.6742 211.4402,280.9442" fill="none" id="WV-to-FSIG" style="stroke:#1565C0;stroke-width:1;"/><polygon fill="#1565C0" points="206.78,282.7561,216.6178,283.2228,211.4402,280.9442,213.7188,275.7665,206.78,282.7561" style="stroke:#1565C0;stroke-width:1;stroke-linejoin:miter;stroke-miterlimit:10;"/><text fill="#000000" font-family="'sans-serif'" font-size="11" lengthAdjust="spacing" textLength="60.2686" x="437.7585" y="210.995">instantiates</text><text fill="#000000" font-family="'sans-serif'" font-size="11" lengthAdjust="spacing" textLength="190.9256" x="372.43" y="225.9769">(the abstract funding-key parameter)</text></g><!--link OUTLIER to FSIG--><g class="link" data-entity-1="ent0013" data-entity-2="ent0009" data-link-type="dependency" data-source-line="50" id="lnk14"><path d="M139.99,168.6161 C143.93,204.0661 149.0888,250.5266 152.1288,277.9366" fill="none" id="OUTLIER-to-FSIG" style="stroke:#C62828;stroke-width:1;stroke-dasharray:7,7;"/><polygon fill="#C62828" points="152.68,282.9061,155.6635,273.52,152.1288,277.9366,147.7123,274.4019,152.68,282.9061" style="stroke:#C62828;stroke-width:1;stroke-linejoin:miter;stroke-miterlimit:10;"/><text fill="#000000" font-family="'sans-serif'" font-size="11" lengthAdjust="spacing" textLength="122.0551" x="169.9588" y="210.995">&#167;D2.9 re-points funding</text><text fill="#000000" font-family="'sans-serif'" font-size="11" lengthAdjust="spacing" textLength="167.1328" x="147.42" y="225.9769">from Quote(hash) to Ground(pk)</text></g><g class="legend" data-source-line="58"><rect fill="none" height="109.3396" rx="7.5" ry="7.5" style="stroke:#000000;stroke-width:1;" width="401.8865" x="330.9468" y="578.8581"/><text fill="#000000" font-family="'sans-serif'" font-size="14" font-weight="700" lengthAdjust="spacing" textLength="35.1539" x="339.5867" y="600.8241">color</text><text fill="#000000" font-family="'sans-serif'" font-size="14" font-weight="700" lengthAdjust="spacing" textLength="61.6278" x="382.0206" y="600.8241">meaning</text><rect fill="#C8E6C9" height="19.0679" style="stroke:none;stroke-width:1;" width="42.4338" x="335.9468" y="604.926"/><text fill="#000000" font-family="'sans-serif'" font-size="14" lengthAdjust="spacing" textLength="3.64" x="335.9468" y="619.892">&#160;</text><text fill="#000000" font-family="'sans-serif'" font-size="14" lengthAdjust="spacing" textLength="342.1726" x="382.0206" y="619.892">Rocq model WalletNaming.v (already pubkey-keyed)</text><rect fill="#F8C3B8" height="19.0679" style="stroke:none;stroke-width:1;" width="42.4338" x="335.9468" y="623.994"/><text fill="#000000" font-family="'sans-serif'" font-size="14" lengthAdjust="spacing" textLength="3.64" x="335.9468" y="638.9599">&#160;</text><text fill="#000000" font-family="'sans-serif'" font-size="14" lengthAdjust="spacing" textLength="187.1233" x="382.0206" y="638.9599">Rust implementation (&#167;D2.9)</text><rect fill="#1565C0" height="19.0679" style="stroke:none;stroke-width:1;" width="42.4338" x="335.9468" y="643.0619"/><text fill="#000000" font-family="'sans-serif'" font-size="14" lengthAdjust="spacing" textLength="3.64" x="335.9468" y="658.0278">&#160;</text><text fill="#000000" font-family="'sans-serif'" font-size="14" lengthAdjust="spacing" textLength="319.8427" x="382.0206" y="658.0278">instantiates &#8212; model parameter realized in code</text><rect fill="#C62828" height="19.0679" style="stroke:none;stroke-width:1;" width="42.4338" x="335.9468" y="662.1298"/><text fill="#000000" font-family="'sans-serif'" font-size="14" lengthAdjust="spacing" textLength="3.64" x="335.9468" y="677.0957">&#160;</text><text fill="#000000" font-family="'sans-serif'" font-size="14" lengthAdjust="spacing" textLength="288.0489" x="382.0206" y="677.0957">corrected pre-&#167;D2.9 outlier (wire-sig keying)</text><line style="stroke:#000000;stroke-width:1;" x1="335.9468" x2="727.8332" y1="585.8581" y2="585.8581"/><line style="stroke:#000000;stroke-width:1;" x1="335.9468" x2="727.8332" y1="604.926" y2="604.926"/><line style="stroke:#000000;stroke-width:1;" x1="335.9468" x2="727.8332" y1="623.994" y2="623.994"/><line style="stroke:#000000;stroke-width:1;" x1="335.9468" x2="727.8332" y1="643.0619" y2="643.0619"/><line style="stroke:#000000;stroke-width:1;" x1="335.9468" x2="727.8332" y1="662.1298" y2="662.1298"/><line style="stroke:#000000;stroke-width:1;" x1="335.9468" x2="727.8332" y1="681.1977" y2="681.1977"/><line style="stroke:#000000;stroke-width:1;" x1="335.9468" x2="335.9468" y1="585.8581" y2="681.1977"/><line style="stroke:#000000;stroke-width:1;" x1="378.3806" x2="378.3806" y1="585.8581" y2="681.1977"/><line style="stroke:#000000;stroke-width:1;" x1="727.8332" x2="727.8332" y1="585.8581" y2="681.1977"/></g><?plantuml-src VLJ1Rjj64BtpAoRI8N8G4h4J6x9I1x4Pod1XIAbbrmYYm5YJAsgZvIwpkxAgn0LwQkz1xpaKQFuZ7v2Fy9TqTfUKg2Ge0G4YT_RDl3TlvfwPqe92oGaJWPunKH952iZeXCovwKjX1WJFMve87MggsAJL24jbKKf1XHcP9QUWQ6g8o3bjXEWfoUI2YHmcXElcoQ5ISc4pZDXx2jlRZQEIf3EIK_WG01n9bL4LIouLj9-u9_ZzHpLy7_tOFHlH0sde4QBdIiv5LiNr-_rkilrjL0F9FkqzzmI66QJwvVEBdMZVCfOYPPngG2615IL7EOKXXaa12sQcm8m6mXKbsJ8ivzSpkWpnHpCeP4Pv4DHSMsSoVUS_mjqVVyCbuPnQzL6xwAO5xQJRtqts7SirvzRpowiRw1t0yyw3XRjnJlA7S4CuouYHwkLigmL4m-Mlq8wxoLwyltbzTEo4W1vmfWrSIudP__m8ckLZqR6Sl58X-OrfI8bIZ2eFEJe-6ruCNlmOrzTo9T0yLqoyHMEm6peM6IPX8ZLGpk3khu-mUhSq7Eh9uES6ei16O576o0Ban1zw7GBR4onA5k54KUeai-Lw0HU8T7XwUVXg14tD8xn5aQs5HLiqj9yZUTizwFZE8iLsFqwU9F6tWazG3Mp95Ie41p1YUQ_dDUoKbTRzqSantkx6Zu-wctU__dFtwTzrzDsdpm1wNfPy2IKgNodkjNi8EJ4qjCRni2-7mzC6hCiIXi_yznuWGMqvtOVpbGnCQ1n8mn18uukHJg9KAZkfQ457EyNGA423XA_Rsxjxk_6ZDuZgu7iR25Lvv5eRHR1dbH9MMd1pGmrwewvWdQLKDApcHSuDHmD5GKEKzN6lXWG_8TVBiLWmFBPQ_pB7fdMcH4-tngBkzl3Y_FGaEQjePOsiJhBw62SyEKgIe7wFNhVZlPtkJlTDj6AwckYmb2YLhciPYub2zpNI0-guRc8GE9DYjdWuY4ylHYV3GSEarkL2maIgWl3GjoMTufQa82ZDQFOKWxxV9exCQd_8XV0TZOALVLtRewYHDGWupUsv7nZ4lJr08Bl0y4z1YR3ItjhlFrKZzkmM6cjdS-L0frfR6oEqLGDu8rg0UdOQcw-UeZhO-mg3Dnnfk-Wph-o36k3gUe_DPyABKDVh-eK8_-ShwApiWiKY2ri0Ak9r2Vu3?></g></svg>