<?plantuml 1.2026.2?><svg xmlns="http://www.w3.org/2000/svg" xmlns:xlink="http://www.w3.org/1999/xlink" contentStyleType="text/css" data-diagram-type="DESCRIPTION" height="386px" preserveAspectRatio="none" style="width:1850px;height:386px;background:#FFFFFF;" version="1.1" viewBox="0 0 1850 386" width="1850px" zoomAndPan="magnify"><defs/><g><!--cluster ? ? unrestricted zone (reusable)--><g class="cluster" data-qualified-name=". . unrestricted zone .reusable." data-source-line="29" id="ent0002"><path d="M590.5,11.602 L817.4451,11.602 A3.75,3.75 0 0 1 819.9451,14.102 L826.9451,36.6699 L826.5,36.6699 A2.5,2.5 0 0 1 829,39.1699 L829,178.382 A2.5,2.5 0 0 1 826.5,180.882 L590.5,180.882 A2.5,2.5 0 0 1 588,178.382 L588,14.102 A2.5,2.5 0 0 1 590.5,11.602" fill="#C5CAE9" style="stroke:#444444;stroke-width:1;"/><line style="stroke:#444444;stroke-width:1;" x1="588" x2="826.9451" y1="36.6699" y2="36.6699"/><text fill="#000000" font-family="Verdana" font-size="14" font-weight="bold" lengthAdjust="spacing" textLength="225.9451" x="592" y="28.5679">&#915; &#8212; unrestricted zone (reusable)</text><text fill="#000000" font-family="Verdana" font-size="14" font-style="italic" lengthAdjust="spacing" textLength="61.8658" x="681.5671" y="53.6358">&#171;gamma&#187;</text></g><!--cluster ? ? linear zone (single-use)--><g class="cluster" data-qualified-name=". . linear zone .single-use." data-source-line="32" id="ent0004"><path d="M855.5,11.602 L1048.1733,11.602 A3.75,3.75 0 0 1 1050.6733,14.102 L1057.6733,36.6699 L1102.5,36.6699 A2.5,2.5 0 0 1 1105,39.1699 L1105,178.382 A2.5,2.5 0 0 1 1102.5,180.882 L855.5,180.882 A2.5,2.5 0 0 1 853,178.382 L853,14.102 A2.5,2.5 0 0 1 855.5,11.602" fill="#FFCC80" style="stroke:#444444;stroke-width:1;"/><line style="stroke:#444444;stroke-width:1;" x1="853" x2="1057.6733" y1="36.6699" y2="36.6699"/><text fill="#000000" font-family="Verdana" font-size="14" font-weight="bold" lengthAdjust="spacing" textLength="191.6733" x="857" y="28.5679">&#916; &#8212; linear zone (single-use)</text><text fill="#000000" font-family="Verdana" font-size="14" font-style="italic" lengthAdjust="spacing" textLength="44.6598" x="960.6701" y="53.6358">&#171;delta&#187;</text></g><!--cluster ? = [A]  ?  axiom--><g class="cluster" data-qualified-name=". . .A.  .  axiom" data-source-line="36" id="ent0006"><path d="M469.5,228.882 L575.6956,228.882 A3.75,3.75 0 0 1 578.1956,231.382 L585.1956,253.9499 L585.5,253.9499 A2.5,2.5 0 0 1 588,256.4499 L588,376.582 A2.5,2.5 0 0 1 585.5,379.082 L469.5,379.082 A2.5,2.5 0 0 1 467,376.582 L467,231.382 A2.5,2.5 0 0 1 469.5,228.882" fill="#ECEFF1" style="stroke:#444444;stroke-width:1;"/><line style="stroke:#444444;stroke-width:1;" x1="467" x2="585.1956" y1="253.9499" y2="253.9499"/><text fill="#000000" font-family="Verdana" font-size="14" font-weight="bold" lengthAdjust="spacing" textLength="105.1956" x="471" y="245.8479">&#916; = [A]  &#183;  axiom</text><text fill="#000000" font-family="Verdana" font-size="14" font-style="italic" lengthAdjust="spacing" textLength="35.1399" x="513.9301" y="270.9158">&#171;grp&#187;</text></g><!--cluster ? = ?  ?  empty (no linear witness)--><g class="cluster" data-qualified-name=". . .  .  empty .no linear witness." data-source-line="39" id="ent0008"><path d="M13.5,228.882 L239.0171,228.882 A3.75,3.75 0 0 1 241.5171,231.382 L248.5171,253.9499 L440.5,253.9499 A2.5,2.5 0 0 1 443,256.4499 L443,376.582 A2.5,2.5 0 0 1 440.5,379.082 L13.5,379.082 A2.5,2.5 0 0 1 11,376.582 L11,231.382 A2.5,2.5 0 0 1 13.5,228.882" fill="#ECEFF1" style="stroke:#444444;stroke-width:1;"/><line style="stroke:#444444;stroke-width:1;" x1="11" x2="248.5171" y1="253.9499" y2="253.9499"/><text fill="#000000" font-family="Verdana" font-size="14" font-weight="bold" lengthAdjust="spacing" textLength="224.5171" x="15" y="245.8479">&#916; = &#183;  &#183;  empty (no linear witness)</text><text fill="#000000" font-family="Verdana" font-size="14" font-style="italic" lengthAdjust="spacing" textLength="35.1399" x="213.4301" y="270.9158">&#171;grp&#187;</text></g><!--cluster ? split  ?  ?? ? ??--><g class="cluster" data-qualified-name=". split  .  .. . .." data-source-line="44" id="ent0012"><path d="M1163.5,228.882 L1274.4138,228.882 A3.75,3.75 0 0 1 1276.9138,231.382 L1283.9138,253.9499 L1585.5,253.9499 A2.5,2.5 0 0 1 1588,256.4499 L1588,376.582 A2.5,2.5 0 0 1 1585.5,379.082 L1163.5,379.082 A2.5,2.5 0 0 1 1161,376.582 L1161,231.382 A2.5,2.5 0 0 1 1163.5,228.882" fill="#ECEFF1" style="stroke:#444444;stroke-width:1;"/><line style="stroke:#444444;stroke-width:1;" x1="1161" x2="1283.9138" y1="253.9499" y2="253.9499"/><text fill="#000000" font-family="Verdana" font-size="14" font-weight="bold" lengthAdjust="spacing" textLength="109.9138" x="1165" y="245.8479">&#916; split  &#183;  &#916;&#8321; &#8846; &#916;&#8322;</text><text fill="#000000" font-family="Verdana" font-size="14" font-style="italic" lengthAdjust="spacing" textLength="35.1399" x="1360.9301" y="270.9158">&#171;grp&#187;</text></g><!--cluster ? shared  ?  same ? to all premises--><g class="cluster" data-qualified-name=". shared  .  same . to all premises" data-source-line="48" id="ent0015"><path d="M614.5,228.882 L851.6511,228.882 A3.75,3.75 0 0 1 854.1511,231.382 L861.1511,253.9499 L1134.5,253.9499 A2.5,2.5 0 0 1 1137,256.4499 L1137,376.582 A2.5,2.5 0 0 1 1134.5,379.082 L614.5,379.082 A2.5,2.5 0 0 1 612,376.582 L612,231.382 A2.5,2.5 0 0 1 614.5,228.882" fill="#ECEFF1" style="stroke:#444444;stroke-width:1;"/><line style="stroke:#444444;stroke-width:1;" x1="612" x2="861.1511" y1="253.9499" y2="253.9499"/><text fill="#000000" font-family="Verdana" font-size="14" font-weight="bold" lengthAdjust="spacing" textLength="236.1511" x="616" y="245.8479">&#916; shared  &#183;  same &#916; to all premises</text><text fill="#000000" font-family="Verdana" font-size="14" font-style="italic" lengthAdjust="spacing" textLength="35.1399" x="860.9301" y="270.9158">&#171;grp&#187;</text></g><!--cluster ? extended  ?  push antecedent--><g class="cluster" data-qualified-name=". extended  .  push antecedent" data-source-line="53" id="ent0019"><path d="M1614.5,228.882 L1830.6651,228.882 A3.75,3.75 0 0 1 1833.1651,231.382 L1840.1651,253.9499 L1840.5,253.9499 A2.5,2.5 0 0 1 1843,256.4499 L1843,376.582 A2.5,2.5 0 0 1 1840.5,379.082 L1614.5,379.082 A2.5,2.5 0 0 1 1612,376.582 L1612,231.382 A2.5,2.5 0 0 1 1614.5,228.882" fill="#ECEFF1" style="stroke:#444444;stroke-width:1;"/><line style="stroke:#444444;stroke-width:1;" x1="1612" x2="1840.1651" y1="253.9499" y2="253.9499"/><text fill="#000000" font-family="Verdana" font-size="14" font-weight="bold" lengthAdjust="spacing" textLength="215.1651" x="1616" y="245.8479">&#916; extended  &#183;  push antecedent</text><text fill="#000000" font-family="Verdana" font-size="14" font-style="italic" lengthAdjust="spacing" textLength="35.1399" x="1713.9301" y="270.9158">&#171;grp&#187;</text></g><!--entity GAMMA--><g class="entity" data-qualified-name=". . unrestricted zone .reusable..GAMMA" data-source-line="30" id="ent0003"><rect fill="#E8EAF6" height="96.2717" rx="2.5" ry="2.5" style="stroke:#333333;stroke-width:1;" width="208.3523" x="604.82" y="68.602"/><text fill="#000000" font-family="Verdana" font-size="14" font-style="italic" lengthAdjust="spacing" textLength="68.2077" x="674.8923" y="93.5679">&#171;gammac&#187;</text><text fill="#000000" font-family="Verdana" font-size="14" lengthAdjust="spacing" textLength="6.986" x="614.82" y="112.6358">&#915;</text><text fill="#000000" font-family="Verdana" font-size="14" lengthAdjust="spacing" textLength="188.3523" x="614.82" y="131.7038">weakening &#10003;   contraction &#10003;</text><text fill="#000000" font-family="Verdana" font-size="14" lengthAdjust="spacing" textLength="164.8634" x="614.82" y="150.7717">COPIED to every premise</text></g><!--entity DELTA--><g class="entity" data-qualified-name=". . linear zone .single-use..DELTA" data-source-line="33" id="ent0005"><rect fill="#FFE0B2" height="96.2717" rx="2.5" ry="2.5" style="stroke:#333333;stroke-width:1;" width="220.5772" x="868.71" y="68.602"/><text fill="#000000" font-family="Verdana" font-size="14" font-style="italic" lengthAdjust="spacing" textLength="51.0018" x="953.4977" y="93.5679">&#171;deltac&#187;</text><text fill="#000000" font-family="Verdana" font-size="14" lengthAdjust="spacing" textLength="8.946" x="878.71" y="112.6358">&#916;</text><text fill="#000000" font-family="Verdana" font-size="14" lengthAdjust="spacing" textLength="188.3523" x="878.71" y="131.7038">weakening &#10007;   contraction &#10007;</text><text fill="#000000" font-family="Verdana" font-size="14" lengthAdjust="spacing" textLength="200.5772" x="878.71" y="150.7717">PARTITIONED across premises</text></g><!--entity AX--><g class="entity" data-qualified-name=". . .A.  .  axiom.AX" data-source-line="37" id="ent0007"><rect fill="#FFFFFF" height="77.2038" rx="2.5" ry="2.5" style="stroke:#333333;stroke-width:1;" width="77.3172" x="492.34" y="285.882"/><text fill="#000000" font-family="Verdana" font-size="14" font-style="italic" lengthAdjust="spacing" textLength="37.6319" x="512.1826" y="310.8479">&#171;rule&#187;</text><text fill="#000000" font-family="Verdana" font-size="14" lengthAdjust="spacing" textLength="40.9218" x="502.34" y="329.9158">dill_ax</text><text fill="#000000" font-family="Verdana" font-size="14" lengthAdjust="spacing" textLength="57.3172" x="502.34" y="348.9838">&#915;;[A] &#8866; A</text></g><!--entity UNIT--><g class="entity" data-qualified-name=". . .  .  empty .no linear witness..UNIT" data-source-line="40" id="ent0009"><rect fill="#FFFFFF" height="77.2038" rx="2.5" ry="2.5" style="stroke:#333333;stroke-width:1;" width="71.6318" x="27.18" y="285.882"/><text fill="#000000" font-family="Verdana" font-size="14" font-style="italic" lengthAdjust="spacing" textLength="37.6319" x="44.18" y="310.8479">&#171;rule&#187;</text><text fill="#000000" font-family="Verdana" font-size="14" lengthAdjust="spacing" textLength="51.6318" x="37.18" y="329.9158">dill_unit</text><text fill="#000000" font-family="Verdana" font-size="14" lengthAdjust="spacing" textLength="41.9732" x="37.18" y="348.9838">&#915;;&#183; &#8866; 1</text></g><!--entity UNR--><g class="entity" data-qualified-name=". . .  .  empty .no linear witness..UNR" data-source-line="41" id="ent0010"><rect fill="#FFFFFF" height="77.2038" rx="2.5" ry="2.5" style="stroke:#333333;stroke-width:1;" width="126.0776" x="133.96" y="285.882"/><text fill="#000000" font-family="Verdana" font-size="14" font-style="italic" lengthAdjust="spacing" textLength="37.6319" x="178.1829" y="310.8479">&#171;rule&#187;</text><text fill="#000000" font-family="Verdana" font-size="14" lengthAdjust="spacing" textLength="106.0776" x="143.96" y="329.9158">dill_unrestricted</text><text fill="#000000" font-family="Verdana" font-size="14" lengthAdjust="spacing" textLength="93.8947" x="143.96" y="348.9838">f&#8712;&#915; &#10233; &#915;;&#183; &#8866; !f</text></g><!--entity WN--><g class="entity" data-qualified-name=". . .  .  empty .no linear witness..WN" data-source-line="42" id="ent0011"><rect fill="#FFFFFF" height="77.2038" rx="2.5" ry="2.5" style="stroke:#333333;stroke-width:1;" width="132.4196" x="294.79" y="285.882"/><text fill="#000000" font-family="Verdana" font-size="14" font-style="italic" lengthAdjust="spacing" textLength="37.6319" x="342.1838" y="310.8479">&#171;rule&#187;</text><text fill="#000000" font-family="Verdana" font-size="14" lengthAdjust="spacing" textLength="112.4196" x="304.79" y="329.9158">dill_whynot_intro</text><text fill="#000000" font-family="Verdana" font-size="14" lengthAdjust="spacing" textLength="44.8572" x="304.79" y="348.9838">&#915;;&#183; &#8866; ?f</text></g><!--entity TEN--><g class="entity" data-qualified-name=". split  .  .. . ...TEN" data-source-line="45" id="ent0013"><rect fill="#FFFFFF" height="77.2038" rx="2.5" ry="2.5" style="stroke:#333333;stroke-width:1;" width="183.291" x="1177.35" y="285.882"/><text fill="#000000" font-family="Verdana" font-size="14" font-style="italic" lengthAdjust="spacing" textLength="37.6319" x="1250.1796" y="310.8479">&#171;rule&#187;</text><text fill="#000000" font-family="Verdana" font-size="14" lengthAdjust="spacing" textLength="68.2217" x="1187.35" y="329.9158">dill_tensor</text><text fill="#000000" font-family="Verdana" font-size="14" lengthAdjust="spacing" textLength="163.291" x="1187.35" y="348.9838">&#915;;&#916;&#8321;&#8866;A  &#915;;&#916;&#8322;&#8866;B &#10233; A &#8855; B</text></g><!--entity LE--><g class="entity" data-qualified-name=". split  .  .. . ...LE" data-source-line="46" id="ent0014"><rect fill="#FFFFFF" height="77.2038" rx="2.5" ry="2.5" style="stroke:#333333;stroke-width:1;" width="176.011" x="1395.99" y="285.882"/><text fill="#000000" font-family="Verdana" font-size="14" font-style="italic" lengthAdjust="spacing" textLength="37.6319" x="1465.1796" y="310.8479">&#171;rule&#187;</text><text fill="#000000" font-family="Verdana" font-size="14" lengthAdjust="spacing" textLength="86.5336" x="1405.99" y="329.9158">dill_lolly_elim</text><text fill="#000000" font-family="Verdana" font-size="14" lengthAdjust="spacing" textLength="156.011" x="1405.99" y="348.9838">&#915;;&#916;&#8321;&#8866;A&#8888;B  &#915;;&#916;&#8322;&#8866;A &#10233; B</text></g><!--entity WITH--><g class="entity" data-qualified-name=". shared  .  same . to all premises.WITH" data-source-line="49" id="ent0016"><rect fill="#FFFFFF" height="77.2038" rx="2.5" ry="2.5" style="stroke:#333333;stroke-width:1;" width="172.0085" x="628" y="285.882"/><text fill="#000000" font-family="Verdana" font-size="14" font-style="italic" lengthAdjust="spacing" textLength="37.6319" x="695.1883" y="310.8479">&#171;rule&#187;</text><text fill="#000000" font-family="Verdana" font-size="14" lengthAdjust="spacing" textLength="53.9838" x="638" y="329.9158">dill_with</text><text fill="#000000" font-family="Verdana" font-size="14" lengthAdjust="spacing" textLength="152.0085" x="638" y="348.9838">&#915;;&#916;&#8866;A  &#915;;&#916;&#8866;B &#10233; A &amp; B</text></g><!--entity PL--><g class="entity" data-qualified-name=". shared  .  same . to all premises.PL" data-source-line="50" id="ent0017"><rect fill="#FFFFFF" height="77.2038" rx="2.5" ry="2.5" style="stroke:#333333;stroke-width:1;" width="125.2319" x="835.38" y="285.882"/><text fill="#000000" font-family="Verdana" font-size="14" font-style="italic" lengthAdjust="spacing" textLength="37.6319" x="879.18" y="310.8479">&#171;rule&#187;</text><text fill="#000000" font-family="Verdana" font-size="14" lengthAdjust="spacing" textLength="80.8357" x="845.38" y="329.9158">dill_plus_left</text><text fill="#000000" font-family="Verdana" font-size="14" lengthAdjust="spacing" textLength="105.2319" x="845.38" y="348.9838">&#915;;&#916;&#8866;A &#10233; A &#8853; B</text></g><!--entity PR--><g class="entity" data-qualified-name=". shared  .  same . to all premises.PR" data-source-line="51" id="ent0018"><rect fill="#FFFFFF" height="77.2038" rx="2.5" ry="2.5" style="stroke:#333333;stroke-width:1;" width="125.3858" x="995.31" y="285.882"/><text fill="#000000" font-family="Verdana" font-size="14" font-style="italic" lengthAdjust="spacing" textLength="37.6319" x="1039.187" y="310.8479">&#171;rule&#187;</text><text fill="#000000" font-family="Verdana" font-size="14" lengthAdjust="spacing" textLength="91.1676" x="1005.31" y="329.9158">dill_plus_right</text><text fill="#000000" font-family="Verdana" font-size="14" lengthAdjust="spacing" textLength="105.3858" x="1005.31" y="348.9838">&#915;;&#916;&#8866;B &#10233; A &#8853; B</text></g><!--entity LI--><g class="entity" data-qualified-name=". extended  .  push antecedent.LI" data-source-line="54" id="ent0020"><rect fill="#FFFFFF" height="77.2038" rx="2.5" ry="2.5" style="stroke:#333333;stroke-width:1;" width="138.0838" x="1627.96" y="285.882"/><text fill="#000000" font-family="Verdana" font-size="14" font-style="italic" lengthAdjust="spacing" textLength="37.6319" x="1678.186" y="310.8479">&#171;rule&#187;</text><text fill="#000000" font-family="Verdana" font-size="14" lengthAdjust="spacing" textLength="89.8936" x="1637.96" y="329.9158">dill_lolly_intro</text><text fill="#000000" font-family="Verdana" font-size="14" lengthAdjust="spacing" textLength="118.0838" x="1637.96" y="348.9838">&#915;;A,&#916;&#8866;B &#10233; A &#8888; B</text></g><!--link GAMMA to AX--><g class="link" data-entity-1="ent0003" data-entity-2="ent0007" data-link-type="dependency" data-source-line="57" id="lnk21"><path d="M604.41,139.982 C574.32,151.742 544.85,169.652 527,196.882 C510,222.812 511.6198,252.729 517.6898,279.639" fill="none" id="GAMMA-to-AX" style="stroke:#1565C0;stroke-width:1;"/><polygon fill="#1565C0" points="519.01,285.492,520.9316,275.8324,517.9098,280.6145,513.1277,277.5927,519.01,285.492" style="stroke:#1565C0;stroke-width:1;"/><text fill="#000000" font-family="Verdana" font-size="11" lengthAdjust="spacing" textLength="34.5068" x="528" y="209.6409">copied</text></g><!--link GAMMA to UNIT--><g class="link" data-entity-1="ent0003" data-entity-2="ent0009" data-link-type="dependency" data-source-line="58" id="lnk22"><path d="M604.53,124.802 C455.65,136.692 192.03,165.082 116,220.882 C94.66,236.532 83.2676,257.675 75.2676,279.955" fill="none" id="GAMMA-to-UNIT" style="stroke:#1565C0;stroke-width:1;"/><polygon fill="#1565C0" points="73.24,285.602,80.0461,278.4832,74.9297,280.8961,72.5168,275.7797,73.24,285.602" style="stroke:#1565C0;stroke-width:1;"/><text fill="#000000" font-family="Verdana" font-size="11" lengthAdjust="spacing" textLength="34.5068" x="159.81" y="209.6409">copied</text></g><!--link GAMMA to TEN--><g class="link" data-entity-1="ent0003" data-entity-2="ent0013" data-link-type="dependency" data-source-line="59" id="lnk23"><path d="M795.25,165.302 C836.56,187.662 879.36,210.072 890,212.882 C943.1,226.902 1085.35,202.222 1137,220.882 C1173.99,234.232 1204.4508,258.0686 1229.0308,281.4286" fill="none" id="GAMMA-to-TEN" style="stroke:#1565C0;stroke-width:1;"/><polygon fill="#1565C0" points="1233.38,285.562,1229.6118,276.4625,1229.7557,282.1175,1224.1006,282.2614,1233.38,285.562" style="stroke:#1565C0;stroke-width:1;"/><text fill="#000000" font-family="Verdana" font-size="11" lengthAdjust="spacing" textLength="34.5068" x="891" y="209.6409">copied</text></g><!--link GAMMA to WITH--><g class="link" data-entity-1="ent0003" data-entity-2="ent0016" data-link-type="dependency" data-source-line="60" id="lnk24"><path d="M710.15,165.202 C711.04,201.752 712.1033,245.6038 712.9333,279.5338" fill="none" id="GAMMA-to-WITH" style="stroke:#1565C0;stroke-width:1;"/><polygon fill="#1565C0" points="713.08,285.532,716.8587,276.4369,712.9577,280.5335,708.8611,276.6325,713.08,285.532" style="stroke:#1565C0;stroke-width:1;"/><text fill="#000000" font-family="Verdana" font-size="11" lengthAdjust="spacing" textLength="34.5068" x="712.2" y="209.6409">copied</text></g><!--link GAMMA to LI--><g class="link" data-entity-1="ent0003" data-entity-2="ent0020" data-link-type="dependency" data-source-line="61" id="lnk25"><path d="M790.48,165.282 C810.33,174.782 831.93,183.492 853,188.882 C894.37,199.452 1002.93,189.532 1045,196.882 C1068.4,200.962 1072.55,209.092 1096,212.882 C1122.99,217.242 1562.67,210.592 1588,220.882 C1620.63,234.122 1645.3835,257.5039 1665.1035,280.9039" fill="none" id="GAMMA-to-LI" style="stroke:#1565C0;stroke-width:1;"/><polygon fill="#1565C0" points="1668.97,285.492,1666.2289,276.0322,1665.7479,281.6686,1660.1115,281.1876,1668.97,285.492" style="stroke:#1565C0;stroke-width:1;"/><text fill="#000000" font-family="Verdana" font-size="11" lengthAdjust="spacing" textLength="123.9691" x="1097" y="209.6409">copied to every premise</text></g><!--link DELTA to AX--><g class="link" data-entity-1="ent0005" data-entity-2="ent0007" data-link-type="dependency" data-source-line="63" id="lnk26"><path d="M883.39,165.342 C865.49,173.602 846.81,181.802 829,188.882 C796.87,201.642 788.99,206.522 755,212.882 C723.71,218.722 640.24,206.202 612,220.882 C584.91,234.952 567.0173,257.4172 553.1973,280.4472" fill="none" id="DELTA-to-AX" style="stroke:#C62828;stroke-width:1;"/><polygon fill="#C62828" points="550.11,285.592,558.1708,279.933,552.6828,281.3047,551.3111,275.8166,550.11,285.592" style="stroke:#C62828;stroke-width:1;"/><text fill="#000000" font-family="Verdana" font-size="11" lengthAdjust="spacing" textLength="33.3078" x="808.97" y="209.6409">&#916; = [A]</text></g><!--link DELTA to UNIT--><g class="link" data-entity-1="ent0005" data-entity-2="ent0009" data-link-type="dependency" data-source-line="64" id="lnk27"><path d="M893.95,165.282 C873.28,174.782 850.83,183.492 829,188.882 C786.89,199.272 676.96,190.922 634,196.882 C603.67,201.082 597.37,209.032 567,212.882 C542.14,216.032 137.29,207.652 116,220.882 C93.18,235.052 81.6259,256.8094 73.9859,279.7494" fill="none" id="DELTA-to-UNIT" style="stroke:#C62828;stroke-width:1;"/><polygon fill="#C62828" points="72.09,285.442,78.7289,278.167,73.6699,280.6982,71.1388,275.6392,72.09,285.442" style="stroke:#C62828;stroke-width:1;"/><text fill="#000000" font-family="Verdana" font-size="11" lengthAdjust="spacing" textLength="67.1435" x="635" y="209.6409">&#916; = &#183;  (empty)</text></g><!--link DELTA to TEN--><g class="link" data-entity-1="ent0005" data-entity-2="ent0013" data-link-type="dependency" data-source-line="65" id="lnk28"><path d="M1089.61,129.682 C1138.02,140.202 1192.07,159.932 1229,196.882 C1252.46,220.352 1261.3391,251.5426 1265.3491,279.5326" fill="none" id="DELTA-to-TEN" style="stroke:#C62828;stroke-width:1;"/><polygon fill="#C62828" points="1266.2,285.472,1268.8832,275.9957,1265.4909,280.5225,1260.9641,277.1302,1266.2,285.472" style="stroke:#C62828;stroke-width:1;"/><text fill="#000000" font-family="Verdana" font-size="11" lengthAdjust="spacing" textLength="69.5299" x="1241.26" y="209.6409">&#916;&#8321; &#8846; &#916;&#8322;  (split)</text></g><!--link DELTA to WITH--><g class="link" data-entity-1="ent0005" data-entity-2="ent0016" data-link-type="dependency" data-source-line="66" id="lnk29"><path d="M967.61,165.212 C960.85,183.082 950.3,201.752 934,212.882 C912.66,227.442 841.55,210.252 818,220.882 C786.9,234.902 763.555,257.8565 744.815,280.9065" fill="none" id="DELTA-to-WITH" style="stroke:#C62828;stroke-width:1;"/><polygon fill="#C62828" points="741.03,285.562,749.8112,281.1021,744.1842,281.6824,743.6038,276.0554,741.03,285.562" style="stroke:#C62828;stroke-width:1;"/><text fill="#000000" font-family="Verdana" font-size="11" lengthAdjust="spacing" textLength="85.8874" x="951.17" y="209.6409">same &#916;  (shared)</text></g><!--link DELTA to LI--><g class="link" data-entity-1="ent0005" data-entity-2="ent0020" data-link-type="dependency" data-source-line="67" id="lnk30"><path d="M1089.72,128.732 C1240.76,145.032 1502.42,178.322 1588,220.882 C1618.83,236.212 1642.9625,258.6787 1662.9125,281.1087" fill="none" id="DELTA-to-LI" style="stroke:#C62828;stroke-width:1;"/><polygon fill="#C62828" points="1666.9,285.592,1663.9075,276.2088,1663.577,281.8559,1657.9299,281.5255,1666.9,285.592" style="stroke:#C62828;stroke-width:1;"/><text fill="#000000" font-family="Verdana" font-size="11" lengthAdjust="spacing" textLength="83.7754" x="1563.14" y="209.6409">A , &#916;  (extended)</text></g><?plantuml-src VLJHIXj157tFLzmQA0OKZAsIjchPh9is4AFO50j6mdHtaWpEpYmpayPO2grFuaDVJF6bKEXFrBxs0_o8V4bd9bcpMTTT26HtpZttd7llt2UgZqCC4KM45UGfOH4IA0IVXn5dcAbtQaGn2Emhn7eK9o2oZm8-9Am7NKHbyiGHWWzhN0UJSmpbSk8eGlufwc7uN02ewlyzmGSiS3dbOckhXy8GxUn0qTrm7Uz55YJ0L5b8hUQwbRLC5X5f043HSxrQhMmWN0HOs6CeFhTFuKkMsHnPladgLJodjlceBdygp5khhcTXn83YgRAQVTBAdjb7Aol4LLgwkuR9rp4CcC1I2U8h7C2vbWhB0Wya-aXnQGdcXJFovsPqT9iDCJh5p7HfylCQp35J0lcAS6Q-j9cxVr3tTa5nm9-m644aS4WalgSrff24DyxUdgErpQMDhJHA64PY9aeICoEh0pcL5JShBMkyAElcWQoRDZjm3blrLds_gRKXNt0fOsNoddecRTThj9p5ierX6uwT4u1_Vm3G6U6XzMCd8wKc89Hsq5cRtLs_CY6Jgz_W6FIiNJg1yo5bVDlocXyE8pM2PSRZGWo9ObZAKdw-0IFAPjGS9c5vCU7xPhsL6JKVWpRhJYulpNpy-WjpeYVTDDDX1j6mFs9STOYkEK_AU9sAFcgcZCk84ZLrVZUUN7pJKT_jlujylmepoOLDPUDqCWTWzdQXtwhMXwFvRg2wAABbDJCOAQTqrC6KX8kiawlRwWApOvbJd0qlRQoFXBvRrfb4UY7gR_fA84eNnkvnXxhl_LX9mjpSsTEqXgDwwsq6KKG7iaDnLoNPukByI9CSD1wZ4AJNJt1KSpWEKyN0PxfVGLoEQ23xW9Z2FWvqZlmoJDio7ond9PNzza4hwkRgslK2gyV5yiRcXhjsihgZRvtU2ozrXeZW80jWRaakG4zEFeDfGIwWKKzeUB0Z2mMxUao8kxbUMQyaPCShA0io4tw_I9Rj5YbbGMSMKfTDXzYRc1aoCnLFiORQsSx4plmvi3A5nfql_GS0?></g></svg>