<?plantuml 1.2026.2?><svg xmlns="http://www.w3.org/2000/svg" xmlns:xlink="http://www.w3.org/1999/xlink" contentStyleType="text/css" data-diagram-type="DESCRIPTION" height="555px" preserveAspectRatio="none" style="width:676px;height:555px;background:#FFFFFF;" version="1.1" viewBox="0 0 676 555" width="676px" zoomAndPan="magnify"><defs/><g><!--cluster ? ? unrestricted zone--><g class="cluster" data-qualified-name=". . unrestricted zone" data-source-line="24" id="ent0002"><path d="M143.57,11.602 L296.8754,11.602 A3.75,3.75 0 0 1 299.3754,14.102 L306.3754,36.6699 L378.57,36.6699 A2.5,2.5 0 0 1 381.07,39.1699 L381.07,178.382 A2.5,2.5 0 0 1 378.57,180.882 L143.57,180.882 A2.5,2.5 0 0 1 141.07,178.382 L141.07,14.102 A2.5,2.5 0 0 1 143.57,11.602" fill="#EEF2FF" style="stroke:#444444;stroke-width:1;"/><line style="stroke:#444444;stroke-width:1;" x1="141.07" x2="306.3754" y1="36.6699" y2="36.6699"/><text fill="#000000" font-family="Verdana" font-size="14" font-weight="bold" lengthAdjust="spacing" textLength="152.3054" x="145.07" y="28.5679">&#915; &#8212; unrestricted zone</text><text fill="#000000" font-family="Verdana" font-size="14" font-style="italic" lengthAdjust="spacing" textLength="89.4597" x="220.3402" y="53.6358">&#171;Unrestricted&#187;</text></g><!--cluster ? ? linear zone--><g class="cluster" data-qualified-name=". . linear zone" data-source-line="28" id="ent0004"><path d="M413.57,11.602 L522.4536,11.602 A3.75,3.75 0 0 1 524.9536,14.102 L531.9536,36.6699 L660.57,36.6699 A2.5,2.5 0 0 1 663.07,39.1699 L663.07,178.382 A2.5,2.5 0 0 1 660.57,180.882 L413.57,180.882 A2.5,2.5 0 0 1 411.07,178.382 L411.07,14.102 A2.5,2.5 0 0 1 413.57,11.602" fill="#FFF7EE" style="stroke:#444444;stroke-width:1;"/><line style="stroke:#444444;stroke-width:1;" x1="411.07" x2="531.9536" y1="36.6699" y2="36.6699"/><text fill="#000000" font-family="Verdana" font-size="14" font-weight="bold" lengthAdjust="spacing" textLength="107.8836" x="415.07" y="28.5679">&#916; &#8212; linear zone</text><text fill="#000000" font-family="Verdana" font-size="14" font-style="italic" lengthAdjust="spacing" textLength="52.2758" x="514.9321" y="53.6358">&#171;Linear&#187;</text></g><!--cluster Representative dill rules--><g class="cluster" data-qualified-name="Representative dill rules" data-source-line="32" id="ent0006"><path d="M25.57,231.882 L196.7113,231.882 A3.75,3.75 0 0 1 199.2113,234.382 L206.2113,256.9499 L666.57,256.9499 A2.5,2.5 0 0 1 669.07,259.4499 L669.07,417.722 A2.5,2.5 0 0 1 666.57,420.222 L25.57,420.222 A2.5,2.5 0 0 1 23.07,417.722 L23.07,234.382 A2.5,2.5 0 0 1 25.57,231.882" fill="#F4F4F4" style="stroke:#444444;stroke-width:1;"/><line style="stroke:#444444;stroke-width:1;" x1="23.07" x2="206.2113" y1="256.9499" y2="256.9499"/><text fill="#000000" font-family="Verdana" font-size="14" font-weight="bold" lengthAdjust="spacing" textLength="170.1413" x="27.07" y="248.8479">Representative dill rules</text><text fill="#000000" font-family="Verdana" font-size="14" font-style="italic" lengthAdjust="spacing" textLength="40.0819" x="330.0291" y="273.9158">&#171;Rule&#187;</text></g><!--entity GAMMA--><g class="entity" data-qualified-name=". . unrestricted zone.GAMMA" data-source-line="25" id="ent0003"><rect fill="#FFFFFF" height="96.2717" rx="2.5" ry="2.5" style="stroke:#333333;stroke-width:1;" width="208.3523" x="156.89" y="68.602"/><text fill="#000000" font-family="Verdana" font-size="14" font-style="italic" lengthAdjust="spacing" textLength="83.6637" x="219.2343" y="93.5679">&#171;component&#187;</text><text fill="#000000" font-family="Verdana" font-size="14" lengthAdjust="spacing" textLength="136.4295" x="166.89" y="112.6358">reusable hypotheses</text><text fill="#000000" font-family="Verdana" font-size="14" lengthAdjust="spacing" textLength="188.3523" x="166.89" y="131.7038">weakening &#10003;   contraction &#10003;</text><text fill="#000000" font-family="Verdana" font-size="14" lengthAdjust="spacing" textLength="164.8634" x="166.89" y="150.7717">COPIED to every premise</text></g><!--entity DELTA--><g class="entity" data-qualified-name=". . linear zone.DELTA" data-source-line="29" id="ent0005"><rect fill="#FFFFFF" height="96.2717" rx="2.5" ry="2.5" style="stroke:#333333;stroke-width:1;" width="220.5772" x="426.78" y="68.602"/><text fill="#000000" font-family="Verdana" font-size="14" font-style="italic" lengthAdjust="spacing" textLength="83.6637" x="495.2368" y="93.5679">&#171;component&#187;</text><text fill="#000000" font-family="Verdana" font-size="14" lengthAdjust="spacing" textLength="134.7215" x="436.78" y="112.6358">single-use witnesses</text><text fill="#000000" font-family="Verdana" font-size="14" lengthAdjust="spacing" textLength="188.3523" x="436.78" y="131.7038">weakening &#10007;   contraction &#10007;</text><text fill="#000000" font-family="Verdana" font-size="14" lengthAdjust="spacing" textLength="200.5772" x="436.78" y="150.7717">PARTITIONED across premises</text></g><!--entity TENSOR--><g class="entity" data-qualified-name="Representative dill rules.TENSOR" data-source-line="33" id="ent0007"><rect fill="#FFFFFF" height="115.3396" rx="2.5" ry="2.5" style="stroke:#333333;stroke-width:1;" width="188.5742" x="464.78" y="288.882"/><text fill="#000000" font-family="Verdana" font-size="14" font-style="italic" lengthAdjust="spacing" textLength="83.6637" x="517.2353" y="313.8479">&#171;component&#187;</text><text fill="#000000" font-family="Verdana" font-size="14" lengthAdjust="spacing" textLength="131.85" x="474.78" y="332.9158">dill_tensor  (&#8855;-right)</text><text fill="#000000" font-family="Verdana" font-size="14" lengthAdjust="spacing" textLength="120.7242" x="474.78" y="351.9838">&#915;;&#916;&#8321; &#8866; A    &#915;;&#916;&#8322; &#8866; B</text><text fill="#000000" font-family="Verdana" font-size="14" lengthAdjust="spacing" textLength="168.5742" x="474.78" y="371.0517">&#9472;&#9472;&#9472;&#9472;&#9472;&#9472;&#9472;&#9472;&#9472;&#9472;&#9472;&#9472;&#9472;&#9472;&#9472;&#9472;&#9472;&#9472;&#9472;&#9472;</text><text fill="#000000" font-family="Verdana" font-size="14" lengthAdjust="spacing" textLength="105.9935" x="474.78" y="390.1196">&#915; ; &#916;&#8321;,&#916;&#8322; &#8866; A &#8855; B</text></g><!--entity LOLLY--><g class="entity" data-qualified-name="Representative dill rules.LOLLY" data-source-line="34" id="ent0008"><rect fill="#FFFFFF" height="115.3396" rx="2.5" ry="2.5" style="stroke:#333333;stroke-width:1;" width="173.5219" x="256.31" y="288.882"/><text fill="#000000" font-family="Verdana" font-size="14" font-style="italic" lengthAdjust="spacing" textLength="83.6637" x="301.2391" y="313.8479">&#171;component&#187;</text><text fill="#000000" font-family="Verdana" font-size="14" lengthAdjust="spacing" textLength="153.5219" x="266.31" y="332.9158">dill_lolly_intro  (&#8888;-right)</text><text fill="#000000" font-family="Verdana" font-size="14" lengthAdjust="spacing" textLength="68.2371" x="266.31" y="351.9838">&#915; ; A,&#916; &#8866; B</text><text fill="#000000" font-family="Verdana" font-size="14" lengthAdjust="spacing" textLength="109.5732" x="266.31" y="371.0517">&#9472;&#9472;&#9472;&#9472;&#9472;&#9472;&#9472;&#9472;&#9472;&#9472;&#9472;&#9472;&#9472;</text><text fill="#000000" font-family="Verdana" font-size="14" lengthAdjust="spacing" textLength="83.4955" x="266.31" y="390.1196">&#915; ; &#916; &#8866; A &#8888; B</text></g><!--entity BANG--><g class="entity" data-qualified-name="Representative dill rules.BANG" data-source-line="35" id="ent0009"><rect fill="#FFFFFF" height="115.3396" rx="2.5" ry="2.5" style="stroke:#333333;stroke-width:1;" width="181.7414" x="39.2" y="288.882"/><text fill="#000000" font-family="Verdana" font-size="14" font-style="italic" lengthAdjust="spacing" textLength="83.6637" x="88.2388" y="313.8479">&#171;component&#187;</text><text fill="#000000" font-family="Verdana" font-size="14" lengthAdjust="spacing" textLength="161.7414" x="49.2" y="332.9158">dill_unrestricted  (!-right)</text><text fill="#000000" font-family="Verdana" font-size="14" lengthAdjust="spacing" textLength="31.2772" x="49.2" y="351.9838">f &#8712; &#915;</text><text fill="#000000" font-family="Verdana" font-size="14" lengthAdjust="spacing" textLength="92.7158" x="49.2" y="371.0517">&#9472;&#9472;&#9472;&#9472;&#9472;&#9472;&#9472;&#9472;&#9472;&#9472;&#9472;</text><text fill="#000000" font-family="Verdana" font-size="14" lengthAdjust="spacing" textLength="53.4671" x="49.2" y="390.1196">&#915; ; &#183; &#8866; ! f</text></g><g class="entity" data-qualified-name="GMN15" data-source-line="44" id="ent0016"><path d="M11,467.222 L11,548.046 A0,0 0 0 0 11,548.046 L249.1392,548.046 A0,0 0 0 0 249.1392,548.046 L249.1392,477.222 L239.1392,467.222 L134.07,467.222 L130.07,404.532 L126.07,467.222 L11,467.222 A0,0 0 0 0 11,467.222" fill="#FFFFFF" style="stroke:#000000;stroke-width:1;"/><path d="M239.1392,467.222 L239.1392,477.222 L249.1392,477.222 L239.1392,467.222" fill="#FFFFFF" style="stroke:#000000;stroke-width:1;"/><text fill="#000000" font-family="Verdana" font-size="13" lengthAdjust="spacing" textLength="176.9952" x="17" y="486.119">! - and ? - resources consume</text><text fill="#000000" font-family="Verdana" font-size="13" lengthAdjust="spacing" textLength="172.6532" x="17" y="503.825">NO linear witness: the linear</text><text fill="#000000" font-family="Verdana" font-size="13" lengthAdjust="spacing" textLength="154.8822" x="17" y="521.531">zone &#916; is empty (dill_unit,</text><text fill="#000000" font-family="Verdana" font-size="13" lengthAdjust="spacing" textLength="217.1392" x="17" y="539.237">dill_unrestricted, dill_whynot_intro).</text></g><!--link GAMMA to TENSOR--><g class="link" data-entity-1="ent0003" data-entity-2="ent0007" data-link-type="dependency" data-source-line="38" id="lnk10"><path d="M293.31,165.132 C308.98,184.262 329.53,204.472 353.07,215.882 C390.8,234.162 409.42,205.422 447.07,223.882 C476.59,238.352 498.3801,259.5122 517.5701,283.6922" fill="none" id="GAMMA-to-TENSOR" style="stroke:#000000;stroke-width:1;"/><polygon fill="#000000" points="521.3,288.392,518.8384,278.8557,518.1918,284.4755,512.572,283.8289,521.3,288.392" style="stroke:#000000;stroke-width:1;"/><text fill="#000000" font-family="Verdana" font-size="13" lengthAdjust="spacing" textLength="94.2111" x="354.07" y="211.779">copied (shared)</text></g><!--link DELTA to TENSOR--><g class="link" data-entity-1="ent0005" data-entity-2="ent0007" data-link-type="dependency" data-source-line="39" id="lnk11"><path d="M569.11,165.002 C574.46,175.112 579.2,186.032 582.07,196.882 C589.95,226.672 587.1205,254.7675 580.2205,282.6675" fill="none" id="DELTA-to-TENSOR" style="stroke:#000000;stroke-width:1;"/><polygon fill="#000000" points="578.78,288.492,584.8237,280.7155,579.9804,283.6382,577.0577,278.7949,578.78,288.492" style="stroke:#000000;stroke-width:1;"/><text fill="#000000" font-family="Verdana" font-size="13" lengthAdjust="spacing" textLength="78.7922" x="586.12" y="211.779">&#916;&#8321; &#8846; &#916;&#8322; (split)</text></g><!--link GAMMA to LOLLY--><g class="link" data-entity-1="ent0003" data-entity-2="ent0008" data-link-type="dependency" data-source-line="40" id="lnk12"><path d="M253.62,164.952 C252.6,181.372 253.24,199.712 258.07,215.882 C265.77,241.672 276.9757,262.1891 291.9857,283.5991" fill="none" id="GAMMA-to-LOLLY" style="stroke:#000000;stroke-width:1;"/><polygon fill="#000000" points="295.43,288.512,293.5388,278.8464,292.5597,284.4179,286.9883,283.4388,295.43,288.512" style="stroke:#000000;stroke-width:1;"/><text fill="#000000" font-family="Verdana" font-size="13" lengthAdjust="spacing" textLength="40.781" x="259.07" y="211.779">copied</text></g><!--link DELTA to LOLLY--><g class="link" data-entity-1="ent0005" data-entity-2="ent0008" data-link-type="dependency" data-source-line="41" id="lnk13"><path d="M496.64,165.222 C466.1,201.082 427.9502,245.874 395.5802,283.884" fill="none" id="DELTA-to-LOLLY" style="stroke:#000000;stroke-width:1;"/><polygon fill="#000000" points="391.69,288.452,400.5706,284.1935,394.9318,284.6453,394.4799,279.0065,391.69,288.452" style="stroke:#000000;stroke-width:1;"/><text fill="#000000" font-family="Verdana" font-size="13" lengthAdjust="spacing" textLength="100.8281" x="469.78" y="211.779">A pushed onto &#916;</text></g><!--link GAMMA to BANG--><g class="link" data-entity-1="ent0003" data-entity-2="ent0009" data-link-type="dependency" data-source-line="42" id="lnk14"><path d="M182.43,165.192 C171.89,174.522 162.25,185.122 155.07,196.882 C138.43,224.132 132.4325,253.1891 130.2225,282.4091" fill="none" id="GAMMA-to-BANG" style="stroke:#000000;stroke-width:1;"/><polygon fill="#000000" points="129.77,288.392,134.4374,279.7193,130.1471,283.4062,126.4602,279.1159,129.77,288.392" style="stroke:#000000;stroke-width:1;"/><text fill="#000000" font-family="Verdana" font-size="13" lengthAdjust="spacing" textLength="89.8691" x="156.07" y="211.779">f drawn from &#915;</text></g><?plantuml-src dPFFJjj04CRlVee1BecKzD0YLG94vO23a4A2Gdge50ajpYHPOUzQkskYjAf4EI4ElH0fbvxw4kNS1-0X_2ITtIJ68JwqtKJvC_jvvlVDx6wPCSO8ISIuy3nzpKN258iXb74Y1GfpOQOHWiBGC36Ai219M7ZDHWXVF806_HufcOh1aOoaEZZuA1HgetXeS71u23j1q7pRR9OfMrmWKwHPh9rci_a-2CgKtJJ2N6ULk_PbbL8DK3aLxEowvNqjCrF6wYes5so5FAx2ExSebxSok_ty2Ddj3DA2F_XCoRTXmxGjzb9wMs6gsHKrSpnD9BLTe-wB2R9h55oC8Fln25OlZ6AXuLBOI5ySTSvFWsCm4l06rHGIXJ7NhboUcsen3IV-sPc_pZfph97hS4wPD_mLd-PsmFLK8qou4QWt0ESRWFE-EFUxlTFUQQTDb2nKKkiLeow1F0vQlNN8Bf9Sau0PVeCmu544YYRjdbwE_1MfrLmQ5DhEgP8zpEkAZyQcsXVFZ_lFi-pk6sGFFy6tCrn6xboaqHVPxFQ_tpO_x8EhK7l9wjFd71ebRdj1-wBJBO6FP1HDBpcrKZe7JmK7LC6lsT7z4t3EbYCzbIArEgtMfnAYjGCDbQqSQ0ZP_JsryIz8bWo_Vpc6BHYMr6_uxHCxVtTQeLu_N3O9zWWfuLIyeiTCuQ3gkREoBbaDzpiisb_HISHDjP3D-OCyMo59lkD3akenLQAZB2bHuMbB1rOpX85Y4m539MCoxmbf4AwaCVHN3XSkW2pMWOa1VA1lQfzCLOZQNX6TnaZxxSxgyYrlr1xGnL_6QDzUIJiohW7Zn4oXifm5DpNQtXXCRH6QZAV4ipW-rJSU4e7b-mC0?></g></svg>