<svg xmlns="http://www.w3.org/2000/svg" xmlns:xlink="http://www.w3.org/1999/xlink" contentStyleType="text/css" data-diagram-type="DESCRIPTION" height="1149px" preserveAspectRatio="none" style="width:1347px;height:1149px;background:#FFFFFF;" version="1.1" viewBox="0 0 1347 1149" width="1347px" zoomAndPan="magnify"><?plantuml $version$?><defs/><g><g class="title" data-source-line="27"><text fill="#000000" font-family="'sans-serif'" font-size="22" font-weight="700" lengthAdjust="spacing" textLength="892.8293" x="226.4341" y="38.5181">FEE = transfer (conserving, flat-per-deploy)  &#183;  COST = burn (balanced-per-cosigner)</text></g><!--cluster LEFT ? FLAT FeeExtract (F-C / F-D)--><g class="cluster" data-qualified-name="LEFT . FLAT FeeExtract .F-C . F-D." data-source-line="29" id="ent0001"><path d="M505.5,62.5661 L740.2711,62.5661 A3.75,3.75 0 0 1 742.7711,65.0661 L749.7711,87.634 L788.5,87.634 A2.5,2.5 0 0 1 791,90.134 L791,714.6861 A2.5,2.5 0 0 1 788.5,717.1861 L505.5,717.1861 A2.5,2.5 0 0 1 503,714.6861 L503,65.0661 A2.5,2.5 0 0 1 505.5,62.5661" fill="#FFFFFF" style="stroke:#444444;stroke-width:1;"/><line style="stroke:#444444;stroke-width:1;" x1="503" x2="749.7711" y1="87.634" y2="87.634"/><text fill="#000000" font-family="'sans-serif'" font-size="14" font-weight="700" lengthAdjust="spacing" textLength="233.7711" x="507" y="79.532">LEFT &#8212; FLAT FeeExtract (F-C / F-D)</text><text fill="#000000" font-family="'sans-serif'" font-size="14" font-style="italic" lengthAdjust="spacing" textLength="69.1738" x="616.4131" y="104.5999">&#171;#C8E6C9&#187;</text></g><!--cluster RIGHT ? Balanced cost split (P8)--><g class="cluster" data-qualified-name="RIGHT . Balanced cost split .P8." data-source-line="44" id="ent0010"><path d="M13.5,565.1761 L239.6191,565.1761 A3.75,3.75 0 0 1 242.1191,567.6761 L249.1191,590.244 L476.5,590.244 A2.5,2.5 0 0 1 479,592.744 L479,1011.7161 A2.5,2.5 0 0 1 476.5,1014.2161 L13.5,1014.2161 A2.5,2.5 0 0 1 11,1011.7161 L11,567.6761 A2.5,2.5 0 0 1 13.5,565.1761" fill="#FFFFFF" style="stroke:#444444;stroke-width:1;"/><line style="stroke:#444444;stroke-width:1;" x1="11" x2="249.1191" y1="590.244" y2="590.244"/><text fill="#000000" font-family="'sans-serif'" font-size="14" font-weight="700" lengthAdjust="spacing" textLength="225.1191" x="15" y="582.142">RIGHT &#8212; Balanced cost split (P8)</text><text fill="#000000" font-family="'sans-serif'" font-size="14" font-style="italic" lengthAdjust="spacing" textLength="69.3277" x="214.3361" y="607.2099">&#171;#C5CAE9&#187;</text></g><!--entity FFA--><g class="entity" data-qualified-name="LEFT . FLAT FeeExtract .F-C . F-D..FFA" data-source-line="30" id="ent0002"><rect fill="#FFFFFF" height="77.2038" rx="2.5" ry="2.5" style="stroke:#333333;stroke-width:1;" width="255.9131" x="519.04" y="119.5661"/><text fill="#000000" font-family="'sans-serif'" font-size="14" font-style="italic" lengthAdjust="spacing" textLength="67.2838" x="613.3547" y="144.532">&#171;#FFECB3&#187;</text><text fill="#000000" font-family="'sans-serif'" font-size="14" lengthAdjust="spacing" textLength="147.7415" x="529.04" y="163.5999">FlatFeeApportionment</text><text fill="#000000" font-family="'sans-serif'" font-size="14" lengthAdjust="spacing" textLength="235.9131" x="529.04" y="182.6679">&#8212; ONE token per ADMITTED deploy</text></g><!--entity CPOOL--><g class="entity" data-qualified-name="LEFT . FLAT FeeExtract .F-C . F-D..CPOOL" data-source-line="31" id="ent0003"><rect fill="#FFFFFF" height="96.2717" rx="2.5" ry="2.5" style="stroke:#333333;stroke-width:1;" width="225.8272" x="536.09" y="287.7661"/><text fill="#000000" font-family="'sans-serif'" font-size="14" font-style="italic" lengthAdjust="spacing" textLength="69.1738" x="614.4167" y="312.732">&#171;#C8E6C9&#187;</text><text fill="#000000" font-family="'sans-serif'" font-size="14" lengthAdjust="spacing" textLength="151.1887" x="546.09" y="331.7999">&#931;&#10214;c&#10215;  client supply pool</text><text fill="#000000" font-family="'sans-serif'" font-size="14" lengthAdjust="spacing" textLength="136.0235" x="546.09" y="350.8679">(combined pool first,</text><text fill="#000000" font-family="'sans-serif'" font-size="14" lengthAdjust="spacing" textLength="205.8272" x="546.09" y="369.9358">else canonical-first component)</text></g><!--entity FV--><g class="entity" data-qualified-name="LEFT . FLAT FeeExtract .F-C . F-D..FV" data-source-line="32" id="ent0004"><rect fill="#FFFFFF" height="58.1358" rx="2.5" ry="2.5" style="stroke:#333333;stroke-width:1;" width="185.7593" x="557.12" y="460.0361"/><text fill="#000000" font-family="'sans-serif'" font-size="14" font-style="italic" lengthAdjust="spacing" textLength="69.1738" x="615.4128" y="485.002">&#171;#C8E6C9&#187;</text><text fill="#000000" font-family="'sans-serif'" font-size="14" lengthAdjust="spacing" textLength="165.7593" x="567.12" y="504.0699">F_v  validator fee channel</text></g><g class="entity" data-qualified-name="LEFT . FLAT FeeExtract .F-C . F-D..GMN7" data-source-line="37" id="ent0008"><path d="M528.72,620.3661 L528.72,701.1902 A0,0 0 0 0 528.72,701.1902 L771.2792,701.1902 A0,0 0 0 0 771.2792,701.1902 L771.2792,630.3661 L761.2792,620.3661 L654,620.3661 L650,518.5061 L646,620.3661 L528.72,620.3661 A0,0 0 0 0 528.72,620.3661" fill="#E8F5E9" style="stroke:#666666;stroke-width:1;"/><path d="M761.2792,620.3661 L761.2792,630.3661 L771.2792,630.3661 L761.2792,620.3661" fill="#E8F5E9" style="stroke:#666666;stroke-width:1;"/><text fill="#000000" font-family="'sans-serif'" font-size="13" lengthAdjust="spacing" textLength="221.5592" x="534.72" y="639.2631">CONSERVING TRANSFER, not a mint:</text><text fill="#000000" font-family="'sans-serif'" font-size="13" lengthAdjust="spacing" textLength="174.5542" x="534.72" y="656.9691">&#931;&#10214;c&#10215; debited == F_v credited.</text><text fill="#000000" font-family="'sans-serif'" font-size="13" lengthAdjust="spacing" textLength="221.2342" x="534.72" y="674.6751">Flat &#8212; exactly one token per deploy,</text><text fill="#000000" font-family="'sans-serif'" font-size="13" lengthAdjust="spacing" textLength="191.3732" x="534.72" y="692.3811">independent of cosigner count.</text></g><!--entity DA--><g class="entity" data-qualified-name="RIGHT . Balanced cost split .P8..DA" data-source-line="45" id="ent0011"><rect fill="#FFFFFF" height="77.2038" rx="2.5" ry="2.5" style="stroke:#333333;stroke-width:1;" width="258.5591" x="115.72" y="622.1761"/><text fill="#000000" font-family="'sans-serif'" font-size="14" font-style="italic" lengthAdjust="spacing" textLength="67.2838" x="211.3577" y="647.142">&#171;#FFECB3&#187;</text><text fill="#000000" font-family="'sans-serif'" font-size="14" lengthAdjust="spacing" textLength="149.0014" x="125.72" y="666.2099">DefaultApportionment</text><text fill="#000000" font-family="'sans-serif'" font-size="14" lengthAdjust="spacing" textLength="238.5591" x="125.72" y="685.2779">&#8212; split cost &#916; EQUALLY per cosigner</text></g><!--entity P1--><g class="entity" data-qualified-name="RIGHT . Balanced cost split .P8..P1" data-source-line="46" id="ent0012"><rect fill="#FFFFFF" height="77.2038" rx="2.5" ry="2.5" style="stroke:#333333;stroke-width:1;" width="121.6149" x="27.19" y="779.1861"/><text fill="#000000" font-family="'sans-serif'" font-size="14" font-style="italic" lengthAdjust="spacing" textLength="69.1738" x="53.4106" y="804.152">&#171;#C8E6C9&#187;</text><text fill="#000000" font-family="'sans-serif'" font-size="14" lengthAdjust="spacing" textLength="101.6149" x="37.19" y="823.2199">&#931;&#10214;Ground(pk&#8321;)&#10215;</text><text fill="#000000" font-family="'sans-serif'" font-size="14" lengthAdjust="spacing" textLength="100.8976" x="37.19" y="842.2879">cosigner 1 pool</text></g><!--entity P2--><g class="entity" data-qualified-name="RIGHT . Balanced cost split .P8..P2" data-source-line="47" id="ent0013"><rect fill="#FFFFFF" height="77.2038" rx="2.5" ry="2.5" style="stroke:#333333;stroke-width:1;" width="121.6149" x="341.19" y="779.1861"/><text fill="#000000" font-family="'sans-serif'" font-size="14" font-style="italic" lengthAdjust="spacing" textLength="69.1738" x="367.4106" y="804.152">&#171;#C8E6C9&#187;</text><text fill="#000000" font-family="'sans-serif'" font-size="14" lengthAdjust="spacing" textLength="101.6149" x="351.19" y="823.2199">&#931;&#10214;Ground(pk&#8322;)&#10215;</text><text fill="#000000" font-family="'sans-serif'" font-size="14" lengthAdjust="spacing" textLength="100.8976" x="351.19" y="842.2879">cosigner 2 pool</text></g><!--entity P3--><g class="entity" data-qualified-name="RIGHT . Balanced cost split .P8..P3" data-source-line="48" id="ent0014"><rect fill="#FFFFFF" height="77.2038" rx="2.5" ry="2.5" style="stroke:#333333;stroke-width:1;" width="121.6149" x="184.19" y="779.1861"/><text fill="#000000" font-family="'sans-serif'" font-size="14" font-style="italic" lengthAdjust="spacing" textLength="69.1738" x="210.4106" y="804.152">&#171;#C8E6C9&#187;</text><text fill="#000000" font-family="'sans-serif'" font-size="14" lengthAdjust="spacing" textLength="101.6149" x="194.19" y="823.2199">&#931;&#10214;Ground(pk&#8323;)&#10215;</text><text fill="#000000" font-family="'sans-serif'" font-size="14" lengthAdjust="spacing" textLength="100.8976" x="194.19" y="842.2879">cosigner 3 pool</text></g><g class="entity" data-qualified-name="RIGHT . Balanced cost split .P8..GMN18" data-source-line="54" id="ent0019"><path d="M211.22,917.3961 L211.22,998.2202 A0,0 0 0 0 211.22,998.2202 L462.7752,998.2202 A0,0 0 0 0 462.7752,998.2202 L462.7752,927.3961 L452.7752,917.3961 L359.78,917.3961 L384.07,856.8661 L351.78,917.3961 L211.22,917.3961 A0,0 0 0 0 211.22,917.3961" fill="#FFEBEE" style="stroke:#666666;stroke-width:1;"/><path d="M452.7752,917.3961 L452.7752,927.3961 L462.7752,927.3961 L452.7752,917.3961" fill="#FFEBEE" style="stroke:#666666;stroke-width:1;"/><text fill="#000000" font-family="'sans-serif'" font-size="13" lengthAdjust="spacing" textLength="230.5552" x="217.22" y="936.2931">BURN, balanced: the deploy COST &#916; is</text><text fill="#000000" font-family="'sans-serif'" font-size="13" lengthAdjust="spacing" textLength="217.3732" x="217.22" y="953.9991">debited in EQUAL weight from each</text><text fill="#000000" font-family="'sans-serif'" font-size="13" lengthAdjust="spacing" textLength="189.9202" x="217.22" y="971.7051">cosigner's own &#931;&#10214;Ground(pk&#7522;)&#10215;.</text><text fill="#000000" font-family="'sans-serif'" font-size="13" lengthAdjust="spacing" textLength="183.6122" x="217.22" y="989.4111">Nothing is credited anywhere.</text></g><g class="entity" data-qualified-name="DIVIDER" data-source-line="62" id="ent0021"><path d="M807.31,629.2161 L807.31,692.3341 L1332.6975,692.3341 L1332.6975,639.2161 L1322.6975,629.2161 L807.31,629.2161" fill="#FFF8E1" style="stroke:#666666;stroke-width:1;"/><path d="M1322.6975,629.2161 L1322.6975,639.2161 L1332.6975,639.2161 L1322.6975,629.2161" fill="#FFF8E1" style="stroke:#666666;stroke-width:1;"/><text fill="#000000" font-family="'sans-serif'" font-size="13" lengthAdjust="spacing" textLength="504.3875" x="813.31" y="648.1131">FEE = transfer (conserving, flat-per-deploy)  &#183;  COST = burn (balanced-per-cosigner).</text><text fill="#000000" font-family="'sans-serif'" font-size="13" lengthAdjust="spacing" textLength="485.1445" x="813.31" y="665.8191">cost &#8800; fee ;  flat &#8800; balanced.   The fee is computed AFTER the cost debit, against</text><text fill="#000000" font-family="'sans-serif'" font-size="13" lengthAdjust="spacing" textLength="328.3299" x="813.31" y="683.5251">the post-cost residual (admit only if &#931;&#10214;c&#10215; &#8805; cost + fee).</text></g><!--link FFA to CPOOL--><g class="link" data-entity-1="ent0002" data-entity-2="ent0003" data-link-type="dependency" data-source-line="34" id="lnk5"><path d="M647.43,196.8661 C647.73,223.3861 648.0838,254.0864 648.4038,282.5364" fill="none" id="FFA-to-CPOOL" style="stroke:#C62828;stroke-width:1;"/><polygon fill="#C62828" points="648.46,287.5361,652.3585,278.4917,648.4038,282.5364,644.359,278.5816,648.46,287.5361" style="stroke:#C62828;stroke-width:1;stroke-linejoin:miter;stroke-miterlimit:10;"/><text fill="#000000" font-family="'sans-serif'" font-size="11" lengthAdjust="spacing" textLength="84.4134" x="656.8763" y="239.525">draw ONE token</text><text fill="#000000" font-family="'sans-serif'" font-size="11" lengthAdjust="spacing" textLength="99.9259" x="649.12" y="254.5069">&#931;&#10214;c&#10215; &#8722;= fee   (carve)</text></g><!--link CPOOL to FV--><g class="link" data-entity-1="ent0003" data-entity-2="ent0004" data-link-type="dependency" data-source-line="35" id="lnk6"><path d="M649.31,384.3261 C649.48,409.0961 649.637,433.5762 649.777,454.7762" fill="none" id="CPOOL-to-FV" style="stroke:#2E7D32;stroke-width:1;"/><polygon fill="#2E7D32" points="649.81,459.7761,653.7505,450.7499,649.777,454.7762,645.7507,450.8027,649.81,459.7761" style="stroke:#2E7D32;stroke-width:1;stroke-linejoin:miter;stroke-miterlimit:10;"/><text fill="#000000" font-family="'sans-serif'" font-size="11" lengthAdjust="spacing" textLength="95.4573" x="650.59" y="426.795">F_v += fee   (credit)</text></g><!--link DA to P1--><g class="link" data-entity-1="ent0011" data-entity-2="ent0012" data-link-type="dependency" data-source-line="50" id="lnk15"><path d="M201.75,699.6661 C189.96,710.3161 177.33,722.0361 166,733.1861 C151.15,747.8061 138.7505,760.8312 125.2805,775.4312" fill="none" id="DA-to-P1" style="stroke:#C62828;stroke-width:1;"/><polygon fill="#C62828" points="121.89,779.1061,130.9327,775.2037,125.2805,775.4312,125.0529,769.7789,121.89,779.1061" style="stroke:#C62828;stroke-width:1;stroke-linejoin:miter;stroke-miterlimit:10;"/><text fill="#000000" font-family="'sans-serif'" font-size="11" lengthAdjust="spacing" textLength="69.2115" x="167" y="745.945">&#916; / n   (BURN)</text></g><!--link DA to P2--><g class="link" data-entity-1="ent0011" data-entity-2="ent0013" data-link-type="dependency" data-source-line="51" id="lnk16"><path d="M288.25,699.6661 C300.04,710.3161 312.67,722.0361 324,733.1861 C338.85,747.8061 351.2495,760.8312 364.7195,775.4312" fill="none" id="DA-to-P2" style="stroke:#C62828;stroke-width:1;"/><polygon fill="#C62828" points="368.11,779.1061,364.9471,769.7789,364.7195,775.4312,359.0673,775.2037,368.11,779.1061" style="stroke:#C62828;stroke-width:1;stroke-linejoin:miter;stroke-miterlimit:10;"/><text fill="#000000" font-family="'sans-serif'" font-size="11" lengthAdjust="spacing" textLength="69.2115" x="340.41" y="745.945">&#916; / n   (BURN)</text></g><!--link DA to P3--><g class="link" data-entity-1="ent0011" data-entity-2="ent0014" data-link-type="dependency" data-source-line="52" id="lnk17"><path d="M245,699.6961 C245,723.7161 245,749.6761 245,773.7261" fill="none" id="DA-to-P3" style="stroke:#C62828;stroke-width:1;"/><polygon fill="#C62828" points="245,778.7261,249,769.7261,245,773.7261,241,769.7261,245,778.7261" style="stroke:#C62828;stroke-width:1;stroke-linejoin:miter;stroke-miterlimit:10;"/><text fill="#000000" font-family="'sans-serif'" font-size="11" lengthAdjust="spacing" textLength="69.2115" x="246" y="745.945">&#916; / n   (BURN)</text></g><!--link FV to DIVIDER--><g class="link" data-entity-1="ent0004" data-entity-2="ent0021" data-link-type="association" data-source-line="66" id="lnk22"><path d="M720.3,518.5061 C795.84,549.0261 915.53,597.3761 993.42,628.8361" fill="none" id="FV-DIVIDER" style="stroke:#000000;stroke-width:1;stroke-dasharray:7,7;"/></g><!--link DIVIDER to P2--><g class="link" data-entity-1="ent0021" data-entity-2="ent0013" data-link-type="association" data-source-line="67" id="lnk23"><path d="M936.43,692.7761 C792.51,726.1661 569.8,777.8561 463.08,802.6161" fill="none" id="DIVIDER-P2" style="stroke:#000000;stroke-width:1;stroke-dasharray:7,7;"/></g><g class="legend" data-source-line="69"><rect fill="none" height="109.3396" rx="7.5" ry="7.5" style="stroke:#000000;stroke-width:1;" width="424.7517" x="460.4729" y="1028.2161"/><text fill="#000000" font-family="'sans-serif'" font-size="14" font-weight="700" lengthAdjust="spacing" textLength="35.1539" x="469.1129" y="1050.182">color</text><text fill="#000000" font-family="'sans-serif'" font-size="14" font-weight="700" lengthAdjust="spacing" textLength="61.6278" x="511.5467" y="1050.182">meaning</text><rect fill="#C8E6C9" height="19.0679" style="stroke:none;stroke-width:1;" width="42.4338" x="465.4729" y="1054.284"/><text fill="#000000" font-family="'sans-serif'" font-size="14" lengthAdjust="spacing" textLength="3.64" x="465.4729" y="1069.2499">&#160;</text><text fill="#000000" font-family="'sans-serif'" font-size="14" lengthAdjust="spacing" textLength="365.0379" x="511.5467" y="1069.2499">supply pool &#931;&#10214;&#183;&#10215; / validator fee channel F_v (accounting)</text><rect fill="#FFECB3" height="19.0679" style="stroke:none;stroke-width:1;" width="42.4338" x="465.4729" y="1073.3519"/><text fill="#000000" font-family="'sans-serif'" font-size="14" lengthAdjust="spacing" textLength="3.64" x="465.4729" y="1088.3179">&#160;</text><text fill="#000000" font-family="'sans-serif'" font-size="14" lengthAdjust="spacing" textLength="200.4092" x="511.5467" y="1088.3179">apportionment policy (control)</text><rect fill="#C62828" height="19.0679" style="stroke:none;stroke-width:1;" width="42.4338" x="465.4729" y="1092.4198"/><text fill="#000000" font-family="'sans-serif'" font-size="14" lengthAdjust="spacing" textLength="3.64" x="465.4729" y="1107.3858">&#160;</text><text fill="#000000" font-family="'sans-serif'" font-size="14" lengthAdjust="spacing" textLength="312.8148" x="511.5467" y="1107.3858">debit / cost-out &#8212; carve (LEFT) or BURN (RIGHT)</text><rect fill="#2E7D32" height="19.0679" style="stroke:none;stroke-width:1;" width="42.4338" x="465.4729" y="1111.4878"/><text fill="#000000" font-family="'sans-serif'" font-size="14" lengthAdjust="spacing" textLength="3.64" x="465.4729" y="1126.4537">&#160;</text><text fill="#000000" font-family="'sans-serif'" font-size="14" lengthAdjust="spacing" textLength="209.3972" x="511.5467" y="1126.4537">conserving credit into F_v (LEFT)</text><line style="stroke:#000000;stroke-width:1;" x1="465.4729" x2="880.2246" y1="1035.2161" y2="1035.2161"/><line style="stroke:#000000;stroke-width:1;" x1="465.4729" x2="880.2246" y1="1054.284" y2="1054.284"/><line style="stroke:#000000;stroke-width:1;" x1="465.4729" x2="880.2246" y1="1073.3519" y2="1073.3519"/><line style="stroke:#000000;stroke-width:1;" x1="465.4729" x2="880.2246" y1="1092.4198" y2="1092.4198"/><line style="stroke:#000000;stroke-width:1;" x1="465.4729" x2="880.2246" y1="1111.4878" y2="1111.4878"/><line style="stroke:#000000;stroke-width:1;" x1="465.4729" x2="880.2246" y1="1130.5557" y2="1130.5557"/><line style="stroke:#000000;stroke-width:1;" x1="465.4729" x2="465.4729" y1="1035.2161" y2="1130.5557"/><line style="stroke:#000000;stroke-width:1;" x1="507.9067" x2="507.9067" y1="1035.2161" y2="1130.5557"/><line style="stroke:#000000;stroke-width:1;" x1="880.2246" x2="880.2246" y1="1035.2161" y2="1130.5557"/></g><?plantuml-src jLNHZjf657ttLzp2Gq71h81cIxPX9GFs1ed05iXALRUg1diCepKprdXOGaEbDdrfNgkyfshLzWkglES3yW_bItfdZ85bITIN-W7XcNFFt7lkcUjFr9JEACGHOTnARXYFYIGp26X8vf7o15SzWlkvXF34JgXaOMuFvejPB3ZbQgYM4GL9VKNu9A9xa6HA0h5WV08XYPBz7KTAiT0d3Dbt52gLlQsO-3TaGk651T0KCg2o9I8X8V-PUQplZ-Lm7rqppnrqJoZQHFQ957CUR72UvzNToY5gZqa_-LFpM8efBDLpNMY0aYXBI2KKVC5HdLkiimHXH9GTKsa7D8x4iWZmxYr0gpySOSXuBZaKnYGYtAU1WVaYOHDEPT6oii9pNTSRmVg7r-1rdH5ubBhFyJ1VGS6pMt02djqkvk3nutohxfws7fsVc-ftMkGyJ0B3d3WMKZ71PxXwpJLZl-U24ZUK0nuEJljfPpHosv0cQpWzpsqrQyX94l0yvoxn-z_NR_xqrs_-mjM8wQLa7iVH4c8XeckEIip6ZDF0l4F8PA9ArvnYxy4dN73cayWsoplMWrBmsDPblzyzgEZRMu1R4h60AEn9I95mIZXItulshYoCnTG1xA_phTDglLh_nZvFMU4C0aaMEnsk-QwczS-_D0mrO4-9lAL594h3aAdgVjwkLJMJTuM8Cz0vFTW5I1emfICu6WZ6GYan0n5gTDwjUm_THvQsKglV6xg3gqxl0aO3fpVqt459Xm216UFgp81sEGLqp1GAscYOyz9JQ50sCDrdOnJw7Es1RK2rzjgRThLae8pZ6yKVL1EJoco7V-PSQJRSCvdZZTavST2vU99QiRanhOx4hiSHGpjUrZVDUzXot2C-RAUJv8WFKmB3zVurk5y-SxhThqpIMMRtpDW-viKBSvKByStwvOz5rEkQRokh61FUiyTbvUCqBmzegX-WgNwSvgS3cje7Q6hQh6tdhbKlAsWlrEK4kBPMyzcWLpm6g_utMEqexC2cIARbRhgkyOj6bI0RLMU0dugDdz9XXdmiCSZCeOodVOG5PPEfWb0YCIN-rA0o8JvDG2mut9Nhdxz_qtAbfiRvEzMV39PitGw4BnTJAkcXKKqDsXkTgqxR7ModEVm_CxfiUewUNR_wrTpxBy2GcVSif8mrZ50jlQzhG8_CTGsEDy8CjOw6miXM0ZB1Zs-Ya5ZlnBXZcsr94nRCIGG54ipmgWYErvk5UvDX_UgFbEc1FWfpsmfZvbEvdAbYPUhW4jhMYkX4GzFMuy6h1lBeBnt-cL72jVWhlRwrwcf_pASfl7khSpWvFfFDg2eGtmmNf2jcV9lxl0AoFnAGDcB-qZH9IH5juQc74Mx4mjDqlRQOfqFFZ6WewAzb4J01RLaec96rPKY7DZBi-hzn5VfLYJJHb66b1KoriVu5?></g></svg>