<svg xmlns="http://www.w3.org/2000/svg" xmlns:xlink="http://www.w3.org/1999/xlink" contentStyleType="text/css" data-diagram-type="DESCRIPTION" height="1025px" preserveAspectRatio="none" style="width:1347px;height:1025px;background:#FFFFFF;" version="1.1" viewBox="0 0 1347 1025" width="1347px" zoomAndPan="magnify"><?plantuml $version$?><defs/><g><g class="title" data-source-line="27"><text fill="#000000" font-family="'sans-serif'" font-size="22" font-weight="700" lengthAdjust="spacing" textLength="892.8293" x="226.4341" y="38.5181">FEE = transfer (conserving, flat-per-deploy)  &#183;  COST = burn (balanced-per-cosigner)</text></g><!--cluster LEFT ? FLAT FeeExtract (F-C / F-D)--><g class="cluster" data-qualified-name="LEFT . FLAT FeeExtract .F-C . F-D." data-source-line="29" id="ent0001"><path d="M505.5,62.5661 L740.2711,62.5661 A3.75,3.75 0 0 1 742.7711,65.0661 L749.7711,87.634 L788.5,87.634 A2.5,2.5 0 0 1 791,90.134 L791,609.9561 A2.5,2.5 0 0 1 788.5,612.4561 L505.5,612.4561 A2.5,2.5 0 0 1 503,609.9561 L503,65.0661 A2.5,2.5 0 0 1 505.5,62.5661" fill="#E8F5E9" style="stroke:#444444;stroke-width:1;"/><line style="stroke:#444444;stroke-width:1;" x1="503" x2="749.7711" y1="87.634" y2="87.634"/><text fill="#000000" font-family="'sans-serif'" font-size="14" font-weight="700" lengthAdjust="spacing" textLength="233.7711" x="507" y="79.532">LEFT &#8212; FLAT FeeExtract (F-C / F-D)</text></g><!--cluster RIGHT ? Balanced cost split (P8)--><g class="cluster" data-qualified-name="RIGHT . Balanced cost split .P8." data-source-line="44" id="ent0010"><path d="M13.5,488.9761 L239.6191,488.9761 A3.75,3.75 0 0 1 242.1191,491.4761 L249.1191,514.044 L476.5,514.044 A2.5,2.5 0 0 1 479,516.544 L479,887.9161 A2.5,2.5 0 0 1 476.5,890.4161 L13.5,890.4161 A2.5,2.5 0 0 1 11,887.9161 L11,491.4761 A2.5,2.5 0 0 1 13.5,488.9761" fill="#E8EAF6" style="stroke:#444444;stroke-width:1;"/><line style="stroke:#444444;stroke-width:1;" x1="11" x2="249.1191" y1="514.044" y2="514.044"/><text fill="#000000" font-family="'sans-serif'" font-size="14" font-weight="700" lengthAdjust="spacing" textLength="225.1191" x="15" y="505.942">RIGHT &#8212; Balanced cost split (P8)</text></g><!--entity FFA--><g class="entity" data-qualified-name="LEFT . FLAT FeeExtract .F-C . F-D..FFA" data-source-line="30" id="ent0002"><rect fill="#FFECB3" height="58.1358" rx="2.5" ry="2.5" style="stroke:#333333;stroke-width:1;" width="255.9131" x="519.04" y="100.5661"/><text fill="#000000" font-family="'sans-serif'" font-size="14" lengthAdjust="spacing" textLength="147.7415" x="529.04" y="125.532">FlatFeeApportionment</text><text fill="#000000" font-family="'sans-serif'" font-size="14" lengthAdjust="spacing" textLength="235.9131" x="529.04" y="144.5999">&#8212; ONE token per ADMITTED deploy</text></g><!--entity CPOOL--><g class="entity" data-qualified-name="LEFT . FLAT FeeExtract .F-C . F-D..CPOOL" data-source-line="31" id="ent0003"><rect fill="#C8E6C9" height="77.2038" rx="2.5" ry="2.5" style="stroke:#333333;stroke-width:1;" width="225.8272" x="536.09" y="249.7061"/><text fill="#000000" font-family="'sans-serif'" font-size="14" lengthAdjust="spacing" textLength="151.1887" x="546.09" y="274.672">&#931;&#10214;c&#10215;  client supply pool</text><text fill="#000000" font-family="'sans-serif'" font-size="14" lengthAdjust="spacing" textLength="136.0235" x="546.09" y="293.7399">(combined pool first,</text><text fill="#000000" font-family="'sans-serif'" font-size="14" lengthAdjust="spacing" textLength="205.8272" x="546.09" y="312.8079">else canonical-first component)</text></g><!--entity FV--><g class="entity" data-qualified-name="LEFT . FLAT FeeExtract .F-C . F-D..FV" data-source-line="32" id="ent0004"><rect fill="#C8E6C9" height="39.0679" rx="2.5" ry="2.5" style="stroke:#333333;stroke-width:1;" width="185.7593" x="557.12" y="402.9061"/><text fill="#000000" font-family="'sans-serif'" font-size="14" lengthAdjust="spacing" textLength="165.7593" x="567.12" y="427.872">F_v  validator fee channel</text></g><g class="entity" data-qualified-name="LEFT . FLAT FeeExtract .F-C . F-D..GMN7" data-source-line="37" id="ent0008"><path d="M528.72,515.6361 L528.72,596.4602 A0,0 0 0 0 528.72,596.4602 L771.2792,596.4602 A0,0 0 0 0 771.2792,596.4602 L771.2792,525.6361 L761.2792,515.6361 L654,515.6361 L650,442.2961 L646,515.6361 L528.72,515.6361 A0,0 0 0 0 528.72,515.6361" fill="#E8F5E9" style="stroke:#666666;stroke-width:1;"/><path d="M761.2792,515.6361 L761.2792,525.6361 L771.2792,525.6361 L761.2792,515.6361" fill="#E8F5E9" style="stroke:#666666;stroke-width:1;"/><text fill="#000000" font-family="'sans-serif'" font-size="13" lengthAdjust="spacing" textLength="221.5592" x="534.72" y="534.5331">CONSERVING TRANSFER, not a mint:</text><text fill="#000000" font-family="'sans-serif'" font-size="13" lengthAdjust="spacing" textLength="174.5542" x="534.72" y="552.2391">&#931;&#10214;c&#10215; debited == F_v credited.</text><text fill="#000000" font-family="'sans-serif'" font-size="13" lengthAdjust="spacing" textLength="221.2342" x="534.72" y="569.9451">Flat &#8212; exactly one token per deploy,</text><text fill="#000000" font-family="'sans-serif'" font-size="13" lengthAdjust="spacing" textLength="191.3732" x="534.72" y="587.6511">independent of cosigner count.</text></g><!--entity DA--><g class="entity" data-qualified-name="RIGHT . Balanced cost split .P8..DA" data-source-line="45" id="ent0011"><rect fill="#FFECB3" height="58.1358" rx="2.5" ry="2.5" style="stroke:#333333;stroke-width:1;" width="258.5591" x="115.72" y="526.9761"/><text fill="#000000" font-family="'sans-serif'" font-size="14" lengthAdjust="spacing" textLength="149.0014" x="125.72" y="551.942">DefaultApportionment</text><text fill="#000000" font-family="'sans-serif'" font-size="14" lengthAdjust="spacing" textLength="238.5591" x="125.72" y="571.0099">&#8212; split cost &#916; EQUALLY per cosigner</text></g><!--entity P1--><g class="entity" data-qualified-name="RIGHT . Balanced cost split .P8..P1" data-source-line="46" id="ent0012"><rect fill="#C8E6C9" height="58.1358" rx="2.5" ry="2.5" style="stroke:#333333;stroke-width:1;" width="121.6149" x="27.19" y="674.4561"/><text fill="#000000" font-family="'sans-serif'" font-size="14" lengthAdjust="spacing" textLength="101.6149" x="37.19" y="699.422">&#931;&#10214;Ground(pk&#8321;)&#10215;</text><text fill="#000000" font-family="'sans-serif'" font-size="14" lengthAdjust="spacing" textLength="100.8976" x="37.19" y="718.4899">cosigner 1 pool</text></g><!--entity P2--><g class="entity" data-qualified-name="RIGHT . Balanced cost split .P8..P2" data-source-line="47" id="ent0013"><rect fill="#C8E6C9" height="58.1358" rx="2.5" ry="2.5" style="stroke:#333333;stroke-width:1;" width="121.6149" x="341.19" y="674.4561"/><text fill="#000000" font-family="'sans-serif'" font-size="14" lengthAdjust="spacing" textLength="101.6149" x="351.19" y="699.422">&#931;&#10214;Ground(pk&#8322;)&#10215;</text><text fill="#000000" font-family="'sans-serif'" font-size="14" lengthAdjust="spacing" textLength="100.8976" x="351.19" y="718.4899">cosigner 2 pool</text></g><!--entity P3--><g class="entity" data-qualified-name="RIGHT . Balanced cost split .P8..P3" data-source-line="48" id="ent0014"><rect fill="#C8E6C9" height="58.1358" rx="2.5" ry="2.5" style="stroke:#333333;stroke-width:1;" width="121.6149" x="184.19" y="674.4561"/><text fill="#000000" font-family="'sans-serif'" font-size="14" lengthAdjust="spacing" textLength="101.6149" x="194.19" y="699.422">&#931;&#10214;Ground(pk&#8323;)&#10215;</text><text fill="#000000" font-family="'sans-serif'" font-size="14" lengthAdjust="spacing" textLength="100.8976" x="194.19" y="718.4899">cosigner 3 pool</text></g><g class="entity" data-qualified-name="RIGHT . Balanced cost split .P8..GMN18" data-source-line="54" id="ent0019"><path d="M211.22,793.5961 L211.22,874.4202 A0,0 0 0 0 211.22,874.4202 L462.7752,874.4202 A0,0 0 0 0 462.7752,874.4202 L462.7752,803.5961 L452.7752,793.5961 L361.05,793.5961 L387.57,733.0361 L353.05,793.5961 L211.22,793.5961 A0,0 0 0 0 211.22,793.5961" fill="#FFEBEE" style="stroke:#666666;stroke-width:1;"/><path d="M452.7752,793.5961 L452.7752,803.5961 L462.7752,803.5961 L452.7752,793.5961" fill="#FFEBEE" style="stroke:#666666;stroke-width:1;"/><text fill="#000000" font-family="'sans-serif'" font-size="13" lengthAdjust="spacing" textLength="230.5552" x="217.22" y="812.4931">BURN, balanced: the deploy COST &#916; is</text><text fill="#000000" font-family="'sans-serif'" font-size="13" lengthAdjust="spacing" textLength="217.3732" x="217.22" y="830.1991">debited in EQUAL weight from each</text><text fill="#000000" font-family="'sans-serif'" font-size="13" lengthAdjust="spacing" textLength="189.9202" x="217.22" y="847.9051">cosigner's own &#931;&#10214;Ground(pk&#7522;)&#10215;.</text><text fill="#000000" font-family="'sans-serif'" font-size="13" lengthAdjust="spacing" textLength="183.6122" x="217.22" y="865.6111">Nothing is credited anywhere.</text></g><g class="entity" data-qualified-name="DIVIDER" data-source-line="62" id="ent0021"><path d="M807.31,524.4861 L807.31,587.6041 L1332.6975,587.6041 L1332.6975,534.4861 L1322.6975,524.4861 L807.31,524.4861" fill="#FFF8E1" style="stroke:#666666;stroke-width:1;"/><path d="M1322.6975,524.4861 L1322.6975,534.4861 L1332.6975,534.4861 L1322.6975,524.4861" fill="#FFF8E1" style="stroke:#666666;stroke-width:1;"/><text fill="#000000" font-family="'sans-serif'" font-size="13" lengthAdjust="spacing" textLength="504.3875" x="813.31" y="543.3831">FEE = transfer (conserving, flat-per-deploy)  &#183;  COST = burn (balanced-per-cosigner).</text><text fill="#000000" font-family="'sans-serif'" font-size="13" lengthAdjust="spacing" textLength="485.1445" x="813.31" y="561.0891">cost &#8800; fee ;  flat &#8800; balanced.   The fee is computed AFTER the cost debit, against</text><text fill="#000000" font-family="'sans-serif'" font-size="13" lengthAdjust="spacing" textLength="328.3299" x="813.31" y="578.7951">the post-cost residual (admit only if &#931;&#10214;c&#10215; &#8805; cost + fee).</text></g><!--link FFA to CPOOL--><g class="link" data-entity-1="ent0002" data-entity-2="ent0003" data-link-type="dependency" data-source-line="34" id="lnk5"><path d="M647.36,159.0061 C647.69,184.3161 648.0954,216.5665 648.4554,244.4165" fill="none" id="FFA-to-CPOOL" style="stroke:#C62828;stroke-width:1;"/><polygon fill="#C62828" points="648.52,249.4161,652.4033,240.3651,648.4554,244.4165,644.404,240.4685,648.52,249.4161" style="stroke:#C62828;stroke-width:1;stroke-linejoin:miter;stroke-miterlimit:10;"/><text fill="#000000" font-family="'sans-serif'" font-size="11" lengthAdjust="spacing" textLength="84.4134" x="656.8763" y="201.465">draw ONE token</text><text fill="#000000" font-family="'sans-serif'" font-size="11" lengthAdjust="spacing" textLength="99.9259" x="649.12" y="216.4469">&#931;&#10214;c&#10215; &#8722;= fee   (carve)</text></g><!--link CPOOL to FV--><g class="link" data-entity-1="ent0003" data-entity-2="ent0004" data-link-type="dependency" data-source-line="35" id="lnk6"><path d="M649.29,327.1761 C649.47,351.8761 649.6717,378.0662 649.8217,397.6362" fill="none" id="CPOOL-to-FV" style="stroke:#2E7D32;stroke-width:1;"/><polygon fill="#2E7D32" points="649.86,402.6361,653.7909,393.6057,649.8217,397.6362,645.7911,393.667,649.86,402.6361" style="stroke:#2E7D32;stroke-width:1;stroke-linejoin:miter;stroke-miterlimit:10;"/><text fill="#000000" font-family="'sans-serif'" font-size="11" lengthAdjust="spacing" textLength="95.4573" x="650.62" y="369.665">F_v += fee   (credit)</text></g><!--link DA to P1--><g class="link" data-entity-1="ent0011" data-entity-2="ent0012" data-link-type="dependency" data-source-line="50" id="lnk15"><path d="M213.32,585.3661 C198.82,598.4061 181.46,614.1361 166,628.4561 C149.84,643.4361 135.6155,656.8823 121.0855,670.7623" fill="none" id="DA-to-P1" style="stroke:#C62828;stroke-width:1;"/><polygon fill="#C62828" points="117.47,674.2161,126.7409,670.8917,121.0855,670.7623,121.2149,665.107,117.47,674.2161" style="stroke:#C62828;stroke-width:1;stroke-linejoin:miter;stroke-miterlimit:10;"/><text fill="#000000" font-family="'sans-serif'" font-size="11" lengthAdjust="spacing" textLength="69.2115" x="167" y="641.215">&#916; / n   (BURN)</text></g><!--link DA to P2--><g class="link" data-entity-1="ent0011" data-entity-2="ent0013" data-link-type="dependency" data-source-line="51" id="lnk16"><path d="M276.68,585.3661 C291.18,598.4061 308.54,614.1361 324,628.4561 C340.16,643.4361 354.3845,656.8823 368.9145,670.7623" fill="none" id="DA-to-P2" style="stroke:#C62828;stroke-width:1;"/><polygon fill="#C62828" points="372.53,674.2161,368.7851,665.107,368.9145,670.7623,363.2591,670.8917,372.53,674.2161" style="stroke:#C62828;stroke-width:1;stroke-linejoin:miter;stroke-miterlimit:10;"/><text fill="#000000" font-family="'sans-serif'" font-size="11" lengthAdjust="spacing" textLength="69.2115" x="340.05" y="641.215">&#916; / n   (BURN)</text></g><!--link DA to P3--><g class="link" data-entity-1="ent0011" data-entity-2="ent0014" data-link-type="dependency" data-source-line="52" id="lnk17"><path d="M245,585.4361 C245,611.0761 245,643.5861 245,669.1961" fill="none" id="DA-to-P3" style="stroke:#C62828;stroke-width:1;"/><polygon fill="#C62828" points="245,674.1961,249,665.1961,245,669.1961,241,665.1961,245,674.1961" style="stroke:#C62828;stroke-width:1;stroke-linejoin:miter;stroke-miterlimit:10;"/><text fill="#000000" font-family="'sans-serif'" font-size="11" lengthAdjust="spacing" textLength="69.2115" x="246" y="641.215">&#916; / n   (BURN)</text></g><!--link FV to DIVIDER--><g class="link" data-entity-1="ent0004" data-entity-2="ent0021" data-link-type="association" data-source-line="66" id="lnk22"><path d="M710.62,442.4361 C778.77,463.7961 890.44,498.7861 971.23,524.0961" fill="none" id="FV-DIVIDER" style="stroke:#000000;stroke-width:1;stroke-dasharray:7,7;"/></g><!--link DIVIDER to P2--><g class="link" data-entity-1="ent0021" data-entity-2="ent0013" data-link-type="association" data-source-line="67" id="lnk23"><path d="M935.64,588.0261 C889.79,598.4861 838.19,610.1161 791,620.4561 C675.2,645.8261 539.69,674.0961 463.04,689.9561" fill="none" id="DIVIDER-P2" style="stroke:#000000;stroke-width:1;stroke-dasharray:7,7;"/></g><g class="legend" data-source-line="69"><rect fill="none" height="109.3396" rx="7.5" ry="7.5" style="stroke:#000000;stroke-width:1;" width="424.7517" x="460.4729" y="904.4161"/><text fill="#000000" font-family="'sans-serif'" font-size="14" font-weight="700" lengthAdjust="spacing" textLength="35.1539" x="469.1129" y="926.382">color</text><text fill="#000000" font-family="'sans-serif'" font-size="14" font-weight="700" lengthAdjust="spacing" textLength="61.6278" x="511.5467" y="926.382">meaning</text><rect fill="#C8E6C9" height="19.0679" style="stroke:none;stroke-width:1;" width="42.4338" x="465.4729" y="930.484"/><text fill="#000000" font-family="'sans-serif'" font-size="14" lengthAdjust="spacing" textLength="3.64" x="465.4729" y="945.4499">&#160;</text><text fill="#000000" font-family="'sans-serif'" font-size="14" lengthAdjust="spacing" textLength="365.0379" x="511.5467" y="945.4499">supply pool &#931;&#10214;&#183;&#10215; / validator fee channel F_v (accounting)</text><rect fill="#FFECB3" height="19.0679" style="stroke:none;stroke-width:1;" width="42.4338" x="465.4729" y="949.5519"/><text fill="#000000" font-family="'sans-serif'" font-size="14" lengthAdjust="spacing" textLength="3.64" x="465.4729" y="964.5179">&#160;</text><text fill="#000000" font-family="'sans-serif'" font-size="14" lengthAdjust="spacing" textLength="200.4092" x="511.5467" y="964.5179">apportionment policy (control)</text><rect fill="#C62828" height="19.0679" style="stroke:none;stroke-width:1;" width="42.4338" x="465.4729" y="968.6198"/><text fill="#000000" font-family="'sans-serif'" font-size="14" lengthAdjust="spacing" textLength="3.64" x="465.4729" y="983.5858">&#160;</text><text fill="#000000" font-family="'sans-serif'" font-size="14" lengthAdjust="spacing" textLength="312.8148" x="511.5467" y="983.5858">debit / cost-out &#8212; carve (LEFT) or BURN (RIGHT)</text><rect fill="#2E7D32" height="19.0679" style="stroke:none;stroke-width:1;" width="42.4338" x="465.4729" y="987.6878"/><text fill="#000000" font-family="'sans-serif'" font-size="14" lengthAdjust="spacing" textLength="3.64" x="465.4729" y="1002.6537">&#160;</text><text fill="#000000" font-family="'sans-serif'" font-size="14" lengthAdjust="spacing" textLength="209.3972" x="511.5467" y="1002.6537">conserving credit into F_v (LEFT)</text><line style="stroke:#000000;stroke-width:1;" x1="465.4729" x2="880.2246" y1="911.4161" y2="911.4161"/><line style="stroke:#000000;stroke-width:1;" x1="465.4729" x2="880.2246" y1="930.484" y2="930.484"/><line style="stroke:#000000;stroke-width:1;" x1="465.4729" x2="880.2246" y1="949.5519" y2="949.5519"/><line style="stroke:#000000;stroke-width:1;" x1="465.4729" x2="880.2246" y1="968.6198" y2="968.6198"/><line style="stroke:#000000;stroke-width:1;" x1="465.4729" x2="880.2246" y1="987.6878" y2="987.6878"/><line style="stroke:#000000;stroke-width:1;" x1="465.4729" x2="880.2246" y1="1006.7557" y2="1006.7557"/><line style="stroke:#000000;stroke-width:1;" x1="465.4729" x2="465.4729" y1="911.4161" y2="1006.7557"/><line style="stroke:#000000;stroke-width:1;" x1="507.9067" x2="507.9067" y1="911.4161" y2="1006.7557"/><line style="stroke:#000000;stroke-width:1;" x1="880.2246" x2="880.2246" y1="911.4161" y2="1006.7557"/></g><?plantuml-src jLNTZY955BxlfpZ2XP2bcGpeo8wo2J_T8md22EmaHemfkgkXCarLfxeO5XqJNM_SMxFtQpJg4vYztmVOTv0dyLGL3Jr8pDvO5uIkEkSxvtpdgrFlgGLTKaXYmhYJtZAU44cM4DA8h6Bb2wu61CyBAU6fcrB9eaBEB13BH73ArLXjOWgI1ehmUKnp9kc2X6BD-1mY4gVvavQKOgqZZDat5CxFSqS92Mx9dCAt3a1Ro93AZeY5XE87PZdVdShXtzPrinvO3uIYRKIVIx7YuSxEz_s6TtvibKFIgtXXbgEOmb9zpuCcA8cqH5H2AH0SsRd3EYiGnKIv2PLkI9DORCe0Rru3T8RZ2RhCLf93QKPYmWCQ6hD0f6pEgImxJbPueU_v4zX-_nByVci2FgNUCmmMA2ZvRWVEm7UxvG8KlOR_eVVOL7xWeU1Z0kZIIX8X5HDyYRjJhj660m-KkAKSC32qkf_r9XEl2pRH0f0KVB-b2V4wxVf3qBU_RL_z4MnV_OcxCTDRwIf9uWqaGiHJZWmiPupJq7n3n6IgAbDEiUSG42uu2qZickq3Qjc4x5mFXtqeTXhUHUVnKILVtm7SaPY5H64V8efW2y8HrYPxitT3Fvqwk5yMEnUrHgtnbVjaXtm9eIJhG-rJVgXb-zFFJGCBs4CYxsWPWQmR8jMyZxhrcaR2I810Efz71mT9GwQq1qV1m4me9POW8fENROsZfTCP3iRUwAOtk8B9g3KO-zweebs0m99nTMcC3Zc5TCOK4jbicdWs2WshnaptrWY3FaCv8Ft8LAwbjfCLOyeuVb7yGIOngKnc-6V5bKR3CvCvtf23yaQzgq-jzDexaMfFx7OICvJVTSFgpclv5yUwwzgfSK9trjdWl7q9tkTFM_t-5oRXB2lJp-v_QU_ANDbIShjz_aCPUPhoVKNdHdG6ulhyj9AE8PuVGTHo4BLtW_Zn2AAUWwZdXObbFP0bvdYfUJW3hcNKVZeQb4-PrTxDh7xIx4YIkYYajkrvHXlQgWBP6Be4V0Pssh632l5OQYmpDJ9k-mPhokOB1P54O4g2XR7AI7W_1R7cy92gl__wLLDb1OopTQ6V0vRkbGs4RzOBAkcnA4qDMXUzcrxN6-qdDVm_yxTg-eqQtRxunTpnZy60cU_CfOerJ90jVQvhG7siT0qjVu8PQXuDXA6j0cIE3skg45YV97ZYccD9KnQkI0mb4YxnQWYELvb5kIcmVV6xHNgaGs5kUsBCBAfMCrQSZ1tSkguvJapdsjIs7WFVDn57lsBuPqa9r-JVw_rFTX9zSfyVvJQ5Dwzr3cUdPwyPIoKIc462SEKCpzvTn2Fv4O2mCGisfabAYdXlRZMCveOiZARhTSNA3ZWpZg6aNy8oO09Qib0ouscFO0Sq8XpwlrCLwbK9cwX5kDS4McwSVm00?></g></svg>