<svg xmlns="http://www.w3.org/2000/svg" xmlns:xlink="http://www.w3.org/1999/xlink" contentStyleType="text/css" data-diagram-type="SEQUENCE" height="1221px" preserveAspectRatio="none" style="width:982px;height:1221px;background:#FFFFFF;" version="1.1" viewBox="0 0 982 1221" width="982px" zoomAndPan="magnify"><?plantuml $version$?><defs/><g><g><title>Metering pipeline</title><rect fill="#FFFFFF" height="129.3765" style="stroke:#000000;stroke-width:1;" width="10" x="274.3397" y="200.0647"/></g><g><title>Evaluator</title><rect fill="#FFFFFF" height="735.2264" style="stroke:#000000;stroke-width:1;" width="10" x="464.4568" y="299.4411"/></g><g><title>TokenBudget</title><rect fill="#FFFFFF" height="30.3441" style="stroke:#000000;stroke-width:1;" width="10" x="672.01" y="359.7853"/></g><g><title>TokenBudget</title><rect fill="#FFFFFF" height="30.3441" style="stroke:#000000;stroke-width:1;" width="10" x="672.01" y="973.9793"/></g><g><title>RSpace</title><rect fill="#FFFFFF" height="30.3441" style="stroke:#000000;stroke-width:1;" width="10" x="846.111" y="464.8176"/></g><g><title>RSpace</title><rect fill="#FFFFFF" height="30.3441" style="stroke:#000000;stroke-width:1;" width="10" x="846.111" y="569.8499"/></g><g><title>RSpace</title><rect fill="#FFFFFF" height="30.3441" style="stroke:#000000;stroke-width:1;" width="10" x="846.111" y="913.2911"/></g><g class="participant-lifeline" data-entity-uid="part1" data-qualified-name="D" data-source-line="50" id="part1-lifeline"><g><title>Deployer</title><rect fill="#000000" fill-opacity="0.00000" height="1055.6999" width="8" x="34.5542" y="82.3441"/><line style="stroke:#666666;stroke-width:1;stroke-dasharray:5,5;" x1="38" x2="38" y1="82.3441" y2="1138.044"/></g></g><g class="participant-lifeline" data-entity-uid="part2" data-qualified-name="T" data-source-line="51" id="part2-lifeline"><g><title>Metering pipeline</title><rect fill="#000000" fill-opacity="0.00000" height="1055.6999" width="8" x="275.3397" y="82.3441"/><line style="stroke:#666666;stroke-width:1;stroke-dasharray:5,5;" x1="278.7849" x2="278.7849" y1="82.3441" y2="1138.044"/></g></g><g class="participant-lifeline" data-entity-uid="part3" data-qualified-name="E" data-source-line="52" id="part3-lifeline"><g><title>Evaluator</title><rect fill="#000000" fill-opacity="0.00000" height="1055.6999" width="8" x="465.4568" y="82.3441"/><line style="stroke:#666666;stroke-width:1;stroke-dasharray:5,5;" x1="468.8106" x2="468.8106" y1="82.3441" y2="1138.044"/></g></g><g class="participant-lifeline" data-entity-uid="part4" data-qualified-name="CM" data-source-line="53" id="part4-lifeline"><g><title>TokenBudget</title><rect fill="#000000" fill-opacity="0.00000" height="1055.6999" width="8" x="673.01" y="82.3441"/><line style="stroke:#666666;stroke-width:1;stroke-dasharray:5,5;" x1="676.2098" x2="676.2098" y1="82.3441" y2="1138.044"/></g></g><g class="participant-lifeline" data-entity-uid="part5" data-qualified-name="R" data-source-line="54" id="part5-lifeline"><g><title>RSpace</title><rect fill="#000000" fill-opacity="0.00000" height="1055.6999" width="8" x="847.111" y="82.3441"/><line style="stroke:#666666;stroke-width:1;stroke-dasharray:5,5;" x1="850.7649" x2="850.7649" y1="82.3441" y2="1138.044"/></g></g><g class="participant participant-head" data-entity-uid="part1" data-qualified-name="D" data-source-line="50" id="part1-head"><text fill="#000000" font-family="'sans-serif'" font-size="12" lengthAdjust="spacing" textLength="51.1084" x="10" y="78.8281">Deployer</text><ellipse cx="38.5542" cy="14" fill="#F8C3B8" rx="8" ry="8" style="stroke:#000000;stroke-width:1;"/><path d="M38.5542,22 L38.5542,49 M25.5542,30 L51.5542,30 M38.5542,49 L25.5542,64 M38.5542,49 L51.5542,64" fill="none" style="stroke:#000000;stroke-width:1;"/></g><g class="participant participant-tail" data-entity-uid="part1" data-qualified-name="D" data-source-line="50" id="part1-tail"><text fill="#000000" font-family="'sans-serif'" font-size="12" lengthAdjust="spacing" textLength="51.1084" x="10" y="1149.8721">Deployer</text><ellipse cx="38.5542" cy="1162.3881" fill="#F8C3B8" rx="8" ry="8" style="stroke:#000000;stroke-width:1;"/><path d="M38.5542,1170.3881 L38.5542,1197.3881 M25.5542,1178.3881 L51.5542,1178.3881 M38.5542,1197.3881 L25.5542,1212.3881 M38.5542,1197.3881 L51.5542,1212.3881" fill="none" style="stroke:#000000;stroke-width:1;"/></g><g class="participant participant-head" data-entity-uid="part2" data-qualified-name="T" data-source-line="51" id="part2-head"><rect fill="#D4C4E8" height="42.6882" rx="2.5" ry="2.5" style="stroke:#333333;stroke-width:1;" width="217.1095" x="170.7849" y="33.6559"/><text fill="#000000" font-family="'sans-serif'" font-size="12" lengthAdjust="spacing" textLength="99.7207" x="229.4793" y="51.484">Metering pipeline</text><text fill="#000000" font-family="'sans-serif'" font-size="12" lengthAdjust="spacing" textLength="207.1095" x="175.7849" y="67.8281">(Parser + Normalizer + SigAnnotator)</text></g><g class="participant participant-tail" data-entity-uid="part2" data-qualified-name="T" data-source-line="51" id="part2-tail"><rect fill="#D4C4E8" height="42.6882" rx="2.5" ry="2.5" style="stroke:#333333;stroke-width:1;" width="217.1095" x="170.7849" y="1142.044"/><text fill="#000000" font-family="'sans-serif'" font-size="12" lengthAdjust="spacing" textLength="99.7207" x="229.4793" y="1159.8721">Metering pipeline</text><text fill="#000000" font-family="'sans-serif'" font-size="12" lengthAdjust="spacing" textLength="207.1095" x="175.7849" y="1176.2162">(Parser + Normalizer + SigAnnotator)</text></g><g class="participant participant-head" data-entity-uid="part3" data-qualified-name="E" data-source-line="52" id="part3-head"><rect fill="#FFECB3" height="26.3441" rx="2.5" ry="2.5" style="stroke:#333333;stroke-width:1;" width="63.2924" x="437.8106" y="50"/><text fill="#000000" font-family="'sans-serif'" font-size="12" lengthAdjust="spacing" textLength="53.2924" x="442.8106" y="67.8281">Evaluator</text></g><g class="participant participant-tail" data-entity-uid="part3" data-qualified-name="E" data-source-line="52" id="part3-tail"><rect fill="#FFECB3" height="26.3441" rx="2.5" ry="2.5" style="stroke:#333333;stroke-width:1;" width="63.2924" x="437.8106" y="1142.044"/><text fill="#000000" font-family="'sans-serif'" font-size="12" lengthAdjust="spacing" textLength="53.2924" x="442.8106" y="1159.8721">Evaluator</text></g><g class="participant participant-head" data-entity-uid="part4" data-qualified-name="CM" data-source-line="53" id="part4-head"><rect fill="#C8E6C9" height="26.3441" rx="2.5" ry="2.5" style="stroke:#333333;stroke-width:1;" width="85.6005" x="634.2098" y="50"/><text fill="#000000" font-family="'sans-serif'" font-size="12" lengthAdjust="spacing" textLength="75.6005" x="639.2098" y="67.8281">TokenBudget</text></g><g class="participant participant-tail" data-entity-uid="part4" data-qualified-name="CM" data-source-line="53" id="part4-tail"><rect fill="#C8E6C9" height="26.3441" rx="2.5" ry="2.5" style="stroke:#333333;stroke-width:1;" width="85.6005" x="634.2098" y="1142.044"/><text fill="#000000" font-family="'sans-serif'" font-size="12" lengthAdjust="spacing" textLength="75.6005" x="639.2098" y="1159.8721">TokenBudget</text></g><g class="participant participant-head" data-entity-uid="part5" data-qualified-name="R" data-source-line="54" id="part5-head"><text fill="#000000" font-family="'sans-serif'" font-size="12" lengthAdjust="spacing" textLength="40.6923" x="827.7649" y="78.8281">RSpace</text><path d="M833.111,30 C833.111,20 851.111,20 851.111,20 C851.111,20 869.111,20 869.111,30 L869.111,56 C869.111,66 851.111,66 851.111,66 C851.111,66 833.111,66 833.111,56 L833.111,30" fill="#BBDEFB" style="stroke:#000000;stroke-width:1;"/><path d="M833.111,30 C833.111,40 851.111,40 851.111,40 C851.111,40 869.111,40 869.111,30" fill="none" style="stroke:#000000;stroke-width:1;"/></g><g class="participant participant-tail" data-entity-uid="part5" data-qualified-name="R" data-source-line="54" id="part5-tail"><text fill="#000000" font-family="'sans-serif'" font-size="12" lengthAdjust="spacing" textLength="40.6923" x="827.7649" y="1149.8721">RSpace</text><path d="M833.111,1163.3881 C833.111,1153.3881 851.111,1153.3881 851.111,1153.3881 C851.111,1153.3881 869.111,1153.3881 869.111,1163.3881 L869.111,1189.3881 C869.111,1199.3881 851.111,1199.3881 851.111,1199.3881 C851.111,1199.3881 833.111,1199.3881 833.111,1189.3881 L833.111,1163.3881" fill="#BBDEFB" style="stroke:#000000;stroke-width:1;"/><path d="M833.111,1163.3881 C833.111,1173.3881 851.111,1173.3881 851.111,1173.3881 C851.111,1173.3881 869.111,1173.3881 869.111,1163.3881" fill="none" style="stroke:#000000;stroke-width:1;"/></g><g><title>Metering pipeline</title><rect fill="#FFFFFF" height="129.3765" style="stroke:#000000;stroke-width:1;" width="10" x="274.3397" y="200.0647"/></g><g><title>Evaluator</title><rect fill="#FFFFFF" height="735.2264" style="stroke:#000000;stroke-width:1;" width="10" x="464.4568" y="299.4411"/></g><g><title>TokenBudget</title><rect fill="#FFFFFF" height="30.3441" style="stroke:#000000;stroke-width:1;" width="10" x="672.01" y="359.7853"/></g><g><title>TokenBudget</title><rect fill="#FFFFFF" height="30.3441" style="stroke:#000000;stroke-width:1;" width="10" x="672.01" y="973.9793"/></g><g><title>RSpace</title><rect fill="#FFFFFF" height="30.3441" style="stroke:#000000;stroke-width:1;" width="10" x="846.111" y="464.8176"/></g><g><title>RSpace</title><rect fill="#FFFFFF" height="30.3441" style="stroke:#000000;stroke-width:1;" width="10" x="846.111" y="569.8499"/></g><g><title>RSpace</title><rect fill="#FFFFFF" height="30.3441" style="stroke:#000000;stroke-width:1;" width="10" x="846.111" y="913.2911"/></g><path d="M15,97.3441 L15,172.3441 L874,172.3441 L874,107.3441 L864,97.3441 L15,97.3441" fill="#FFF3E0" style="stroke:#000000;stroke-width:1;"/><path d="M864,97.3441 L864,107.3441 L874,107.3441 L864,97.3441" fill="#FFF3E0" style="stroke:#000000;stroke-width:1;"/><text fill="#000000" font-family="'sans-serif'" font-size="12" font-weight="700" lengthAdjust="spacing" textLength="264.2836" x="183.4807" y="115.1722">&#9888; MIGRATION-ERA model (gate translation).</text><text fill="#000000" font-family="'sans-serif'" font-size="12" lengthAdjust="spacing" textLength="243.6405" x="450.8844" y="115.1722">The native W1 path emits NO `for(t &lt;- &#931;&#10214;s&#10215;)`</text><text fill="#000000" font-family="'sans-serif'" font-size="12" lengthAdjust="spacing" textLength="404.475" x="183.4807" y="131.5163">fuel gate &#8212; metering is per-COMM at the reducer (recognition-only; see</text><text fill="#000000" font-family="'sans-serif'" font-size="12" lengthAdjust="spacing" textLength="513.4957" x="183.4807" y="147.8604">diagrams/w1-native-pipeline.mmd, "the optimal combination"). The supply pool is keyed by</text><text fill="#000000" font-family="'sans-serif'" font-size="12" lengthAdjust="spacing" textLength="361.0466" x="183.4807" y="164.2045">funding_sig = Sig::Ground(pk) (&#167;D2.9), not the wire-sig envelope.</text><g class="message" data-entity-1="part1" data-entity-2="part2" data-source-line="63" id="msg1"><polygon fill="#444444" points="262.3397,196.0647,272.3397,200.0647,262.3397,204.0647,266.3397,200.0647" style="stroke:#444444;stroke-width:1;stroke-linejoin:miter;stroke-miterlimit:10;"/><line style="stroke:#444444;stroke-width:1;" x1="38.5542" x2="268.3397" y1="200.0647" y2="200.0647"/><text fill="#000000" font-family="'sans-serif'" font-size="12" font-weight="700" lengthAdjust="spacing" textLength="6.864" x="45.5542" y="194.5487">1</text><text fill="#000000" font-family="'sans-serif'" font-size="12" lengthAdjust="spacing" textLength="205.9215" x="56.4182" y="194.5487">submit Rholang source + signature s</text></g><path d="M159,213.0647 L159,255.0647 L397,255.0647 L397,223.0647 L387,213.0647 L159,213.0647" fill="#EDE7F6" style="stroke:#000000;stroke-width:1;"/><path d="M387,213.0647 L387,223.0647 L397,223.0647 L387,213.0647" fill="#EDE7F6" style="stroke:#000000;stroke-width:1;"/><text fill="#000000" font-family="'sans-serif'" font-size="12" lengthAdjust="spacing" textLength="217.9908" x="165" y="230.8928">parse &#8594; normalize &#8594; annotate P with s</text><text fill="#000000" font-family="'sans-serif'" font-size="12" lengthAdjust="spacing" textLength="204.6841" x="165" y="247.2369">&#8594; build well_reflected metered state</text><g class="message" data-entity-1="part2" data-entity-2="part3" data-source-line="68" id="msg2"><polygon fill="#444444" points="452.4568,295.4411,462.4568,299.4411,452.4568,303.4411,456.4568,299.4411" style="stroke:#444444;stroke-width:1;stroke-linejoin:miter;stroke-miterlimit:10;"/><line style="stroke:#444444;stroke-width:1;stroke-dasharray:2,2;" x1="284.3397" x2="458.4568" y1="299.4411" y2="299.4411"/><text fill="#000000" font-family="'sans-serif'" font-size="12" font-weight="700" lengthAdjust="spacing" textLength="6.864" x="291.3397" y="285.7531">2</text><text fill="#000000" font-family="'sans-serif'" font-size="12" lengthAdjust="spacing" textLength="117.8889" x="302.2037" y="277.581">metered work item =</text><text fill="#000000" font-family="'sans-serif'" font-size="12" lengthAdjust="spacing" textLength="150.2531" x="302.2037" y="293.9251">recursive_metered_gate(K)</text></g><g class="message" data-entity-1="part3" data-entity-2="part4" data-source-line="71" id="msg3"><polygon fill="#444444" points="660.01,355.7853,670.01,359.7853,660.01,363.7853,664.01,359.7853" style="stroke:#444444;stroke-width:1;stroke-linejoin:miter;stroke-miterlimit:10;"/><line style="stroke:#444444;stroke-width:1;" x1="474.4568" x2="666.01" y1="359.7853" y2="359.7853"/><text fill="#000000" font-family="'sans-serif'" font-size="12" font-weight="700" lengthAdjust="spacing" textLength="6.864" x="481.4568" y="354.2692">3</text><text fill="#000000" font-family="'sans-serif'" font-size="12" lengthAdjust="spacing" textLength="167.6892" x="492.3208" y="354.2692">init(initial_tokens = phlo_limit)</text></g><g class="message" data-entity-1="part4" data-entity-2="part3" data-source-line="72" id="msg4"><polygon fill="#444444" points="485.4568,386.1294,475.4568,390.1294,485.4568,394.1294,481.4568,390.1294" style="stroke:#444444;stroke-width:1;stroke-linejoin:miter;stroke-miterlimit:10;"/><line style="stroke:#444444;stroke-width:1;stroke-dasharray:2,2;" x1="479.4568" x2="676.01" y1="390.1294" y2="390.1294"/><text fill="#000000" font-family="'sans-serif'" font-size="12" font-weight="700" lengthAdjust="spacing" textLength="6.864" x="491.4568" y="384.6133">4</text><text fill="#000000" font-family="'sans-serif'" font-size="12" lengthAdjust="spacing" textLength="13.6681" x="502.3208" y="384.6133">ok</text></g><rect fill="#ECEFF1" height="3" style="stroke:#ECEFF1;stroke-width:1;" width="971.5015" x="5" y="419.3014"/><line style="stroke:#000000;stroke-width:0.5;" x1="5" x2="976.5015" y1="419.3014" y2="419.3014"/><line style="stroke:#000000;stroke-width:0.5;" x1="5" x2="976.5015" y1="422.3014" y2="422.3014"/><rect fill="#ECEFF1" height="24.3441" style="stroke:#000000;stroke-width:1;" width="255.8017" x="362.8499" y="408.1294"/><text fill="#1A237E" font-family="'sans-serif'" font-size="12" font-weight="700" lengthAdjust="spacing" textLength="238.6817" x="368.8499" y="424.9575">Stage 1 &#8212; Authorization deposit (cost 0)</text><g class="message" data-entity-1="part3" data-entity-2="part5" data-source-line="75" id="msg5"><polygon fill="#444444" points="834.111,460.8176,844.111,464.8176,834.111,468.8176,838.111,464.8176" style="stroke:#444444;stroke-width:1;stroke-linejoin:miter;stroke-miterlimit:10;"/><line style="stroke:#444444;stroke-width:1;" x1="474.4568" x2="840.111" y1="464.8176" y2="464.8176"/><text fill="#000000" font-family="'sans-serif'" font-size="12" font-weight="700" lengthAdjust="spacing" textLength="6.864" x="481.4568" y="459.3016">5</text><text fill="#000000" font-family="'sans-serif'" font-size="12" lengthAdjust="spacing" textLength="117.1088" x="492.3208" y="459.3016">produce Quote(K)!(0)</text></g><g class="message" data-entity-1="part5" data-entity-2="part3" data-source-line="76" id="msg6"><polygon fill="#444444" points="485.4568,491.1617,475.4568,495.1617,485.4568,499.1617,481.4568,495.1617" style="stroke:#444444;stroke-width:1;stroke-linejoin:miter;stroke-miterlimit:10;"/><line style="stroke:#444444;stroke-width:1;stroke-dasharray:2,2;" x1="479.4568" x2="850.111" y1="495.1617" y2="495.1617"/><text fill="#000000" font-family="'sans-serif'" font-size="12" font-weight="700" lengthAdjust="spacing" textLength="6.864" x="491.4568" y="489.6457">6</text><text fill="#000000" font-family="'sans-serif'" font-size="12" lengthAdjust="spacing" textLength="128.1969" x="502.3208" y="489.6457">stored, pending match</text></g><rect fill="#ECEFF1" height="3" style="stroke:#ECEFF1;stroke-width:1;" width="971.5015" x="5" y="524.3338"/><line style="stroke:#000000;stroke-width:0.5;" x1="5" x2="976.5015" y1="524.3338" y2="524.3338"/><line style="stroke:#000000;stroke-width:0.5;" x1="5" x2="976.5015" y1="527.3338" y2="527.3338"/><rect fill="#ECEFF1" height="24.3441" style="stroke:#000000;stroke-width:1;" width="281.1939" x="350.1538" y="513.1617"/><text fill="#1A237E" font-family="'sans-serif'" font-size="12" font-weight="700" lengthAdjust="spacing" textLength="264.0739" x="356.1538" y="529.9898">Stage 2 &#8212; Metered gate registration (cost 0)</text><g class="message" data-entity-1="part3" data-entity-2="part5" data-source-line="79" id="msg7"><polygon fill="#444444" points="834.111,565.8499,844.111,569.8499,834.111,573.8499,838.111,569.8499" style="stroke:#444444;stroke-width:1;stroke-linejoin:miter;stroke-miterlimit:10;"/><line style="stroke:#444444;stroke-width:1;" x1="474.4568" x2="840.111" y1="569.8499" y2="569.8499"/><text fill="#000000" font-family="'sans-serif'" font-size="12" font-weight="700" lengthAdjust="spacing" textLength="6.864" x="481.4568" y="564.3339">7</text><text fill="#000000" font-family="'sans-serif'" font-size="12" lengthAdjust="spacing" textLength="244.7043" x="492.3208" y="564.3339">consume for(t &#8592; Quote(K)){ resume(K) &#8739; *t }</text></g><g class="message" data-entity-1="part5" data-entity-2="part3" data-source-line="80" id="msg8"><polygon fill="#444444" points="485.4568,596.1941,475.4568,600.1941,485.4568,604.1941,481.4568,600.1941" style="stroke:#444444;stroke-width:1;stroke-linejoin:miter;stroke-miterlimit:10;"/><line style="stroke:#444444;stroke-width:1;stroke-dasharray:2,2;" x1="479.4568" x2="850.111" y1="600.1941" y2="600.1941"/><text fill="#000000" font-family="'sans-serif'" font-size="12" font-weight="700" lengthAdjust="spacing" textLength="6.864" x="491.4568" y="594.678">8</text><text fill="#000000" font-family="'sans-serif'" font-size="12" lengthAdjust="spacing" textLength="84.2646" x="502.3208" y="594.678">stored, waiting</text></g><rect fill="#ECEFF1" height="3" style="stroke:#ECEFF1;stroke-width:1;" width="971.5015" x="5" y="629.3661"/><line style="stroke:#000000;stroke-width:0.5;" x1="5" x2="976.5015" y1="629.3661" y2="629.3661"/><line style="stroke:#000000;stroke-width:0.5;" x1="5" x2="976.5015" y1="632.3661" y2="632.3661"/><rect fill="#ECEFF1" height="24.3441" style="stroke:#000000;stroke-width:1;" width="355.2224" x="313.1395" y="618.1941"/><text fill="#1A237E" font-family="'sans-serif'" font-size="12" font-weight="700" lengthAdjust="spacing" textLength="338.1024" x="319.1395" y="635.0221">Stage 3 &#8212; COMM fires on Quote(K)  (cost = event.weight)</text><path d="M730,657.5382 L730,699.5382 L971,699.5382 L971,667.5382 L961,657.5382 L730,657.5382" fill="#E3F2FD" style="stroke:#000000;stroke-width:1;"/><path d="M961,657.5382 L961,667.5382 L971,667.5382 L961,657.5382" fill="#E3F2FD" style="stroke:#000000;stroke-width:1;"/><text fill="#000000" font-family="'sans-serif'" font-size="12" lengthAdjust="spacing" textLength="210.4561" x="736" y="675.3663">match authorization &#8596; recursive gate</text><text fill="#000000" font-family="'sans-serif'" font-size="12" lengthAdjust="spacing" textLength="220.5015" x="736" y="691.7104">bind t := @0 and release continuation K</text><g class="message" data-entity-1="part5" data-entity-2="part4" data-source-line="87" id="msg9"><line style="stroke:#C62828;stroke-width:1;" x1="678.01" x2="688.01" y1="727.5705" y2="723.5705"/><line style="stroke:#C62828;stroke-width:1;" x1="678.01" x2="688.01" y1="727.5705" y2="731.5705"/><line style="stroke:#C62828;stroke-width:1;stroke-dasharray:2,2;" x1="677.01" x2="850.111" y1="727.5705" y2="727.5705"/><text fill="#000000" font-family="'sans-serif'" font-size="12" font-weight="700" lengthAdjust="spacing" textLength="6.864" x="694.01" y="722.0545">9</text><text fill="#000000" font-family="'sans-serif'" font-size="12" lengthAdjust="spacing" textLength="139.237" x="704.8741" y="722.0545">reserve_canonical(event)</text></g><g class="message" data-entity-1="part5" data-entity-2="part3" data-source-line="88" id="msg10"><polygon fill="#444444" points="485.4568,753.9146,475.4568,757.9146,485.4568,761.9146,481.4568,757.9146" style="stroke:#444444;stroke-width:1;stroke-linejoin:miter;stroke-miterlimit:10;"/><line style="stroke:#444444;stroke-width:1;" x1="479.4568" x2="850.111" y1="757.9146" y2="757.9146"/><text fill="#000000" font-family="'sans-serif'" font-size="12" font-weight="700" lengthAdjust="spacing" textLength="13.7281" x="491.4568" y="752.3986">10</text><text fill="#000000" font-family="'sans-serif'" font-size="12" lengthAdjust="spacing" textLength="152.9396" x="509.1849" y="752.3986">match &#8594; continuation K &#8739; 0</text></g><rect fill="#ECEFF1" height="3" style="stroke:#ECEFF1;stroke-width:1;" width="971.5015" x="5" y="787.0867"/><line style="stroke:#000000;stroke-width:0.5;" x1="5" x2="976.5015" y1="787.0867" y2="787.0867"/><line style="stroke:#000000;stroke-width:0.5;" x1="5" x2="976.5015" y1="790.0867" y2="790.0867"/><rect fill="#ECEFF1" height="24.3441" style="stroke:#000000;stroke-width:1;" width="336.6703" x="322.4156" y="775.9146"/><text fill="#1A237E" font-family="'sans-serif'" font-size="12" font-weight="700" lengthAdjust="spacing" textLength="319.5503" x="328.4156" y="792.7427">Stage 4 &#8212; Recursively metered continuation resumes</text><path d="M317,815.2587 L317,841.2587 L621,841.2587 L621,825.2587 L611,815.2587 L317,815.2587" fill="#FFF8E1" style="stroke:#000000;stroke-width:1;"/><path d="M611,815.2587 L611,825.2587 L621,825.2587 L611,815.2587" fill="#FFF8E1" style="stroke:#000000;stroke-width:1;"/><text fill="#000000" font-family="'sans-serif'" font-size="12" lengthAdjust="spacing" textLength="283.8141" x="323" y="833.0868">K is a well_reflected image of the source successor</text><rect fill="#ECEFF1" height="3" style="stroke:#ECEFF1;stroke-width:1;" width="971.5015" x="5" y="867.7749"/><line style="stroke:#000000;stroke-width:0.5;" x1="5" x2="976.5015" y1="867.7749" y2="867.7749"/><line style="stroke:#000000;stroke-width:0.5;" x1="5" x2="976.5015" y1="870.7749" y2="870.7749"/><rect fill="#ECEFF1" height="24.3441" style="stroke:#000000;stroke-width:1;" width="257.4338" x="362.0339" y="856.6029"/><text fill="#1A237E" font-family="'sans-serif'" font-size="12" font-weight="700" lengthAdjust="spacing" textLength="240.3138" x="368.0339" y="873.4309">Stage 5 &#8212; Next ready source step, if any</text><g class="message" data-entity-1="part3" data-entity-2="part5" data-source-line="94" id="msg11"><polygon fill="#444444" points="834.111,909.2911,844.111,913.2911,834.111,917.2911,838.111,913.2911" style="stroke:#444444;stroke-width:1;stroke-linejoin:miter;stroke-miterlimit:10;"/><line style="stroke:#444444;stroke-width:1;" x1="474.4568" x2="840.111" y1="913.2911" y2="913.2911"/><text fill="#000000" font-family="'sans-serif'" font-size="12" font-weight="700" lengthAdjust="spacing" textLength="13.7281" x="481.4568" y="907.7751">11</text><text fill="#000000" font-family="'sans-serif'" font-size="12" lengthAdjust="spacing" textLength="228.0616" x="499.1849" y="907.7751">register next recursive_metered_gate(K')</text></g><g class="message" data-entity-1="part5" data-entity-2="part3" data-source-line="95" id="msg12"><polygon fill="#444444" points="485.4568,939.6352,475.4568,943.6352,485.4568,947.6352,481.4568,943.6352" style="stroke:#444444;stroke-width:1;stroke-linejoin:miter;stroke-miterlimit:10;"/><line style="stroke:#444444;stroke-width:1;stroke-dasharray:2,2;" x1="479.4568" x2="850.111" y1="943.6352" y2="943.6352"/><text fill="#000000" font-family="'sans-serif'" font-size="12" font-weight="700" lengthAdjust="spacing" textLength="13.7281" x="491.4568" y="938.1192">12</text><text fill="#000000" font-family="'sans-serif'" font-size="12" lengthAdjust="spacing" textLength="199.3574" x="509.1849" y="938.1192">pending or matched independently</text></g><g class="message" data-entity-1="part3" data-entity-2="part4" data-source-line="97" id="msg13"><polygon fill="#444444" points="660.01,969.9793,670.01,973.9793,660.01,977.9793,664.01,973.9793" style="stroke:#444444;stroke-width:1;stroke-linejoin:miter;stroke-miterlimit:10;"/><line style="stroke:#444444;stroke-width:1;" x1="474.4568" x2="666.01" y1="973.9793" y2="973.9793"/><text fill="#000000" font-family="'sans-serif'" font-size="12" font-weight="700" lengthAdjust="spacing" textLength="13.7281" x="481.4568" y="968.4633">13</text><text fill="#000000" font-family="'sans-serif'" font-size="12" lengthAdjust="spacing" textLength="61.3804" x="499.1849" y="968.4633">total_cost()</text></g><g class="message" data-entity-1="part4" data-entity-2="part3" data-source-line="98" id="msg14"><polygon fill="#444444" points="485.4568,1000.3234,475.4568,1004.3234,485.4568,1008.3234,481.4568,1004.3234" style="stroke:#444444;stroke-width:1;stroke-linejoin:miter;stroke-miterlimit:10;"/><line style="stroke:#444444;stroke-width:1;stroke-dasharray:2,2;" x1="479.4568" x2="676.01" y1="1004.3234" y2="1004.3234"/><text fill="#000000" font-family="'sans-serif'" font-size="12" font-weight="700" lengthAdjust="spacing" textLength="13.7281" x="491.4568" y="998.8074">14</text><text fill="#000000" font-family="'sans-serif'" font-size="12" lengthAdjust="spacing" textLength="155.0771" x="509.1849" y="998.8074">consumed = &#931; event.weight</text></g><g class="message" data-entity-1="part3" data-entity-2="part1" data-source-line="99" id="msg15"><polygon fill="#444444" points="49.5542,1030.6675,39.5542,1034.6675,49.5542,1038.6675,45.5542,1034.6675" style="stroke:#444444;stroke-width:1;stroke-linejoin:miter;stroke-miterlimit:10;"/><line style="stroke:#444444;stroke-width:1;stroke-dasharray:2,2;" x1="43.5542" x2="468.4568" y1="1034.6675" y2="1034.6675"/><text fill="#000000" font-family="'sans-serif'" font-size="12" font-weight="700" lengthAdjust="spacing" textLength="13.7281" x="55.5542" y="1029.1515">15</text><text fill="#000000" font-family="'sans-serif'" font-size="12" lengthAdjust="spacing" textLength="283.1541" x="73.2823" y="1029.1515">deploy result, cost = consumed source-token units</text></g><path d="M15,1047.6675 L15,1122.6675 L874,1122.6675 L874,1057.6675 L864,1047.6675 L15,1047.6675" fill="#E8F5E9" style="stroke:#000000;stroke-width:1;"/><path d="M864,1047.6675 L864,1057.6675 L874,1057.6675 L864,1047.6675" fill="#E8F5E9" style="stroke:#000000;stroke-width:1;"/><text fill="#000000" font-family="'sans-serif'" font-size="12" lengthAdjust="spacing" textLength="278.606" x="269.2453" y="1065.4956">The sole cost event is Stage 3 (highlighted in red).</text><text fill="#000000" font-family="'sans-serif'" font-size="12" lengthAdjust="spacing" textLength="330.5065" x="269.2453" y="1081.8397">All other stages &#8212; authorization deposit, gate registration,</text><text fill="#000000" font-family="'sans-serif'" font-size="12" lengthAdjust="spacing" textLength="341.9665" x="269.2453" y="1098.1839">continuation scheduling, and pending registration &#8212; are not</text><text fill="#000000" font-family="'sans-serif'" font-size="12" lengthAdjust="spacing" textLength="315.3264" x="269.2453" y="1114.528">billable unless they fire another recursive metered gate.</text><?plantuml-src dLNDRXit4BxpAIRoePAjTMt9SHot2ggVbHiaTbB5G0zDeL2x8uaGHMv9hbmb2D1Jq6DHvDHB2WHetgCFa8VGatJ8bIp9SI_cmPQq7sU--UQRsNjkZ5E4J7AX6BCJeJ9k-1Gi_fAZIX3UC82cCVgghQKsi7LsZi8Xn5CnnAT2OKkR5CqQkdCS3Y6US-D48ZAkt1PefnuE8Iwq--B-Teo0uCbaP7IkqeqitMxt93uan1azoMu9iiuI4DyZ9qHNAtUDsgc5GuYEc0bw-aMYdRWTTxk7QyJM_H3Zi5chFuZPsmqXKnpoN3gFlU2aTCboPIEBHWnBjyDUYDS8XpN6UEwqogS3DFGvSTTvIXtCf9wZAS4T3xVGAOGxQTTR9onRDmTAv-Y8dHf19ZAKrDINgapT8ygmHoqmKow9eV_oGeoQIcd7YLkbj1N-qaVl7BMFuXlHuncNkRzGkZltUDdqkDsgRqU_r1DKhJmTeIlTDNhxt4TldyJ7xOSivOuFkCMWU-z5nXEyi-eXUYzmRxKwSRV568c7m1EZhGqkhiS7R7TtyTVVSFxuhDUyVFpi8efxJPZg52MKHvpWpf2397T2gyh-xYvSZX4KVPqX_7W86NTZmAbm5YwUmQkXDcK7tqRm-UFYmpzsyU5JvHKRvXGin5hyzXwcgtuB2ncQgFti_1ou0zeCO33D4-frsM2YHqhuf95MSluDRGXagU0ZSg_z-kemAYX4AzFiJwTf5Ke-YCwS8DD0egS3eGBnKcK_yBPvbiavP5fBdtw2SqnXC2U6AYLAVIj6qF0-Epqz2xDOpYOLAF_xgLFRVrYf0kaNU5u9Wv47evgXr1dkCrIfVuoCTI1wH8RSsuDJIZWWRQ0trf9JoLRdXfRS7j1TOfORebGqHS-ex4iQ-axye7liNKOcMBpxas8k9o1yuuN_4PuJ1rBUCl_h81SoXIkKiczmA35nL5RGcVvRZr_JkuI8wCK5lHNcIfi928TJQBnKf7rkB8dRNpxk-zwLdrHOYhGNnCpdlsGizdMIUqCaGSqg-p-2oxxpOs59oMmiTLyAag3225baZYB2wmbZ3PBQyH5jds2CPkx6seZNeMEqeJ9jIRfoegs3Wmeq6aN6Nf4mCzfx1Nx8TI1thtnGORtD59Qc7iaK6ORcmfIxPBoHjHQodYyb2FuqE1AM31yO_5_cH2kRqsejlBvuzySrXyeRYk2VqMTO_FuHTXsylPtK5IUfr6Y3JZtG2TCm97jP80ghmB0aqm2SeNBxLoX6OnUOhTtJ8_VKkxLkXuLAWM_fkNZt7gux6wfbD1qfE3Xjm7S7vAoKdalqouSg979vSV79sZjKoKyxxUFQIUtav-XHQFwfhnWDcINXIYkHS5aE74CpVDcdXV31ljk1WqG76n8S1GbwAvOqgIk3RbqiDBRRrSUhrp8bVEA7czyS25eAb4CFmmGl9z7cIOBMQhF1udvWSO6_Eih4q_arrc5M1J4agUOtFL4OXsYeujhj4_JL3OUkd4clsg2H9wd8-FGpAIZdDsRCqUZBlZT2-UOuBJsPaaC-VzmoYGz1k4w1IyEhF2WeNHMMfhg-NLGQXVc5dARPiWs9EzNWiPFk_VWX2-jKIonYX8nUzPMNosDABZs1K9JVx9LzrfGIDCbl_5OQKGkzqloskQz-EP1LjkK2w_NAQVUFgi6yAp6tPZZ4forBHP3TfUG3OfmhIJttDfY7KQFh1QdrV4mtjiB6RlyF?></g></svg>