<?plantuml 1.2026.2?><svg xmlns="http://www.w3.org/2000/svg" xmlns:xlink="http://www.w3.org/1999/xlink" contentStyleType="text/css" data-diagram-type="SEQUENCE" height="1134px" preserveAspectRatio="none" style="width:983px;height:1134px;background:#FFFFFF;" version="1.1" viewBox="0 0 983 1134" width="983px" zoomAndPan="magnify"><defs/><g><g><title>Metering pipeline</title><rect fill="#FFFFFF" height="129.3765" style="stroke:#000000;stroke-width:1;" width="10" x="274.3397" y="114.6882"/></g><g><title>Evaluator</title><rect fill="#FFFFFF" height="735.2264" style="stroke:#000000;stroke-width:1;" width="10" x="464.4568" y="214.0647"/></g><g><title>TokenBudget</title><rect fill="#FFFFFF" height="30.3441" style="stroke:#000000;stroke-width:1;" width="10" x="672.01" y="274.4088"/></g><g><title>TokenBudget</title><rect fill="#FFFFFF" height="30.3441" style="stroke:#000000;stroke-width:1;" width="10" x="672.01" y="888.6029"/></g><g><title>RSpace</title><rect fill="#FFFFFF" height="30.3441" style="stroke:#000000;stroke-width:1;" width="10" x="846.111" y="379.4411"/></g><g><title>RSpace</title><rect fill="#FFFFFF" height="30.3441" style="stroke:#000000;stroke-width:1;" width="10" x="846.111" y="484.4735"/></g><g><title>RSpace</title><rect fill="#FFFFFF" height="30.3441" style="stroke:#000000;stroke-width:1;" width="10" x="846.111" y="827.9146"/></g><g class="participant-lifeline" data-entity-uid="part1" data-qualified-name="D" id="part1-lifeline"><g><title>Deployer</title><rect fill="#000000" fill-opacity="0.00000" height="970.3234" width="8" x="34.5542" y="82.3441"/><line style="stroke:#666666;stroke-width:1;stroke-dasharray:5,5;" x1="38" x2="38" y1="82.3441" y2="1052.6675"/></g></g><g class="participant-lifeline" data-entity-uid="part2" data-qualified-name="T" id="part2-lifeline"><g><title>Metering pipeline</title><rect fill="#000000" fill-opacity="0.00000" height="970.3234" width="8" x="275.3397" y="82.3441"/><line style="stroke:#666666;stroke-width:1;stroke-dasharray:5,5;" x1="278.7849" x2="278.7849" y1="82.3441" y2="1052.6675"/></g></g><g class="participant-lifeline" data-entity-uid="part3" data-qualified-name="E" id="part3-lifeline"><g><title>Evaluator</title><rect fill="#000000" fill-opacity="0.00000" height="970.3234" width="8" x="465.4568" y="82.3441"/><line style="stroke:#666666;stroke-width:1;stroke-dasharray:5,5;" x1="468.8106" x2="468.8106" y1="82.3441" y2="1052.6675"/></g></g><g class="participant-lifeline" data-entity-uid="part4" data-qualified-name="CM" id="part4-lifeline"><g><title>TokenBudget</title><rect fill="#000000" fill-opacity="0.00000" height="970.3234" width="8" x="673.01" y="82.3441"/><line style="stroke:#666666;stroke-width:1;stroke-dasharray:5,5;" x1="676.2098" x2="676.2098" y1="82.3441" y2="1052.6675"/></g></g><g class="participant-lifeline" data-entity-uid="part5" data-qualified-name="R" id="part5-lifeline"><g><title>RSpace</title><rect fill="#000000" fill-opacity="0.00000" height="970.3234" width="8" x="847.111" y="82.3441"/><line style="stroke:#666666;stroke-width:1;stroke-dasharray:5,5;" x1="850.7649" x2="850.7649" y1="82.3441" y2="1052.6675"/></g></g><g class="participant participant-head" data-entity-uid="part1" data-qualified-name="D" id="part1-head"><text fill="#000000" font-family="'sans-serif'" font-size="12" lengthAdjust="spacing" textLength="51.1084" x="10" y="78.8281">Deployer</text><ellipse cx="38.5542" cy="14" fill="#F8C3B8" rx="8" ry="8" style="stroke:#000000;stroke-width:1;"/><path d="M38.5542,22 L38.5542,49 M25.5542,30 L51.5542,30 M38.5542,49 L25.5542,64 M38.5542,49 L51.5542,64" fill="none" style="stroke:#000000;stroke-width:1;"/></g><g class="participant participant-tail" data-entity-uid="part1" data-qualified-name="D" id="part1-tail"><text fill="#000000" font-family="'sans-serif'" font-size="12" lengthAdjust="spacing" textLength="51.1084" x="10" y="1064.4956">Deployer</text><ellipse cx="38.5542" cy="1077.0117" fill="#F8C3B8" rx="8" ry="8" style="stroke:#000000;stroke-width:1;"/><path d="M38.5542,1085.0117 L38.5542,1112.0117 M25.5542,1093.0117 L51.5542,1093.0117 M38.5542,1112.0117 L25.5542,1127.0117 M38.5542,1112.0117 L51.5542,1127.0117" fill="none" style="stroke:#000000;stroke-width:1;"/></g><g class="participant participant-head" data-entity-uid="part2" data-qualified-name="T" id="part2-head"><rect fill="#D4C4E8" height="46.6882" rx="2.5" ry="2.5" style="stroke:#333333;stroke-width:1;" width="221.1095" x="168.7849" y="34.6559"/><text fill="#000000" font-family="'sans-serif'" font-size="12" lengthAdjust="spacing" textLength="99.7207" x="229.4793" y="54.484">Metering pipeline</text><text fill="#000000" font-family="'sans-serif'" font-size="12" lengthAdjust="spacing" textLength="207.1095" x="175.7849" y="70.8281">(Parser + Normalizer + SigAnnotator)</text></g><g class="participant participant-tail" data-entity-uid="part2" data-qualified-name="T" id="part2-tail"><rect fill="#D4C4E8" height="46.6882" rx="2.5" ry="2.5" style="stroke:#333333;stroke-width:1;" width="221.1095" x="168.7849" y="1051.6675"/><text fill="#000000" font-family="'sans-serif'" font-size="12" lengthAdjust="spacing" textLength="99.7207" x="229.4793" y="1071.4956">Metering pipeline</text><text fill="#000000" font-family="'sans-serif'" font-size="12" lengthAdjust="spacing" textLength="207.1095" x="175.7849" y="1087.8397">(Parser + Normalizer + SigAnnotator)</text></g><g class="participant participant-head" data-entity-uid="part3" data-qualified-name="E" id="part3-head"><rect fill="#FFECB3" height="30.3441" rx="2.5" ry="2.5" style="stroke:#333333;stroke-width:1;" width="67.2924" x="435.8106" y="51"/><text fill="#000000" font-family="'sans-serif'" font-size="12" lengthAdjust="spacing" textLength="53.2924" x="442.8106" y="70.8281">Evaluator</text></g><g class="participant participant-tail" data-entity-uid="part3" data-qualified-name="E" id="part3-tail"><rect fill="#FFECB3" height="30.3441" rx="2.5" ry="2.5" style="stroke:#333333;stroke-width:1;" width="67.2924" x="435.8106" y="1051.6675"/><text fill="#000000" font-family="'sans-serif'" font-size="12" lengthAdjust="spacing" textLength="53.2924" x="442.8106" y="1071.4956">Evaluator</text></g><g class="participant participant-head" data-entity-uid="part4" data-qualified-name="CM" id="part4-head"><rect fill="#C8E6C9" height="30.3441" rx="2.5" ry="2.5" style="stroke:#333333;stroke-width:1;" width="89.6005" x="632.2098" y="51"/><text fill="#000000" font-family="'sans-serif'" font-size="12" lengthAdjust="spacing" textLength="75.6005" x="639.2098" y="70.8281">TokenBudget</text></g><g class="participant participant-tail" data-entity-uid="part4" data-qualified-name="CM" id="part4-tail"><rect fill="#C8E6C9" height="30.3441" rx="2.5" ry="2.5" style="stroke:#333333;stroke-width:1;" width="89.6005" x="632.2098" y="1051.6675"/><text fill="#000000" font-family="'sans-serif'" font-size="12" lengthAdjust="spacing" textLength="75.6005" x="639.2098" y="1071.4956">TokenBudget</text></g><g class="participant participant-head" data-entity-uid="part5" data-qualified-name="R" id="part5-head"><text fill="#000000" font-family="'sans-serif'" font-size="12" lengthAdjust="spacing" textLength="40.6923" x="827.7649" y="78.8281">RSpace</text><path d="M833.111,30 C833.111,20 851.111,20 851.111,20 C851.111,20 869.111,20 869.111,30 L869.111,56 C869.111,66 851.111,66 851.111,66 C851.111,66 833.111,66 833.111,56 L833.111,30" fill="#BBDEFB" style="stroke:#000000;stroke-width:1;"/><path d="M833.111,30 C833.111,40 851.111,40 851.111,40 C851.111,40 869.111,40 869.111,30" fill="none" style="stroke:#000000;stroke-width:1;"/></g><g class="participant participant-tail" data-entity-uid="part5" data-qualified-name="R" id="part5-tail"><text fill="#000000" font-family="'sans-serif'" font-size="12" lengthAdjust="spacing" textLength="40.6923" x="827.7649" y="1064.4956">RSpace</text><path d="M833.111,1078.0117 C833.111,1068.0117 851.111,1068.0117 851.111,1068.0117 C851.111,1068.0117 869.111,1068.0117 869.111,1078.0117 L869.111,1104.0117 C869.111,1114.0117 851.111,1114.0117 851.111,1114.0117 C851.111,1114.0117 833.111,1114.0117 833.111,1104.0117 L833.111,1078.0117" fill="#BBDEFB" style="stroke:#000000;stroke-width:1;"/><path d="M833.111,1078.0117 C833.111,1088.0117 851.111,1088.0117 851.111,1088.0117 C851.111,1088.0117 869.111,1088.0117 869.111,1078.0117" fill="none" style="stroke:#000000;stroke-width:1;"/></g><g><title>Metering pipeline</title><rect fill="#FFFFFF" height="129.3765" style="stroke:#000000;stroke-width:1;" width="10" x="274.3397" y="114.6882"/></g><g><title>Evaluator</title><rect fill="#FFFFFF" height="735.2264" style="stroke:#000000;stroke-width:1;" width="10" x="464.4568" y="214.0647"/></g><g><title>TokenBudget</title><rect fill="#FFFFFF" height="30.3441" style="stroke:#000000;stroke-width:1;" width="10" x="672.01" y="274.4088"/></g><g><title>TokenBudget</title><rect fill="#FFFFFF" height="30.3441" style="stroke:#000000;stroke-width:1;" width="10" x="672.01" y="888.6029"/></g><g><title>RSpace</title><rect fill="#FFFFFF" height="30.3441" style="stroke:#000000;stroke-width:1;" width="10" x="846.111" y="379.4411"/></g><g><title>RSpace</title><rect fill="#FFFFFF" height="30.3441" style="stroke:#000000;stroke-width:1;" width="10" x="846.111" y="484.4735"/></g><g><title>RSpace</title><rect fill="#FFFFFF" height="30.3441" style="stroke:#000000;stroke-width:1;" width="10" x="846.111" y="827.9146"/></g><g class="message" data-entity-1="part1" data-entity-2="part2" id="msg1"><polygon fill="#444444" points="262.3397,110.6882,272.3397,114.6882,262.3397,118.6882,266.3397,114.6882" style="stroke:#444444;stroke-width:1;"/><line style="stroke:#444444;stroke-width:1;" x1="38.5542" x2="268.3397" y1="114.6882" y2="114.6882"/><text fill="#000000" font-family="'sans-serif'" font-size="12" font-weight="bold" lengthAdjust="spacing" textLength="6.864" x="45.5542" y="109.1722">1</text><text fill="#000000" font-family="'sans-serif'" font-size="12" lengthAdjust="spacing" textLength="205.9215" x="56.4182" y="109.1722">submit Rholang source + signature s</text></g><path d="M159,127.6882 L159,169.6882 L397,169.6882 L397,137.6882 L387,127.6882 L159,127.6882" fill="#EDE7F6" style="stroke:#000000;stroke-width:1;"/><path d="M387,127.6882 L387,137.6882 L397,137.6882 L387,127.6882" fill="#EDE7F6" style="stroke:#000000;stroke-width:1;"/><text fill="#000000" font-family="'sans-serif'" font-size="12" lengthAdjust="spacing" textLength="217.9908" x="165" y="145.5163">parse &#8594; normalize &#8594; annotate P with s</text><text fill="#000000" font-family="'sans-serif'" font-size="12" lengthAdjust="spacing" textLength="204.6841" x="165" y="161.8604">&#8594; build well_reflected metered state</text><g class="message" data-entity-1="part2" data-entity-2="part3" id="msg2"><polygon fill="#444444" points="452.4568,210.0647,462.4568,214.0647,452.4568,218.0647,456.4568,214.0647" style="stroke:#444444;stroke-width:1;"/><line style="stroke:#444444;stroke-width:1;stroke-dasharray:2,2;" x1="284.3397" x2="458.4568" y1="214.0647" y2="214.0647"/><text fill="#000000" font-family="'sans-serif'" font-size="12" font-weight="bold" lengthAdjust="spacing" textLength="6.864" x="291.3397" y="200.3766">2</text><text fill="#000000" font-family="'sans-serif'" font-size="12" lengthAdjust="spacing" textLength="117.8889" x="302.2037" y="192.2045">metered work item =</text><text fill="#000000" font-family="'sans-serif'" font-size="12" lengthAdjust="spacing" textLength="150.2531" x="302.2037" y="208.5487">recursive_metered_gate(K)</text></g><g class="message" data-entity-1="part3" data-entity-2="part4" id="msg3"><polygon fill="#444444" points="660.01,270.4088,670.01,274.4088,660.01,278.4088,664.01,274.4088" style="stroke:#444444;stroke-width:1;"/><line style="stroke:#444444;stroke-width:1;" x1="474.4568" x2="666.01" y1="274.4088" y2="274.4088"/><text fill="#000000" font-family="'sans-serif'" font-size="12" font-weight="bold" lengthAdjust="spacing" textLength="6.864" x="481.4568" y="268.8928">3</text><text fill="#000000" font-family="'sans-serif'" font-size="12" lengthAdjust="spacing" textLength="167.6892" x="492.3208" y="268.8928">init(initial_tokens = phlo_limit)</text></g><g class="message" data-entity-1="part4" data-entity-2="part3" id="msg4"><polygon fill="#444444" points="485.4568,300.7529,475.4568,304.7529,485.4568,308.7529,481.4568,304.7529" style="stroke:#444444;stroke-width:1;"/><line style="stroke:#444444;stroke-width:1;stroke-dasharray:2,2;" x1="479.4568" x2="676.01" y1="304.7529" y2="304.7529"/><text fill="#000000" font-family="'sans-serif'" font-size="12" font-weight="bold" lengthAdjust="spacing" textLength="6.864" x="491.4568" y="299.2369">4</text><text fill="#000000" font-family="'sans-serif'" font-size="12" lengthAdjust="spacing" textLength="13.6681" x="502.3208" y="299.2369">ok</text></g><rect fill="#ECEFF1" height="3" style="stroke:#ECEFF1;stroke-width:1;" width="971.5015" x="5" y="333.925"/><line style="stroke:#000000;stroke-width:0.5;" x1="5" x2="976.5015" y1="333.925" y2="333.925"/><line style="stroke:#000000;stroke-width:0.5;" x1="5" x2="976.5015" y1="336.925" y2="336.925"/><rect fill="#ECEFF1" height="24.3441" style="stroke:#000000;stroke-width:1;" width="255.8017" x="362.8499" y="322.7529"/><text fill="#1A237E" font-family="'sans-serif'" font-size="12" font-weight="bold" lengthAdjust="spacing" textLength="238.6817" x="368.8499" y="339.581">Stage 1 &#8212; Authorization deposit (cost 0)</text><g class="message" data-entity-1="part3" data-entity-2="part5" id="msg5"><polygon fill="#444444" points="834.111,375.4411,844.111,379.4411,834.111,383.4411,838.111,379.4411" style="stroke:#444444;stroke-width:1;"/><line style="stroke:#444444;stroke-width:1;" x1="474.4568" x2="840.111" y1="379.4411" y2="379.4411"/><text fill="#000000" font-family="'sans-serif'" font-size="12" font-weight="bold" lengthAdjust="spacing" textLength="6.864" x="481.4568" y="373.9251">5</text><text fill="#000000" font-family="'sans-serif'" font-size="12" lengthAdjust="spacing" textLength="117.1088" x="492.3208" y="373.9251">produce Quote(K)!(0)</text></g><g class="message" data-entity-1="part5" data-entity-2="part3" id="msg6"><polygon fill="#444444" points="485.4568,405.7853,475.4568,409.7853,485.4568,413.7853,481.4568,409.7853" style="stroke:#444444;stroke-width:1;"/><line style="stroke:#444444;stroke-width:1;stroke-dasharray:2,2;" x1="479.4568" x2="850.111" y1="409.7853" y2="409.7853"/><text fill="#000000" font-family="'sans-serif'" font-size="12" font-weight="bold" lengthAdjust="spacing" textLength="6.864" x="491.4568" y="404.2692">6</text><text fill="#000000" font-family="'sans-serif'" font-size="12" lengthAdjust="spacing" textLength="128.1969" x="502.3208" y="404.2692">stored, pending match</text></g><rect fill="#ECEFF1" height="3" style="stroke:#ECEFF1;stroke-width:1;" width="971.5015" x="5" y="438.9573"/><line style="stroke:#000000;stroke-width:0.5;" x1="5" x2="976.5015" y1="438.9573" y2="438.9573"/><line style="stroke:#000000;stroke-width:0.5;" x1="5" x2="976.5015" y1="441.9573" y2="441.9573"/><rect fill="#ECEFF1" height="24.3441" style="stroke:#000000;stroke-width:1;" width="281.1939" x="350.1538" y="427.7853"/><text fill="#1A237E" font-family="'sans-serif'" font-size="12" font-weight="bold" lengthAdjust="spacing" textLength="264.0739" x="356.1538" y="444.6133">Stage 2 &#8212; Metered gate registration (cost 0)</text><g class="message" data-entity-1="part3" data-entity-2="part5" id="msg7"><polygon fill="#444444" points="834.111,480.4735,844.111,484.4735,834.111,488.4735,838.111,484.4735" style="stroke:#444444;stroke-width:1;"/><line style="stroke:#444444;stroke-width:1;" x1="474.4568" x2="840.111" y1="484.4735" y2="484.4735"/><text fill="#000000" font-family="'sans-serif'" font-size="12" font-weight="bold" lengthAdjust="spacing" textLength="6.864" x="481.4568" y="478.9575">7</text><text fill="#000000" font-family="'sans-serif'" font-size="12" lengthAdjust="spacing" textLength="244.7043" x="492.3208" y="478.9575">consume for(t &#8592; Quote(K)){ resume(K) &#8739; *t }</text></g><g class="message" data-entity-1="part5" data-entity-2="part3" id="msg8"><polygon fill="#444444" points="485.4568,510.8176,475.4568,514.8176,485.4568,518.8176,481.4568,514.8176" style="stroke:#444444;stroke-width:1;"/><line style="stroke:#444444;stroke-width:1;stroke-dasharray:2,2;" x1="479.4568" x2="850.111" y1="514.8176" y2="514.8176"/><text fill="#000000" font-family="'sans-serif'" font-size="12" font-weight="bold" lengthAdjust="spacing" textLength="6.864" x="491.4568" y="509.3016">8</text><text fill="#000000" font-family="'sans-serif'" font-size="12" lengthAdjust="spacing" textLength="84.2646" x="502.3208" y="509.3016">stored, waiting</text></g><rect fill="#ECEFF1" height="3" style="stroke:#ECEFF1;stroke-width:1;" width="971.5015" x="5" y="543.9897"/><line style="stroke:#000000;stroke-width:0.5;" x1="5" x2="976.5015" y1="543.9897" y2="543.9897"/><line style="stroke:#000000;stroke-width:0.5;" x1="5" x2="976.5015" y1="546.9897" y2="546.9897"/><rect fill="#ECEFF1" height="24.3441" style="stroke:#000000;stroke-width:1;" width="355.2224" x="313.1395" y="532.8176"/><text fill="#1A237E" font-family="'sans-serif'" font-size="12" font-weight="bold" lengthAdjust="spacing" textLength="338.1024" x="319.1395" y="549.6457">Stage 3 &#8212; COMM fires on Quote(K)  (cost = event.weight)</text><path d="M730,572.1617 L730,614.1617 L971,614.1617 L971,582.1617 L961,572.1617 L730,572.1617" fill="#E3F2FD" style="stroke:#000000;stroke-width:1;"/><path d="M961,572.1617 L961,582.1617 L971,582.1617 L961,572.1617" fill="#E3F2FD" style="stroke:#000000;stroke-width:1;"/><text fill="#000000" font-family="'sans-serif'" font-size="12" lengthAdjust="spacing" textLength="210.4561" x="736" y="589.9898">match authorization &#8596; recursive gate</text><text fill="#000000" font-family="'sans-serif'" font-size="12" lengthAdjust="spacing" textLength="220.5015" x="736" y="606.3339">bind t := @0 and release continuation K</text><g class="message" data-entity-1="part5" data-entity-2="part4" id="msg9"><line style="stroke:#C62828;stroke-width:1;" x1="678.01" x2="688.01" y1="642.1941" y2="638.1941"/><line style="stroke:#C62828;stroke-width:1;" x1="678.01" x2="688.01" y1="642.1941" y2="646.1941"/><line style="stroke:#C62828;stroke-width:1;stroke-dasharray:2,2;" x1="677.01" x2="850.111" y1="642.1941" y2="642.1941"/><text fill="#000000" font-family="'sans-serif'" font-size="12" font-weight="bold" lengthAdjust="spacing" textLength="6.864" x="694.01" y="636.678">9</text><text fill="#000000" font-family="'sans-serif'" font-size="12" lengthAdjust="spacing" textLength="139.237" x="704.8741" y="636.678">reserve_canonical(event)</text></g><g class="message" data-entity-1="part5" data-entity-2="part3" id="msg10"><polygon fill="#444444" points="485.4568,668.5382,475.4568,672.5382,485.4568,676.5382,481.4568,672.5382" style="stroke:#444444;stroke-width:1;"/><line style="stroke:#444444;stroke-width:1;" x1="479.4568" x2="850.111" y1="672.5382" y2="672.5382"/><text fill="#000000" font-family="'sans-serif'" font-size="12" font-weight="bold" lengthAdjust="spacing" textLength="13.7281" x="491.4568" y="667.0221">10</text><text fill="#000000" font-family="'sans-serif'" font-size="12" lengthAdjust="spacing" textLength="152.9396" x="509.1849" y="667.0221">match &#8594; continuation K &#8739; 0</text></g><rect fill="#ECEFF1" height="3" style="stroke:#ECEFF1;stroke-width:1;" width="971.5015" x="5" y="701.7102"/><line style="stroke:#000000;stroke-width:0.5;" x1="5" x2="976.5015" y1="701.7102" y2="701.7102"/><line style="stroke:#000000;stroke-width:0.5;" x1="5" x2="976.5015" y1="704.7102" y2="704.7102"/><rect fill="#ECEFF1" height="24.3441" style="stroke:#000000;stroke-width:1;" width="336.6703" x="322.4156" y="690.5382"/><text fill="#1A237E" font-family="'sans-serif'" font-size="12" font-weight="bold" lengthAdjust="spacing" textLength="319.5503" x="328.4156" y="707.3663">Stage 4 &#8212; Recursively metered continuation resumes</text><path d="M317,729.8823 L317,755.8823 L621,755.8823 L621,739.8823 L611,729.8823 L317,729.8823" fill="#FFF8E1" style="stroke:#000000;stroke-width:1;"/><path d="M611,729.8823 L611,739.8823 L621,739.8823 L611,729.8823" fill="#FFF8E1" style="stroke:#000000;stroke-width:1;"/><text fill="#000000" font-family="'sans-serif'" font-size="12" lengthAdjust="spacing" textLength="283.8141" x="323" y="747.7104">K is a well_reflected image of the source successor</text><rect fill="#ECEFF1" height="3" style="stroke:#ECEFF1;stroke-width:1;" width="971.5015" x="5" y="782.3985"/><line style="stroke:#000000;stroke-width:0.5;" x1="5" x2="976.5015" y1="782.3985" y2="782.3985"/><line style="stroke:#000000;stroke-width:0.5;" x1="5" x2="976.5015" y1="785.3985" y2="785.3985"/><rect fill="#ECEFF1" height="24.3441" style="stroke:#000000;stroke-width:1;" width="257.4338" x="362.0339" y="771.2264"/><text fill="#1A237E" font-family="'sans-serif'" font-size="12" font-weight="bold" lengthAdjust="spacing" textLength="240.3138" x="368.0339" y="788.0545">Stage 5 &#8212; Next ready source step, if any</text><g class="message" data-entity-1="part3" data-entity-2="part5" id="msg11"><polygon fill="#444444" points="834.111,823.9146,844.111,827.9146,834.111,831.9146,838.111,827.9146" style="stroke:#444444;stroke-width:1;"/><line style="stroke:#444444;stroke-width:1;" x1="474.4568" x2="840.111" y1="827.9146" y2="827.9146"/><text fill="#000000" font-family="'sans-serif'" font-size="12" font-weight="bold" lengthAdjust="spacing" textLength="13.7281" x="481.4568" y="822.3986">11</text><text fill="#000000" font-family="'sans-serif'" font-size="12" lengthAdjust="spacing" textLength="228.0616" x="499.1849" y="822.3986">register next recursive_metered_gate(K')</text></g><g class="message" data-entity-1="part5" data-entity-2="part3" id="msg12"><polygon fill="#444444" points="485.4568,854.2587,475.4568,858.2587,485.4568,862.2587,481.4568,858.2587" style="stroke:#444444;stroke-width:1;"/><line style="stroke:#444444;stroke-width:1;stroke-dasharray:2,2;" x1="479.4568" x2="850.111" y1="858.2587" y2="858.2587"/><text fill="#000000" font-family="'sans-serif'" font-size="12" font-weight="bold" lengthAdjust="spacing" textLength="13.7281" x="491.4568" y="852.7427">12</text><text fill="#000000" font-family="'sans-serif'" font-size="12" lengthAdjust="spacing" textLength="199.3574" x="509.1849" y="852.7427">pending or matched independently</text></g><g class="message" data-entity-1="part3" data-entity-2="part4" id="msg13"><polygon fill="#444444" points="660.01,884.6029,670.01,888.6029,660.01,892.6029,664.01,888.6029" style="stroke:#444444;stroke-width:1;"/><line style="stroke:#444444;stroke-width:1;" x1="474.4568" x2="666.01" y1="888.6029" y2="888.6029"/><text fill="#000000" font-family="'sans-serif'" font-size="12" font-weight="bold" lengthAdjust="spacing" textLength="13.7281" x="481.4568" y="883.0868">13</text><text fill="#000000" font-family="'sans-serif'" font-size="12" lengthAdjust="spacing" textLength="61.3804" x="499.1849" y="883.0868">total_cost()</text></g><g class="message" data-entity-1="part4" data-entity-2="part3" id="msg14"><polygon fill="#444444" points="485.4568,914.947,475.4568,918.947,485.4568,922.947,481.4568,918.947" style="stroke:#444444;stroke-width:1;"/><line style="stroke:#444444;stroke-width:1;stroke-dasharray:2,2;" x1="479.4568" x2="676.01" y1="918.947" y2="918.947"/><text fill="#000000" font-family="'sans-serif'" font-size="12" font-weight="bold" lengthAdjust="spacing" textLength="13.7281" x="491.4568" y="913.4309">14</text><text fill="#000000" font-family="'sans-serif'" font-size="12" lengthAdjust="spacing" textLength="155.0771" x="509.1849" y="913.4309">consumed = &#931; event.weight</text></g><g class="message" data-entity-1="part3" data-entity-2="part1" id="msg15"><polygon fill="#444444" points="49.5542,945.2911,39.5542,949.2911,49.5542,953.2911,45.5542,949.2911" style="stroke:#444444;stroke-width:1;"/><line style="stroke:#444444;stroke-width:1;stroke-dasharray:2,2;" x1="43.5542" x2="468.4568" y1="949.2911" y2="949.2911"/><text fill="#000000" font-family="'sans-serif'" font-size="12" font-weight="bold" lengthAdjust="spacing" textLength="13.7281" x="55.5542" y="943.7751">15</text><text fill="#000000" font-family="'sans-serif'" font-size="12" lengthAdjust="spacing" textLength="283.1541" x="73.2823" y="943.7751">deploy result, cost = consumed source-token units</text></g><path d="M15,962.2911 L15,1037.2911 L874,1037.2911 L874,972.2911 L864,962.2911 L15,962.2911" fill="#E8F5E9" style="stroke:#000000;stroke-width:1;"/><path d="M864,962.2911 L864,972.2911 L874,972.2911 L864,962.2911" fill="#E8F5E9" style="stroke:#000000;stroke-width:1;"/><text fill="#000000" font-family="'sans-serif'" font-size="12" lengthAdjust="spacing" textLength="278.606" x="269.2453" y="980.1192">The sole cost event is Stage 3 (highlighted in red).</text><text fill="#000000" font-family="'sans-serif'" font-size="12" lengthAdjust="spacing" textLength="330.5065" x="269.2453" y="996.4633">All other stages &#8212; authorization deposit, gate registration,</text><text fill="#000000" font-family="'sans-serif'" font-size="12" lengthAdjust="spacing" textLength="341.9665" x="269.2453" y="1012.8074">continuation scheduling, and pending registration &#8212; are not</text><text fill="#000000" font-family="'sans-serif'" font-size="12" lengthAdjust="spacing" textLength="315.3264" x="269.2453" y="1029.1515">billable unless they fire another recursive metered gate.</text><?plantuml-src dLNDRXit4BxpAIRIeL8j1RRaE8e11RMaLGiuTbDPjwOGgDtHYZ15RackL2K8q5FGOr7a3V8-VGW_IOTS_QtiNio3j18_pdpppJVB5swE2uHCSg4Oi_T2PTpm1LZyFKSL8tnY05V6w5LVIssWjAhdOH7YdPZXEw6mfqs2PW-jNeH5YFVSE16BZ2jN0bNROH7YLhj7vyin0eB7zwdHkKeEiWo7mqvqHeWVQITx8iW-Iq3yX9mGGwtS3bLjXKM8WLWAsdsKg1hre-7mR8yedGynpgvQxTSH-tmWP88pdaldiRUSbAvOhcpJeX6pojEmE_4HuQp56C-TLlbYYeQUOxVBKnbW9lKQJGMUkRY5GI5Sfz_kTLYsRmvKRj0HEvL29ZAKrDGFgaRT8yfmGYqm2ow9eVzn9z8hfRJZnArUAOKV--Y3y_vvT1GzMdAP-mELvtEFDasF-hrsEVfOtwFgvKcAhlBSwFqR7xtVYIxwRrZ27PzoYq7tqLt6OtoswY7wA73lzGRHiCVO09flIQkJ4xW4cqyNmi5ehYKdzQtE3StV2LYHAkvoWs0PYOsWbwJ-cFmuY5uFBxm0nE_Xop-Wjiq9ltZH6eJti19kJgVzlzDSo0HMAEN4u4nYx321XMyvVLkFPwWIy8dO69f4BoheRJ4hRUv1E5n0zuCo6EV6YYLEDjkJb2BKhkiiGRAiMFhyOyOYNoS96o899LpDVmWk9yvtp48NihdK4ob8WZeZP96vsIIylcUisuKxnrCQ37ZuyojSvMwkZVZ8dT2AXYVJbgIhnTewEAr3jrja71K9CwEJdBJy9TU1t8lQQPsD3bDOCYGc3SYeTc_z1NVn_21hAsIzsKZWQmI3gR3E50p-BtEibSrfwcVQr1nrvUyTX_edYk3tw1aU_le6tplu_3If5IUfL7f0fntez7--kO6Pe3105BQ1OKEc2xX4vLwkKAHp5vZjtJCYzxI7hU60XKg1b_Hy-F8LTfqDrRAf85CukEp23wVah8Js9Vgve0g9N5uSlDvxXohvjTg_Q7LQdT-QRqFpBtt5QCWiCLTQYPZBMk0Ock7BlYo43_Oj1muIdHv8S1ua66rPolNEeAM3XSQsN7sqlJ4euJK82_nu8CJ2vz0peEjnEuasZsEqLfi35gy2Yrlymr4cdgntM8TP0yICf5eVUw8m3j5GnR6d9-Yx8uTkdKctGD38arHaVFgR59JhenbpDFfouerGEnwdZISJSiY_tqecyI48DoXmIRXbWeBIDM1Zgjtfej9cc5_8QPejEv1uq0WUwmnVHM_OE8WeiOWHCdhLjrwkpIcvz0H2KPGngRzaLrA29lcDVokbr4AlD7zgxXkF1xB1IYwmNg-SxhAq4Sox5RCqmo4-lMMf2BAxb7nAZ7CbgUVU1kimQdIy8BMVZyN1M-7bVW3-0m00?></g></svg>