<?plantuml 1.2026.2?><svg xmlns="http://www.w3.org/2000/svg" xmlns:xlink="http://www.w3.org/1999/xlink" contentStyleType="text/css" data-diagram-type="DESCRIPTION" height="647px" preserveAspectRatio="none" style="width:1148px;height:647px;background:#FFFFFF;" version="1.1" viewBox="0 0 1148 647" width="1148px" zoomAndPan="magnify"><defs/><g><!--entity ROCQ--><g class="entity" data-qualified-name="ROCQ" data-source-line="20" id="ent0002"><rect fill="#EEF2FF" height="115.3396" rx="2.5" ry="2.5" style="stroke:#333333;stroke-width:1;" width="232.7711" x="362.18" y="12"/><text fill="#000000" font-family="Verdana" font-size="14" font-style="italic" lengthAdjust="spacing" textLength="43.7079" x="456.7116" y="36.9659">&#171;Rocq&#187;</text><text fill="#000000" font-family="Verdana" font-size="14" lengthAdjust="spacing" textLength="79.0017" x="372.18" y="56.0339">Rocq proofs</text><text fill="#000000" font-family="Verdana" font-size="14" lengthAdjust="spacing" textLength="212.7711" x="372.18" y="75.1018">LinearLogicResources.v (25 thm)</text><text fill="#000000" font-family="Verdana" font-size="14" lengthAdjust="spacing" textLength="145.8654" x="372.18" y="94.1697">LLIdentities.v (51 thm)</text><text fill="#000000" font-family="Verdana" font-size="14" lengthAdjust="spacing" textLength="202.7892" x="372.18" y="113.2376">machine-checked &#183; unbounded</text></g><!--entity SAGE--><g class="entity" data-qualified-name="SAGE" data-source-line="21" id="ent0003"><rect fill="#EEFAF1" height="115.3396" rx="2.5" ry="2.5" style="stroke:#333333;stroke-width:1;" width="239.1412" x="12" y="206.34"/><text fill="#000000" font-family="Verdana" font-size="14" font-style="italic" lengthAdjust="spacing" textLength="43.4698" x="109.8357" y="231.3059">&#171;Sage&#187;</text><text fill="#000000" font-family="Verdana" font-size="14" lengthAdjust="spacing" textLength="79.2957" x="22" y="250.3739">Sage search</text><text fill="#000000" font-family="Verdana" font-size="14" lengthAdjust="spacing" textLength="147.7134" x="22" y="269.4418">ll_identity_search.sage</text><text fill="#000000" font-family="Verdana" font-size="14" lengthAdjust="spacing" textLength="173.2073" x="22" y="288.5097">16 identities + 11 resource</text><text fill="#000000" font-family="Verdana" font-size="14" lengthAdjust="spacing" textLength="219.1412" x="22" y="307.5776">obligations &#183; bounded-exhaustive</text></g><!--entity TLA--><g class="entity" data-qualified-name="TLA" data-source-line="22" id="ent0004"><rect fill="#FFFBEA" height="115.3396" rx="2.5" ry="2.5" style="stroke:#333333;stroke-width:1;" width="211.2812" x="285.93" y="206.34"/><text fill="#000000" font-family="Verdana" font-size="14" font-style="italic" lengthAdjust="spacing" textLength="31.9339" x="375.6037" y="231.3059">&#171;Tla&#187;</text><text fill="#000000" font-family="Verdana" font-size="14" lengthAdjust="spacing" textLength="139.3694" x="295.93" y="250.3739">TLA+ model checking</text><text fill="#000000" font-family="Verdana" font-size="14" lengthAdjust="spacing" textLength="191.2812" x="295.93" y="269.4418">Plus / With / Bang / WhyNot /</text><text fill="#000000" font-family="Verdana" font-size="14" lengthAdjust="spacing" textLength="187.7813" x="295.93" y="288.5097">Lolly / Threshold Protocol.tla</text><text fill="#000000" font-family="Verdana" font-size="14" lengthAdjust="spacing" textLength="150.7514" x="295.93" y="307.5776">finite-state reachability</text></g><!--entity RUST--><g class="entity" data-qualified-name="RUST" data-source-line="23" id="ent0005"><rect fill="#FFE8E8" height="115.3396" rx="2.5" ry="2.5" style="stroke:#333333;stroke-width:1;" width="280.427" x="473.36" y="400.68"/><text fill="#000000" font-family="Verdana" font-size="14" font-style="italic" lengthAdjust="spacing" textLength="40.1799" x="593.4836" y="425.6459">&#171;Rust&#187;</text><text fill="#000000" font-family="Verdana" font-size="14" lengthAdjust="spacing" textLength="85.4977" x="483.36" y="444.7139">Rust runtime</text><text fill="#000000" font-family="Verdana" font-size="14" lengthAdjust="spacing" textLength="260.427" x="483.36" y="463.7818">accounting/mod.rs &#183; casper_message.rs</text><text fill="#000000" font-family="Verdana" font-size="14" lengthAdjust="spacing" textLength="180.7813" x="483.36" y="482.8497">signed.rs + regression tests</text><text fill="#000000" font-family="Verdana" font-size="14" lengthAdjust="spacing" textLength="71.5957" x="483.36" y="501.9176">executable</text></g><g class="entity" data-qualified-name="GMN11" data-source-line="32" id="ent0012"><path d="M420.06,577.02 L420.06,640.138 A0,0 0 0 0 420.06,640.138 L807.0883,640.138 A0,0 0 0 0 807.0883,640.138 L807.0883,587.02 L797.0883,577.02 L617.57,577.02 L613.57,516.24 L609.57,577.02 L420.06,577.02 A0,0 0 0 0 420.06,577.02" fill="#FFFFFF" style="stroke:#000000;stroke-width:1;"/><path d="M797.0883,577.02 L797.0883,587.02 L807.0883,587.02 L797.0883,577.02" fill="#FFFFFF" style="stroke:#000000;stroke-width:1;"/><text fill="#000000" font-family="Verdana" font-size="13" lengthAdjust="spacing" textLength="366.0283" x="426.06" y="595.917">"Any counterexample found here is a bug in the Rocq proof,</text><text fill="#000000" font-family="Verdana" font-size="13" lengthAdjust="spacing" textLength="337.1033" x="426.06" y="613.623">the Rust substrate, or this reference implementation &#8212;</text><text fill="#000000" font-family="Verdana" font-size="13" lengthAdjust="spacing" textLength="315.7053" x="426.06" y="631.329">they must agree."  &#8212; ll_identity_search.sage header</text></g><!--link ROCQ to SAGE--><g class="link" data-entity-1="ent0002" data-entity-2="ent0003" data-link-type="dependency" data-source-line="25" id="lnk6"><path d="M355.9389,95.5659 C308.0589,108.8659 259.68,127.44 216.57,157.34 C198,170.22 185.0539,183.5409 171.5639,201.1109" fill="none" id="ROCQ-SAGE" style="stroke:#000000;stroke-width:1;"/><polygon fill="#000000" points="361.72,93.96,351.9778,92.5147,356.9024,95.2982,354.1189,100.2229,361.72,93.96" style="stroke:#000000;stroke-width:1;"/><polygon fill="#000000" points="167.91,205.87,176.5636,201.1674,170.955,201.9041,170.2182,196.2954,167.91,205.87" style="stroke:#000000;stroke-width:1;"/><text fill="#000000" font-family="Verdana" font-size="13" lengthAdjust="spacing" textLength="110.5261" x="217.57" y="172.237">identical cost laws</text></g><!--link ROCQ to TLA--><g class="link" data-entity-1="ent0002" data-entity-2="ent0004" data-link-type="dependency" data-source-line="26" id="lnk7"><path d="M360.8446,131.7349 C351.4846,140.4749 347.68,146.25 341.57,157.34 C333.05,172.81 333.4779,184.5733 341.2079,200.4833" fill="none" id="ROCQ-TLA" style="stroke:#000000;stroke-width:1;"/><polygon fill="#000000" points="365.23,127.64,355.922,130.8588,361.5755,131.0524,361.3818,136.706,365.23,127.64" style="stroke:#000000;stroke-width:1;"/><polygon fill="#000000" points="343.83,205.88,343.4948,196.0368,341.645,201.3827,336.2991,199.5329,343.83,205.88" style="stroke:#000000;stroke-width:1;"/><text fill="#000000" font-family="Verdana" font-size="13" lengthAdjust="spacing" textLength="244.5692" x="342.57" y="172.237">conservation + per-connective protocols</text></g><!--link ROCQ to RUST--><g class="link" data-entity-1="ent0002" data-entity-2="ent0005" data-link-type="dependency" data-source-line="27" id="lnk8"><path d="M573.1483,131.8369 C582.0383,140.7869 585.7,146.46 591.57,157.34 C632.68,233.52 630.4536,330.8579 623.2936,394.2279" fill="none" id="ROCQ-RUST" style="stroke:#000000;stroke-width:1;"/><polygon fill="#000000" points="568.92,127.58,572.4246,136.7842,572.4436,131.1274,578.1004,131.1464,568.92,127.58" style="stroke:#000000;stroke-width:1;"/><polygon fill="#000000" points="622.62,400.19,627.6052,391.696,623.1814,395.2216,619.6557,390.7978,622.62,400.19" style="stroke:#000000;stroke-width:1;"/><text fill="#000000" font-family="Verdana" font-size="13" lengthAdjust="spacing" textLength="254.1372" x="627.82" y="269.407">min_required = sig_algebra_min_required</text></g><!--link RUST to ROCQ--><g class="link" data-entity-1="ent0005" data-entity-2="ent0002" data-link-type="dependency" data-source-line="29" id="lnk10"><path d="M753.94,422.81 C806.13,402.42 860.04,370.64 890.57,321.68 C917.7,278.19 920.62,247.87 890.57,206.34 C823.69,113.91 697.651,83.9595 601.021,74.4195" fill="none" id="RUST-to-ROCQ" style="stroke:#000000;stroke-width:1;stroke-dasharray:7,7;"/><polygon fill="#000000" points="595.05,73.83,603.6135,78.6949,600.0258,74.3212,604.3995,70.7336,595.05,73.83" style="stroke:#000000;stroke-width:1;"/><text fill="#000000" font-family="Verdana" font-size="13" font-weight="bold" lengthAdjust="spacing" textLength="73.5151" x="981.657" y="251.407">bug caught</text><text fill="#000000" font-family="Verdana" font-size="13" lengthAdjust="spacing" textLength="13" x="1058.5521" y="251.407">&#8212;</text><text fill="#000000" font-family="Verdana" font-size="13" lengthAdjust="spacing" textLength="180.4921" x="936.3585" y="269.113">no-free-weakening obligation</text><text fill="#000000" font-family="Verdana" font-size="13" lengthAdjust="spacing" textLength="227.1492" x="913.03" y="286.819">revealed the threshold-verifier defect</text></g><!--link SAGE to RUST--><g class="link" data-entity-1="ent0003" data-entity-2="ent0005" data-link-type="dependency" data-source-line="28" id="lnk9"><path d="M251.2505,324.6326 C286.1005,341.1726 319.37,356.12 355.57,370.68 C393.16,385.8 428.8318,398.6111 467.2118,411.4911" fill="none" id="SAGE-RUST" style="stroke:#000000;stroke-width:1;"/><polygon fill="#000000" points="245.83,322.06,252.2457,329.5326,250.3471,324.2038,255.6758,322.3052,245.83,322.06" style="stroke:#000000;stroke-width:1;"/><polygon fill="#000000" points="472.9,413.4,465.6403,406.7445,468.1598,411.8092,463.095,414.3288,472.9,413.4" style="stroke:#000000;stroke-width:1;"/><text fill="#000000" font-family="Verdana" font-size="13" lengthAdjust="spacing" textLength="230.5032" x="356.57" y="366.577">reflect() = SignatureChannel::from_sig</text></g><?plantuml-src TPJVQjim5CRl_HHdwKr7wuHqT9II1T8IZq7OkgPZDuOWAyUsY2obafmsZC4UOk-o-ptAdcIVdD1cq0L279r_l_ET8xyADJTCQosKIVnAcRLmeY5fcxKrRC8yR3MJOnc4gJI_v4BV4g8h8LULiwrPNbjjtMXqQ-NzU4n7qsbsbcKlUSn5nNkFIJPyoUDE2pZGKPPbLzF9YrLQ7sAEB9jUJ2-YXtLBTfsLZjvqd-HxaZp3zY8OhPsrfS_DJ1aMRcOh9M_PszP9zlqD7P-TKwYRrt2OVLWYJ0MrCvmFzuP6o1h1gQnPhdX9ltzHQug8niiUFVKlFDr-klvy213x9e-oiiwDrWkrAx1TxCxw7lRS3D-IUgfC9pGSOWexmjpOGgjA16MDZuNtPLD-h0K4KHkE17jzGJ2Vl9yU4jpD9YVKs2Lhwl2LgN9perjF0_ggGesVAumx_gkt7ssW0OImMcznSbS3exPwIJVE1YkjxWSjSbCgemAdFeWGzmNgY49fj1LHTeC42Ih_CmlGaclHPOEkX9GsFfjg0BY-wtgJmg_PBHhsKHSSviQhod1dFq6b2ZmUIb1W7s3bHvPj48NkHDWlI1p3b_bTaiHXq2XDnvqeTBaNMGf8OG6ZnOC_S08lmKb2Q7QRJd4K1L2A8uDR0QtZCdL270R6QWXib5aulc-Lmugy8v0lXAwuS69nQ4ewcCD0nwL6-kFNY9gZNn5QnzUrG55zULawsooGBEcy-_rnjsIHT5ICYxQ2QcrLXz6W6DEV7pzpOsnQEkRqWSMA3HIcvnNAZUCD2mr2l0pmtGyutR1JfM97Iox1aYJ6OhQ53S4sPCkTeaIzYTbIDpbs_2YQDLuOPTn8gd50ofEWoAHCb__v_fqYk3k9M-3RmWU7vJabNDrG8mmQ886Ho16JDXZKRW9eQHUwfIR62km0ztiK3VIV6mKOWJT3mk2AVVm5?></g></svg>