<?plantuml 1.2026.2?><svg xmlns="http://www.w3.org/2000/svg" xmlns:xlink="http://www.w3.org/1999/xlink" contentStyleType="text/css" data-diagram-type="DESCRIPTION" height="874px" preserveAspectRatio="none" style="width:1052px;height:874px;background:#FFFFFF;" version="1.1" viewBox="0 0 1052 874" width="1052px" zoomAndPan="magnify"><defs/><g><!--entity SPEC--><g class="entity" data-qualified-name="SPEC" data-source-line="24" id="ent0002"><rect fill="#FFECB3" height="96.2717" rx="2.5" ry="2.5" style="stroke:#333333;stroke-width:1;" width="326.6688" x="83.69" y="647.22"/><text fill="#000000" font-family="Verdana" font-size="14" font-style="italic" lengthAdjust="spacing" textLength="40.8379" x="226.6055" y="672.1859">&#171;spec&#187;</text><text fill="#000000" font-family="Verdana" font-size="14" lengthAdjust="spacing" textLength="197.0492" x="93.69" y="691.2539">LL cost laws &amp; identity catalog</text><text fill="#000000" font-family="Verdana" font-size="14" lengthAdjust="spacing" textLength="250.109" x="93.69" y="710.3218">16 identities + 11 resource obligations</text><text fill="#000000" font-family="Verdana" font-size="14" lengthAdjust="spacing" textLength="306.6688" x="93.69" y="729.3897">(connective cost / consumed-atoms semantics)</text></g><!--entity ROCQ--><g class="entity" data-qualified-name="ROCQ" data-source-line="25" id="ent0003"><rect fill="#BBDEFB" height="115.3396" rx="2.5" ry="2.5" style="stroke:#333333;stroke-width:1;" width="232.7711" x="320.63" y="12"/><text fill="#000000" font-family="Verdana" font-size="14" font-style="italic" lengthAdjust="spacing" textLength="41.2579" x="416.3866" y="36.9659">&#171;rocq&#187;</text><text fill="#000000" font-family="Verdana" font-size="14" lengthAdjust="spacing" textLength="79.0017" x="330.63" y="56.0339">Rocq proofs</text><text fill="#000000" font-family="Verdana" font-size="14" lengthAdjust="spacing" textLength="212.7711" x="330.63" y="75.1018">LinearLogicResources.v (25 thm)</text><text fill="#000000" font-family="Verdana" font-size="14" lengthAdjust="spacing" textLength="145.8654" x="330.63" y="94.1697">LLIdentities.v (51 thm)</text><text fill="#000000" font-family="Verdana" font-size="14" lengthAdjust="spacing" textLength="202.7892" x="330.63" y="113.2376">machine-checked &#183; unbounded</text></g><!--entity SAGE--><g class="entity" data-qualified-name="SAGE" data-source-line="26" id="ent0004"><rect fill="#DCEDC8" height="96.2717" rx="2.5" ry="2.5" style="stroke:#333333;stroke-width:1;" width="257.201" x="247.42" y="203.34"/><text fill="#000000" font-family="Verdana" font-size="14" font-style="italic" lengthAdjust="spacing" textLength="42.4478" x="354.7966" y="228.3059">&#171;sage&#187;</text><text fill="#000000" font-family="Verdana" font-size="14" lengthAdjust="spacing" textLength="79.2957" x="257.42" y="247.3739">Sage search</text><text fill="#000000" font-family="Verdana" font-size="14" lengthAdjust="spacing" textLength="147.7134" x="257.42" y="266.4418">ll_identity_search.sage</text><text fill="#000000" font-family="Verdana" font-size="14" lengthAdjust="spacing" textLength="237.201" x="257.42" y="285.5097">bounded-exhaustive &#183; 643,827 cases</text></g><!--entity TLA--><g class="entity" data-qualified-name="TLA" data-source-line="27" id="ent0005"><rect fill="#FFE082" height="115.3396" rx="2.5" ry="2.5" style="stroke:#333333;stroke-width:1;" width="211.2812" x="83.38" y="329.61"/><text fill="#000000" font-family="Verdana" font-size="14" font-style="italic" lengthAdjust="spacing" textLength="29.5679" x="174.2367" y="354.5759">&#171;tla&#187;</text><text fill="#000000" font-family="Verdana" font-size="14" lengthAdjust="spacing" textLength="139.3694" x="93.38" y="373.6439">TLA+ model checking</text><text fill="#000000" font-family="Verdana" font-size="14" lengthAdjust="spacing" textLength="191.2812" x="93.38" y="392.7118">Plus / With / Bang / WhyNot /</text><text fill="#000000" font-family="Verdana" font-size="14" lengthAdjust="spacing" textLength="187.7813" x="93.38" y="411.7797">Lolly / Threshold Protocol.tla</text><text fill="#000000" font-family="Verdana" font-size="14" lengthAdjust="spacing" textLength="150.7514" x="93.38" y="430.8476">finite-state reachability</text></g><!--entity RUST--><g class="entity" data-qualified-name="RUST" data-source-line="28" id="ent0006"><rect fill="#F8C3B8" height="96.2717" rx="2.5" ry="2.5" style="stroke:#333333;stroke-width:1;" width="283.409" x="427.32" y="474.95"/><text fill="#000000" font-family="Verdana" font-size="14" font-style="italic" lengthAdjust="spacing" textLength="37.7299" x="550.1596" y="499.9159">&#171;rust&#187;</text><text fill="#000000" font-family="Verdana" font-size="14" lengthAdjust="spacing" textLength="85.4977" x="437.32" y="518.9839">Rust runtime</text><text fill="#000000" font-family="Verdana" font-size="14" lengthAdjust="spacing" textLength="260.427" x="437.32" y="538.0518">accounting/mod.rs &#183; casper_message.rs</text><text fill="#000000" font-family="Verdana" font-size="14" lengthAdjust="spacing" textLength="263.409" x="437.32" y="557.1197">signed.rs + regression tests &#183; executable</text></g><g class="entity" data-qualified-name="GMN16" data-source-line="42" id="ent0017"><path d="M53.51,804.49 L53.51,867.608 A0,0 0 0 0 53.51,867.608 L440.5383,867.608 A0,0 0 0 0 440.5383,867.608 L440.5383,814.49 L430.5383,804.49 L251.02,804.49 L247.02,743.7 L243.02,804.49 L53.51,804.49 A0,0 0 0 0 53.51,804.49" fill="#FFFFFF" style="stroke:#000000;stroke-width:1;"/><path d="M430.5383,804.49 L430.5383,814.49 L440.5383,814.49 L430.5383,804.49" fill="#FFFFFF" style="stroke:#000000;stroke-width:1;"/><text fill="#000000" font-family="Verdana" font-size="13" lengthAdjust="spacing" textLength="366.0283" x="59.51" y="823.387">"Any counterexample found here is a bug in the Rocq proof,</text><text fill="#000000" font-family="Verdana" font-size="13" lengthAdjust="spacing" textLength="337.1033" x="59.51" y="841.093">the Rust substrate, or this reference implementation &#8212;</text><text fill="#000000" font-family="Verdana" font-size="13" lengthAdjust="spacing" textLength="268.9702" x="59.51" y="858.799">they must agree."  &#8212; ll_identity_search.sage</text></g><!--link ROCQ to SPEC--><g class="link" data-entity-1="ent0003" data-entity-2="ent0002" data-link-type="dependency" data-source-line="30" id="lnk7"><path d="M320.4,93.12 C271.07,106.38 214.79,126.75 170.02,157.34 C88.33,213.15 62.29,236.43 29.02,329.61 C11.78,377.89 11,396.96 29.02,444.95 C60.2,528 128.3931,597.6068 181.3031,642.9268" fill="none" id="ROCQ-to-SPEC" style="stroke:#1565C0;stroke-width:1;"/><polygon fill="#1565C0" points="185.86,646.83,181.6268,637.9373,182.0626,643.5773,176.4226,644.0131,185.86,646.83" style="stroke:#1565C0;stroke-width:1;"/><text fill="#000000" font-family="Verdana" font-size="11" lengthAdjust="spacing" textLength="35.0237" x="30.02" y="392.0389">proves</text></g><!--link SAGE to SPEC--><g class="link" data-entity-1="ent0004" data-entity-2="ent0002" data-link-type="dependency" data-source-line="31" id="lnk8"><path d="M355.21,299.83 C351.25,309.58 347.32,319.86 344.02,329.61 C338.86,344.85 285.9929,545.7965 260.9929,641.0665" fill="none" id="SAGE-to-SPEC" style="stroke:#1565C0;stroke-width:1;"/><polygon fill="#1565C0" points="259.47,646.87,265.6234,639.18,260.7391,642.0337,257.8854,637.1495,259.47,646.87" style="stroke:#1565C0;stroke-width:1;"/><text fill="#000000" font-family="Verdana" font-size="11" lengthAdjust="spacing" textLength="45.7377" x="304.9" y="527.8389">searches</text></g><!--link TLA to SPEC--><g class="link" data-entity-1="ent0005" data-entity-2="ent0002" data-link-type="dependency" data-source-line="32" id="lnk9"><path d="M189.49,445.29 C190.74,481.67 194.16,529.63 203.02,571.22 C208.48,596.87 215.7935,618.8487 224.5635,641.3787" fill="none" id="TLA-to-SPEC" style="stroke:#1565C0;stroke-width:1;"/><polygon fill="#1565C0" points="226.74,646.97,227.2028,637.132,224.9263,642.3106,219.7477,640.034,226.74,646.97" style="stroke:#1565C0;stroke-width:1;"/><text fill="#000000" font-family="Verdana" font-size="11" lengthAdjust="spacing" textLength="70.9935" x="204.02" y="527.8389">model-checks</text></g><!--link RUST to SPEC--><g class="link" data-entity-1="ent0006" data-entity-2="ent0002" data-link-type="dependency" data-source-line="33" id="lnk10"><path d="M479.32,571.51 C434.94,594.98 386.8038,620.4347 342.3738,643.9347" fill="none" id="RUST-to-SPEC" style="stroke:#1565C0;stroke-width:1;"/><polygon fill="#1565C0" points="337.07,646.74,346.8959,646.0679,341.4898,644.4023,343.1555,638.9962,337.07,646.74" style="stroke:#1565C0;stroke-width:1;"/><text fill="#000000" font-family="Verdana" font-size="11" lengthAdjust="spacing" textLength="45.7487" x="418.67" y="613.9789">executes</text></g><!--link ROCQ to SAGE--><g class="link" data-entity-1="ent0003" data-entity-2="ent0004" data-link-type="dependency" data-source-line="35" id="lnk11"><path d="M415.7918,133.2417 C407.5518,157.5217 401.9068,174.1678 394.0568,197.3178" fill="none" id="ROCQ-SAGE" style="stroke:#2E7D32;stroke-width:1;"/><polygon fill="#2E7D32" points="417.72,127.56,411.0398,134.7971,416.1131,132.2948,418.6155,137.3681,417.72,127.56" style="stroke:#2E7D32;stroke-width:1;"/><polygon fill="#2E7D32" points="392.13,203,398.8083,195.7612,393.7357,198.2648,391.2321,193.1922,392.13,203" style="stroke:#2E7D32;stroke-width:1;"/><text fill="#000000" font-family="Verdana" font-size="11" lengthAdjust="spacing" textLength="93.5214" x="407.52" y="170.0989">identical cost laws</text></g><!--link ROCQ to RUST--><g class="link" data-entity-1="ent0003" data-entity-2="ent0006" data-link-type="dependency" data-source-line="36" id="lnk12"><path d="M493.4688,132.5699 C500.8188,142.0399 504.17,147.31 510.02,157.34 C551.16,227.9 559.57,249.22 574.02,329.61 C582.8,378.47 580.3402,429.4432 576.2002,468.6432" fill="none" id="ROCQ-RUST" style="stroke:#2E7D32;stroke-width:1;"/><polygon fill="#2E7D32" points="489.79,127.83,492.1483,137.3924,492.8557,131.7799,498.4681,132.4873,489.79,127.83" style="stroke:#2E7D32;stroke-width:1;"/><polygon fill="#2E7D32" points="575.57,474.61,580.4931,466.0799,576.0951,469.6377,572.5374,465.2397,575.57,474.61" style="stroke:#2E7D32;stroke-width:1;"/><text fill="#000000" font-family="Verdana" font-size="11" lengthAdjust="spacing" textLength="215.0374" x="569.02" y="256.2289">min_required = sig_algebra_min_required</text></g><!--link RUST to ROCQ--><g class="link" data-entity-1="ent0006" data-entity-2="ent0003" data-link-type="dependency" data-source-line="39" id="lnk15"><path d="M643.91,474.68 C732.54,412.51 860.15,300 793.02,203.34 C739.5,126.27 641.4593,94.871 559.6393,81.311" fill="none" id="RUST-to-ROCQ" style="stroke:#C62828;stroke-width:1;stroke-dasharray:7,7;"/><polygon fill="#C62828" points="553.72,80.33,561.9449,85.7477,558.6527,81.1475,563.2529,77.8553,553.72,80.33" style="stroke:#C62828;stroke-width:1;"/><text fill="#000000" font-family="Verdana" font-size="11" font-weight="bold" lengthAdjust="spacing" textLength="62.2046" x="812.81" y="248.7289">bug caught</text><text fill="#000000" font-family="Verdana" font-size="11" lengthAdjust="spacing" textLength="166.5828" x="877.8745" y="248.7289">&#8212; no-free-weakening obligation</text><text fill="#000000" font-family="Verdana" font-size="11" lengthAdjust="spacing" textLength="192.2016" x="832.5329" y="263.7108">revealed the threshold-verifier defect</text></g><!--link SAGE to RUST--><g class="link" data-entity-1="ent0004" data-entity-2="ent0006" data-link-type="dependency" data-source-line="37" id="lnk13"><path d="M359.6627,305.7726 C349.5627,347.6326 344.14,402.55 373.02,444.95 C386.4,464.59 400.2829,476.4986 421.5229,487.4086" fill="none" id="SAGE-RUST" style="stroke:#2E7D32;stroke-width:1;"/><polygon fill="#2E7D32" points="361.07,299.94,355.0706,307.7507,359.8973,304.8005,362.8475,309.6271,361.07,299.94" style="stroke:#2E7D32;stroke-width:1;"/><polygon fill="#2E7D32" points="426.86,490.15,420.682,482.4798,422.4124,487.8655,417.0267,489.5959,426.86,490.15" style="stroke:#2E7D32;stroke-width:1;"/><text fill="#000000" font-family="Verdana" font-size="11" lengthAdjust="spacing" textLength="195.0396" x="374.02" y="392.0389">reflect() = SignatureChannel::from_sig</text></g><!--link ROCQ to TLA--><g class="link" data-entity-1="ent0003" data-entity-2="ent0005" data-link-type="dependency" data-source-line="38" id="lnk14"><path d="M314.4145,82.869 C264.8945,93.939 217.52,114.48 187.02,157.34 C151.64,207.05 158.0222,273.6227 169.9122,323.6327" fill="none" id="ROCQ-TLA" style="stroke:#2E7D32;stroke-width:1;"/><polygon fill="#2E7D32" points="320.27,81.56,310.6141,79.6198,315.3904,82.6508,312.3594,87.4271,320.27,81.56" style="stroke:#2E7D32;stroke-width:1;"/><polygon fill="#2E7D32" points="171.3,329.47,173.1098,319.7888,170.1435,324.6056,165.3267,321.6393,171.3,329.47" style="stroke:#2E7D32;stroke-width:1;"/><text fill="#000000" font-family="Verdana" font-size="11" lengthAdjust="spacing" textLength="206.9415" x="188.02" y="170.0989">conservation + per-connective protocols</text></g><?plantuml-src TLJjRY8t5Fq_Jt6RI5MY1BA19eiGHGeJKbL2RHfIzSUoGcQuCsF5OxEsXuIkLkf3z5twlu_I9-cnXsoeD4L29FRzEEVSS_sDBxbYsYWXTUAUfDu8AohAJBKnchMV-vrYifnveGl51o6k56lpB7L1kL3kyER6MlDyPv0iVsUwl6ohIvyJeed8dWfhQhrEZJ9sD78RpiPZEhwxcwQJVbk4DTcd436Pt4xl9gqrHC4XuZQTtgQ3jWYl109YbtU3NckNslc8Ov3s9x66iMksyPQE-_6JV4cIDpf7ind8EKzAF3lwbkGQfzBlA1DUA5CizENrww5aHsVG1R8wKzkCoQoKB8INHhk5FicCrX1SRhafUO4VxUgArntXJUN8SILGA7EdH_HLDE5eVZzD3p4zG2pQM6Dob9r9pSBEJ26pXtrVrztIIU-AV5cT8c3surTyuUBgSdzHYQn4SYShENlYDVtz5zLw5UJYTG2mdma0FFoS_d88O8vP0AsmMRdGIYrVLLasPzqmgyLhgGw_b0B21zveSVrT_tpGUmy17Rl8inbiu7dpm_ImpUFivemgisP54IDCkT3tgdQGxZVfI_nCOD_mNxdxoK1Hi3LAxN3oM68AfL5hkhV6cyoeBlonqBdKqdF7UU63_o61M4a5x05Auo0WGUV_20xuP6jmhC1BP9a9V-lY0k2wrWLQeBDXkwpO1JuuN6Wd2ytn_WoT2k1nS09vTZwcy0jdjHShnL7jnfj1xL_dZqaIDAVEX-FBg-khzDt7pZZQW8PXy5jsIH2hzRwP0I90WbeZegJDs5qIkhL6DV1Gfu4oGanl-lwstuineVjmx_nCgBSbQOkEFT1NwgNbJxMqSDlt17sMGXMyic9vUDLGQwrWELTOePDJfCyXh_2rvRGKM2mr7ERML4jKROCGnHZ6ZMExZJk9iM1adOErtEojibUb--4ulUuDUeEFtN7S0HGOhSQhki2uwwBqeulLcFxvuq_IffDRviupYoVMuV5yM_s5jhnbeS0PZpA-UsDsjcnbBjdIcdC0I19juCcLyNWCoEJDsXCTtMWyDy5nRFb5L1iyt7bOBIfnGDAHe019wbZ_xN4uHt8y2UvrzSfv2zEV4zuwNo8DOgA0nZibGz4Aesnq0QCcTKTLo1NmBdUFA5BzdtLF6802WNy1?></g></svg>