<svg xmlns="http://www.w3.org/2000/svg" xmlns:xlink="http://www.w3.org/1999/xlink" contentStyleType="text/css" data-diagram-type="DESCRIPTION" height="876px" preserveAspectRatio="none" style="width:1575px;height:876px;background:#FFFFFF;" version="1.1" viewBox="0 0 1575 876" width="1575px" zoomAndPan="magnify"><?plantuml $version$?><defs/><g><!--cluster Wire / Rust runtime--><g class="cluster" data-qualified-name="Wire . Rust runtime" data-source-line="30" id="ent0001"><path d="M589.57,11.602 L727.7555,11.602 A3.75,3.75 0 0 1 730.2555,14.102 L737.2555,36.6699 L856.57,36.6699 A2.5,2.5 0 0 1 859.07,39.1699 L859.07,178.372 A2.5,2.5 0 0 1 856.57,180.872 L589.57,180.872 A2.5,2.5 0 0 1 587.07,178.372 L587.07,14.102 A2.5,2.5 0 0 1 589.57,11.602" fill="#F8C3B8" style="stroke:#444444;stroke-width:1;"/><line style="stroke:#444444;stroke-width:1;" x1="587.07" x2="737.2555" y1="36.6699" y2="36.6699"/><text fill="#000000" font-family="Verdana" font-size="14" font-weight="700" lengthAdjust="spacing" textLength="137.1855" x="591.07" y="28.5679">Wire / Rust runtime</text><text fill="#000000" font-family="Verdana" font-size="14" font-style="italic" lengthAdjust="spacing" textLength="37.7299" x="708.2051" y="53.6358">&#171;rust&#187;</text></g><!--cluster Rocq ? CostAccountedSyntax.v--><g class="cluster" data-qualified-name="Rocq . CostAccountedSyntax.v" data-source-line="33" id="ent0003"><path d="M425.57,228.872 L636.2892,228.872 A3.75,3.75 0 0 1 638.7892,231.372 L645.7892,253.9399 L645.57,253.9399 A2.5,2.5 0 0 1 648.07,256.4399 L648.07,376.582 A2.5,2.5 0 0 1 645.57,379.082 L425.57,379.082 A2.5,2.5 0 0 1 423.07,376.582 L423.07,231.372 A2.5,2.5 0 0 1 425.57,228.872" fill="#BBDEFB" style="stroke:#444444;stroke-width:1;"/><line style="stroke:#444444;stroke-width:1;" x1="423.07" x2="645.7892" y1="253.9399" y2="253.9399"/><text fill="#000000" font-family="Verdana" font-size="14" font-weight="700" lengthAdjust="spacing" textLength="209.7192" x="427.07" y="245.8379">Rocq &#183; CostAccountedSyntax.v</text><text fill="#000000" font-family="Verdana" font-size="14" font-style="italic" lengthAdjust="spacing" textLength="34.0479" x="522.5461" y="270.9058">&#171;syn&#187;</text></g><!--cluster Rocq ? LinearLogicResources.v--><g class="cluster" data-qualified-name="Rocq . LinearLogicResources.v" data-source-line="36" id="ent0005"><path d="M261.57,442.082 L471.9532,442.082 A3.75,3.75 0 0 1 474.4532,444.582 L481.4532,467.1499 L481.57,467.1499 A2.5,2.5 0 0 1 484.07,469.6499 L484.07,589.782 A2.5,2.5 0 0 1 481.57,592.282 L261.57,592.282 A2.5,2.5 0 0 1 259.07,589.782 L259.07,444.582 A2.5,2.5 0 0 1 261.57,442.082" fill="#C8E6C9" style="stroke:#444444;stroke-width:1;"/><line style="stroke:#444444;stroke-width:1;" x1="259.07" x2="481.4532" y1="467.1499" y2="467.1499"/><text fill="#000000" font-family="Verdana" font-size="14" font-weight="700" lengthAdjust="spacing" textLength="209.3832" x="263.07" y="459.0479">Rocq &#183; LinearLogicResources.v</text><text fill="#000000" font-family="Verdana" font-size="14" font-style="italic" lengthAdjust="spacing" textLength="20.5799" x="365.28" y="484.1158">&#171;ll&#187;</text></g><!--entity SIG--><g class="entity" data-qualified-name="Wire . Rust runtime.SIG" data-source-line="31" id="ent0002"><rect fill="#FAD7CE" height="96.2717" rx="2.5" ry="2.5" style="stroke:#333333;stroke-width:1;" width="240.8211" x="602.66" y="68.602"/><text fill="#000000" font-family="Verdana" font-size="14" font-style="italic" lengthAdjust="spacing" textLength="37.7299" x="704.2056" y="93.5679">&#171;rust&#187;</text><text fill="#000000" font-family="Verdana" font-size="14" lengthAdjust="spacing" textLength="19.9079" x="612.66" y="112.6358">Sig</text><text fill="#000000" font-family="Verdana" font-size="14" lengthAdjust="spacing" textLength="193.4512" x="612.66" y="131.7038">(Unit &#183; Hash &#183; And &#183; Plus &#183; With</text><text fill="#000000" font-family="Verdana" font-size="14" lengthAdjust="spacing" textLength="220.8211" x="612.66" y="150.7717">Bang &#183; WhyNot &#183; Lolly &#183; Threshold)</text></g><!--entity SA--><g class="entity" data-qualified-name="Rocq . CostAccountedSyntax.v.SA" data-source-line="34" id="ent0004"><rect fill="#D7E3FC" height="77.2038" rx="2.5" ry="2.5" style="stroke:#333333;stroke-width:1;" width="122.8156" x="473.67" y="285.872"/><text fill="#000000" font-family="Verdana" font-size="14" font-style="italic" lengthAdjust="spacing" textLength="34.0479" x="518.0539" y="310.8379">&#171;syn&#187;</text><text fill="#000000" font-family="Verdana" font-size="14" lengthAdjust="spacing" textLength="75.3617" x="483.67" y="329.9058">sig_algebra</text><text fill="#000000" font-family="Verdana" font-size="14" lengthAdjust="spacing" textLength="102.8156" x="483.67" y="348.9738">(9 constructors)</text></g><!--entity LLF--><g class="entity" data-qualified-name="Rocq . LinearLogicResources.v.LLF" data-source-line="37" id="ent0006"><rect fill="#DCEDC8" height="77.2038" rx="2.5" ry="2.5" style="stroke:#333333;stroke-width:1;" width="133.8195" x="331.16" y="499.082"/><text fill="#000000" font-family="Verdana" font-size="14" font-style="italic" lengthAdjust="spacing" textLength="20.5799" x="387.7798" y="524.0479">&#171;ll&#187;</text><text fill="#000000" font-family="Verdana" font-size="14" lengthAdjust="spacing" textLength="65.7157" x="341.16" y="543.1158">ll_formula</text><text fill="#000000" font-family="Verdana" font-size="14" lengthAdjust="spacing" textLength="113.8195" x="341.16" y="562.1838">(LLUnit &#8230; LLLolly)</text></g><!--entity COST--><g class="entity" data-qualified-name="COST" data-source-line="39" id="ent0007"><rect fill="#FFECB3" height="77.2038" rx="2.5" ry="2.5" style="stroke:#333333;stroke-width:1;" width="75.5658" x="497.29" y="654.282"/><text fill="#000000" font-family="Verdana" font-size="14" font-style="italic" lengthAdjust="spacing" textLength="38.0519" x="516.047" y="679.2479">&#171;sink&#187;</text><text fill="#000000" font-family="Verdana" font-size="14" lengthAdjust="spacing" textLength="10.892" x="507.29" y="698.3158">&#8469;</text><text fill="#000000" font-family="Verdana" font-size="14" lengthAdjust="spacing" textLength="55.5658" x="507.29" y="717.3838">fuel cost</text></g><!--entity SPENT--><g class="entity" data-qualified-name="SPENT" data-source-line="40" id="ent0008"><rect fill="#FFECB3" height="77.2038" rx="2.5" ry="2.5" style="stroke:#333333;stroke-width:1;" width="124.7896" x="104.68" y="654.282"/><text fill="#000000" font-family="Verdana" font-size="14" font-style="italic" lengthAdjust="spacing" textLength="38.0519" x="148.0489" y="679.2479">&#171;sink&#187;</text><text fill="#000000" font-family="Verdana" font-size="14" lengthAdjust="spacing" textLength="33.5159" x="114.68" y="698.3158">list &#8469;</text><text fill="#000000" font-family="Verdana" font-size="14" lengthAdjust="spacing" textLength="104.7896" x="114.68" y="717.3838">witnesses spent</text></g><g class="entity" data-qualified-name="GMN9" data-source-line="43" id="ent0010"><path d="M776.08,284.062 L776.08,364.886 A0,0 0 0 0 776.08,364.886 L1212.0665,364.886 A0,0 0 0 0 1212.0665,364.886 L1212.0665,294.062 L1202.0665,284.062 L945.89,284.062 L785.59,165.202 L937.89,284.062 L776.08,284.062 A0,0 0 0 0 776.08,284.062" fill="#FFF8E1" style="stroke:#000000;stroke-width:1;"/><path d="M1202.0665,284.062 L1202.0665,294.062 L1212.0665,294.062 L1202.0665,284.062" fill="#FFF8E1" style="stroke:#000000;stroke-width:1;"/><text fill="#000000" font-family="Verdana" font-size="13" lengthAdjust="spacing" textLength="405.3143" x="782.08" y="302.959">F-A: only {Unit, Ground, Quote(=Hash), And} are FUNDING formers</text><text fill="#000000" font-family="Verdana" font-size="13" lengthAdjust="spacing" textLength="414.9865" x="782.08" y="320.665">&#8212; the funding key is funding_sig = Ground(pk) (&#167;D2.9). The other six</text><text fill="#000000" font-family="Verdana" font-size="13" lengthAdjust="spacing" textLength="412.6463" x="782.08" y="338.371">(Plus/With/Bang/WhyNot/Lolly/Threshold) are value/type-logic only.</text><text fill="#000000" font-family="Verdana" font-size="13" lengthAdjust="spacing" textLength="323.1543" x="782.08" y="356.077">Canonical F-A picture: sig-funding-vs-capability.puml.</text></g><g class="entity" data-qualified-name="GMN19" data-source-line="58" id="ent0020"><path d="M410.19,792.482 L410.19,861.048 A0,0 0 0 0 410.19,861.048 L659.9585,861.048 A0,0 0 0 0 659.9585,861.048 L659.9585,802.482 L649.9585,792.482 L539.07,792.482 L535.07,731.682 L531.07,792.482 L410.19,792.482 A0,0 0 0 0 410.19,792.482" fill="#FFFFFF" style="stroke:#000000;stroke-width:1;"/><path d="M649.9585,792.482 L649.9585,802.482 L659.9585,802.482 L649.9585,792.482" fill="#FFFFFF" style="stroke:#000000;stroke-width:1;"/><text fill="#000000" font-family="Verdana" font-size="13" font-weight="700" lengthAdjust="spacing" textLength="213.8761" x="416.19" y="811.379">ll_sig_algebra_required_complete</text><text fill="#000000" font-family="Verdana" font-size="13" lengthAdjust="spacing" textLength="222.7292" x="416.19" y="829.085">ll_required_units (ll_of_sig_algebra s)</text><text fill="#000000" font-family="Verdana" font-size="17" font-weight="700" lengthAdjust="spacing" textLength="228.7685" x="416.19" y="851.067">sig_algebra_min_required s</text></g><g class="entity" data-qualified-name="GMN22" data-source-line="63" id="ent0023"><path d="M11,792.482 L11,861.048 A0,0 0 0 0 11,861.048 L323.1482,861.048 A0,0 0 0 0 323.1482,861.048 L323.1482,802.482 L313.1482,792.482 L171.07,792.482 L167.07,731.682 L163.07,792.482 L11,792.482 A0,0 0 0 0 11,792.482" fill="#FFFFFF" style="stroke:#000000;stroke-width:1;"/><path d="M313.1482,792.482 L313.1482,802.482 L323.1482,802.482 L313.1482,792.482" fill="#FFFFFF" style="stroke:#000000;stroke-width:1;"/><text fill="#000000" font-family="Verdana" font-size="13" font-weight="700" lengthAdjust="spacing" textLength="291.1482" x="17" y="811.379">ll_sig_algebra_consumed_matches_presented</text><text fill="#000000" font-family="Verdana" font-size="13" lengthAdjust="spacing" textLength="241.7222" x="17" y="829.085">ll_consumed_atoms (ll_of_sig_algebra s)</text><text fill="#000000" font-family="Verdana" font-size="17" font-weight="700" lengthAdjust="spacing" textLength="262.7344" x="17" y="851.067">sig_algebra_presented_atoms s</text></g><g class="entity" data-qualified-name="GMN25" data-source-line="68" id="ent0026"><path d="M1247.56,301.772 L1247.56,347.184 L1560.5792,347.184 L1560.5792,311.772 L1550.5792,301.772 L1247.56,301.772" fill="#FFFFFF" style="stroke:#000000;stroke-width:1;"/><path d="M1550.5792,301.772 L1550.5792,311.772 L1560.5792,311.772 L1550.5792,301.772" fill="#FFFFFF" style="stroke:#000000;stroke-width:1;"/><text fill="#000000" font-family="Verdana" font-size="13" font-weight="700" lengthAdjust="spacing" textLength="292.0192" x="1253.56" y="320.669">ll_sig_algebra_threshold_valid_bounds_bridge</text><text fill="#000000" font-family="Verdana" font-size="13" lengthAdjust="spacing" textLength="256.8331" x="1253.56" y="338.375">valid ASThreshold &#10233; 1 &#8804; k &#8804; |members|</text></g><!--link SIG to SA--><g class="link" data-entity-1="ent0002" data-entity-2="ent0004" data-link-type="dependency" data-source-line="49" id="lnk12"><path d="M602.22,152.132 C581.26,163.232 561.81,177.802 548.07,196.872 C529.8,222.242 527.4255,253.2532 529.2455,280.3932" fill="none" id="SIG-to-SA" style="stroke:#1565C0;stroke-width:1;"/><polygon fill="#1565C0" points="529.58,285.382,532.9689,276.1345,529.2455,280.3932,524.9868,276.6698,529.58,285.382" style="stroke:#1565C0;stroke-width:1;stroke-linejoin:miter;stroke-miterlimit:10;"/><text fill="#000000" font-family="Verdana" font-size="11" lengthAdjust="spacing" textLength="147.608" x="549.07" y="209.6309">models (Rocq abstraction of)</text></g><!--link SIG to COST--><g class="link" data-entity-1="ent0002" data-entity-2="ent0007" data-link-type="dependency" data-source-line="50" id="lnk13"><path d="M731.48,165.112 C745.13,256.702 762.76,461.232 678.07,600.282 C654.3,639.312 611.5113,662.7531 577.8113,676.6731" fill="none" id="SIG-to-COST" style="stroke:#C62828;stroke-width:1;stroke-dasharray:7,7;"/><polygon fill="#C62828" points="573.19,678.582,583.0354,678.8431,577.8113,676.6731,579.9812,671.449,573.19,678.582" style="stroke:#C62828;stroke-width:1;stroke-linejoin:miter;stroke-miterlimit:10;"/><text fill="#000000" font-family="Verdana" font-size="11" lengthAdjust="spacing" textLength="121.6701" x="743.4155" y="407.8409">min_required_for (Rust)</text><text fill="#000000" font-family="Verdana" font-size="11" lengthAdjust="spacing" textLength="128.7211" x="739.89" y="422.8228">mirrors clause-for-clause</text></g><!--link SA to LLF--><g class="link" data-entity-1="ent0004" data-entity-2="ent0006" data-link-type="dependency" data-source-line="51" id="lnk14"><path d="M473.18,349.592 C452.88,360.502 432.18,375.452 419.07,395.082 C398.65,425.662 394.7527,463.2124 395.1627,493.6724" fill="none" id="SA-to-LLF" style="stroke:#1565C0;stroke-width:1;"/><polygon fill="#1565C0" points="395.23,498.672,399.1085,489.619,395.1627,493.6724,391.1092,489.7266,395.23,498.672" style="stroke:#1565C0;stroke-width:1;stroke-linejoin:miter;stroke-miterlimit:10;"/><text fill="#000000" font-family="Verdana" font-size="11" font-weight="700" lengthAdjust="spacing" textLength="88.8573" x="420.07" y="407.8409">ll_of_sig_algebra</text><text fill="#000000" font-family="Verdana" font-size="11" lengthAdjust="spacing" textLength="49.1146" x="439.9413" y="422.8228">reflection</text></g><!--link SA to COST--><g class="link" data-entity-1="ent0004" data-entity-2="ent0007" data-link-type="dependency" data-source-line="52" id="lnk15"><path d="M535.07,363.312 C535.07,433.612 535.07,578.632 535.07,648.982" fill="none" id="SA-to-COST" style="stroke:#6A1B9A;stroke-width:1;"/><polygon fill="#6A1B9A" points="535.07,653.982,539.07,644.982,535.07,648.982,531.07,644.982,535.07,653.982" style="stroke:#6A1B9A;stroke-width:1;stroke-linejoin:miter;stroke-miterlimit:10;"/><text fill="#000000" font-family="Verdana" font-size="11" lengthAdjust="spacing" textLength="133.561" x="536.07" y="542.4409">sig_algebra_min_required</text></g><!--link LLF to COST--><g class="link" data-entity-1="ent0006" data-entity-2="ent0007" data-link-type="dependency" data-source-line="53" id="lnk16"><path d="M402.35,576.422 C405.67,592.442 411.58,610.542 422.07,624.282 C441.09,649.172 467.5509,664.7515 492.2809,675.7415" fill="none" id="LLF-to-COST" style="stroke:#6A1B9A;stroke-width:1;"/><polygon fill="#6A1B9A" points="496.85,677.772,490.25,670.4617,492.2809,675.7415,487.0011,677.7724,496.85,677.772" style="stroke:#6A1B9A;stroke-width:1;stroke-linejoin:miter;stroke-miterlimit:10;"/><text fill="#000000" font-family="Verdana" font-size="11" lengthAdjust="spacing" textLength="85.7774" x="423.07" y="621.0409">ll_required_units</text></g><!--link SA to SPENT--><g class="link" data-entity-1="ent0004" data-entity-2="ent0008" data-link-type="dependency" data-source-line="54" id="lnk17"><path d="M473.46,334.252 C376.87,349.412 196.9,383.782 159.07,434.082 C110.76,498.322 132.541,594.4812 150.831,649.0512" fill="none" id="SA-to-SPENT" style="stroke:#2E7D32;stroke-width:1;"/><polygon fill="#2E7D32" points="152.42,653.792,153.3525,643.9874,150.831,649.0512,145.7672,646.5297,152.42,653.792" style="stroke:#2E7D32;stroke-width:1;stroke-linejoin:miter;stroke-miterlimit:10;"/><text fill="#000000" font-family="Verdana" font-size="11" lengthAdjust="spacing" textLength="154.0539" x="160.07" y="542.4409">sig_algebra_presented_atoms</text></g><!--link LLF to SPENT--><g class="link" data-entity-1="ent0006" data-entity-2="ent0008" data-link-type="dependency" data-source-line="55" id="lnk18"><path d="M340.68,576.752 C305.13,600.322 263.8264,627.7077 228.3464,651.2477" fill="none" id="LLF-to-SPENT" style="stroke:#2E7D32;stroke-width:1;"/><polygon fill="#2E7D32" points="224.18,654.012,233.8909,652.3694,228.3464,651.2477,229.4681,645.7032,224.18,654.012" style="stroke:#2E7D32;stroke-width:1;stroke-linejoin:miter;stroke-miterlimit:10;"/><text fill="#000000" font-family="Verdana" font-size="11" lengthAdjust="spacing" textLength="101.8483" x="290.5" y="621.0409">ll_consumed_atoms</text></g><!--link SA to GMN25--><g class="link" data-entity-1="ent0004" data-entity-2="ent0026" data-link-type="association" data-source-line="68" id="lnk27"><path d="M594.17,285.532 C641.34,256.902 710.29,220.392 776.57,204.872 C823.64,193.862 1165.1,191.612 1211.57,204.872 C1277.41,223.662 1342.68,272.162 1377.74,301.302" fill="none" id="SA-GMN25" style="stroke:#000000;stroke-width:1;stroke-dasharray:7,7;"/></g><?plantuml-src ZLHDRzj64BtpLqojYmIOKYKrjcpO0YXASW8GRcevo24AY1MveXPQxZAxIpjg4Y27NdflpxqKxKyeUirFqI_fxChwiAocvK5SOkVDl7dpHj-O6Sqf59mmuUav4mLH98T4veKKL9YHMN0AYYQ6Y8pJdH0z8wcyPoA3AU5wzoPGIjuF9OBPZnIQpPshWYHpab7uu07qy9mfMOeqb5ogYmjLQjFjGcNO2Tkzpg48lH0O09LUhpyOzWv5S6u3e19s1YVXcOsGAgNAtKBbE_Tudmvr-X-SWlvfEFWQf_xfe3qClyQf7mxwuU6-c9YxAiD1s6lliswx1rbxQ_cENZD5eG4to0vKAGpBwH5isDfEjdqTZLWs5jLNWXduyXSy9tfctu58xUibBxLzlsPcDXOzdBBxcYskfGkF9ESBUxYTAQfdagUrdKf4m-Z55LBRCBkHoJiR7afjWYJ19WrDHmjXoFlwdKMkzDgZg5aM4vxHYI98zGolX3QgJ8nKkhP5sNB1eMeH4vIeI6OikQ5QbYgXUbNEYRzNZVDuAbLUSbiiYfmooyz_G1IvRciR7DQBeY4Mt04lV_frBAObvPXH6yTjDJqC3hyVtUx6SeRpSO1xPWJLcchG1LuzXerU3gvlFKz8Gs4YZP4voAaLrZfYs1aqlQ4Vd8CKE8aFbkqnN3dx7CCF9OAgbtQejMCxqqz0q1h3LzVz5zTNODkaIdlBpxy0RZfC4MHNTauNmFJwCqRvuV8XPxMOrw3wvSz-gtvMg-FOAKY4Aj3ilLUrTcbOhpIiLHehdpISR8sjGno7Ey9BsZ2BWlhS3iRnhtiX4LAmX730fg1WYIaLFSVicVz0nx_JVa8ACc6ScKMzA7DUzoZQrGhaULON_qsb-UpaMVZjMx-Bbi3jEeTSffHhg3fFa0dwXoI6IO5QrXoe_gOIdhGwhSxRUjUDoeAOY1LzL-8-fTOK24TdryOYP_WlfZGad9IQ-dZbhuwUBVUeFbh4rh-OTD5OSXhlcFcYCUcEXQ9JJXsNDVWaQFRE0WjsFC3rlmR5kwGyc_qW0ejjc9Te2hrEtXgSzjijfumrrbxo0eT4xLB618scr_cVWZ2_NSCotuJkEzJP7HuQtwsnuMLtWLD3hGuO-OGoL9z81hg6aPV_AWZehHVsDyRjqI52cqPoOf8PrLiLjimUD_i_cUsf-OISOjdCE6x1GM9clJCnhWjBuubTGHrF54kpjMhk1eBHPhzW-TlVq8Jbpx_3tFr-p6a-mJt_kAd-3m00?></g></svg>