<?plantuml 1.2026.2?><svg xmlns="http://www.w3.org/2000/svg" xmlns:xlink="http://www.w3.org/1999/xlink" contentStyleType="text/css" data-diagram-type="DESCRIPTION" height="951px" preserveAspectRatio="none" style="width:915px;height:951px;background:#FFFFFF;" version="1.1" viewBox="0 0 915 951" width="915px" zoomAndPan="magnify"><defs/><g><!--cluster Wire / Rust runtime--><g class="cluster" data-qualified-name="Wire . Rust runtime" data-source-line="24" id="ent0002"><path d="M402.5,11.602 L540.6855,11.602 A3.75,3.75 0 0 1 543.1855,14.102 L550.1855,36.6699 L854.5,36.6699 A2.5,2.5 0 0 1 857,39.1699 L857,178.372 A2.5,2.5 0 0 1 854.5,180.872 L402.5,180.872 A2.5,2.5 0 0 1 400,178.372 L400,14.102 A2.5,2.5 0 0 1 402.5,11.602" fill="#FFE8E8" style="stroke:#444444;stroke-width:1;"/><line style="stroke:#444444;stroke-width:1;" x1="400" x2="550.1855" y1="36.6699" y2="36.6699"/><text fill="#000000" font-family="Verdana" font-size="14" font-weight="bold" lengthAdjust="spacing" textLength="137.1855" x="404" y="28.5679">Wire / Rust runtime</text><text fill="#000000" font-family="Verdana" font-size="14" font-style="italic" lengthAdjust="spacing" textLength="40.1799" x="612.4101" y="53.6358">&#171;Rust&#187;</text></g><!--cluster Rocq ? CostAccountedSyntax.v--><g class="cluster" data-qualified-name="Rocq . CostAccountedSyntax.v" data-source-line="29" id="ent0005"><path d="M373.5,231.872 L594.2851,231.872 A3.75,3.75 0 0 1 596.7851,234.372 L603.7851,256.9399 L704.5,256.9399 A2.5,2.5 0 0 1 707,259.4399 L707,625.382 A2.5,2.5 0 0 1 704.5,627.882 L373.5,627.882 A2.5,2.5 0 0 1 371,625.382 L371,234.372 A2.5,2.5 0 0 1 373.5,231.872" fill="#EEF2FF" style="stroke:#444444;stroke-width:1;"/><line style="stroke:#444444;stroke-width:1;" x1="371" x2="603.7851" y1="256.9399" y2="256.9399"/><text fill="#000000" font-family="Verdana" font-size="14" font-weight="bold" lengthAdjust="spacing" textLength="219.7851" x="375" y="248.8379">Rocq &#8212; CostAccountedSyntax.v</text><text fill="#000000" font-family="Verdana" font-size="14" font-style="italic" lengthAdjust="spacing" textLength="54.4318" x="515.7841" y="273.9058">&#171;Syntax&#187;</text></g><!--cluster Rocq ? LinearLogicResources.v--><g class="cluster" data-qualified-name="Rocq . LinearLogicResources.v" data-source-line="34" id="ent0008"><path d="M13.5,468.152 L233.9492,468.152 A3.75,3.75 0 0 1 236.4492,470.652 L243.4492,493.2199 L344.5,493.2199 A2.5,2.5 0 0 1 347,495.7199 L347,832.122 A2.5,2.5 0 0 1 344.5,834.622 L13.5,834.622 A2.5,2.5 0 0 1 11,832.122 L11,470.652 A2.5,2.5 0 0 1 13.5,468.152" fill="#EEFAF1" style="stroke:#444444;stroke-width:1;"/><line style="stroke:#444444;stroke-width:1;" x1="11" x2="243.4492" y1="493.2199" y2="493.2199"/><text fill="#000000" font-family="Verdana" font-size="14" font-weight="bold" lengthAdjust="spacing" textLength="219.4492" x="15" y="485.1179">Rocq &#8212; LinearLogicResources.v</text><text fill="#000000" font-family="Verdana" font-size="14" font-style="italic" lengthAdjust="spacing" textLength="26.7399" x="169.6301" y="510.1858">&#171;LL&#187;</text></g><!--entity SIG--><g class="entity" data-qualified-name="Wire . Rust runtime.SIG" data-source-line="25" id="ent0003"><rect fill="#FFFFFF" height="96.2717" rx="2.5" ry="2.5" style="stroke:#333333;stroke-width:1;" width="236.6211" x="415.69" y="68.602"/><text fill="#000000" font-family="Verdana" font-size="14" font-style="italic" lengthAdjust="spacing" textLength="83.6637" x="492.1687" y="93.5679">&#171;component&#187;</text><text fill="#000000" font-family="Verdana" font-size="14" lengthAdjust="spacing" textLength="19.9079" x="425.69" y="112.6358">Sig</text><text fill="#000000" font-family="Verdana" font-size="14" lengthAdjust="spacing" textLength="189.2513" x="425.69" y="131.7038">Unit &#183; Hash &#183; And &#183; Plus &#183; With</text><text fill="#000000" font-family="Verdana" font-size="14" lengthAdjust="spacing" textLength="216.6211" x="425.69" y="150.7717">Bang &#183; WhyNot &#183; Lolly &#183; Threshold</text></g><!--entity MRF--><g class="entity" data-qualified-name="Wire . Rust runtime.MRF" data-source-line="26" id="ent0004"><rect fill="#FFFFFF" height="77.2038" rx="2.5" ry="2.5" style="stroke:#333333;stroke-width:1;" width="153.1815" x="687.41" y="78.142"/><text fill="#000000" font-family="Verdana" font-size="14" font-style="italic" lengthAdjust="spacing" textLength="83.6637" x="722.1689" y="103.1079">&#171;component&#187;</text><text fill="#000000" font-family="Verdana" font-size="14" lengthAdjust="spacing" textLength="113.6936" x="697.41" y="122.1758">min_required_for</text><text fill="#000000" font-family="Verdana" font-size="14" lengthAdjust="spacing" textLength="133.1815" x="697.41" y="141.2438">(casper_message.rs)</text></g><!--entity SA--><g class="entity" data-qualified-name="Rocq . CostAccountedSyntax.v.SA" data-source-line="30" id="ent0006"><rect fill="#FFFFFF" height="96.2717" rx="2.5" ry="2.5" style="stroke:#333333;stroke-width:1;" width="303.1489" x="387.43" y="288.872"/><text fill="#000000" font-family="Verdana" font-size="14" font-style="italic" lengthAdjust="spacing" textLength="83.6637" x="497.1726" y="313.8379">&#171;component&#187;</text><text fill="#000000" font-family="Verdana" font-size="14" lengthAdjust="spacing" textLength="75.3617" x="397.43" y="332.9058">sig_algebra</text><text fill="#000000" font-family="Verdana" font-size="14" lengthAdjust="spacing" textLength="272.4109" x="397.43" y="351.9738">ASUnit &#183; ASHash &#183; ASAnd &#183; ASPlus &#183; ASWith</text><text fill="#000000" font-family="Verdana" font-size="14" lengthAdjust="spacing" textLength="283.1489" x="397.43" y="371.0417">ASBang &#183; ASWhyNot &#183; ASLolly &#183; ASThreshold</text></g><!--entity SAMR--><g class="entity" data-qualified-name="Rocq . CostAccountedSyntax.v.SAMR" data-source-line="31" id="ent0007"><rect fill="#FFFFFF" height="77.2038" rx="2.5" ry="2.5" style="stroke:#333333;stroke-width:1;" width="189.9874" x="444.01" y="534.682"/><text fill="#000000" font-family="Verdana" font-size="14" font-style="italic" lengthAdjust="spacing" textLength="83.6637" x="497.1718" y="559.6479">&#171;component&#187;</text><text fill="#000000" font-family="Verdana" font-size="14" lengthAdjust="spacing" textLength="169.9874" x="454.01" y="578.7158">sig_algebra_min_required</text><text fill="#000000" font-family="Verdana" font-size="14" lengthAdjust="spacing" textLength="123.3241" x="454.01" y="597.7838">: sig_algebra &#8594; nat</text></g><!--entity LLF--><g class="entity" data-qualified-name="Rocq . LinearLogicResources.v.LLF" data-source-line="35" id="ent0009"><rect fill="#FFFFFF" height="96.2717" rx="2.5" ry="2.5" style="stroke:#333333;stroke-width:1;" width="303.6669" x="27.17" y="525.152"/><text fill="#000000" font-family="Verdana" font-size="14" font-style="italic" lengthAdjust="spacing" textLength="83.6637" x="137.1716" y="550.1179">&#171;component&#187;</text><text fill="#000000" font-family="Verdana" font-size="14" lengthAdjust="spacing" textLength="65.7157" x="37.17" y="569.1858">ll_formula</text><text fill="#000000" font-family="Verdana" font-size="14" lengthAdjust="spacing" textLength="283.6669" x="37.17" y="588.2538">LLUnit &#183; LLAtom &#183; LLTensor &#183; LLPlus &#183; LLWith</text><text fill="#000000" font-family="Verdana" font-size="14" lengthAdjust="spacing" textLength="275.3089" x="37.17" y="607.3217">LLBang &#183; LLWhyNot &#183; LLLolly &#183; LLThreshold</text></g><!--entity LLRU--><g class="entity" data-qualified-name="Rocq . LinearLogicResources.v.LLRU" data-source-line="36" id="ent0010"><rect fill="#FFFFFF" height="77.2038" rx="2.5" ry="2.5" style="stroke:#333333;stroke-width:1;" width="133.6781" x="175.16" y="741.422"/><text fill="#000000" font-family="Verdana" font-size="14" font-style="italic" lengthAdjust="spacing" textLength="83.6637" x="200.1672" y="766.3879">&#171;component&#187;</text><text fill="#000000" font-family="Verdana" font-size="14" lengthAdjust="spacing" textLength="109.1716" x="185.16" y="785.4558">ll_required_units</text><text fill="#000000" font-family="Verdana" font-size="14" lengthAdjust="spacing" textLength="113.6781" x="185.16" y="804.5238">: ll_formula &#8594; nat</text></g><g class="entity" data-qualified-name="GMN17" data-source-line="48" id="ent0018"><path d="M31.93,881.622 L31.93,944.74 A0,0 0 0 0 31.93,944.74 L452.0767,944.74 A0,0 0 0 0 452.0767,944.74 L452.0767,891.622 L442.0767,881.622 L246,881.622 L242,818.962 L238,881.622 L31.93,881.622 A0,0 0 0 0 31.93,881.622" fill="#FFFFFF" style="stroke:#000000;stroke-width:1;"/><path d="M442.0767,881.622 L442.0767,891.622 L452.0767,891.622 L442.0767,881.622" fill="#FFFFFF" style="stroke:#000000;stroke-width:1;"/><text fill="#000000" font-family="Verdana" font-size="13" lengthAdjust="spacing" textLength="347.5163" x="37.93" y="900.519">Cost = count of atomic witnesses (signatures / fuel units):</text><text fill="#000000" font-family="Verdana" font-size="13" lengthAdjust="spacing" textLength="258.423" x="37.93" y="918.225">Unit &#8594; 0, Hash &#8594; 1, And/With/Lolly &#8594; sum,</text><text fill="#000000" font-family="Verdana" font-size="13" lengthAdjust="spacing" textLength="399.1467" x="37.93" y="935.931">Plus &#8594; chosen branch, Bang &#8594; inner, WhyNot &#8594; 0, Threshold &#8594; k.</text></g><!--link SIG to SA--><g class="link" data-entity-1="ent0003" data-entity-2="ent0006" data-link-type="dependency" data-source-line="39" id="lnk11"><path d="M535.09,165.372 C535.93,201.872 536.9435,246.0035 537.7735,282.4835" fill="none" id="SIG-to-SA" style="stroke:#000000;stroke-width:1;"/><polygon fill="#000000" points="537.91,288.482,541.7042,279.3933,537.7963,283.4833,533.7063,279.5753,537.91,288.482" style="stroke:#000000;stroke-width:1;"/><text fill="#000000" font-family="Verdana" font-size="13" lengthAdjust="spacing" textLength="44.928" x="537.2" y="211.769">models</text></g><!--link SA to LLF--><g class="link" data-entity-1="ent0006" data-entity-2="ent0009" data-link-type="dependency" data-source-line="40" id="lnk12"><path d="M466.15,385.422 C403.79,426.002 319.4891,480.8596 257.0791,521.4696" fill="none" id="SA-to-LLF" style="stroke:#000000;stroke-width:1;"/><polygon fill="#000000" points="252.05,524.742,261.7752,523.1861,256.2409,522.015,257.412,516.4807,252.05,524.742" style="stroke:#000000;stroke-width:1;"/><text fill="#000000" font-family="Verdana" font-size="13" lengthAdjust="spacing" textLength="100.5681" x="413.28" y="430.049">ll_of_sig_algebra</text><text fill="#000000" font-family="Verdana" font-size="13" lengthAdjust="spacing" textLength="65.8451" x="430.6415" y="447.755">(reflection)</text></g><!--link SA to SAMR--><g class="link" data-entity-1="ent0006" data-entity-2="ent0007" data-link-type="dependency" data-source-line="41" id="lnk13"><path d="M539,385.422 C539,429.272 539,487.632 539,528.222" fill="none" id="SA-to-SAMR" style="stroke:#000000;stroke-width:1;"/><polygon fill="#000000" points="539,534.222,543,525.222,539,529.222,535,525.222,539,534.222" style="stroke:#000000;stroke-width:1;"/><text fill="#000000" font-family="Verdana" font-size="13" lengthAdjust="spacing" textLength="77.3761" x="540" y="439.049">runtime cost</text></g><!--link LLF to LLRU--><g class="link" data-entity-1="ent0009" data-entity-2="ent0010" data-link-type="dependency" data-source-line="42" id="lnk14"><path d="M193.61,621.772 C204.77,658.032 218.1739,701.6178 228.5439,735.2878" fill="none" id="LLF-to-LLRU" style="stroke:#000000;stroke-width:1;"/><polygon fill="#000000" points="230.31,741.022,231.4837,731.2433,228.8383,736.2435,223.8381,733.5981,230.31,741.022" style="stroke:#000000;stroke-width:1;"/><text fill="#000000" font-family="Verdana" font-size="13" lengthAdjust="spacing" textLength="65.8841" x="220.82" y="686.819">object cost</text></g><!--link MRF to SAMR--><g class="link" data-entity-1="ent0004" data-entity-2="ent0007" data-link-type="dependency" data-source-line="43" id="lnk15"><path d="M762.26,155.672 C758.46,209.452 746.38,309.682 708,385.152 C677.74,444.652 628.032,495.6718 589.172,530.4318" fill="none" id="MRF-to-SAMR" style="stroke:#000000;stroke-width:1;stroke-dasharray:7,7;"/><polygon fill="#000000" points="584.7,534.432,594.0748,531.4131,588.4267,531.0985,588.7412,525.4504,584.7,534.432" style="stroke:#000000;stroke-width:1;"/><text fill="#000000" font-family="Verdana" font-size="13" lengthAdjust="spacing" textLength="152.1261" x="755.58" y="342.409">mirrors clause-for-clause</text></g><!--link SAMR to LLRU--><g class="link" data-entity-1="ent0007" data-entity-2="ent0010" data-link-type="dependency" data-source-line="45" id="lnk16"><path d="M483.83,612.312 C430.57,649.032 355.3099,700.9065 302.0599,737.6165" fill="none" id="SAMR-to-LLRU" style="stroke:#000000;stroke-width:1;stroke-dasharray:7,7;"/><polygon fill="#000000" points="297.12,741.022,306.8002,739.207,301.2366,738.1841,302.2595,732.6205,297.12,741.022" style="stroke:#000000;stroke-width:1;"/><text fill="#000000" font-family="Verdana" font-size="13" font-weight="bold" lengthAdjust="spacing" textLength="213.8761" x="434.2862" y="666.319">ll_sig_algebra_required_complete</text><text fill="#000000" font-family="Verdana" font-size="13" lengthAdjust="spacing" textLength="222.7292" x="429.8596" y="684.025">ll_required_units (ll_of_sig_algebra s)</text><text fill="#000000" font-family="Verdana" font-size="17" font-weight="bold" lengthAdjust="spacing" textLength="228.7685" x="426.84" y="706.007">sig_algebra_min_required s</text></g><?plantuml-src VPJDRXCn4CVl-nH3UscbV53WK5Lff6sL1II3KBPLBv4YPpF9BlNQgUq58eJ4YGT0l0jt7gLFmemtkqtRj7jPUpoUZv__zWkVOucmKhBGKUIk2xsILfQGcN9bD6gV-hL2i9XvgPSAjrnMChkMIuJl4S0PZPVML7f-RfInWy6uSduu183z91aTZuvt-QHhxUKtyjeVZP9NIRBBHuWG1O9Fd1onZx5pj64Tzj-4B_gng_HTbN4z_3s84pAy3X_5YfhMzguAYz07xWPifNrHuXwqtN7yksnxQR6Sw4jTUFZt5zv9b_C_rdF-VLALu_zLuVE9FYEMOPQlFvhWBenIQnvSv1PTRjISyxJ1APbqaBv_UpzZMUYfnPkAgfnF5yPEz44ctGhjj4Jdg8EUTOSx0dqO9_VQ79li1cv__e5putoSPOJBuxm-dzuN3j2UrOEUNR6SIhN4cPKJ7QTDzt7Qzfzk2CHfmo1EQmfnsd0WIqiYJbiMSVeiZVZ9KgRRO2Rw1BRMuFRNRz3IxupuORoRYoWqIYlCiiZ6w4nbCtGrc23G1r2KuiCeAqLCX6YO215xKzQZ2zIEP1V63HOXQYn2D5Z8SYSGqMAXxSzW4I9vL4shaOfgSGpahiHdU0WnlcGUf3leTeV4Xwx92PHcZif5F6Ch9MGhHJIBwJqz75XSA7ev2gCFMtU6JEwRsqI5EXznY3hK-9BMpEmpxQgNIAhGwxNRoi9QOnraIbOEkzH3jnvIbUp1hfieWzcGQjfMHOk1-rJeST2V3IVw4I0uUDGCkCE9FeMdD0OkYhJn23FZ-P3DeeO7uKR1AOGhnMP9oqK6NmklwOeYvQAOXB-Y4wMNPb6XWb34uGdj3jhX0thPgLyK7Xzr-5NfirhwjIZOwggoGpk2cdYUvSQX1gfKPta7WgRONcYDjjCyFPlOhQ22uReN8LrQRkW_?></g></svg>