<?plantuml 1.2026.2?><svg xmlns="http://www.w3.org/2000/svg" xmlns:xlink="http://www.w3.org/1999/xlink" contentStyleType="text/css" data-diagram-type="SEQUENCE" height="515px" preserveAspectRatio="none" style="width:538px;height:515px;background:#FFFFFF;" version="1.1" viewBox="0 0 538 515" width="538px" zoomAndPan="magnify"><title>Linear modus ponens:  &#963; &#8855; (&#963; &#8888; &#964;) &#8866; &#964;</title><defs/><g><text fill="#000000" font-family="Verdana" font-size="22" font-weight="bold" lengthAdjust="spacing" textLength="412.2778" x="64.0917" y="38.5181">Linear modus ponens:  &#963; &#8855; (&#963; &#8888; &#964;) &#8866; &#964;</text><g class="participant-lifeline" data-entity-uid="part1" data-qualified-name="D" id="part1-lifeline"><g><title>Deployer</title><rect fill="#000000" fill-opacity="0.00000" height="295.3541" width="8" x="38.8129" y="136.032"/><line style="stroke:#000000;stroke-width:1;stroke-dasharray:5,5;" x1="42" x2="42" y1="136.032" y2="431.3862"/></g></g><g class="participant-lifeline" data-entity-uid="part2" data-qualified-name="DELTA" id="part2-lifeline"><g><title>Linear zone .</title><rect fill="#000000" fill-opacity="0.00000" height="295.3541" width="8" x="170.622" y="136.032"/><line style="stroke:#000000;stroke-width:1;stroke-dasharray:5,5;" x1="173.8332" x2="173.8332" y1="136.032" y2="431.3862"/></g></g><g class="participant-lifeline" data-entity-uid="part3" data-qualified-name="CAP" id="part3-lifeline"><g><title>Capability</title><rect fill="#000000" fill-opacity="0.00000" height="295.3541" width="8" x="410.6042" y="136.032"/><line style="stroke:#000000;stroke-width:1;stroke-dasharray:5,5;" x1="414.2013" x2="414.2013" y1="136.032" y2="431.3862"/></g></g><g class="participant participant-head" data-entity-uid="part1" data-qualified-name="D" id="part1-head"><text fill="#000000" font-family="Verdana" font-size="14" lengthAdjust="spacing" textLength="59.6258" x="10" y="131.93">Deployer</text><ellipse cx="42.8129" cy="64.9641" fill="#FFFFFF" rx="8" ry="8" style="stroke:#000000;stroke-width:1;"/><path d="M42.8129,72.9641 L42.8129,99.9641 M29.8129,80.9641 L55.8129,80.9641 M42.8129,99.9641 L29.8129,114.9641 M42.8129,99.9641 L55.8129,114.9641" fill="none" style="stroke:#000000;stroke-width:1;"/></g><g class="participant participant-tail" data-entity-uid="part1" data-qualified-name="D" id="part1-tail"><text fill="#000000" font-family="Verdana" font-size="14" lengthAdjust="spacing" textLength="59.6258" x="10" y="445.3521">Deployer</text><ellipse cx="42.8129" cy="458.4541" fill="#FFFFFF" rx="8" ry="8" style="stroke:#000000;stroke-width:1;"/><path d="M42.8129,466.4541 L42.8129,493.4541 M29.8129,474.4541 L55.8129,474.4541 M42.8129,493.4541 L29.8129,508.4541 M42.8129,493.4541 L55.8129,508.4541" fill="none" style="stroke:#000000;stroke-width:1;"/></g><g class="participant participant-head" data-entity-uid="part2" data-qualified-name="DELTA" id="part2-head"><rect fill="#FFFFFF" height="52.1358" rx="2.5" ry="2.5" style="stroke:#000000;stroke-width:1;" width="109.5776" x="119.8332" y="82.8962"/><text fill="#000000" font-family="Verdana" font-size="14" lengthAdjust="spacing" textLength="88.9556" x="130.1442" y="104.8621">Linear zone &#916;</text><text fill="#000000" font-family="Verdana" font-size="14" lengthAdjust="spacing" textLength="95.5776" x="126.8332" y="123.93">(witness store)</text></g><g class="participant participant-tail" data-entity-uid="part2" data-qualified-name="DELTA" id="part2-tail"><rect fill="#FFFFFF" height="52.1358" rx="2.5" ry="2.5" style="stroke:#000000;stroke-width:1;" width="109.5776" x="119.8332" y="430.3862"/><text fill="#000000" font-family="Verdana" font-size="14" lengthAdjust="spacing" textLength="88.9556" x="130.1442" y="452.3521">Linear zone &#916;</text><text fill="#000000" font-family="Verdana" font-size="14" lengthAdjust="spacing" textLength="95.5776" x="126.8332" y="471.42">(witness store)</text></g><g class="participant participant-head" data-entity-uid="part3" data-qualified-name="CAP" id="part3-head"><rect fill="#FFFFFF" height="52.1358" rx="2.5" ry="2.5" style="stroke:#000000;stroke-width:1;" width="78.8058" x="375.2013" y="82.8962"/><text fill="#000000" font-family="Verdana" font-size="14" lengthAdjust="spacing" textLength="64.8058" x="382.2013" y="104.8621">Capability</text><text fill="#000000" font-family="Verdana" font-size="14" lengthAdjust="spacing" textLength="34.4664" x="397.371" y="123.93">&#963; &#8888; &#964;</text></g><g class="participant participant-tail" data-entity-uid="part3" data-qualified-name="CAP" id="part3-tail"><rect fill="#FFFFFF" height="52.1358" rx="2.5" ry="2.5" style="stroke:#000000;stroke-width:1;" width="78.8058" x="375.2013" y="430.3862"/><text fill="#000000" font-family="Verdana" font-size="14" lengthAdjust="spacing" textLength="64.8058" x="382.2013" y="452.3521">Capability</text><text fill="#000000" font-family="Verdana" font-size="14" lengthAdjust="spacing" textLength="34.4664" x="397.371" y="471.42">&#963; &#8888; &#964;</text></g><g class="message" data-entity-1="part1" data-entity-2="part2" id="msg1"><polygon fill="#000000" points="162.622,165.738,172.622,169.738,162.622,173.738,166.622,169.738" style="stroke:#000000;stroke-width:1;"/><line style="stroke:#000000;stroke-width:1;" x1="42.8129" x2="168.622" y1="169.738" y2="169.738"/><text fill="#000000" font-family="Verdana" font-size="13" lengthAdjust="spacing" textLength="107.8091" x="49.8129" y="163.929">present witness &#963;</text></g><path d="M179,182.738 L179,209.738 L381,209.738 L381,192.738 L371,182.738 L179,182.738" fill="#FFFFFF" style="stroke:#000000;stroke-width:1;"/><path d="M371,182.738 L371,192.738 L381,192.738 L371,182.738" fill="#FFFFFF" style="stroke:#000000;stroke-width:1;"/><text fill="#000000" font-family="Verdana" font-size="13" lengthAdjust="spacing" textLength="181.2722" x="185" y="201.635">&#916; = [&#963;];  cost req(&#963;) accounted</text><g class="message" data-entity-1="part1" data-entity-2="part3" id="msg2"><polygon fill="#000000" points="402.6042,235.1501,412.6042,239.1501,402.6042,243.1501,406.6042,239.1501" style="stroke:#000000;stroke-width:1;"/><line style="stroke:#000000;stroke-width:1;" x1="42.8129" x2="408.6042" y1="239.1501" y2="239.1501"/><text fill="#000000" font-family="Verdana" font-size="13" lengthAdjust="spacing" textLength="81.1721" x="49.8129" y="233.3411">invoke with &#963;</text></g><g class="message" data-entity-1="part3" data-entity-2="part2" id="msg3"><polygon fill="#000000" points="185.622,266.8561,175.622,270.8561,185.622,274.8561,181.622,270.8561" style="stroke:#000000;stroke-width:1;"/><line style="stroke:#000000;stroke-width:1;" x1="179.622" x2="413.6042" y1="270.8561" y2="270.8561"/><text fill="#000000" font-family="Verdana" font-size="13" lengthAdjust="spacing" textLength="215.9822" x="191.622" y="265.0471">consume &#963;  (consume_linear_atom)</text></g><path d="M179,283.8561 L179,310.8561 L378,310.8561 L378,293.8561 L368,283.8561 L179,283.8561" fill="#FFFFFF" style="stroke:#000000;stroke-width:1;"/><path d="M368,283.8561 L368,293.8561 L378,293.8561 L368,283.8561" fill="#FFFFFF" style="stroke:#000000;stroke-width:1;"/><text fill="#000000" font-family="Verdana" font-size="13" lengthAdjust="spacing" textLength="178.4902" x="185" y="302.7531">&#916; = [ ] &#8212; &#963; spent exactly once</text><g class="message" data-entity-1="part3" data-entity-2="part1" id="msg4"><polygon fill="#000000" points="53.8129,336.2681,43.8129,340.2681,53.8129,344.2681,49.8129,340.2681" style="stroke:#000000;stroke-width:1;"/><line style="stroke:#000000;stroke-width:1;stroke-dasharray:2,2;" x1="47.8129" x2="413.6042" y1="340.2681" y2="340.2681"/><text fill="#000000" font-family="Verdana" font-size="13" lengthAdjust="spacing" textLength="38.415" x="59.8129" y="334.4591">yield &#964;</text></g><path d="M296,353.2681 L296,416.2681 L531,416.2681 L531,363.2681 L521,353.2681 L296,353.2681" fill="#FFFFFF" style="stroke:#000000;stroke-width:1;"/><path d="M521,353.2681 L521,363.2681 L531,363.2681 L521,353.2681" fill="#FFFFFF" style="stroke:#000000;stroke-width:1;"/><text fill="#000000" font-family="Verdana" font-size="13" lengthAdjust="spacing" textLength="214.4612" x="302" y="372.1651">ll_lolly_resource_flow_conservative:</text><text fill="#000000" font-family="Verdana" font-size="13" lengthAdjust="spacing" textLength="160.2368" x="302" y="389.8711">req(&#963; &#8888; &#964;) = req(&#963;) + req(&#964;)</text><text fill="#000000" font-family="Verdana" font-size="13" lengthAdjust="spacing" textLength="194.0252" x="302" y="407.5772">&#8212; no resource created ex nihilo</text><?plantuml-src VL4zJW915Ext59zKR8mNm612m8x2max8PXmUCd6OjyuCu5gPG6LDOkyfF0NSWPFuPXU8DbPlT_FzxqMSqPnGMcLS5asqXA5nf3pcF5a4bEp8XGwmN-FmyObsVR-nt-Hol-HccTAHFGPKMgx8GmKCibBvQBGfbOje7HNVH0kxxSYrLoOw2W51Y9ItQihjyBxtbzPNfNeqriHgvCwsDRZVkyko0Qvk6XewA3q54j99UR_E74U2Dq-p29wUWRijkdZOhyVNWEOGuUb5IkLGMlF2HPeqmc8XQEEM_4n9TPOaqyTVfffTMCXw4WxjuqjXwxA5YZpF_ys0CGxlsqGEPOfEhpAahS1EK-EKh0HU6RAJj7IjnalPE0q0M5jOjhOgf3mllAPYQdbLf2JabogQ9NK4rZGy_xRkkV9byxJ91PIYECP92TgJaZ4a5PoP6SiPkGbIWXy0?></g></svg>