<?plantuml 1.2026.2?><svg xmlns="http://www.w3.org/2000/svg" xmlns:xlink="http://www.w3.org/1999/xlink" contentStyleType="text/css" data-diagram-type="DESCRIPTION" height="999px" preserveAspectRatio="none" style="width:1008px;height:999px;background:#FFFFFF;" version="1.1" viewBox="0 0 1008 999" width="1008px" zoomAndPan="magnify"><defs/><g><!--cluster Deploy Pipeline--><g class="cluster" data-qualified-name="Deploy Pipeline" data-source-line="27" id="ent0002"><path d="M136.5,11.602 L245.4116,11.602 A3.75,3.75 0 0 1 247.9116,14.102 L254.9116,36.6699 L317.5,36.6699 A2.5,2.5 0 0 1 320,39.1699 L320,433.582 A2.5,2.5 0 0 1 317.5,436.082 L136.5,436.082 A2.5,2.5 0 0 1 134,433.582 L134,14.102 A2.5,2.5 0 0 1 136.5,11.602" fill="#EEF2FF" style="stroke:#444444;stroke-width:1;"/><line style="stroke:#444444;stroke-width:1;" x1="134" x2="254.9116" y1="36.6699" y2="36.6699"/><text fill="#000000" font-family="Verdana" font-size="14" font-weight="bold" lengthAdjust="spacing" textLength="107.9116" x="138" y="28.5679">Deploy Pipeline</text><text fill="#000000" font-family="Verdana" font-size="14" font-style="italic" lengthAdjust="spacing" textLength="62.3138" x="199.8431" y="53.6358">&#171;Pipeline&#187;</text></g><!--cluster Evaluator (reduce.rs)--><g class="cluster" data-qualified-name="Evaluator .reduce.rs." data-source-line="36" id="ent0008"><path d="M13.5,487.082 L159.9595,487.082 A3.75,3.75 0 0 1 162.4595,489.582 L169.4595,512.1499 L440.5,512.1499 A2.5,2.5 0 0 1 443,514.6499 L443,980.662 A2.5,2.5 0 0 1 440.5,983.162 L13.5,983.162 A2.5,2.5 0 0 1 11,980.662 L11,489.582 A2.5,2.5 0 0 1 13.5,487.082" fill="#FFF7EE" style="stroke:#444444;stroke-width:1;"/><line style="stroke:#444444;stroke-width:1;" x1="11" x2="169.4595" y1="512.1499" y2="512.1499"/><text fill="#000000" font-family="Verdana" font-size="14" font-weight="bold" lengthAdjust="spacing" textLength="145.4595" x="15" y="504.0479">Evaluator (reduce.rs)</text><text fill="#000000" font-family="Verdana" font-size="14" font-style="italic" lengthAdjust="spacing" textLength="72.8137" x="194.5931" y="529.1158">&#171;Evaluator&#187;</text></g><!--cluster Persistent Infrastructure--><g class="cluster" data-qualified-name="Persistent Infrastructure" data-source-line="47" id="ent0016"><path d="M469.5,842.492 L645.3873,842.492 A3.75,3.75 0 0 1 647.8873,844.992 L654.8873,867.5599 L998.5,867.5599 A2.5,2.5 0 0 1 1001,870.0599 L1001,990.192 A2.5,2.5 0 0 1 998.5,992.692 L469.5,992.692 A2.5,2.5 0 0 1 467,990.192 L467,844.992 A2.5,2.5 0 0 1 469.5,842.492" fill="#EEFAF1" style="stroke:#444444;stroke-width:1;"/><line style="stroke:#444444;stroke-width:1;" x1="467" x2="654.8873" y1="867.5599" y2="867.5599"/><text fill="#000000" font-family="Verdana" font-size="14" font-weight="bold" lengthAdjust="spacing" textLength="174.8873" x="471" y="859.4579">Persistent Infrastructure</text><text fill="#000000" font-family="Verdana" font-size="14" font-style="italic" lengthAdjust="spacing" textLength="100.0016" x="687.9992" y="884.5258">&#171;Infrastructure&#187;</text></g><!--entity Parser--><g class="entity" data-qualified-name="Deploy Pipeline.Parser" data-source-line="28" id="ent0003"><rect fill="#FFFFFF" height="58.1358" rx="2.5" ry="2.5" style="stroke:#333333;stroke-width:1;" width="151.0955" x="151.45" y="68.602"/><text fill="#000000" font-family="Verdana" font-size="14" font-style="italic" lengthAdjust="spacing" textLength="83.6637" x="185.1659" y="93.5679">&#171;component&#187;</text><text fill="#000000" font-family="Verdana" font-size="14" lengthAdjust="spacing" textLength="131.0955" x="161.45" y="112.6358">Parser + Normalizer</text></g><!--entity SigAnnot--><g class="entity" data-qualified-name="Deploy Pipeline.SigAnnot" data-source-line="29" id="ent0004"><rect fill="#FFFFFF" height="58.1358" rx="2.5" ry="2.5" style="stroke:#333333;stroke-width:1;" width="154.3715" x="149.81" y="205.742"/><text fill="#000000" font-family="Verdana" font-size="14" font-style="italic" lengthAdjust="spacing" textLength="83.6637" x="185.1639" y="230.7079">&#171;component&#187;</text><text fill="#000000" font-family="Verdana" font-size="14" lengthAdjust="spacing" textLength="134.3715" x="159.81" y="249.7758">Signature Annotator</text></g><!--entity Translator--><g class="entity" data-qualified-name="Deploy Pipeline.Translator" data-source-line="30" id="ent0005"><rect fill="#FFFFFF" height="77.2038" rx="2.5" ry="2.5" style="stroke:#333333;stroke-width:1;" width="146.9235" x="149.54" y="342.882"/><text fill="#000000" font-family="Verdana" font-size="14" font-style="italic" lengthAdjust="spacing" textLength="83.6637" x="181.1699" y="367.8479">&#171;component&#187;</text><text fill="#000000" font-family="Verdana" font-size="14" lengthAdjust="spacing" textLength="126.9235" x="159.54" y="386.9158">Recursive Metering</text><text fill="#000000" font-family="Verdana" font-size="14" lengthAdjust="spacing" textLength="29.7359" x="159.54" y="405.9838">Pass</text></g><!--entity Interp--><g class="entity" data-qualified-name="Evaluator .reduce.rs..Interp" data-source-line="37" id="ent0009"><rect fill="#FFFFFF" height="77.2038" rx="2.5" ry="2.5" style="stroke:#333333;stroke-width:1;" width="225.0152" x="110.49" y="544.082"/><text fill="#000000" font-family="Verdana" font-size="14" font-style="italic" lengthAdjust="spacing" textLength="83.6637" x="181.1657" y="569.0479">&#171;component&#187;</text><text fill="#000000" font-family="Verdana" font-size="14" lengthAdjust="spacing" textLength="130.1855" x="120.49" y="588.1158">DebruijnInterpreter</text><text fill="#000000" font-family="Verdana" font-size="14" lengthAdjust="spacing" textLength="205.0152" x="120.49" y="607.1838">(eval_inner, FuturesUnordered)</text></g><!--entity TokCost--><g class="entity" data-qualified-name="Evaluator .reduce.rs..TokCost" data-source-line="38" id="ent0010"><rect fill="#FFFFFF" height="77.2038" rx="2.5" ry="2.5" style="stroke:#333333;stroke-width:1;" width="174.8954" x="26.55" y="700.282"/><text fill="#000000" font-family="Verdana" font-size="14" font-style="italic" lengthAdjust="spacing" textLength="83.6637" x="72.1658" y="725.2479">&#171;component&#187;</text><text fill="#000000" font-family="Verdana" font-size="14" lengthAdjust="spacing" textLength="88.1996" x="36.55" y="744.3158">TokenBudget</text><text fill="#000000" font-family="Verdana" font-size="14" lengthAdjust="spacing" textLength="154.8954" x="36.55" y="763.3838">(weighted reservations)</text></g><!--entity RSpace--><g class="entity" data-qualified-name="Evaluator .reduce.rs..RSpace" data-source-line="39" id="ent0011"><rect fill="#FFFFFF" height="77.2038" rx="2.5" ry="2.5" style="stroke:#333333;stroke-width:1;" width="170.4994" x="250.75" y="700.282"/><text fill="#000000" font-family="Verdana" font-size="14" font-style="italic" lengthAdjust="spacing" textLength="83.6637" x="294.1678" y="725.2479">&#171;component&#187;</text><text fill="#000000" font-family="Verdana" font-size="14" lengthAdjust="spacing" textLength="103.0256" x="260.75" y="744.3158">RSpace (ISpace)</text><text fill="#000000" font-family="Verdana" font-size="14" lengthAdjust="spacing" textLength="150.4994" x="260.75" y="763.3838">&#8212; raw + metered hook</text></g><!--entity LMDB--><g class="entity" data-qualified-name="Evaluator .reduce.rs..LMDB" data-source-line="40" id="ent0012"><rect fill="#FFFFFF" height="58.1358" rx="2.5" ry="2.5" style="stroke:#333333;stroke-width:1;" width="153.5455" x="252.23" y="909.022"/><text fill="#000000" font-family="Verdana" font-size="14" font-style="italic" lengthAdjust="spacing" textLength="58.5338" x="299.7359" y="933.9879">&#171;artifact&#187;</text><text fill="#000000" font-family="Verdana" font-size="14" lengthAdjust="spacing" textLength="133.5455" x="262.23" y="953.0558">LMDB Backing Store</text></g><!--entity Split--><g class="entity" data-qualified-name="Persistent Infrastructure.Split" data-source-line="48" id="ent0017"><rect fill="#FFFFFF" height="77.2038" rx="2.5" ry="2.5" style="stroke:#333333;stroke-width:1;" width="120.2956" x="864.85" y="899.492"/><text fill="#000000" font-family="Verdana" font-size="14" font-style="italic" lengthAdjust="spacing" textLength="83.6637" x="883.166" y="924.4579">&#171;component&#187;</text><text fill="#000000" font-family="Verdana" font-size="14" lengthAdjust="spacing" textLength="67.5777" x="874.85" y="943.5258">Split(s&#8321;, s&#8322;)</text><text fill="#000000" font-family="Verdana" font-size="14" lengthAdjust="spacing" textLength="100.2956" x="874.85" y="962.5938">mediator procs</text></g><!--entity Join--><g class="entity" data-qualified-name="Persistent Infrastructure.Join" data-source-line="49" id="ent0018"><rect fill="#FFFFFF" height="77.2038" rx="2.5" ry="2.5" style="stroke:#333333;stroke-width:1;" width="120.2956" x="482.85" y="899.492"/><text fill="#000000" font-family="Verdana" font-size="14" font-style="italic" lengthAdjust="spacing" textLength="83.6637" x="501.166" y="924.4579">&#171;component&#187;</text><text fill="#000000" font-family="Verdana" font-size="14" lengthAdjust="spacing" textLength="63.5598" x="492.85" y="943.5258">Join(s&#8321;, s&#8322;)</text><text fill="#000000" font-family="Verdana" font-size="14" lengthAdjust="spacing" textLength="100.2956" x="492.85" y="962.5938">mediator procs</text></g><g class="entity" data-qualified-name="Persistent Infrastructure.GMN19" data-source-line="51" id="ent0020"><path d="M637.66,906.532 L637.66,934.092 L603.43,938.092 L637.66,942.092 L637.66,969.65 A0,0 0 0 0 637.66,969.65 L830.3382,969.65 A0,0 0 0 0 830.3382,969.65 L830.3382,916.532 L820.3382,906.532 L637.66,906.532 A0,0 0 0 0 637.66,906.532" fill="#FFFFFF" style="stroke:#000000;stroke-width:1;"/><path d="M820.3382,906.532 L820.3382,916.532 L830.3382,916.532 L820.3382,906.532" fill="#FFFFFF" style="stroke:#000000;stroke-width:1;"/><text fill="#000000" font-family="Verdana" font-size="13" lengthAdjust="spacing" textLength="154.2711" x="643.66" y="925.429">Installed once at genesis.</text><text fill="#000000" font-family="Verdana" font-size="13" lengthAdjust="spacing" textLength="171.6782" x="643.66" y="943.135">Persistent under PReplicate;</text><text fill="#000000" font-family="Verdana" font-size="13" lengthAdjust="spacing" textLength="117.2211" x="643.66" y="960.841">no per-deploy cost.</text></g><!--link Parser to SigAnnot--><g class="link" data-entity-1="ent0003" data-entity-2="ent0004" data-link-type="dependency" data-source-line="32" id="lnk6"><path d="M227,127.002 C227,150.062 227,176.462 227,199.522" fill="none" id="Parser-to-SigAnnot" style="stroke:#000000;stroke-width:1;"/><polygon fill="#000000" points="227,205.522,231,196.522,227,200.522,223,196.522,227,205.522" style="stroke:#000000;stroke-width:1;"/><text fill="#000000" font-family="Verdana" font-size="13" lengthAdjust="spacing" textLength="53.807" x="228" y="171.639">Plain Par</text></g><!--link SigAnnot to Translator--><g class="link" data-entity-1="ent0004" data-entity-2="ent0005" data-link-type="dependency" data-source-line="33" id="lnk7"><path d="M226.22,264.042 C225.6,286.412 224.8959,311.8743 224.2159,336.4543" fill="none" id="SigAnnot-to-Translator" style="stroke:#000000;stroke-width:1;"/><polygon fill="#000000" points="224.05,342.452,228.2974,333.566,224.1883,337.4539,220.3004,333.3448,224.05,342.452" style="stroke:#000000;stroke-width:1;"/><text fill="#000000" font-family="Verdana" font-size="13" lengthAdjust="spacing" textLength="88.9721" x="226.36" y="308.779">SignedProcess</text></g><!--link Interp to RSpace--><g class="link" data-entity-1="ent0009" data-entity-2="ent0011" data-link-type="dependency" data-source-line="42" id="lnk13"><path d="M254.186,626.242 C271.696,650.142 287.1743,671.2518 304.7043,695.1818" fill="none" id="Interp-RSpace" style="stroke:#000000;stroke-width:1;"/><polygon fill="#000000" points="250.64,621.402,252.7323,631.026,253.595,625.4353,259.1857,626.298,250.64,621.402" style="stroke:#000000;stroke-width:1;"/><polygon fill="#000000" points="308.25,700.022,306.1582,690.3978,305.2952,695.9885,299.7046,695.1255,308.25,700.022" style="stroke:#000000;stroke-width:1;"/><text fill="#000000" font-family="Verdana" font-size="13" lengthAdjust="spacing" textLength="118.3131" x="287.27" y="666.179">produce / consume</text></g><!--link Interp to TokCost--><g class="link" data-entity-1="ent0009" data-entity-2="ent0010" data-link-type="dependency" data-source-line="43" id="lnk14"><path d="M110.15,609.492 C89.96,619.262 71.42,632.732 59,651.282 C48.4,667.122 52.4244,680.2464 65.1744,695.5164" fill="none" id="Interp-to-TokCost" style="stroke:#000000;stroke-width:1;"/><polygon fill="#000000" points="69.02,700.122,66.3221,690.6499,65.8154,696.284,60.1813,695.7773,69.02,700.122" style="stroke:#000000;stroke-width:1;"/><text fill="#000000" font-family="Verdana" font-size="13" lengthAdjust="spacing" textLength="203.9052" x="60" y="666.179">reserve source events / total_cost</text></g><!--link RSpace to LMDB--><g class="link" data-entity-1="ent0011" data-entity-2="ent0012" data-link-type="dependency" data-source-line="44" id="lnk15"><path d="M334.65,777.912 C333.29,816.192 331.4427,868.3558 330.2227,902.7558" fill="none" id="RSpace-to-LMDB" style="stroke:#000000;stroke-width:1;"/><polygon fill="#000000" points="330.01,908.752,334.3265,899.8994,330.1872,903.7551,326.3315,899.6159,330.01,908.752" style="stroke:#000000;stroke-width:1;"/><text fill="#000000" font-family="Verdana" font-size="13" lengthAdjust="spacing" textLength="96.1221" x="334.54" y="822.389">persistent store</text></g><!--link Translator to Interp--><g class="link" data-entity-1="ent0005" data-entity-2="ent0009" data-link-type="dependency" data-source-line="57" id="lnk22"><path d="M223,420.412 C223,455.862 223,502.482 223,537.882" fill="none" id="Translator-to-Interp" style="stroke:#000000;stroke-width:1;"/><polygon fill="#000000" points="223,543.882,227,534.882,223,538.882,219,534.882,223,543.882" style="stroke:#000000;stroke-width:1;"/><text fill="#000000" font-family="Verdana" font-size="13" lengthAdjust="spacing" textLength="131.7551" x="224" y="466.979">Metered Work Queue</text></g><!--link RSpace to Split--><g class="link" data-entity-1="ent0011" data-entity-2="ent0017" data-link-type="dependency" data-source-line="58" id="lnk23"><path d="M421.56,748.112 C548.17,761.542 777.99,791.092 848,834.492 C872.99,849.972 889.624,871.6085 902.834,893.9285" fill="none" id="RSpace-to-Split" style="stroke:#000000;stroke-width:1;"/><polygon fill="#000000" points="905.89,899.092,904.7484,889.3095,903.3434,894.7891,897.8638,893.3841,905.89,899.092" style="stroke:#000000;stroke-width:1;"/><text fill="#000000" font-family="Verdana" font-size="13" lengthAdjust="spacing" textLength="117.4581" x="828.05" y="822.389">reads on N&#10214;s&#8321; &amp; s&#8322;&#10215;</text></g><!--link RSpace to Join--><g class="link" data-entity-1="ent0011" data-entity-2="ent0018" data-link-type="dependency" data-source-line="59" id="lnk24"><path d="M401.62,777.922 C414.91,786.872 428.37,796.912 440,807.492 C470.2,834.942 495.136,866.9059 514.426,894.3059" fill="none" id="RSpace-to-Join" style="stroke:#000000;stroke-width:1;"/><polygon fill="#000000" points="517.88,899.212,515.9698,889.5501,515.0017,895.1235,509.4283,894.1555,517.88,899.212" style="stroke:#000000;stroke-width:1;"/><text fill="#000000" font-family="Verdana" font-size="13" lengthAdjust="spacing" textLength="130.7992" x="460.27" y="822.389">reads on N&#10214;s&#8321;&#10215;, N&#10214;s&#8322;&#10215;</text></g><?plantuml-src XLJRQjj047ttLqmTA0vDMdg1GYe2kLYGqWGrJkbB86obYRArD2jsLmvfARJvXhxdhVqlVqbdLhv8jaFtmHVfdBDppipk4t-39K9LA4szdXjhgfHL9QIch0mX-P6_An0ifbvHNc0BKgbqh7A4xps0G_wTMrDJTcGAOwCeqHKMcd1_7vgrDHp6h-9u4tOuKKMjlB5py5OSns-7mqtO4xgsodbRfxwseYww1_5BmHgReGqus7eJLk_79akRAWvxnarzBPrGpUkmMAitjzm_ngemTp1tsOUEOz5VxjPFb7LeuHcS6LkgGdz3sm_AKRH0CKivQ91TzaZdfCGi710PBpazmcPaW7JvvvZMrka9mYbwj9hoIqgKS_rPOzPaBgmYLyW-FLQQ5R-xkx_G1zY3H0P6NZ9ayLn0IpQZf7RC4cjITAuJuABdCB2OrIa-jsvROcmFmqgEn_Z5rlehdH3xgAoukQG1Ck5A4w7TWRYMeDmd2Yt4B2Yks6lONUKBCqOwhBCSFIlUeivlF6OyzMnzehms9CKjrdfaPdnat6hm8tQBC3W9tzkNDFtv6wowvK4efNRUuCQOSVznsKQXg_hXzFWm32yt4aQS4xOAMrzHfApNroeLIT4KllIrYG4YwTciKkbhPOrq0rxmdkJg4fVGqDt6Q80swI0uKrjcu8JhSqpqFAJ5LThaCPCMRgWyBDu6UIIT5qTEF7Hc8rc-x1vtwURQ1R0o9AEgq7xWflU_Te0_xpdt4ZCTHetDfUwnmoEyhjHxe-d_IkjImcCbFX5ySSeeWRcUFvGq7UTJSFSDSJBAGuw4RFXvUDqoptSJdxpadEyQdIgFxmA0ZAItcpKtaCGiHAGiR2X1jewWv3vhtrvp_ddVpyQEuMEDDVPQxGa1XBQgp75jS3Pz-2FkuMcmFttusuQB7zW4PzpE_4yW_GC0?></g></svg>