<?xml version="1.0" encoding="UTF-8" standalone="no"?>
<!DOCTYPE svg PUBLIC "-//W3C//DTD SVG 1.1//EN"
 "http://www.w3.org/Graphics/SVG/1.1/DTD/svg11.dtd">
<!-- Generated by graphviz version 14.1.5 (0)
 -->
<!-- Title: module_dependency_graph Pages: 1 -->
<svg width="1007pt" height="824pt"
 viewBox="0.00 0.00 1007.00 824.00" xmlns="http://www.w3.org/2000/svg" xmlns:xlink="http://www.w3.org/1999/xlink">
<g id="graph0" class="graph" transform="scale(1 1) rotate(0) translate(4 819.75)">
<title>module_dependency_graph</title>
<text xml:space="preserve" text-anchor="start" x="262.04" y="-799.45" font-family="sans-serif" font-weight="bold" font-size="14.00">Cost&#45;Accounted Rho — 32&#45;module dependency graph (tred&#45;reduced)</text>
<!-- RhoSyntax -->
<g id="node1" class="node">
<title>RhoSyntax</title>
<path fill="#eef2ff" stroke="#333333" stroke-width="1.1" d="M656.15,-716.12C656.15,-716.12 608.87,-716.12 608.87,-716.12 602.87,-716.12 596.87,-710.12 596.87,-704.12 596.87,-704.12 596.87,-692.12 596.87,-692.12 596.87,-686.12 602.87,-680.12 608.87,-680.12 608.87,-680.12 656.15,-680.12 656.15,-680.12 662.15,-680.12 668.15,-686.12 668.15,-692.12 668.15,-692.12 668.15,-704.12 668.15,-704.12 668.15,-710.12 662.15,-716.12 656.15,-716.12"/>
<text xml:space="preserve" text-anchor="middle" x="632.51" y="-695.55" font-family="sans-serif" font-size="11.00">RhoSyntax</text>
</g>
<!-- StructEquivInversion -->
<g id="node2" class="node">
<title>StructEquivInversion</title>
<path fill="#eef2ff" stroke="#333333" stroke-width="1.1" d="M338.02,-568C338.02,-568 238.99,-568 238.99,-568 232.99,-568 226.99,-562 226.99,-556 226.99,-556 226.99,-544 226.99,-544 226.99,-538 232.99,-532 238.99,-532 238.99,-532 338.02,-532 338.02,-532 344.02,-532 350.02,-538 350.02,-544 350.02,-544 350.02,-556 350.02,-556 350.02,-562 344.02,-568 338.02,-568"/>
<text xml:space="preserve" text-anchor="middle" x="288.51" y="-547.42" font-family="sans-serif" font-size="11.00">StructEquivInversion</text>
</g>
<!-- RhoSyntax&#45;&gt;StructEquivInversion -->
<g id="edge1" class="edge">
<title>RhoSyntax&#45;&gt;StructEquivInversion</title>
<path fill="none" stroke="#7a7a7a" stroke-width="0.9" d="M596.34,-681.76C534.18,-655.36 407.02,-601.34 337.16,-571.67"/>
<polygon fill="#7a7a7a" stroke="#7a7a7a" stroke-width="0.9" points="338.41,-569.54 331.01,-569.05 336.49,-574.05 338.41,-569.54"/>
</g>
<!-- CostAccountedSyntax -->
<g id="node3" class="node">
<title>CostAccountedSyntax</title>
<path fill="#e3f2fd" stroke="#333333" stroke-width="1.1" d="M684.27,-492C684.27,-492 580.74,-492 580.74,-492 574.74,-492 568.74,-486 568.74,-480 568.74,-480 568.74,-468 568.74,-468 568.74,-462 574.74,-456 580.74,-456 580.74,-456 684.27,-456 684.27,-456 690.27,-456 696.27,-462 696.27,-468 696.27,-468 696.27,-480 696.27,-480 696.27,-486 690.27,-492 684.27,-492"/>
<text xml:space="preserve" text-anchor="middle" x="632.51" y="-471.43" font-family="sans-serif" font-size="11.00">CostAccountedSyntax</text>
</g>
<!-- RhoSyntax&#45;&gt;CostAccountedSyntax -->
<g id="edge2" class="edge">
<title>RhoSyntax&#45;&gt;CostAccountedSyntax</title>
<path fill="none" stroke="#7a7a7a" stroke-width="0.9" d="M632.51,-679.7C632.51,-640.69 632.51,-546.2 632.51,-500.54"/>
<polygon fill="#7a7a7a" stroke="#7a7a7a" stroke-width="0.9" points="634.96,-500.71 632.51,-493.71 630.06,-500.71 634.96,-500.71"/>
</g>
<!-- WalletNaming -->
<g id="node4" class="node">
<title>WalletNaming</title>
<path fill="#e3f2fd" stroke="#333333" stroke-width="1.1" d="M914.52,-568C914.52,-568 848.49,-568 848.49,-568 842.49,-568 836.49,-562 836.49,-556 836.49,-556 836.49,-544 836.49,-544 836.49,-538 842.49,-532 848.49,-532 848.49,-532 914.52,-532 914.52,-532 920.52,-532 926.52,-538 926.52,-544 926.52,-544 926.52,-556 926.52,-556 926.52,-562 920.52,-568 914.52,-568"/>
<text xml:space="preserve" text-anchor="middle" x="881.51" y="-547.42" font-family="sans-serif" font-size="11.00">WalletNaming</text>
</g>
<!-- RhoSyntax&#45;&gt;WalletNaming -->
<g id="edge3" class="edge">
<title>RhoSyntax&#45;&gt;WalletNaming</title>
<path fill="none" stroke="#7a7a7a" stroke-width="0.9" d="M636.93,-679.68C642.96,-659.48 655.7,-626.6 678.51,-608 721.11,-573.27 783.57,-559.67 827.94,-554.36"/>
<polygon fill="#7a7a7a" stroke="#7a7a7a" stroke-width="0.9" points="827.97,-556.82 834.65,-553.61 827.43,-551.95 827.97,-556.82"/>
</g>
<!-- StructEquivHeads -->
<g id="node5" class="node">
<title>StructEquivHeads</title>
<path fill="#eef2ff" stroke="#333333" stroke-width="1.1" d="M116.15,-492C116.15,-492 32.87,-492 32.87,-492 26.87,-492 20.87,-486 20.87,-480 20.87,-480 20.87,-468 20.87,-468 20.87,-462 26.87,-456 32.87,-456 32.87,-456 116.15,-456 116.15,-456 122.15,-456 128.15,-462 128.15,-468 128.15,-468 128.15,-480 128.15,-480 128.15,-486 122.15,-492 116.15,-492"/>
<text xml:space="preserve" text-anchor="middle" x="74.51" y="-471.43" font-family="sans-serif" font-size="11.00">StructEquivHeads</text>
</g>
<!-- StructEquivInversion&#45;&gt;StructEquivHeads -->
<g id="edge4" class="edge">
<title>StructEquivInversion&#45;&gt;StructEquivHeads</title>
<path fill="none" stroke="#7a7a7a" stroke-width="0.9" d="M237.79,-531.46C206.32,-520.58 165.78,-506.56 132.96,-495.21"/>
<polygon fill="#7a7a7a" stroke="#7a7a7a" stroke-width="0.9" points="133.93,-492.96 126.52,-492.98 132.33,-497.59 133.93,-492.96"/>
</g>
<!-- RhoReduction -->
<g id="node6" class="node">
<title>RhoReduction</title>
<path fill="#eef2ff" stroke="#333333" stroke-width="1.1" d="M321.15,-492C321.15,-492 255.87,-492 255.87,-492 249.87,-492 243.87,-486 243.87,-480 243.87,-480 243.87,-468 243.87,-468 243.87,-462 249.87,-456 255.87,-456 255.87,-456 321.15,-456 321.15,-456 327.15,-456 333.15,-462 333.15,-468 333.15,-468 333.15,-480 333.15,-480 333.15,-486 327.15,-492 321.15,-492"/>
<text xml:space="preserve" text-anchor="middle" x="288.51" y="-471.43" font-family="sans-serif" font-size="11.00">RhoReduction</text>
</g>
<!-- StructEquivInversion&#45;&gt;RhoReduction -->
<g id="edge5" class="edge">
<title>StructEquivInversion&#45;&gt;RhoReduction</title>
<path fill="none" stroke="#7a7a7a" stroke-width="0.9" d="M288.51,-531.46C288.51,-522.25 288.51,-510.78 288.51,-500.59"/>
<polygon fill="#7a7a7a" stroke="#7a7a7a" stroke-width="0.9" points="290.96,-500.77 288.51,-493.77 286.06,-500.77 290.96,-500.77"/>
</g>
<!-- CostAccountedReduction -->
<g id="node8" class="node">
<title>CostAccountedReduction</title>
<path fill="#e3f2fd" stroke="#333333" stroke-width="1.1" d="M509.27,-416C509.27,-416 387.74,-416 387.74,-416 381.74,-416 375.74,-410 375.74,-404 375.74,-404 375.74,-392 375.74,-392 375.74,-386 381.74,-380 387.74,-380 387.74,-380 509.27,-380 509.27,-380 515.27,-380 521.27,-386 521.27,-392 521.27,-392 521.27,-404 521.27,-404 521.27,-410 515.27,-416 509.27,-416"/>
<text xml:space="preserve" text-anchor="middle" x="448.51" y="-395.43" font-family="sans-serif" font-size="11.00">CostAccountedReduction</text>
</g>
<!-- CostAccountedSyntax&#45;&gt;CostAccountedReduction -->
<g id="edge10" class="edge">
<title>CostAccountedSyntax&#45;&gt;CostAccountedReduction</title>
<path fill="none" stroke="#7a7a7a" stroke-width="0.9" d="M588.9,-455.46C562.19,-444.72 527.86,-430.92 499.84,-419.65"/>
<polygon fill="#7a7a7a" stroke="#7a7a7a" stroke-width="0.9" points="500.79,-417.39 493.38,-417.05 498.96,-421.93 500.79,-417.39"/>
</g>
<!-- Translation -->
<g id="node9" class="node">
<title>Translation</title>
<path fill="#e3f2fd" stroke="#333333" stroke-width="1.1" d="M313.65,-416C313.65,-416 263.37,-416 263.37,-416 257.37,-416 251.37,-410 251.37,-404 251.37,-404 251.37,-392 251.37,-392 251.37,-386 257.37,-380 263.37,-380 263.37,-380 313.65,-380 313.65,-380 319.65,-380 325.65,-386 325.65,-392 325.65,-392 325.65,-404 325.65,-404 325.65,-410 319.65,-416 313.65,-416"/>
<text xml:space="preserve" text-anchor="middle" x="288.51" y="-395.43" font-family="sans-serif" font-size="11.00">Translation</text>
</g>
<!-- CostAccountedSyntax&#45;&gt;Translation -->
<g id="edge11" class="edge">
<title>CostAccountedSyntax&#45;&gt;Translation</title>
<path fill="none" stroke="#7a7a7a" stroke-width="0.9" d="M568.28,-459.42C514.18,-447.95 434.75,-431.04 365.51,-416 355.37,-413.8 344.49,-411.41 334.2,-409.14"/>
<polygon fill="#7a7a7a" stroke="#7a7a7a" stroke-width="0.9" points="334.79,-406.76 327.42,-407.65 333.73,-411.55 334.79,-406.76"/>
</g>
<!-- ChannelSeparation -->
<g id="node11" class="node">
<title>ChannelSeparation</title>
<path fill="#e3f2fd" stroke="#333333" stroke-width="1.1" d="M959.9,-264C959.9,-264 869.12,-264 869.12,-264 863.12,-264 857.12,-258 857.12,-252 857.12,-252 857.12,-240 857.12,-240 857.12,-234 863.12,-228 869.12,-228 869.12,-228 959.9,-228 959.9,-228 965.9,-228 971.9,-234 971.9,-240 971.9,-240 971.9,-252 971.9,-252 971.9,-258 965.9,-264 959.9,-264"/>
<text xml:space="preserve" text-anchor="middle" x="914.51" y="-243.43" font-family="sans-serif" font-size="11.00">ChannelSeparation</text>
</g>
<!-- CostAccountedSyntax&#45;&gt;ChannelSeparation -->
<g id="edge12" class="edge">
<title>CostAccountedSyntax&#45;&gt;ChannelSeparation</title>
<path fill="none" stroke="#7a7a7a" stroke-width="0.9" d="M620.88,-455.5C609.32,-435.7 595.34,-403.19 610.51,-380 637.92,-338.08 768.36,-291.74 849.21,-266.33"/>
<polygon fill="#7a7a7a" stroke="#7a7a7a" stroke-width="0.9" points="849.62,-268.77 855.57,-264.35 848.16,-264.09 849.62,-268.77"/>
</g>
<!-- SystemStructEquiv -->
<g id="node12" class="node">
<title>SystemStructEquiv</title>
<path fill="#e3f2fd" stroke="#333333" stroke-width="1.1" d="M720.4,-416C720.4,-416 632.62,-416 632.62,-416 626.62,-416 620.62,-410 620.62,-404 620.62,-404 620.62,-392 620.62,-392 620.62,-386 626.62,-380 632.62,-380 632.62,-380 720.4,-380 720.4,-380 726.4,-380 732.4,-386 732.4,-392 732.4,-392 732.4,-404 732.4,-404 732.4,-410 726.4,-416 720.4,-416"/>
<text xml:space="preserve" text-anchor="middle" x="676.51" y="-395.43" font-family="sans-serif" font-size="11.00">SystemStructEquiv</text>
</g>
<!-- CostAccountedSyntax&#45;&gt;SystemStructEquiv -->
<g id="edge13" class="edge">
<title>CostAccountedSyntax&#45;&gt;SystemStructEquiv</title>
<path fill="none" stroke="#7a7a7a" stroke-width="0.9" d="M642.93,-455.46C648.63,-445.88 655.78,-433.86 662.01,-423.37"/>
<polygon fill="#7a7a7a" stroke="#7a7a7a" stroke-width="0.9" points="663.99,-424.85 665.46,-417.58 659.77,-422.35 663.99,-424.85"/>
</g>
<!-- LinearLogicResources -->
<g id="node13" class="node">
<title>LinearLogicResources</title>
<path fill="#e3f2fd" stroke="#333333" stroke-width="1.1" d="M870.4,-416C870.4,-416 764.62,-416 764.62,-416 758.62,-416 752.62,-410 752.62,-404 752.62,-404 752.62,-392 752.62,-392 752.62,-386 758.62,-380 764.62,-380 764.62,-380 870.4,-380 870.4,-380 876.4,-380 882.4,-386 882.4,-392 882.4,-392 882.4,-404 882.4,-404 882.4,-410 876.4,-416 870.4,-416"/>
<text xml:space="preserve" text-anchor="middle" x="817.51" y="-395.43" font-family="sans-serif" font-size="11.00">LinearLogicResources</text>
</g>
<!-- CostAccountedSyntax&#45;&gt;LinearLogicResources -->
<g id="edge14" class="edge">
<title>CostAccountedSyntax&#45;&gt;LinearLogicResources</title>
<path fill="none" stroke="#7a7a7a" stroke-width="0.9" d="M676.35,-455.46C703.32,-444.67 738.01,-430.8 766.25,-419.5"/>
<polygon fill="#7a7a7a" stroke="#7a7a7a" stroke-width="0.9" points="766.8,-421.92 772.39,-417.05 764.98,-417.37 766.8,-421.92"/>
</g>
<!-- LLIdentities -->
<g id="node14" class="node">
<title>LLIdentities</title>
<path fill="#e3f2fd" stroke="#333333" stroke-width="1.1" d="M968.15,-416C968.15,-416 914.87,-416 914.87,-416 908.87,-416 902.87,-410 902.87,-404 902.87,-404 902.87,-392 902.87,-392 902.87,-386 908.87,-380 914.87,-380 914.87,-380 968.15,-380 968.15,-380 974.15,-380 980.15,-386 980.15,-392 980.15,-392 980.15,-404 980.15,-404 980.15,-410 974.15,-416 968.15,-416"/>
<text xml:space="preserve" text-anchor="middle" x="941.51" y="-395.43" font-family="sans-serif" font-size="11.00">LLIdentities</text>
</g>
<!-- CostAccountedSyntax&#45;&gt;LLIdentities -->
<g id="edge15" class="edge">
<title>CostAccountedSyntax&#45;&gt;LLIdentities</title>
<path fill="none" stroke="#7a7a7a" stroke-width="0.9" d="M696.6,-461.14C749.55,-450.82 826.46,-434.63 892.51,-416 893.21,-415.8 893.91,-415.6 894.62,-415.39"/>
<polygon fill="#7a7a7a" stroke="#7a7a7a" stroke-width="0.9" points="895.03,-417.83 901.02,-413.45 893.61,-413.14 895.03,-417.83"/>
</g>
<!-- MintingInjection -->
<g id="node20" class="node">
<title>MintingInjection</title>
<path fill="#fff3e0" stroke="#333333" stroke-width="1.1" d="M811.52,-264C811.52,-264 733.49,-264 733.49,-264 727.49,-264 721.49,-258 721.49,-252 721.49,-252 721.49,-240 721.49,-240 721.49,-234 727.49,-228 733.49,-228 733.49,-228 811.52,-228 811.52,-228 817.52,-228 823.52,-234 823.52,-240 823.52,-240 823.52,-252 823.52,-252 823.52,-258 817.52,-264 811.52,-264"/>
<text xml:space="preserve" text-anchor="middle" x="772.51" y="-243.43" font-family="sans-serif" font-size="11.00">MintingInjection</text>
</g>
<!-- WalletNaming&#45;&gt;MintingInjection -->
<g id="edge22" class="edge">
<title>WalletNaming&#45;&gt;MintingInjection</title>
<path fill="none" stroke="#7a7a7a" stroke-width="0.9" d="M907.29,-531.68C948.79,-501.55 1022.64,-437.24 990.51,-380 956.86,-320.06 884.01,-283.94 831.78,-264.77"/>
<polygon fill="#7a7a7a" stroke="#7a7a7a" stroke-width="0.9" points="832.61,-262.47 825.19,-262.41 830.96,-267.08 832.61,-262.47"/>
</g>
<!-- TranslationFaithfulness -->
<g id="node7" class="node">
<title>TranslationFaithfulness</title>
<path fill="#fff8e1" stroke="#333333" stroke-width="1.1" d="M223.77,-264C223.77,-264 111.24,-264 111.24,-264 105.24,-264 99.24,-258 99.24,-252 99.24,-252 99.24,-240 99.24,-240 99.24,-234 105.24,-228 111.24,-228 111.24,-228 223.77,-228 223.77,-228 229.77,-228 235.77,-234 235.77,-240 235.77,-240 235.77,-252 235.77,-252 235.77,-258 229.77,-264 223.77,-264"/>
<text xml:space="preserve" text-anchor="middle" x="167.51" y="-243.43" font-family="sans-serif" font-size="11.00">TranslationFaithfulness</text>
</g>
<!-- StructEquivHeads&#45;&gt;TranslationFaithfulness -->
<g id="edge6" class="edge">
<title>StructEquivHeads&#45;&gt;TranslationFaithfulness</title>
<path fill="none" stroke="#7a7a7a" stroke-width="0.9" d="M57.98,-455.58C29.44,-423.33 -22.86,-353.14 11.51,-304 29.71,-277.97 61.13,-263.79 91.03,-256.08"/>
<polygon fill="#7a7a7a" stroke="#7a7a7a" stroke-width="0.9" points="91.44,-258.5 97.67,-254.48 90.29,-253.73 91.44,-258.5"/>
</g>
<!-- RhoReduction&#45;&gt;CostAccountedReduction -->
<g id="edge7" class="edge">
<title>RhoReduction&#45;&gt;CostAccountedReduction</title>
<path fill="none" stroke="#7a7a7a" stroke-width="0.9" d="M326.42,-455.46C349.45,-444.81 378.99,-431.15 403.24,-419.94"/>
<polygon fill="#7a7a7a" stroke="#7a7a7a" stroke-width="0.9" points="404.02,-422.27 409.35,-417.11 401.97,-417.83 404.02,-422.27"/>
</g>
<!-- RhoReduction&#45;&gt;Translation -->
<g id="edge8" class="edge">
<title>RhoReduction&#45;&gt;Translation</title>
<path fill="none" stroke="#7a7a7a" stroke-width="0.9" d="M288.51,-455.46C288.51,-446.25 288.51,-434.78 288.51,-424.59"/>
<polygon fill="#7a7a7a" stroke="#7a7a7a" stroke-width="0.9" points="290.96,-424.77 288.51,-417.77 286.06,-424.77 290.96,-424.77"/>
</g>
<!-- WeakBarbedEquiv -->
<g id="node10" class="node">
<title>WeakBarbedEquiv</title>
<path fill="#fce4ec" stroke="#333333" stroke-width="1.1" d="M119.65,-340C119.65,-340 33.37,-340 33.37,-340 27.37,-340 21.37,-334 21.37,-328 21.37,-328 21.37,-316 21.37,-316 21.37,-310 27.37,-304 33.37,-304 33.37,-304 119.65,-304 119.65,-304 125.65,-304 131.65,-310 131.65,-316 131.65,-316 131.65,-328 131.65,-328 131.65,-334 125.65,-340 119.65,-340"/>
<text xml:space="preserve" text-anchor="middle" x="76.51" y="-319.43" font-family="sans-serif" font-size="11.00">WeakBarbedEquiv</text>
</g>
<!-- RhoReduction&#45;&gt;WeakBarbedEquiv -->
<g id="edge9" class="edge">
<title>RhoReduction&#45;&gt;WeakBarbedEquiv</title>
<path fill="none" stroke="#7a7a7a" stroke-width="0.9" d="M263.77,-455.5C225.08,-428.12 150.27,-375.19 107.85,-345.18"/>
<polygon fill="#7a7a7a" stroke="#7a7a7a" stroke-width="0.9" points="109.32,-343.22 102.2,-341.18 106.49,-347.22 109.32,-343.22"/>
</g>
<!-- UseCaseAdequacy -->
<g id="node19" class="node">
<title>UseCaseAdequacy</title>
<path fill="#f3e5f5" stroke="#333333" stroke-width="1.1" d="M542.65,-36C542.65,-36 456.37,-36 456.37,-36 450.37,-36 444.37,-30 444.37,-24 444.37,-24 444.37,-12 444.37,-12 444.37,-6 450.37,0 456.37,0 456.37,0 542.65,0 542.65,0 548.65,0 554.65,-6 554.65,-12 554.65,-12 554.65,-24 554.65,-24 554.65,-30 548.65,-36 542.65,-36"/>
<text xml:space="preserve" text-anchor="middle" x="499.51" y="-15.43" font-family="sans-serif" font-size="11.00">UseCaseAdequacy</text>
</g>
<!-- TranslationFaithfulness&#45;&gt;UseCaseAdequacy -->
<g id="edge32" class="edge">
<title>TranslationFaithfulness&#45;&gt;UseCaseAdequacy</title>
<path fill="none" stroke="#7a7a7a" stroke-width="0.9" d="M174.75,-227.48C191.2,-188.48 232,-96.34 258.51,-76 309.58,-36.81 383.36,-23.96 435.81,-20.05"/>
<polygon fill="#7a7a7a" stroke="#7a7a7a" stroke-width="0.9" points="435.86,-22.5 442.68,-19.59 435.53,-17.61 435.86,-22.5"/>
</g>
<!-- Bisimulation -->
<g id="node25" class="node">
<title>Bisimulation</title>
<path fill="#fff8e1" stroke="#333333" stroke-width="1.1" d="M169.77,-188C169.77,-188 111.24,-188 111.24,-188 105.24,-188 99.24,-182 99.24,-176 99.24,-176 99.24,-164 99.24,-164 99.24,-158 105.24,-152 111.24,-152 111.24,-152 169.77,-152 169.77,-152 175.77,-152 181.77,-158 181.77,-164 181.77,-164 181.77,-176 181.77,-176 181.77,-182 175.77,-188 169.77,-188"/>
<text xml:space="preserve" text-anchor="middle" x="140.51" y="-167.43" font-family="sans-serif" font-size="11.00">Bisimulation</text>
</g>
<!-- TranslationFaithfulness&#45;&gt;Bisimulation -->
<g id="edge31" class="edge">
<title>TranslationFaithfulness&#45;&gt;Bisimulation</title>
<path fill="none" stroke="#7a7a7a" stroke-width="0.9" d="M161.11,-227.46C157.68,-218.06 153.39,-206.32 149.62,-195.98"/>
<polygon fill="#7a7a7a" stroke="#7a7a7a" stroke-width="0.9" points="152.03,-195.43 147.33,-189.69 147.42,-197.11 152.03,-195.43"/>
</g>
<!-- TokenConservation -->
<g id="node15" class="node">
<title>TokenConservation</title>
<path fill="#e8f5e9" stroke="#333333" stroke-width="1.1" d="M565.27,-340C565.27,-340 473.74,-340 473.74,-340 467.74,-340 461.74,-334 461.74,-328 461.74,-328 461.74,-316 461.74,-316 461.74,-310 467.74,-304 473.74,-304 473.74,-304 565.27,-304 565.27,-304 571.27,-304 577.27,-310 577.27,-316 577.27,-316 577.27,-328 577.27,-328 577.27,-334 571.27,-340 565.27,-340"/>
<text xml:space="preserve" text-anchor="middle" x="519.51" y="-319.43" font-family="sans-serif" font-size="11.00">TokenConservation</text>
</g>
<!-- CostAccountedReduction&#45;&gt;TokenConservation -->
<g id="edge16" class="edge">
<title>CostAccountedReduction&#45;&gt;TokenConservation</title>
<path fill="none" stroke="#7a7a7a" stroke-width="0.9" d="M465.33,-379.46C474.88,-369.51 486.95,-356.93 497.27,-346.17"/>
<polygon fill="#7a7a7a" stroke="#7a7a7a" stroke-width="0.9" points="498.78,-348.14 501.86,-341.39 495.24,-344.75 498.78,-348.14"/>
</g>
<!-- FuelEventDecomposition -->
<g id="node16" class="node">
<title>FuelEventDecomposition</title>
<path fill="#e8f5e9" stroke="#333333" stroke-width="1.1" d="M409.27,-264C409.27,-264 287.74,-264 287.74,-264 281.74,-264 275.74,-258 275.74,-252 275.74,-252 275.74,-240 275.74,-240 275.74,-234 281.74,-228 287.74,-228 287.74,-228 409.27,-228 409.27,-228 415.27,-228 421.27,-234 421.27,-240 421.27,-240 421.27,-252 421.27,-252 421.27,-258 415.27,-264 409.27,-264"/>
<text xml:space="preserve" text-anchor="middle" x="348.51" y="-243.43" font-family="sans-serif" font-size="11.00">FuelEventDecomposition</text>
</g>
<!-- CostAccountedReduction&#45;&gt;FuelEventDecomposition -->
<g id="edge17" class="edge">
<title>CostAccountedReduction&#45;&gt;FuelEventDecomposition</title>
<path fill="none" stroke="#7a7a7a" stroke-width="0.9" d="M443.7,-379.8C437.72,-360.26 426.21,-328 409.51,-304 400.71,-291.37 388.72,-279.41 377.7,-269.74"/>
<polygon fill="#7a7a7a" stroke="#7a7a7a" stroke-width="0.9" points="379.3,-267.89 372.39,-265.21 376.12,-271.62 379.3,-267.89"/>
</g>
<!-- Translation&#45;&gt;TranslationFaithfulness -->
<g id="edge19" class="edge">
<title>Translation&#45;&gt;TranslationFaithfulness</title>
<path fill="none" stroke="#7a7a7a" stroke-width="0.9" d="M250.99,-385.99C227.92,-377.26 199.76,-362.67 183.51,-340 169.48,-320.43 166.28,-292.67 166.11,-272.58"/>
<polygon fill="#7a7a7a" stroke="#7a7a7a" stroke-width="0.9" points="168.55,-272.87 166.18,-265.84 163.65,-272.82 168.55,-272.87"/>
</g>
<!-- SyntacticSugar -->
<g id="node17" class="node">
<title>SyntacticSugar</title>
<path fill="#e3f2fd" stroke="#333333" stroke-width="1.1" d="M273.65,-340C273.65,-340 205.37,-340 205.37,-340 199.37,-340 193.37,-334 193.37,-328 193.37,-328 193.37,-316 193.37,-316 193.37,-310 199.37,-304 205.37,-304 205.37,-304 273.65,-304 273.65,-304 279.65,-304 285.65,-310 285.65,-316 285.65,-316 285.65,-328 285.65,-328 285.65,-334 279.65,-340 273.65,-340"/>
<text xml:space="preserve" text-anchor="middle" x="239.51" y="-319.43" font-family="sans-serif" font-size="11.00">SyntacticSugar</text>
</g>
<!-- Translation&#45;&gt;SyntacticSugar -->
<g id="edge18" class="edge">
<title>Translation&#45;&gt;SyntacticSugar</title>
<path fill="none" stroke="#7a7a7a" stroke-width="0.9" d="M276.89,-379.46C270.55,-369.88 262.59,-357.86 255.65,-347.37"/>
<polygon fill="#7a7a7a" stroke="#7a7a7a" stroke-width="0.9" points="257.7,-346.03 251.79,-341.55 253.61,-348.74 257.7,-346.03"/>
</g>
<!-- FuelGateSafety -->
<g id="node18" class="node">
<title>FuelGateSafety</title>
<path fill="#fff8e1" stroke="#333333" stroke-width="1.1" d="M387.4,-340C387.4,-340 317.62,-340 317.62,-340 311.62,-340 305.62,-334 305.62,-328 305.62,-328 305.62,-316 305.62,-316 305.62,-310 311.62,-304 317.62,-304 317.62,-304 387.4,-304 387.4,-304 393.4,-304 399.4,-310 399.4,-316 399.4,-316 399.4,-328 399.4,-328 399.4,-334 393.4,-340 387.4,-340"/>
<text xml:space="preserve" text-anchor="middle" x="352.51" y="-319.43" font-family="sans-serif" font-size="11.00">FuelGateSafety</text>
</g>
<!-- Translation&#45;&gt;FuelGateSafety -->
<g id="edge20" class="edge">
<title>Translation&#45;&gt;FuelGateSafety</title>
<path fill="none" stroke="#7a7a7a" stroke-width="0.9" d="M303.67,-379.46C312.2,-369.6 322.96,-357.16 332.21,-346.47"/>
<polygon fill="#7a7a7a" stroke="#7a7a7a" stroke-width="0.9" points="333.83,-348.34 336.56,-341.44 330.13,-345.13 333.83,-348.34"/>
</g>
<!-- Replication -->
<g id="node26" class="node">
<title>Replication</title>
<path fill="#fce4ec" stroke="#333333" stroke-width="1.1" d="M129.65,-112C129.65,-112 79.37,-112 79.37,-112 73.37,-112 67.37,-106 67.37,-100 67.37,-100 67.37,-88 67.37,-88 67.37,-82 73.37,-76 79.37,-76 79.37,-76 129.65,-76 129.65,-76 135.65,-76 141.65,-82 141.65,-88 141.65,-88 141.65,-100 141.65,-100 141.65,-106 135.65,-112 129.65,-112"/>
<text xml:space="preserve" text-anchor="middle" x="104.51" y="-91.42" font-family="sans-serif" font-size="11.00">Replication</text>
</g>
<!-- WeakBarbedEquiv&#45;&gt;Replication -->
<g id="edge41" class="edge">
<title>WeakBarbedEquiv&#45;&gt;Replication</title>
<path fill="none" stroke="#7a7a7a" stroke-width="0.9" d="M76.81,-303.6C77.58,-272.82 80.26,-206.84 89.51,-152 91.27,-141.52 94.08,-130.15 96.79,-120.35"/>
<polygon fill="#7a7a7a" stroke="#7a7a7a" stroke-width="0.9" points="99.08,-121.25 98.64,-113.85 94.36,-119.91 99.08,-121.25"/>
</g>
<!-- ChannelSeparation&#45;&gt;UseCaseAdequacy -->
<g id="edge21" class="edge">
<title>ChannelSeparation&#45;&gt;UseCaseAdequacy</title>
<path fill="none" stroke="#7a7a7a" stroke-width="0.9" d="M921.84,-227.61C934.78,-193.83 956.97,-118.89 919.51,-76 896.43,-49.57 674.61,-30.89 562.99,-23.07"/>
<polygon fill="#7a7a7a" stroke="#7a7a7a" stroke-width="0.9" points="563.34,-20.64 556.19,-22.6 563,-25.53 563.34,-20.64"/>
</g>
<!-- TokenConservation&#45;&gt;TranslationFaithfulness -->
<g id="edge24" class="edge">
<title>TokenConservation&#45;&gt;TranslationFaithfulness</title>
<path fill="none" stroke="#7a7a7a" stroke-width="0.9" d="M461.38,-308.78C401.99,-296.3 309.46,-276.84 244.12,-263.11"/>
<polygon fill="#7a7a7a" stroke="#7a7a7a" stroke-width="0.9" points="244.98,-260.78 237.63,-261.74 243.97,-265.58 244.98,-260.78"/>
</g>
<!-- TokenConservation&#45;&gt;MintingInjection -->
<g id="edge26" class="edge">
<title>TokenConservation&#45;&gt;MintingInjection</title>
<path fill="none" stroke="#7a7a7a" stroke-width="0.9" d="M577.55,-304.02C618.17,-292.14 672.27,-276.32 713.17,-264.36"/>
<polygon fill="#7a7a7a" stroke="#7a7a7a" stroke-width="0.9" points="713.83,-266.72 719.86,-262.4 712.45,-262.01 713.83,-266.72"/>
</g>
<!-- StrongNormalization -->
<g id="node21" class="node">
<title>StrongNormalization</title>
<path fill="#e8f5e9" stroke="#333333" stroke-width="1.1" d="M564.15,-264C564.15,-264 462.87,-264 462.87,-264 456.87,-264 450.87,-258 450.87,-252 450.87,-252 450.87,-240 450.87,-240 450.87,-234 456.87,-228 462.87,-228 462.87,-228 564.15,-228 564.15,-228 570.15,-228 576.15,-234 576.15,-240 576.15,-240 576.15,-252 576.15,-252 576.15,-258 570.15,-264 564.15,-264"/>
<text xml:space="preserve" text-anchor="middle" x="513.51" y="-243.43" font-family="sans-serif" font-size="11.00">StrongNormalization</text>
</g>
<!-- TokenConservation&#45;&gt;StrongNormalization -->
<g id="edge23" class="edge">
<title>TokenConservation&#45;&gt;StrongNormalization</title>
<path fill="none" stroke="#7a7a7a" stroke-width="0.9" d="M518.08,-303.46C517.34,-294.25 516.41,-282.78 515.58,-272.59"/>
<polygon fill="#7a7a7a" stroke="#7a7a7a" stroke-width="0.9" points="518.04,-272.55 515.03,-265.77 513.15,-272.94 518.04,-272.55"/>
</g>
<!-- Settlement -->
<g id="node22" class="node">
<title>Settlement</title>
<path fill="#fff3e0" stroke="#333333" stroke-width="1.1" d="M652.9,-188C652.9,-188 604.12,-188 604.12,-188 598.12,-188 592.12,-182 592.12,-176 592.12,-176 592.12,-164 592.12,-164 592.12,-158 598.12,-152 604.12,-152 604.12,-152 652.9,-152 652.9,-152 658.9,-152 664.9,-158 664.9,-164 664.9,-164 664.9,-176 664.9,-176 664.9,-182 658.9,-188 652.9,-188"/>
<text xml:space="preserve" text-anchor="middle" x="628.51" y="-167.43" font-family="sans-serif" font-size="11.00">Settlement</text>
</g>
<!-- TokenConservation&#45;&gt;Settlement -->
<g id="edge25" class="edge">
<title>TokenConservation&#45;&gt;Settlement</title>
<path fill="none" stroke="#7a7a7a" stroke-width="0.9" d="M545.17,-303.48C558.79,-293.2 575.03,-279.25 586.51,-264 602.14,-243.22 613.65,-215.7 620.63,-195.99"/>
<polygon fill="#7a7a7a" stroke="#7a7a7a" stroke-width="0.9" points="622.86,-197.04 622.82,-189.62 618.23,-195.45 622.86,-197.04"/>
</g>
<!-- FuelEventDecomposition&#45;&gt;UseCaseAdequacy -->
<g id="edge27" class="edge">
<title>FuelEventDecomposition&#45;&gt;UseCaseAdequacy</title>
<path fill="none" stroke="#7a7a7a" stroke-width="0.9" d="M330.04,-227.68C297.74,-195.29 237.84,-124.45 275.51,-76 295.09,-50.81 376.78,-34.92 435.85,-26.5"/>
<polygon fill="#7a7a7a" stroke="#7a7a7a" stroke-width="0.9" points="436.09,-28.94 442.68,-25.55 435.41,-24.09 436.09,-28.94"/>
</g>
<!-- MintingHalt -->
<g id="node30" class="node">
<title>MintingHalt</title>
<path fill="#fff3e0" stroke="#333333" stroke-width="1.1" d="M772.52,-188C772.52,-188 718.49,-188 718.49,-188 712.49,-188 706.49,-182 706.49,-176 706.49,-176 706.49,-164 706.49,-164 706.49,-158 712.49,-152 718.49,-152 718.49,-152 772.52,-152 772.52,-152 778.52,-152 784.52,-158 784.52,-164 784.52,-164 784.52,-176 784.52,-176 784.52,-182 778.52,-188 772.52,-188"/>
<text xml:space="preserve" text-anchor="middle" x="745.51" y="-167.43" font-family="sans-serif" font-size="11.00">MintingHalt</text>
</g>
<!-- MintingInjection&#45;&gt;MintingHalt -->
<g id="edge39" class="edge">
<title>MintingInjection&#45;&gt;MintingHalt</title>
<path fill="none" stroke="#7a7a7a" stroke-width="0.9" d="M766.11,-227.46C762.68,-218.06 758.39,-206.32 754.62,-195.98"/>
<polygon fill="#7a7a7a" stroke="#7a7a7a" stroke-width="0.9" points="757.03,-195.43 752.33,-189.69 752.42,-197.11 757.03,-195.43"/>
</g>
<!-- Exchange -->
<g id="node31" class="node">
<title>Exchange</title>
<path fill="#fff3e0" stroke="#333333" stroke-width="1.1" d="M858.52,-188C858.52,-188 816.49,-188 816.49,-188 810.49,-188 804.49,-182 804.49,-176 804.49,-176 804.49,-164 804.49,-164 804.49,-158 810.49,-152 816.49,-152 816.49,-152 858.52,-152 858.52,-152 864.52,-152 870.52,-158 870.52,-164 870.52,-164 870.52,-176 870.52,-176 870.52,-182 864.52,-188 858.52,-188"/>
<text xml:space="preserve" text-anchor="middle" x="837.51" y="-167.43" font-family="sans-serif" font-size="11.00">Exchange</text>
</g>
<!-- MintingInjection&#45;&gt;Exchange -->
<g id="edge40" class="edge">
<title>MintingInjection&#45;&gt;Exchange</title>
<path fill="none" stroke="#7a7a7a" stroke-width="0.9" d="M787.91,-227.46C796.57,-217.6 807.5,-205.16 816.89,-194.47"/>
<polygon fill="#7a7a7a" stroke="#7a7a7a" stroke-width="0.9" points="818.54,-196.31 821.31,-189.43 814.85,-193.08 818.54,-196.31"/>
</g>
<!-- Confluence -->
<g id="node23" class="node">
<title>Confluence</title>
<path fill="#e8f5e9" stroke="#333333" stroke-width="1.1" d="M473.02,-188C473.02,-188 421.99,-188 421.99,-188 415.99,-188 409.99,-182 409.99,-176 409.99,-176 409.99,-164 409.99,-164 409.99,-158 415.99,-152 421.99,-152 421.99,-152 473.02,-152 473.02,-152 479.02,-152 485.02,-158 485.02,-164 485.02,-164 485.02,-176 485.02,-176 485.02,-182 479.02,-188 473.02,-188"/>
<text xml:space="preserve" text-anchor="middle" x="447.51" y="-167.43" font-family="sans-serif" font-size="11.00">Confluence</text>
</g>
<!-- StrongNormalization&#45;&gt;Confluence -->
<g id="edge28" class="edge">
<title>StrongNormalization&#45;&gt;Confluence</title>
<path fill="none" stroke="#7a7a7a" stroke-width="0.9" d="M497.87,-227.46C489.07,-217.6 477.98,-205.16 468.44,-194.47"/>
<polygon fill="#7a7a7a" stroke="#7a7a7a" stroke-width="0.9" points="470.43,-193.02 463.94,-189.43 466.77,-196.28 470.43,-193.02"/>
</g>
<!-- SlashingComposition -->
<g id="node27" class="node">
<title>SlashingComposition</title>
<path fill="#fff3e0" stroke="#333333" stroke-width="1.1" d="M719.9,-112C719.9,-112 617.12,-112 617.12,-112 611.12,-112 605.12,-106 605.12,-100 605.12,-100 605.12,-88 605.12,-88 605.12,-82 611.12,-76 617.12,-76 617.12,-76 719.9,-76 719.9,-76 725.9,-76 731.9,-82 731.9,-88 731.9,-88 731.9,-100 731.9,-100 731.9,-106 725.9,-112 719.9,-112"/>
<text xml:space="preserve" text-anchor="middle" x="668.51" y="-91.42" font-family="sans-serif" font-size="11.00">SlashingComposition</text>
</g>
<!-- Settlement&#45;&gt;SlashingComposition -->
<g id="edge34" class="edge">
<title>Settlement&#45;&gt;SlashingComposition</title>
<path fill="none" stroke="#7a7a7a" stroke-width="0.9" d="M637.99,-151.46C643.12,-141.97 649.54,-130.09 655.17,-119.68"/>
<polygon fill="#7a7a7a" stroke="#7a7a7a" stroke-width="0.9" points="657.27,-120.93 658.45,-113.61 652.96,-118.6 657.27,-120.93"/>
</g>
<!-- MergeableChannelAccounting -->
<g id="node28" class="node">
<title>MergeableChannelAccounting</title>
<path fill="#fff3e0" stroke="#333333" stroke-width="1.1" d="M573.4,-112C573.4,-112 425.62,-112 425.62,-112 419.62,-112 413.62,-106 413.62,-100 413.62,-100 413.62,-88 413.62,-88 413.62,-82 419.62,-76 425.62,-76 425.62,-76 573.4,-76 573.4,-76 579.4,-76 585.4,-82 585.4,-88 585.4,-88 585.4,-100 585.4,-100 585.4,-106 579.4,-112 573.4,-112"/>
<text xml:space="preserve" text-anchor="middle" x="499.51" y="-91.42" font-family="sans-serif" font-size="11.00">MergeableChannelAccounting</text>
</g>
<!-- Settlement&#45;&gt;MergeableChannelAccounting -->
<g id="edge35" class="edge">
<title>Settlement&#45;&gt;MergeableChannelAccounting</title>
<path fill="none" stroke="#7a7a7a" stroke-width="0.9" d="M597.94,-151.46C579.7,-141 556.41,-127.64 537.06,-116.54"/>
<polygon fill="#7a7a7a" stroke="#7a7a7a" stroke-width="0.9" points="538.33,-114.45 531.04,-113.09 535.89,-118.7 538.33,-114.45"/>
</g>
<!-- RuntimeBudgetRefinement -->
<g id="node29" class="node">
<title>RuntimeBudgetRefinement</title>
<path fill="#f3e5f5" stroke="#333333" stroke-width="1.1" d="M897.27,-112C897.27,-112 763.74,-112 763.74,-112 757.74,-112 751.74,-106 751.74,-100 751.74,-100 751.74,-88 751.74,-88 751.74,-82 757.74,-76 763.74,-76 763.74,-76 897.27,-76 897.27,-76 903.27,-76 909.27,-82 909.27,-88 909.27,-88 909.27,-100 909.27,-100 909.27,-106 903.27,-112 897.27,-112"/>
<text xml:space="preserve" text-anchor="middle" x="830.51" y="-91.42" font-family="sans-serif" font-size="11.00">RuntimeBudgetRefinement</text>
</g>
<!-- Settlement&#45;&gt;RuntimeBudgetRefinement -->
<g id="edge36" class="edge">
<title>Settlement&#45;&gt;RuntimeBudgetRefinement</title>
<path fill="none" stroke="#7a7a7a" stroke-width="0.9" d="M665.09,-155.6C695.74,-144.37 739.98,-128.16 775,-115.34"/>
<polygon fill="#7a7a7a" stroke="#7a7a7a" stroke-width="0.9" points="775.76,-117.66 781.49,-112.96 774.08,-113.06 775.76,-117.66"/>
</g>
<!-- StepDeterminism -->
<g id="node24" class="node">
<title>StepDeterminism</title>
<path fill="#e8f5e9" stroke="#333333" stroke-width="1.1" d="M381.15,-112C381.15,-112 297.87,-112 297.87,-112 291.87,-112 285.87,-106 285.87,-100 285.87,-100 285.87,-88 285.87,-88 285.87,-82 291.87,-76 297.87,-76 297.87,-76 381.15,-76 381.15,-76 387.15,-76 393.15,-82 393.15,-88 393.15,-88 393.15,-100 393.15,-100 393.15,-106 387.15,-112 381.15,-112"/>
<text xml:space="preserve" text-anchor="middle" x="339.51" y="-91.42" font-family="sans-serif" font-size="11.00">StepDeterminism</text>
</g>
<!-- Confluence&#45;&gt;StepDeterminism -->
<g id="edge29" class="edge">
<title>Confluence&#45;&gt;StepDeterminism</title>
<path fill="none" stroke="#7a7a7a" stroke-width="0.9" d="M421.91,-151.46C406.85,-141.14 387.66,-127.99 371.59,-116.98"/>
<polygon fill="#7a7a7a" stroke="#7a7a7a" stroke-width="0.9" points="373.2,-115.12 366.04,-113.18 370.43,-119.16 373.2,-115.12"/>
</g>
<!-- StepDeterminism&#45;&gt;UseCaseAdequacy -->
<g id="edge30" class="edge">
<title>StepDeterminism&#45;&gt;UseCaseAdequacy</title>
<path fill="none" stroke="#7a7a7a" stroke-width="0.9" d="M377.42,-75.46C400.45,-64.81 429.99,-51.15 454.24,-39.94"/>
<polygon fill="#7a7a7a" stroke="#7a7a7a" stroke-width="0.9" points="455.02,-42.27 460.35,-37.11 452.97,-37.83 455.02,-42.27"/>
</g>
<!-- Bisimulation&#45;&gt;Replication -->
<g id="edge33" class="edge">
<title>Bisimulation&#45;&gt;Replication</title>
<path fill="none" stroke="#7a7a7a" stroke-width="0.9" d="M131.98,-151.46C127.36,-141.97 121.58,-130.09 116.51,-119.68"/>
<polygon fill="#7a7a7a" stroke="#7a7a7a" stroke-width="0.9" points="118.84,-118.86 113.57,-113.64 114.43,-121 118.84,-118.86"/>
</g>
<!-- SlashingComposition&#45;&gt;UseCaseAdequacy -->
<g id="edge37" class="edge">
<title>SlashingComposition&#45;&gt;UseCaseAdequacy</title>
<path fill="none" stroke="#7a7a7a" stroke-width="0.9" d="M628.46,-75.46C604.03,-64.77 572.66,-51.03 546.99,-39.79"/>
<polygon fill="#7a7a7a" stroke="#7a7a7a" stroke-width="0.9" points="548.21,-37.65 540.81,-37.09 546.24,-42.14 548.21,-37.65"/>
</g>
<!-- MergeableChannelAccounting&#45;&gt;UseCaseAdequacy -->
<g id="edge38" class="edge">
<title>MergeableChannelAccounting&#45;&gt;UseCaseAdequacy</title>
<path fill="none" stroke="#7a7a7a" stroke-width="0.9" d="M499.51,-75.46C499.51,-66.25 499.51,-54.78 499.51,-44.59"/>
<polygon fill="#7a7a7a" stroke="#7a7a7a" stroke-width="0.9" points="501.96,-44.77 499.51,-37.77 497.06,-44.77 501.96,-44.77"/>
</g>
<!-- RuntimeBudgetRefinement&#45;&gt;UseCaseAdequacy -->
<g id="edge43" class="edge">
<title>RuntimeBudgetRefinement&#45;&gt;UseCaseAdequacy</title>
<path fill="none" stroke="#7a7a7a" stroke-width="0.9" d="M752.06,-75.46C694.42,-62.58 617.08,-45.29 563.23,-33.25"/>
<polygon fill="#7a7a7a" stroke="#7a7a7a" stroke-width="0.9" points="563.83,-30.87 556.46,-31.73 562.76,-35.65 563.83,-30.87"/>
</g>
<!-- MultiSignerRefinement -->
<g id="node32" class="node">
<title>MultiSignerRefinement</title>
<path fill="#f3e5f5" stroke="#333333" stroke-width="1.1" d="M886.4,-36C886.4,-36 774.62,-36 774.62,-36 768.62,-36 762.62,-30 762.62,-24 762.62,-24 762.62,-12 762.62,-12 762.62,-6 768.62,0 774.62,0 774.62,0 886.4,0 886.4,0 892.4,0 898.4,-6 898.4,-12 898.4,-12 898.4,-24 898.4,-24 898.4,-30 892.4,-36 886.4,-36"/>
<text xml:space="preserve" text-anchor="middle" x="830.51" y="-15.43" font-family="sans-serif" font-size="11.00">MultiSignerRefinement</text>
</g>
<!-- RuntimeBudgetRefinement&#45;&gt;MultiSignerRefinement -->
<g id="edge42" class="edge">
<title>RuntimeBudgetRefinement&#45;&gt;MultiSignerRefinement</title>
<path fill="none" stroke="#7a7a7a" stroke-width="0.9" d="M830.51,-75.46C830.51,-66.25 830.51,-54.78 830.51,-44.59"/>
<polygon fill="#7a7a7a" stroke="#7a7a7a" stroke-width="0.9" points="832.96,-44.77 830.51,-37.77 828.06,-44.77 832.96,-44.77"/>
</g>
<!-- legend -->
<g id="node33" class="node">
<title>legend</title>
<path fill="none" stroke="none" stroke-width="1.1" d="M902.51,-788.25C902.51,-788.25 700.51,-788.25 700.51,-788.25 694.51,-788.25 688.51,-782.25 688.51,-776.25 688.51,-776.25 688.51,-620 688.51,-620 688.51,-614 694.51,-608 700.51,-608 700.51,-608 902.51,-608 902.51,-608 908.51,-608 914.51,-614 914.51,-620 914.51,-620 914.51,-776.25 914.51,-776.25 914.51,-782.25 908.51,-788.25 902.51,-788.25"/>
<polygon fill="#eef2ff" stroke="none" points="688.51,-762.5 688.51,-788.25 914.51,-788.25 914.51,-762.5 688.51,-762.5"/>
<polygon fill="none" stroke="#333333" points="688.51,-762.5 688.51,-788.25 914.51,-788.25 914.51,-762.5 688.51,-762.5"/>
<text xml:space="preserve" text-anchor="start" x="740.38" y="-771.25" font-family="sans-serif" font-size="11.00">T1 Syntactic Foundation</text>
<polygon fill="#e3f2fd" stroke="none" points="688.51,-736.75 688.51,-762.5 914.51,-762.5 914.51,-736.75 688.51,-736.75"/>
<polygon fill="none" stroke="#333333" points="688.51,-736.75 688.51,-762.5 914.51,-762.5 914.51,-736.75 688.51,-736.75"/>
<text xml:space="preserve" text-anchor="start" x="693.51" y="-745.5" font-family="sans-serif" font-size="11.00">T2 Cost&#45;Accounting, Translation &amp; Algebra</text>
<polygon fill="#e8f5e9" stroke="none" points="688.51,-711 688.51,-736.75 914.51,-736.75 914.51,-711 688.51,-711"/>
<polygon fill="none" stroke="#333333" points="688.51,-711 688.51,-736.75 914.51,-736.75 914.51,-711 688.51,-711"/>
<text xml:space="preserve" text-anchor="start" x="719.38" y="-719.75" font-family="sans-serif" font-size="11.00">T3 Conservation &amp; Determinism</text>
<polygon fill="#fff8e1" stroke="none" points="688.51,-685.25 688.51,-711 914.51,-711 914.51,-685.25 688.51,-685.25"/>
<polygon fill="none" stroke="#333333" points="688.51,-685.25 688.51,-711 914.51,-711 914.51,-685.25 688.51,-685.25"/>
<text xml:space="preserve" text-anchor="start" x="723.13" y="-694" font-family="sans-serif" font-size="11.00">T4 Faithfulness &amp; Bisimulation</text>
<polygon fill="#fff3e0" stroke="none" points="688.51,-659.5 688.51,-685.25 914.51,-685.25 914.51,-659.5 688.51,-659.5"/>
<polygon fill="none" stroke="#333333" points="688.51,-659.5 688.51,-685.25 914.51,-685.25 914.51,-659.5 688.51,-659.5"/>
<text xml:space="preserve" text-anchor="start" x="711.13" y="-668.25" font-family="sans-serif" font-size="11.00">T5 Settlement, Minting &amp; Economic</text>
<polygon fill="#fce4ec" stroke="none" points="688.51,-633.75 688.51,-659.5 914.51,-659.5 914.51,-633.75 688.51,-633.75"/>
<polygon fill="none" stroke="#333333" points="688.51,-633.75 688.51,-659.5 914.51,-659.5 914.51,-633.75 688.51,-633.75"/>
<text xml:space="preserve" text-anchor="start" x="713.76" y="-642.5" font-family="sans-serif" font-size="11.00">T6 Weak Barbs &amp; Replication (leaf)</text>
<polygon fill="#f3e5f5" stroke="none" points="688.51,-608 688.51,-633.75 914.51,-633.75 914.51,-608 688.51,-608"/>
<polygon fill="none" stroke="#333333" points="688.51,-608 688.51,-633.75 914.51,-633.75 914.51,-608 688.51,-608"/>
<text xml:space="preserve" text-anchor="start" x="695.01" y="-616.75" font-family="sans-serif" font-size="11.00">T7 Runtime Budget &amp; Use&#45;Case Adequacy</text>
</g>
</g>
</svg>
