<?plantuml 1.2026.2?><svg xmlns="http://www.w3.org/2000/svg" xmlns:xlink="http://www.w3.org/1999/xlink" contentStyleType="text/css" data-diagram-type="DESCRIPTION" height="1121px" preserveAspectRatio="none" style="width:1466px;height:1121px;background:#FFFFFF;" version="1.1" viewBox="0 0 1466 1121" width="1466px" zoomAndPan="magnify"><defs/><g><!--cluster Layer 1 ? Syntactic Foundation--><g class="cluster" data-qualified-name="Layer 1 . Syntactic Foundation" data-source-line="33" id="ent0002"><path d="M920.5,11.602 L1140.8512,11.602 A3.75,3.75 0 0 1 1143.3512,14.102 L1150.3512,36.6699 L1157.5,36.6699 A2.5,2.5 0 0 1 1160,39.1699 L1160,450.372 A2.5,2.5 0 0 1 1157.5,452.872 L920.5,452.872 A2.5,2.5 0 0 1 918,450.372 L918,14.102 A2.5,2.5 0 0 1 920.5,11.602" fill="#EEF2FF" style="stroke:#444444;stroke-width:1;"/><line style="stroke:#444444;stroke-width:1;" x1="918" x2="1150.3512" y1="36.6699" y2="36.6699"/><text fill="#000000" font-family="Verdana" font-size="14" font-weight="bold" lengthAdjust="spacing" textLength="219.3512" x="922" y="28.5679">Layer 1 &#8212; Syntactic Foundation</text><text fill="#000000" font-family="Verdana" font-size="14" font-style="italic" lengthAdjust="spacing" textLength="44.2538" x="1020.8731" y="53.6358">&#171;Tier1&#187;</text></g><!--cluster Layer 2 ? Cost-Accounting &\nTranslation--><g class="cluster" data-qualified-name="Layer 2 . Cost-Accounting ..nTranslation" data-source-line="40" id="ent0007"><path d="M13.5,321.812 L215.0072,321.812 A3.75,3.75 0 0 1 217.5072,324.312 L224.5072,365.9478 L535.5,365.9478 A2.5,2.5 0 0 1 538,368.4478 L538,1091.592 A2.5,2.5 0 0 1 535.5,1094.092 L13.5,1094.092 A2.5,2.5 0 0 1 11,1091.592 L11,324.312 A2.5,2.5 0 0 1 13.5,321.812" fill="#EEF7FF" style="stroke:#444444;stroke-width:1;"/><line style="stroke:#444444;stroke-width:1;" x1="11" x2="224.5072" y1="365.9478" y2="365.9478"/><text fill="#000000" font-family="Verdana" font-size="14" font-weight="bold" lengthAdjust="spacing" textLength="200.5072" x="15" y="338.7779">Layer 2 &#8212; Cost-Accounting &amp;</text><text fill="#000000" font-family="Verdana" font-size="14" font-weight="bold" lengthAdjust="spacing" textLength="79.5197" x="75.4937" y="357.8458">Translation</text><text fill="#000000" font-family="Verdana" font-size="14" font-style="italic" lengthAdjust="spacing" textLength="44.2538" x="256.3731" y="382.9138">&#171;Tier2&#187;</text></g><!--cluster Layer 3 ? Faithfulness &\nStrong Bisimulation--><g class="cluster" data-qualified-name="Layer 3 . Faithfulness ..nStrong Bisimulation" data-source-line="52" id="ent0017"><path d="M564.5,688.012 L737.0273,688.012 A3.75,3.75 0 0 1 739.5273,690.512 L746.5273,732.1478 L918.5,732.1478 A2.5,2.5 0 0 1 921,734.6478 L921,915.652 A2.5,2.5 0 0 1 918.5,918.152 L564.5,918.152 A2.5,2.5 0 0 1 562,915.652 L562,690.512 A2.5,2.5 0 0 1 564.5,688.012" fill="#FFF7EE" style="stroke:#444444;stroke-width:1;"/><line style="stroke:#444444;stroke-width:1;" x1="562" x2="746.5273" y1="732.1478" y2="732.1478"/><text fill="#000000" font-family="Verdana" font-size="14" font-weight="bold" lengthAdjust="spacing" textLength="171.5273" x="566" y="704.9779">Layer 3 &#8212; Faithfulness &amp;</text><text fill="#000000" font-family="Verdana" font-size="14" font-weight="bold" lengthAdjust="spacing" textLength="138.5155" x="582.5059" y="724.0458">Strong Bisimulation</text><text fill="#000000" font-family="Verdana" font-size="14" font-style="italic" lengthAdjust="spacing" textLength="44.2538" x="723.3731" y="749.1138">&#171;Tier3&#187;</text></g><!--cluster Layer 4 ? Weak Barbed Observables--><g class="cluster" data-qualified-name="Layer 4 . Weak Barbed Observables" data-source-line="58" id="ent0021"><path d="M1086.5,476.872 L1341.851,476.872 A3.75,3.75 0 0 1 1344.351,479.372 L1351.351,501.9399 L1351.5,501.9399 A2.5,2.5 0 0 1 1354,504.4399 L1354,586.442 A2.5,2.5 0 0 1 1351.5,588.942 L1086.5,588.942 A2.5,2.5 0 0 1 1084,586.442 L1084,479.372 A2.5,2.5 0 0 1 1086.5,476.872" fill="#EEFAF1" style="stroke:#444444;stroke-width:1;"/><line style="stroke:#444444;stroke-width:1;" x1="1084" x2="1351.351" y1="501.9399" y2="501.9399"/><text fill="#000000" font-family="Verdana" font-size="14" font-weight="bold" lengthAdjust="spacing" textLength="254.351" x="1088" y="493.8379">Layer 4 &#8212; Weak Barbed Observables</text><text fill="#000000" font-family="Verdana" font-size="14" font-style="italic" lengthAdjust="spacing" textLength="44.2538" x="1200.8731" y="518.9058">&#171;Tier4&#187;</text></g><!--cluster Layer 5 ? Replication Encoding\nSupport (leaf)--><g class="cluster" data-qualified-name="Layer 5 . Replication Encoding.nSupport .leaf." data-source-line="62" id="ent0023"><path d="M1045.5,942.152 L1264.2551,942.152 A3.75,3.75 0 0 1 1266.7551,944.652 L1273.7551,986.2878 L1351.5,986.2878 A2.5,2.5 0 0 1 1354,988.7878 L1354,1112.472 A2.5,2.5 0 0 1 1351.5,1114.972 L1045.5,1114.972 A2.5,2.5 0 0 1 1043,1112.472 L1043,944.652 A2.5,2.5 0 0 1 1045.5,942.152" fill="#FBEEF5" style="stroke:#444444;stroke-width:1;"/><line style="stroke:#444444;stroke-width:1;" x1="1043" x2="1273.7551" y1="986.2878" y2="986.2878"/><text fill="#000000" font-family="Verdana" font-size="14" font-weight="bold" lengthAdjust="spacing" textLength="217.7551" x="1047" y="959.1179">Layer 5 &#8212; Replication Encoding</text><text fill="#000000" font-family="Verdana" font-size="14" font-weight="bold" lengthAdjust="spacing" textLength="95.0596" x="1108.3477" y="978.1858">Support (leaf)</text><text fill="#000000" font-family="Verdana" font-size="14" font-style="italic" lengthAdjust="spacing" textLength="44.2538" x="1180.3731" y="1003.2538">&#171;Tier5&#187;</text></g><!--entity RhoSyntax--><g class="entity" data-qualified-name="Layer 1 . Syntactic Foundation.RhoSyntax" data-source-line="34" id="ent0003"><rect fill="#FFFFFF" height="39.0679" rx="2.5" ry="2.5" style="stroke:#333333;stroke-width:1;" width="89.6217" x="1019.19" y="68.602"/><text fill="#000000" font-family="Verdana" font-size="14" lengthAdjust="spacing" textLength="69.6217" x="1029.19" y="93.5679">RhoSyntax</text></g><!--entity SEI--><g class="entity" data-qualified-name="Layer 1 . Syntactic Foundation.SEI" data-source-line="35" id="ent0004"><rect fill="#FFFFFF" height="39.0679" rx="2.5" ry="2.5" style="stroke:#333333;stroke-width:1;" width="156.3455" x="950.83" y="167.672"/><text fill="#000000" font-family="Verdana" font-size="14" lengthAdjust="spacing" textLength="136.3455" x="960.83" y="192.6379">StructEquivInversion</text></g><!--entity SEH--><g class="entity" data-qualified-name="Layer 1 . Syntactic Foundation.SEH" data-source-line="36" id="ent0005"><rect fill="#FFFFFF" height="39.0679" rx="2.5" ry="2.5" style="stroke:#333333;stroke-width:1;" width="136.1576" x="933.92" y="266.742"/><text fill="#000000" font-family="Verdana" font-size="14" lengthAdjust="spacing" textLength="116.1576" x="943.92" y="291.7079">StructEquivHeads</text></g><!--entity RhoRed--><g class="entity" data-qualified-name="Layer 1 . Syntactic Foundation.RhoRed" data-source-line="37" id="ent0006"><rect fill="#FFFFFF" height="39.0679" rx="2.5" ry="2.5" style="stroke:#333333;stroke-width:1;" width="112.2036" x="1031.9" y="397.812"/><text fill="#000000" font-family="Verdana" font-size="14" lengthAdjust="spacing" textLength="92.2036" x="1041.9" y="422.7779">RhoReduction</text></g><!--entity CAS--><g class="entity" data-qualified-name="Layer 2 . Cost-Accounting ..nTranslation.CAS" data-source-line="41" id="ent0008"><rect fill="#FFFFFF" height="39.0679" rx="2.5" ry="2.5" style="stroke:#333333;stroke-width:1;" width="162.5895" x="359.71" y="397.812"/><text fill="#000000" font-family="Verdana" font-size="14" lengthAdjust="spacing" textLength="142.5895" x="369.71" y="422.7779">CostAccountedSyntax</text></g><!--entity CAR--><g class="entity" data-qualified-name="Layer 2 . Cost-Accounting ..nTranslation.CAR" data-source-line="42" id="ent0009"><rect fill="#FFFFFF" height="39.0679" rx="2.5" ry="2.5" style="stroke:#333333;stroke-width:1;" width="185.1714" x="27.41" y="533.872"/><text fill="#000000" font-family="Verdana" font-size="14" lengthAdjust="spacing" textLength="165.1714" x="37.41" y="558.8379">CostAccountedReduction</text></g><!--entity Trans--><g class="entity" data-qualified-name="Layer 2 . Cost-Accounting ..nTranslation.Trans" data-source-line="43" id="ent0010"><rect fill="#FFFFFF" height="39.0679" rx="2.5" ry="2.5" style="stroke:#333333;stroke-width:1;" width="94.0317" x="427.98" y="533.872"/><text fill="#000000" font-family="Verdana" font-size="14" lengthAdjust="spacing" textLength="74.0317" x="437.98" y="558.8379">Translation</text></g><!--entity ChSep--><g class="entity" data-qualified-name="Layer 2 . Cost-Accounting ..nTranslation.ChSep" data-source-line="44" id="ent0011"><rect fill="#FFFFFF" height="39.0679" rx="2.5" ry="2.5" style="stroke:#333333;stroke-width:1;" width="145.6355" x="247.18" y="533.872"/><text fill="#000000" font-family="Verdana" font-size="14" lengthAdjust="spacing" textLength="125.6355" x="257.18" y="558.8379">ChannelSeparation</text></g><!--entity TokCon--><g class="entity" data-qualified-name="Layer 2 . Cost-Accounting ..nTranslation.TokCon" data-source-line="45" id="ent0012"><rect fill="#FFFFFF" height="39.0679" rx="2.5" ry="2.5" style="stroke:#333333;stroke-width:1;" width="147.3855" x="288.31" y="632.942"/><text fill="#000000" font-family="Verdana" font-size="14" lengthAdjust="spacing" textLength="127.3855" x="298.31" y="657.9079">TokenConservation</text></g><!--entity FED--><g class="entity" data-qualified-name="Layer 2 . Cost-Accounting ..nTranslation.FED" data-source-line="46" id="ent0013"><rect fill="#FFFFFF" height="39.0679" rx="2.5" ry="2.5" style="stroke:#333333;stroke-width:1;" width="183.5054" x="27.25" y="632.942"/><text fill="#000000" font-family="Verdana" font-size="14" lengthAdjust="spacing" textLength="163.5054" x="37.25" y="657.9079">FuelEventDecomposition</text></g><!--entity SN--><g class="entity" data-qualified-name="Layer 2 . Cost-Accounting ..nTranslation.SN" data-source-line="47" id="ent0014"><rect fill="#FFFFFF" height="39.0679" rx="2.5" ry="2.5" style="stroke:#333333;stroke-width:1;" width="157.5355" x="283.23" y="764.012"/><text fill="#000000" font-family="Verdana" font-size="14" lengthAdjust="spacing" textLength="137.5355" x="293.23" y="788.9779">StrongNormalization</text></g><!--entity Conf--><g class="entity" data-qualified-name="Layer 2 . Cost-Accounting ..nTranslation.Conf" data-source-line="48" id="ent0015"><rect fill="#FFFFFF" height="39.0679" rx="2.5" ry="2.5" style="stroke:#333333;stroke-width:1;" width="94.2137" x="256.89" y="863.082"/><text fill="#000000" font-family="Verdana" font-size="14" lengthAdjust="spacing" textLength="74.2137" x="266.89" y="888.0479">Confluence</text></g><!--entity SD--><g class="entity" data-qualified-name="Layer 2 . Cost-Accounting ..nTranslation.SD" data-source-line="49" id="ent0016"><rect fill="#FFFFFF" height="39.0679" rx="2.5" ry="2.5" style="stroke:#333333;stroke-width:1;" width="134.8556" x="236.57" y="1039.022"/><text fill="#000000" font-family="Verdana" font-size="14" lengthAdjust="spacing" textLength="114.8556" x="246.57" y="1063.9879">StepDeterminism</text></g><!--entity TF--><g class="entity" data-qualified-name="Layer 3 . Faithfulness ..nStrong Bisimulation.TF" data-source-line="53" id="ent0018"><rect fill="#FFFFFF" height="39.0679" rx="2.5" ry="2.5" style="stroke:#333333;stroke-width:1;" width="173.5094" x="578.25" y="764.012"/><text fill="#000000" font-family="Verdana" font-size="14" lengthAdjust="spacing" textLength="153.5094" x="588.25" y="788.9779">TranslationFaithfulness</text></g><!--entity FGS--><g class="entity" data-qualified-name="Layer 3 . Faithfulness ..nStrong Bisimulation.FGS" data-source-line="54" id="ent0019"><rect fill="#FFFFFF" height="39.0679" rx="2.5" ry="2.5" style="stroke:#333333;stroke-width:1;" width="118.8676" x="786.57" y="764.012"/><text fill="#000000" font-family="Verdana" font-size="14" lengthAdjust="spacing" textLength="98.8676" x="796.57" y="788.9779">FuelGateSafety</text></g><!--entity Bisim--><g class="entity" data-qualified-name="Layer 3 . Faithfulness ..nStrong Bisimulation.Bisim" data-source-line="55" id="ent0020"><rect fill="#FFFFFF" height="39.0679" rx="2.5" ry="2.5" style="stroke:#333333;stroke-width:1;" width="102.0257" x="802.99" y="863.082"/><text fill="#000000" font-family="Verdana" font-size="14" lengthAdjust="spacing" textLength="82.0257" x="812.99" y="888.0479">Bisimulation</text></g><!--entity WBE--><g class="entity" data-qualified-name="Layer 4 . Weak Barbed Observables.WBE" data-source-line="59" id="ent0022"><rect fill="#FFFFFF" height="39.0679" rx="2.5" ry="2.5" style="stroke:#333333;stroke-width:1;" width="139.8675" x="1109.07" y="533.872"/><text fill="#000000" font-family="Verdana" font-size="14" lengthAdjust="spacing" textLength="119.8675" x="1119.07" y="558.8379">WeakBarbedEquiv</text></g><!--entity Rep--><g class="entity" data-qualified-name="Layer 5 . Replication Encoding.nSupport .leaf..Rep" data-source-line="63" id="ent0024"><rect fill="#FFFFFF" height="39.0679" rx="2.5" ry="2.5" style="stroke:#333333;stroke-width:1;" width="92.7997" x="1058.6" y="1039.022"/><text fill="#000000" font-family="Verdana" font-size="14" lengthAdjust="spacing" textLength="72.7997" x="1068.6" y="1063.9879">Replication</text></g><g class="entity" data-qualified-name="Layer 5 . Replication Encoding.nSupport .leaf..GMN25" data-source-line="65" id="ent0026"><path d="M1186.22,1018.152 L1186.22,1054.562 L1151.61,1058.562 L1186.22,1062.562 L1186.22,1098.976 A0,0 0 0 0 1186.22,1098.976 L1337.7791,1098.976 A0,0 0 0 0 1337.7791,1098.976 L1337.7791,1028.152 L1327.7791,1018.152 L1186.22,1018.152 A0,0 0 0 0 1186.22,1018.152" fill="#FFFFFF" style="stroke:#000000;stroke-width:1;"/><path d="M1327.7791,1018.152 L1327.7791,1028.152 L1337.7791,1028.152 L1327.7791,1018.152" fill="#FFFFFF" style="stroke:#000000;stroke-width:1;"/><text fill="#000000" font-family="Verdana" font-size="13" lengthAdjust="spacing" textLength="99.1901" x="1192.22" y="1037.049">Leaf of the DAG.</text><text fill="#000000" font-family="Verdana" font-size="13" lengthAdjust="spacing" textLength="119.1581" x="1192.22" y="1054.755">Replication support</text><text fill="#000000" font-family="Verdana" font-size="13" lengthAdjust="spacing" textLength="130.5591" x="1192.22" y="1072.461">lives here and cannot</text><text fill="#000000" font-family="Verdana" font-size="13" lengthAdjust="spacing" textLength="129.7921" x="1192.22" y="1090.167">propagate upstream.</text></g><!--link RhoSyntax to SEI--><g class="link" data-entity-1="ent0003" data-entity-2="ent0004" data-link-type="dependency" data-source-line="73" id="lnk28"><path d="M1057.25,107.852 C1051.09,124.932 1044.0749,144.4076 1037.8849,161.5776" fill="none" id="RhoSyntax-to-SEI" style="stroke:#000000;stroke-width:1;"/><polygon fill="#000000" points="1035.85,167.222,1042.6653,160.112,1037.5457,162.5183,1035.1394,157.3988,1035.85,167.222" style="stroke:#000000;stroke-width:1;"/></g><!--link SEI to SEH--><g class="link" data-entity-1="ent0004" data-entity-2="ent0005" data-link-type="dependency" data-source-line="74" id="lnk29"><path d="M1023.79,206.922 C1019.04,224.002 1013.67,243.342 1008.89,260.502" fill="none" id="SEI-to-SEH" style="stroke:#000000;stroke-width:1;"/><polygon fill="#000000" points="1007.28,266.282,1013.5483,258.6854,1008.6217,261.4654,1005.8417,256.5387,1007.28,266.282" style="stroke:#000000;stroke-width:1;"/></g><!--link RhoSyntax to RhoRed--><g class="link" data-entity-1="ent0003" data-entity-2="ent0006" data-link-type="dependency" data-source-line="75" id="lnk30"><path d="M1084.48,107.882 C1098.9,122.552 1117,144.322 1125,167.672 C1153.23,250.042 1117.365,349.542 1099.115,391.882" fill="none" id="RhoSyntax-to-RhoRed" style="stroke:#000000;stroke-width:1;"/><polygon fill="#000000" points="1096.74,397.392,1103.9758,390.7104,1098.7191,392.8004,1096.6292,387.5437,1096.74,397.392" style="stroke:#000000;stroke-width:1;"/></g><!--link SEI to RhoRed--><g class="link" data-entity-1="ent0004" data-entity-2="ent0006" data-link-type="dependency" data-source-line="76" id="lnk31"><path d="M1048.83,207.082 C1062.77,221.812 1080.28,243.612 1088,266.742 C1103.05,311.822 1097.5857,362.9869 1092.6757,391.8669" fill="none" id="SEI-to-RhoRed" style="stroke:#000000;stroke-width:1;"/><polygon fill="#000000" points="1091.67,397.782,1097.1219,389.5797,1092.508,392.8527,1089.2351,388.2389,1091.67,397.782" style="stroke:#000000;stroke-width:1;"/></g><!--link SEH to RhoRed--><g class="link" data-entity-1="ent0005" data-entity-2="ent0006" data-link-type="dependency" data-source-line="77" id="lnk32"><path d="M1014.51,306.042 C1030.81,330.512 1055.8432,368.0787 1072.1532,392.5587" fill="none" id="SEH-to-RhoRed" style="stroke:#000000;stroke-width:1;"/><polygon fill="#000000" points="1075.48,397.552,1073.8186,387.8443,1072.7077,393.3909,1067.161,392.28,1075.48,397.552" style="stroke:#000000;stroke-width:1;"/></g><!--link RhoSyntax to CAS--><g class="link" data-entity-1="ent0003" data-entity-2="ent0008" data-link-type="dependency" data-source-line="80" id="lnk33"><path d="M1018.97,102.502 C925.53,131.522 705.91,206.422 546,313.812 C510.04,337.952 479.4436,370.6954 460.3136,393.0254" fill="none" id="RhoSyntax-to-CAS" style="stroke:#000000;stroke-width:1;"/><polygon fill="#000000" points="456.41,397.582,465.3031,393.3495,459.663,393.7849,459.2277,388.1448,456.41,397.582" style="stroke:#000000;stroke-width:1;"/></g><!--link CAS to CAR--><g class="link" data-entity-1="ent0008" data-entity-2="ent0009" data-link-type="dependency" data-source-line="81" id="lnk34"><path d="M359.45,429.742 C319.16,437.372 270.6,449.652 230,468.872 C194.89,485.502 164.5886,510.4829 143.8186,529.5629" fill="none" id="CAS-to-CAR" style="stroke:#000000;stroke-width:1;"/><polygon fill="#000000" points="139.4,533.622,148.7339,530.4791,143.0822,530.2394,143.3218,524.5877,139.4,533.622" style="stroke:#000000;stroke-width:1;"/></g><!--link RhoSyntax to Trans--><g class="link" data-entity-1="ent0003" data-entity-2="ent0010" data-link-type="dependency" data-source-line="82" id="lnk35"><path d="M1018.83,95.962 C873.47,118.952 422.54,198.632 342,313.812 C304.54,367.372 298.57,412.032 342,460.872 C352.11,472.242 396.75,461.402 410,468.872 C436.25,483.672 452.7265,508.4925 463.2065,528.2325" fill="none" id="RhoSyntax-to-Trans" style="stroke:#000000;stroke-width:1;"/><polygon fill="#000000" points="466.02,533.532,465.3327,523.7071,463.6754,529.1158,458.2668,527.4585,466.02,533.532" style="stroke:#000000;stroke-width:1;"/></g><!--link SEI to Trans--><g class="link" data-entity-1="ent0004" data-entity-2="ent0010" data-link-type="dependency" data-source-line="83" id="lnk36"><path d="M961.8,207.222 C896.65,227.512 796.7,263.652 720,313.812 C619.87,379.282 529.3567,484.8497 493.7467,528.8097" fill="none" id="SEI-to-Trans" style="stroke:#000000;stroke-width:1;"/><polygon fill="#000000" points="489.97,533.472,498.7432,528.9964,493.1172,529.5868,492.5269,523.9608,489.97,533.472" style="stroke:#000000;stroke-width:1;"/></g><!--link SEH to Trans--><g class="link" data-entity-1="ent0005" data-entity-2="ent0010" data-link-type="dependency" data-source-line="84" id="lnk37"><path d="M966.23,306.242 C961.75,308.732 957.25,311.302 953,313.812 C848.86,375.332 832.3,407.002 724,460.872 C656.37,494.512 578.9301,520.8426 527.8901,536.6926" fill="none" id="SEH-to-Trans" style="stroke:#000000;stroke-width:1;"/><polygon fill="#000000" points="522.16,538.472,531.9414,539.6229,526.9351,536.9891,529.5688,531.9828,522.16,538.472" style="stroke:#000000;stroke-width:1;"/></g><!--link RhoRed to Trans--><g class="link" data-entity-1="ent0006" data-entity-2="ent0010" data-link-type="dependency" data-source-line="85" id="lnk38"><path d="M1031.43,430.712 C911.54,456.932 639.6415,516.4002 528.2915,540.7502" fill="none" id="RhoRed-to-Trans" style="stroke:#000000;stroke-width:1;"/><polygon fill="#000000" points="522.43,542.032,532.0768,544.017,527.3146,540.9638,530.3677,536.2016,522.43,542.032" style="stroke:#000000;stroke-width:1;"/></g><!--link CAS to Trans--><g class="link" data-entity-1="ent0008" data-entity-2="ent0010" data-link-type="dependency" data-source-line="86" id="lnk39"><path d="M445.8,437.262 C452.28,462.822 462.2844,502.2663 468.7544,527.7663" fill="none" id="CAS-to-Trans" style="stroke:#000000;stroke-width:1;"/><polygon fill="#000000" points="470.23,533.582,471.8938,523.8747,469.0003,528.7355,464.1395,525.8421,470.23,533.582" style="stroke:#000000;stroke-width:1;"/></g><!--link CAS to ChSep--><g class="link" data-entity-1="ent0008" data-entity-2="ent0011" data-link-type="dependency" data-source-line="87" id="lnk40"><path d="M423.92,437.262 C400.86,462.822 364.0305,503.6283 341.0105,529.1283" fill="none" id="CAS-to-ChSep" style="stroke:#000000;stroke-width:1;"/><polygon fill="#000000" points="336.99,533.582,345.9899,529.5818,340.3404,529.8706,340.0517,524.2211,336.99,533.582" style="stroke:#000000;stroke-width:1;"/></g><!--link CAR to TokCon--><g class="link" data-entity-1="ent0009" data-entity-2="ent0012" data-link-type="dependency" data-source-line="88" id="lnk41"><path d="M167.23,573.352 C209.88,590.462 266.7114,613.258 309.3114,630.348" fill="none" id="CAR-to-TokCon" style="stroke:#000000;stroke-width:1;"/><polygon fill="#000000" points="314.88,632.582,308.0164,625.5186,310.2395,630.7203,305.0378,632.9434,314.88,632.582" style="stroke:#000000;stroke-width:1;"/></g><!--link CAR to FED--><g class="link" data-entity-1="ent0009" data-entity-2="ent0013" data-link-type="dependency" data-source-line="89" id="lnk42"><path d="M119.81,573.122 C119.63,590.202 119.4294,609.3223 119.2594,626.4923" fill="none" id="CAR-to-FED" style="stroke:#000000;stroke-width:1;"/><polygon fill="#000000" points="119.2,632.492,123.2889,623.532,119.2495,627.4922,115.2893,623.4528,119.2,632.492" style="stroke:#000000;stroke-width:1;"/></g><!--link TokCon to SN--><g class="link" data-entity-1="ent0012" data-entity-2="ent0014" data-link-type="dependency" data-source-line="90" id="lnk43"><path d="M362,672.242 C362,696.712 362,733.272 362,757.752" fill="none" id="TokCon-to-SN" style="stroke:#000000;stroke-width:1;"/><polygon fill="#000000" points="362,763.752,366,754.752,362,758.752,358,754.752,362,763.752" style="stroke:#000000;stroke-width:1;"/></g><!--link SN to Conf--><g class="link" data-entity-1="ent0014" data-entity-2="ent0015" data-link-type="dependency" data-source-line="91" id="lnk44"><path d="M350.82,803.262 C340.61,820.342 328.6768,840.3109 318.4268,857.4709" fill="none" id="SN-to-Conf" style="stroke:#000000;stroke-width:1;"/><polygon fill="#000000" points="315.35,862.622,323.3992,856.9466,317.914,858.3294,316.5312,852.8442,315.35,862.622" style="stroke:#000000;stroke-width:1;"/></g><!--link CAR to Conf--><g class="link" data-entity-1="ent0009" data-entity-2="ent0015" data-link-type="dependency" data-source-line="92" id="lnk45"><path d="M158.85,573.372 C182.38,586.822 211.02,607.072 228,632.942 C270.52,697.712 240.51,729.912 266,803.082 C273.37,824.252 282.0661,841.9142 290.4961,857.5042" fill="none" id="CAR-to-Conf" style="stroke:#000000;stroke-width:1;"/><polygon fill="#000000" points="293.35,862.782,292.5877,852.9627,290.9718,858.3838,285.5506,856.7678,293.35,862.782" style="stroke:#000000;stroke-width:1;"/></g><!--link Conf to SD--><g class="link" data-entity-1="ent0015" data-entity-2="ent0016" data-link-type="dependency" data-source-line="93" id="lnk46"><path d="M304,902.562 C304,936.022 304,999.192 304,1032.632" fill="none" id="Conf-to-SD" style="stroke:#000000;stroke-width:1;"/><polygon fill="#000000" points="304,1038.632,308,1029.632,304,1033.632,300,1029.632,304,1038.632" style="stroke:#000000;stroke-width:1;"/></g><!--link Trans to TF--><g class="link" data-entity-1="ent0010" data-entity-2="ent0018" data-link-type="dependency" data-source-line="96" id="lnk47"><path d="M490.55,573.082 C526.18,615.862 609.5601,715.9817 645.4001,759.0117" fill="none" id="Trans-to-TF" style="stroke:#000000;stroke-width:1;"/><polygon fill="#000000" points="649.24,763.622,646.5536,754.1466,646.04,759.7801,640.4066,759.2665,649.24,763.622" style="stroke:#000000;stroke-width:1;"/></g><!--link TokCon to TF--><g class="link" data-entity-1="ent0012" data-entity-2="ent0018" data-link-type="dependency" data-source-line="97" id="lnk48"><path d="M435.91,655.952 C468.34,659.192 506.18,666.012 538,680.012 C583.13,699.862 621.445,735.7544 644.015,759.4844" fill="none" id="TokCon-to-TF" style="stroke:#000000;stroke-width:1;"/><polygon fill="#000000" points="648.15,763.832,644.8458,754.5539,644.7041,760.209,639.049,760.0673,648.15,763.832" style="stroke:#000000;stroke-width:1;"/></g><!--link Trans to FGS--><g class="link" data-entity-1="ent0010" data-entity-2="ent0019" data-link-type="dependency" data-source-line="98" id="lnk49"><path d="M522.51,566.392 C584.19,583.692 692.9,620.312 769,680.012 C798.78,703.372 819.9864,735.7107 832.8764,758.3007" fill="none" id="Trans-to-FGS" style="stroke:#000000;stroke-width:1;"/><polygon fill="#000000" points="835.85,763.512,834.8638,753.7126,833.372,759.1692,827.9154,757.6774,835.85,763.512" style="stroke:#000000;stroke-width:1;"/></g><!--link TF to Bisim--><g class="link" data-entity-1="ent0018" data-entity-2="ent0020" data-link-type="dependency" data-source-line="99" id="lnk50"><path d="M701.89,803.492 C735.19,820.592 778.593,842.8805 811.863,859.9705" fill="none" id="TF-to-Bisim" style="stroke:#000000;stroke-width:1;"/><polygon fill="#000000" points="817.2,862.712,811.0221,855.0417,812.7525,860.4274,807.3667,862.1577,817.2,862.712" style="stroke:#000000;stroke-width:1;"/></g><!--link Trans to Bisim--><g class="link" data-entity-1="ent0010" data-entity-2="ent0020" data-link-type="dependency" data-source-line="100" id="lnk51"><path d="M522.14,560.462 C626.98,574.992 874.07,615.482 923,680.012 C956.05,723.602 942.29,751.902 923,803.082 C913.97,827.022 898.4423,844.4334 882.2823,858.8134" fill="none" id="Trans-to-Bisim" style="stroke:#000000;stroke-width:1;"/><polygon fill="#000000" points="877.8,862.802,887.1825,859.8073,881.5353,859.4782,881.8644,853.8309,877.8,862.802" style="stroke:#000000;stroke-width:1;"/></g><!--link RhoSyntax to WBE--><g class="link" data-entity-1="ent0003" data-entity-2="ent0022" data-link-type="dependency" data-source-line="103" id="lnk52"><path d="M1085.59,108.132 C1101.62,123.102 1123.19,145.132 1138,167.672 C1176.84,226.782 1186.7,244.542 1201,313.812 C1214.21,377.822 1208.69,395.962 1201,460.872 C1197.96,486.522 1191.9913,509.6282 1186.5713,527.9582" fill="none" id="RhoSyntax-to-WBE" style="stroke:#000000;stroke-width:1;"/><polygon fill="#000000" points="1184.87,533.712,1191.2578,526.2156,1186.2878,528.9172,1183.5862,523.9472,1184.87,533.712" style="stroke:#000000;stroke-width:1;"/></g><!--link SEI to WBE--><g class="link" data-entity-1="ent0004" data-entity-2="ent0022" data-link-type="dependency" data-source-line="104" id="lnk53"><path d="M1059.83,207.172 C1091.68,228.662 1139.76,266.882 1162,313.812 C1197.48,388.672 1188.8304,485.8211 1182.9104,527.6711" fill="none" id="SEI-to-WBE" style="stroke:#000000;stroke-width:1;"/><polygon fill="#000000" points="1182.07,533.612,1187.2911,525.261,1182.7703,528.6613,1179.37,524.1404,1182.07,533.612" style="stroke:#000000;stroke-width:1;"/></g><!--link RhoRed to WBE--><g class="link" data-entity-1="ent0006" data-entity-2="ent0022" data-link-type="dependency" data-source-line="105" id="lnk54"><path d="M1100.85,437.262 C1118.19,462.822 1145.5401,503.1177 1162.8501,528.6177" fill="none" id="RhoRed-to-WBE" style="stroke:#000000;stroke-width:1;"/><polygon fill="#000000" points="1166.22,533.582,1164.4747,523.889,1163.4118,529.4451,1157.8557,528.3821,1166.22,533.582" style="stroke:#000000;stroke-width:1;"/></g><!--link RhoSyntax to Rep--><g class="link" data-entity-1="ent0003" data-entity-2="ent0024" data-link-type="dependency" data-source-line="108" id="lnk55"><path d="M1108.93,90.972 C1212.46,97.832 1459,130.422 1459,285.272 C1459,285.272 1459,285.272 1459,784.542 C1459,885.982 1374.55,889.412 1280,926.152 C1256.95,935.102 1189.66,920.552 1169,934.152 C1132.31,958.302 1116.8273,1004.6546 1110.1373,1032.8046" fill="none" id="RhoSyntax-to-Rep" style="stroke:#000000;stroke-width:1;"/><polygon fill="#000000" points="1108.75,1038.642,1114.7226,1030.8107,1109.9061,1033.7775,1106.9393,1028.961,1108.75,1038.642" style="stroke:#000000;stroke-width:1;"/></g><!--link SEI to Rep--><g class="link" data-entity-1="ent0004" data-entity-2="ent0024" data-link-type="dependency" data-source-line="109" id="lnk56"><path d="M1075.47,207.162 C1104.86,220.722 1142.38,241.102 1170,266.742 C1267.52,357.272 1388,332.632 1388,651.482 C1388,651.482 1388,651.482 1388,784.542 C1388,902.422 1247.16,845.912 1169,934.152 C1140.67,966.122 1122.9906,1007.2506 1113.5006,1033.0606" fill="none" id="SEI-to-Rep" style="stroke:#000000;stroke-width:1;"/><polygon fill="#000000" points="1111.43,1038.692,1118.2902,1031.6253,1113.1555,1033.9991,1110.7816,1028.8645,1111.43,1038.692" style="stroke:#000000;stroke-width:1;"/></g><!--link SEH to Rep--><g class="link" data-entity-1="ent0005" data-entity-2="ent0024" data-link-type="dependency" data-source-line="110" id="lnk57"><path d="M1002.79,306.072 C1004.25,337.972 1007.79,404.722 1014,460.872 C1039.29,689.492 1087.0379,958.8285 1100.4479,1032.6685" fill="none" id="SEH-to-Rep" style="stroke:#000000;stroke-width:1;"/><polygon fill="#000000" points="1101.52,1038.572,1103.8474,1029.0021,1100.6266,1033.6525,1095.9762,1030.4316,1101.52,1038.572" style="stroke:#000000;stroke-width:1;"/></g><!--link RhoRed to Rep--><g class="link" data-entity-1="ent0006" data-entity-2="ent0024" data-link-type="dependency" data-source-line="111" id="lnk58"><path d="M1088.5,437.122 C1090.99,530.652 1101.8503,939.2541 1104.3403,1032.7741" fill="none" id="RhoRed-to-Rep" style="stroke:#000000;stroke-width:1;"/><polygon fill="#000000" points="1104.5,1038.772,1108.259,1029.6687,1104.3669,1033.7738,1100.2619,1029.8816,1104.5,1038.772" style="stroke:#000000;stroke-width:1;"/></g><!--link Bisim to Rep--><g class="link" data-entity-1="ent0020" data-entity-2="ent0024" data-link-type="dependency" data-source-line="112" id="lnk59"><path d="M881.34,902.562 C929.62,936.022 1024.5086,1001.7742 1072.7586,1035.2142" fill="none" id="Bisim-to-Rep" style="stroke:#000000;stroke-width:1;"/><polygon fill="#000000" points="1077.69,1038.632,1072.5714,1030.2177,1073.5805,1035.7839,1068.0144,1036.793,1077.69,1038.632" style="stroke:#000000;stroke-width:1;"/></g><!--link WBE to Rep--><g class="link" data-entity-1="ent0022" data-entity-2="ent0024" data-link-type="dependency" data-source-line="113" id="lnk60"><path d="M1176.41,573.382 C1168.91,628.132 1146.41,791.112 1126,926.152 C1119.92,966.352 1113.254,1007.4716 1109.064,1032.9416" fill="none" id="WBE-to-Rep" style="stroke:#000000;stroke-width:1;"/><polygon fill="#000000" points="1108.09,1038.862,1113.4979,1030.6306,1108.9016,1033.9283,1105.604,1029.332,1108.09,1038.862" style="stroke:#000000;stroke-width:1;"/></g><?plantuml-src VLJRYjim47tFLqopq6ufAUJ6lYmBkTYRXP927DYNlcZjYIFYIAuaXwQbqAT-GEaNxfTKaXD7ifqQ4kmpPyxSf7cZjhX7o3D2MQSZTvJbH90zn7oVSuPCHUgO8GYC5M5fXWub9_6Ef0W_EW1J_PuANh1anZCkxk_N54N_uG40Re8W78JXDTAW8jrT9mrBKXY6Tq5mZJIgb2PX_nffV5AQQjhOaBX8K5W2t8piq_dPreUsCcr6OPcsesEUcw5zj5RdtAVk9t940Nru_VKNeYDJ95OqXj384KKvwyAbRoRQ9NPtjUNMuriNt8T8g2o-GwH44QlWQq4FJ-o0Gbfzun05JrUf2oI9x5RQKR1efB72HBDBDJyDRMafTs3BdN6fUfCurhKgob9u-uMj1M4oymeVD0itZYS_J9mMw92pIVGVhfEdvQvyhXVTxwWrrPItX37C8ZI7ml4nobkDrhJv3jcCCudYK6DhapRuzB30B3ZerpbQLD8gxJ2ODsR5MRhaOayo-lqYReQrh7U3RR82MOoDCsDCTLtCvwXGx2cZSjzroD6yPQf3EzMGKBNT51b3ASr8o-nWIYNT5_veXytHEYDmXMpXwx3PeqUYC28RL4V_w8MFjNFWn_TBjxQMWaQse6SaEtt9nGicyFd5pkybGtakOjGimdYK3lO2sUIVfq5BXB6DiC8yex5D3G8MyqJV1jsu8i-vK72R8TcyFuSRj-o1YxiDjR9dZt6bLpHDjmhuveG1VD9QvbjlU9XF7ZzQq8qlowWMp-W19MnH812MGApFEoyjkU0vINNleSYb4aZsHWaroOGrXRw3Ngy7jifU7wY-VOAH3319jQGsTQeTfRyUx0BIlzDCIcHHuvpMYK-hm4KJh2Nn-llFwNtGae7P7Fhdg9Zzu7FABU0dSCOM3QpCmiVy26rOkJjqR9TNRWWVD7kWD5GjMtQY9RXQvaxxNYMa_vnEp_rE3PnE3MsdR9wdLC9pqFFNnMOktJgiTCjhvTXBuEfKHYrJCTV6xxT1_CuQn1CTmeTAyY8_Xblte5C91EpLQWbhhaljd5baKKFyH0nYQ_GuEhsQrpy0?></g></svg>