<?plantuml 1.2026.2?><svg xmlns="http://www.w3.org/2000/svg" xmlns:xlink="http://www.w3.org/1999/xlink" contentStyleType="text/css" data-diagram-type="DESCRIPTION" height="931px" preserveAspectRatio="none" style="width:1087px;height:931px;background:#FFFFFF;" version="1.1" viewBox="0 0 1087 931" width="1087px" zoomAndPan="magnify"><title>Module Dependency Graph &#8212; Package View
(5 proof-layer tiers &#183; 18 modules &#183; transitive edges omitted &#8212; see &#167;11.1 for full per-module detail)</title><defs/><g><g class="title" data-source-line="40"><text fill="#000000" font-family="'sans-serif'" font-size="22" font-weight="bold" lengthAdjust="spacing" textLength="480.8556" x="301.617" y="38.5181">Module Dependency Graph &#8212; Package View</text><text fill="#000000" font-family="'sans-serif'" font-size="22" font-weight="bold" lengthAdjust="spacing" textLength="1054.0896" x="15" y="68.4822">(5 proof-layer tiers &#183; 18 modules &#183; transitive edges omitted &#8212; see &#167;11.1 for full per-module detail)</text></g><!--cluster L1--><g class="cluster" data-qualified-name="L1" data-source-line="42" id="ent0002"><path d="M477.0448,91.9282 L650.3916,91.9282 A3.75,3.75 0 0 1 652.8916,94.4282 L659.8916,112.9101 L775.0448,112.9101 A2.5,2.5 0 0 1 777.5448,115.4101 L777.5448,219.3882 A2.5,2.5 0 0 1 775.0448,221.8882 L477.0448,221.8882 A2.5,2.5 0 0 1 474.5448,219.3882 L474.5448,94.4282 A2.5,2.5 0 0 1 477.0448,91.9282" fill="#EEF2FF" style="stroke:#333333;stroke-width:1;"/><line style="stroke:#333333;stroke-width:1;" x1="474.5448" x2="659.8916" y1="112.9101" y2="112.9101"/><text fill="#000000" font-family="'sans-serif'" font-size="11" font-weight="bold" lengthAdjust="spacing" textLength="172.3468" x="478.5448" y="105.6871">Layer 1 &#8212; Syntactic Foundation</text><text fill="#000000" font-family="'sans-serif'" font-size="11" font-weight="bold" lengthAdjust="spacing" textLength="25.9488" x="617.0704" y="126.669">&#171;L1&#187;</text></g><!--cluster L2--><g class="cluster" data-qualified-name="L2" data-source-line="46" id="ent0004"><path d="M213.0448,261.8882 L449.3661,261.8882 A3.75,3.75 0 0 1 451.8661,264.3882 L458.8661,282.8701 L706.0448,282.8701 A2.5,2.5 0 0 1 708.5448,285.3701 L708.5448,404.3382 A2.5,2.5 0 0 1 706.0448,406.8382 L213.0448,406.8382 A2.5,2.5 0 0 1 210.5448,404.3382 L210.5448,264.3882 A2.5,2.5 0 0 1 213.0448,261.8882" fill="#EEF7FF" style="stroke:#333333;stroke-width:1;"/><line style="stroke:#333333;stroke-width:1;" x1="210.5448" x2="458.8661" y1="282.8701" y2="282.8701"/><text fill="#000000" font-family="'sans-serif'" font-size="11" font-weight="bold" lengthAdjust="spacing" textLength="235.3213" x="214.5448" y="275.6471">Layer 2 &#8212; Cost-Accounting and Translation</text><text fill="#000000" font-family="'sans-serif'" font-size="11" font-weight="bold" lengthAdjust="spacing" textLength="25.9488" x="450.5704" y="296.629">&#171;L2&#187;</text></g><!--cluster L3--><g class="cluster" data-qualified-name="L3" data-source-line="50" id="ent0006"><path d="M400.0448,446.8382 L535.8158,446.8382 A3.75,3.75 0 0 1 538.3158,449.3382 L545.3158,482.802 L629.0448,482.802 A2.5,2.5 0 0 1 631.5448,485.302 L631.5448,604.2782 A2.5,2.5 0 0 1 629.0448,606.7782 L400.0448,606.7782 A2.5,2.5 0 0 1 397.5448,604.2782 L397.5448,449.3382 A2.5,2.5 0 0 1 400.0448,446.8382" fill="#FFF7EE" style="stroke:#333333;stroke-width:1;"/><line style="stroke:#333333;stroke-width:1;" x1="397.5448" x2="545.3158" y1="482.802" y2="482.802"/><text fill="#000000" font-family="'sans-serif'" font-size="11" font-weight="bold" lengthAdjust="spacing" textLength="134.771" x="401.5448" y="460.5971">Layer 3 &#8212; Faithfulness &amp;</text><text fill="#000000" font-family="'sans-serif'" font-size="11" font-weight="bold" lengthAdjust="spacing" textLength="108.8332" x="414.5137" y="475.579">Strong Bisimulation</text><text fill="#000000" font-family="'sans-serif'" font-size="11" font-weight="bold" lengthAdjust="spacing" textLength="25.9488" x="505.5704" y="496.5609">&#171;L3&#187;</text></g><!--cluster L4--><g class="cluster" data-qualified-name="L4" data-source-line="54" id="ent0008"><path d="M674.0448,461.8182 L874.8913,461.8182 A3.75,3.75 0 0 1 877.3913,464.3182 L884.3913,497.782 L884.0448,497.782 A2.5,2.5 0 0 1 886.5448,500.282 L886.5448,589.2982 A2.5,2.5 0 0 1 884.0448,591.7982 L674.0448,591.7982 A2.5,2.5 0 0 1 671.5448,589.2982 L671.5448,464.3182 A2.5,2.5 0 0 1 674.0448,461.8182" fill="#EEFAF1" style="stroke:#333333;stroke-width:1;"/><line style="stroke:#333333;stroke-width:1;" x1="671.5448" x2="884.3913" y1="497.782" y2="497.782"/><text fill="#000000" font-family="'sans-serif'" font-size="11" font-weight="bold" lengthAdjust="spacing" textLength="199.8465" x="675.5448" y="475.5771">Layer 4 &#8212; Weak Barbed Observables</text><text fill="#000000" font-family="'sans-serif'" font-size="11" font-weight="bold" lengthAdjust="spacing" textLength="101.5292" x="724.7035" y="490.559">[added 2026-04-20]</text><text fill="#000000" font-family="'sans-serif'" font-size="11" font-weight="bold" lengthAdjust="spacing" textLength="25.9488" x="770.0704" y="511.5409">&#171;L4&#187;</text></g><!--cluster L5--><g class="cluster" data-qualified-name="L5" data-source-line="58" id="ent0010"><path d="M328.0448,646.7782 L577.687,646.7782 A3.75,3.75 0 0 1 580.187,649.2782 L587.187,682.742 L661.0448,682.742 A2.5,2.5 0 0 1 663.5448,685.242 L663.5448,819.2082 A2.5,2.5 0 0 1 661.0448,821.7082 L328.0448,821.7082 A2.5,2.5 0 0 1 325.5448,819.2082 L325.5448,649.2782 A2.5,2.5 0 0 1 328.0448,646.7782" fill="#FBEEF5" style="stroke:#333333;stroke-width:1;"/><line style="stroke:#333333;stroke-width:1;" x1="325.5448" x2="587.187" y1="682.742" y2="682.742"/><text fill="#000000" font-family="'sans-serif'" font-size="11" font-weight="bold" lengthAdjust="spacing" textLength="248.6422" x="329.5448" y="660.5371">Layer 5 &#8212; Replication Encoding Support (leaf)</text><text fill="#000000" font-family="'sans-serif'" font-size="11" font-weight="bold" lengthAdjust="spacing" textLength="101.5292" x="403.1013" y="675.519">[added 2026-04-20]</text><text fill="#000000" font-family="'sans-serif'" font-size="11" font-weight="bold" lengthAdjust="spacing" textLength="25.9488" x="485.5704" y="696.5009">&#171;L5&#187;</text></g><!--entity L1_mods--><g class="entity" data-qualified-name="L1.L1_mods" data-source-line="43" id="ent0003"><rect fill="#FFFFFF" height="49.9638" rx="2.5" ry="2.5" style="stroke:#000000;stroke-width:1;" width="220.9796" x="498.0548" y="147.9282"/><text fill="#000000" font-family="'sans-serif'" font-size="11" lengthAdjust="spacing" textLength="187.6587" x="513.7748" y="169.6871">RhoSyntax    &#183;    StructEquivInversion</text><text fill="#000000" font-family="'sans-serif'" font-size="11" lengthAdjust="spacing" textLength="189.5397" x="513.7748" y="184.669">StructEquivHeads    &#183;    RhoReduction</text></g><!--entity L2_mods--><g class="entity" data-qualified-name="L2.L2_mods" data-source-line="47" id="ent0005"><rect fill="#FFFFFF" height="64.9457" rx="2.5" ry="2.5" style="stroke:#000000;stroke-width:1;" width="416.0852" x="234.5048" y="317.8882"/><text fill="#000000" font-family="'sans-serif'" font-size="11" lengthAdjust="spacing" textLength="337.3346" x="250.2248" y="339.6471">CostAccountedSyntax     &#183;  CostAccountedReduction  &#183;  Translation</text><text fill="#000000" font-family="'sans-serif'" font-size="11" lengthAdjust="spacing" textLength="384.6453" x="250.2248" y="354.629">ChannelSeparation       &#183;  TokenConservation       &#183;  FuelEventDecomposition</text><text fill="#000000" font-family="'sans-serif'" font-size="11" lengthAdjust="spacing" textLength="328.2927" x="250.2248" y="369.6109">StrongNormalization     &#183;  Confluence              &#183;  StepDeterminism</text></g><!--entity L3_mods--><g class="entity" data-qualified-name="L3.L3_mods" data-source-line="51" id="ent0007"><rect fill="#FFFFFF" height="64.9457" rx="2.5" ry="2.5" style="stroke:#000000;stroke-width:1;" width="152.0541" x="421.5148" y="517.8382"/><text fill="#000000" font-family="'sans-serif'" font-size="11" lengthAdjust="spacing" textLength="120.6141" x="437.2348" y="539.5971">TranslationFaithfulness</text><text fill="#000000" font-family="'sans-serif'" font-size="11" lengthAdjust="spacing" textLength="77.6814" x="437.2348" y="554.579">FuelGateSafety</text><text fill="#000000" font-family="'sans-serif'" font-size="11" lengthAdjust="spacing" textLength="64.4485" x="437.2348" y="569.5609">Bisimulation</text></g><!--entity L4_mods--><g class="entity" data-qualified-name="L4.L4_mods" data-source-line="55" id="ent0009"><rect fill="#FFFFFF" height="34.9819" rx="2.5" ry="2.5" style="stroke:#000000;stroke-width:1;" width="125.6212" x="695.7348" y="532.8182"/><text fill="#000000" font-family="'sans-serif'" font-size="11" lengthAdjust="spacing" textLength="94.1813" x="711.4548" y="554.5771">WeakBarbedEquiv</text></g><!--entity L5_mods--><g class="entity" data-qualified-name="L5.L5_mods" data-source-line="59" id="ent0011"><rect fill="#FFFFFF" height="79.9276" rx="2.5" ry="2.5" style="stroke:#000000;stroke-width:1;" width="255.3653" x="349.8648" y="717.7782"/><text fill="#000000" font-family="'sans-serif'" font-size="11" lengthAdjust="spacing" textLength="57.1996" x="365.5848" y="739.5371">Replication</text><text fill="#000000" font-family="'sans-serif'" font-size="11" lengthAdjust="spacing" textLength="2.86" x="359.8648" y="754.519">&#160;</text><text fill="#000000" font-family="'sans-serif'" font-size="11" lengthAdjust="spacing" textLength="223.9254" x="365.5848" y="769.5009">_Replication support lives here and cannot_</text><text fill="#000000" font-family="'sans-serif'" font-size="11" lengthAdjust="spacing" textLength="145.254" x="365.5848" y="784.4828">_propagate into Layers 1-3._</text></g><!--link L1 to L2--><g class="link" data-entity-1="ent0002" data-entity-2="ent0004" data-link-type="dependency" data-source-line="64" id="lnk12"><path d="M750.5776,222.1344 C750.4596,222.4345 750.3412,222.7354 750.2226,223.0371 C749.2735,225.4503 748.3053,227.9122 747.3218,230.413 C743.3876,240.4163 739.2085,251.0426 735.0298,261.6682 C726.6723,282.9195 718.316,304.1682 711.9229,320.426 C711.1238,322.4582 710.3553,324.4125 709.6214,326.279 C709.2544,327.2123 711.0917,322.5398 710.7424,323.4279" fill="none" id="L1-to-L2" style="stroke:#444444;stroke-width:1.3;"/><polygon fill="#444444" points="708.5468,329.0118,715.5628,322.0998,710.3765,324.3586,708.1177,319.1723,708.5468,329.0118" style="stroke:#444444;stroke-width:1.3;"/></g><!--link L1 to L4--><g class="link" data-entity-1="ent0002" data-entity-2="ent0008" data-link-type="dependency" data-source-line="65" id="lnk13"><path d="M777.6885,202.9774 C778.0581,204.2959 778.4377,205.6504 778.8268,207.0389 C779.605,209.8158 780.4214,212.7287 781.2715,215.7621 C788.0726,240.0298 797.0367,272.0163 805.966,303.8795 C823.8248,367.6057 841.5448,430.8382 841.5448,430.8382 C841.5448,430.8382 843.3617,438.0132 846.1012,448.8316 C846.7861,451.5363 847.5286,454.4686 848.3149,457.5734 C848.5114,458.3496 848.7107,459.1366 848.9125,459.9336 C849.0134,460.332 849.115,460.733 849.2171,461.1363 C849.2682,461.3379 847.8465,455.7238 847.8979,455.9266" fill="none" id="L1-to-L4" style="stroke:#444444;stroke-width:1.3;"/><polygon fill="#444444" points="849.3707,461.743,851.039,452.0365,848.1433,456.896,843.2838,454.0003,849.3707,461.743" style="stroke:#444444;stroke-width:1.3;"/></g><!--link L2 to L3--><g class="link" data-entity-1="ent0004" data-entity-2="ent0006" data-link-type="dependency" data-source-line="66" id="lnk14"><path d="M678.5848,407.8119 C678.4518,408.1539 678.3184,408.4968 678.1847,408.8404 C677.9173,409.5278 677.6487,410.2184 677.3789,410.9121 C676.8392,412.2995 676.2947,413.6992 675.7459,415.1099 C671.3557,426.3956 666.692,438.3841 662.0285,450.372 C652.7017,474.3476 643.3757,498.3204 636.2403,516.6624 C635.3483,518.9552 634.4906,521.1599 633.6714,523.2657 C633.2618,524.3186 632.8618,525.3468 632.472,526.3488 C632.2771,526.8499 632.0847,527.3444 631.895,527.8321 C631.8001,528.076 633.8812,522.7265 633.7876,522.967" fill="none" id="L2-to-L3" style="stroke:#444444;stroke-width:1.3;"/><polygon fill="#444444" points="631.6123,528.5588,638.6032,521.6213,633.4251,523.899,631.1475,518.7209,631.6123,528.5588" style="stroke:#444444;stroke-width:1.3;"/></g><!--link L3 to L5--><g class="link" data-entity-1="ent0006" data-entity-2="ent0010" data-link-type="dependency" data-source-line="67" id="lnk15"><path d="M631.6911,603.6004 C631.7447,603.9441 631.7984,604.2889 631.8523,604.6346 C632.0677,606.0175 632.2856,607.416 632.5057,608.8288 C632.9459,611.6545 633.395,614.5371 633.8512,617.4653 C634.7635,623.3217 635.7043,629.3605 636.6592,635.4903 C637.1367,638.5553 637.6177,641.643 638.1005,644.7421 C638.1608,645.1294 638.2212,645.517 638.2816,645.9047 C638.3118,646.0986 638.342,646.2925 638.3722,646.4864 C638.3873,646.5834 637.4789,676.7156 637.494,676.8126" fill="none" id="L3-to-L5" style="stroke:#444444;stroke-width:1.3;"/><polygon fill="#444444" points="638.4175,682.7411,640.9845,673.2327,637.6479,677.8007,633.0799,674.4641,638.4175,682.7411" style="stroke:#444444;stroke-width:1.3;"/></g><!--link L4 to L5--><g class="link" data-entity-1="ent0008" data-entity-2="ent0010" data-link-type="dependency" data-source-line="68" id="lnk16"><path d="M854.4691,591.9901 C854.3547,592.2625 854.2405,592.5346 854.1265,592.8062 C853.8984,593.3494 853.6712,593.8908 853.4449,594.4299 C852.5398,596.5861 851.6504,598.7048 850.7907,600.7526 C849.0714,604.8484 847.471,608.6609 846.1012,611.924 C843.3617,618.4501 841.5448,622.7782 841.5448,622.7782 C841.5448,622.7782 796.4873,655.2307 750.7248,688.1907 C727.8435,704.6707 704.786,721.2776 687.0964,734.0182 C678.2515,740.3885 670.7486,745.7923 665.2807,749.7303 C664.939,749.9764 664.6052,750.2168 664.2795,750.4514 C664.1166,750.5687 668.8246,747.178 668.6658,747.2923" fill="none" id="L4-to-L5" style="stroke:#444444;stroke-width:1.3;"/><polygon fill="#444444" points="663.7971,750.7988,673.4378,748.7849,667.8543,747.8768,668.7625,742.2933,663.7971,750.7988" style="stroke:#444444;stroke-width:1.3;"/></g><g class="legend" data-source-line="70"><rect fill="none" height="86.2717" rx="7.5" ry="7.5" style="stroke:#000000;stroke-width:1;" width="819.6001" x="132.2448" y="832.7082"/><text fill="#000000" font-family="'sans-serif'" font-size="14" lengthAdjust="spacing" textLength="105.7836" x="137.2448" y="852.6741">Arrow direction:</text><text fill="#000000" font-family="'sans-serif'" font-size="14" font-weight="bold" lengthAdjust="spacing" textLength="46.3482" x="246.6684" y="852.6741">A &#10230; B</text><text fill="#000000" font-family="'sans-serif'" font-size="14" lengthAdjust="spacing" textLength="75.8937" x="296.6565" y="852.6741">means "tier</text><text fill="#000000" font-family="'sans-serif'" font-size="14" font-weight="bold" lengthAdjust="spacing" textLength="9.31" x="376.1902" y="852.6741">B</text><text fill="#000000" font-family="'sans-serif'" font-size="14" lengthAdjust="spacing" textLength="77.3077" x="389.1402" y="852.6741">imports tier</text><text fill="#000000" font-family="'sans-serif'" font-size="14" font-weight="bold" lengthAdjust="spacing" textLength="9.688" x="470.0879" y="852.6741">A</text><text fill="#000000" font-family="'sans-serif'" font-size="14" lengthAdjust="spacing" textLength="9.464" x="479.7759" y="852.6741">".</text><text fill="#000000" font-family="'sans-serif'" font-size="14" lengthAdjust="spacing" textLength="373.2946" x="137.2448" y="871.7421">Transitive edges at the tier level are omitted for clarity;\n</text><text fill="#000000" font-family="'sans-serif'" font-size="14" lengthAdjust="spacing" textLength="24.0099" x="137.2448" y="890.81">e.g.</text><text fill="#000000" font-family="'sans-serif'" font-size="14" font-weight="bold" lengthAdjust="spacing" textLength="50.4698" x="164.8947" y="890.81">Layer 5</text><text fill="#000000" font-family="'sans-serif'" font-size="14" lengthAdjust="spacing" textLength="179.0733" x="219.0045" y="890.81">directly imports a subset of</text><text fill="#000000" font-family="'sans-serif'" font-size="14" font-weight="bold" lengthAdjust="spacing" textLength="50.4698" x="401.7178" y="890.81">Layer 1</text><text fill="#000000" font-family="'sans-serif'" font-size="14" lengthAdjust="spacing" textLength="173.0813" x="452.1876" y="890.81">, but the dependency path</text><text fill="#000000" font-family="'sans-serif'" font-size="14" font-weight="bold" lengthAdjust="spacing" textLength="145.3866" x="628.9089" y="890.81">L1 &#10230; L2 &#10230; L3 &#10230; L5</text><text fill="#000000" font-family="'sans-serif'" font-size="14" lengthAdjust="spacing" textLength="168.9093" x="777.9355" y="890.81">carries the information.\n</text><text fill="#000000" font-family="'sans-serif'" font-size="14" lengthAdjust="spacing" textLength="287.3769" x="137.2448" y="909.8779">For per-module edges see &#167;11.1 File Listing.</text></g><?plantuml-src XLN1Zjis4BthAwPUe4sCobX9TbAqmGBshfKMSD9YlMWFTM7GqjWcJ94AINdh507w4Rtts3zex_cKV4c7b6pBkmwM5ylpE3DldcP6NzWr5WYbO5m6WTbmMJBD2YXPjc4hX3y2W14zhxIgP7wjXDAlNasYgoku68_JE4tFud63l_mCdZWyJTENu_5PlD_u3zFeB3xm_YEwCN2uqZbgZq5zBX9_24kLj5F-7k5meeFPxiJHlb0Y3pwq5CXnoIfXtSstZ2I2Zc7IX0OrNtREtwiJHL4BPLgh-nDgVNyUNhbRysmZqHZ7i9UqOC4bsbrvP5egiNF6rXsfSZHO7eiSNBPGpUJc17rn6GIMMwh-ZSeh-hd14cMECjl1QytADNpwyo_ugMc1dpdUp-Ip0PHQgMKes0urM8xQmCV_8Fe62X_4_xEKot3BjmYOhyYc2cujvZwWGOIF_qHHBu8bwR6iX80ITLZxav2MSV4y2FQzrvduL95tdkwaPPdb6RqxwWHckP8TQ7gH6PX4lbSrPfR95ONh0DokbNVxtHLDxEXChQuoEtvNyUqFSairK1Y0cJn1laUMcwCFXRd5d41_jrDdcnDh0nVtQswH-kOXwTYJlbR6XiCi8yQMonKmcSETaqWS-SSD__WnV-VUU6D-hCJJEi5Qz1pMIb7NThrcKgAOeck8sdm8TASsAA-LfCRUFiJI2iLuYzBUOAQAKhbNsz9BoTLRfGic-FkZPqrEBaL5_TIQkpqsjLZUe4LTSCbDiHSqVaBGn0kQCcxNr3X-KhwSoPe4ZBZXHTKIDMb4JHwBsXBd99eloXNycbcSiYKDNMrh1z-pJPvWs_TiVq6seUsb5pG0Fowym0iQb9dybUKvsUBB-4LusG_Zozyywtx3kl-OjGjLH_8TkkVHVuB7mFEunLBmh2vWB3ELkrwSLcMfj8Ld0jdo-MSv3HfEWpFZrGfBIZcjvcsRQJ88MWS6rgZH3q16lQZil1PtJakbP2kI7BYq2Znj0r6OzERx8WSFY_mAxcZzX0AtA6Xj77PNlN9SnSSz97P4cgO3ynxv3TskXPoxEeZYjp24CBo24Trn8zyP0IySPmF3JY-WdUBGINnuwWSqf_uf2QYv_DCWe1VMF0K2LyI6lYRMge84UvImsnt2fx__XL6t2mKII-YuNKfsPzbdRqp3RfTeD3tRNglC0dsuwskr38pKtIzRjrqpmJItk-zcalonj-fHkAOdA4zDYBJP9sJqjgX3BQZbuMBKxNuDYwfErPAvP7RjBaM-41B4_oJrZukUqIUD4qldn-NIhGXNVCzpIObSQ-lNzRG-3IadwuGRjp1x0UMi9Gt-1m00?></g></svg>