<?plantuml 1.2026.2?><svg xmlns="http://www.w3.org/2000/svg" xmlns:xlink="http://www.w3.org/1999/xlink" contentStyleType="text/css" data-diagram-type="STATE" height="828px" preserveAspectRatio="none" style="width:1012px;height:828px;background:#FFFFFF;" version="1.1" viewBox="0 0 1012 828" width="1012px" zoomAndPan="magnify"><title>No double-spend &#8212; consume_linear_atom (linear &#916;) vs reuse_unrestricted (unrestricted &#915;)</title><defs/><g><g class="title" data-source-line="21"><text fill="#000000" font-family="Verdana" font-size="22" font-weight="bold" lengthAdjust="spacing" textLength="979.8395" x="15" y="38.5181">No double-spend &#8212; consume_linear_atom (linear &#916;) vs reuse_unrestricted (unrestricted &#915;)</text></g><path d="M54.0101,62.9641 L547.5895,62.9641 A12.5,12.5 0 0 1 560.0895,75.4641 L560.0895,92.032 L41.5101,92.032 L41.5101,75.4641 A12.5,12.5 0 0 1 54.0101,62.9641" fill="#FFFFFF"/><path d="M41.5101,92.032 L560.0895,92.032 L560.0895,686.072 A12.5,12.5 0 0 1 547.5895,698.572 L54.0101,698.572 A12.5,12.5 0 0 1 41.5101,686.072 L41.5101,92.032" fill="#FFFFFF"/><rect fill="none" height="635.6079" rx="12.5" ry="12.5" style="stroke:#333333;stroke-width:1;" width="518.5794" x="41.5101" y="62.9641"/><line style="stroke:#333333;stroke-width:1;" x1="41.5101" x2="560.0895" y1="92.032" y2="92.032"/><text fill="#000000" font-family="Verdana" font-size="14" lengthAdjust="spacing" textLength="174.1173" x="213.7411" y="82.93">Linear zone &#916;  &#183;  single-use</text><g class="entity" data-qualified-name="LIN.HasA" id="ent0003"><rect fill="#C8E6C9" height="58.1358" rx="12.5" ry="12.5" style="stroke:#333333;stroke-width:1;" width="61.2999" x="200.1701" y="309.162"/><line style="stroke:#333333;stroke-width:1;" x1="200.1701" x2="261.4699" y1="357.2979" y2="357.2979"/><text fill="#000000" font-family="Verdana" font-size="14" lengthAdjust="spacing" textLength="36.4279" x="210.1701" y="329.128">Has a</text><text fill="#000000" font-family="Verdana" font-size="14" lengthAdjust="spacing" textLength="41.2999" x="210.1701" y="348.1959">&#916; = [a]</text></g><g class="entity" data-qualified-name="LIN.HasAA" id="ent0004"><rect fill="#C8E6C9" height="58.1358" rx="12.5" ry="12.5" style="stroke:#333333;stroke-width:1;" width="76.5458" x="256.5401" y="178.032"/><line style="stroke:#333333;stroke-width:1;" x1="256.5401" x2="333.0859" y1="226.1679" y2="226.1679"/><text fill="#000000" font-family="Verdana" font-size="14" lengthAdjust="spacing" textLength="51.6738" x="266.5401" y="197.998">Has a, a</text><text fill="#000000" font-family="Verdana" font-size="14" lengthAdjust="spacing" textLength="56.5458" x="266.5401" y="217.0659">&#916; = [a, a]</text></g><g class="entity" data-qualified-name="LIN.Empty" id="ent0005"><rect fill="#BBDEFB" height="58.1358" rx="12.5" ry="12.5" style="stroke:#333333;stroke-width:1;" width="88.6137" x="53.5101" y="440.302"/><line style="stroke:#333333;stroke-width:1;" x1="53.5101" x2="142.1238" y1="488.4379" y2="488.4379"/><text fill="#000000" font-family="Verdana" font-size="14" lengthAdjust="spacing" textLength="68.6137" x="63.5101" y="460.268">Exhausted</text><text fill="#000000" font-family="Verdana" font-size="14" lengthAdjust="spacing" textLength="37.0859" x="63.5101" y="479.3359">&#916; = [ ]</text></g><g class="entity" data-qualified-name="LIN.Rej" id="ent0006"><rect fill="#EF9A9A" height="58.1358" rx="12.5" ry="12.5" style="stroke:#333333;stroke-width:1;" width="76.3918" x="121.6201" y="571.432"/><line style="stroke:#333333;stroke-width:1;" x1="121.6201" x2="198.0119" y1="619.5679" y2="619.5679"/><text fill="#000000" font-family="Verdana" font-size="14" lengthAdjust="spacing" textLength="56.3918" x="131.6201" y="591.398">Rejected</text><text fill="#000000" font-family="Verdana" font-size="14" lengthAdjust="spacing" textLength="44.0578" x="131.6201" y="610.4659">(None)</text></g><g class="start_entity" data-qualified-name="LIN..start.LIN" data-source-line="29" id="ent0002"><ellipse cx="214.8201" cy="113.032" fill="#FFFFFF" rx="10" ry="10" style="stroke:#000000;stroke-width:1;"/></g><g class="end_entity" data-qualified-name="LIN..end.LIN" data-source-line="35" id="ent0009"><ellipse cx="105.8201" cy="677.572" fill="none" rx="11" ry="11" style="stroke:#000000;stroke-width:1;"/><ellipse cx="105.8201" cy="677.572" fill="#FFFFFF" rx="6" ry="6" style="stroke:#000000;stroke-width:1;"/></g><!--link *start*LIN to HasA--><g class="link" data-entity-1="ent0002" data-entity-2="ent0003" data-link-type="dependency" data-source-line="29" id="lnk3"><path d="M213.5101,123.122 C211.7901,135.502 208.8901,158.382 207.8201,178.032 C206.4101,203.832 204.9301,210.492 207.8201,236.162 C210.6101,261.022 215.5926,282.8877 220.9926,302.9777" fill="none" id="*start*LIN-to-HasA" style="stroke:#444444;stroke-width:1;"/><polygon fill="#444444" points="222.5501,308.772,224.0768,299.0422,221.2522,303.9434,216.351,301.1188,222.5501,308.772" style="stroke:#444444;stroke-width:1;"/><text fill="#000000" font-family="Verdana" font-size="13" lengthAdjust="spacing" textLength="38.35" x="208.8201" y="212.489">&#916; = [a]</text></g><!--link *start*LIN to HasAA--><g class="link" data-entity-1="ent0002" data-entity-2="ent0004" data-link-type="dependency" data-source-line="30" id="lnk4"><path d="M221.0901,121.252 C231.5601,133.292 249.1546,153.553 266.2646,173.243" fill="none" id="*start*LIN-to-HasAA" style="stroke:#444444;stroke-width:1;"/><polygon fill="#444444" points="270.2001,177.772,267.3161,168.3549,266.9205,173.9979,261.2775,173.6023,270.2001,177.772" style="stroke:#444444;stroke-width:1;"/><text fill="#000000" font-family="Verdana" font-size="13" lengthAdjust="spacing" textLength="52.507" x="253.4201" y="155.929">&#916; = [a, a]</text></g><!--link HasAA to HasA--><g class="link" data-entity-1="ent0004" data-entity-2="ent0003" data-link-type="dependency" data-source-line="31" id="lnk5"><path d="M280.7701,236.432 C270.1001,257.962 258.1534,282.0655 247.4934,303.5855" fill="none" id="HasAA-to-HasA" style="stroke:#C62828;stroke-width:1;"/><polygon fill="#C62828" points="244.8301,308.962,252.4093,302.6728,247.0495,304.4816,245.2407,299.1217,244.8301,308.962" style="stroke:#C62828;stroke-width:1;"/><text fill="#000000" font-family="Verdana" font-size="13" lengthAdjust="spacing" textLength="184.2504" x="317.7615" y="269.059">consume a  [a &#8712; &#916;]  / Some [a]</text><text fill="#000000" font-family="Verdana" font-size="13" lengthAdjust="spacing" textLength="276.9133" x="271.4301" y="286.765">(ll_double_spend_requires_duplicate_witness)</text></g><!--link HasA to Empty--><g class="link" data-entity-1="ent0003" data-entity-2="ent0005" data-link-type="dependency" data-source-line="32" id="lnk6"><path d="M199.7801,340.392 C168.5401,343.412 121.7801,353.382 98.8201,385.302 C87.6201,400.872 86.8419,416.7558 89.5919,434.1258" fill="none" id="HasA-to-Empty" style="stroke:#C62828;stroke-width:1;"/><polygon fill="#C62828" points="90.5301,440.052,93.0735,430.5372,89.7482,435.1135,85.172,431.7882,90.5301,440.052" style="stroke:#C62828;stroke-width:1;"/><text fill="#000000" font-family="Verdana" font-size="13" lengthAdjust="spacing" textLength="180.3374" x="134.744" y="400.199">consume a  [a &#8712; &#916;]  / Some [ ]</text><text fill="#000000" font-family="Verdana" font-size="13" lengthAdjust="spacing" textLength="250.1852" x="99.8201" y="417.905">(ll_consume_linear_once_atom_exhausts)</text></g><!--link HasA to Rej--><g class="link" data-entity-1="ent0003" data-entity-2="ent0006" data-link-type="dependency" data-source-line="33" id="lnk7"><path d="M261.8701,341.622 C290.3401,345.642 330.9701,356.422 350.8201,385.302 C393.1401,446.882 397.0501,494.732 350.8201,553.432 C332.1901,577.082 254.421,589.3382 204.211,595.0982" fill="none" id="HasA-to-Rej" style="stroke:#C62828;stroke-width:1;"/><polygon fill="#C62828" points="198.2501,595.782,207.6473,598.7302,203.2175,595.2122,206.7356,590.7823,198.2501,595.782" style="stroke:#C62828;stroke-width:1;"/><text fill="#000000" font-family="Verdana" font-size="13" lengthAdjust="spacing" textLength="165.0494" x="385.0401" y="474.769">consume b  [b &#8713; &#916;]  / None</text></g><!--link Empty to Rej--><g class="link" data-entity-1="ent0005" data-entity-2="ent0006" data-link-type="dependency" data-source-line="34" id="lnk8"><path d="M106.0601,498.822 C111.3101,515.232 118.8101,536.002 127.8201,553.432 C130.8601,559.322 131.2098,560.3411 134.9798,565.9911" fill="none" id="Empty-to-Rej" style="stroke:#C62828;stroke-width:1;"/><polygon fill="#C62828" points="138.3101,570.982,136.642,561.2754,135.5349,566.8229,129.9874,565.7158,138.3101,570.982" style="stroke:#C62828;stroke-width:1;"/><text fill="#000000" font-family="Verdana" font-size="13" lengthAdjust="spacing" textLength="163.6454" x="157.9005" y="531.329">consume a  [a &#8713; &#916;]  / None</text><text fill="#000000" font-family="Verdana" font-size="13" lengthAdjust="spacing" textLength="221.8062" x="128.8201" y="549.035">(ll_no_double_spend_single_witness)</text></g><!--link Empty to *end*LIN--><g class="link" data-entity-1="ent0005" data-entity-2="ent0009" data-link-type="dependency" data-source-line="35" id="lnk10"><path d="M98.9101,498.612 C100.7201,545.152 104.0077,629.8765 105.1877,660.3265" fill="none" id="Empty-to-*end*LIN" style="stroke:#444444;stroke-width:1;"/><polygon fill="#444444" points="105.4201,666.322,109.0686,657.1739,105.2265,661.3258,101.0746,657.4837,105.4201,666.322" style="stroke:#444444;stroke-width:1;"/></g><!--link Rej to *end*LIN--><g class="link" data-entity-1="ent0006" data-entity-2="ent0009" data-link-type="dependency" data-source-line="36" id="lnk11"><path d="M139.4001,629.882 C129.6101,643.502 122.0834,653.961 115.4234,663.221" fill="none" id="Rej-to-*end*LIN" style="stroke:#444444;stroke-width:1;"/><polygon fill="#444444" points="111.9201,668.092,120.4224,663.1211,114.8395,664.0329,113.9278,658.45,111.9201,668.092" style="stroke:#444444;stroke-width:1;"/></g><path d="M607.7801,298.1741 L969.8294,298.1741 A12.5,12.5 0 0 1 982.3294,310.6741 L982.3294,327.242 L595.2801,327.242 L595.2801,310.6741 A12.5,12.5 0 0 1 607.7801,298.1741" fill="#FFFFFF"/><path d="M595.2801,327.242 L982.3294,327.242 L982.3294,450.8779 A12.5,12.5 0 0 1 969.8294,463.3779 L607.7801,463.3779 A12.5,12.5 0 0 1 595.2801,450.8779 L595.2801,327.242" fill="#FFFFFF"/><rect fill="none" height="165.2038" rx="12.5" ry="12.5" style="stroke:#333333;stroke-width:1;" width="387.0493" x="595.2801" y="298.1741"/><line style="stroke:#333333;stroke-width:1;" x1="595.2801" x2="982.3294" y1="327.242" y2="327.242"/><text fill="#000000" font-family="Verdana" font-size="14" lengthAdjust="spacing" textLength="203.1812" x="687.2141" y="318.14">Unrestricted zone &#915;  &#183;  reusable</text><g class="entity" data-qualified-name="UNR.HasF" id="ent0008"><rect fill="#C5CAE9" height="58.1358" rx="12.5" ry="12.5" style="stroke:#333333;stroke-width:1;" width="53.3899" x="607.2801" y="395.242"/><line style="stroke:#333333;stroke-width:1;" x1="607.2801" x2="660.67" y1="443.3779" y2="443.3779"/><text fill="#000000" font-family="Verdana" font-size="14" lengthAdjust="spacing" textLength="33.3899" x="617.2801" y="415.208">Has f</text><text fill="#000000" font-family="Verdana" font-size="14" lengthAdjust="spacing" textLength="31.2772" x="617.2801" y="434.2759">f &#8712; &#915;</text></g><g class="start_entity" data-qualified-name="UNR..start.UNR" data-source-line="41" id="ent0012"><ellipse cx="633.9701" cy="348.242" fill="#FFFFFF" rx="10" ry="10" style="stroke:#000000;stroke-width:1;"/></g><!--link *start*UNR to HasF--><g class="link" data-entity-1="ent0012" data-entity-2="ent0008" data-link-type="dependency" data-source-line="41" id="lnk13"><path d="M633.9701,358.622 C633.9701,367.732 633.9701,376.032 633.9701,388.872" fill="none" id="*start*UNR-to-HasF" style="stroke:#444444;stroke-width:1;"/><polygon fill="#444444" points="633.9701,394.872,637.9701,385.872,633.9701,389.872,629.9701,385.872,633.9701,394.872" style="stroke:#444444;stroke-width:1;"/></g><!--link HasF to HasF--><g class="link" data-entity-1="ent0008" data-entity-2="ent0008" data-link-type="dependency" data-source-line="42" id="lnk14"><path d="M661.0301,415.402 C670.7501,415.212 678.6701,418.182 678.6701,424.312 C678.6701,430.442 676.7489,433.5293 667.0289,433.3393" fill="none" id="HasF-to-HasF" style="stroke:#3949AB;stroke-width:1;"/><polygon fill="#3949AB" points="661.0301,433.222,669.9502,437.3971,666.0291,433.3197,670.1065,429.3987,661.0301,433.222" style="stroke:#3949AB;stroke-width:1;"/><text fill="#000000" font-family="Verdana" font-size="13" lengthAdjust="spacing" textLength="123.2791" x="764.3602" y="420.709">use f  / &#915; unchanged</text><text fill="#000000" font-family="Verdana" font-size="13" lengthAdjust="spacing" textLength="282.6593" x="684.6701" y="438.415">(ll_unrestricted_can_be_reused &#8212; idempotent)</text></g><g class="entity" data-qualified-name="GMN2" data-source-line="46" id="ent0003"><path d="M78.1701,758.5741 L78.1701,821.6922 A0,0 0 0 0 78.1701,821.6922 L523.4384,821.6922 A0,0 0 0 0 523.4384,821.6922 L523.4384,768.5741 L513.4384,758.5741 L304.8001,758.5741 L300.8001,698.9841 L296.8001,758.5741 L78.1701,758.5741 A0,0 0 0 0 78.1701,758.5741" fill="#FFFFFF" style="stroke:#000000;stroke-width:1;"/><path d="M513.4384,758.5741 L513.4384,768.5741 L523.4384,768.5741 L513.4384,758.5741" fill="#FFFFFF" style="stroke:#000000;stroke-width:1;"/><text fill="#000000" font-family="Verdana" font-size="13" lengthAdjust="spacing" textLength="344.5522" x="84.1701" y="777.4711">Linear witnesses deplete &#8212; spent exactly once; a second</text><text fill="#000000" font-family="Verdana" font-size="13" lengthAdjust="spacing" textLength="352.5863" x="84.1701" y="795.1771">consume, or a consume of an absent atom, returns None.</text><text fill="#000000" font-family="Verdana" font-size="13" lengthAdjust="spacing" textLength="424.2683" x="84.1701" y="812.8831">cut: consume a (a :: &#916;) = Some &#916;  (ll_linear_cut_consumes_cut_witness)</text></g><g class="entity" data-qualified-name="GMN5" data-source-line="51" id="ent0006"><path d="M614.9001,767.4241 L614.9001,812.8361 A0,0 0 0 0 614.9001,812.8361 L962.7074,812.8361 A0,0 0 0 0 962.7074,812.8361 L962.7074,777.4241 L952.7074,767.4241 L792.8001,767.4241 L788.8001,463.7141 L784.8001,767.4241 L614.9001,767.4241 A0,0 0 0 0 614.9001,767.4241" fill="#FFFFFF" style="stroke:#000000;stroke-width:1;"/><path d="M952.7074,767.4241 L952.7074,777.4241 L962.7074,777.4241 L952.7074,767.4241" fill="#FFFFFF" style="stroke:#000000;stroke-width:1;"/><text fill="#000000" font-family="Verdana" font-size="13" lengthAdjust="spacing" textLength="273.1823" x="620.9001" y="786.3211">Unrestricted ( !-marked ) resources persist &#8212;</text><text fill="#000000" font-family="Verdana" font-size="13" lengthAdjust="spacing" textLength="326.8073" x="620.9001" y="804.0271">reuse_unrestricted &#947; = &#947;, usable any number of times.</text></g><?plantuml-src XLJ1Jjj04BtxAuRaabG9bO0YGW79IHCL2UL0nGaYQsrFYC7UTNVN1LeXzKZFy2SSUky7v2FuaixksY5EqzOdx-wyUJFptkw6dc66aASiuPwwJdZE9Cj0QQOHlda0VI5Zb0EH2WcrhxbjFnF2ekjBAGeUsx23WnbJHqScPB0tt1tqreLWbkix2chs-n-6e_ww48bNBijmrFDx_lgGGg79CdWty8U6o9TItAof5fexzlFkFPte564i81P5c69NvSXZUFd-197WgiWmI1EEJ0PCYmnQRW7pfpPyKM0PWu9BL5ecaSOOMhNL_B7jUMvyZHC7_Ieu4XxWrqy0bV1B8gKi3M0AJex7TimbuYDjiGjEmOTmpYODMphjqRuFK4vs9RopXA3_IQC2-7y2XhSpLYYgiqA0uQ3ueT435hgy8axn2YCBQ8sfZtQZh8ZsmLHaLV8e_lpD1BhTexBKVQXwM3doNuzCiNJgThldpS7krjxMtcGfHoa8CCh1uENXWQ0JWBVmIT0k9QUgqZHmGWPMo43Yvo8XGOAuoDCaeYQ2cqHpLAfTaa6TpBN-Np8eoLPC8dY4rYa1kjd-ZSODx9Kc99gGQ7vKD6Qy17Nb_1DQLLY3kkgug4_3sMrv0cL-IakoqDebhzRt2_EUBRlQMVZHMTZS0KOKrcXduzDL0qyl-DJDxx7ouWWMbxNkXv4RriWqlDtRwVdzKlyHzKlnC3Nz4NF1endZbzQ8rEVodGiYneCG0qlWRd8Iav65HgxRfYLEln0ARIwqc9fBHxJbxIn7WmfYp5EaG9F0J4y3th98ftTWH7vFOrT84iI4BPNe0BqpRA4BfMOSMAWCrdYYGxFIXUJAAhHfW8LUrh75O7_VlYs7pcRccJ3zbUwYyCfmoYuMGfetoxIrsXlfGJGryLgmqSsOlARVDXMaH24ZQZT7gHAbJRiUh7lOvizKrVov0qvkwkqEU965A0sHJgYcpKKTlm40?></g></svg>