<?plantuml 1.2026.2?><svg xmlns="http://www.w3.org/2000/svg" xmlns:xlink="http://www.w3.org/1999/xlink" contentStyleType="text/css" data-diagram-type="ACTIVITY" height="656px" preserveAspectRatio="none" style="width:1673px;height:656px;background:#FFFFFF;" version="1.1" viewBox="0 0 1673 656" width="1673px" zoomAndPan="magnify"><title>No double-spend &#8212; consume_linear_atom (linear &#916;) vs reuse_unrestricted (unrestricted &#915;)</title><defs/><g><rect fill="#FFFFCC" height="99.4799" rx="2.5" ry="2.5" style="stroke:#FFDD88;stroke-width:3;" width="1662.1821" x="5" y="5"/><text fill="#000000" font-family="monospace" font-size="10" lengthAdjust="spacing" textLength="534" x="10" y="20">This&#160;syntax&#160;is&#160;deprecated,&#160;you&#160;must&#160;add&#160;&lt;&lt;#FFE0B2&gt;&gt;&#160;at&#160;the&#160;end&#160;of&#160;the&#160;line,&#160;after&#160;the&#160;';'</text><text fill="#000000" font-family="monospace" font-size="10" lengthAdjust="spacing" textLength="534" x="10" y="43.62">This&#160;syntax&#160;is&#160;deprecated,&#160;you&#160;must&#160;add&#160;&lt;&lt;#C8E6C9&gt;&gt;&#160;at&#160;the&#160;end&#160;of&#160;the&#160;line,&#160;after&#160;the&#160;';'</text><text fill="#000000" font-family="monospace" font-size="10" lengthAdjust="spacing" textLength="534" x="10" y="67.24">This&#160;syntax&#160;is&#160;deprecated,&#160;you&#160;must&#160;add&#160;&lt;&lt;#EF9A9A&gt;&gt;&#160;at&#160;the&#160;end&#160;of&#160;the&#160;line,&#160;after&#160;the&#160;';'</text><text fill="#000000" font-family="monospace" font-size="10" lengthAdjust="spacing" textLength="534" x="10" y="90.86">This&#160;syntax&#160;is&#160;deprecated,&#160;you&#160;must&#160;add&#160;&lt;&lt;#C5CAE9&gt;&gt;&#160;at&#160;the&#160;end&#160;of&#160;the&#160;line,&#160;after&#160;the&#160;';'</text><g class="title" data-source-line="19"><text fill="#000000" font-family="'sans-serif'" font-size="22" font-weight="bold" lengthAdjust="spacing" textLength="979.8395" x="337.6713" y="147.998">No double-spend &#8212; consume_linear_atom (linear &#916;) vs reuse_unrestricted (unrestricted &#915;)</text></g><ellipse cx="786.3975" cy="175.4441" fill="#FFFFFF" rx="10" ry="10" style="stroke:#000000;stroke-width:1;"/><rect fill="#FFFFFF" height="36.3441" rx="12.5" ry="12.5" style="stroke:#333333;stroke-width:1;" width="194.6013" x="689.0968" y="205.4441"/><text fill="#000000" font-family="'sans-serif'" font-size="12" lengthAdjust="spacing" textLength="174.6013" x="699.0968" y="228.2721">a resource is presented for use</text><polygon fill="#FFE082" points="734.5603,261.7882,838.2346,261.7882,850.2346,273.7882,838.2346,285.7882,734.5603,285.7882,722.5603,273.7882,734.5603,261.7882" style="stroke:#333333;stroke-width:1;"/><text fill="#000000" font-family="'sans-serif'" font-size="11" lengthAdjust="spacing" textLength="103.6743" x="734.5603" y="278.0561">which zone holds it?</text><text fill="#000000" font-family="'sans-serif'" font-size="11" lengthAdjust="spacing" textLength="108.5252" x="614.0351" y="270.5652">linear &#916; &#8212; single-use</text><text fill="#000000" font-family="'sans-serif'" font-size="11" lengthAdjust="spacing" textLength="133.0441" x="850.2346" y="270.5652">unrestricted &#915; &#8212; reusable</text><rect fill="#FFFFFF" height="36.3441" rx="12.5" ry="12.5" style="stroke:#333333;stroke-width:1;" width="171.789" x="287.6894" y="295.7882"/><text fill="#000000" font-family="'sans-serif'" font-size="12" lengthAdjust="spacing" textLength="151.789" x="297.6894" y="318.6163">consume_linear_atom(a, &#916;)</text><polygon fill="#FFE082" points="330.1287,352.1323,417.0391,352.1323,429.0391,364.1323,417.0391,376.1323,330.1287,376.1323,318.1287,364.1323,330.1287,352.1323" style="stroke:#333333;stroke-width:1;"/><text fill="#000000" font-family="'sans-serif'" font-size="11" lengthAdjust="spacing" textLength="86.9104" x="330.1287" y="368.4002">is a present in &#916;?</text><text fill="#000000" font-family="'sans-serif'" font-size="11" lengthAdjust="spacing" textLength="54.2527" x="263.876" y="360.9093">yes &#183; a &#8712; &#916;</text><text fill="#000000" font-family="'sans-serif'" font-size="11" lengthAdjust="spacing" textLength="202.1247" x="429.0391" y="360.9093">no &#183; a &#8713; &#916; &#8212; already spent / never held</text><rect fill="#FFFFFF" height="36.3441" rx="12.5" ry="12.5" style="stroke:#333333;stroke-width:1;" width="176.4091" x="15.2341" y="386.1323"/><text fill="#000000" font-family="'sans-serif'" font-size="12" lengthAdjust="spacing" textLength="156.4091" x="25.2341" y="408.9604">remove the first matching a</text><path d="M220.8773,432.4764 L220.8773,486.5944 L200.8773,490.5944 L220.8773,494.5944 L220.8773,548.7125 A0,0 0 0 0 220.8773,548.7125 L510.9905,548.7125 A0,0 0 0 0 510.9905,548.7125 L510.9905,442.4764 L500.9905,432.4764 L220.8773,432.4764 A0,0 0 0 0 220.8773,432.4764" fill="#FFF8E1" style="stroke:#666666;stroke-width:1;"/><path d="M500.9905,432.4764 L500.9905,442.4764 L510.9905,442.4764 L500.9905,432.4764" fill="#FFF8E1" style="stroke:#666666;stroke-width:1;"/><text fill="#000000" font-family="'sans-serif'" font-size="13" lengthAdjust="spacing" textLength="211.3788" x="226.8773" y="451.3734">[a]    &#8594; one spend, then a is absent</text><text fill="#000000" font-family="'sans-serif'" font-size="13" lengthAdjust="spacing" textLength="197.5338" x="226.8773" y="469.0794">[a, a] &#8594; two spends, then absent</text><text fill="#000000" font-family="'sans-serif'" font-size="13" lengthAdjust="spacing" textLength="193.2712" x="226.8773" y="486.7854">cut: consume a (a :: &#916;) = Some &#916;</text><text fill="#000000" font-family="'sans-serif'" font-size="13" lengthAdjust="spacing" textLength="242.3852" x="226.8773" y="504.4915">ll_consume_linear_once_atom_exhausts</text><text fill="#000000" font-family="'sans-serif'" font-size="13" lengthAdjust="spacing" textLength="269.1132" x="226.8773" y="522.1975">ll_double_spend_requires_duplicate_witness</text><text fill="#000000" font-family="'sans-serif'" font-size="13" lengthAdjust="spacing" textLength="216.4372" x="226.8773" y="539.9035">ll_linear_cut_consumes_cut_witness</text><rect fill="#FFFFFF" height="52.6882" rx="12.5" ry="12.5" style="stroke:#333333;stroke-width:1;" width="194.8773" x="6" y="464.2503"/><text fill="#000000" font-family="'sans-serif'" font-size="12" lengthAdjust="spacing" textLength="84.3726" x="16" y="487.0784">return Some &#916;&#8242;</text><text fill="#000000" font-family="'sans-serif'" font-size="12" lengthAdjust="spacing" textLength="174.8773" x="16" y="503.4225">&#8212; witness a spent exactly once</text><rect fill="#FFFFFF" height="36.3441" rx="12.5" ry="12.5" style="stroke:#333333;stroke-width:1;" width="89.5285" x="598.965" y="386.1323"/><text fill="#000000" font-family="'sans-serif'" font-size="12" lengthAdjust="spacing" textLength="69.5285" x="608.965" y="408.9604">return None</text><path d="M776.4679,432.4764 L776.4679,460.0354 L756.4679,464.0354 L776.4679,468.0354 L776.4679,495.5944 A0,0 0 0 0 776.4679,495.5944 L1033.2881,495.5944 A0,0 0 0 0 1033.2881,495.5944 L1033.2881,442.4764 L1023.2881,432.4764 L776.4679,432.4764 A0,0 0 0 0 776.4679,432.4764" fill="#FFF8E1" style="stroke:#666666;stroke-width:1;"/><path d="M1023.2881,432.4764 L1023.2881,442.4764 L1033.2881,442.4764 L1023.2881,432.4764" fill="#FFF8E1" style="stroke:#666666;stroke-width:1;"/><text fill="#000000" font-family="'sans-serif'" font-size="13" lengthAdjust="spacing" textLength="235.8202" x="782.4679" y="451.3734">a second spend of an exhausted atom,</text><text fill="#000000" font-family="'sans-serif'" font-size="13" lengthAdjust="spacing" textLength="150.4751" x="782.4679" y="469.0794">or any absent atom, fails</text><text fill="#000000" font-family="'sans-serif'" font-size="13" lengthAdjust="spacing" textLength="214.0062" x="782.4679" y="486.7854">ll_no_double_spend_single_witness</text><rect fill="#FFFFFF" height="36.3441" rx="12.5" ry="12.5" style="stroke:#333333;stroke-width:1;" width="225.4774" x="530.9905" y="445.8634"/><text fill="#000000" font-family="'sans-serif'" font-size="12" lengthAdjust="spacing" textLength="205.4774" x="540.9905" y="468.6915">spend REJECTED &#8212; no double-spend</text><polygon fill="#FFE082" points="373.5839,554.7125,385.5839,566.7125,373.5839,578.7125,361.5839,566.7125,373.5839,554.7125" style="stroke:#333333;stroke-width:1;"/><rect fill="#FFFFFF" height="36.3441" rx="12.5" ry="12.5" style="stroke:#333333;stroke-width:1;" width="90.5496" x="1133.9362" y="295.7882"/><text fill="#000000" font-family="'sans-serif'" font-size="12" lengthAdjust="spacing" textLength="70.5496" x="1143.9362" y="318.6163">use f   (f &#8712; &#915;)</text><path d="M1335.1339,355.7704 L1335.1339,374.4764 L1315.1339,378.4764 L1335.1339,382.4764 L1335.1339,401.1824 A0,0 0 0 0 1335.1339,401.1824 L1651.1821,401.1824 A0,0 0 0 0 1651.1821,401.1824 L1651.1821,365.7704 L1641.1821,355.7704 L1335.1339,355.7704 A0,0 0 0 0 1335.1339,355.7704" fill="#FFF8E1" style="stroke:#666666;stroke-width:1;"/><path d="M1641.1821,355.7704 L1641.1821,365.7704 L1651.1821,365.7704 L1641.1821,355.7704" fill="#FFF8E1" style="stroke:#666666;stroke-width:1;"/><text fill="#000000" font-family="'sans-serif'" font-size="13" lengthAdjust="spacing" textLength="295.0482" x="1341.1339" y="374.6674">! -marked resources persist; reuse is idempotent</text><text fill="#000000" font-family="'sans-serif'" font-size="13" lengthAdjust="spacing" textLength="183.6512" x="1341.1339" y="392.3734">ll_unrestricted_can_be_reused</text><rect fill="#FFFFFF" height="52.6882" rx="12.5" ry="12.5" style="stroke:#333333;stroke-width:1;" width="271.8458" x="1043.2881" y="352.1323"/><text fill="#000000" font-family="'sans-serif'" font-size="12" lengthAdjust="spacing" textLength="134.521" x="1053.2881" y="374.9604">reuse_unrestricted &#947; = &#947;</text><text fill="#000000" font-family="'sans-serif'" font-size="12" lengthAdjust="spacing" textLength="251.8458" x="1053.2881" y="391.3045">&#8212; &#915; unchanged, usable any number of times</text><polygon fill="#FFE082" points="786.3975,584.7125,798.3975,596.7125,786.3975,608.7125,774.3975,596.7125,786.3975,584.7125" style="stroke:#333333;stroke-width:1;"/><ellipse cx="786.3975" cy="639.7125" fill="none" rx="11" ry="11" style="stroke:#000000;stroke-width:1;"/><ellipse cx="786.3975" cy="639.7125" fill="#FFFFFF" rx="6" ry="6" style="stroke:#000000;stroke-width:1;"/><line style="stroke:#444444;stroke-width:1;" x1="786.3975" x2="786.3975" y1="185.4441" y2="205.4441"/><polygon fill="#444444" points="782.3975,195.4441,786.3975,205.4441,790.3975,195.4441,786.3975,199.4441" style="stroke:#444444;stroke-width:1;"/><line style="stroke:#444444;stroke-width:1;" x1="103.4386" x2="103.4386" y1="422.4764" y2="464.2503"/><polygon fill="#444444" points="99.4386,454.2503,103.4386,464.2503,107.4386,454.2503,103.4386,458.2503" style="stroke:#444444;stroke-width:1;"/><line style="stroke:#444444;stroke-width:1;" x1="643.7292" x2="643.7292" y1="422.4764" y2="445.8634"/><polygon fill="#444444" points="639.7292,435.8634,643.7292,445.8634,647.7292,435.8634,643.7292,439.8634" style="stroke:#444444;stroke-width:1;"/><line style="stroke:#444444;stroke-width:1;" x1="318.1287" x2="103.4386" y1="364.1323" y2="364.1323"/><line style="stroke:#444444;stroke-width:1;" x1="103.4386" x2="103.4386" y1="364.1323" y2="386.1323"/><polygon fill="#444444" points="99.4386,376.1323,103.4386,386.1323,107.4386,376.1323,103.4386,380.1323" style="stroke:#444444;stroke-width:1;"/><line style="stroke:#444444;stroke-width:1;" x1="429.0391" x2="643.7292" y1="364.1323" y2="364.1323"/><line style="stroke:#444444;stroke-width:1;" x1="643.7292" x2="643.7292" y1="364.1323" y2="386.1323"/><polygon fill="#444444" points="639.7292,376.1323,643.7292,386.1323,647.7292,376.1323,643.7292,380.1323" style="stroke:#444444;stroke-width:1;"/><line style="stroke:#444444;stroke-width:1;" x1="103.4386" x2="103.4386" y1="516.9386" y2="566.7125"/><line style="stroke:#444444;stroke-width:1;" x1="103.4386" x2="361.5839" y1="566.7125" y2="566.7125"/><polygon fill="#444444" points="351.5839,562.7125,361.5839,566.7125,351.5839,570.7125,355.5839,566.7125" style="stroke:#444444;stroke-width:1;"/><line style="stroke:#444444;stroke-width:1;" x1="643.7292" x2="643.7292" y1="482.2075" y2="566.7125"/><line style="stroke:#444444;stroke-width:1;" x1="643.7292" x2="385.5839" y1="566.7125" y2="566.7125"/><polygon fill="#444444" points="395.5839,562.7125,385.5839,566.7125,395.5839,570.7125,391.5839,566.7125" style="stroke:#444444;stroke-width:1;"/><line style="stroke:#444444;stroke-width:1;" x1="373.5839" x2="373.5839" y1="332.1323" y2="352.1323"/><polygon fill="#444444" points="369.5839,342.1323,373.5839,352.1323,377.5839,342.1323,373.5839,346.1323" style="stroke:#444444;stroke-width:1;"/><line style="stroke:#444444;stroke-width:1;" x1="1179.211" x2="1179.211" y1="332.1323" y2="352.1323"/><polygon fill="#444444" points="1175.211,342.1323,1179.211,352.1323,1183.211,342.1323,1179.211,346.1323" style="stroke:#444444;stroke-width:1;"/><line style="stroke:#444444;stroke-width:1;" x1="722.5603" x2="373.5839" y1="273.7882" y2="273.7882"/><line style="stroke:#444444;stroke-width:1;" x1="373.5839" x2="373.5839" y1="273.7882" y2="295.7882"/><polygon fill="#444444" points="369.5839,285.7882,373.5839,295.7882,377.5839,285.7882,373.5839,289.7882" style="stroke:#444444;stroke-width:1;"/><line style="stroke:#444444;stroke-width:1;" x1="850.2346" x2="1179.211" y1="273.7882" y2="273.7882"/><line style="stroke:#444444;stroke-width:1;" x1="1179.211" x2="1179.211" y1="273.7882" y2="295.7882"/><polygon fill="#444444" points="1175.211,285.7882,1179.211,295.7882,1183.211,285.7882,1179.211,289.7882" style="stroke:#444444;stroke-width:1;"/><line style="stroke:#444444;stroke-width:1;" x1="373.5839" x2="373.5839" y1="578.7125" y2="596.7125"/><line style="stroke:#444444;stroke-width:1;" x1="373.5839" x2="774.3975" y1="596.7125" y2="596.7125"/><polygon fill="#444444" points="764.3975,592.7125,774.3975,596.7125,764.3975,600.7125,768.3975,596.7125" style="stroke:#444444;stroke-width:1;"/><line style="stroke:#444444;stroke-width:1;" x1="1179.211" x2="1179.211" y1="404.8205" y2="596.7125"/><line style="stroke:#444444;stroke-width:1;" x1="1179.211" x2="798.3975" y1="596.7125" y2="596.7125"/><polygon fill="#444444" points="808.3975,592.7125,798.3975,596.7125,808.3975,600.7125,804.3975,596.7125" style="stroke:#444444;stroke-width:1;"/><line style="stroke:#444444;stroke-width:1;" x1="786.3975" x2="786.3975" y1="241.7882" y2="261.7882"/><polygon fill="#444444" points="782.3975,251.7882,786.3975,261.7882,790.3975,251.7882,786.3975,255.7882" style="stroke:#444444;stroke-width:1;"/><line style="stroke:#444444;stroke-width:1;" x1="786.3975" x2="786.3975" y1="608.7125" y2="628.7125"/><polygon fill="#444444" points="782.3975,618.7125,786.3975,628.7125,790.3975,618.7125,786.3975,622.7125" style="stroke:#444444;stroke-width:1;"/><?plantuml-src VLJ1SjCm4BtxAvRsaioa0nJeDCamJ9gc1muz03TWF1jx7MjgIq6IauPJJqovqdu9FN3d0_8H-H9MajqcQOek7etUstrw--HdDgUIO5gWa96v47AA6aj8ASEgi6TAsdFayps3qXmOqYBRMuCDj5RpeIgKXbrh_xLVwuJ4YfcmYnEbKzAFcFkl_Df5mEHYebKbqmtI_fbVEmYd0aibqsqU4qOlZW__GzXIzbZIkRBqX9n6ql7evJPXzuKzuSYlo0fR48CXLTMue0Cp9Pd2wkeM4YLDLL9S24ceOxIgX5ROmFAs3JC3cYf3SIKr6Qj5OYc5riPkUTEE8cDHswY733UgqWc1C33b3Kc7oLWSb-b78eFMF1T93j-L9CXLaHeGzbqRE2vohRUNPuISi5vcjYC83fySzdQ8Rc77wUqpodNWtjXq1o7vwBx1WWpy_SF7g-jhHucyKSFZqT6mszDKgXav96H26mibsYHd4O3zBQ2jj8IFYXEyl5rT_VuYdTwvi9ACQ-uija2NcDXY0Kec50f8dXXeCSbj56Rq6R-wp-h7Bt26-D5qWbPq7kBONU8Ut076Ex2Tgm0s3NeTc5IsrmoNwxGGUZq_qBUDvXfO5F6MdKwhzpIconmhOyq3DEGdzdrZJTygmHx7QJKjH8AMulh-3uIw9ijfsXY_MGUwB3fRU4E58MX9rKpePnC4B3HXkgXjVGwIPgGXfoAj1pWwwmwwWsOkvsnbV-CWHFx3wFre-6bqwclApVVmn7nubCJIqs0sg0nGGkqC1ziPrQcXd76KYteGuGGo5CMQ7r9jUXW2_gGTCXLP54pPUdB-1kvf8XVpZsFuPZWOTNlyLY3ZCgqi9Fp6FuhcTCTZNjvnA9Pt8S1Sk999Zd92dC9GtLzALkMO7UVhMy53T3Mth7e61oNg2wxO_0Bu1q3Q26FxuIVYuYnIAgTCh9FAbgoBYHEKyPXY3q-ZDJE25SQgwJy0?></g></svg>