<?plantuml 1.2026.2?><svg xmlns="http://www.w3.org/2000/svg" xmlns:xlink="http://www.w3.org/1999/xlink" contentStyleType="text/css" data-diagram-type="ACTIVITY" height="547px" preserveAspectRatio="none" style="width:1658px;height:547px;background:#FFFFFF;" version="1.1" viewBox="0 0 1658 547" width="1658px" zoomAndPan="magnify"><title>No double-spend &#8212; consume_linear_atom (linear &#916;) vs reuse_unrestricted (unrestricted &#915;)</title><defs/><g><g class="title" data-source-line="19"><text fill="#000000" font-family="'sans-serif'" font-size="22" font-weight="bold" lengthAdjust="spacing" textLength="979.8395" x="337.6713" y="38.5181">No double-spend &#8212; consume_linear_atom (linear &#916;) vs reuse_unrestricted (unrestricted &#915;)</text></g><ellipse cx="786.3975" cy="65.9641" fill="#FFFFFF" rx="10" ry="10" style="stroke:#000000;stroke-width:1;"/><rect fill="#FFFFFF" height="36.3441" rx="12.5" ry="12.5" style="stroke:#333333;stroke-width:1;" width="194.6013" x="689.0968" y="95.9641"/><text fill="#000000" font-family="'sans-serif'" font-size="12" lengthAdjust="spacing" textLength="174.6013" x="699.0968" y="118.7922">a resource is presented for use</text><polygon fill="#FFE082" points="734.5603,152.3082,838.2346,152.3082,850.2346,164.3082,838.2346,176.3082,734.5603,176.3082,722.5603,164.3082,734.5603,152.3082" style="stroke:#333333;stroke-width:1;"/><text fill="#000000" font-family="'sans-serif'" font-size="11" lengthAdjust="spacing" textLength="103.6743" x="734.5603" y="168.5762">which zone holds it?</text><text fill="#000000" font-family="'sans-serif'" font-size="11" lengthAdjust="spacing" textLength="108.5252" x="614.0351" y="161.0852">linear &#916; &#8212; single-use</text><text fill="#000000" font-family="'sans-serif'" font-size="11" lengthAdjust="spacing" textLength="133.0441" x="850.2346" y="161.0852">unrestricted &#915; &#8212; reusable</text><rect fill="#FFE0B2" height="36.3441" rx="12.5" ry="12.5" style="stroke:#333333;stroke-width:1;" width="171.789" x="287.6894" y="186.3082"/><text fill="#000000" font-family="'sans-serif'" font-size="12" lengthAdjust="spacing" textLength="151.789" x="297.6894" y="209.1363">consume_linear_atom(a, &#916;)</text><polygon fill="#FFE082" points="330.1287,242.6523,417.0391,242.6523,429.0391,254.6523,417.0391,266.6523,330.1287,266.6523,318.1287,254.6523,330.1287,242.6523" style="stroke:#333333;stroke-width:1;"/><text fill="#000000" font-family="'sans-serif'" font-size="11" lengthAdjust="spacing" textLength="86.9104" x="330.1287" y="258.9203">is a present in &#916;?</text><text fill="#000000" font-family="'sans-serif'" font-size="11" lengthAdjust="spacing" textLength="54.2527" x="263.876" y="251.4294">yes &#183; a &#8712; &#916;</text><text fill="#000000" font-family="'sans-serif'" font-size="11" lengthAdjust="spacing" textLength="202.1247" x="429.0391" y="251.4294">no &#183; a &#8713; &#916; &#8212; already spent / never held</text><rect fill="#C8E6C9" height="36.3441" rx="12.5" ry="12.5" style="stroke:#333333;stroke-width:1;" width="176.4091" x="15.2341" y="276.6523"/><text fill="#000000" font-family="'sans-serif'" font-size="12" lengthAdjust="spacing" textLength="156.4091" x="25.2341" y="299.4804">remove the first matching a</text><path d="M220.8773,322.9964 L220.8773,377.1145 L200.8773,381.1145 L220.8773,385.1145 L220.8773,439.2325 A0,0 0 0 0 220.8773,439.2325 L510.9905,439.2325 A0,0 0 0 0 510.9905,439.2325 L510.9905,332.9964 L500.9905,322.9964 L220.8773,322.9964 A0,0 0 0 0 220.8773,322.9964" fill="#FFF8E1" style="stroke:#666666;stroke-width:1;"/><path d="M500.9905,322.9964 L500.9905,332.9964 L510.9905,332.9964 L500.9905,322.9964" fill="#FFF8E1" style="stroke:#666666;stroke-width:1;"/><text fill="#000000" font-family="'sans-serif'" font-size="13" lengthAdjust="spacing" textLength="211.3788" x="226.8773" y="341.8935">[a]    &#8594; one spend, then a is absent</text><text fill="#000000" font-family="'sans-serif'" font-size="13" lengthAdjust="spacing" textLength="197.5338" x="226.8773" y="359.5995">[a, a] &#8594; two spends, then absent</text><text fill="#000000" font-family="'sans-serif'" font-size="13" lengthAdjust="spacing" textLength="193.2712" x="226.8773" y="377.3055">cut: consume a (a :: &#916;) = Some &#916;</text><text fill="#000000" font-family="'sans-serif'" font-size="13" lengthAdjust="spacing" textLength="242.3852" x="226.8773" y="395.0115">ll_consume_linear_once_atom_exhausts</text><text fill="#000000" font-family="'sans-serif'" font-size="13" lengthAdjust="spacing" textLength="269.1132" x="226.8773" y="412.7175">ll_double_spend_requires_duplicate_witness</text><text fill="#000000" font-family="'sans-serif'" font-size="13" lengthAdjust="spacing" textLength="216.4372" x="226.8773" y="430.4235">ll_linear_cut_consumes_cut_witness</text><rect fill="#C8E6C9" height="52.6882" rx="12.5" ry="12.5" style="stroke:#333333;stroke-width:1;" width="194.8773" x="6" y="354.7704"/><text fill="#000000" font-family="'sans-serif'" font-size="12" lengthAdjust="spacing" textLength="84.3726" x="16" y="377.5985">return Some &#916;&#8242;</text><text fill="#000000" font-family="'sans-serif'" font-size="12" lengthAdjust="spacing" textLength="174.8773" x="16" y="393.9426">&#8212; witness a spent exactly once</text><rect fill="#EF9A9A" height="36.3441" rx="12.5" ry="12.5" style="stroke:#333333;stroke-width:1;" width="89.5285" x="598.965" y="276.6523"/><text fill="#000000" font-family="'sans-serif'" font-size="12" lengthAdjust="spacing" textLength="69.5285" x="608.965" y="299.4804">return None</text><path d="M776.4679,322.9964 L776.4679,350.5555 L756.4679,354.5555 L776.4679,358.5555 L776.4679,386.1145 A0,0 0 0 0 776.4679,386.1145 L1033.2881,386.1145 A0,0 0 0 0 1033.2881,386.1145 L1033.2881,332.9964 L1023.2881,322.9964 L776.4679,322.9964 A0,0 0 0 0 776.4679,322.9964" fill="#FFF8E1" style="stroke:#666666;stroke-width:1;"/><path d="M1023.2881,322.9964 L1023.2881,332.9964 L1033.2881,332.9964 L1023.2881,322.9964" fill="#FFF8E1" style="stroke:#666666;stroke-width:1;"/><text fill="#000000" font-family="'sans-serif'" font-size="13" lengthAdjust="spacing" textLength="235.8202" x="782.4679" y="341.8935">a second spend of an exhausted atom,</text><text fill="#000000" font-family="'sans-serif'" font-size="13" lengthAdjust="spacing" textLength="150.4751" x="782.4679" y="359.5995">or any absent atom, fails</text><text fill="#000000" font-family="'sans-serif'" font-size="13" lengthAdjust="spacing" textLength="214.0062" x="782.4679" y="377.3055">ll_no_double_spend_single_witness</text><rect fill="#EF9A9A" height="36.3441" rx="12.5" ry="12.5" style="stroke:#333333;stroke-width:1;" width="225.4774" x="530.9905" y="336.3834"/><text fill="#000000" font-family="'sans-serif'" font-size="12" lengthAdjust="spacing" textLength="205.4774" x="540.9905" y="359.2115">spend REJECTED &#8212; no double-spend</text><polygon fill="#FFE082" points="373.5839,445.2325,385.5839,457.2325,373.5839,469.2325,361.5839,457.2325,373.5839,445.2325" style="stroke:#333333;stroke-width:1;"/><rect fill="#C5CAE9" height="36.3441" rx="12.5" ry="12.5" style="stroke:#333333;stroke-width:1;" width="90.5496" x="1133.9362" y="186.3082"/><text fill="#000000" font-family="'sans-serif'" font-size="12" lengthAdjust="spacing" textLength="70.5496" x="1143.9362" y="209.1363">use f   (f &#8712; &#915;)</text><path d="M1335.1339,246.2904 L1335.1339,264.9964 L1315.1339,268.9964 L1335.1339,272.9964 L1335.1339,291.7025 A0,0 0 0 0 1335.1339,291.7025 L1651.1821,291.7025 A0,0 0 0 0 1651.1821,291.7025 L1651.1821,256.2904 L1641.1821,246.2904 L1335.1339,246.2904 A0,0 0 0 0 1335.1339,246.2904" fill="#FFF8E1" style="stroke:#666666;stroke-width:1;"/><path d="M1641.1821,246.2904 L1641.1821,256.2904 L1651.1821,256.2904 L1641.1821,246.2904" fill="#FFF8E1" style="stroke:#666666;stroke-width:1;"/><text fill="#000000" font-family="'sans-serif'" font-size="13" lengthAdjust="spacing" textLength="295.0482" x="1341.1339" y="265.1874">! -marked resources persist; reuse is idempotent</text><text fill="#000000" font-family="'sans-serif'" font-size="13" lengthAdjust="spacing" textLength="183.6512" x="1341.1339" y="282.8935">ll_unrestricted_can_be_reused</text><rect fill="#C5CAE9" height="52.6882" rx="12.5" ry="12.5" style="stroke:#333333;stroke-width:1;" width="271.8458" x="1043.2881" y="242.6523"/><text fill="#000000" font-family="'sans-serif'" font-size="12" lengthAdjust="spacing" textLength="134.521" x="1053.2881" y="265.4804">reuse_unrestricted &#947; = &#947;</text><text fill="#000000" font-family="'sans-serif'" font-size="12" lengthAdjust="spacing" textLength="251.8458" x="1053.2881" y="281.8245">&#8212; &#915; unchanged, usable any number of times</text><polygon fill="#FFE082" points="786.3975,475.2325,798.3975,487.2325,786.3975,499.2325,774.3975,487.2325,786.3975,475.2325" style="stroke:#333333;stroke-width:1;"/><ellipse cx="786.3975" cy="530.2325" fill="none" rx="11" ry="11" style="stroke:#000000;stroke-width:1;"/><ellipse cx="786.3975" cy="530.2325" fill="#FFFFFF" rx="6" ry="6" style="stroke:#000000;stroke-width:1;"/><line style="stroke:#444444;stroke-width:1;" x1="786.3975" x2="786.3975" y1="75.9641" y2="95.9641"/><polygon fill="#444444" points="782.3975,85.9641,786.3975,95.9641,790.3975,85.9641,786.3975,89.9641" style="stroke:#444444;stroke-width:1;"/><line style="stroke:#444444;stroke-width:1;" x1="103.4386" x2="103.4386" y1="312.9964" y2="354.7704"/><polygon fill="#444444" points="99.4386,344.7704,103.4386,354.7704,107.4386,344.7704,103.4386,348.7704" style="stroke:#444444;stroke-width:1;"/><line style="stroke:#444444;stroke-width:1;" x1="643.7292" x2="643.7292" y1="312.9964" y2="336.3834"/><polygon fill="#444444" points="639.7292,326.3834,643.7292,336.3834,647.7292,326.3834,643.7292,330.3834" style="stroke:#444444;stroke-width:1;"/><line style="stroke:#444444;stroke-width:1;" x1="318.1287" x2="103.4386" y1="254.6523" y2="254.6523"/><line style="stroke:#444444;stroke-width:1;" x1="103.4386" x2="103.4386" y1="254.6523" y2="276.6523"/><polygon fill="#444444" points="99.4386,266.6523,103.4386,276.6523,107.4386,266.6523,103.4386,270.6523" style="stroke:#444444;stroke-width:1;"/><line style="stroke:#444444;stroke-width:1;" x1="429.0391" x2="643.7292" y1="254.6523" y2="254.6523"/><line style="stroke:#444444;stroke-width:1;" x1="643.7292" x2="643.7292" y1="254.6523" y2="276.6523"/><polygon fill="#444444" points="639.7292,266.6523,643.7292,276.6523,647.7292,266.6523,643.7292,270.6523" style="stroke:#444444;stroke-width:1;"/><line style="stroke:#444444;stroke-width:1;" x1="103.4386" x2="103.4386" y1="407.4586" y2="457.2325"/><line style="stroke:#444444;stroke-width:1;" x1="103.4386" x2="361.5839" y1="457.2325" y2="457.2325"/><polygon fill="#444444" points="351.5839,453.2325,361.5839,457.2325,351.5839,461.2325,355.5839,457.2325" style="stroke:#444444;stroke-width:1;"/><line style="stroke:#444444;stroke-width:1;" x1="643.7292" x2="643.7292" y1="372.7275" y2="457.2325"/><line style="stroke:#444444;stroke-width:1;" x1="643.7292" x2="385.5839" y1="457.2325" y2="457.2325"/><polygon fill="#444444" points="395.5839,453.2325,385.5839,457.2325,395.5839,461.2325,391.5839,457.2325" style="stroke:#444444;stroke-width:1;"/><line style="stroke:#444444;stroke-width:1;" x1="373.5839" x2="373.5839" y1="222.6523" y2="242.6523"/><polygon fill="#444444" points="369.5839,232.6523,373.5839,242.6523,377.5839,232.6523,373.5839,236.6523" style="stroke:#444444;stroke-width:1;"/><line style="stroke:#444444;stroke-width:1;" x1="1179.211" x2="1179.211" y1="222.6523" y2="242.6523"/><polygon fill="#444444" points="1175.211,232.6523,1179.211,242.6523,1183.211,232.6523,1179.211,236.6523" style="stroke:#444444;stroke-width:1;"/><line style="stroke:#444444;stroke-width:1;" x1="722.5603" x2="373.5839" y1="164.3082" y2="164.3082"/><line style="stroke:#444444;stroke-width:1;" x1="373.5839" x2="373.5839" y1="164.3082" y2="186.3082"/><polygon fill="#444444" points="369.5839,176.3082,373.5839,186.3082,377.5839,176.3082,373.5839,180.3082" style="stroke:#444444;stroke-width:1;"/><line style="stroke:#444444;stroke-width:1;" x1="850.2346" x2="1179.211" y1="164.3082" y2="164.3082"/><line style="stroke:#444444;stroke-width:1;" x1="1179.211" x2="1179.211" y1="164.3082" y2="186.3082"/><polygon fill="#444444" points="1175.211,176.3082,1179.211,186.3082,1183.211,176.3082,1179.211,180.3082" style="stroke:#444444;stroke-width:1;"/><line style="stroke:#444444;stroke-width:1;" x1="373.5839" x2="373.5839" y1="469.2325" y2="487.2325"/><line style="stroke:#444444;stroke-width:1;" x1="373.5839" x2="774.3975" y1="487.2325" y2="487.2325"/><polygon fill="#444444" points="764.3975,483.2325,774.3975,487.2325,764.3975,491.2325,768.3975,487.2325" style="stroke:#444444;stroke-width:1;"/><line style="stroke:#444444;stroke-width:1;" x1="1179.211" x2="1179.211" y1="295.3406" y2="487.2325"/><line style="stroke:#444444;stroke-width:1;" x1="1179.211" x2="798.3975" y1="487.2325" y2="487.2325"/><polygon fill="#444444" points="808.3975,483.2325,798.3975,487.2325,808.3975,491.2325,804.3975,487.2325" style="stroke:#444444;stroke-width:1;"/><line style="stroke:#444444;stroke-width:1;" x1="786.3975" x2="786.3975" y1="132.3082" y2="152.3082"/><polygon fill="#444444" points="782.3975,142.3082,786.3975,152.3082,790.3975,142.3082,786.3975,146.3082" style="stroke:#444444;stroke-width:1;"/><line style="stroke:#444444;stroke-width:1;" x1="786.3975" x2="786.3975" y1="499.2325" y2="519.2325"/><polygon fill="#444444" points="782.3975,509.2325,786.3975,519.2325,790.3975,509.2325,786.3975,513.2325" style="stroke:#444444;stroke-width:1;"/><?plantuml-src VLHDSzCm4BtxLspRIpAJ3b2WqwQbJ9gc1muz03TWF1jxNMjgIq6I4yAf9wPSQNy9FN3d1-H7v9UmakmsNqKNZqRlhPxUllMMpQaa61KeP6IkX1oXnX9Ioh0gxBcIzWBvVDkWDBk6jCYs5s0zhTMahmgbOTFQUUNN8Y6nOYpiz5JfbFGQS-UbNvi8c5nTQbN9T8cqS-xN1iAPm5B9T9N7XC7pWxt_45QKhKkwK9QUaDD8EXYyM2LiVh0dxFiLMM4BOZ2agXeMj6j695EONzz1egIfIeeB8GbrZ5QLq0eRcDsrOMn0KsKehgGcOxL8BANGMjhDRjjHP2ng6tMHuKPLEY4G1aQy8Uam6OlZCaUHoA0roKMImtSb2N9Lf0Q4VTi6ZejSkDlBCq9UibvcjYE0xWQrBUmueKTmVEmRSBftSi9GTmqBm4O22CcmXrkcPE3l7pwUtzmuUkJSwcegrPWS13AXZOKIRPAp141VltymsEyV-leURIijuOFY4C_kvjU_FqidUIAi9EEkTYvRe6-Os68AIYQqNaLo0q6Bozn6eMMVy8lxp7_y0kUFxrGdg4PdAGxTSnx07M2y0zk92c3Je1U1IMMxJQ-vJWkXs_NzVTFehu554Q-Ox7HxfsFwbcDbh7c4XZZ5_jvOqzTAiDjnMeqAaQ2bkFRYaL3NP3dDDSPl5e4kciuMtb1X25fIDRtwsUG22qsOJckBdu6aCMd8gKZRIysvO0-zwOFpmzvXhsbToF_xmRj1_-FWp5UKoyEnJbhh53UO-15fi1rK1YYXzeWJxophr50EFyfftP9m0XcAOi4PgPRT3Cb_qXYPYYmAzgpCed-DcrdaOdvgU7eWOtuh2t6_3TFIVztl3K8EknjcV7RFuPZTXr1psKecESfBuZI6slv9iYg7x3m_tWfkvchX5TEsOBT4VSNLcxy4_oD86s7iKVZFk8YBbCeH4-lqiZcBmk84PJoasCFJQC6MO8gnQlGF?></g></svg>