<?plantuml 1.2026.2?><svg xmlns="http://www.w3.org/2000/svg" xmlns:xlink="http://www.w3.org/1999/xlink" contentStyleType="text/css" data-diagram-type="DESCRIPTION" height="994px" preserveAspectRatio="none" style="width:1349px;height:994px;background:#FFFFFF;" version="1.1" viewBox="0 0 1349 994" width="1349px" zoomAndPan="magnify"><defs/><g><!--cluster Layer 1 ? Syntactic Foundation--><g class="cluster" data-qualified-name="Layer 1 . Syntactic Foundation" data-source-line="32" id="ent0002"><path d="M13.5,11.602 L233.8512,11.602 A3.75,3.75 0 0 1 236.3512,14.102 L243.3512,36.6699 L1065.5,36.6699 A2.5,2.5 0 0 1 1068,39.1699 L1068,178.372 A2.5,2.5 0 0 1 1065.5,180.872 L13.5,180.872 A2.5,2.5 0 0 1 11,178.372 L11,14.102 A2.5,2.5 0 0 1 13.5,11.602" fill="#EEF2FF" style="stroke:#444444;stroke-width:1;"/><line style="stroke:#444444;stroke-width:1;" x1="11" x2="243.3512" y1="36.6699" y2="36.6699"/><text fill="#000000" font-family="Verdana" font-size="14" font-weight="bold" lengthAdjust="spacing" textLength="219.3512" x="15" y="28.5679">Layer 1 &#8212; Syntactic Foundation</text><text fill="#000000" font-family="Verdana" font-size="14" font-style="italic" lengthAdjust="spacing" textLength="27.7619" x="529.619" y="53.6358">&#171;L1&#187;</text></g><!--cluster Layer 2 ? Cost-Accounting & Translation--><g class="cluster" data-qualified-name="Layer 2 . Cost-Accounting . Translation" data-source-line="39" id="ent0007"><path d="M41.5,204.872 L326.1669,204.872 A3.75,3.75 0 0 1 328.6669,207.372 L335.6669,229.9399 L954.5,229.9399 A2.5,2.5 0 0 1 957,232.4399 L957,371.642 A2.5,2.5 0 0 1 954.5,374.142 L41.5,374.142 A2.5,2.5 0 0 1 39,371.642 L39,207.372 A2.5,2.5 0 0 1 41.5,204.872" fill="#EEF7FF" style="stroke:#444444;stroke-width:1;"/><line style="stroke:#444444;stroke-width:1;" x1="39" x2="335.6669" y1="229.9399" y2="229.9399"/><text fill="#000000" font-family="Verdana" font-size="14" font-weight="bold" lengthAdjust="spacing" textLength="283.6669" x="43" y="221.8379">Layer 2 &#8212; Cost-Accounting &amp; Translation</text><text fill="#000000" font-family="Verdana" font-size="14" font-style="italic" lengthAdjust="spacing" textLength="27.7619" x="488.119" y="246.9058">&#171;L2&#187;</text></g><!--cluster Layer 3 ? Faithfulness & Strong Bisimulation--><g class="cluster" data-qualified-name="Layer 3 . Faithfulness . Strong Bisimulation" data-source-line="46" id="ent0012"><path d="M409.5,398.142 L724.1828,398.142 A3.75,3.75 0 0 1 726.6828,400.642 L733.6828,423.2099 L905.5,423.2099 A2.5,2.5 0 0 1 908,425.7099 L908,753.252 A2.5,2.5 0 0 1 905.5,755.752 L409.5,755.752 A2.5,2.5 0 0 1 407,753.252 L407,400.642 A2.5,2.5 0 0 1 409.5,398.142" fill="#FFF7EE" style="stroke:#444444;stroke-width:1;"/><line style="stroke:#444444;stroke-width:1;" x1="407" x2="733.6828" y1="423.2099" y2="423.2099"/><text fill="#000000" font-family="Verdana" font-size="14" font-weight="bold" lengthAdjust="spacing" textLength="313.6828" x="411" y="415.1079">Layer 3 &#8212; Faithfulness &amp; Strong Bisimulation</text><text fill="#000000" font-family="Verdana" font-size="14" font-style="italic" lengthAdjust="spacing" textLength="27.7619" x="647.619" y="440.1758">&#171;L3&#187;</text></g><!--cluster Layer 4 ? Weak Barbed Observables   [added 2026-04-20]--><g class="cluster" data-qualified-name="Layer 4 . Weak Barbed Observables   .added 2026-04-20." data-source-line="52" id="ent0016"><path d="M934.5,586.482 L1329.9905,586.482 A3.75,3.75 0 0 1 1332.4905,588.982 L1339.4905,611.5499 L1339.5,611.5499 A2.5,2.5 0 0 1 1342,614.0499 L1342,753.252 A2.5,2.5 0 0 1 1339.5,755.752 L934.5,755.752 A2.5,2.5 0 0 1 932,753.252 L932,588.982 A2.5,2.5 0 0 1 934.5,586.482" fill="#EEFAF1" style="stroke:#444444;stroke-width:1;"/><line style="stroke:#444444;stroke-width:1;" x1="932" x2="1339.4905" y1="611.5499" y2="611.5499"/><text fill="#000000" font-family="Verdana" font-size="14" font-weight="bold" lengthAdjust="spacing" textLength="394.4905" x="936" y="603.4479">Layer 4 &#8212; Weak Barbed Observables   [added 2026-04-20]</text><text fill="#000000" font-family="Verdana" font-size="14" font-style="italic" lengthAdjust="spacing" textLength="27.7619" x="1127.119" y="628.5158">&#171;L4&#187;</text></g><!--cluster Layer 5 ? Replication Encoding Support (leaf)   [added 2026-04-20]--><g class="cluster" data-qualified-name="Layer 5 . Replication Encoding Support .leaf.   .added 2026-04-20." data-source-line="56" id="ent0018"><path d="M647.5,779.752 L1105.0943,779.752 A3.75,3.75 0 0 1 1107.5943,782.252 L1114.5943,804.8199 L1114.5,804.8199 A2.5,2.5 0 0 1 1117,807.3199 L1117,984.662 A2.5,2.5 0 0 1 1114.5,987.162 L647.5,987.162 A2.5,2.5 0 0 1 645,984.662 L645,782.252 A2.5,2.5 0 0 1 647.5,779.752" fill="#FBEEF5" style="stroke:#444444;stroke-width:1;"/><line style="stroke:#444444;stroke-width:1;" x1="645" x2="1114.5943" y1="804.8199" y2="804.8199"/><text fill="#000000" font-family="Verdana" font-size="14" font-weight="bold" lengthAdjust="spacing" textLength="456.5943" x="649" y="796.7179">Layer 5 &#8212; Replication Encoding Support (leaf)   [added 2026-04-20]</text><text fill="#000000" font-family="Verdana" font-size="14" font-style="italic" lengthAdjust="spacing" textLength="27.7619" x="871.119" y="821.7858">&#171;L5&#187;</text></g><!--entity RhoSyntax--><g class="entity" data-qualified-name="Layer 1 . Syntactic Foundation.RhoSyntax" data-source-line="33" id="ent0003"><rect fill="#FFFFFF" height="77.2038" rx="2.5" ry="2.5" style="stroke:#333333;stroke-width:1;" width="218.9672" x="26.52" y="78.132"/><text fill="#000000" font-family="Verdana" font-size="14" lengthAdjust="spacing" textLength="69.6217" x="36.52" y="103.0979">RhoSyntax</text><text fill="#000000" font-family="Verdana" font-size="14" lengthAdjust="spacing" textLength="122.3315" x="36.52" y="122.1658">855 lines &#183; 41 thms</text><text fill="#000000" font-family="Verdana" font-size="14" lengthAdjust="spacing" textLength="198.9672" x="36.52" y="141.2338">subst_lift_zero, head_count_se</text></g><!--entity SEI--><g class="entity" data-qualified-name="Layer 1 . Syntactic Foundation.SEI" data-source-line="34" id="ent0004"><rect fill="#FFFFFF" height="77.2038" rx="2.5" ry="2.5" style="stroke:#333333;stroke-width:1;" width="220.6192" x="280.69" y="78.132"/><text fill="#000000" font-family="Verdana" font-size="14" lengthAdjust="spacing" textLength="136.3455" x="290.69" y="103.0979">StructEquivInversion</text><text fill="#000000" font-family="Verdana" font-size="14" lengthAdjust="spacing" textLength="114.3235" x="290.69" y="122.1658">253 lines &#183; 7 thms</text><text fill="#000000" font-family="Verdana" font-size="14" lengthAdjust="spacing" textLength="200.6192" x="290.69" y="141.2338">head_count, count_* functions</text></g><!--entity SEH--><g class="entity" data-qualified-name="Layer 1 . Syntactic Foundation.SEH" data-source-line="35" id="ent0005"><rect fill="#FFFFFF" height="96.2717" rx="2.5" ry="2.5" style="stroke:#333333;stroke-width:1;" width="216.8112" x="536.59" y="68.602"/><text fill="#000000" font-family="Verdana" font-size="14" lengthAdjust="spacing" textLength="116.1576" x="546.59" y="93.5679">StructEquivHeads</text><text fill="#000000" font-family="Verdana" font-size="14" lengthAdjust="spacing" textLength="134.0914" x="546.59" y="112.6358">1,470 lines &#183; 47 thms</text><text fill="#000000" font-family="Verdana" font-size="14" lengthAdjust="spacing" textLength="196.8112" x="546.59" y="131.7038">heads, list_equiv, perm_equiv,</text><text fill="#000000" font-family="Verdana" font-size="14" lengthAdjust="spacing" textLength="196.6012" x="546.59" y="150.7717">se_P*_inj, only_replicate (&#167;8.7)</text></g><!--entity RhoRed--><g class="entity" data-qualified-name="Layer 1 . Syntactic Foundation.RhoRed" data-source-line="36" id="ent0006"><rect fill="#FFFFFF" height="96.2717" rx="2.5" ry="2.5" style="stroke:#333333;stroke-width:1;" width="263.5571" x="788.22" y="68.602"/><text fill="#000000" font-family="Verdana" font-size="14" lengthAdjust="spacing" textLength="92.2036" x="798.22" y="93.5679">RhoReduction</text><text fill="#000000" font-family="Verdana" font-size="14" lengthAdjust="spacing" textLength="122.3315" x="798.22" y="112.6358">442 lines &#183; 22 thms</text><text fill="#000000" font-family="Verdana" font-size="14" lengthAdjust="spacing" textLength="162.5254" x="798.22" y="131.7038">rho_step, rho_reachable,</text><text fill="#000000" font-family="Verdana" font-size="14" lengthAdjust="spacing" textLength="243.5571" x="798.22" y="150.7717">barb + input_barb/output_barb (&#167;3.6)</text></g><!--entity CAS--><g class="entity" data-qualified-name="Layer 2 . Cost-Accounting . Translation.CAS" data-source-line="40" id="ent0008"><rect fill="#FFFFFF" height="77.2038" rx="2.5" ry="2.5" style="stroke:#333333;stroke-width:1;" width="162.5895" x="54.71" y="271.402"/><text fill="#000000" font-family="Verdana" font-size="14" lengthAdjust="spacing" textLength="142.5895" x="64.71" y="296.3679">CostAccountedSyntax</text><text fill="#000000" font-family="Verdana" font-size="14" lengthAdjust="spacing" textLength="114.3235" x="64.71" y="315.4358">231 lines &#183; 7 thms</text><text fill="#000000" font-family="Verdana" font-size="14" lengthAdjust="spacing" textLength="117.8515" x="64.71" y="334.5038">sig, token, system</text></g><!--entity CAR--><g class="entity" data-qualified-name="Layer 2 . Cost-Accounting . Translation.CAR" data-source-line="41" id="ent0009"><rect fill="#FFFFFF" height="77.2038" rx="2.5" ry="2.5" style="stroke:#333333;stroke-width:1;" width="218.4492" x="252.78" y="271.402"/><text fill="#000000" font-family="Verdana" font-size="14" lengthAdjust="spacing" textLength="165.1714" x="262.78" y="296.3679">CostAccountedReduction</text><text fill="#000000" font-family="Verdana" font-size="14" lengthAdjust="spacing" textLength="114.3235" x="262.78" y="315.4358">283 lines &#183; 5 thms</text><text fill="#000000" font-family="Verdana" font-size="14" lengthAdjust="spacing" textLength="198.4492" x="262.78" y="334.5038">ca_step (5 rules), ca_reachable</text></g><!--entity Trans--><g class="entity" data-qualified-name="Layer 2 . Cost-Accounting . Translation.Trans" data-source-line="42" id="ent0010"><rect fill="#FFFFFF" height="96.2717" rx="2.5" ry="2.5" style="stroke:#333333;stroke-width:1;" width="148.7155" x="506.64" y="261.872"/><text fill="#000000" font-family="Verdana" font-size="14" lengthAdjust="spacing" textLength="74.0317" x="516.64" y="286.8379">Translation</text><text fill="#000000" font-family="Verdana" font-size="14" lengthAdjust="spacing" textLength="122.3315" x="516.64" y="305.9058">580 lines &#183; 24 thms</text><text fill="#000000" font-family="Verdana" font-size="14" lengthAdjust="spacing" textLength="128.7155" x="516.64" y="324.9738">N_tr, T_tr, P_tr, S_tr,</text><text fill="#000000" font-family="Verdana" font-size="14" lengthAdjust="spacing" textLength="60.5218" x="516.64" y="344.0417">Split, Join</text></g><!--entity TokCon--><g class="entity" data-qualified-name="Layer 2 . Cost-Accounting . Translation.TokCon" data-source-line="43" id="ent0011"><rect fill="#FFFFFF" height="77.2038" rx="2.5" ry="2.5" style="stroke:#333333;stroke-width:1;" width="250.5791" x="690.71" y="271.402"/><text fill="#000000" font-family="Verdana" font-size="14" lengthAdjust="spacing" textLength="127.3855" x="700.71" y="296.3679">TokenConservation</text><text fill="#000000" font-family="Verdana" font-size="14" lengthAdjust="spacing" textLength="114.3235" x="700.71" y="315.4358">234 lines &#183; 9 thms</text><text fill="#000000" font-family="Verdana" font-size="14" lengthAdjust="spacing" textLength="230.5791" x="700.71" y="334.5038">token_monotone_step / _reachable</text></g><!--entity TF--><g class="entity" data-qualified-name="Layer 3 . Faithfulness . Strong Bisimulation.TF" data-source-line="47" id="ent0013"><rect fill="#FFFFFF" height="115.3396" rx="2.5" ry="2.5" style="stroke:#333333;stroke-width:1;" width="209.9232" x="682.04" y="455.142"/><text fill="#000000" font-family="Verdana" font-size="14" lengthAdjust="spacing" textLength="153.5094" x="692.04" y="480.1079">TranslationFaithfulness</text><text fill="#000000" font-family="Verdana" font-size="14" lengthAdjust="spacing" textLength="134.0914" x="692.04" y="499.1758">4,183 lines &#183; 84 thms</text><text fill="#000000" font-family="Verdana" font-size="14" lengthAdjust="spacing" textLength="153.1594" x="692.04" y="518.2438">contextual reachability,</text><text fill="#000000" font-family="Verdana" font-size="14" lengthAdjust="spacing" textLength="111.5236" x="692.04" y="537.3117">per-step reverse,</text><text fill="#000000" font-family="Verdana" font-size="14" lengthAdjust="spacing" textLength="189.9232" x="692.04" y="556.3796">phased + recursive reflection</text></g><!--entity FGS--><g class="entity" data-qualified-name="Layer 3 . Faithfulness . Strong Bisimulation.FGS" data-source-line="48" id="ent0014"><rect fill="#FFFFFF" height="77.2038" rx="2.5" ry="2.5" style="stroke:#333333;stroke-width:1;" width="223.8112" x="423.09" y="474.212"/><text fill="#000000" font-family="Verdana" font-size="14" lengthAdjust="spacing" textLength="98.8676" x="433.09" y="499.1779">FuelGateSafety</text><text fill="#000000" font-family="Verdana" font-size="14" lengthAdjust="spacing" textLength="122.3315" x="433.09" y="518.2458">357 lines &#183; 14 thms</text><text fill="#000000" font-family="Verdana" font-size="14" lengthAdjust="spacing" textLength="203.8112" x="433.09" y="537.3138">no_send_on, capability security</text></g><!--entity Bisim--><g class="entity" data-qualified-name="Layer 3 . Faithfulness . Strong Bisimulation.Bisim" data-source-line="49" id="ent0015"><rect fill="#FFFFFF" height="96.2717" rx="2.5" ry="2.5" style="stroke:#333333;stroke-width:1;" width="224.9452" x="667.53" y="643.482"/><text fill="#000000" font-family="Verdana" font-size="14" lengthAdjust="spacing" textLength="82.0257" x="677.53" y="668.4479">Bisimulation</text><text fill="#000000" font-family="Verdana" font-size="14" lengthAdjust="spacing" textLength="134.0914" x="677.53" y="687.5158">1,248 lines &#183; 37 thms</text><text fill="#000000" font-family="Verdana" font-size="14" lengthAdjust="spacing" textLength="204.9452" x="677.53" y="706.5838">bisim (coind.), post_gate_bisim,</text><text fill="#000000" font-family="Verdana" font-size="14" lengthAdjust="spacing" textLength="172.0593" x="677.53" y="725.6517">multi_stuck_residue_bisim</text></g><!--entity WBE--><g class="entity" data-qualified-name="Layer 4 . Weak Barbed Observables   .added 2026-04-20..WBE" data-source-line="53" id="ent0017"><rect fill="#FFFFFF" height="96.2717" rx="2.5" ry="2.5" style="stroke:#333333;stroke-width:1;" width="265.2511" x="948.37" y="643.482"/><text fill="#000000" font-family="Verdana" font-size="14" lengthAdjust="spacing" textLength="119.8675" x="958.37" y="668.4479">WeakBarbedEquiv</text><text fill="#000000" font-family="Verdana" font-size="14" lengthAdjust="spacing" textLength="122.3315" x="958.37" y="687.5158">261 lines &#183; 17 thms</text><text fill="#000000" font-family="Verdana" font-size="14" lengthAdjust="spacing" textLength="245.2511" x="958.37" y="706.5838">weak_barb_input, weak_barb_output,</text><text fill="#000000" font-family="Verdana" font-size="14" lengthAdjust="spacing" textLength="229.7391" x="958.37" y="725.6517">weak_barbed_equiv_except x (&#167;6.6)</text></g><!--entity Rep--><g class="entity" data-qualified-name="Layer 5 . Replication Encoding Support .leaf.   .added 2026-04-20..Rep" data-source-line="57" id="ent0019"><rect fill="#FFFFFF" height="134.4075" rx="2.5" ry="2.5" style="stroke:#333333;stroke-width:1;" width="339.2128" x="760.39" y="836.752"/><text fill="#000000" font-family="Verdana" font-size="14" lengthAdjust="spacing" textLength="72.7997" x="770.39" y="861.7179">Replication</text><text fill="#000000" font-family="Verdana" font-size="14" lengthAdjust="spacing" textLength="134.0914" x="770.39" y="880.7858">2,075 lines &#183; 62 thms</text><text fill="#000000" font-family="Verdana" font-size="14" lengthAdjust="spacing" textLength="189.9652" x="770.39" y="899.8538">bang_encoding, D_encoding,</text><text fill="#000000" font-family="Verdana" font-size="14" lengthAdjust="spacing" textLength="160.6494" x="770.39" y="918.9217">bang_encoding_unfolds,</text><text fill="#000000" font-family="Verdana" font-size="14" lengthAdjust="spacing" textLength="209.0472" x="770.39" y="937.9896">step-inversion machinery (&#167;8.7),</text><text fill="#000000" font-family="Verdana" font-size="14" lengthAdjust="spacing" textLength="319.2128" x="770.39" y="957.0575">replication_encoding_forward_barb_sound (&#167;6.6)</text></g><g class="entity" data-qualified-name="GMN29" data-source-line="72" id="ent0030"><path d="M1134.44,872.402 L1134.44,899.962 L1099.97,903.962 L1134.44,907.962 L1134.44,935.52 A0,0 0 0 0 1134.44,935.52 L1315.5611,935.52 A0,0 0 0 0 1315.5611,935.52 L1315.5611,882.402 L1305.5611,872.402 L1134.44,872.402 A0,0 0 0 0 1134.44,872.402" fill="#FFFFFF" style="stroke:#000000;stroke-width:1;"/><path d="M1305.5611,872.402 L1305.5611,882.402 L1315.5611,882.402 L1305.5611,872.402" fill="#FFFFFF" style="stroke:#000000;stroke-width:1;"/><text fill="#000000" font-family="Verdana" font-size="13" lengthAdjust="spacing" textLength="119.1581" x="1140.44" y="891.299">Replication support</text><text fill="#000000" font-family="Verdana" font-size="13" lengthAdjust="spacing" textLength="130.5591" x="1140.44" y="909.005">lives here and cannot</text><text fill="#000000" font-family="Verdana" font-size="13" lengthAdjust="spacing" textLength="160.1211" x="1140.44" y="926.711">propagate into Layers 1-3.</text></g><!--link RhoSyntax to CAS--><g class="link" data-entity-1="ent0003" data-entity-2="ent0008" data-link-type="dependency" data-source-line="61" id="lnk20"><path d="M136,155.522 C136,188.952 136,231.472 136,264.972" fill="none" id="RhoSyntax-to-CAS" style="stroke:#000000;stroke-width:1;"/><polygon fill="#000000" points="136,270.972,140,261.972,136,265.972,132,261.972,136,270.972" style="stroke:#000000;stroke-width:1;"/></g><!--link RhoRed to Trans--><g class="link" data-entity-1="ent0006" data-entity-2="ent0010" data-link-type="dependency" data-source-line="62" id="lnk21"><path d="M834.19,165.192 C814,174.512 792.17,183.162 771,188.872 C749.9,194.562 692.35,186.732 673,196.872 C645.45,211.302 626.3982,232.9197 610.6182,256.5897" fill="none" id="RhoRed-to-Trans" style="stroke:#000000;stroke-width:1;"/><polygon fill="#000000" points="607.29,261.582,615.6105,256.3123,610.0635,257.4217,608.9541,251.8747,607.29,261.582" style="stroke:#000000;stroke-width:1;"/></g><!--link Trans to TF--><g class="link" data-entity-1="ent0010" data-entity-2="ent0013" data-link-type="dependency" data-source-line="63" id="lnk22"><path d="M631.18,358.562 C642.04,368.932 653.43,379.882 664,390.142 C685.55,411.072 704.7678,429.989 725.3878,450.419" fill="none" id="Trans-to-TF" style="stroke:#000000;stroke-width:1;"/><polygon fill="#000000" points="729.65,454.642,726.072,445.4661,726.0981,451.1229,720.4413,451.149,729.65,454.642" style="stroke:#000000;stroke-width:1;"/></g><!--link Trans to FGS--><g class="link" data-entity-1="ent0010" data-entity-2="ent0014" data-link-type="dependency" data-source-line="64" id="lnk23"><path d="M570.1,358.592 C562.02,393.852 552.5,435.4135 545.01,468.1035" fill="none" id="Trans-to-FGS" style="stroke:#000000;stroke-width:1;"/><polygon fill="#000000" points="543.67,473.952,549.579,466.0726,544.7867,469.0783,541.781,464.286,543.67,473.952" style="stroke:#000000;stroke-width:1;"/></g><!--link TokCon to TF--><g class="link" data-entity-1="ent0011" data-entity-2="ent0013" data-link-type="dependency" data-source-line="65" id="lnk24"><path d="M810.55,348.782 C806.23,378.652 800.9981,414.9237 796.0881,448.9037" fill="none" id="TokCon-to-TF" style="stroke:#000000;stroke-width:1;"/><polygon fill="#000000" points="795.23,454.842,800.476,446.5065,795.9451,449.8934,792.5582,445.3624,795.23,454.842" style="stroke:#000000;stroke-width:1;"/></g><!--link TF to Bisim--><g class="link" data-entity-1="ent0013" data-entity-2="ent0015" data-link-type="dependency" data-source-line="66" id="lnk25"><path d="M784.75,570.732 C783.82,594.052 783.007,614.7367 782.127,636.9967" fill="none" id="TF-to-Bisim" style="stroke:#000000;stroke-width:1;"/><polygon fill="#000000" points="781.89,642.992,786.2424,634.157,782.0875,637.9959,778.2486,633.841,781.89,642.992" style="stroke:#000000;stroke-width:1;"/></g><!--link RhoRed to WBE--><g class="link" data-entity-1="ent0006" data-entity-2="ent0017" data-link-type="dependency" data-source-line="67" id="lnk26"><path d="M944,165.242 C948.69,175.522 953.29,186.442 957,196.872 C1013.79,356.542 1053.9356,548.1402 1071.0856,637.2102" fill="none" id="RhoRed-to-WBE" style="stroke:#000000;stroke-width:1;"/><polygon fill="#000000" points="1072.22,643.102,1074.4462,633.508,1071.2746,638.1922,1066.5905,635.0206,1072.22,643.102" style="stroke:#000000;stroke-width:1;"/></g><!--link Bisim to Rep--><g class="link" data-entity-1="ent0015" data-entity-2="ent0019" data-link-type="dependency" data-source-line="68" id="lnk27"><path d="M813.85,740.082 C834.16,768.562 856.8051,800.3278 879.1451,831.6378" fill="none" id="Bisim-to-Rep" style="stroke:#000000;stroke-width:1;"/><polygon fill="#000000" points="882.63,836.522,880.6587,826.8724,879.7259,832.4518,874.1465,831.519,882.63,836.522" style="stroke:#000000;stroke-width:1;"/></g><!--link WBE to Rep--><g class="link" data-entity-1="ent0017" data-entity-2="ent0019" data-link-type="dependency" data-source-line="69" id="lnk28"><path d="M1046.92,740.082 C1026.48,768.562 1003.6693,800.3381 981.1893,831.6481" fill="none" id="WBE-to-Rep" style="stroke:#000000;stroke-width:1;"/><polygon fill="#000000" points="977.69,836.522,986.1883,831.5441,980.6061,832.4604,979.6898,826.8783,977.69,836.522" style="stroke:#000000;stroke-width:1;"/></g><?plantuml-src VLPTRjj647xNAQOoqDefvLZyiTGYC62xOfB2RGChG1wgWbYH8uaLjSlkBcshGO0UedVe4VgUe_GadLsI8ILHvWD1pUpED_FjjpFwIgzmWv1dBEMzdbgdF6UIRI0Mcrnmv7ggjnc2n5WpliomjIHdyPej4Jxs06xeUob5mPDRaGdvwjNTyEeAJYQJq0t3JhzR-KT7_9xnXs4ucamw_Nwr_peSTle3k_-6LWJ6BsI2qlhWnBTFxrDNkLtLs3p2CizM7FESUFQXMBsQZluTswA48VptrzymtNBDOft649fmJAU2zw6Ynq0rmFtxbR3BdsPy70IGfHmLVFuN_27erKRDk2hcIaTPkj3HdoY50ojaIHHJO1qfxCCp3rFm9VmkwbJB8jQJFuhquIr_GAaemnbt0wz9O5JXDt0EbAWlO57ms1Ib-jseqydRetXlA1w57Jh-wA9LRXjEEUIWej6iTo17kQc-YGwCths8Klwx0u9dsqXYdgKnqmYdd_yPdu_E-cK2RmveliUai5dFkE-x3RJhLj1o9IAbCNV0V4bayOhDCoJGEPDp-1P8DuMEp8-Nej3rjm7spY_F-ll44s27H5mhaLkXzE0wjeIcV0bVmtl9kCeQhRY7MZ6RgZsOrAfnlU7XeQbqwO0MQ-GEg2qLjNbMA6NAjzVJP_1QzBdZbaw22Z9cbZmu3K0M6QepaWjhMEntmDtlmhKOcF5Wt5A7wrSWFqTQEl3Ulj_PzzIyPtnAAY21_YXIVaIJDleUe27ebcICyg62TJs_WVskGhL4HXl1XQQTPPaluMXj5PvOK-WE0NXM025BzMfHP0IbwFJfWWYImKsgqatHKe5tg88MJUqWf6fds3wOSKrQBEZyddJ1CgXIJeciBR56DsjWgv5ece2HUhvY2XCIEpN_Wlh2Wna3YmpZCYLJMBYRJrXWzfeku9GjK6zdt0j6JHB3EWbETmjv4WbkT95NEO0oAFJHFwhAyFMUAjiScJxY-kC6pwjlmDoiWjEO196SanPpqdAqf3GZww5AAOPEwJ2BU4r7gTAag7o7KhMG7KVfswFyW6nDqqFEYRTVvbPC90f5MtzbIK96zyAz75pu0_VYDtke_k6XcXXb2DiaIOYNhMizhAjwf6MswKIs5pdG6CgEvBJMO59spGYVOimrF9bETLbrAghgmysaewR0rdHVjLNY62QaeCGqgMcHvq9gECsGBSwErnTqZBac7jNcN8nQe-woRi1p-hCHOONcm0_DzvulAlX2P3GdgDEHV0TfFSDWG_gck79RZmDQ8Xli9i92o4Scav8xPSPqcntRmJ4tz7m3FrKN7nBCIS8KOlizP8OiPMTGPOT4F78JyxptPUh2m1W7LxQtbYF1HA-jPK-oRzYnXnr6Sn7AfhA_DAobMXjBlHxYcHEtlftLfb3oxCKmrXuLJlS_NQuqY8KrmOuqLAa8icRKAHJzDv48ZBY86TruOy-bo9cvTpGzjO2xahRXm3ll6SuCGEz_?></g></svg>