<svg xmlns="http://www.w3.org/2000/svg" xmlns:xlink="http://www.w3.org/1999/xlink" contentStyleType="text/css" data-diagram-type="DESCRIPTION" height="780px" preserveAspectRatio="none" style="width:1631px;height:780px;background:#FFFFFF;" version="1.1" viewBox="0 0 1631 780" width="1631px" zoomAndPan="magnify"><?plantuml $version$?><defs/><g><g class="title" data-source-line="28"><text fill="#000000" font-family="'sans-serif'" font-size="22" font-weight="700" lengthAdjust="spacing" textLength="1106.6693" x="261.4303" y="38.5181">One Sig enum, two grammars (F-A) &#8212; funding formers (g | #P | s&#8728;s) vs the value/capability type-logic</text></g><!--cluster Funding formers   (g | #P | s?s)--><g class="cluster" data-qualified-name="Funding formers   .g . .P . s.s." data-source-line="30" id="ent0001"><path d="M13.5,62.5661 L230.5329,62.5661 A3.75,3.75 0 0 1 233.0329,65.0661 L240.0329,87.634 L739.5,87.634 A2.5,2.5 0 0 1 742,90.134 L742,191.2661 A2.5,2.5 0 0 1 739.5,193.7661 L13.5,193.7661 A2.5,2.5 0 0 1 11,191.2661 L11,65.0661 A2.5,2.5 0 0 1 13.5,62.5661" fill="#E8F5E9" style="stroke:#444444;stroke-width:1;"/><line style="stroke:#444444;stroke-width:1;" x1="11" x2="240.0329" y1="87.634" y2="87.634"/><text fill="#000000" font-family="'sans-serif'" font-size="14" font-weight="700" lengthAdjust="spacing" textLength="216.0329" x="15" y="79.532">Funding formers   (g | #P | s&#8728;s)</text></g><!--cluster Capability / value type-logic   (F-A: NOT funding formers)--><g class="cluster" data-qualified-name="Capability . value type-logic   .F-A. NOT funding formers." data-source-line="37" id="ent0006"><path d="M768.5,72.0961 L1161.2185,72.0961 A3.75,3.75 0 0 1 1163.7185,74.5961 L1170.7185,97.164 L1461.5,97.164 A2.5,2.5 0 0 1 1464,99.664 L1464,181.7361 A2.5,2.5 0 0 1 1461.5,184.2361 L768.5,184.2361 A2.5,2.5 0 0 1 766,181.7361 L766,74.5961 A2.5,2.5 0 0 1 768.5,72.0961" fill="#E8EAF6" style="stroke:#444444;stroke-width:1;"/><line style="stroke:#444444;stroke-width:1;" x1="766" x2="1170.7185" y1="97.164" y2="97.164"/><text fill="#000000" font-family="'sans-serif'" font-size="14" font-weight="700" lengthAdjust="spacing" textLength="391.7185" x="770" y="89.062">Capability / value type-logic   (F-A: NOT funding formers)</text></g><!--entity F_UNIT--><g class="entity" data-qualified-name="Funding formers   .g . .P . s.s..F_UNIT" data-source-line="31" id="ent0002"><rect fill="#C8E6C9" height="58.1358" rx="2.5" ry="2.5" style="stroke:#333333;stroke-width:1;" width="137.3895" x="27.31" y="110.0961"/><text fill="#000000" font-family="'sans-serif'" font-size="14" lengthAdjust="spacing" textLength="27.5519" x="37.31" y="135.062">Unit</text><text fill="#000000" font-family="'sans-serif'" font-size="14" lengthAdjust="spacing" textLength="117.3895" x="37.31" y="154.1299">&#8212; multiplicative 1</text></g><!--entity F_GROUND--><g class="entity" data-qualified-name="Funding formers   .g . .P . s.s..F_GROUND" data-source-line="32" id="ent0003"><rect fill="#C8E6C9" height="77.2038" rx="2.5" ry="2.5" style="stroke:#333333;stroke-width:1;" width="146.9655" x="199.52" y="100.5661"/><text fill="#000000" font-family="'sans-serif'" font-size="14" lengthAdjust="spacing" textLength="83.5585" x="209.52" y="125.532">&#9733; Ground(g)</text><text fill="#000000" font-family="'sans-serif'" font-size="14" lengthAdjust="spacing" textLength="114.9199" x="209.52" y="144.5999">&#10229; the public key</text><text fill="#000000" font-family="'sans-serif'" font-size="14" lengthAdjust="spacing" textLength="126.9655" x="209.52" y="163.6679">(&#167;D2.9 funding key)</text></g><!--entity F_QUOTE--><g class="entity" data-qualified-name="Funding formers   .g . .P . s.s..F_QUOTE" data-source-line="33" id="ent0004"><rect fill="#C8E6C9" height="58.1358" rx="2.5" ry="2.5" style="stroke:#333333;stroke-width:1;" width="124.0336" x="380.98" y="110.0961"/><text fill="#000000" font-family="'sans-serif'" font-size="14" lengthAdjust="spacing" textLength="66.9197" x="390.98" y="135.062">Quote(#P)</text><text fill="#000000" font-family="'sans-serif'" font-size="14" lengthAdjust="spacing" textLength="104.0336" x="390.98" y="154.1299">&#8212; process hash</text></g><!--entity F_AND--><g class="entity" data-qualified-name="Funding formers   .g . .P . s.s..F_AND" data-source-line="34" id="ent0005"><rect fill="#C8E6C9" height="58.1358" rx="2.5" ry="2.5" style="stroke:#333333;stroke-width:1;" width="185.3954" x="540.3" y="110.0961"/><text fill="#000000" font-family="'sans-serif'" font-size="14" lengthAdjust="spacing" textLength="43.3715" x="550.3" y="135.062">And(&#8728;)</text><text fill="#000000" font-family="'sans-serif'" font-size="14" lengthAdjust="spacing" textLength="165.3954" x="550.3" y="154.1299">&#8212; the tensor combinator</text></g><!--entity C_THRESH--><g class="entity" data-qualified-name="Capability . value type-logic   .F-A. NOT funding formers..C_THRESH" data-source-line="38" id="ent0007"><rect fill="#C5CAE9" height="58.1358" rx="2.5" ry="2.5" style="stroke:#333333;stroke-width:1;" width="134.9535" x="781.52" y="110.0961"/><text fill="#000000" font-family="'sans-serif'" font-size="14" lengthAdjust="spacing" textLength="66.1637" x="791.52" y="135.062">Threshold</text><text fill="#000000" font-family="'sans-serif'" font-size="14" lengthAdjust="spacing" textLength="114.9535" x="791.52" y="154.1299">&#8212; k-of-N quorum</text></g><!--entity C_PLUS--><g class="entity" data-qualified-name="Capability . value type-logic   .F-A. NOT funding formers..C_PLUS" data-source-line="39" id="ent0008"><rect fill="#C5CAE9" height="39.0679" rx="2.5" ry="2.5" style="stroke:#333333;stroke-width:1;" width="66.4503" x="951.77" y="119.6261"/><text fill="#000000" font-family="'sans-serif'" font-size="14" lengthAdjust="spacing" textLength="46.4503" x="961.77" y="144.592">Plus  &#8853;</text></g><!--entity C_WITH--><g class="entity" data-qualified-name="Capability . value type-logic   .F-A. NOT funding formers..C_WITH" data-source-line="40" id="ent0009"><rect fill="#C5CAE9" height="39.0679" rx="2.5" ry="2.5" style="stroke:#333333;stroke-width:1;" width="67.8658" x="1053.07" y="119.6261"/><text fill="#000000" font-family="'sans-serif'" font-size="14" lengthAdjust="spacing" textLength="47.8658" x="1063.07" y="144.592">With  &amp;</text></g><!--entity C_BANG--><g class="entity" data-qualified-name="Capability . value type-logic   .F-A. NOT funding formers..C_BANG" data-source-line="41" id="ent0010"><rect fill="#C5CAE9" height="39.0679" rx="2.5" ry="2.5" style="stroke:#333333;stroke-width:1;" width="65.2618" x="1156.37" y="119.6261"/><text fill="#000000" font-family="'sans-serif'" font-size="14" lengthAdjust="spacing" textLength="45.2618" x="1166.37" y="144.592">Bang  !</text></g><!--entity C_WHYNOT--><g class="entity" data-qualified-name="Capability . value type-logic   .F-A. NOT funding formers..C_WHYNOT" data-source-line="42" id="ent0011"><rect fill="#C5CAE9" height="39.0679" rx="2.5" ry="2.5" style="stroke:#333333;stroke-width:1;" width="86.3317" x="1256.83" y="119.6261"/><text fill="#000000" font-family="'sans-serif'" font-size="14" lengthAdjust="spacing" textLength="66.3317" x="1266.83" y="144.592">WhyNot  ?</text></g><!--entity C_LOLLY--><g class="entity" data-qualified-name="Capability . value type-logic   .F-A. NOT funding formers..C_LOLLY" data-source-line="43" id="ent0012"><rect fill="#C5CAE9" height="39.0679" rx="2.5" ry="2.5" style="stroke:#333333;stroke-width:1;" width="69.1803" x="1378.41" y="119.6261"/><text fill="#000000" font-family="'sans-serif'" font-size="14" lengthAdjust="spacing" textLength="49.1803" x="1388.41" y="144.592">Lolly  &#8888;</text></g><!--entity GATE--><g class="entity" data-qualified-name="GATE" data-source-line="46" id="ent0013"><rect fill="#FFECB3" height="58.1358" rx="2.5" ry="2.5" style="stroke:#333333;stroke-width:1;" width="191.7373" x="821.13" y="294.7661"/><text fill="#000000" font-family="'sans-serif'" font-size="14" lengthAdjust="spacing" textLength="128.5895" x="831.13" y="319.732">is_funding_former()</text><text fill="#000000" font-family="'sans-serif'" font-size="14" lengthAdjust="spacing" textLength="171.7373" x="831.13" y="338.7999">&#8212; the funding chokepoint</text></g><!--entity POOL--><g class="entity" data-qualified-name="POOL" data-source-line="47" id="ent0014"><rect fill="#C8E6C9" height="58.1358" rx="2.5" ry="2.5" style="stroke:#333333;stroke-width:1;" width="267.841" x="783.08" y="443.9061"/><text fill="#000000" font-family="'sans-serif'" font-size="14" lengthAdjust="spacing" textLength="111.9889" x="793.08" y="468.872">&#931;&#10214;s&#10215;  supply pool</text><text fill="#000000" font-family="'sans-serif'" font-size="14" lengthAdjust="spacing" textLength="247.841" x="793.08" y="487.9399">from_sig(s).par &#8212; the funded channel</text></g><g class="entity" data-qualified-name="GMN26" data-source-line="69" id="ent0027"><path d="M728.3,563.0361 L728.3,626.1541 A0,0 0 0 0 728.3,626.1541 L1105.6954,626.1541 A0,0 0 0 0 1105.6954,626.1541 L1105.6954,573.0361 L1095.6954,563.0361 L921,563.0361 L917,502.3161 L913,563.0361 L728.3,563.0361 A0,0 0 0 0 728.3,563.0361" fill="#E8F5E9" style="stroke:#666666;stroke-width:1;"/><path d="M1095.6954,563.0361 L1095.6954,573.0361 L1105.6954,573.0361 L1095.6954,563.0361" fill="#E8F5E9" style="stroke:#666666;stroke-width:1;"/><text fill="#000000" font-family="'sans-serif'" font-size="13" lengthAdjust="spacing" textLength="356.3954" x="734.3" y="581.9331">funding_sig is built only from { Unit, Ground, Quote, And };</text><text fill="#000000" font-family="'sans-serif'" font-size="13" lengthAdjust="spacing" textLength="355.6645" x="734.3" y="599.6391">the six connectives &#8853; &amp; ! ? &#8888; (and Threshold, per F-A &#167;2(A))</text><text fill="#000000" font-family="'sans-serif'" font-size="13" lengthAdjust="spacing" textLength="300.3033" x="734.3" y="617.3451">reflect to the value/type layer, never to &#931;&#10214;s&#10215; (F-A).</text></g><!--link F_UNIT to GATE--><g class="link" data-entity-1="ent0002" data-entity-2="ent0013" data-link-type="dependency" data-source-line="50" id="lnk15"><path d="M130.38,168.6061 C145.51,180.0961 163.93,192.7361 182,201.7661 C265.37,243.4261 290.79,245.6461 382,264.7661 C533.56,296.5361 708.1494,311.2 815.9294,317.81" fill="none" id="F_UNIT-to-GATE" style="stroke:#000000;stroke-width:1;"/><polygon fill="#000000" points="820.92,318.1161,812.1817,313.5727,815.9294,317.81,811.692,321.5577,820.92,318.1161" style="stroke:#000000;stroke-width:1;stroke-linejoin:miter;stroke-miterlimit:10;"/></g><!--link F_GROUND to GATE--><g class="link" data-entity-1="ent0003" data-entity-2="ent0013" data-link-type="dependency" data-source-line="51" id="lnk16"><path d="M323.51,177.9661 C336.04,186.4261 349.7,194.9161 363,201.7661 C511.35,278.1861 701.1404,306.0345 815.8204,316.4345" fill="none" id="F_GROUND-to-GATE" style="stroke:#000000;stroke-width:1;"/><polygon fill="#000000" points="820.8,316.8861,812.198,312.0896,815.8204,316.4345,811.4755,320.0569,820.8,316.8861" style="stroke:#000000;stroke-width:1;stroke-linejoin:miter;stroke-miterlimit:10;"/></g><!--link F_QUOTE to GATE--><g class="link" data-entity-1="ent0004" data-entity-2="ent0013" data-link-type="dependency" data-source-line="52" id="lnk17"><path d="M474.29,168.4661 C488.38,180.0661 505.72,192.8261 523,201.7661 C618.99,251.3861 733.9472,283.4756 816.0972,302.3656" fill="none" id="F_QUOTE-to-GATE" style="stroke:#000000;stroke-width:1;"/><polygon fill="#000000" points="820.97,303.4861,813.0953,297.5709,816.0972,302.3656,811.3025,305.3675,820.97,303.4861" style="stroke:#000000;stroke-width:1;stroke-linejoin:miter;stroke-miterlimit:10;"/></g><!--link F_AND to GATE--><g class="link" data-entity-1="ent0005" data-entity-2="ent0013" data-link-type="dependency" data-source-line="53" id="lnk18"><path d="M677.38,168.7061 C730.73,203.0261 815.5147,257.5613 868.7347,291.7913" fill="none" id="F_AND-to-GATE" style="stroke:#000000;stroke-width:1;"/><polygon fill="#000000" points="872.94,294.4961,867.5343,286.2633,868.7347,291.7913,863.2067,292.9918,872.94,294.4961" style="stroke:#000000;stroke-width:1;stroke-linejoin:miter;stroke-miterlimit:10;"/></g><!--link GATE to POOL--><g class="link" data-entity-1="ent0013" data-entity-2="ent0014" data-link-type="dependency" data-source-line="54" id="lnk19"><path d="M917,353.2061 C917,379.1761 917,412.4161 917,438.4361" fill="none" id="GATE-to-POOL" style="stroke:#2E7D32;stroke-width:1;"/><polygon fill="#2E7D32" points="917,443.4361,921,434.4361,917,438.4361,913,434.4361,917,443.4361" style="stroke:#2E7D32;stroke-width:1;stroke-linejoin:miter;stroke-miterlimit:10;"/><text fill="#000000" font-family="'sans-serif'" font-size="11" lengthAdjust="spacing" textLength="124.386" x="933.3633" y="395.665">funding former &#8658; admit</text><text fill="#000000" font-family="'sans-serif'" font-size="11" lengthAdjust="spacing" textLength="155.1125" x="918" y="410.6469">(builds funding_sig, keys &#931;&#10214;s&#10215;)</text></g><!--link C_THRESH to GATE--><g class="link" data-entity-1="ent0007" data-entity-2="ent0013" data-link-type="dependency" data-source-line="57" id="lnk20"><path d="M859.62,168.7061 C872.4,203.0261 891.9659,255.5801 904.7059,289.8101" fill="none" id="C_THRESH-to-GATE" style="stroke:#C62828;stroke-width:1;"/><polygon fill="#C62828" points="906.45,294.4961,907.0595,284.6661,904.7059,289.8101,899.5619,287.4566,906.45,294.4961" style="stroke:#C62828;stroke-width:1;stroke-linejoin:miter;stroke-miterlimit:10;"/></g><!--link C_PLUS to GATE--><g class="link" data-entity-1="ent0008" data-entity-2="ent0013" data-link-type="dependency" data-source-line="58" id="lnk21"><path d="M977.98,159.0261 C966,191.2061 943.2943,252.1902 929.2643,289.8802" fill="none" id="C_PLUS-to-GATE" style="stroke:#C62828;stroke-width:1;"/><polygon fill="#C62828" points="927.52,294.5661,934.4084,287.527,929.2643,289.8802,926.911,284.7361,927.52,294.5661" style="stroke:#C62828;stroke-width:1;stroke-linejoin:miter;stroke-miterlimit:10;"/></g><!--link C_WITH to GATE--><g class="link" data-entity-1="ent0009" data-entity-2="ent0013" data-link-type="dependency" data-source-line="59" id="lnk22"><path d="M1072.01,159.1161 C1062.05,171.4761 1048.56,187.8461 1036,201.7661 C1006.38,234.5861 974.1852,267.0005 949.6452,291.1305" fill="none" id="C_WITH-to-GATE" style="stroke:#C62828;stroke-width:1;"/><polygon fill="#C62828" points="946.08,294.6361,955.3018,291.1781,949.6452,291.1305,949.6928,285.4738,946.08,294.6361" style="stroke:#C62828;stroke-width:1;stroke-linejoin:miter;stroke-miterlimit:10;"/></g><!--link C_BANG to GATE--><g class="link" data-entity-1="ent0010" data-entity-2="ent0013" data-link-type="dependency" data-source-line="60" id="lnk23"><path d="M1176.02,159.1961 C1166.51,172.2161 1152.74,189.3061 1138,201.7661 C1091.72,240.8761 1035.3681,271.0072 989.2281,292.3472" fill="none" id="C_BANG-to-GATE" style="stroke:#C62828;stroke-width:1;"/><polygon fill="#C62828" points="984.69,294.4461,994.5378,294.2986,989.2281,292.3472,991.1795,287.0375,984.69,294.4461" style="stroke:#C62828;stroke-width:1;stroke-linejoin:miter;stroke-miterlimit:10;"/></g><!--link C_WHYNOT to GATE--><g class="link" data-entity-1="ent0011" data-entity-2="ent0013" data-link-type="dependency" data-source-line="61" id="lnk24"><path d="M1284.29,159.0361 C1272.71,172.1361 1256.06,189.4061 1239,201.7661 C1171.17,250.9061 1085.8419,281.2234 1018.1819,299.7834" fill="none" id="C_WHYNOT-to-GATE" style="stroke:#C62828;stroke-width:1;"/><polygon fill="#C62828" points="1013.36,301.1061,1023.0975,302.5827,1018.1819,299.7834,1020.9812,294.8677,1013.36,301.1061" style="stroke:#C62828;stroke-width:1;stroke-linejoin:miter;stroke-miterlimit:10;"/></g><!--link C_LOLLY to GATE--><g class="link" data-entity-1="ent0012" data-entity-2="ent0013" data-link-type="dependency" data-source-line="62" id="lnk25"><path d="M1400.86,159.0461 C1391.39,172.5061 1377.16,190.1961 1361,201.7661 C1256.9,276.2961 1114.1074,304.3961 1018.1474,315.4061" fill="none" id="C_LOLLY-to-GATE" style="stroke:#C62828;stroke-width:1;"/><polygon fill="#C62828" points="1013.18,315.9761,1022.5773,318.9241,1018.1474,315.4061,1021.6654,310.9763,1013.18,315.9761" style="stroke:#C62828;stroke-width:1;stroke-linejoin:miter;stroke-miterlimit:10;"/><path d="M1345.53,214.7661 L1345.53,259.7661 L1616.53,259.7661 L1616.53,224.7661 L1606.53,214.7661 L1345.53,214.7661" fill="#FFEBEE" style="stroke:#666666;stroke-width:1;"/><path d="M1606.53,214.7661 L1606.53,224.7661 L1616.53,224.7661 L1606.53,214.7661" fill="#FFEBEE" style="stroke:#666666;stroke-width:1;"/><text fill="#000000" font-family="'sans-serif'" font-size="13" lengthAdjust="spacing" textLength="250.4843" x="1351.53" y="233.6631">rejected at the funding chokepoint &#8212; F-A</text><text fill="#000000" font-family="'sans-serif'" font-size="13" lengthAdjust="spacing" textLength="241.8782" x="1351.53" y="251.3691">(reflect to the value / type layer instead)</text></g><g class="legend" data-source-line="74"><rect fill="none" height="128.4075" rx="7.5" ry="7.5" style="stroke:#000000;stroke-width:1;" width="416.9221" x="606.3039" y="640.1541"/><text fill="#000000" font-family="'sans-serif'" font-size="14" font-weight="700" lengthAdjust="spacing" textLength="35.1539" x="614.9439" y="662.1201">color</text><text fill="#000000" font-family="'sans-serif'" font-size="14" font-weight="700" lengthAdjust="spacing" textLength="61.6278" x="657.3778" y="662.1201">meaning</text><rect fill="#C8E6C9" height="19.0679" style="stroke:none;stroke-width:1;" width="42.4338" x="611.3039" y="666.2221"/><text fill="#000000" font-family="'sans-serif'" font-size="14" lengthAdjust="spacing" textLength="3.64" x="611.3039" y="681.188">&#160;</text><text fill="#000000" font-family="'sans-serif'" font-size="14" lengthAdjust="spacing" textLength="235.4124" x="657.3778" y="681.188">funding former / supply pool &#931;&#10214;&#183;&#10215; (g</text><text fill="#000000" font-family="'sans-serif'" font-size="14" lengthAdjust="spacing" textLength="17.5139" x="963.4166" y="681.188">#P</text><text fill="#000000" font-family="'sans-serif'" font-size="14" lengthAdjust="spacing" textLength="26.3756" x="988.2105" y="681.188">s&#8728;s)</text><rect fill="#C5CAE9" height="19.0679" style="stroke:none;stroke-width:1;" width="42.4338" x="611.3039" y="685.29"/><text fill="#000000" font-family="'sans-serif'" font-size="14" lengthAdjust="spacing" textLength="3.64" x="611.3039" y="700.2559">&#160;</text><text fill="#000000" font-family="'sans-serif'" font-size="14" lengthAdjust="spacing" textLength="252.587" x="657.3778" y="700.2559">value / capability type-logic connective</text><rect fill="#FFECB3" height="19.0679" style="stroke:none;stroke-width:1;" width="42.4338" x="611.3039" y="704.3579"/><text fill="#000000" font-family="'sans-serif'" font-size="14" lengthAdjust="spacing" textLength="3.64" x="611.3039" y="719.3238">&#160;</text><text fill="#000000" font-family="'sans-serif'" font-size="14" lengthAdjust="spacing" textLength="212.0432" x="657.3778" y="719.3238">is_funding_former() control gate</text><rect fill="#2E7D32" height="19.0679" style="stroke:none;stroke-width:1;" width="42.4338" x="611.3039" y="723.4258"/><text fill="#000000" font-family="'sans-serif'" font-size="14" lengthAdjust="spacing" textLength="3.64" x="611.3039" y="738.3917">&#160;</text><text fill="#000000" font-family="'sans-serif'" font-size="14" lengthAdjust="spacing" textLength="217.6852" x="657.3778" y="738.3917">funding-admit / pool-keying path</text><rect fill="#C62828" height="19.0679" style="stroke:none;stroke-width:1;" width="42.4338" x="611.3039" y="742.4937"/><text fill="#000000" font-family="'sans-serif'" font-size="14" lengthAdjust="spacing" textLength="3.64" x="611.3039" y="757.4597">&#160;</text><text fill="#000000" font-family="'sans-serif'" font-size="14" lengthAdjust="spacing" textLength="298.7589" x="657.3778" y="757.4597">capability connective rejected at funding (F-A)</text><line style="stroke:#000000;stroke-width:1;" x1="611.3039" x2="1018.2261" y1="647.1541" y2="647.1541"/><line style="stroke:#000000;stroke-width:1;" x1="611.3039" x2="1018.2261" y1="666.2221" y2="666.2221"/><line style="stroke:#000000;stroke-width:1;" x1="611.3039" x2="1018.2261" y1="685.29" y2="685.29"/><line style="stroke:#000000;stroke-width:1;" x1="611.3039" x2="1018.2261" y1="704.3579" y2="704.3579"/><line style="stroke:#000000;stroke-width:1;" x1="611.3039" x2="1018.2261" y1="723.4258" y2="723.4258"/><line style="stroke:#000000;stroke-width:1;" x1="611.3039" x2="1018.2261" y1="742.4937" y2="742.4937"/><line style="stroke:#000000;stroke-width:1;" x1="611.3039" x2="1018.2261" y1="761.5616" y2="761.5616"/><line style="stroke:#000000;stroke-width:1;" x1="611.3039" x2="611.3039" y1="647.1541" y2="761.5616"/><line style="stroke:#000000;stroke-width:1;" x1="653.7378" x2="653.7378" y1="647.1541" y2="761.5616"/><line style="stroke:#000000;stroke-width:1;" x1="959.7766" x2="959.7766" y1="647.1541" y2="761.5616"/><line style="stroke:#000000;stroke-width:1;" x1="984.5705" x2="984.5705" y1="647.1541" y2="761.5616"/><line style="stroke:#000000;stroke-width:1;" x1="1018.2261" x2="1018.2261" y1="647.1541" y2="761.5616"/></g><?plantuml-src ZLR1Rjj64BtpAyOIa4g0PCDouyffcq2IIJk082cnZ22e0sDDhQYjbhiCTsbNYGpaKhJeiMY1t7meK7z1qPxz0Vq8VKbdbvH4opHG7WoBE_FspPit8stf2GqfH9mmuQWf4n69IGWZEYO9rvuKkaVmlAI8K7L5OpOkvS9y6KPIKA5Fz8nJYAclYGWupOMe2Hd9AoO261EkyYUjE9PNveOJze72xcxkA2B-b0GKFZe0RHcFQDoHNCPG_j8-pdKHXuVHU_Qv5zsJchOHFOXb8aPPdETvJNTtCog7P9xoldqSpJIMsXSKJbW0L2HX3VILX00JGn8hg7ZrLXKMdtw3CLvXAvTnICr907Ce3_2FMlpyMLNXKW7g3vU49tJ79n6vO9pf6UXPHEjS1intdAKM9My33HxWbQ3iDhsdxe6LOYrCwLGmVIOCfH2xoYBEVABP9QfU0gB0Ep_jlHn2kTDqzpi7zrCNdt-48ojM9QWYnirVbdAKN208JEdiJ5JkRWyRsmUhSl5bDSCzUjq_xHqM8xzAKELAUL1DcKMnzAbIC25gacM_EkqFtUBa5lB1chDSmqXJeR1L67F11D4opa1QkVklSt9srdBlf1t8oMx4nJO-Wrv_kDd6L6QtvUrloZoSn5HD91-bhAPrEQxtu7qYuoIqR3hdm-FNxian4dhQQRaRDGruWbrT_F9x5ZledfuKHxvXUWBm98jxytBu268Rfn5WAujhjtf7Z-1DPcXvW1TBnEEtfl32sAxaV6Pe_fC5T_lTxjjLB4gS2sRgF5FlF5MlaklOKbT_8gSqaaneYtZKCattFBVJtijZ_Vl7ukPFjRYv1L195269I4f-9iQn3CyL2oggketZ2tbuEa9q8WJb5dhGxtTNPd2-WCsHYeXA9p8WcW8H8-Db-o9tuxQJpGj0lVxSqdLMJi-zITsRVsEicC-obTQ_ApVShmxt6k_mjINuRCDniFZfLo2ZqCnmvI9XVAIM4QRkcY6fO2LFrLIMSxSliNxVZBi24fij_Jr-H6M8VgGDwGhRTbPsHOwT_KQpqNotf9wv4mgFh26BZwm77ybAJLTqb5giu4ZW2W4fW3CnjPvfkoxQzN-KQ5o2LM9m9QPZZk6WvNeRuqumsm0ucM43c52Qab7LeMW9SwUJtdmXjPOXo77ch7Jx8cQkFS0KcAPfv8aECcw5Zs0sSYrRh3Mmgx06kDJW-cjCjuvZFznh7Uu5U09RyCAC7bICELVxfWOHiiHouEwsKMbLgrQ3XrNjh6kgWQ2Nc8J7wy7A-hwkajF0V4ZhHD3vjyZ9V2FYFo4bmeWwD--_oQRg-NpJl3lvsKdlkllRNhRvRRW4iei4WPQDAFnYp6cpJ4nN1YOMR1qJhcCaO2SxIqZdRasvReSCRpHKwpXLfeo8uAvTKhFkmmI_QBpksMwfGlfhO6uqJSLq_WC0?></g></svg>