<svg xmlns="http://www.w3.org/2000/svg" xmlns:xlink="http://www.w3.org/1999/xlink" contentStyleType="text/css" data-diagram-type="DESCRIPTION" height="856px" preserveAspectRatio="none" style="width:1705px;height:856px;background:#FFFFFF;" version="1.1" viewBox="0 0 1705 856" width="1705px" zoomAndPan="magnify"><?plantuml $version$?><defs/><g><g class="title" data-source-line="28"><text fill="#000000" font-family="'sans-serif'" font-size="22" font-weight="700" lengthAdjust="spacing" textLength="1106.6693" x="298.2053" y="38.5181">One Sig enum, two grammars (F-A) &#8212; funding formers (g | #P | s&#8728;s) vs the value/capability type-logic</text></g><!--cluster Funding formers   (g | #P | s?s)--><g class="cluster" data-qualified-name="Funding formers   .g . .P . s.s." data-source-line="30" id="ent0001"><path d="M13.5,62.5661 L230.5329,62.5661 A3.75,3.75 0 0 1 233.0329,65.0661 L240.0329,87.634 L739.5,87.634 A2.5,2.5 0 0 1 742,90.134 L742,229.3361 A2.5,2.5 0 0 1 739.5,231.8361 L13.5,231.8361 A2.5,2.5 0 0 1 11,229.3361 L11,65.0661 A2.5,2.5 0 0 1 13.5,62.5661" fill="#FFFFFF" style="stroke:#444444;stroke-width:1;"/><line style="stroke:#444444;stroke-width:1;" x1="11" x2="240.0329" y1="87.634" y2="87.634"/><text fill="#000000" font-family="'sans-serif'" font-size="14" font-weight="700" lengthAdjust="spacing" textLength="216.0329" x="15" y="79.532">Funding formers   (g | #P | s&#8728;s)</text><text fill="#000000" font-family="'sans-serif'" font-size="14" font-style="italic" lengthAdjust="spacing" textLength="69.1738" x="345.9131" y="104.5999">&#171;#C8E6C9&#187;</text></g><!--cluster Capability / value type-logic   (F-A: NOT funding formers)--><g class="cluster" data-qualified-name="Capability . value type-logic   .F-A. NOT funding formers." data-source-line="37" id="ent0006"><path d="M768.5,72.1061 L1161.2185,72.1061 A3.75,3.75 0 0 1 1163.7185,74.6061 L1170.7185,97.174 L1560.5,97.174 A2.5,2.5 0 0 1 1563,99.674 L1563,219.8061 A2.5,2.5 0 0 1 1560.5,222.3061 L768.5,222.3061 A2.5,2.5 0 0 1 766,219.8061 L766,74.6061 A2.5,2.5 0 0 1 768.5,72.1061" fill="#FFFFFF" style="stroke:#444444;stroke-width:1;"/><line style="stroke:#444444;stroke-width:1;" x1="766" x2="1170.7185" y1="97.174" y2="97.174"/><text fill="#000000" font-family="'sans-serif'" font-size="14" font-weight="700" lengthAdjust="spacing" textLength="391.7185" x="770" y="89.072">Capability / value type-logic   (F-A: NOT funding formers)</text><text fill="#000000" font-family="'sans-serif'" font-size="14" font-style="italic" lengthAdjust="spacing" textLength="69.3277" x="1133.8361" y="114.1399">&#171;#C5CAE9&#187;</text></g><!--entity F_UNIT--><g class="entity" data-qualified-name="Funding formers   .g . .P . s.s..F_UNIT" data-source-line="31" id="ent0002"><rect fill="#FFFFFF" height="77.2038" rx="2.5" ry="2.5" style="stroke:#333333;stroke-width:1;" width="137.3895" x="27.31" y="129.1061"/><text fill="#000000" font-family="'sans-serif'" font-size="14" font-style="italic" lengthAdjust="spacing" textLength="69.1738" x="61.4179" y="154.072">&#171;#C8E6C9&#187;</text><text fill="#000000" font-family="'sans-serif'" font-size="14" lengthAdjust="spacing" textLength="27.5519" x="37.31" y="173.1399">Unit</text><text fill="#000000" font-family="'sans-serif'" font-size="14" lengthAdjust="spacing" textLength="117.3895" x="37.31" y="192.2079">&#8212; multiplicative 1</text></g><!--entity F_GROUND--><g class="entity" data-qualified-name="Funding formers   .g . .P . s.s..F_GROUND" data-source-line="32" id="ent0003"><rect fill="#FFFFFF" height="96.2717" rx="2.5" ry="2.5" style="stroke:#333333;stroke-width:1;" width="146.9655" x="199.52" y="119.5661"/><text fill="#000000" font-family="'sans-serif'" font-size="14" font-style="italic" lengthAdjust="spacing" textLength="69.1738" x="238.4159" y="144.532">&#171;#C8E6C9&#187;</text><text fill="#000000" font-family="'sans-serif'" font-size="14" lengthAdjust="spacing" textLength="83.5585" x="209.52" y="163.5999">&#9733; Ground(g)</text><text fill="#000000" font-family="'sans-serif'" font-size="14" lengthAdjust="spacing" textLength="114.9199" x="209.52" y="182.6679">&#10229; the public key</text><text fill="#000000" font-family="'sans-serif'" font-size="14" lengthAdjust="spacing" textLength="126.9655" x="209.52" y="201.7358">(&#167;D2.9 funding key)</text></g><!--entity F_QUOTE--><g class="entity" data-qualified-name="Funding formers   .g . .P . s.s..F_QUOTE" data-source-line="33" id="ent0004"><rect fill="#FFFFFF" height="77.2038" rx="2.5" ry="2.5" style="stroke:#333333;stroke-width:1;" width="124.0336" x="380.98" y="129.1061"/><text fill="#000000" font-family="'sans-serif'" font-size="14" font-style="italic" lengthAdjust="spacing" textLength="69.1738" x="408.4099" y="154.072">&#171;#C8E6C9&#187;</text><text fill="#000000" font-family="'sans-serif'" font-size="14" lengthAdjust="spacing" textLength="66.9197" x="390.98" y="173.1399">Quote(#P)</text><text fill="#000000" font-family="'sans-serif'" font-size="14" lengthAdjust="spacing" textLength="104.0336" x="390.98" y="192.2079">&#8212; process hash</text></g><!--entity F_AND--><g class="entity" data-qualified-name="Funding formers   .g . .P . s.s..F_AND" data-source-line="34" id="ent0005"><rect fill="#FFFFFF" height="77.2038" rx="2.5" ry="2.5" style="stroke:#333333;stroke-width:1;" width="185.3954" x="540.3" y="129.1061"/><text fill="#000000" font-family="'sans-serif'" font-size="14" font-style="italic" lengthAdjust="spacing" textLength="69.1738" x="598.4108" y="154.072">&#171;#C8E6C9&#187;</text><text fill="#000000" font-family="'sans-serif'" font-size="14" lengthAdjust="spacing" textLength="43.3715" x="550.3" y="173.1399">And(&#8728;)</text><text fill="#000000" font-family="'sans-serif'" font-size="14" lengthAdjust="spacing" textLength="165.3954" x="550.3" y="192.2079">&#8212; the tensor combinator</text></g><!--entity C_THRESH--><g class="entity" data-qualified-name="Capability . value type-logic   .F-A. NOT funding formers..C_THRESH" data-source-line="38" id="ent0007"><rect fill="#FFFFFF" height="77.2038" rx="2.5" ry="2.5" style="stroke:#333333;stroke-width:1;" width="134.9535" x="781.52" y="129.1061"/><text fill="#000000" font-family="'sans-serif'" font-size="14" font-style="italic" lengthAdjust="spacing" textLength="69.3277" x="814.3329" y="154.072">&#171;#C5CAE9&#187;</text><text fill="#000000" font-family="'sans-serif'" font-size="14" lengthAdjust="spacing" textLength="66.1637" x="791.52" y="173.1399">Threshold</text><text fill="#000000" font-family="'sans-serif'" font-size="14" lengthAdjust="spacing" textLength="114.9535" x="791.52" y="192.2079">&#8212; k-of-N quorum</text></g><!--entity C_PLUS--><g class="entity" data-qualified-name="Capability . value type-logic   .F-A. NOT funding formers..C_PLUS" data-source-line="39" id="ent0008"><rect fill="#FFFFFF" height="58.1358" rx="2.5" ry="2.5" style="stroke:#333333;stroke-width:1;" width="91.3277" x="951.34" y="138.6361"/><text fill="#000000" font-family="'sans-serif'" font-size="14" font-style="italic" lengthAdjust="spacing" textLength="69.3277" x="962.34" y="163.602">&#171;#C5CAE9&#187;</text><text fill="#000000" font-family="'sans-serif'" font-size="14" lengthAdjust="spacing" textLength="46.4503" x="973.7787" y="182.6699">Plus  &#8853;</text></g><!--entity C_WITH--><g class="entity" data-qualified-name="Capability . value type-logic   .F-A. NOT funding formers..C_WITH" data-source-line="40" id="ent0009"><rect fill="#FFFFFF" height="58.1358" rx="2.5" ry="2.5" style="stroke:#333333;stroke-width:1;" width="91.3277" x="1077.34" y="138.6361"/><text fill="#000000" font-family="'sans-serif'" font-size="14" font-style="italic" lengthAdjust="spacing" textLength="69.3277" x="1088.34" y="163.602">&#171;#C5CAE9&#187;</text><text fill="#000000" font-family="'sans-serif'" font-size="14" lengthAdjust="spacing" textLength="47.8658" x="1099.071" y="182.6699">With  &amp;</text></g><!--entity C_BANG--><g class="entity" data-qualified-name="Capability . value type-logic   .F-A. NOT funding formers..C_BANG" data-source-line="41" id="ent0010"><rect fill="#FFFFFF" height="58.1358" rx="2.5" ry="2.5" style="stroke:#333333;stroke-width:1;" width="91.3277" x="1203.34" y="138.6361"/><text fill="#000000" font-family="'sans-serif'" font-size="14" font-style="italic" lengthAdjust="spacing" textLength="69.3277" x="1214.34" y="163.602">&#171;#C5CAE9&#187;</text><text fill="#000000" font-family="'sans-serif'" font-size="14" lengthAdjust="spacing" textLength="45.2618" x="1226.373" y="182.6699">Bang  !</text></g><!--entity C_WHYNOT--><g class="entity" data-qualified-name="Capability . value type-logic   .F-A. NOT funding formers..C_WHYNOT" data-source-line="42" id="ent0011"><rect fill="#FFFFFF" height="58.1358" rx="2.5" ry="2.5" style="stroke:#333333;stroke-width:1;" width="91.3277" x="1329.34" y="138.6361"/><text fill="#000000" font-family="'sans-serif'" font-size="14" font-style="italic" lengthAdjust="spacing" textLength="69.3277" x="1340.34" y="163.602">&#171;#C5CAE9&#187;</text><text fill="#000000" font-family="'sans-serif'" font-size="14" lengthAdjust="spacing" textLength="66.3317" x="1341.838" y="182.6699">WhyNot  ?</text></g><!--entity C_LOLLY--><g class="entity" data-qualified-name="Capability . value type-logic   .F-A. NOT funding formers..C_LOLLY" data-source-line="43" id="ent0012"><rect fill="#FFFFFF" height="58.1358" rx="2.5" ry="2.5" style="stroke:#333333;stroke-width:1;" width="91.3277" x="1455.34" y="138.6361"/><text fill="#000000" font-family="'sans-serif'" font-size="14" font-style="italic" lengthAdjust="spacing" textLength="69.3277" x="1466.34" y="163.602">&#171;#C5CAE9&#187;</text><text fill="#000000" font-family="'sans-serif'" font-size="14" lengthAdjust="spacing" textLength="49.1803" x="1476.4137" y="182.6699">Lolly  &#8888;</text></g><!--entity GATE--><g class="entity" data-qualified-name="GATE" data-source-line="46" id="ent0013"><rect fill="#FFFFFF" height="77.2038" rx="2.5" ry="2.5" style="stroke:#333333;stroke-width:1;" width="191.7373" x="827.13" y="332.8361"/><text fill="#000000" font-family="'sans-serif'" font-size="14" font-style="italic" lengthAdjust="spacing" textLength="67.2838" x="889.3568" y="357.802">&#171;#FFECB3&#187;</text><text fill="#000000" font-family="'sans-serif'" font-size="14" lengthAdjust="spacing" textLength="128.5895" x="837.13" y="376.8699">is_funding_former()</text><text fill="#000000" font-family="'sans-serif'" font-size="14" lengthAdjust="spacing" textLength="171.7373" x="837.13" y="395.9379">&#8212; the funding chokepoint</text></g><!--entity POOL--><g class="entity" data-qualified-name="POOL" data-source-line="47" id="ent0014"><rect fill="#FFFFFF" height="77.2038" rx="2.5" ry="2.5" style="stroke:#333333;stroke-width:1;" width="267.841" x="789.08" y="501.0461"/><text fill="#000000" font-family="'sans-serif'" font-size="14" font-style="italic" lengthAdjust="spacing" textLength="69.1738" x="888.4136" y="526.012">&#171;#C8E6C9&#187;</text><text fill="#000000" font-family="'sans-serif'" font-size="14" lengthAdjust="spacing" textLength="111.9889" x="799.08" y="545.0799">&#931;&#10214;s&#10215;  supply pool</text><text fill="#000000" font-family="'sans-serif'" font-size="14" lengthAdjust="spacing" textLength="247.841" x="799.08" y="564.1479">from_sig(s).par &#8212; the funded channel</text></g><g class="entity" data-qualified-name="GMN26" data-source-line="69" id="ent0027"><path d="M734.3,639.2461 L734.3,702.3641 A0,0 0 0 0 734.3,702.3641 L1111.6954,702.3641 A0,0 0 0 0 1111.6954,702.3641 L1111.6954,649.2461 L1101.6954,639.2461 L927,639.2461 L923,578.6961 L919,639.2461 L734.3,639.2461 A0,0 0 0 0 734.3,639.2461" fill="#E8F5E9" style="stroke:#666666;stroke-width:1;"/><path d="M1101.6954,639.2461 L1101.6954,649.2461 L1111.6954,649.2461 L1101.6954,639.2461" fill="#E8F5E9" style="stroke:#666666;stroke-width:1;"/><text fill="#000000" font-family="'sans-serif'" font-size="13" lengthAdjust="spacing" textLength="356.3954" x="740.3" y="658.1431">funding_sig is built only from { Unit, Ground, Quote, And };</text><text fill="#000000" font-family="'sans-serif'" font-size="13" lengthAdjust="spacing" textLength="355.6645" x="740.3" y="675.8491">the six connectives &#8853; &amp; ! ? &#8888; (and Threshold, per F-A &#167;2(A))</text><text fill="#000000" font-family="'sans-serif'" font-size="13" lengthAdjust="spacing" textLength="300.3033" x="740.3" y="693.5551">reflect to the value/type layer, never to &#931;&#10214;s&#10215; (F-A).</text></g><!--link F_UNIT to GATE--><g class="link" data-entity-1="ent0002" data-entity-2="ent0013" data-link-type="dependency" data-source-line="50" id="lnk15"><path d="M135.21,206.5461 C149.14,218.4761 165.49,230.8561 182,239.8361 C263.87,284.3661 290.95,282.9861 382,302.8361 C535.75,336.3761 712.9764,354.4614 821.8464,363.3014" fill="none" id="F_UNIT-to-GATE" style="stroke:#000000;stroke-width:1;"/><polygon fill="#000000" points="826.83,363.7061,818.1832,358.9908,821.8464,363.3014,817.5358,366.9646,826.83,363.7061" style="stroke:#000000;stroke-width:1;stroke-linejoin:miter;stroke-miterlimit:10;"/></g><!--link F_GROUND to GATE--><g class="link" data-entity-1="ent0003" data-entity-2="ent0013" data-link-type="dependency" data-source-line="51" id="lnk16"><path d="M327.22,216.0161 C338.59,224.6361 350.83,233.0361 363,239.8361 C511.44,322.8661 705.3622,352.755 821.8022,363.775" fill="none" id="F_GROUND-to-GATE" style="stroke:#000000;stroke-width:1;"/><polygon fill="#000000" points="826.78,364.2461,818.1969,359.4159,821.8022,363.775,817.4432,367.3803,826.78,364.2461" style="stroke:#000000;stroke-width:1;stroke-linejoin:miter;stroke-miterlimit:10;"/></g><!--link F_QUOTE to GATE--><g class="link" data-entity-1="ent0004" data-entity-2="ent0013" data-link-type="dependency" data-source-line="52" id="lnk17"><path d="M479.15,206.5561 C492.09,218.4761 507.37,230.8661 523,239.8361 C619.45,295.2161 737.7938,329.777 821.8138,349.617" fill="none" id="F_QUOTE-to-GATE" style="stroke:#000000;stroke-width:1;"/><polygon fill="#000000" points="826.68,350.7661,818.8401,344.8048,821.8138,349.617,817.0016,352.5907,826.68,350.7661" style="stroke:#000000;stroke-width:1;stroke-linejoin:miter;stroke-miterlimit:10;"/></g><!--link F_AND to GATE--><g class="link" data-entity-1="ent0005" data-entity-2="ent0013" data-link-type="dependency" data-source-line="53" id="lnk18"><path d="M687.55,206.6461 C739.39,242.7161 812.8253,293.801 864.5953,329.811" fill="none" id="F_AND-to-GATE" style="stroke:#000000;stroke-width:1;"/><polygon fill="#000000" points="868.7,332.6661,863.5957,324.2431,864.5953,329.811,859.0275,330.8106,868.7,332.6661" style="stroke:#000000;stroke-width:1;stroke-linejoin:miter;stroke-miterlimit:10;"/></g><!--link GATE to POOL--><g class="link" data-entity-1="ent0013" data-entity-2="ent0014" data-link-type="dependency" data-source-line="54" id="lnk19"><path d="M923,410.1561 C923,437.2561 923,468.6561 923,495.7961" fill="none" id="GATE-to-POOL" style="stroke:#2E7D32;stroke-width:1;"/><polygon fill="#2E7D32" points="923,500.7961,927,491.7961,923,495.7961,919,491.7961,923,500.7961" style="stroke:#2E7D32;stroke-width:1;stroke-linejoin:miter;stroke-miterlimit:10;"/><text fill="#000000" font-family="'sans-serif'" font-size="11" lengthAdjust="spacing" textLength="124.386" x="939.3633" y="452.805">funding former &#8658; admit</text><text fill="#000000" font-family="'sans-serif'" font-size="11" lengthAdjust="spacing" textLength="155.1125" x="924" y="467.7869">(builds funding_sig, keys &#931;&#10214;s&#10215;)</text></g><!--link C_THRESH to GATE--><g class="link" data-entity-1="ent0007" data-entity-2="ent0013" data-link-type="dependency" data-source-line="57" id="lnk20"><path d="M862.92,206.6461 C876.15,242.7161 894.208,291.962 907.418,327.972" fill="none" id="C_THRESH-to-GATE" style="stroke:#C62828;stroke-width:1;"/><polygon fill="#C62828" points="909.14,332.6661,909.7957,322.8391,907.418,327.972,902.2851,325.5943,909.14,332.6661" style="stroke:#C62828;stroke-width:1;stroke-linejoin:miter;stroke-miterlimit:10;"/></g><!--link C_PLUS to GATE--><g class="link" data-entity-1="ent0008" data-entity-2="ent0013" data-link-type="dependency" data-source-line="58" id="lnk21"><path d="M986.55,197.1761 C973.57,232.5861 953.0712,288.4517 938.6512,327.7817" fill="none" id="C_PLUS-to-GATE" style="stroke:#C62828;stroke-width:1;"/><polygon fill="#C62828" points="936.93,332.4761,943.7836,325.4031,938.6512,327.7817,936.2726,322.6492,936.93,332.4761" style="stroke:#C62828;stroke-width:1;stroke-linejoin:miter;stroke-miterlimit:10;"/></g><!--link C_WITH to GATE--><g class="link" data-entity-1="ent0009" data-entity-2="ent0013" data-link-type="dependency" data-source-line="59" id="lnk22"><path d="M1098.7,197.2461 C1087.22,210.4361 1073.17,226.1861 1060,239.8361 C1028.98,272.0161 995.9271,303.4672 968.3071,329.0672" fill="none" id="C_WITH-to-GATE" style="stroke:#C62828;stroke-width:1;"/><polygon fill="#C62828" points="964.64,332.4661,973.9599,329.2817,968.3071,329.0672,968.5216,323.4144,964.64,332.4661" style="stroke:#C62828;stroke-width:1;stroke-linejoin:miter;stroke-miterlimit:10;"/></g><!--link C_BANG to GATE--><g class="link" data-entity-1="ent0010" data-entity-2="ent0013" data-link-type="dependency" data-source-line="60" id="lnk23"><path d="M1228.14,197.0661 C1216.79,211.1461 1201.85,227.7061 1186,239.8361 C1135.3,278.6561 1075.8465,308.7651 1023.6465,331.4251" fill="none" id="C_BANG-to-GATE" style="stroke:#C62828;stroke-width:1;"/><polygon fill="#C62828" points="1019.06,333.4161,1028.9085,333.5015,1023.6465,331.4251,1025.7229,326.1631,1019.06,333.4161" style="stroke:#C62828;stroke-width:1;stroke-linejoin:miter;stroke-miterlimit:10;"/></g><!--link C_WHYNOT to GATE--><g class="link" data-entity-1="ent0011" data-entity-2="ent0013" data-link-type="dependency" data-source-line="61" id="lnk24"><path d="M1354.78,197.1961 C1343.49,211.4961 1328.41,228.1961 1312,239.8361 C1223.55,302.6061 1107.6035,335.8794 1024.1935,353.3794" fill="none" id="C_WHYNOT-to-GATE" style="stroke:#C62828;stroke-width:1;"/><polygon fill="#C62828" points="1019.3,354.4061,1028.9296,356.4728,1024.1935,353.3794,1027.2869,348.6433,1019.3,354.4061" style="stroke:#C62828;stroke-width:1;stroke-linejoin:miter;stroke-miterlimit:10;"/></g><!--link C_LOLLY to GATE--><g class="link" data-entity-1="ent0012" data-entity-2="ent0013" data-link-type="dependency" data-source-line="62" id="lnk25"><path d="M1481.19,197.0461 C1469.92,211.4761 1454.72,228.3461 1438,239.8361 C1310.5,327.5161 1133.9416,355.9373 1023.9316,365.4073" fill="none" id="C_LOLLY-to-GATE" style="stroke:#C62828;stroke-width:1;"/><polygon fill="#C62828" points="1018.95,365.8361,1028.2599,369.0495,1023.9316,365.4073,1027.5738,361.0789,1018.95,365.8361" style="stroke:#C62828;stroke-width:1;stroke-linejoin:miter;stroke-miterlimit:10;"/><path d="M1419.08,252.8361 L1419.08,297.8361 L1690.08,297.8361 L1690.08,262.8361 L1680.08,252.8361 L1419.08,252.8361" fill="#FFEBEE" style="stroke:#666666;stroke-width:1;"/><path d="M1680.08,252.8361 L1680.08,262.8361 L1690.08,262.8361 L1680.08,252.8361" fill="#FFEBEE" style="stroke:#666666;stroke-width:1;"/><text fill="#000000" font-family="'sans-serif'" font-size="13" lengthAdjust="spacing" textLength="250.4843" x="1425.08" y="271.7331">rejected at the funding chokepoint &#8212; F-A</text><text fill="#000000" font-family="'sans-serif'" font-size="13" lengthAdjust="spacing" textLength="241.8782" x="1425.08" y="289.4391">(reflect to the value / type layer instead)</text></g><g class="legend" data-source-line="74"><rect fill="none" height="128.4075" rx="7.5" ry="7.5" style="stroke:#000000;stroke-width:1;" width="416.9221" x="643.0789" y="716.3641"/><text fill="#000000" font-family="'sans-serif'" font-size="14" font-weight="700" lengthAdjust="spacing" textLength="35.1539" x="651.7189" y="738.3301">color</text><text fill="#000000" font-family="'sans-serif'" font-size="14" font-weight="700" lengthAdjust="spacing" textLength="61.6278" x="694.1528" y="738.3301">meaning</text><rect fill="#C8E6C9" height="19.0679" style="stroke:none;stroke-width:1;" width="42.4338" x="648.0789" y="742.4321"/><text fill="#000000" font-family="'sans-serif'" font-size="14" lengthAdjust="spacing" textLength="3.64" x="648.0789" y="757.398">&#160;</text><text fill="#000000" font-family="'sans-serif'" font-size="14" lengthAdjust="spacing" textLength="235.4124" x="694.1528" y="757.398">funding former / supply pool &#931;&#10214;&#183;&#10215; (g</text><text fill="#000000" font-family="'sans-serif'" font-size="14" lengthAdjust="spacing" textLength="17.5139" x="1000.1916" y="757.398">#P</text><text fill="#000000" font-family="'sans-serif'" font-size="14" lengthAdjust="spacing" textLength="26.3756" x="1024.9855" y="757.398">s&#8728;s)</text><rect fill="#C5CAE9" height="19.0679" style="stroke:none;stroke-width:1;" width="42.4338" x="648.0789" y="761.5"/><text fill="#000000" font-family="'sans-serif'" font-size="14" lengthAdjust="spacing" textLength="3.64" x="648.0789" y="776.4659">&#160;</text><text fill="#000000" font-family="'sans-serif'" font-size="14" lengthAdjust="spacing" textLength="252.587" x="694.1528" y="776.4659">value / capability type-logic connective</text><rect fill="#FFECB3" height="19.0679" style="stroke:none;stroke-width:1;" width="42.4338" x="648.0789" y="780.5679"/><text fill="#000000" font-family="'sans-serif'" font-size="14" lengthAdjust="spacing" textLength="3.64" x="648.0789" y="795.5338">&#160;</text><text fill="#000000" font-family="'sans-serif'" font-size="14" lengthAdjust="spacing" textLength="212.0432" x="694.1528" y="795.5338">is_funding_former() control gate</text><rect fill="#2E7D32" height="19.0679" style="stroke:none;stroke-width:1;" width="42.4338" x="648.0789" y="799.6358"/><text fill="#000000" font-family="'sans-serif'" font-size="14" lengthAdjust="spacing" textLength="3.64" x="648.0789" y="814.6017">&#160;</text><text fill="#000000" font-family="'sans-serif'" font-size="14" lengthAdjust="spacing" textLength="217.6852" x="694.1528" y="814.6017">funding-admit / pool-keying path</text><rect fill="#C62828" height="19.0679" style="stroke:none;stroke-width:1;" width="42.4338" x="648.0789" y="818.7037"/><text fill="#000000" font-family="'sans-serif'" font-size="14" lengthAdjust="spacing" textLength="3.64" x="648.0789" y="833.6697">&#160;</text><text fill="#000000" font-family="'sans-serif'" font-size="14" lengthAdjust="spacing" textLength="298.7589" x="694.1528" y="833.6697">capability connective rejected at funding (F-A)</text><line style="stroke:#000000;stroke-width:1;" x1="648.0789" x2="1055.0011" y1="723.3641" y2="723.3641"/><line style="stroke:#000000;stroke-width:1;" x1="648.0789" x2="1055.0011" y1="742.4321" y2="742.4321"/><line style="stroke:#000000;stroke-width:1;" x1="648.0789" x2="1055.0011" y1="761.5" y2="761.5"/><line style="stroke:#000000;stroke-width:1;" x1="648.0789" x2="1055.0011" y1="780.5679" y2="780.5679"/><line style="stroke:#000000;stroke-width:1;" x1="648.0789" x2="1055.0011" y1="799.6358" y2="799.6358"/><line style="stroke:#000000;stroke-width:1;" x1="648.0789" x2="1055.0011" y1="818.7037" y2="818.7037"/><line style="stroke:#000000;stroke-width:1;" x1="648.0789" x2="1055.0011" y1="837.7716" y2="837.7716"/><line style="stroke:#000000;stroke-width:1;" x1="648.0789" x2="648.0789" y1="723.3641" y2="837.7716"/><line style="stroke:#000000;stroke-width:1;" x1="690.5128" x2="690.5128" y1="723.3641" y2="837.7716"/><line style="stroke:#000000;stroke-width:1;" x1="996.5516" x2="996.5516" y1="723.3641" y2="837.7716"/><line style="stroke:#000000;stroke-width:1;" x1="1021.3455" x2="1021.3455" y1="723.3641" y2="837.7716"/><line style="stroke:#000000;stroke-width:1;" x1="1055.0011" x2="1055.0011" y1="723.3641" y2="837.7716"/></g><?plantuml-src ZLRTRk965BxtKvo0j0K99mhffcIxpGg8ILP2m2wWrQfPeOaPp9JnZEiP9wLBfDvKhNfPjTBUvQ9IymHLUvq7w4Fm93rZysCJHwelKF2SyyrtllETG_RqbFeK0awOiDICYO24n8SndP28wvOKkaFmlA28KBQY8PiKKc6kz0CfgD1zFUSKGkfg8ZnEKo5gIiRoXWaF9eIhz4az3EMDkQ7FlgTmU9Ww2eWx8nw5ZnP0GuPZ6ZObbo4KFuyVwpQFm-Fee_Z9H7UafWr4zq8PYV4ghjLgrPp3tQWKadcAn_5ZQQQnrAwWq6SUK17v5T0t4ZnCz4ceeDIowsLO_l0RJF2Ak78P-jISUB20OWy_rFBdJweCrmfGVxWcFA87BWd85UDCpq7F0sfpwJ7NijPQ55exQF08hm0lNnQRDUUuUN9w6ikn5QSm54nV2aFBnywoW3ENQ7QDocVJY8BMQDXvFSYcBp_z2EUnQ2MlZ3XtVyNKW-WAWM16vvUYz71_Ljq_sPIDByivsETlkyFEMHRzJOIAbugzSi8m2ALBbO8fKTCSX3V3xi390jIH5sgmoZVCD1KAMuSnLqmGBSCSe3hok4r9tDosu23fIgeLHd1ixGleT0UxhLtL-RnPTtAa7qn3ggQIZnDsCrjEx0vy6yamyhE9oAev6boyTVeNMOWUZx3Zorz-pudljOVzRFGxfgS0pt9YtxqUx20tS681zd9Y6_NE-GxkT8wZ0V0g3_dYFGgJZMzBpkU6zZyv2Urkk_tUo9zAO6gqKdQKA5jATNIjkJkLCnf89dICscevpSPHWdfUHsEayFxzOtdtfrhUtGEeA0YGJ20blnIJKFeZnRoIAk_Zo4Fw2Zh66uWGb3zoJA_RRLlMPx0xYW5HoIHxH5CWOcoy7xz8tRfl9NE5FhBjquJgUXhIRs9tPsBGff3ECXzWVrsiEb-S7LK_u6j335xik1AMF_qAPEoRkIzTHOoFrJh2r5un91Li92gRob8Ju4hKm3KhGW49pNR_1h-YEaG_qOvazUrRQmiRZitZQgrQ-x2cdhZL59DpPCpvn97nubDPiV5oZsABvMK9N3SW1N0cPcR_Emt7B9J_KQ9n2bQ9mQMGJZY6WvRRBOvxmsmCu6IE3M12QKh6POkY9SoTLdBpbTHQ-Y0dIUEAJgtrt3b1p5HxW2amJTF84nra70iVmMpnoceHLo1UcnN0vGUtNs9wx3ZsNQPrk3FW6Up1ApE6K3BctEoZ2WJ84ik1X_jggLuknneyhkfWMrC51Bt693pU3jUgxzigEVNCbwHE15ryXPpCBod-uLCYZAWBytupNujTynwaPoUvw-7l-BBTNz4rKB9T5fj6vFwWfhHP9wuMo09ojey9ro4IY2TxbP3CtPQo7GyPtcYesZXLfeo0u0vUKulTXmbktdXbRBTM8ValOc4qJSIq_WC0?></g></svg>